<svg xmlns="http://www.w3.org/2000/svg" xmlns:xlink="http://www.w3.org/1999/xlink" width="428" height="926" viewBox="0 0 428 926">
  <defs>
    <clipPath id="clip-path">
      <rect id="Rectangle_190" data-name="Rectangle 190" width="681" height="448" transform="translate(-0.285 0.407)" fill="#fff"/>
    </clipPath>
    <clipPath id="clip-iPhone_13_12_Pro_Max_1">
      <rect width="428" height="926"/>
    </clipPath>
  </defs>
  <g id="iPhone_13_12_Pro_Max_1" data-name="iPhone 13, 12 Pro Max – 1" clip-path="url(#clip-iPhone_13_12_Pro_Max_1)">
    <rect width="428" height="926" fill="#fff"/>
    <g id="Group_593" data-name="Group 593" transform="translate(3.316 480.593)">
      <g id="Mask_Group_24" data-name="Mask Group 24" transform="translate(-106.113)" clip-path="url(#clip-path)">
        <g id="Group_583" data-name="Group 583" transform="translate(14.412 296.047)">
          <path id="Path_9023" data-name="Path 9023" d="M14861.522,715.315a26.2,26.2,0,0,1,5.354-3.668c2.439-1.079,3.686-1.32,5.131-2.372s2.465-2.286,3.243-2.91,1.663-1.3,1.663-1.3-.184-.568.786-1.115-.32-.272,1.638-1.009,2.963-1.053,2.963-1.053a7.062,7.062,0,0,0,3.115-1.544,12.92,12.92,0,0,1,2.318-1.751,14.254,14.254,0,0,0,2.774-1.9c.777-.74-1.887-.961,3.086-1.783s4.767-.659,6.069-1.3.247-1.613,2.056-.967,1.551.044,2.337.967-.717-1.319,1.049,1.3,1.88,2.542,2.746,2.5,1.6.744.619,1.187-.836.738-1.716,1.751-.122.077-1.649,1.544-1.758.384-2.709,2.062a30.572,30.572,0,0,0-1.886,4.7,2.583,2.583,0,0,0,0,1.578c.283.8.819,1,1.209,1.419a12.426,12.426,0,0,0,2.337,1.251s.384-2.256,1.049,0,.461.923,1.027,3.037-.572,1.606.622,3.067-.371,1.036,1.716,1.962A12.628,12.628,0,0,0,14911.4,722s1.033-.4,0-1.952a12.54,12.54,0,0,1-1.416-2.7c-.348-.749-.809-2.027-.809-2.027s-1.408-2.711,0-2.417.659-1.434,2.225.689a36.839,36.839,0,0,1,2.62,3.755,31.489,31.489,0,0,0,2.972,3.622s-1.861,1.577-1.862,2.14.108.277,5.356.785,6.138,0,6.138,0-4.024.125,2.792,0,10.392-3.611,12.442-1.893a7.608,7.608,0,0,0,3.442,1.893s-.24.07,1.605,1.048-.264,1.084,3.818,1.648a21.761,21.761,0,0,0,7.37,0c.62-.17-.358-.165,1.239,0s2.144.107,2.383.656.469-.033,0,1.246-1.1,1.467-1.613,2.032-.28.232-.77,1.255-.6.888-1.239,1.393-1.556,1.416-1.556,1.416l-2.749,5.193s-.032-.068-1.042.89-1.729.8-2.023,1.447.581-1.9,0,1.2-.133-.745-1.27,3.419-.336,4.146,0,6.262.559,1.944,1.27,3.932.24-.547.859,2.742,1.352,4.009,2.206,4.666.706.258,1.517,1.4a6.359,6.359,0,0,0,2.788,1.763l67.577.326,1.759-.5a6.282,6.282,0,0,1,1.634-.824c.966-.322.4.449,2.611-1.615s2.486-1.293,2.564-2.938-.6-1.844,0-2.476a6.033,6.033,0,0,0,1.7-2.28c.684-1.476,1.086-1.132,1.533-3.559a43.784,43.784,0,0,0,.834-4.518,8.657,8.657,0,0,1,3.338-6.177c2.818-2.055,6.167-3.954,6.6-4.747a8.109,8.109,0,0,0,.969-2.354c.215-.966.014-3.128-.969-3.912s.857-.5-2.834-1.284-1.332-.868-4.176-.868h-5.97c-1.842,0-.352.643-2.594,0a40.109,40.109,0,0,1-4.1-1.165c-.4-.258.747-1.056-2.9-1.157s-4.227.13-4.975,1.157a6.3,6.3,0,0,1-2.729,2.682c-1.547.7-2.234,1.3-3.953,1.1s-3.171.088-2.626-.469,3.246-3.7,3.246-3.7-.036.194.865-.772,1.723-.628,1.985-1.635-3.471-6.081-3.471-6.081h-1.456c-2.791,0-6.962-.235-7.295,0s.115,1.114-2.477,0-3.3-1.491-3.3-1.491l-1.67-1.592s.735-.947-3.717-1.012-6.895-.51-7.621,0a6.9,6.9,0,0,1-3.033,1.012c-.557-.072.105.135-1.153,0s-.642-1.1-2.217,0-1.523.71-1.952,1.592-.035.965-.89,1.056-1.319,1.035-1.046,0,.248-.821.49-1.92.051-1.394-.49-.728a12.732,12.732,0,0,1-1.146,1.219s-3.55,1.335-4.485,1.865-.74-.047-1.785,1.133-.742.893-1.445,1.638-.682,1.2-1.453,1.486a3.246,3.246,0,0,1-1.738,0,4.424,4.424,0,0,0-1.551,0c-.316.178-.945.01-1.42,0a5.529,5.529,0,0,0-1.059,0c-1.357.031-.1-.515-2.475,0a16.266,16.266,0,0,0-3.265.949,2.4,2.4,0,0,1-.574-1.324,4.838,4.838,0,0,1,0-2.169c.112-.565-.194-1.588.574-1.715s1.288.091,1.362-.435a4.439,4.439,0,0,0,0-1.056s-2.924-.357-4.143-.374a11.313,11.313,0,0,0-3.123.374c-.727.215-2.686,2.269-1.555,0a8.948,8.948,0,0,1,2.549-3.085c.215-.35,2.129-2.915,2.129-2.915s1.34-.969-.391-1.038-2.5-.466-2.732,0-.014.521-.621,1.038-1.945,1.356-2.539,1.869-.521.861-1.089,1.047-3.705,1.493-3.705,1.493l-4.178,2.648s-.913.747-1.479,0a9.276,9.276,0,0,1-1.251-1.92c-.283-.654.066-3.637,0-4.167s2.729-5.857,2.729-5.857a11.05,11.05,0,0,0,2.865-1.03,22.8,22.8,0,0,1,2.664-1.381c.6-.326,3.792-1.087,4.585-1.4s.262-.662,3.012-.87,2.845-.279,3.293-.449,1.032-1.336,1.616-1.914a3.245,3.245,0,0,1,2.175-1.291,38.162,38.162,0,0,1,5.178-1.413c.871,0,.113-.57,1.773,0s1.807-.237,1.742,1.413-2.244,2.427,0,2.5,2.877.007,3.061-.4a7.885,7.885,0,0,0,0-2.1l.477-5.835,13.521-8.254a13.487,13.487,0,0,0,1.153-1.616c.614-1-.133-.934,1.207-1.718s1.672-1.449,3.086-1.7,7.568-4.838,7.568-4.838h1.822l4.09-4.4h4.625a2.8,2.8,0,0,1,1.735-1.161c1.149-.215-.622.1,1.844,0s3.819-1.075,5.214-1.57a26.884,26.884,0,0,0,2.851-.976c.384-.259,3.1-.579,0-.579s-2.425.182-3.471,0a7.319,7.319,0,0,1-2.626-1.823s-4.152-.184-1.152-.949,1.559-1.26,4.4-1.13a30.243,30.243,0,0,1,3.785.425c.688.021,3.19-2.871,3.715-3s2.621-.622,2.9-.675-.895.547.637,0,.472-.153,0,.675-1.086.988-1.436,1.491a1.018,1.018,0,0,0,.8,1.508,12.989,12.989,0,0,0,3.158,0c.942-.167-1.15.517,1.271-.425s4.713-1.928,5.064-1.823,2.2-.051-.614-1.427-2.582-2.7-2.582-2.7-1.913-1.873-2.763-1.873a5.848,5.848,0,0,1-2.441,0c-2.69-.235-3.895-.2-3.994-.468s-1.57-.764-2-1.519,1.905-1.357-1-.968-5.209,2.491-5.533,2.487.895-.574-1.035,0-2.838.176-3.138,0,1.335-.534-1.163-.573-1.922-1.279-2.416-.946-.51-.44-1.416,0-.947.978-1.639.946a28,28,0,0,0-4.033,1.041s1.244.184-.939,1.873-.131-1.2-2.51,2.7-1.934,3.592-3.98,5.328-3.818,2.314-4.034,2.854-.062-.1-.813.524a2.718,2.718,0,0,1-1.826.832c-.594,0,7.111.5-2.36,0s-7.72-1.13-10.249-.832-4.314.381-4.717,0-1.848-.972-.592-2.005a23.959,23.959,0,0,0,2.679-2.322c1.093-1.124,2.808-3.419,3.841-3.7s-.309-.55,2.934-.675,2.253.679,5.178,0,3.129-.529,3.917-.9a12.577,12.577,0,0,0,2.01-.93,11.065,11.065,0,0,1,1.566-.862v-1.391a8.389,8.389,0,0,0-1.12-.482c-.57-.189,1.576-.452-1.26-.468s-3.635-.015-4.187,0,1.008-.311-2.217,0-1.326-.6-3.888.468-2.724.465-4.145,1.873a8.306,8.306,0,0,1-3.271,2.231c-1.875.945-3.262,1.755-5.279,2.63s-3.641,1.062-4.156,1.508a1.978,1.978,0,0,1-1.239.705c-.777.187,1.891-.312-1.556.46s-10.43,4.859-11.238,4.7a12.8,12.8,0,0,0-4.29,0c-.942.323-.847-.523-2.467.737a33.508,33.508,0,0,1-3.693,2.408s-.622,1.122-3.566,1.635-3.946.623-3.946.623h-.714l-6.138,1.769a6.153,6.153,0,0,0-2.945,1.616,27.305,27.305,0,0,1-2.411,2.349s1.056.048-1.109,1.015a9.542,9.542,0,0,0-2.62,1.455s-1.823.76-3.3,1.556-2.446,1.454-2.446,1.454c-.438.219-3.11.856-3.11.856a7.663,7.663,0,0,1-2.03.657s-.319-1.317-3.24,0-6.463,3.085-6.463,3.085c-.657.329-11.44,5.375-11.47,5.731s.043.011-.734.983-4.525,3.007-4.525,3.007a20.392,20.392,0,0,0-2.823,2.971c-1.1,1.515-1.663,1.341-2.263,2.394s-.014.076-1.055,1.3-.885.059-2.165,1.829-1.222,2.178-.847,2.035a1.516,1.516,0,0,1,.847,0l1.1-.953s-1.93.3-1.951.953-.683,1.288-1.463,2.01-.577.456-1.152.97A4.524,4.524,0,0,0,14861.522,715.315Z" transform="translate(-14861.522 -614.146)" fill="#edffff" stroke="#151515" stroke-linecap="round" stroke-linejoin="round" stroke-width="2"/>
          <path id="Path_9024" data-name="Path 9024" d="M15057.77,762.749s-.346.46.528,0,.816-.914,2.663-1.126.295.242,2.187,0a18.812,18.812,0,0,1,3.692,0c.637-.015.3,1.315.617,1.126s.085.553,1.6,0,3.894-.111,4.216-1.126.552-1.032.552-1.4.853-1.374-.552-1.32-.394-.568-2.745,0-.528.481-3.069.568-3.642-.064-4.31,0,2.775-.754-1.438,0-4.691.214-5.186,1.32,0,1.35,0,1.35Z" transform="translate(-14959.295 -667.899)" fill="#edffff" stroke="#151515" stroke-linecap="round" stroke-linejoin="round" stroke-width="2"/>
          <path id="Path_9025" data-name="Path 9025" d="M15093.838,762.906s-.389.128.8,0a7.031,7.031,0,0,0,2.192-.583,4.127,4.127,0,0,1,1.669-.414,7.16,7.16,0,0,0,1.475-.182c.6-.137.422-.14,1.584-.458a10.232,10.232,0,0,0,1.48-.424c.9-.322,1.14-.366,1.014-.534s.148-.457-.742-.457a15.38,15.38,0,0,0-2.135,0c-.861.1-.756-.209-1.955,0s-1.339-.079-2.39.457-.885.221-1.676.736-.882.428-.97.68a3.4,3.4,0,0,1-.348.6A.562.562,0,0,0,15093.838,762.906Z" transform="translate(-14978.094 -668.459)" fill="#edffff" stroke="#151515" stroke-linecap="round" stroke-linejoin="round" stroke-width="2"/>
          <path id="Path_9026" data-name="Path 9026" d="M15096.277,754.964a1.146,1.146,0,0,1,.77,0,4.376,4.376,0,0,0,1.48,0s.012-.368,0-.794a1.284,1.284,0,0,0-.254-.867c-.141-.122.309.025-.3-.256s-.3-.608-.922-.505-1.355.355-1.367.761a5.358,5.358,0,0,0,.4,1.387Z" transform="translate(-14979.06 -664.816)" fill="#edffff" stroke="#151515" stroke-linecap="round" stroke-linejoin="round" stroke-width="2"/>
          <path id="Path_9027" data-name="Path 9027" d="M15120.506,759.184l.765-.359h0c1.171-.456,2.552-.081,1.512-.591s-1.313-.606-1.512-.547-.774-.322-.765,0-.085.35-.377.547S15120.506,759.184,15120.506,759.184Z" transform="translate(-14991.294 -667.342)" fill="#edffff" stroke="#151515" stroke-linecap="round" stroke-linejoin="round" stroke-width="2"/>
          <path id="Path_9028" data-name="Path 9028" d="M15006.707,673.207s.6-.207,1.795-.537a26.615,26.615,0,0,0,2.88-.782,2.657,2.657,0,0,1,.956-.657c.6-.238-1.021-.209,1.488-.528s2.781.193,3.214,0,1.735-.262,2.294-.546a18.335,18.335,0,0,0,2.037-1.05,5.789,5.789,0,0,1,2.1-1.137c.973-.241,1.028-.005,1.758-.479a16.3,16.3,0,0,1,1.58-.884l3.612-.854,1.405-.4c.313-.089.16.157.968-.411s1.476-.785,1.9-1.133.8-.52.462-.859-.243-1.011-1.152-.878a8.288,8.288,0,0,0-2.174.878c-.764.313-1,.508-2.01.859s-1.785.948-2.645,1.133-2.188.038-3.267.809-.733.2-1.817.854-1.254,1.11-1.665.884a2.731,2.731,0,0,0-1.386,0s-.953.753-.3-.415-.762-1.412,1.684-1.722,2.319-.081,3.048-.411a7.961,7.961,0,0,0,1.758-.7,25.658,25.658,0,0,1,4.108-1.586c1.606-.551,4.81-1.115,4.663-1.569s-.529-1.493-1.206-1.443-.9-.462-2.373.616.474.543-2.288,1.484-3.057,1.035-5.252,1.66-3.714,1.022-4.432,1.218-.76.241-1.012.321a4.717,4.717,0,0,0-.933.809s.259-.13-.394.326a6.464,6.464,0,0,0-1.229,1c-.465.468-.262.5-1.061.894a14.671,14.671,0,0,0-2.444,1.137c-1.351.826-.987.408-2.079,1.05s-1.878.879-2.19,1.374.821.041-.405.676a4.079,4.079,0,0,0-1.456,1Z" transform="translate(-14933.668 -618.156)" fill="#edffff" stroke="#151515" stroke-linecap="round" stroke-linejoin="round" stroke-width="2"/>
          <path id="Path_9029" data-name="Path 9029" d="M15070.139,655.644s1.532-.147,1.967-.242.377.111,1.094-.4.434-.827,1.428-1a6.279,6.279,0,0,0,1.98-.46c.988-.4,1.367-.349,1.45-.825s-.225-.641,0-1.138,0-1.012,0-1.467.4-.591,0-.664-.278-.538-1.773,0-1.381-.091-2.673.664a12.412,12.412,0,0,1-2.287,1.074,16.494,16.494,0,0,0-2.592,1.531c-.488.229-.932.749-.742.825s.26-.139,1.033,0a3.615,3.615,0,0,0,1.453,0,7.061,7.061,0,0,0,1.629-.416c.237-.1,1.094-.409,1.094-.409a3.478,3.478,0,0,1-.781.825c-.314.16-1,.11-1.094.46s.439.147-.521.594S15070.139,655.644,15070.139,655.644Z" transform="translate(-14965.138 -612.949)" fill="#edffff" stroke="#151515" stroke-linecap="round" stroke-linejoin="round" stroke-width="2"/>
          <path id="Path_9030" data-name="Path 9030" d="M15264.521,589.329a62.731,62.731,0,0,1-6.337,1.875,44.779,44.779,0,0,1-4.556.756c-1.084.129-.091-1.107-2.177,0a15.888,15.888,0,0,1-3.947,1.784c-1.868.578-.5.172-3.366,1.029s-.934.117-3.733,1.062-3.854.9-5.34,1.658.683.154-4.465,2-7.441,2.345-8.021,2.74a13.152,13.152,0,0,1-1.567,1.042,6.105,6.105,0,0,1-3.373,1.139c-1.711.2,1.605-1.027-3.842,0s-6.432,2.008-6.484,0-.571-2.743,0-3.384.437.61,1.332-1.536.043-1.512,0-2-.988-.424-1.332-.661.066-1.213-1.075-1a12.367,12.367,0,0,1-3.481,0c-.516-.106,2.822-.822-3.2,0a62.191,62.191,0,0,0-10.781,2.533c-.625.14,3.568,1.121-2.665,1.126s-7.481,1.294-5.787,0,2.95-2.534,3.683-2.662a23,23,0,0,0,3.907-1c3.114-.926.405.605,7.616-2.091s6.077-2.619,9.852-3.493-.49,1.441,5.793-.922,6.823-2.572,8.729-3.156a22.968,22.968,0,0,1,6.441-1.64c4.066-.5,1.72-.1,5.716-.588a51.707,51.707,0,0,0,8.346-1.378c1.36-.5-.271-.221,5.286-1.26s9.768-1.749,11.257-1.9-1.239.811,3.179,0,8.4-1.517,10.707-1.729,5.525-.885,7.014-.885,3.66.132,5.515,0,.71.2,2.808,0,4.5-.74,3.264,0a77.276,77.276,0,0,1-8.492,3.276,41.342,41.342,0,0,1-5.618.666s.239-.34-.771,0-1.665.568-1.665.568a20.812,20.812,0,0,1,1.665,1.26c1.184.955.787,1.681,0,1.966a2.908,2.908,0,0,1-1.665,0,4.778,4.778,0,0,0-2.054,0c-.574.285-2.18-.4-2.639,0s-2.574.37-3.674.806-2.34.592-2.881.834a2.972,2.972,0,0,1-1.514,0s-1.112.169,0,1.106A19.794,19.794,0,0,0,15264.521,589.329Z" transform="translate(-15021.2 -576.42)" fill="#edffff" stroke="#151515" stroke-linecap="round" stroke-linejoin="round" stroke-width="2"/>
          <path id="Path_9031" data-name="Path 9031" d="M15125.4,627.418s.867-.021,1.674,0-1.932-.032,1.5,0,1.471,1.291,5.226,0,3.682-1.209,4.313-1.508,2.5-1.1,2.5-1.1,1.916-.414,0-.724-2.2,0-2.5-.648-1.281-1.111,0-1.218,1.781.5,3.139,0,3.829-.256,4.766-.761,3.551-.067,1.524-1.113-.915-1.217-3.759-1.166-.606-.03-3.843,0-3.036-.111-5.192,0-.8-.213-4.432,0a10.4,10.4,0,0,1-5.414-.807s.045-.215,1.3-.928a17.515,17.515,0,0,1,3.4-1.578,17.208,17.208,0,0,0,4.2-1.835c.766-.654.5-.789,1.541-1.309s3.176-1.481,3.964-1.877.395-.342,1.306-.852a30.52,30.52,0,0,1,5.952-1.471c2.67-.54,1.905-.18,3.569-.951s2.731-1,4.041-1.591,3.066-.974,1.855-1.023-1.265-.912-3.062,0-3.617,2.243-5.425,2.614-4.123.111-6.29.951a18.334,18.334,0,0,1-4.312,1.471c-2.582.582-2.162-.182-4.643.852s-4.166.973-7.395,2.467-3.229,1.683-4.32,2.031-3.866,1.021-4.873,1.394-.22-.331-1.992.709-1.764,1.77-2.574,1.736-.068-1-1.961,0-2.113.277-3.273,1.166-1.48.423-2.295,1.113-1.742.092-1.413.761a3.024,3.024,0,0,0,2.547,1.218c.652-.209,1.239.345,1.854,0a4.506,4.506,0,0,1,1.151-.457s-.412.565-3,1.1-5.741.421-6.127.724-.093-.424-.918,1.1-.915,1.256,0,1.508,1.169-.252,1.748,0,.2-.1,1.366,0a10.484,10.484,0,0,0,1.855,0c.463,0,.088-.608.941-.864s1.684.62,1.134.864-1.509.409-1.134.685a1.368,1.368,0,0,0,1.134.378c.739.021-1.106,1.131,1.854,0s2.555.072,2.042.594-5.358.644-.891,1.324,3.972-.657,3.972-.657v-.667a3.963,3.963,0,0,1,.72-.594c.338-.193.123.223.73-.378a7.786,7.786,0,0,1,1.771-1.149s-.594-1.038,0-1.045a22.11,22.11,0,0,0,2.946-.729s-.744-.6.616-1.1.241-.467,2.074-.648a6.387,6.387,0,0,0,2.275-.457,1.707,1.707,0,0,0,1.471.457c.811-.2,1.211-.7,2.328-.457s1.919.457,1.919.457-.085.026-.492.648a3.475,3.475,0,0,1-1.878,1.1c-.318.04-1.028.857-1.877.729s-.587-.7-1.471,0a5.788,5.788,0,0,1-1.835,1.045c-.753.335-.065-.024-1.4.463s-1.643-.361-2.766,1.063-.6,1.658-1.15,1.918.641,0,.641,0,1.088-1.383,1.542-1.324-1.035-.4,1.174-.594,2.312-.436,2.62-.378a1.327,1.327,0,0,0,1.172,0A22.012,22.012,0,0,1,15125.4,627.418Z" transform="translate(-14979.745 -590.535)" fill="#edffff" stroke="#151515" stroke-linecap="round" stroke-linejoin="round" stroke-width="2"/>
          <path id="Path_9032" data-name="Path 9032" d="M15352.232,609.509s-.488-.093.366,0,1.147-.073,2.787,0a13.039,13.039,0,0,0,4.024,0c2.221-.339,3.25-.276,3.719-.7s-.529-.406,1.115-.721a14.491,14.491,0,0,0,3.01-.735c.514-.251,2.486-.555.819-.893s-.116-.649-2.424-.337a24.034,24.034,0,0,0-4.037.618,12.851,12.851,0,0,1-3.046.612,15.365,15.365,0,0,1-3.181.383c-1.641.038-2.319-.323-2.787,0a1.61,1.61,0,0,0-.816,1.073C15351.715,609.257,15352.232,609.509,15352.232,609.509Z" transform="translate(-15107.608 -591.266)" fill="#edffff" stroke="#151515" stroke-linecap="round" stroke-linejoin="round" stroke-width="2"/>
          <path id="Path_9033" data-name="Path 9033" d="M15405.2,677.076a4.629,4.629,0,0,1,0,1.726,7.584,7.584,0,0,0-.368,1.934,12.461,12.461,0,0,0,0,3.351c.263.6-1.8-.584.7,1.731s2.623,1.33,4.919,3.834,1.9,3.219,2.673,4.705-.2-1.618,1,1.812.941,7.347.578,7.928-1.213.745-1.578,1.856-.99,1.739-1.211,2.455a1.277,1.277,0,0,0,0,1.041l-1.013,4.95c0,.078-.517.342.573,1.723s.6-.931,1.65,2.23,1.578,4.683,1.578,4.683l.752.975c.314.786,1.242,1.762,1.2,2.483s-.25-.023,0,1.7a15.043,15.043,0,0,0,.546,2.648c.1.331.273.649.522,1.443s.826,2.823.826,2.823l.449,1.069h45.869v-3.25s-1.021-.58,2.807-2.086,5.2-1.62,4.523-4.35-1.553-5.736-1.553-5.736-2.1-1.144-.773-2.4a7.2,7.2,0,0,1,2.326-1.637c.44-.231,6.014-2.308,6.49-2.316s.755.95,1.578,0,1.5-.763,2.627-2.441a7.052,7.052,0,0,0,1.227-2.509c.205-.5-.584.8,0-1.041s.773-1.7.584-3.095.34-.961-.584-2.72-1.666-2.35-2.19-3.951-.394-1.563-.764-2.473,0-3.954,0-3.954l2.954-6.4s-1.971,2.345,1.451,0,6.53-4.651,8.4-5.7,4.091-1.833,4.649-2.3a25.1,25.1,0,0,0,2.857-2.232c.6-.715-.009-1.056,1.684-2.711a11.031,11.031,0,0,0,2.53-3.858,14.2,14.2,0,0,0,1.012-2.359,7.472,7.472,0,0,0,0-1.825s-11.416,1.371-12.732,1.037-8.4-4.194-8.4-4.194a53.6,53.6,0,0,1-4.405-3.351c-.224-.409,1.386-.554-.9-1.7s-2.859-1.5-3.877-1.958-.762.026-1.763-1.13-4.637-8.5-4.637-8.5-1-.68-1.937-1.464-1.8-1.46-2.68-2.156a15.1,15.1,0,0,1-2.406-1.966c-1.048-1.107-1.2-1.039-1.156-1.4s2.68-.469,3.1-.469.225-.657,1.676,0,1.316.316,1.877.973a21.035,21.035,0,0,0,2.215,2.465c1.34,1.276,2.457,2.293,2.739,2.55s-1.014-.465.444.769a6.162,6.162,0,0,0,2.529,1.344c.719.372.945-.555,1.8.782s1.15.874,2.072,2.453.772,1.977,1.368,2.323a13.223,13.223,0,0,1,2.485,1.247c1.039.781.4.281,1.451,1.045s-.4-3.612,1.5,1.13,1.691,4.55,1.929,5.027-.609.461,1.16.813,17.137-2.179,17.137-2.179l13.657-3.662,3.823-4.517-8.348-5.113-6.787,1.43h-3.943l-8.5-7.91s-1.192-2.246,1.427-2.221,2.8.968,5.056,2.221a45.826,45.826,0,0,0,4.545,1.9,14.182,14.182,0,0,0,2.341.956c.628.235,2.956.547,3.586.8s-.485,1,2.274,1.356a16.332,16.332,0,0,1,3.736.769,4.23,4.23,0,0,1,1.393,0,2.046,2.046,0,0,0,1,0s6,2.163,6.768,2.125,3.167,0,3.167,0h1c4.191-1.187,3.582-1.45,5.01-.782s4.812,2.588,5.171,3.235a5.546,5.546,0,0,0,1.018,1.229l4.735,2.54s-1.576-.671.549.814.542,1.7,2.926,1.468,2.807-.293,3.212.546a16.454,16.454,0,0,1,1.01,2.811c.085.477-.322.91,0,1.165a52.659,52.659,0,0,1,4.229,5.343,4.074,4.074,0,0,0,1.121,1.825c.837,1,1.546-.2,2.911,2.663a11.918,11.918,0,0,0,2.463,3.859c.32.337.426.03,1.459.854a6.84,6.84,0,0,0,2.022,1.129s1.212-.126,1.313-.367.339-2.132.533-2.631.517-1.228.707-1.906-.283-.111,0-.94-.3-1.917,0-2.663a3.766,3.766,0,0,0,.3-1.262s-.6.21.5-.563a11.782,11.782,0,0,1,3.035-1.313c.235-.079-.955.05,1.063-.365a34.808,34.808,0,0,0,6.063-2.52s.112.142.822-.424,1.967-1.37,1.967-1.37-2.65-.8,1.232-.516,7.666.516,7.666.516-1.819-.647.471.649,2.356,1.358,2.667,1.711,4.159,2.747,4.159,2.747.205-.228.476.474,1.028,1.933,1.208,2.661a1.851,1.851,0,0,1,0,1.125s3.525-.36,3.783,0,1.863.139,2.51.446.918-1.993,1.905,1,.743,3.548,1.46,4.385a8.468,8.468,0,0,1,1.152,2.2c.3.561,1.221,0,1.221,0s.322,1.71.338,2.125,0,1.434,0,1.434l2.13,4.129s-.644-1.158.944,1.314,1.854,2.481,4.1,4.008a8.93,8.93,0,0,1,2.422,1.964,9.293,9.293,0,0,1,1.331,1.334c.388.533-.578-.061.98,1.126s1.34,1.22,2.006,1.572a10.04,10.04,0,0,0,1.739.633l-1.4-3.331a6.2,6.2,0,0,0-1.043-1.334c-.4-.266-.776-.93-1.3-1.351s-2.229-1.672-2.778-2.16a5.586,5.586,0,0,1-.858-1.019,5.481,5.481,0,0,0-1.542-1.441,14.143,14.143,0,0,1-1.48-.87,2.834,2.834,0,0,1-1.155-.933c-.707-.811-.907-.678-1.019-1.072s-.246.776-.514-1.2a19.689,19.689,0,0,1-.431-2.8c.124-.079.584-1.7.944-1.744s-2.679-1.64,1.369,0,4.566,1.447,4.686,1.744-.187.078.467.58,1.313.815,1.844,1.27,1.359,1.9,1.769,2.152-.487-.626,1.043.695.771,1.165,1.835,1.31a17.784,17.784,0,0,0,3.824-.445s1.662-1.365,1.955-1.56.6-.474.6-.807-.668-1.178-.935-1.761a15.982,15.982,0,0,0-.923-2.006,27.625,27.625,0,0,0-2.279-2.619c-.406-.375-.673-.9-1.277-1.129a11.5,11.5,0,0,1-2.8-2.281c-.011-.234-.911-.75-1.043-1.161s-.522-.156-.69-.943-.774-2.493,1.733-2.568,15.318,1.126,17.256,1.125,8.868-2.3,7.248-5.051-4.741-7.35-4.741-7.35-1.14-.641-1.515-.805-.978-.385-.992-.68-2.808-1.267-.863-1.585,1.377-1.028.337-1.4a7.475,7.475,0,0,0-1.447-.438c-.348-.066-.576.17-.87,0a12.177,12.177,0,0,0-1.405-.4,6.536,6.536,0,0,1-.923-.613v-2.346s-.23.085.565,0,4.08,0,4.08,0,.328-.884.988,0-.988.513,1.315,1.415a12.423,12.423,0,0,0,3.9.93s-.211.227.777,1.01a17.093,17.093,0,0,1,2.176,2.252c1.1,1.172,1.179,1.77,1.88,1.845s.927-.23,1.795.473.37.019,1.108.905.592.974,1.049,1.094a3.765,3.765,0,0,0,1.213,0s-.242-.441.764,0,1.221,0,1.221,0-.408-1.8-1.221-2-.477.221-1.346-.473-1.191-1.816-1.68-1.845-1.129.157-1.108-.419,0-1.051,0-1.051-1.179.252.743-.344,3.641-1.565,3.978-1.448-.151.221.634,0a2.13,2.13,0,0,1,2.119.613c.32.494-.115-.322,1.282.4s4.106-1.031,4.5-1.01,1.164-.67,1.5-.93.621-.532.578-.786-.578-1.923-.578-1.923v-1.817l-1.5-2.137s-2.329-.9-3.165-1.115-.458-.282-1.336-.428-.078.523-1.8-.551a13.7,13.7,0,0,0-2.824-1.362c-.273-.155-1.253-.495-1.346-.865s1.233-.722,1.933-.8-1.016.254,1.192,0,6.852-.31,7.344,0-2.675-.369,1.5.8a24.721,24.721,0,0,1,4.984,1.677c.474.2,7.969,2.368,8.392,2.644a10.339,10.339,0,0,0,2.228.662,4.171,4.171,0,0,0,1.655.366c1.648.2.9-.265,2.431,0a11.214,11.214,0,0,1,2.186.369,6.785,6.785,0,0,1,1.713.74,34.419,34.419,0,0,0,3.979,1.23.918.918,0,0,1,.985,0,5.324,5.324,0,0,1,.807.587,6.452,6.452,0,0,1-1.792.851,5.1,5.1,0,0,1-2.044.443c-1.445.048-1.81-.2-2.467,0s-1.441,0-1.182.629-.282-2.215,1.182.786,1.006,2.519,1.929,3.382a8.4,8.4,0,0,0,2.112,1.377s-3.411.094.47,0,4.185-.566,4.185-.566-.077-1.357-.357-1.47-.131-.087-1.056-1.179-3.853-1.686-.979-1.543,1.945-.633,3.205,0,2.8,1.332,3.223,1.543.83.4.83.4l8.367,2.819s-.334-.9.936,0-.654-1.1,1.67.6,3.674,2.7,3.557,2.057-2.581-2.657-2.581-2.657-2.707-1.005,0-.566,8.306,3.672,8.569,3.973-.1-.464.788.344.426.468,2.118,1.318a9.464,9.464,0,0,0,2.4.953,1.013,1.013,0,0,0-.531-.953,12.028,12.028,0,0,1-1.864-1.662c-.587-.583,1.246.427-2.118-1.307s-3.352-2.1-3.693-2.1a31.054,31.054,0,0,1-5.224-2.037,4.867,4.867,0,0,0-.887-.782c-.447-.316-.444-.3-1.576-1.01s-2.355-2.174-3.353-2.346-2.731-1.176-3.53-1.294a11.869,11.869,0,0,1-3.873-1.236c-.775-.6-1.7-1.32-1.7-1.32s.021.226-.831-.369-3.628-.753-3.9-1.028-2.539-.714-3.054-1.115.2-.428-1.32-.98-1.011-.091-1.929-.55-1.67-.748-2.393-1.161a17.9,17.9,0,0,1-2.682-1.315c-1.687-1.054-3.482-1.964-3.482-1.964-.08-.081-3.029-.929-3.029-.929l-1.047-.766c-.243-.162-2.04-1.022-2.04-1.022-.162-.081-2.294-1.2-2.294-1.2-.162-.081,1.111.253-2.911-1.328a29.575,29.575,0,0,0-4.675-1.642l-4.5-.717-5.033-2.784c-.081-.081.165-.409-1.95-1.628s-1.583-.882-2.977-1.716,1.646.42-2.811-1.816-5.408-2.212-5.785-2.278.338.959.811,1.127a18.5,18.5,0,0,1,2.361,1.151c.359.251.014.6,1.569,1.146a5.532,5.532,0,0,1,2.009,1.024s.266.584-.625.584.359.272-1.384,0a8.64,8.64,0,0,1-2.759-.584,16.452,16.452,0,0,0-2.712-.683l-2.641-.86s.671-.528-2.774-1.779a24.847,24.847,0,0,1-4.057-1.675c-.162-.162-.451-.039-1.385-.362s-1.82-.609-1.82-.609l-2.279-1.191-1.277-.929s3.4.251-1.227,0-5.191-.631-5.191-.631a7.081,7.081,0,0,0-1.574-1.309c-1.091-.729,1.552-.565-2.318-1.315a35.958,35.958,0,0,0-4.311-.727h-.661l-1.467-.711-1-.5c-.243-.243-.329-.531-1.717-.753s-1.752,0-1.752,0h-1.905c-2.156-1.16-3.584-2.027-3.584-2.027-.08-.081-1.926-1.053-1.926-1.053-.648-.243-1.991-.973-1.991-.973h0a57.578,57.578,0,0,1-5.491-1.857,22.856,22.856,0,0,0-1.811-1.4s-.645-1.091-2.455-.6a22.927,22.927,0,0,1-2.76.6l-4.509-1.4a4.089,4.089,0,0,0-2.27-1.012c-1.472-.177-.817.528-1.808,0a13.673,13.673,0,0,0-3.345-1.138,11.517,11.517,0,0,0-3.954-.585c-1.33.048-1.447.015-2.687,0s1,.5-2.123,0a29.957,29.957,0,0,0-4.547-.472l-1.576.472-8.854-.953a6.015,6.015,0,0,0-1.478,0,7.69,7.69,0,0,0-1.734.481h0a7.206,7.206,0,0,1-3.072,0l-3.307-1.561c-.324-.162,0,1.08,0,1.08a11.91,11.91,0,0,1-1.831.481,3.838,3.838,0,0,0-1.018,0l-3.267-.969c-.242-.162-2.172-1.134-1.9-.592a14.465,14.465,0,0,0,1.9,2.033s.165-.731-.416.585a6.434,6.434,0,0,0-.607,2.15,3.636,3.636,0,0,1-1.637.421c-.541-.122-1.888.672-.78-.421s.673-1.1.78-1.389a1.693,1.693,0,0,0,0-.761,8.3,8.3,0,0,1-.78-.585c-.017-.06-1.21-2.033-1.21-2.033a1.525,1.525,0,0,0-.687-.723c-.469-.211-.9-.408-.9-.408l-1.681.408h0a8.391,8.391,0,0,0-2.737-.408s-.415-.522-1.409,0a21,21,0,0,0-1.881,1.131,1.47,1.47,0,0,0,.847.592c.595.164,0,.969,0,.969l-.847.472h-1.684l-2.642-1.441-6.267-1.315a19.148,19.148,0,0,0-2.584.723c-.645.306,4.975.637-1.666.592s-6.684.134-7.09,0,.371-.524-1.36-.592-.533.1-2.647,0a43.554,43.554,0,0,0-4.711,0c-.935.066-.22-.264-1.832,0a18.86,18.86,0,0,1-3.818.592c-2.234.1-2.006-.381-4.033,0s-.615.595-2.619.488a6.835,6.835,0,0,0-2.339,0,12.682,12.682,0,0,0-3.749.481,4.576,4.576,0,0,1-1.953.472,23.785,23.785,0,0,1-4.787.585c-3.052.046-3.955.418-4.092,0s-2.127-1.053-3.012-1.538-1.663-.086-1.762-.488-3.686-1.5,0-1.315,3.54-.188,4.773,0a15.639,15.639,0,0,0,2.732,0c1.029.029-.16.641,2.646,0a25.836,25.836,0,0,0,3.5-.941s.176.346-3.5,0-4.592-.708-5.379-.738-1.676,0-1.676,0-.828-.289-1.941-.608,2.464-.621-3.242-1.14-7.172,0-7.172,0h-3.119s.205-1.952-3.148-1.633a20.451,20.451,0,0,1-5.082,0s-5.234,1.917-6,1.633a10.461,10.461,0,0,0-4.343,0,1.528,1.528,0,0,1-1.315,0l-2.042,1.748a9.875,9.875,0,0,1-2.759.738,18.3,18.3,0,0,0-3.563.941,30.942,30.942,0,0,1-3.078.723c-.794.079-1.771.018-2.018.592a2.608,2.608,0,0,0,0,1.441s-2.689.518-3.455.585.8-.694-1.66,0-.893.042-3.5.761a16.259,16.259,0,0,0-3.71,1.389v2.161s-1.079-.636.71,0a10.7,10.7,0,0,0,3,.665h1l1.711-.665,3.052-.677h1.021l4.422,3.122h6.623a5.265,5.265,0,0,0,1.662-.907c.521-.526,1.477-1.539,1.477-1.539s-.145.113,0-.677a8.456,8.456,0,0,1,1.108-2.2s-5.075-.508,0-1.437,4.5-.992,5.658-1.538a9.979,9.979,0,0,0,1.825-1.08s-1.162-.615,0-.723,1.095-.862,2.1-.408a34.316,34.316,0,0,0,4.049,1.131s-1.108,1.39-1.983,1.561-1.078.123-1.52.472-.1-.677-1.344.585-1.016.662-.633,1.437.481,1.235,1.431,1.135.263-.577,2.065-.421.907-.313,4.119,0,4.95.673,6,.421,2.351-.421,2.351-.421l-1.125,1.484h-9.934a11.041,11.041,0,0,1-.742,1.342c-.463.712.884.353-.674.873s1.219.448-2.065.907-2.856,1.005-3.93,1.3-.317-.615-1.659,0a22.172,22.172,0,0,1-4,.838c-.167.125-2.872.468-3.405.58s-7.465,0-7.465,0a12.711,12.711,0,0,1-2.59,0c-.135-.176-1.252-.063-1.832,0a13.006,13.006,0,0,1-1.623,0v-1.418a1.058,1.058,0,0,0-1.006-1.3c-1.227-.071-3.154,0-3.154,0s2,1.551.955,2.137-4.78,1-5.661,1.428-1.587.8-1.587.8l-5.481,2.016h0s.737.439-.525.73-2.89.737-2.89.737.56-.789-.907,0a7.546,7.546,0,0,1-2.209.988c-.683.179,3.319-.565-1.854.589s-5.982,1.353-5.982,1.353l2.448.924s.024.282.813,1,.934-.323.581,1.215-.519,2.622-3.843,3.078a42.876,42.876,0,0,1-8.04,0l-1.7.573s1.262-.664-.687,0-2.418.849-2.418.849-1.21,1.006-1.277,1.645.607,1.474,0,1.945-3.978-.582-1.422.942a13.787,13.787,0,0,0,3.85,1.77s.414-.032,1.955,0a11.135,11.135,0,0,0,2.973,0c2.168-.227,4.949-1.778,5.69-1.77s2.732.767,3.527,0-.206-.025,1.395-.942,3.062-1.945,3.062-1.945,6.949-1.271,6.938-1.645a5.348,5.348,0,0,1,.525-1.422s-1.214-.846,0-1.035,3.729.189,4.286,0-1.828.97,1.2,0a48.508,48.508,0,0,0,5.3-2.042s-.844-2.342,1.951,0,.256,2.113,3.205,3.078a39.835,39.835,0,0,0,5.473,1.422,10.68,10.68,0,0,0,3.078,0l2.811.877a7.407,7.407,0,0,1,.753,1.779c0,.412,1.321.611,1.4,0s2.079-1.311-.842-2.656-5.881-2.082-6.623-2.457-.848-.765-1.65-1.118a5.021,5.021,0,0,1-1.581-1.477s-1.069-.211,1.581-.662,5.53,2.085,6.967,2.14,1.432.881,3.512,1.118,1.274-.809,3.357,1.035,3.035,1.008,4.343,2.3.993-.2,1.825,1.779,1.173,2.508,2.65,1.876a20.391,20.391,0,0,1,4.406-.942l-2.887-2.713s-2.082-.875,0-.877a21.761,21.761,0,0,0,2.887,0,24.034,24.034,0,0,0,5.344-.849s-.369.914.757-.573-1.724-3.269,1.137-3.63a17.7,17.7,0,0,0,3.587-.662c.639-.153,1.6-1.1,2.156-1a5.945,5.945,0,0,0,2.654,0c1.365-.283.977-.845,2.086,0s3.1,2.216,3.1,2.216l1.676-.552v-1.664s-2.658,0,.7,0,2.885.213,4.021,0a5.9,5.9,0,0,1,2.112,0s-4.351.606-1.452,1.664a33.823,33.823,0,0,0,5.453,1.477s-.51.489.777,1.118,4.462.666,1.361,1.608a14.059,14.059,0,0,1-4.092.849c-1.077.16-.6-.377-2.048,0a8.546,8.546,0,0,1-4.1,0c-1.223-.287-1.329.452-2.035,0a10.538,10.538,0,0,0-1.908-.849l-3.031-.573-2.617.573s.041-.363-1.578,0-4.469.849-4.469.849,1.117-.658-1.125,0a30.237,30.237,0,0,1-3.755.877s.1-.561,0,.767a2.322,2.322,0,0,0,.636,1.945s-4.652-.1,2.545.942,7.625,1.046,8.291,1.046.826.072,2.7,0,3.814,0,5.086,0-1.035,3.632-1.469,4.063-.758,2.457-1.676,2.486a14.666,14.666,0,0,0-3.1,0c-1,.248-1.27-.53-2.788,0s2.1-.245-3.138,0-3.941-.156-5.694,0a17.641,17.641,0,0,1-3.155,0s.707.553-.75,0a26.519,26.519,0,0,0-3.666-.964s.446-.367-.742-.641a27.612,27.612,0,0,0-4.844,0s2.857-1.522-1.825,0-5.658,2.219-5.658,2.219.081.021-2.042,0-3.4-.649-4.094-.614-.526.434-1.368,0,1.335-1.108-1.927-.964-3.861-.144-4.671,0a10.517,10.517,0,0,1-2.211,0s.191,1.068-1.608-1.522-1.443-4.063-1.443-4.063-5.559-.046-6.417,0-6.032-.561-7.068,0-1.6.1-2.833.724,2.021.254-1.489.628-2.817.313-6.784.833-6.328.768-7.594.881-.361-.557-2.437,0-2.973.827-3.66,1-5.117,2.486-5.117,2.486-.069-.566-1.248.614-1.408,4.58-1.408,4.58a10.775,10.775,0,0,1-1.629.9h0c-6.992,2.948-9.262,5.333-9.262,5.333l-1.834.782-1.344,1.284c-.648.389-2.54,1.769-2.54,1.769-.13.13-1.494,1.723-1.494,1.723v3.423l-.7,3.662s.809-.268,0,.652-.745.661-1.07,1.661-.612-.392-.653,1.325-.97,1.513.653,2.347-1.677-1.482,2.39,1.222,4.8,2.541,4.762,3.457-1.091,2.784,0,3.461.1.312,3.026,1.505,3.1,1.279,3.977,1.346,4.219.6,4.979.606,1.488-.631,3.4-.606a24.006,24.006,0,0,0,5.117-.6c1.148-.253-.875-.891,3.66-.743a60.92,60.92,0,0,0,6.216,0h.554l7.837-1.505s-2.757-.29,2.209,0a31.132,31.132,0,0,0,6.392,0l2.217,2.248s-2.17-.181,1.2,0S15405.2,677.076,15405.2,677.076Z" transform="translate(-15103.35 -582.495)" fill="#edffff" stroke="#151515" stroke-linecap="round" stroke-linejoin="round" stroke-width="2"/>
          <path id="Path_9034" data-name="Path 9034" d="M15659.82,827.941a3.1,3.1,0,0,1,.643,1.564,7.045,7.045,0,0,1,0,2.026c-.1,1.194.3-1.208-.643,1.967s-1.3,3.76-1.477,4.521,1.059-1.005,0,1.716-1.514,2.638-1.514,4.166a15.743,15.743,0,0,1,0,2.267c-.108,1.741-.18,1.949-.534,2.571s-.283.914-.907,1.449a3.107,3.107,0,0,1-1.377.685c-.5.189.629.254-1.623.564a5.844,5.844,0,0,1-2.678,0c-1.206-.069-1.02.735-2.359-.564s-2.119-.982-2.172-2.605-1.1-2.054,0-3.129a6.7,6.7,0,0,0,1.477-2.009,1.913,1.913,0,0,0,.7-2.173,16.374,16.374,0,0,1-.7-2.938c-.142-.919-.924-1.159,0-2.252s-.025-1,1.176-1.5a29.584,29.584,0,0,1,2.9-1.287,15.848,15.848,0,0,0,3.277-1.449c.974-.569.017-.367,1.377-1.375a10.6,10.6,0,0,0,2.228-2.215c.177-.224-.021-.36.728-.676S15659.82,827.941,15659.82,827.941Z" transform="translate(-15254.634 -702.302)" fill="#edffff" stroke="#151515" stroke-linecap="round" stroke-linejoin="round" stroke-width="2"/>
          <path id="Path_9035" data-name="Path 9035" d="M15888.166,788.7a44.326,44.326,0,0,1,3.756,2.727c.742.734,1.371,1.344,2.326,2.223s.811.5,1.383,1.265.514.641,2.584,2.472a19.435,19.435,0,0,0,2.836,2.244,8.138,8.138,0,0,0,1.262,2.128,13.279,13.279,0,0,0,2.586,2.3,12.715,12.715,0,0,1,1.193,1.068c1.273,1.173,1.4,1.362,2.137,1.663s.91.339,1.772.753a21.19,21.19,0,0,0,2.163.832s.246-.166.984,0,1.516-.2,1.549-.832,0-1.456,0-1.456v-.96s-1.082-.734-1.549-1.068a4.492,4.492,0,0,0-1.755-.891c-1.362-.5-3.165-1.409-3.165-1.409v-.838a3.352,3.352,0,0,0-1.06-1.29c-.654-.4-2.271-1.191-2.271-1.191l-.678-1.054s-1,.217-1.908-1.109.25-.522-1.262-1.363a38.406,38.406,0,0,1-3.621-1.863c-.611-.536-.873-1.273-1.8-1.625s-1.316-.619-2.2-1.041a21.277,21.277,0,0,1-2.248-1.041A13.248,13.248,0,0,0,15888.166,788.7Z" transform="translate(-15376.853 -682.975)" fill="#edffff" stroke="#151515" stroke-linecap="round" stroke-linejoin="round" stroke-width="2"/>
          <path id="Path_9036" data-name="Path 9036" d="M16027.064,878.9s-.432-2.206-.725,0,1.132,2.4,0,3.008.094.715-1.714.873-4.222-.268-4.832-.873-.39-1.312-1.187-1.649,1.227-3.371-1.859-.622-3.586,3.787-3.586,3.787v1.587h-.764c-.711-2.2-.9-3.1-.9-3.1s-.738.434-.7.873,0,2.229,0,2.229.063-.045-.937.761-.169.752-1.693,1.157-1.162-.978-2.809,0-1.6.4-4.555,1.444-2.834.887-4.064,1.362-1.326.1-1.778.727-1.438.486-.8,1.562a16.293,16.293,0,0,0,1.425,2.44c1.228,1.771,2.359,2.947,2.751,3.718a1.129,1.129,0,0,1,0,1.236s-.467.663-1.6,0a22.464,22.464,0,0,0-2.574-1.236s1.539,2.238,2.574,3.648a37.248,37.248,0,0,0,2.557,2.938c.879,1.028.82.256,1.508,2.052s.83,1.733,1.458,3.176.71,2.094,1.3,3.521,1.849,1.146,1.8,2.857-6.59-.085.98,2.644,7.908,2.693,8.452,2.693a23.32,23.32,0,0,0,5-.676c.713-.391-1.007-.986,2.569-.986s3.793.337,4.7,0,1.648-1.261,3.189-1.031a41.448,41.448,0,0,0,5.469,0,19.518,19.518,0,0,0,3.279,1.031c1.188.175-2.172-2.04,3.124.986s6.095,2.931,6.53,3.655a4.494,4.494,0,0,1,.644,1.651c.208.788.884,1.9,1.049,1.14s-1.5.48,0-1.14,3.947,0,3.947,0v2.866l1.713.914,1.923.64a2.282,2.282,0,0,0,0,1.9,5.471,5.471,0,0,0,1.242,1.417c.881.839.518-.029,1.473,1.325a9.509,9.509,0,0,0,1.592,1.919,5.822,5.822,0,0,1,1.711,1.963c.635,1.227.492,1.409,1.07,1.567s-.286-.449,2.051,0,3.669.7,3.669.7-.6-.3.753.788a9.983,9.983,0,0,0,2.122,1.395h2.712l.692-1.395h3.411a6.372,6.372,0,0,1,0-3.052c.451-1.211-.7-4.195,0-5.207a6.09,6.09,0,0,0,.9-2.369c.211-.71-.211-1.351,0-2.5a8.163,8.163,0,0,0,0-2.866c-.124-1.515.328-2.61,0-3.334s-.241-1.052-.9-2.958.219-2.993-.955-3.675.027-.178-3.148-2.857-3.7-1.922-4.834-3.521-1.736-1.308-2.814-3.176a24.15,24.15,0,0,0-2.422-3.8,37.5,37.5,0,0,1-3.013-3.6,5.8,5.8,0,0,0-1.874-2.355c-1.568-1.47-.992-1.3-2.2-2.6s-.527-1.537-1.242-2.44a6.116,6.116,0,0,1-1.113-2.289c-.24-.737-.531-.343-.81-1.362s.267-.738-1.713-2.6-2.614-2.348-2.614-2.348v-.642s-1.572-.774-1.333.642-.169,1.774,0,2.348-.159-.061,0,1.157,0,1.444,0,1.444a5.225,5.225,0,0,0,0,1.362c.11.486-.2-.75,0,.727s.758,2.3,0,2.618-1.692.722-1.692.722h-1.191l-1.244-.722-1.306-1.056s.9-.439-.776-1.562-2.293-1.839-2.778-2.089-1.075.929-2.358-.82-1.143-1.431-1.018-2.543.432-1.807,0-2.229-3.609-3.145-3.609-3.145l-.928-.737a7.523,7.523,0,0,0-1.219-.639,3.785,3.785,0,0,1-1.234-.944s.025.1-.74,0a7.783,7.783,0,0,0-1.623,0Z" transform="translate(-15429.954 -747.356)" fill="#edffff" stroke="#151515" stroke-linecap="round" stroke-linejoin="round" stroke-width="2"/>
          <path id="Path_9037" data-name="Path 9037" d="M16049.777,841.081s.082-.906.909,0,1.627,1.609,1.627,1.609-.741.581,0,1.105a3.856,3.856,0,0,1,1.135,1.449s0-.726,1,0a3.51,3.51,0,0,0,1.688.875c.842.257,4.131,1.524,4.681,2.172s-.116.262.779,1.16a18.817,18.817,0,0,0,3.522,2.406c.74.4,1.844-.508,1.514,1.191s-.334,2.175,0,2.839,2.223.719,2.966.861,1.291-1.268,1.923,0,.045.614,1.121,1.653a6.87,6.87,0,0,0,2.326,1.454s.979.016,1.781,0,5.533.157,6.137,0-1.838-3.152.816,0,2.559,2.846,3.451,3.624,1.014,1.184,1.771,1.542-.552-3.227,0-2.38,1.3-.471-1.771-2.786-3.762-2.292-4.268-3.107,1.123-.454-1.785-1.745-4.447-1.31-5.508-1.954-1.77.686-2.951-1.191a9.915,9.915,0,0,0-1.877-2.406s-.646.228-1.865-1.16a16.63,16.63,0,0,0-2.268-2.172s.17.424-1.514,0a12.743,12.743,0,0,1-2.547-.875s.027-1.142-.976,0-1.038,1.416-1.6.875-.576-.118-1.082-.875a14.69,14.69,0,0,0-2.1-2.555c-.979-.945-2.049-2.04-2.373-2.369s-1,0-1,0h-2.762Z" transform="translate(-15457.975 -728.735)" fill="#edffff" stroke="#151515" stroke-linecap="round" stroke-linejoin="round" stroke-width="2"/>
          <path id="Path_9038" data-name="Path 9038" d="M15488.472,663.58a2.192,2.192,0,0,1,1.348,0c.637.248,2.251.719,2.6.87s-.188-.055.714,0a10.963,10.963,0,0,0,1.5,0s-.021-.34,0-.87,0-.882,0-.882a4.192,4.192,0,0,1-1.052,0,4.008,4.008,0,0,0-1.581,0c-.928.136-.651-.321-1.515,0a8.394,8.394,0,0,1-1.516.419Z" transform="translate(-15176.224 -619.669)" fill="#edffff" stroke="#151515" stroke-linecap="round" stroke-linejoin="round" stroke-width="2"/>
          <path id="Path_9039" data-name="Path 9039" d="M15470.232,653.088c.146.327,1.283-.251,1.621,0a.56.56,0,0,0,.721,0c.168-.089,0-.576,0-.576v-.732h-.721s-.106-.143-.588,0S15470.085,652.761,15470.232,653.088Z" transform="translate(-15167.06 -614.215)" fill="#edffff" stroke="#151515" stroke-linecap="round" stroke-linejoin="round" stroke-width="2"/>
          <path id="Path_9040" data-name="Path 9040" d="M15447.239,659.317h.437a1.163,1.163,0,0,1,.777-.453c.472-.03,1.508-.406,1.826-.406h.688v-.97s-.189.168-.687,0a1.211,1.211,0,0,0-.987,0c-.44.112.171-.582-.839,0s-1.655.97-1.655.97v.406Z" transform="translate(-15155.306 -616.994)" fill="#edffff" stroke="#151515" stroke-linecap="round" stroke-linejoin="round" stroke-width="2"/>
          <path id="Path_9041" data-name="Path 9041" d="M15438.535,662.929l.516-.34.494-.252.244-.452s.268-.455,0-.467a3.555,3.555,0,0,0-1.254,0,4.621,4.621,0,0,0-1.038.467Z" transform="translate(-15150.637 -619.054)" fill="#edffff" stroke="#151515" stroke-linecap="round" stroke-linejoin="round" stroke-width="2"/>
          <path id="Path_9042" data-name="Path 9042" d="M15416.722,626.245l2.8-.581h.818s-.168.369.574,0a3.724,3.724,0,0,1,1.739-.369,15.333,15.333,0,0,0,1.991-.422c.488-.112-1.252.237.809,0s1.609-1.494,1.609-1.494h.684s-.03-.763-.684-.87-1.483.458-1.609,0-.809-.735-.809-.735.506-.247,0-.386a5,5,0,0,1-.922-.361l-.475-.336c-.3-.217-.595-.434-.595-.434s.2.505-.671,0a5.661,5.661,0,0,1-1.068-.718,2.111,2.111,0,0,1-.574-.548c-.129-.254.223-.361,0-.656s-.326-.574,0-.827a1.415,1.415,0,0,0,.574-.678c.113-.3-.574-.523-.574-.523s-.078-.5-.459,0-.177-.122-.941.523-.985.252-1.393.678.191.578-.825.827-1.16.268-1.207.656.052.065,0,.548a2.269,2.269,0,0,0,0,.718c.025.516-.157.384.731.77a2.252,2.252,0,0,0,1.3.361,5.722,5.722,0,0,0,1.393,0s.457-.295,0,.386-.293.442-.924.735-.179.817-.868.87a5.171,5.171,0,0,0-1.633.574s.346.872,0,.92-.419.2-.364.422.1-.206.364.369S15416.722,626.245,15416.722,626.245Z" transform="translate(-15139.411 -596.329)" fill="#edffff" stroke="#151515" stroke-linecap="round" stroke-linejoin="round" stroke-width="2"/>
          <path id="Path_9043" data-name="Path 9043" d="M15397.724,630.28a3.062,3.062,0,0,1,.667-.576,6.2,6.2,0,0,1,1.15-.453c.248-.042.607.384,1,0a3.717,3.717,0,0,1,1.026-.821c.356-.157.464.379.714,0a2.716,2.716,0,0,1,.5-.581s.923-.763.576-1.073a3.5,3.5,0,0,0-1.081-.522s.326-.264-.714-.478-.514-.188-1.026,0a5.534,5.534,0,0,0-1,.478c-.694.355-.475.061-1.15.522s.221.149-.667.579a6.7,6.7,0,0,1-1.177.493l-1.1.581a1.962,1.962,0,0,1,0,.821c-.106.314.395,1.028.395,1.028h1.884Z" transform="translate(-15129.521 -601.119)" fill="#edffff" stroke="#151515" stroke-linecap="round" stroke-linejoin="round" stroke-width="2"/>
          <path id="Path_9044" data-name="Path 9044" d="M15406.867,621.491l.9-.43s.355.438,0-.379-.693-.834-.9-.78-.217-.487-.488,0a8.706,8.706,0,0,1-.486.78Z" transform="translate(-15134.772 -598.143)" fill="#edffff" stroke="#151515" stroke-linecap="round" stroke-linejoin="round" stroke-width="2"/>
          <path id="Path_9045" data-name="Path 9045" d="M15431.691,612.981h1.369s.48.541.5,0,0-.915,0-.915.432-.593-.5-.466a3.044,3.044,0,0,0-1.369.466s-.092.138,0,.5S15431.691,612.981,15431.691,612.981Z" transform="translate(-15147.702 -594.069)" fill="#edffff" stroke="#151515" stroke-linecap="round" stroke-linejoin="round" stroke-width="2"/>
          <path id="Path_9046" data-name="Path 9046" d="M15810.691,765.151c-.07.19.068.394,0,.653s-.177.569.557,1.386a3.883,3.883,0,0,0,2.2.908c.439.17,1.244-.148,1.464,0s.272.241.443,0a.892.892,0,0,1,.424-.318s.3-.049,0-.59-.538-1.36-.637-1.386a5.683,5.683,0,0,1-.714-.9c-.255-.343-.028-.511-.579-.764s-.433-.283-.962-.492a3.381,3.381,0,0,0-1.234-.258c-.282,0-.445-.127-.658,0S15810.691,765.151,15810.691,765.151Z" transform="translate(-15337.94 -670.242)" fill="#edffff" stroke="#151515" stroke-linecap="round" stroke-linejoin="round" stroke-width="2"/>
          <path id="Path_9047" data-name="Path 9047" d="M15878.775,801.519s.767-.465,1.2,0,.535.531.793.611,1.3.764,1.025,0a2.393,2.393,0,0,0-1.394-1.38c-.395-.109.18-.137-.425-.336s-.646-.841-1.2-.4S15878.775,801.519,15878.775,801.519Z" transform="translate(-15372.017 -688.578)" fill="#edffff" stroke="#151515" stroke-linecap="round" stroke-linejoin="round" stroke-width="2"/>
          <path id="Path_9048" data-name="Path 9048" d="M15890.986,808.893s-.135-.537.568,0,.545,0,1.242.8.738,1.1.738,1.1l.355.337h.406l.681-.337s.593-1.066.569-1.1a6.157,6.157,0,0,0-1.25-1.139c-.383-.162-.171-.3-.762-.372s-.359.2-1.347,0A.973.973,0,0,0,15890.986,808.893Z" transform="translate(-15378.264 -692.742)" fill="#edffff" stroke="#151515" stroke-linecap="round" stroke-linejoin="round" stroke-width="2"/>
          <path id="Path_9049" data-name="Path 9049" d="M15904.673,814.143v.745a5.124,5.124,0,0,1,0,.748,4.305,4.305,0,0,0,0,.7,1.156,1.156,0,0,1,.479.444,8.284,8.284,0,0,1,.364.758v-2.646Z" transform="translate(-15385.132 -695.747)" fill="#edffff" stroke="#151515" stroke-linecap="round" stroke-linejoin="round" stroke-width="2"/>
          <path id="Path_9050" data-name="Path 9050" d="M15908.745,823.759s-1.075-.37-.741.208a1.821,1.821,0,0,0,1.229.685v.483a4.678,4.678,0,0,0,.963.519c.479.172,1.33-.119,1.141-.519a8.5,8.5,0,0,0-.566-.941l-.574-.835-.963-.564h-.487l-.245-.395-.693.175Z" transform="translate(-15386.711 -699.892)" fill="#edffff" stroke="#151515" stroke-linecap="round" stroke-linejoin="round" stroke-width="2"/>
          <path id="Path_9051" data-name="Path 9051" d="M15916.576,829.129a1.029,1.029,0,0,1,.386.138c.112.095.458.227.589.354s.153-.046.276.282.271.571.395.839-.041.286.438.716.686.616.686.616.029.095.215.217.088.344.7.178.742-.544.682-.75a3.752,3.752,0,0,0-.152-.573,1.779,1.779,0,0,0-.529-.8c-.342-.311-.581-.681-.814-.727s-.012-.034-.426-.354-.529-.455-.686-.552a1.693,1.693,0,0,0-.511-.184C15917.756,828.525,15916.576,829.129,15916.576,829.129Z" transform="translate(-15391.113 -702.968)" fill="#edffff" stroke="#151515" stroke-linecap="round" stroke-linejoin="round" stroke-width="2"/>
          <path id="Path_9052" data-name="Path 9052" d="M15942.693,835.175s-.671-.183,1.515,1,2.446,1.14,3.226,1.629a5.062,5.062,0,0,0,2.2.593,12.963,12.963,0,0,1,3,.58c1.671.533,2.031.6,2.031.6s-1.049-1.539,1.625,0a14.078,14.078,0,0,0,5.155,1.769l-2.641-2.37s-.179.774-1.159,0a20.536,20.536,0,0,0-4.17-1.8s.111-.2-.842-.437-.9-.584-1.532-.564-1.827-.446-2.77-.58a6.6,6.6,0,0,1-1.528-.419c-.945-.267-1.781-.719-2.591-.887a3.87,3.87,0,0,0-1.515,0l-1.54-.485Z" transform="translate(-15403.45 -705.615)" fill="#edffff" stroke="#151515" stroke-linecap="round" stroke-linejoin="round" stroke-width="2"/>
          <path id="Path_9053" data-name="Path 9053" d="M15950.326,807.458a9.7,9.7,0,0,0,2.013,3.213,23.453,23.453,0,0,0,2.826,2.658c.753.765.323.748,2.214,1.51a33.618,33.618,0,0,0,3.6,1.331c3.307,1.141,2.824,1.345,4.053,1.24a13.723,13.723,0,0,1,2.27,0l.476-.441s-1.048-.883-1.095-1.661-.285-1.047,0-1.393a16.815,16.815,0,0,1,1.676-1.9c.746-.681,1.963-1.742,1.719-2.136a3.494,3.494,0,0,0-.8-1.277c-.8-.934-1.055-.643-1.5-1.14s-.845-.41-1.095-.786a3.866,3.866,0,0,1-.572-.883c-.275-.587-.849-1.558,0-1.29s2.248.7,2.248.7.762-1.6,0-2.136a5.354,5.354,0,0,0-1.676-.98c-1.539-.738-.832-.778-1.65-.946s-.23-.612-1.841,0a9.648,9.648,0,0,0-2.212.946c-2.023,1-1.866.507-2.527.98a4.656,4.656,0,0,1-1.585.854c-1.29.562-1.926.176-2.442.58s-.119.444-2.083.7a25.994,25.994,0,0,0-3.163.588Z" transform="translate(-15407.477 -689.061)" fill="#edffff" stroke="#151515" stroke-linecap="round" stroke-linejoin="round" stroke-width="2"/>
          <path id="Path_9054" data-name="Path 9054" d="M15981.385,767.992s.344.437,0,.755-.626-.075-.438.692-.027.787.438,1.411-.021.006.921,1.42a7.01,7.01,0,0,0,2.821,2.334c.4.171.739.06,1.076.429s1.43.784,2.76,1.946a13.871,13.871,0,0,0,2.889,1.884l.431.382a1.72,1.72,0,0,1,1.351,0,3.915,3.915,0,0,0,1.109.333,13.828,13.828,0,0,0-1.838-1.755c-.48-.248-1.277-.735-1.613-.844s-.309-.3-1.068-.859-1.522-.543-1.873-1.087a3.415,3.415,0,0,0-1.06-1.075,6.577,6.577,0,0,1-1.087-.749,10.336,10.336,0,0,1-1.076-.94c-.85-.824-1.172-1.169-.813-1.42s.406-.323.813-.348,1.49.114,1.076-.483-.293,0-.566-.581-1.221-.233-1.323-.692-.142-.4-.63-.755a2.569,2.569,0,0,0-1.378-.434C15982.208,767.6,15981.385,767.992,15981.385,767.992Z" transform="translate(-15423.395 -672.359)" fill="#edffff" stroke="#151515" stroke-linecap="round" stroke-linejoin="round" stroke-width="2"/>
          <path id="Path_9055" data-name="Path 9055" d="M15999.7,801.908a4.7,4.7,0,0,0,1.48,0c.314-.153.1-.543.826,0s1.264.514,1.673.807.487.074.78.492-.051.033.553.959a2.716,2.716,0,0,0,2.373,1.043c.465-.073-.206.965.811-.346s2.241-1.406,1.047-2.147a14.593,14.593,0,0,0-2.357-1.509c-1.031-.425-.923-.584-1.873-.608s.891.116-1.333,0a18.715,18.715,0,0,0-2.5,0c-.893-.023-1.48,0-1.48,0Z" transform="translate(-15432.839 -688.924)" fill="#edffff" stroke="#151515" stroke-linecap="round" stroke-linejoin="round" stroke-width="2"/>
          <path id="Path_9056" data-name="Path 9056" d="M15998.912,824.314a.98.98,0,0,0-.571.953,7.017,7.017,0,0,1,0,2.078c-.166,1.1-.376.371,0,1.548a15.853,15.853,0,0,0,1.669,3.054c.34.585-.582.065.645,1.583a9.429,9.429,0,0,0,1.793,1.917c.355.293.712-1.487.511-1.917s-.142-.984-.844-1.583a5.876,5.876,0,0,1-.9-.888v-.9a3.232,3.232,0,0,1,1.747.9,2.978,2.978,0,0,0,.967.888s-.038-.585.853.867a5.854,5.854,0,0,0,1.415,1.793c.253.252.944.84.944.84s.373.519.373-.435.568-2.029,0-2.2-.539-.867-1.317-1.356.171-.491-1.415-1.3-2.33-1.267-2.33-1.267a4.429,4.429,0,0,0-.333-.658c-.233-.39-2.269-1.4.333-.466s3.019,1.124,3.019,1.124h1.263s.762-1.039,0-1.124a7.553,7.553,0,0,1-1.951-.423c-.205-.139.473.018-.853-.413s-2.554-.836-2.714-.917-.026,1.351-.557,0-.945-1.484.557-1.224,2.714.476,2.714.476.073-.165.853,0a7.054,7.054,0,0,0,1.951,0h.408l-1.671-1.39a12.283,12.283,0,0,1-2.135,0c-.446-.121-1.606.362-2.677,0A1.636,1.636,0,0,0,15998.912,824.314Z" transform="translate(-15432.051 -700.585)" fill="#edffff" stroke="#151515" stroke-linecap="round" stroke-linejoin="round" stroke-width="2"/>
          <path id="Path_9058" data-name="Path 9058" d="M15995.863,724.812s-1.951-.755,0,.678,1.949,1.47,2.426,2.11.467.811,1.021,1.07-.115.6,1.34,0a11.75,11.75,0,0,0,2.125-1.07s.377-.579,1.783,0,1,1.032,2.607,1.07,5.21,0,5.21,0h2.47s-.5-.34,0-1.07a5.911,5.911,0,0,0,.676-2.11s.484.214,0-.678.394-.947-.676-1.429a9.82,9.82,0,0,1-1.791-1.041s-1.729-2.091,0-1.545,2.467,0,2.467,0,.325.882.989.746-.655-2.033-1.665-2.418-.876-.64-1.791-1.115-1.523-.831-1.523-.831l-1.23-.884s.593-.392,0,.884a5.355,5.355,0,0,1-1.519,1.946s-1.239.335,0,.941,1.519.73,1.519.73a4.542,4.542,0,0,0,0,1.545,1.962,1.962,0,0,1,0,1.041s-.229-.518-1.519,0a7.513,7.513,0,0,1-2.778.729c-.893.038-.27,0-1.445,0h-5.248l-1.021.7Z" transform="translate(-15430.478 -646.602)" fill="#edffff" stroke="#151515" stroke-linecap="round" stroke-linejoin="round" stroke-width="2"/>
          <path id="Path_9059" data-name="Path 9059" d="M16015.082,696.792a.747.747,0,0,1,0,.628,1.558,1.558,0,0,0,0,1.107,2.811,2.811,0,0,0,.5,1.119c.169.236.582.355.878.655a2.375,2.375,0,0,1,.548.78c.272.487.244.352.611.939a3.894,3.894,0,0,0,.993,1.287,6.612,6.612,0,0,0,.945.675s.169,0,.506.452.347.572.622.977-.183.142.486.615a7.9,7.9,0,0,0,.923.6l1.187.325-.578-.921s-.639-.612-.608-.615a7.486,7.486,0,0,0-.4-.662v-.315h.748l.842.315c.211.079.314-.315.314-.315a17.1,17.1,0,0,0-1.9-1.127,2.754,2.754,0,0,1-1.006-.513,6.737,6.737,0,0,1-1.128-1.091c-.466-.457-.534-1.3-.945-1.4s-.913-.7-.993-.655-.064.327-.611-.342-.965-1.148-.965-1.148Z" transform="translate(-15440.509 -636.841)" fill="#edffff" stroke="#151515" stroke-linecap="round" stroke-linejoin="round" stroke-width="2"/>
        </g>
      </g>
      <g id="Planes" transform="translate(3.541 212.578) rotate(-17)">
        <g id="Group_40" data-name="Group 40" transform="translate(0 0)">
          <g id="Group_39" data-name="Group 39" transform="translate(2.241 0) rotate(8)">
            <path id="Path_67" data-name="Path 67" d="M11.991,5.942,0,.278.528,0,11.953,2.273l1.145-.6a.835.835,0,0,1,.756.033c.205.129.2.325-.011.437l-.7.371,3.939.822Z" transform="translate(2.947 0.881)" fill="#f89f1b"/>
            <path id="Path_68" data-name="Path 68" d="M11.991,5.942,0,.278.528,0,11.953,2.273l1.145-.6a.835.835,0,0,1,.756.033c.205.129.2.325-.011.437l-.7.371,3.939.822Z" transform="translate(2.947 0.881)" opacity="0.1"/>
            <path id="Path_69" data-name="Path 69" d="M18.292,3.829C23.7.995,28.068-.612,29.387.219s-1.845,3.2-7.221,6.05l-4.759,2.3c-4.765,2.141-9.663,3.985-9.663,3.985l.222,3.3-.475.251-2.14-2.375s-1.2.571-1.863.151.426-1.056.426-1.056L0,11.383l.475-.251,5.676.419S9.77,8.9,13.892,6.357Z" transform="translate(0 0)" fill="#f89f1b"/>
            <g id="Group_38" data-name="Group 38" transform="translate(16.367 5.035)">
              <path id="Path_70" data-name="Path 70" d="M6.77,1.4l-1.145.6,2.918,6.76-.528.278L0,2.3,4.759,0l.563,1.3.7-.371a.837.837,0,0,1,.756.033C6.986,1.1,6.982,1.291,6.77,1.4Z" transform="translate(1.041 1.234)" fill="#f89f1b"/>
              <path id="Path_71" data-name="Path 71" d="M7.811,2.637l-1.145.6L9.584,10l-.528.278L0,2.676,5.252,0,6.363,2.538l.7-.371a.837.837,0,0,1,.756.033C8.027,2.329,8.023,2.525,7.811,2.637Z" transform="translate(0 0)" opacity="0.1"/>
            </g>
          </g>
        </g>
      </g>
      <g id="Planes-2" data-name="Planes" transform="translate(477.201 149.879)">
        <g id="Group_40-2" data-name="Group 40" transform="translate(0 0)">
          <g id="Group_39-2" data-name="Group 39" transform="translate(0)">
            <path id="Path_67-2" data-name="Path 67" d="M92.945,93.562l11.991,5.663-.528.278L92.982,97.231l-1.145.6a.835.835,0,0,1-.756-.033c-.205-.129-.2-.325.011-.437l.7-.371-3.94-.822Z" transform="translate(-78.197 -84.282)" fill="#f89f1b"/>
            <path id="Path_68-2" data-name="Path 68" d="M92.945,93.562l11.991,5.663-.528.278L92.982,97.231l-1.145.6a.835.835,0,0,1-.756-.033c-.205-.129-.2-.325.011-.437l.7-.371-3.94-.822Z" transform="translate(-78.197 -84.282)" opacity="0.1"/>
            <path id="Path_69-2" data-name="Path 69" d="M93.332,104.067c-5.4,2.834-9.776,4.441-11.095,3.61s1.845-3.2,7.221-6.05l4.759-2.3c4.765-2.141,9.663-3.985,9.663-3.985l-.222-3.3.475-.251,2.14,2.375s1.2-.571,1.863-.151-.426,1.056-.426,1.056l3.915,1.439-.475.251-5.676-.419s-3.619,2.649-7.742,5.2Z" transform="translate(-81.938 -91.794)" fill="#f89f1b"/>
            <g id="Group_38-2" data-name="Group 38" transform="translate(3.735 0.787)">
              <path id="Path_70-2" data-name="Path 70" d="M118.663,112.023l1.145-.6-2.918-6.76.528-.278,8.015,6.743-4.759,2.3-.563-1.3-.7.371a.837.837,0,0,1-.756-.033C118.446,112.331,118.451,112.135,118.663,112.023Z" transform="translate(-116.89 -104.381)" fill="#f89f1b"/>
              <path id="Path_71-2" data-name="Path 71" d="M116.573,109.546l1.145-.6-2.918-6.76.528-.278,9.056,7.6-5.252,2.676-1.111-2.538-.7.371a.837.837,0,0,1-.756-.033C116.356,109.854,116.361,109.658,116.573,109.546Z" transform="translate(-114.8 -101.904)" opacity="0.1"/>
            </g>
          </g>
        </g>
      </g>
      <g id="Group_579" data-name="Group 579" transform="translate(-44.388 313.018)">
        <g id="Locator" transform="translate(4.184 0)">
          <g id="Group_33" data-name="Group 33" transform="translate(0 0)">
            <g id="Group_32" data-name="Group 32">
              <g id="Group_29" data-name="Group 29">
                <path id="Path_61" data-name="Path 61" d="M349.629,243.82l-4.351-2.5h0c-2.077-1.39-4.96-1.33-8.15.511-6.326,3.652-11.453,12.925-11.453,20.711v1.772c0,7.786,10.468,16.247,10.468,16.247l4.281,2.421s-2.571-2.932-2.278-3.533c2.8-5.755,10.437-22,10.437-28.361v-1.772a13.833,13.833,0,0,0-.49-3.8l.491.283Zm-12.5,17.851c-3.163,1.826-5.727.346-5.727-3.306,1.7-.268,5.984-7.575,5.727-9.919,3.163-1.826,5.727-.345,5.727,3.306A12.658,12.658,0,0,1,337.128,261.671Z" transform="translate(-325.674 -240.356)" fill="#f89f1b"/>
              </g>
              <g id="Group_30" data-name="Group 30" opacity="0.2">
                <path id="Path_62" data-name="Path 62" d="M349.629,243.82l-4.351-2.5h0c-2.077-1.39-4.96-1.33-8.15.511-6.326,3.652-11.453,12.925-11.453,20.711v1.772c0,7.786,10.468,16.247,10.468,16.247l4.281,2.421s-2.571-2.932-2.278-3.533c2.8-5.755,10.437-22,10.437-28.361v-1.772a13.833,13.833,0,0,0-.49-3.8l.491.283Zm-12.5,17.851c-3.163,1.826-5.727.346-5.727-3.306,1.7-.268,5.984-7.575,5.727-9.919,3.163-1.826,5.727-.345,5.727,3.306A12.658,12.658,0,0,1,337.128,261.671Z" transform="translate(-325.674 -240.356)"/>
              </g>
              <g id="Group_31" data-name="Group 31" transform="translate(4.581 2.644)">
                <path id="Path_63" data-name="Path 63" d="M364.2,258.335c0-7.786-5.128-11.138-11.454-7.486S341.3,263.774,341.3,271.561v1.772c0,6,6.792,12.953,9.916,15.835a1.542,1.542,0,0,0,2.435-.454c2.7-5.522,10.557-22.158,10.557-28.607ZM352.75,270.688c-3.163,1.826-5.727.345-5.727-3.307a12.658,12.658,0,0,1,5.727-9.919c3.163-1.826,5.727-.346,5.727,3.306A12.658,12.658,0,0,1,352.75,270.688Z" transform="translate(-341.296 -249.372)" fill="#f89f1b"/>
              </g>
            </g>
          </g>
        </g>
        <ellipse id="Ellipse_2060" data-name="Ellipse 2060" cx="20.42" cy="4.731" rx="20.42" ry="4.731" transform="translate(0 47.289) rotate(-7)" fill="#00b3d3" opacity="0.2"/>
      </g>
      <g id="Group_588" data-name="Group 588" transform="translate(35.299 369.699)">
        <g id="Locator-2" data-name="Locator" transform="translate(4.184 0)">
          <g id="Group_33-2" data-name="Group 33" transform="translate(0 0)">
            <g id="Group_32-2" data-name="Group 32">
              <g id="Group_29-2" data-name="Group 29">
                <path id="Path_61-2" data-name="Path 61" d="M349.629,243.82l-4.351-2.5h0c-2.077-1.39-4.96-1.33-8.15.511-6.326,3.652-11.453,12.925-11.453,20.711v1.772c0,7.786,10.468,16.247,10.468,16.247l4.281,2.421s-2.571-2.932-2.278-3.533c2.8-5.755,10.437-22,10.437-28.361v-1.772a13.833,13.833,0,0,0-.49-3.8l.491.283Zm-12.5,17.851c-3.163,1.826-5.727.346-5.727-3.306,1.7-.268,5.984-7.575,5.727-9.919,3.163-1.826,5.727-.345,5.727,3.306A12.658,12.658,0,0,1,337.128,261.671Z" transform="translate(-325.674 -240.356)" fill="#f89f1b"/>
              </g>
              <g id="Group_30-2" data-name="Group 30" opacity="0.2">
                <path id="Path_62-2" data-name="Path 62" d="M349.629,243.82l-4.351-2.5h0c-2.077-1.39-4.96-1.33-8.15.511-6.326,3.652-11.453,12.925-11.453,20.711v1.772c0,7.786,10.468,16.247,10.468,16.247l4.281,2.421s-2.571-2.932-2.278-3.533c2.8-5.755,10.437-22,10.437-28.361v-1.772a13.833,13.833,0,0,0-.49-3.8l.491.283Zm-12.5,17.851c-3.163,1.826-5.727.346-5.727-3.306,1.7-.268,5.984-7.575,5.727-9.919,3.163-1.826,5.727-.345,5.727,3.306A12.658,12.658,0,0,1,337.128,261.671Z" transform="translate(-325.674 -240.356)"/>
              </g>
              <g id="Group_31-2" data-name="Group 31" transform="translate(4.581 2.644)">
                <path id="Path_63-2" data-name="Path 63" d="M364.2,258.335c0-7.786-5.128-11.138-11.454-7.486S341.3,263.774,341.3,271.561v1.772c0,6,6.792,12.953,9.916,15.835a1.542,1.542,0,0,0,2.435-.454c2.7-5.522,10.557-22.158,10.557-28.607ZM352.75,270.688c-3.163,1.826-5.727.345-5.727-3.307a12.658,12.658,0,0,1,5.727-9.919c3.163-1.826,5.727-.346,5.727,3.306A12.658,12.658,0,0,1,352.75,270.688Z" transform="translate(-341.296 -249.372)" fill="#f89f1b"/>
              </g>
            </g>
          </g>
        </g>
        <ellipse id="Ellipse_2060-2" data-name="Ellipse 2060" cx="20.42" cy="4.731" rx="20.42" ry="4.731" transform="translate(0 47.289) rotate(-7)" fill="#00b3d3" opacity="0.2"/>
      </g>
      <g id="Group_585" data-name="Group 585" transform="translate(91.08 266.202)">
        <g id="Locator-3" data-name="Locator" transform="translate(10.016 0)">
          <g id="Group_33-3" data-name="Group 33" transform="translate(0)">
            <g id="Group_32-3" data-name="Group 32">
              <g id="Group_29-3" data-name="Group 29" transform="translate(3.533)">
                <path id="Path_61-3" data-name="Path 61" d="M325.674,243.82l4.351-2.5h0c2.077-1.39,4.96-1.33,8.15.511,6.325,3.652,11.453,12.925,11.453,20.711v1.772c0,7.786-10.468,16.247-10.468,16.247l-4.281,2.421s2.571-2.932,2.278-3.533c-2.8-5.755-10.437-22-10.437-28.361v-1.772a13.833,13.833,0,0,1,.49-3.8l-.491.283Zm12.5,17.851c3.163,1.826,5.727.346,5.727-3.306-1.7-.268-5.984-7.575-5.727-9.919-3.163-1.826-5.727-.345-5.727,3.306A12.658,12.658,0,0,0,338.175,261.671Z" transform="translate(-325.674 -240.356)" fill="#f89f1b"/>
              </g>
              <g id="Group_30-3" data-name="Group 30" transform="translate(3.533)" opacity="0.2">
                <path id="Path_62-3" data-name="Path 62" d="M325.674,243.82l4.351-2.5h0c2.077-1.39,4.96-1.33,8.15.511,6.325,3.652,11.453,12.925,11.453,20.711v1.772c0,7.786-10.468,16.247-10.468,16.247l-4.281,2.421s2.571-2.932,2.278-3.533c-2.8-5.755-10.437-22-10.437-28.361v-1.772a13.833,13.833,0,0,1,.49-3.8l-.491.283Zm12.5,17.851c3.163,1.826,5.727.346,5.727-3.306-1.7-.268-5.984-7.575-5.727-9.919-3.163-1.826-5.727-.345-5.727,3.306A12.658,12.658,0,0,0,338.175,261.671Z" transform="translate(-325.674 -240.356)"/>
              </g>
              <g id="Group_31-3" data-name="Group 31" transform="translate(0 2.644)">
                <path id="Path_63-3" data-name="Path 63" d="M341.3,258.335c0-7.786,5.128-11.138,11.454-7.486S364.2,263.774,364.2,271.561v1.772c0,6-6.792,12.953-9.915,15.835a1.542,1.542,0,0,1-2.435-.454c-2.7-5.522-10.557-22.158-10.557-28.607Zm11.454,12.353c3.163,1.826,5.727.345,5.727-3.307a12.658,12.658,0,0,0-5.727-9.919c-3.163-1.826-5.727-.346-5.727,3.306A12.658,12.658,0,0,0,352.75,270.688Z" transform="translate(-341.296 -249.372)" fill="#f89f1b"/>
              </g>
            </g>
          </g>
        </g>
        <ellipse id="Ellipse_2060-3" data-name="Ellipse 2060" cx="20.42" cy="4.731" rx="20.42" ry="4.731" transform="translate(40.535 56.682) rotate(-173)" fill="#00b3d3" opacity="0.2"/>
      </g>
      <g id="Group_580" data-name="Group 580" transform="translate(176.744 329.167)">
        <g id="Locator-4" data-name="Locator" transform="translate(4.184 0)">
          <g id="Group_33-4" data-name="Group 33" transform="translate(0 0)">
            <g id="Group_32-4" data-name="Group 32">
              <g id="Group_29-4" data-name="Group 29">
                <path id="Path_61-4" data-name="Path 61" d="M349.629,243.82l-4.351-2.5h0c-2.077-1.39-4.96-1.33-8.15.511-6.326,3.652-11.453,12.925-11.453,20.711v1.772c0,7.786,10.468,16.247,10.468,16.247l4.281,2.421s-2.571-2.932-2.278-3.533c2.8-5.755,10.437-22,10.437-28.361v-1.772a13.833,13.833,0,0,0-.49-3.8l.491.283Zm-12.5,17.851c-3.163,1.826-5.727.346-5.727-3.306,1.7-.268,5.984-7.575,5.727-9.919,3.163-1.826,5.727-.345,5.727,3.306A12.658,12.658,0,0,1,337.128,261.671Z" transform="translate(-325.674 -240.356)" fill="#f89f1b"/>
              </g>
              <g id="Group_30-4" data-name="Group 30" opacity="0.2">
                <path id="Path_62-4" data-name="Path 62" d="M349.629,243.82l-4.351-2.5h0c-2.077-1.39-4.96-1.33-8.15.511-6.326,3.652-11.453,12.925-11.453,20.711v1.772c0,7.786,10.468,16.247,10.468,16.247l4.281,2.421s-2.571-2.932-2.278-3.533c2.8-5.755,10.437-22,10.437-28.361v-1.772a13.833,13.833,0,0,0-.49-3.8l.491.283Zm-12.5,17.851c-3.163,1.826-5.727.346-5.727-3.306,1.7-.268,5.984-7.575,5.727-9.919,3.163-1.826,5.727-.345,5.727,3.306A12.658,12.658,0,0,1,337.128,261.671Z" transform="translate(-325.674 -240.356)"/>
              </g>
              <g id="Group_31-4" data-name="Group 31" transform="translate(4.581 2.644)">
                <path id="Path_63-4" data-name="Path 63" d="M364.2,258.335c0-7.786-5.128-11.138-11.454-7.486S341.3,263.774,341.3,271.561v1.772c0,6,6.792,12.953,9.916,15.835a1.542,1.542,0,0,0,2.435-.454c2.7-5.522,10.557-22.158,10.557-28.607ZM352.75,270.688c-3.163,1.826-5.727.345-5.727-3.307a12.658,12.658,0,0,1,5.727-9.919c3.163-1.826,5.727-.346,5.727,3.306A12.658,12.658,0,0,1,352.75,270.688Z" transform="translate(-341.296 -249.372)" fill="#f89f1b"/>
              </g>
            </g>
          </g>
        </g>
        <ellipse id="Ellipse_2060-4" data-name="Ellipse 2060" cx="20.42" cy="4.731" rx="20.42" ry="4.731" transform="translate(0 47.289) rotate(-7)" fill="#00b3d3" opacity="0.2"/>
      </g>
      <g id="Group_587" data-name="Group 587" transform="translate(466.605 385.849)">
        <g id="Locator-5" data-name="Locator" transform="translate(10.016 0)">
          <g id="Group_33-5" data-name="Group 33" transform="translate(0)">
            <g id="Group_32-5" data-name="Group 32">
              <g id="Group_29-5" data-name="Group 29" transform="translate(3.533)">
                <path id="Path_61-5" data-name="Path 61" d="M325.674,243.82l4.351-2.5h0c2.077-1.39,4.96-1.33,8.15.511,6.325,3.652,11.453,12.925,11.453,20.711v1.772c0,7.786-10.468,16.247-10.468,16.247l-4.281,2.421s2.571-2.932,2.278-3.533c-2.8-5.755-10.437-22-10.437-28.361v-1.772a13.833,13.833,0,0,1,.49-3.8l-.491.283Zm12.5,17.851c3.163,1.826,5.727.346,5.727-3.306-1.7-.268-5.984-7.575-5.727-9.919-3.163-1.826-5.727-.345-5.727,3.306A12.658,12.658,0,0,0,338.175,261.671Z" transform="translate(-325.674 -240.356)" fill="#f89f1b"/>
              </g>
              <g id="Group_30-5" data-name="Group 30" transform="translate(3.533)" opacity="0.2">
                <path id="Path_62-5" data-name="Path 62" d="M325.674,243.82l4.351-2.5h0c2.077-1.39,4.96-1.33,8.15.511,6.325,3.652,11.453,12.925,11.453,20.711v1.772c0,7.786-10.468,16.247-10.468,16.247l-4.281,2.421s2.571-2.932,2.278-3.533c-2.8-5.755-10.437-22-10.437-28.361v-1.772a13.833,13.833,0,0,1,.49-3.8l-.491.283Zm12.5,17.851c3.163,1.826,5.727.346,5.727-3.306-1.7-.268-5.984-7.575-5.727-9.919-3.163-1.826-5.727-.345-5.727,3.306A12.658,12.658,0,0,0,338.175,261.671Z" transform="translate(-325.674 -240.356)"/>
              </g>
              <g id="Group_31-5" data-name="Group 31" transform="translate(0 2.644)">
                <path id="Path_63-5" data-name="Path 63" d="M341.3,258.335c0-7.786,5.128-11.138,11.454-7.486S364.2,263.774,364.2,271.561v1.772c0,6-6.792,12.953-9.915,15.835a1.542,1.542,0,0,1-2.435-.454c-2.7-5.522-10.557-22.158-10.557-28.607Zm11.454,12.353c3.163,1.826,5.727.345,5.727-3.307a12.658,12.658,0,0,0-5.727-9.919c-3.163-1.826-5.727-.346-5.727,3.306A12.658,12.658,0,0,0,352.75,270.688Z" transform="translate(-341.296 -249.372)" fill="#f89f1b"/>
              </g>
            </g>
          </g>
        </g>
        <ellipse id="Ellipse_2060-5" data-name="Ellipse 2060" cx="20.42" cy="4.731" rx="20.42" ry="4.731" transform="translate(40.535 56.682) rotate(-173)" fill="#00b3d3" opacity="0.2"/>
      </g>
      <g id="Group_584" data-name="Group 584" transform="translate(406.857 290.871)">
        <g id="Locator-6" data-name="Locator" transform="translate(7.1 0)">
          <g id="Group_33-6" data-name="Group 33" transform="translate(0 0)">
            <g id="Group_32-6" data-name="Group 32">
              <g id="Group_29-6" data-name="Group 29" transform="translate(3.533)">
                <path id="Path_61-6" data-name="Path 61" d="M325.674,243.82l4.351-2.5h0c2.077-1.39,4.96-1.33,8.149.511,6.326,3.652,11.453,12.925,11.453,20.711v1.772c0,7.786-10.468,16.247-10.468,16.247l-4.281,2.421s2.571-2.932,2.278-3.533c-2.8-5.754-10.437-22-10.437-28.361v-1.772a13.836,13.836,0,0,1,.49-3.8l-.491.283Zm12.5,17.851c3.163,1.826,5.727.346,5.727-3.306-1.7-.268-5.984-7.575-5.727-9.919-3.163-1.826-5.727-.345-5.727,3.306A12.658,12.658,0,0,0,338.175,261.671Z" transform="translate(-325.674 -240.356)" fill="#f89f1b"/>
              </g>
              <g id="Group_30-6" data-name="Group 30" transform="translate(3.533)" opacity="0.2">
                <path id="Path_62-6" data-name="Path 62" d="M325.674,243.82l4.351-2.5h0c2.077-1.39,4.96-1.33,8.149.511,6.326,3.652,11.453,12.925,11.453,20.711v1.772c0,7.786-10.468,16.247-10.468,16.247l-4.281,2.421s2.571-2.932,2.278-3.533c-2.8-5.754-10.437-22-10.437-28.361v-1.772a13.836,13.836,0,0,1,.49-3.8l-.491.283Zm12.5,17.851c3.163,1.826,5.727.346,5.727-3.306-1.7-.268-5.984-7.575-5.727-9.919-3.163-1.826-5.727-.345-5.727,3.306A12.658,12.658,0,0,0,338.175,261.671Z" transform="translate(-325.674 -240.356)"/>
              </g>
              <g id="Group_31-6" data-name="Group 31" transform="translate(0 2.644)">
                <path id="Path_63-6" data-name="Path 63" d="M341.3,258.335c0-7.786,5.128-11.138,11.454-7.486S364.2,263.774,364.2,271.561v1.772c0,6-6.792,12.953-9.916,15.835a1.542,1.542,0,0,1-2.435-.454c-2.7-5.522-10.557-22.158-10.557-28.607Zm11.454,12.353c3.163,1.826,5.727.345,5.727-3.307a12.659,12.659,0,0,0-5.727-9.919c-3.163-1.826-5.727-.346-5.727,3.306A12.658,12.658,0,0,0,352.75,270.688Z" transform="translate(-341.296 -249.372)" fill="#f89f1b"/>
              </g>
            </g>
          </g>
        </g>
        <ellipse id="Ellipse_2061" data-name="Ellipse 2061" cx="20.42" cy="4.731" rx="20.42" ry="4.731" transform="translate(40.535 59.712) rotate(-173)" fill="#00b3d3" opacity="0.2"/>
      </g>
      <g id="Group_586" data-name="Group 586" transform="translate(292.805 269.455)">
        <g id="Locator-7" data-name="Locator" transform="translate(7.1 0)">
          <g id="Group_33-7" data-name="Group 33" transform="translate(0 0)">
            <g id="Group_32-7" data-name="Group 32">
              <g id="Group_29-7" data-name="Group 29" transform="translate(3.533)">
                <path id="Path_61-7" data-name="Path 61" d="M325.674,243.82l4.351-2.5h0c2.077-1.39,4.96-1.33,8.149.511,6.326,3.652,11.453,12.925,11.453,20.711v1.772c0,7.786-10.468,16.247-10.468,16.247l-4.281,2.421s2.571-2.932,2.278-3.533c-2.8-5.754-10.437-22-10.437-28.361v-1.772a13.836,13.836,0,0,1,.49-3.8l-.491.283Zm12.5,17.851c3.163,1.826,5.727.346,5.727-3.306-1.7-.268-5.984-7.575-5.727-9.919-3.163-1.826-5.727-.345-5.727,3.306A12.658,12.658,0,0,0,338.175,261.671Z" transform="translate(-325.674 -240.356)" fill="#f89f1b"/>
              </g>
              <g id="Group_30-7" data-name="Group 30" transform="translate(3.533)" opacity="0.2">
                <path id="Path_62-7" data-name="Path 62" d="M325.674,243.82l4.351-2.5h0c2.077-1.39,4.96-1.33,8.149.511,6.326,3.652,11.453,12.925,11.453,20.711v1.772c0,7.786-10.468,16.247-10.468,16.247l-4.281,2.421s2.571-2.932,2.278-3.533c-2.8-5.754-10.437-22-10.437-28.361v-1.772a13.836,13.836,0,0,1,.49-3.8l-.491.283Zm12.5,17.851c3.163,1.826,5.727.346,5.727-3.306-1.7-.268-5.984-7.575-5.727-9.919-3.163-1.826-5.727-.345-5.727,3.306A12.658,12.658,0,0,0,338.175,261.671Z" transform="translate(-325.674 -240.356)"/>
              </g>
              <g id="Group_31-7" data-name="Group 31" transform="translate(0 2.644)">
                <path id="Path_63-7" data-name="Path 63" d="M341.3,258.335c0-7.786,5.128-11.138,11.454-7.486S364.2,263.774,364.2,271.561v1.772c0,6-6.792,12.953-9.916,15.835a1.542,1.542,0,0,1-2.435-.454c-2.7-5.522-10.557-22.158-10.557-28.607Zm11.454,12.353c3.163,1.826,5.727.345,5.727-3.307a12.659,12.659,0,0,0-5.727-9.919c-3.163-1.826-5.727-.346-5.727,3.306A12.658,12.658,0,0,0,352.75,270.688Z" transform="translate(-341.296 -249.372)" fill="#f89f1b"/>
              </g>
            </g>
          </g>
        </g>
        <ellipse id="Ellipse_2061-2" data-name="Ellipse 2061" cx="20.42" cy="4.731" rx="20.42" ry="4.731" transform="translate(40.535 59.712) rotate(-173)" fill="#00b3d3" opacity="0.2"/>
      </g>
      <g id="Group_589" data-name="Group 589" transform="translate(-132.948 107.916)">
        <g id="Planes-3" data-name="Planes" transform="translate(115.656 0)">
          <g id="Group_40-3" data-name="Group 40" transform="translate(0 0)">
            <g id="Group_39-3" data-name="Group 39" transform="translate(2.241 0) rotate(8)">
              <path id="Path_67-3" data-name="Path 67" d="M11.991,5.942,0,.278.528,0,11.953,2.273l1.145-.6a.835.835,0,0,1,.756.033c.205.129.2.325-.011.437l-.7.371,3.939.822Z" transform="translate(2.947 0.881)" fill="#f89f1b"/>
              <path id="Path_68-3" data-name="Path 68" d="M11.991,5.942,0,.278.528,0,11.953,2.273l1.145-.6a.835.835,0,0,1,.756.033c.205.129.2.325-.011.437l-.7.371,3.939.822Z" transform="translate(2.947 0.881)" opacity="0.1"/>
              <path id="Path_69-3" data-name="Path 69" d="M18.292,3.829C23.7.995,28.068-.612,29.387.219s-1.845,3.2-7.221,6.05l-4.759,2.3c-4.765,2.141-9.663,3.985-9.663,3.985l.222,3.3-.475.251-2.14-2.375s-1.2.571-1.863.151.426-1.056.426-1.056L0,11.383l.475-.251,5.676.419S9.77,8.9,13.892,6.357Z" transform="translate(0 0)" fill="#f89f1b"/>
              <g id="Group_38-3" data-name="Group 38" transform="translate(16.367 5.035)">
                <path id="Path_70-3" data-name="Path 70" d="M6.77,1.4l-1.145.6,2.918,6.76-.528.278L0,2.3,4.759,0l.563,1.3.7-.371a.837.837,0,0,1,.756.033C6.986,1.1,6.982,1.291,6.77,1.4Z" transform="translate(1.041 1.234)" fill="#f89f1b"/>
                <path id="Path_71-3" data-name="Path 71" d="M7.811,2.637l-1.145.6L9.584,10l-.528.278L0,2.676,5.252,0,6.363,2.538l.7-.371a.837.837,0,0,1,.756.033C8.027,2.329,8.023,2.525,7.811,2.637Z" transform="translate(0 0)" opacity="0.1"/>
              </g>
            </g>
          </g>
        </g>
        <path id="Path_9060" data-name="Path 9060" d="M14914.775,366.965s-95.982,34.044-115.656,111.477" transform="translate(-14799.119 -350.387)" fill="none" stroke="#00b3d3" stroke-linecap="round" stroke-width="2" stroke-dasharray="6"/>
      </g>
      <g id="Group_590" data-name="Group 590" transform="translate(416.795 27.226) rotate(22)">
        <g id="Planes-4" data-name="Planes" transform="translate(0 0)">
          <g id="Group_40-4" data-name="Group 40" transform="translate(0 0)">
            <g id="Group_39-4" data-name="Group 39" transform="translate(2.241 0) rotate(8)">
              <path id="Path_67-4" data-name="Path 67" d="M11.991,5.942,0,.278.528,0,11.953,2.273l1.145-.6a.835.835,0,0,1,.756.033c.205.129.2.325-.011.437l-.7.371,3.939.822Z" transform="translate(2.947 0.881)" fill="#f89f1b"/>
              <path id="Path_68-4" data-name="Path 68" d="M11.991,5.942,0,.278.528,0,11.953,2.273l1.145-.6a.835.835,0,0,1,.756.033c.205.129.2.325-.011.437l-.7.371,3.939.822Z" transform="translate(2.947 0.881)" opacity="0.1"/>
              <path id="Path_69-4" data-name="Path 69" d="M18.292,3.829C23.695.995,28.068-.612,29.387.219s-1.845,3.2-7.22,6.05l-4.759,2.3c-4.765,2.141-9.663,3.985-9.663,3.985l.222,3.3-.475.251-2.14-2.375s-1.2.571-1.863.151.426-1.056.426-1.056L0,11.383l.475-.251,5.676.419S9.77,8.9,13.892,6.357Z" transform="translate(0 0)" fill="#f89f1b"/>
              <g id="Group_38-4" data-name="Group 38" transform="translate(16.366 5.035)">
                <path id="Path_70-4" data-name="Path 70" d="M6.77,1.4l-1.145.6,2.918,6.76-.528.278L0,2.3,4.759,0l.563,1.3.7-.371a.837.837,0,0,1,.756.033C6.986,1.1,6.982,1.291,6.77,1.4Z" transform="translate(1.041 1.234)" fill="#f89f1b"/>
                <path id="Path_71-4" data-name="Path 71" d="M7.811,2.637l-1.145.6L9.584,10l-.528.278L0,2.676,5.252,0,6.363,2.538l.7-.371a.837.837,0,0,1,.756.033C8.027,2.329,8.023,2.525,7.811,2.637Z" transform="translate(0 0)" opacity="0.1"/>
              </g>
            </g>
          </g>
        </g>
      </g>
      <g id="Group_591" data-name="Group 591" transform="translate(-25.96 217.845) rotate(158)">
        <g id="Planes-5" data-name="Planes" transform="translate(0 0)">
          <g id="Group_40-5" data-name="Group 40" transform="translate(0 0)">
            <g id="Group_39-5" data-name="Group 39" transform="translate(0 4.131) rotate(-8)">
              <path id="Path_67-5" data-name="Path 67" d="M11.991,0,0,5.663l.528.278L11.953,3.669l1.145.6a.835.835,0,0,0,.756-.033c.205-.129.2-.325-.011-.437l-.7-.371,3.939-.822Z" transform="translate(2.947 9.279)" fill="#f89f1b"/>
              <path id="Path_68-5" data-name="Path 68" d="M11.991,0,0,5.663l.528.278L11.953,3.669l1.145.6a.835.835,0,0,0,.756-.033c.205-.129.2-.325-.011-.437l-.7-.371,3.939-.822Z" transform="translate(2.947 9.279)" opacity="0.1"/>
              <path id="Path_69-5" data-name="Path 69" d="M18.292,12.273c5.4,2.834,9.776,4.441,11.095,3.61s-1.845-3.2-7.22-6.05l-4.759-2.3C12.642,5.39,7.744,3.546,7.744,3.546l.222-3.3L7.491,0,5.351,2.375s-1.2-.571-1.863-.151.426,1.056.426,1.056L0,4.718l.475.251L6.151,4.55S9.77,7.2,13.892,9.745Z" transform="translate(0 0)" fill="#f89f1b"/>
              <g id="Group_38-5" data-name="Group 38" transform="translate(16.366 0.787)">
                <path id="Path_70-5" data-name="Path 70" d="M6.77,7.642l-1.145-.6L8.543.278,8.015,0,0,6.744l4.759,2.3.563-1.3.7.371a.837.837,0,0,0,.756-.033C6.986,7.95,6.982,7.754,6.77,7.642Z" transform="translate(1.041 0)" fill="#f89f1b"/>
                <path id="Path_71-5" data-name="Path 71" d="M7.811,7.642l-1.145-.6L9.584.278,9.056,0,0,7.6l5.252,2.676L6.363,7.741l.7.371a.837.837,0,0,0,.756-.033C8.027,7.95,8.023,7.754,7.811,7.642Z" transform="translate(0 0)" opacity="0.1"/>
              </g>
            </g>
          </g>
        </g>
      </g>
      <g id="Group_592" data-name="Group 592" transform="translate(474.126 208.887) rotate(22)">
        <g id="Planes-6" data-name="Planes" transform="translate(0 0)">
          <g id="Group_40-6" data-name="Group 40" transform="translate(0 0)">
            <g id="Group_39-6" data-name="Group 39" transform="translate(2.241 0) rotate(8)">
              <path id="Path_67-6" data-name="Path 67" d="M11.991,5.942,0,.278.528,0,11.953,2.273l1.145-.6a.835.835,0,0,1,.756.033c.205.129.2.325-.011.437l-.7.371,3.939.822Z" transform="translate(2.947 0.881)" fill="#f89f1b"/>
              <path id="Path_68-6" data-name="Path 68" d="M11.991,5.942,0,.278.528,0,11.953,2.273l1.145-.6a.835.835,0,0,1,.756.033c.205.129.2.325-.011.437l-.7.371,3.939.822Z" transform="translate(2.947 0.881)" opacity="0.1"/>
              <path id="Path_69-6" data-name="Path 69" d="M18.292,3.829C23.695.995,28.068-.612,29.386.219s-1.845,3.2-7.22,6.05l-4.759,2.3c-4.765,2.141-9.663,3.985-9.663,3.985l.222,3.3-.475.251-2.14-2.375s-1.2.571-1.863.151.426-1.056.426-1.056L0,11.383l.475-.251,5.676.419S9.77,8.9,13.892,6.357Z" transform="translate(0 0)" fill="#f89f1b"/>
              <g id="Group_38-6" data-name="Group 38" transform="translate(16.366 5.035)">
                <path id="Path_70-6" data-name="Path 70" d="M6.77,1.4l-1.145.6,2.918,6.76-.528.278L0,2.3,4.759,0l.563,1.3.7-.371a.837.837,0,0,1,.756.033C6.986,1.1,6.982,1.291,6.77,1.4Z" transform="translate(1.041 1.234)" fill="#f89f1b"/>
                <path id="Path_71-6" data-name="Path 71" d="M7.811,2.637l-1.145.6L9.584,10l-.528.278L0,2.676,5.252,0,6.363,2.538l.7-.371a.837.837,0,0,1,.756.033C8.027,2.329,8.023,2.525,7.811,2.637Z" transform="translate(0 0)" opacity="0.1"/>
              </g>
            </g>
          </g>
        </g>
      </g>
      <path id="Path_9061" data-name="Path 9061" d="M16080.088,419.146s93.611-24.2,123.141-136" transform="translate(-15570.463 -270.388)" fill="none" stroke="#00b3d3" stroke-linecap="round" stroke-width="2" stroke-dasharray="6"/>
      <path id="Path_9062" data-name="Path 9062" d="M309.331.066S-27.785-10.723,1.845,243.084" transform="translate(-211.399 448.427) rotate(-45)" fill="none" stroke="#00b3d3" stroke-linecap="round" stroke-width="2" stroke-dasharray="6"/>
      <path id="Path_9063" data-name="Path 9063" d="M15776.428,565.285s-130.812-20.155-221.826,78.274" transform="translate(-15311.286 -341.166)" fill="none" stroke="#00b3d3" stroke-linecap="round" stroke-width="2" stroke-dasharray="6"/>
    </g>
  </g>
</svg>
