<svg xmlns="http://www.w3.org/2000/svg" width="1447.478" height="926.994" viewBox="0 0 1447.478 926.994">
  <g id="Group_610" data-name="Group 610" transform="translate(-161.898 -376.788)">
    <path id="Path_1" data-name="Path 1" d="M1449.278,505.1c-81.914-44.433,57.237-174.181-62.573-255.732-189.342-128.879-350.351,21.677-405.733,86.9-102.289,120.475-120.06,248.816-403.786,58.246S188.374,544.277,274.121,637.4s42.656,94.853-11.015,256.763,156.167,276.506,338.416,175.711,157.126-111.226,398.637-5.868,416.393-21.082,568.822-135.258C1872.717,701.245,1531.191,549.534,1449.278,505.1Z" transform="translate(-83.187 177.966)" fill="#d2fdfd"/>
    <g id="Group_20" data-name="Group 20" transform="translate(289.127 380.645)">
      <g id="Group_14" data-name="Group 14" transform="translate(202.39 572.99)">
        <path id="Path_20" data-name="Path 20" d="M1180.136,2245.957h-142.68c-10,0-19.232,7.288-19.232,12.343v309.727c0,5.055,9.233,10.031,19.232,10.031h142.68c10,0,21.574-4.976,21.574-10.031V2258.3C1201.709,2253.245,1190.136,2245.957,1180.136,2245.957Z" transform="translate(-1018.223 -2245.957)" fill="#55e2fa"/>
      </g>
      <g id="Group_15" data-name="Group 15" transform="translate(0 681.242)">
        <path id="Path_21" data-name="Path 21" d="M648.678,2544.682c0-2.616-9.016-5.319-19.016-5.319H488.6c-10,0-18.931,2.7-18.931,5.319v213.445c0,2.615,8.931,5.085,18.931,5.085H629.662c10,0,19.016-2.469,19.016-5.085Z" transform="translate(-469.667 -2539.363)" fill="#55e2fa"/>
      </g>
      <g id="Group_16" data-name="Group 16" transform="translate(809.377 168.497)">
        <path id="Path_22" data-name="Path 22" d="M2844.642,1160.9c0-6.426-10.755-11.273-20.755-11.273h-142.8c-10,0-17.691,4.848-17.691,11.273v711.788c0,6.425,7.691,13.532,17.691,13.532h142.8c10,0,20.755-7.107,20.755-13.532Z" transform="translate(-2663.393 -1149.625)" fill="#55e2fa"/>
      </g>
      <g id="Group_17" data-name="Group 17" transform="translate(409.633 436.974)">
        <path id="Path_23" data-name="Path 23" d="M1756.7,1886.411c0-4.733-8.624-9.11-18.624-9.11H1597.017c-10,0-17.086,4.377-17.086,9.11v449.912c0,4.733,7.086,9.1,17.086,9.1H1738.08c10,0,18.624-4.362,18.624-9.1Z" transform="translate(-1579.931 -1877.3)" fill="#55e2fa"/>
      </g>
      <g id="Group_18" data-name="Group 18" transform="translate(610.475 298.237)">
        <path id="Path_24" data-name="Path 24" d="M2301.066,1510.114c0-5.312-7.92-8.844-17.92-8.844H2142.082c-10,0-17.79,3.533-17.79,8.844v588.842c0,5.312,7.79,9.168,17.79,9.168h141.064c10,0,17.92-3.857,17.92-9.168Z" transform="translate(-2124.292 -1501.269)" fill="#55e2fa"/>
      </g>
      <g id="Group_19" data-name="Group 19" transform="translate(774.052)">
        <path id="Path_25" data-name="Path 25" d="M2569.208,864.7l114.185-168.078a8.2,8.2,0,0,1,13.628-.1L2814.74,864.6c4.05,5.783.089,13.913-6.778,13.913h-231.9C2569.245,878.513,2565.27,870.5,2569.208,864.7Z" transform="translate(-2567.648 -692.932)" fill="#55e2fa"/>
      </g>
    </g>
    <g id="Group_607" data-name="Group 607" transform="translate(1287 604.977)">
      <g id="Group_3" data-name="Group 3">
        <path id="Path_2" data-name="Path 2" d="M2056.322,455.14c-45.929,33.522-305.11,239.337-152.512,513.336,0,0,206.078-92.277,160.208-510.039A4.853,4.853,0,0,0,2056.322,455.14Z" transform="translate(-1856.222 -454.195)" fill="#90f2ff"/>
        <path id="Path_3" data-name="Path 3" d="M2147.691,685.192c-10.2,15.608-19.757,31.58-29.063,47.7q-13.912,24.2-26.743,48.988-12.862,24.761-24.5,50.116l-2.924,6.33-2.83,6.371-2.826,6.373q-1.427,3.181-2.775,6.395l-5.441,12.837-5.22,12.926c-1.775,4.3-3.378,8.657-5.045,12.994s-3.337,8.674-4.866,13.061l-4.681,13.129-4.4,13.223-1.1,3.306-1.029,3.328-2.042,6.662-2.042,6.662c-.7,2.216-1.266,4.469-1.9,6.7-1.235,4.478-2.515,8.945-3.711,13.433l-3.353,13.527-.838,3.382-.739,3.4-1.466,6.812-1.466,6.813c-.491,2.271-.846,4.568-1.275,6.851l-1.235,6.859-.617,3.43c-.21,1.142-.419,2.285-.565,3.438l-1.961,13.8a413.033,413.033,0,0,0-3.3,55.655,1.625,1.625,0,0,0,3.249-.037v-.028a410.14,410.14,0,0,1,3.044-55.225l1.891-13.725c.141-1.146.344-2.284.548-3.421l.6-3.413,1.2-6.827c.417-2.272.76-4.558,1.239-6.819l1.431-6.785,1.43-6.786.721-3.392.82-3.37,3.282-13.483c1.173-4.475,2.43-8.93,3.641-13.4.627-2.227,1.185-4.474,1.869-6.685l2.008-6.647,2.007-6.648,1.011-3.322,1.084-3.3,4.335-13.2,4.613-13.111c1.505-4.382,3.166-8.709,4.8-13.047s3.225-8.69,4.979-12.983l5.154-12.918,5.376-12.832q1.326-3.216,2.744-6.393l2.794-6.373,2.8-6.371,2.892-6.331q11.537-25.335,24.254-50.135t26.5-49.031c9.223-16.131,18.71-32.141,28.813-47.736l.007-.01a.67.67,0,0,0-.21-.935A.692.692,0,0,0,2147.691,685.192Z" transform="translate(-1964.1 -630.102)" fill="#fff" opacity="0.43"/>
      </g>
      <g id="Group_4" data-name="Group 4" transform="translate(24.237 7.449)" opacity="0.78">
        <path id="Path_4" data-name="Path 4" d="M1958.293,995.453s76.652-324.226,230.343-502.947c10.332-12.014,28.988-7.756,32.858,7.548C2247.37,602.389,2295.829,913.289,1958.293,995.453Z" transform="translate(-1958.293 -485.565)" fill="#6ccfe1"/>
        <path id="Path_5" data-name="Path 5" d="M2088.115,1310.834a.851.851,0,0,0,1.078,1.314c31.5-24.775,153.532-145.973,200.608-384.282a.585.585,0,0,0-1.134-.287C2272.927,982.9,2208.807,1186.982,2088.115,1310.834Z" transform="translate(-2057.079 -822.28)" fill="#fff"/>
      </g>
    </g>
    <g id="Group_608" data-name="Group 608" transform="translate(164 28)">
      <g id="Object" transform="translate(544.612 469.551)">
        <g id="Group_10" data-name="Group 10">
          <g id="Group_9" data-name="Group 9">
            <g id="Group_8" data-name="Group 8" style="isolation: isolate">
              <path id="Path_9" data-name="Path 9" d="M608.864,475.507c.7-.19,1.376-.411,2.054-.635.436-.144.878-.276,1.306-.434.737-.271,1.453-.579,2.168-.89.349-.152.707-.287,1.051-.448,1.048-.492,2.074-1.022,3.072-1.6l37.6-21.849c-1,.58-2.024,1.11-3.071,1.6-.345.162-.706.3-1.056.449-.713.311-1.429.618-2.164.889-.428.157-.87.29-1.3.434-.679.224-1.359.445-2.054.635-.475.13-.96.24-1.442.355-.68.161-1.363.314-2.057.443-.532.1-1.072.185-1.613.265-.595.089-1.195.172-1.8.238-.567.061-1.139.109-1.714.151-.615.044-1.233.08-1.858.1-.584.02-1.172.027-1.764.027q-.949,0-1.912-.035c-.6-.021-1.205-.055-1.814-.1q-.975-.067-1.962-.172c-.666-.069-1.336-.148-2.01-.243-.49-.068-.981-.14-1.475-.221-.746-.123-1.5-.267-2.257-.419-.48-.1-.959-.189-1.443-.3-.821-.184-1.651-.4-2.482-.617-.428-.113-.852-.213-1.282-.335-1.124-.319-2.257-.673-3.4-1.054-.143-.048-.284-.086-.428-.135-1.285-.438-2.581-.922-3.887-1.441-.4-.159-.808-.342-1.211-.509-.91-.377-1.823-.762-2.742-1.18-.5-.227-1.007-.473-1.511-.712-.833-.4-1.67-.8-2.511-1.229-.537-.274-1.077-.56-1.617-.847-1.12-.6-2.239-1.194-3.368-1.846L559.3,465.7q1.041.6,2.075,1.17c.433.237.86.446,1.29.675.542.288,1.083.574,1.621.849.841.428,1.676.832,2.51,1.227.5.24,1.008.486,1.51.714.919.416,1.83.8,2.74,1.178.4.168.812.351,1.215.511,1.291.513,2.575.993,3.846,1.428l.04.012c.145.05.289.088.435.137q1.709.572,3.392,1.052c.429.122.853.222,1.281.335.832.219,1.661.432,2.483.617.484.109.963.2,1.443.3.757.152,1.51.3,2.258.419.494.082.984.153,1.473.221.357.05.72.118,1.075.162.315.038.622.049.935.081.659.07,1.312.127,1.963.173q.912.063,1.814.1c.642.023,1.279.033,1.912.034.591,0,1.18-.007,1.764-.028.624-.021,1.243-.057,1.857-.1.576-.041,1.148-.089,1.714-.15.607-.066,1.206-.148,1.8-.237.322-.048.654-.073.973-.128.217-.037.423-.1.638-.138.7-.129,1.377-.282,2.057-.443C607.905,475.748,608.389,475.637,608.864,475.507Z" fill="#c67f16"/>
              <path id="Path_10" data-name="Path 10" d="M549.51,459.36c.53.377,1.056.764,1.589,1.132.905.624,1.818,1.22,2.731,1.815.45.293.894.6,1.346.886q2.052,1.3,4.129,2.5l37.6-21.849c-1.385-.8-2.761-1.637-4.129-2.5-.452-.287-.9-.6-1.35-.889-.912-.6-1.822-1.189-2.725-1.813-.534-.368-1.062-.756-1.594-1.135-.811-.578-1.623-1.156-2.428-1.757-.56-.419-1.116-.854-1.672-1.283-.756-.582-1.51-1.167-2.259-1.769-.647-.52-1.289-1.057-1.931-1.591-.691-.576-1.382-1.152-2.067-1.744-.635-.547-1.262-1.109-1.891-1.671-.677-.6-1.354-1.211-2.025-1.831-.625-.579-1.244-1.17-1.863-1.761-.661-.631-1.32-1.264-1.973-1.909-.613-.606-1.219-1.222-1.825-1.839-.646-.658-1.291-1.318-1.929-1.989-.6-.63-1.19-1.269-1.781-1.91-.631-.684-1.259-1.37-1.881-2.067q-.875-.978-1.737-1.977-.919-1.061-1.83-2.137-.852-1.013-1.69-2.043-.894-1.094-1.775-2.2-.827-1.044-1.639-2.1-.869-1.128-1.723-2.269-.8-1.071-1.586-2.155-.837-1.155-1.661-2.323-.774-1.1-1.533-2.207-.809-1.182-1.6-2.375-.746-1.123-1.477-2.259-.777-1.2-1.535-2.421-.717-1.146-1.417-2.3-.744-1.225-1.468-2.463-.686-1.167-1.358-2.343-.709-1.246-1.4-2.5c-.435-.79-.868-1.581-1.291-2.375-.451-.843-.891-1.69-1.329-2.538-.411-.8-.821-1.6-1.222-2.4-.428-.856-.844-1.716-1.258-2.577q-.583-1.209-1.15-2.421c-.37-.8-.728-1.594-1.086-2.393q-.678-1.512-1.332-3.03-.5-1.175-.988-2.354-.627-1.518-1.225-3.041-.465-1.182-.913-2.367c-.387-1.024-.76-2.049-1.127-3.076-.28-.784-.56-1.568-.829-2.353-.357-1.043-.7-2.088-1.031-3.133-.258-.8-.52-1.6-.766-2.407-.207-.677-.4-1.354-.6-2.031q-.43-1.467-.834-2.936c-.191-.7-.373-1.4-.553-2.094q-.375-1.444-.72-2.888-.252-1.05-.489-2.1c-.218-.968-.422-1.936-.62-2.9-.141-.685-.282-1.37-.412-2.053-.2-1.038-.377-2.073-.552-3.108-.1-.581-.2-1.164-.293-1.744-.2-1.249-.364-2.495-.523-3.738-.047-.365-.1-.732-.149-1.1q-.288-2.406-.485-4.792c-.034-.411-.052-.819-.082-1.229-.084-1.142-.157-2.281-.209-3.415-.083-1.863-.134-3.717-.129-5.554,0-1.46.048-2.887.108-4.3.016-.379.036-.754.056-1.13q.1-1.8.254-3.555c.019-.207.032-.42.052-.626.127-1.316.286-2.6.465-3.87.065-.462.142-.914.214-1.37.139-.887.289-1.765.454-2.627q.137-.717.285-1.421c.177-.843.369-1.671.569-2.49.106-.431.209-.866.321-1.29.249-.937.518-1.853.8-2.756.085-.272.159-.553.246-.822q.563-1.736,1.2-3.386c.108-.279.228-.544.339-.818.331-.817.67-1.623,1.03-2.406.168-.37.346-.729.522-1.091.326-.674.661-1.338,1.009-1.987.2-.363.392-.725.594-1.081.366-.645.745-1.274,1.132-1.893.2-.312.386-.628.586-.933q.756-1.15,1.564-2.234c.095-.127.183-.263.279-.39q.957-1.26,1.985-2.427c.2-.228.409-.44.612-.663.5-.543,1-1.076,1.517-1.588.263-.259.531-.51.8-.761q.727-.684,1.484-1.327c.282-.24.565-.478.852-.709.539-.434,1.091-.847,1.649-1.25.259-.188.512-.383.775-.563.823-.565,1.662-1.107,2.525-1.608l-37.6,21.849c-.862.5-1.7,1.043-2.525,1.609-.262.18-.516.375-.774.561-.559.4-1.11.817-1.649,1.251-.287.231-.57.469-.852.709q-.756.644-1.484,1.327c-.269.252-.538.5-.8.762-.517.51-1.018,1.042-1.513,1.584-.2.224-.415.438-.616.667-.682.779-1.346,1.585-1.984,2.426-.1.128-.187.267-.284.4q-.8,1.082-1.559,2.227c-.2.3-.391.622-.586.934-.387.618-.766,1.246-1.132,1.891-.2.357-.4.72-.6,1.085q-.52.97-1.007,1.981c-.176.363-.354.725-.525,1.1-.357.781-.7,1.583-1.025,2.4-.113.277-.234.546-.343.828q-.639,1.65-1.2,3.384c-.088.27-.163.551-.247.824-.28.9-.549,1.816-.8,2.751-.113.427-.216.864-.323,1.3-.2.818-.392,1.644-.568,2.485-.1.471-.194.944-.286,1.422-.165.862-.313,1.74-.454,2.627-.071.456-.147.907-.212,1.37-.027.189-.062.37-.088.56-.146,1.085-.27,2.19-.379,3.309-.02.207-.033.42-.052.627q-.157,1.749-.253,3.555c-.02.376-.04.751-.056,1.13-.061,1.412-.1,2.839-.107,4.3-.006,1.837.045,3.691.128,5.554.007.148,0,.294.01.442.049.986.126,1.981.2,2.973.031.411.049.817.083,1.229q.2,2.385.485,4.791c.044.365.1.732.149,1.1.158,1.244.328,2.488.523,3.738.09.581.2,1.163.294,1.744.125.744.238,1.486.375,2.231.054.292.12.586.176.878.129.681.271,1.364.411,2.047.2.97.4,1.94.622,2.913q.236,1.041.486,2.085.345,1.449.722,2.9c.181.7.363,1.392.552,2.088.268.979.549,1.958.835,2.938.2.677.393,1.353.6,2.03.08.261.151.522.231.782.169.542.362,1.083.535,1.625.336,1.045.676,2.09,1.033,3.133.268.786.548,1.569.828,2.353.367,1.027.74,2.052,1.126,3.076q.448,1.185.913,2.367.6,1.524,1.226,3.041.486,1.18.988,2.355.65,1.517,1.329,3.024c.214.476.412.957.63,1.433.15.325.31.646.461.97.374.805.758,1.606,1.144,2.408.416.865.835,1.729,1.265,2.591q.6,1.2,1.215,2.388c.44.853.882,1.7,1.335,2.551q.633,1.186,1.285,2.363.695,1.261,1.4,2.515.668,1.17,1.35,2.331.73,1.242,1.475,2.473.7,1.154,1.413,2.294.76,1.217,1.536,2.423.732,1.136,1.478,2.259.793,1.2,1.6,2.376.758,1.108,1.529,2.2.825,1.173,1.667,2.33.785,1.082,1.582,2.15.855,1.145,1.724,2.271.813,1.054,1.636,2.1.883,1.113,1.781,2.208.838,1.026,1.687,2.038c.605.72,1.217,1.431,1.832,2.14.575.662,1.15,1.322,1.732,1.973q.936,1.047,1.887,2.072c.589.64,1.18,1.278,1.777,1.906.638.671,1.283,1.332,1.929,1.99.606.618,1.212,1.233,1.825,1.839.654.645,1.313,1.278,1.974,1.909.619.591,1.238,1.182,1.864,1.761.67.62,1.346,1.226,2.024,1.831.628.561,1.257,1.124,1.892,1.672.684.592,1.375,1.167,2.066,1.743.642.535,1.283,1.07,1.931,1.591.209.168.414.348.624.515.54.43,1.091.834,1.634,1.254s1.113.864,1.673,1.283C547.885,458.2,548.7,458.781,549.51,459.36Z" fill="#c67f16"/>
              <path id="Path_11" data-name="Path 11" d="M684.313,537.152l-125.99,146.3h0a258.437,258.437,0,0,0,65.974-54.8L721.91,515.3Z" fill="#c67f16"/>
              <path id="Path_12" data-name="Path 12" d="M457.5,177.272c.377-.176.76-.342,1.141-.513.586-.263,1.173-.525,1.768-.773.408-.171.822-.332,1.234-.5.58-.23,1.162-.456,1.749-.673.426-.156.855-.306,1.285-.456q.878-.3,1.764-.588.656-.21,1.316-.409c.6-.18,1.2-.351,1.812-.517.439-.12.88-.241,1.322-.353.626-.159,1.258-.306,1.891-.451.432-.1.864-.2,1.3-.292.675-.142,1.356-.269,2.038-.394.406-.075.809-.156,1.217-.225.566-.1,1.14-.174,1.71-.258.483-.071.963-.148,1.45-.211.582-.074,1.17-.133,1.757-.2.485-.052.967-.112,1.455-.156.6-.054,1.2-.091,1.8-.133.487-.034.969-.076,1.459-.1.618-.032,1.245-.047,1.87-.067.48-.016.957-.04,1.44-.048.655-.011,1.317,0,1.978,0,.46,0,.917-.006,1.38,0,.717.014,1.441.048,2.163.077.414.017.826.024,1.242.046.949.051,1.9.123,2.863.2.2.016.388.024.584.041q1.738.153,3.5.366l.085.012c1.845.225,3.711.513,5.59.839.263.046.524.086.788.134,1.812.327,3.642.709,5.484,1.131.344.079.686.158,1.03.24q2.76.657,5.56,1.452c.3.086.606.179.908.268,1.95.57,3.912,1.18,5.891,1.855l.213.076c1.95.669,3.915,1.4,5.891,2.167.271.106.542.207.814.314,1.934.767,3.883,1.59,5.84,2.454.367.162.733.325,1.1.491q2.922,1.315,5.878,2.775c.325.16.652.328.977.492,2.054,1.032,4.117,2.1,6.192,3.242q1.922,1.053,3.853,2.167l37.6-21.848q-1.9-1.1-3.793-2.137l-.057-.031c-2.078-1.139-4.142-2.211-6.2-3.243-.325-.164-.649-.331-.973-.491q-2.958-1.464-5.882-2.776c-.367-.166-.733-.328-1.1-.489-1.959-.865-3.907-1.688-5.842-2.455-.271-.108-.54-.207-.811-.313-1.976-.77-3.942-1.5-5.892-2.168-.054-.019-.11-.042-.163-.06l-.051-.016c-1.978-.675-3.94-1.284-5.89-1.855-.3-.089-.607-.182-.91-.269q-2.8-.8-5.557-1.451-.518-.123-1.033-.24c-1.841-.423-3.671-.8-5.483-1.131-.264-.048-.525-.089-.787-.134-1.88-.326-3.746-.614-5.591-.84l-.061-.009-.025,0q-1.759-.213-3.5-.366c-.2-.017-.388-.025-.584-.041-.958-.079-1.915-.151-2.863-.2-.417-.022-.828-.029-1.243-.046-.722-.029-1.446-.063-2.162-.077-.463-.009-.92,0-1.381,0-.66,0-1.322-.011-1.977,0-.483.007-.96.032-1.44.047-.624.021-1.251.035-1.87.068-.489.027-.971.068-1.456.1-.6.042-1.209.079-1.807.133-.489.044-.971.1-1.455.156-.587.063-1.176.121-1.758.2-.487.063-.968.14-1.451.211-.571.084-1.143.163-1.709.258-.082.014-.167.024-.25.038-.325.056-.643.127-.966.187-.683.125-1.364.252-2.039.394-.436.092-.867.193-1.3.292-.632.145-1.264.292-1.889.451-.444.113-.883.233-1.322.353-.608.166-1.212.337-1.813.517q-.66.2-1.316.408-.888.285-1.764.589c-.43.149-.859.3-1.285.457-.588.216-1.17.442-1.75.672-.412.164-.824.325-1.231.495-.6.25-1.186.512-1.774.776-.379.17-.76.335-1.135.511-.646.3-1.283.624-1.92.946-.3.155-.616.3-.919.461q-1.4.735-2.773,1.527l-37.6,21.85q1.369-.8,2.772-1.528c.306-.16.619-.308.928-.464C456.221,177.894,456.855,177.575,457.5,177.272Z" fill="#c67f16"/>
              <path id="Path_13" data-name="Path 13" d="M560.084,190.8C476.1,142.313,407.8,181.245,407.528,277.755c-.1,36.579,11.644,76.068,26.272,114.763L558.323,683.449l125.99-146.3c16.389-24.929,27.232-46.867,27.336-83.812C711.923,356.83,644.061,239.288,560.084,190.8ZM559.3,465.7c-45.957-26.533-83.1-90.861-82.946-143.681.149-52.795,37.531-74.111,83.488-47.577s83.1,90.873,82.946,143.668C642.642,470.927,605.272,492.237,559.3,465.7Z" fill="#f89f1b"/>
              <path id="Path_14" data-name="Path 14" d="M727.3,506.835q.45-.733.894-1.467.891-1.472,1.75-2.943c.256-.438.517-.878.769-1.316.806-1.4,1.6-2.8,2.358-4.21.02-.038.039-.076.059-.113q1.1-2.043,2.139-4.105c.223-.442.437-.889.656-1.333q.734-1.492,1.434-3,.348-.753.689-1.509.684-1.525,1.329-3.072c.19-.455.386-.908.572-1.365.6-1.477,1.178-2.965,1.725-4.477.023-.067.044-.135.068-.2.519-1.444,1.008-2.91,1.478-4.393.155-.488.3-.985.447-1.477q.5-1.643.954-3.32.228-.838.445-1.686.44-1.719.833-3.485c.114-.508.235-1.01.343-1.524.355-1.682.689-3.387.984-5.134.018-.111.032-.228.05-.34.234-1.4.452-2.82.645-4.268.033-.242.054-.5.086-.739.074-.585.137-1.186.2-1.78q.221-1.913.4-3.881c.058-.67.114-1.345.164-2.026.1-1.349.182-2.724.25-4.115.03-.624.067-1.24.091-1.873.075-2.021.126-4.076.132-6.193q.006-2.514-.052-5.049c-.012-.544-.033-1.092-.049-1.638-.034-1.158-.073-2.318-.126-3.481-.011-.263-.015-.523-.028-.786-.012-.24-.035-.482-.048-.721-.123-2.354-.275-4.716-.473-7.089-.021-.264-.049-.529-.072-.793q-.306-3.525-.718-7.074c-.027-.22-.047-.438-.073-.658-.289-2.407-.621-4.823-.982-7.243-.064-.43-.126-.86-.193-1.291q-.546-3.545-1.2-7.105c-.033-.185-.059-.369-.093-.554-.044-.241-.1-.483-.145-.725q-.7-3.746-1.506-7.5c-.062-.287-.129-.573-.191-.86q-.849-3.871-1.8-7.752c-.02-.079-.038-.159-.057-.238-.648-2.6-1.342-5.2-2.063-7.8-.1-.349-.191-.7-.289-1.047q-1.05-3.735-2.205-7.466c-.072-.234-.135-.467-.207-.7-.054-.173-.116-.344-.17-.516q-1.447-4.629-3.046-9.249c-.1-.3-.205-.6-.31-.9q-1.68-4.816-3.519-9.611c-.057-.149-.111-.3-.168-.447q-1.923-5-4.013-9.964c-.052-.123-.106-.245-.158-.368q-2.023-4.8-4.2-9.554c-.049-.109-.094-.219-.144-.328-.092-.2-.192-.4-.284-.6q-1.886-4.1-3.875-8.158c-.14-.286-.284-.57-.424-.854q-2.027-4.1-4.156-8.166c-.128-.244-.26-.486-.389-.73q-2.171-4.11-4.442-8.171c-.114-.2-.232-.406-.347-.61q-2.316-4.115-4.733-8.171c-.089-.149-.181-.3-.27-.446q-2.473-4.128-5.047-8.19c-.055-.087-.111-.172-.166-.259q-2.637-4.148-5.377-8.218l-.031-.046q-2.751-4.082-5.606-8.077c-.042-.058-.083-.118-.124-.176q-2.806-3.924-5.708-7.757c-.088-.114-.173-.231-.26-.346q-2.848-3.756-5.786-7.415c-.126-.159-.251-.319-.378-.477q-2.891-3.592-5.863-7.085c-.164-.193-.326-.389-.491-.583q-2.932-3.435-5.94-6.765c-.2-.22-.395-.442-.594-.661q-2.974-3.282-6.021-6.455c-.226-.237-.451-.476-.679-.712q-3.024-3.137-6.114-6.159c-.247-.243-.492-.487-.74-.728q-3.07-2.989-6.2-5.861c-.27-.248-.54-.5-.81-.745q-3.114-2.839-6.285-5.555c-.289-.249-.577-.5-.867-.745q-3.159-2.688-6.368-5.249c-.17-.136-.336-.282-.506-.417-.142-.114-.289-.218-.432-.331q-3-2.373-6.036-4.632-.505-.376-1.014-.749-3.059-2.25-6.156-4.385c-.307-.212-.615-.419-.923-.628q-3.179-2.166-6.39-4.206c-.211-.134-.422-.262-.634-.394-2.254-1.416-4.519-2.793-6.8-4.108l-37.6,21.848c2.279,1.316,4.544,2.693,6.8,4.108.211.133.424.261.635.4,2.142,1.355,4.271,2.763,6.388,4.2.309.21.618.417.925.629q3.1,2.13,6.152,4.383c.341.251.681.5,1.02.754q3.036,2.256,6.03,4.626c.316.25.63.5.944.754q3.206,2.561,6.363,5.244c.29.248.581.5.871.749q3.167,2.717,6.282,5.552c.271.247.541.5.812.748q3.128,2.871,6.2,5.857c.25.242.5.489.746.733q3.086,3.024,6.111,6.156c.227.236.454.476.681.714q3.042,3.176,6.02,6.453c.2.219.394.442.593.661q3,3.332,5.937,6.762c.167.2.332.4.5.591q2.967,3.492,5.859,7.08c.127.158.252.319.379.477q2.932,3.66,5.785,7.415c.087.115.173.232.26.347q2.9,3.833,5.707,7.756c.042.058.083.117.124.176q2.855,3.994,5.607,8.077l.031.046q2.739,4.063,5.371,8.209c.057.09.117.18.174.271q2.577,4.058,5.045,8.188c.089.149.18.3.27.445q2.422,4.059,4.739,8.181c.112.2.226.4.338.6q2.274,4.056,4.441,8.166c.131.249.264.495.4.744q2.131,4.057,4.154,8.16c.141.286.284.57.425.855q1.993,4.064,3.878,8.167c.14.3.283.608.422.912q2.175,4.76,4.2,9.559c.052.123.106.246.158.368q2.089,4.968,4.014,9.968c.056.144.109.29.164.434q1.84,4.8,3.524,9.625c.1.3.2.6.306.893q1.6,4.624,3.05,9.26.188.6.372,1.2,1.152,3.735,2.208,7.473c.1.349.192.7.288,1.047q1.085,3.9,2.063,7.8c.02.08.037.159.057.239q.963,3.881,1.8,7.752c.063.287.131.574.192.86q.812,3.758,1.506,7.5c.08.426.161.852.239,1.279q.648,3.558,1.2,7.1c.066.431.129.861.193,1.292.36,2.42.694,4.835.981,7.242.026.22.048.439.073.658q.414,3.549.719,7.074c.023.264.05.53.073.793.2,2.373.35,4.735.472,7.089.026.5.054,1.005.077,1.507q.078,1.746.125,3.481c.016.546.037,1.094.048,1.638.037,1.689.058,3.373.052,5.049-.006,2.117-.056,4.171-.132,6.193-.023.635-.06,1.251-.091,1.877-.067,1.389-.147,2.761-.248,4.107q-.075,1.025-.165,2.032-.174,1.969-.4,3.879c-.069.594-.131,1.195-.206,1.78q-.325,2.55-.729,5.007c-.019.112-.033.229-.052.34-.295,1.747-.627,3.452-.983,5.135-.109.513-.229,1.014-.343,1.523-.264,1.175-.539,2.338-.833,3.485q-.217.848-.444,1.686-.456,1.68-.954,3.32c-.15.493-.294.99-.448,1.478q-.7,2.223-1.478,4.392c-.024.066-.045.135-.069.2-.546,1.512-1.125,3-1.724,4.477-.186.458-.381.91-.572,1.365q-.648,1.547-1.33,3.072-.339.756-.688,1.509-.7,1.508-1.434,3c-.219.444-.433.89-.656,1.333q-1.039,2.063-2.138,4.1c-.021.037-.04.075-.06.113-.762,1.407-1.552,2.809-2.358,4.21-.252.439-.513.878-.77,1.316q-.861,1.472-1.748,2.943-.444.734-.9,1.467-.909,1.479-1.849,2.965c-.27.427-.537.853-.81,1.282q-1.341,2.1-2.733,4.221l37.6-21.849q1.4-2.124,2.733-4.22c.274-.429.54-.857.81-1.284Q726.392,508.315,727.3,506.835Z" fill="#c67f16"/>
            </g>
          </g>
        </g>
      </g>
      <path id="Path_9069" data-name="Path 9069" d="M1078.774,1047.716c-46.876,0-84.879-21.663-84.879-48.392s38-48.39,84.879-48.39,84.874,21.667,84.874,48.39S1125.647,1047.716,1078.774,1047.716Z" transform="translate(21.162 228.066)" fill="#00879f" opacity="0.9"/>
    </g>
    <g id="Group_604" data-name="Group 604" transform="translate(269.778 532.958)">
      <circle id="Ellipse_1" data-name="Ellipse 1" cx="82.314" cy="82.314" r="82.314" transform="translate(46.862 46.862)" fill="#bf770c"/>
      <circle id="Ellipse_2" data-name="Ellipse 2" cx="79.577" cy="79.577" r="79.577" transform="translate(49.599 49.599)" fill="#f89f1b"/>
      <path id="Path_26" data-name="Path 26" d="M2681.7,1958.315a1.826,1.826,0,0,1-1.628-2.648,74.967,74.967,0,0,1,67.247-41.405,75.915,75.915,0,0,1,13.58,1.222,1.826,1.826,0,0,1-.655,3.592,72.248,72.248,0,0,0-12.925-1.163,71.336,71.336,0,0,0-63.988,39.4A1.824,1.824,0,0,1,2681.7,1958.315Z" transform="translate(-2618.143 -1860.37)" fill="#fff"/>
      <circle id="Ellipse_3" data-name="Ellipse 3" cx="67.352" cy="67.352" r="67.352" transform="translate(63.559 63.558)" fill="#fff" opacity="0.78"/>
      <g id="Group_21" data-name="Group 21" transform="translate(101.245 83.243)">
        <path id="Path_27" data-name="Path 27" d="M2850.126,2121.339v-7.327a59.762,59.762,0,0,1-20.561-4.458,4.239,4.239,0,0,1-2.343-5.007l1.862-6.825a4.272,4.272,0,0,1,5.8-2.8,49.61,49.61,0,0,0,18.983,4c7.357,0,12.844-2.495,12.844-7.607,0-4.614-4.24-7.357-14.465-10.1-14.59-3.99-25.065-10.351-25.065-23.195,0-11.6,8.48-20.452,23.195-22.821v-7.329a4.269,4.269,0,0,1,4.27-4.269h4.306a4.269,4.269,0,0,1,4.269,4.269v6.58a54.479,54.479,0,0,1,16.3,2.927,4.248,4.248,0,0,1,2.655,5.129l-1.711,6.313a4.258,4.258,0,0,1-5.621,2.875,44.461,44.461,0,0,0-15.983-2.9c-8.729,0-11.223,3.616-11.223,6.858,0,3.99,5.237,6.734,16.585,10.226,16.212,4.863,22.946,11.6,22.946,23.693,0,11.1-8.23,21.075-24.192,23.569v8.2a4.269,4.269,0,0,1-4.27,4.27H2854.4A4.269,4.269,0,0,1,2850.126,2121.339Z" transform="translate(-2827.071 -2023.602)" fill="#f89f1b"/>
      </g>
    </g>
    <g id="Group_605" data-name="Group 605" transform="translate(434.407 598.795)">
      <circle id="Ellipse_1-2" data-name="Ellipse 1" cx="110.488" cy="110.488" r="110.488" transform="translate(46.862 46.862)" fill="#bf770c"/>
      <circle id="Ellipse_2-2" data-name="Ellipse 2" cx="106.814" cy="106.814" r="106.814" transform="translate(50.536 50.536)" fill="#f89f1b"/>
      <path id="Path_26-2" data-name="Path 26" d="M2682.324,1973.393a2.45,2.45,0,0,1-2.185-3.555,100.625,100.625,0,0,1,90.264-55.577,101.916,101.916,0,0,1,18.228,1.641,2.451,2.451,0,0,1-.879,4.822,96.981,96.981,0,0,0-17.349-1.562,95.752,95.752,0,0,0-85.889,52.885A2.449,2.449,0,0,1,2682.324,1973.393Z" transform="translate(-2613.053 -1857.963)" fill="#fff"/>
      <circle id="Ellipse_3-2" data-name="Ellipse 3" cx="90.404" cy="90.404" r="90.404" transform="translate(69.273 69.272)" fill="#fff" opacity="0.78"/>
      <g id="Group_21-2" data-name="Group 21" transform="translate(119.859 95.695)">
        <path id="Path_27-2" data-name="Path 27" d="M2858.017,2154.792v-9.835a80.218,80.218,0,0,1-27.6-5.984,5.689,5.689,0,0,1-3.145-6.721l2.5-9.162a5.735,5.735,0,0,1,7.784-3.752,66.588,66.588,0,0,0,25.481,5.366c9.876,0,17.24-3.349,17.24-10.211,0-6.193-5.691-9.876-19.416-13.558-19.583-5.356-33.645-13.894-33.645-31.134,0-15.568,11.382-27.452,31.134-30.631v-9.837a5.731,5.731,0,0,1,5.731-5.73h5.779a5.731,5.731,0,0,1,5.73,5.73v8.832a73.124,73.124,0,0,1,21.875,3.928,5.7,5.7,0,0,1,3.563,6.884l-2.3,8.473a5.715,5.715,0,0,1-7.545,3.859,59.682,59.682,0,0,0-21.454-3.895c-11.718,0-15.064,4.854-15.064,9.206,0,5.356,7.03,9.039,22.261,13.726,21.761,6.528,30.8,15.566,30.8,31.8,0,14.9-11.048,28.288-32.473,31.636v11.007a5.731,5.731,0,0,1-5.731,5.731h-5.779A5.731,5.731,0,0,1,2858.017,2154.792Z" transform="translate(-2827.071 -2023.602)" fill="#f89f1b"/>
      </g>
    </g>
    <g id="Group_606" data-name="Group 606" transform="translate(201.824 719.143)">
      <circle id="Ellipse_1-3" data-name="Ellipse 1" cx="50.314" cy="50.314" r="50.314" transform="translate(46.862 46.862)" fill="#bf770c"/>
      <circle id="Ellipse_2-3" data-name="Ellipse 2" cx="48.641" cy="48.641" r="48.641" transform="translate(48.535 48.535)" fill="#f89f1b"/>
      <path id="Path_26-3" data-name="Path 26" d="M2680.99,1941.189a1.116,1.116,0,0,1-.995-1.619,45.823,45.823,0,0,1,41.1-25.308,46.4,46.4,0,0,1,8.3.747,1.116,1.116,0,0,1-.4,2.2,44.155,44.155,0,0,0-7.9-.711,43.6,43.6,0,0,0-39.112,24.083A1.116,1.116,0,0,1,2680.99,1941.189Z" transform="translate(-2623.924 -1863.103)" fill="#fff"/>
      <circle id="Ellipse_3-3" data-name="Ellipse 3" cx="41.168" cy="41.168" r="41.168" transform="translate(57.068 57.067)" fill="#fff" opacity="0.78"/>
      <g id="Group_21-3" data-name="Group 21" transform="translate(80.103 69.1)">
        <path id="Path_27-3" data-name="Path 27" d="M2841.163,2083.343v-4.479a36.53,36.53,0,0,1-12.568-2.725,2.591,2.591,0,0,1-1.432-3.061l1.138-4.172a2.612,2.612,0,0,1,3.545-1.709,30.326,30.326,0,0,0,11.6,2.443c4.5,0,7.851-1.525,7.851-4.65,0-2.82-2.592-4.5-8.842-6.174-8.918-2.439-15.321-6.327-15.321-14.177,0-7.089,5.183-12.5,14.178-13.949v-4.48a2.61,2.61,0,0,1,2.61-2.609h2.632a2.61,2.61,0,0,1,2.609,2.609v4.022a33.289,33.289,0,0,1,9.961,1.789,2.6,2.6,0,0,1,1.623,3.135l-1.046,3.858a2.6,2.6,0,0,1-3.436,1.758,27.172,27.172,0,0,0-9.77-1.774c-5.336,0-6.86,2.21-6.86,4.192,0,2.439,3.2,4.116,10.137,6.25,9.91,2.973,14.025,7.089,14.025,14.482,0,6.784-5.031,12.882-14.787,14.406v5.012a2.61,2.61,0,0,1-2.61,2.61h-2.632A2.61,2.61,0,0,1,2841.163,2083.343Z" transform="translate(-2827.071 -2023.602)" fill="#f89f1b"/>
      </g>
    </g>
    <g id="Group_609" data-name="Group 609" transform="translate(141.638 877.544)">
      <circle id="Ellipse_1-4" data-name="Ellipse 1" cx="50.314" cy="50.314" r="50.314" transform="translate(46.862 46.862)" fill="#bf770c"/>
      <circle id="Ellipse_2-4" data-name="Ellipse 2" cx="48.641" cy="48.641" r="48.641" transform="translate(48.535 48.535)" fill="#f89f1b"/>
      <path id="Path_26-4" data-name="Path 26" d="M2680.99,1941.189a1.116,1.116,0,0,1-.995-1.619,45.823,45.823,0,0,1,41.1-25.308,46.4,46.4,0,0,1,8.3.747,1.116,1.116,0,0,1-.4,2.2,44.155,44.155,0,0,0-7.9-.711,43.6,43.6,0,0,0-39.112,24.083A1.116,1.116,0,0,1,2680.99,1941.189Z" transform="translate(-2623.924 -1863.103)" fill="#fff"/>
      <circle id="Ellipse_3-4" data-name="Ellipse 3" cx="41.168" cy="41.168" r="41.168" transform="translate(57.068 57.067)" fill="#fff" opacity="0.78"/>
      <g id="Group_21-4" data-name="Group 21" transform="translate(80.103 69.1)">
        <path id="Path_27-4" data-name="Path 27" d="M2841.163,2083.343v-4.479a36.53,36.53,0,0,1-12.568-2.725,2.591,2.591,0,0,1-1.432-3.061l1.138-4.172a2.612,2.612,0,0,1,3.545-1.709,30.326,30.326,0,0,0,11.6,2.443c4.5,0,7.851-1.525,7.851-4.65,0-2.82-2.592-4.5-8.842-6.174-8.918-2.439-15.321-6.327-15.321-14.177,0-7.089,5.183-12.5,14.178-13.949v-4.48a2.61,2.61,0,0,1,2.61-2.609h2.632a2.61,2.61,0,0,1,2.609,2.609v4.022a33.289,33.289,0,0,1,9.961,1.789,2.6,2.6,0,0,1,1.623,3.135l-1.046,3.858a2.6,2.6,0,0,1-3.436,1.758,27.172,27.172,0,0,0-9.77-1.774c-5.336,0-6.86,2.21-6.86,4.192,0,2.439,3.2,4.116,10.137,6.25,9.91,2.973,14.025,7.089,14.025,14.482,0,6.784-5.031,12.882-14.787,14.406v5.012a2.61,2.61,0,0,1-2.61,2.61h-2.632A2.61,2.61,0,0,1,2841.163,2083.343Z" transform="translate(-2827.071 -2023.602)" fill="#f89f1b"/>
      </g>
    </g>
    <g id="Group_8-2" data-name="Group 8" transform="translate(222.686 814.642)">
      <path id="Path_4-2" data-name="Path 4" d="M836.324,2627.725a13.053,13.053,0,0,0,13.021,13.009h704.14a13.053,13.053,0,0,0,13.021-13.009l5.859-404.65c0-7.155-8.429-21.123-23.878-20.073L860.323,2185.2a32.812,32.812,0,0,0-33.67,33.561Z" transform="translate(-779.2 -2185.186)" fill="#00b3d3"/>
      <path id="Path_5-2" data-name="Path 5" d="M863.879,2633.08A12.356,12.356,0,0,0,876.2,2645.4H1551.2a12.356,12.356,0,0,0,12.319-12.319l5.529-367.344c-.651-22.106-20.032-30.051-31.78-29.582L877.73,2218.458a23.062,23.062,0,0,0-23.66,23.6Z" transform="translate(-793.9 -2203.02)" fill="#d2fdfd"/>
      <g id="Group_4-2" data-name="Group 4" transform="translate(524.642 34.485)">
        <path id="Path_6" data-name="Path 6" d="M2365.71,2697.485h-.018a1.807,1.807,0,0,1-1.788-1.833l.437-29.791a1.805,1.805,0,0,1,1.8-1.779h.019a1.806,1.806,0,0,1,1.788,1.832l-.437,29.791A1.806,1.806,0,0,1,2365.71,2697.485Z" transform="translate(-2128.023 -2476.425)" fill="#fff"/>
        <path id="Path_7" data-name="Path 7" d="M2094.15,2407.585h-.027a1.806,1.806,0,0,1-1.779-1.833l1.675-114.1c-.031-6.778-2.089-12.19-6.115-16.047-7.516-7.2-19.449-6.834-19.952-6.811l-210.8-5.653a1.8,1.8,0,0,1-1.756-1.853,1.728,1.728,0,0,1,1.854-1.755l210.679,5.653c1.311-.077,14.016-.3,22.478,7.81,4.76,4.562,7.192,10.845,7.228,18.673l-1.676,114.136A1.805,1.805,0,0,1,2094.15,2407.585Z" transform="translate(-1855.392 -2259.528)" fill="#fff"/>
      </g>
      <rect id="Rectangle_2" data-name="Rectangle 2" width="830.153" height="35.554" rx="5.654" transform="translate(830.153 489.14) rotate(180)" fill="#0992ac"/>
      <path id="Path_8" data-name="Path 8" d="M1186.108,2668.03H926.213a17.351,17.351,0,0,1-17.35-17.35V2311.438a17.35,17.35,0,0,1,18.014-17.338l259.894,9.946a17.35,17.35,0,0,1,16.687,17.338v329.3A17.35,17.35,0,0,1,1186.108,2668.03Z" transform="translate(-823.281 -2243.572)" fill="#25cbe8" opacity="0.4"/>
      <g id="Group_5" data-name="Group 5" transform="translate(136.509 183.609)">
        <rect id="Rectangle_3" data-name="Rectangle 3" width="177.098" height="22.879" rx="5.333" fill="#d2fdfd"/>
        <rect id="Rectangle_4" data-name="Rectangle 4" width="177.098" height="22.879" rx="5.333" transform="translate(0.348 36.536)" fill="#d2fdfd"/>
        <rect id="Rectangle_5" data-name="Rectangle 5" width="177.098" height="22.879" rx="5.333" transform="translate(1.386 73.837)" fill="#d2fdfd"/>
        <rect id="Rectangle_6" data-name="Rectangle 6" width="177.098" height="22.879" rx="5.333" transform="translate(1.734 110.372)" fill="#d2fdfd"/>
      </g>
      <g id="Group_7" data-name="Group 7" transform="translate(417.657 149.126)">
        <rect id="Rectangle_7" data-name="Rectangle 7" width="254.615" height="22.879" rx="5.333" transform="translate(0 121.456)" fill="#8ce9f5"/>
        <rect id="Rectangle_8" data-name="Rectangle 8" width="254.615" height="22.879" rx="5.333" transform="translate(0.787 158.019)" fill="#8ce9f5"/>
        <rect id="Rectangle_9" data-name="Rectangle 9" width="150.873" height="22.879" rx="5.333" transform="translate(0.787 195.32)" fill="#8ce9f5"/>
        <g id="Group_6" data-name="Group 6" transform="translate(67.136)">
          <path id="Path_9-2" data-name="Path 9" d="M1888.141,2355.3h-3.878a3.486,3.486,0,0,1-3.487-3.487V2338.56a8.592,8.592,0,0,0-8.592-8.592h-24.031a8.592,8.592,0,0,0-8.593,8.592v13.256a3.486,3.486,0,0,1-3.487,3.487h-3.879a3.487,3.487,0,0,1-3.487-3.487V2338.56a19.444,19.444,0,0,1,19.444-19.444h24.031a19.444,19.444,0,0,1,19.444,19.444v13.256A3.487,3.487,0,0,1,1888.141,2355.3Z" transform="translate(-1820.114 -2319.116)" fill="#8ce9f5"/>
          <path id="Path_10-2" data-name="Path 10" d="M1883.015,2403.874h-65.561a7.274,7.274,0,0,0-7.274,7.274v50.315a7.275,7.275,0,0,0,7.274,7.275h65.561a7.275,7.275,0,0,0,7.274-7.275v-50.315A7.274,7.274,0,0,0,1883.015,2403.874Zm-23.4,48.63a2.7,2.7,0,0,1-2.62,3.325h-13.519a2.7,2.7,0,0,1-2.62-3.325l3.154-13.132a12.153,12.153,0,1,1,12.451,0Z" transform="translate(-1810.18 -2364.558)" fill="#8ce9f5"/>
        </g>
      </g>
    </g>
    <path id="Path_9070" data-name="Path 9070" d="M1078.774,1015.687c-15.853,0-28.7-7.324-28.7-16.363s12.849-16.361,28.7-16.361,28.7,7.328,28.7,16.361S1094.622,1015.687,1078.774,1015.687Z" transform="translate(187.162 255.066)" fill="#3ed8f4" opacity="0.4"/>
  </g>
</svg>
