<svg xmlns="http://www.w3.org/2000/svg" xmlns:xlink="http://www.w3.org/1999/xlink" width="340.116" height="347.747" viewBox="0 0 340.116 347.747">
  <defs>
    <radialGradient id="radial-gradient" cx="0.491" cy="0.516" r="0.831" gradientTransform="translate(0.207 16.48) scale(0.578 0.555)" gradientUnits="objectBoundingBox">
      <stop offset="0" stop-color="#3dd2ed"/>
      <stop offset="0.121" stop-color="#3fbbd1"/>
      <stop offset="0.284" stop-color="#288696"/>
      <stop offset="0.445" stop-color="#1f6b79"/>
      <stop offset="0.6" stop-color="#144c57"/>
      <stop offset="0.748" stop-color="#123d45"/>
      <stop offset="0.885" stop-color="#0b2a2f"/>
      <stop offset="1" stop-color="#0a3941"/>
    </radialGradient>
    <linearGradient id="linear-gradient" x1="0.5" y1="0.805" x2="0.5" gradientUnits="objectBoundingBox">
      <stop offset="0" stop-color="#fff" stop-opacity="0"/>
      <stop offset="0.115" stop-color="#fff"/>
      <stop offset="0.252" stop-color="#fff" stop-opacity="0"/>
      <stop offset="0.4" stop-color="#58ddf5" stop-opacity="0.078"/>
      <stop offset="0.555" stop-color="#40bcd1" stop-opacity="0.09"/>
      <stop offset="0.682" stop-color="#3fb7cc" stop-opacity="0.2"/>
      <stop offset="0.82" stop-color="#55daf2" stop-opacity="0.424"/>
      <stop offset="1" stop-color="#58ddf5" stop-opacity="0.557"/>
    </linearGradient>
    <linearGradient id="linear-gradient-3" x1="0.5" y1="0.805" x2="0.5" gradientUnits="objectBoundingBox">
      <stop offset="0" stop-color="#fff" stop-opacity="0"/>
      <stop offset="0.115" stop-color="#fff" stop-opacity="0"/>
      <stop offset="0.252" stop-color="#fff" stop-opacity="0"/>
      <stop offset="0.4" stop-color="#58ddf5" stop-opacity="0.078"/>
      <stop offset="0.555" stop-color="#40bcd1" stop-opacity="0.09"/>
      <stop offset="0.682" stop-color="#3fb7cc" stop-opacity="0.2"/>
      <stop offset="0.82" stop-color="#55daf2" stop-opacity="0.424"/>
      <stop offset="1" stop-color="#58ddf5" stop-opacity="0.557"/>
    </linearGradient>
  </defs>
  <g id="mobile-proxies" transform="translate(-236.957 -1518.206)">
    <circle id="Ellipse_2040" data-name="Ellipse 2040" cx="47.5" cy="47.5" r="47.5" transform="translate(260 1683)" fill="#f89f1b"/>
    <circle id="Ellipse_2041" data-name="Ellipse 2041" cx="30.5" cy="30.5" r="30.5" transform="translate(414 1552)" fill="#f89f1b"/>
    <circle id="Ellipse_2042" data-name="Ellipse 2042" cx="42.5" cy="42.5" r="42.5" transform="translate(461 1730)" fill="#f89f1b"/>
    <g id="Group_439" data-name="Group 439" transform="translate(100.682 1465)">
      <g id="Group_4" data-name="Group 4">
        <g id="Group_3" data-name="Group 3">
          <g id="Group_2" data-name="Group 2">
            <g id="Group_1" data-name="Group 1">
              <path id="Path_1" data-name="Path 1" d="M369.206,205.031l106.077,61.075c1.6.919,1.4,2.526-.442,3.591L249.649,400.07a6.912,6.912,0,0,1-6.218.265L137.354,339.26c-1.6-.919-1.4-2.526.442-3.591L362.987,205.3A6.914,6.914,0,0,1,369.206,205.031Z" fill="#58ddf5" opacity="0.3"/>
              <path id="Path_2" data-name="Path 2" d="M136.276,310.548l.034,7.437.019-.01a1.848,1.848,0,0,0,1.057,1.5l106.077,61.075a6.909,6.909,0,0,0,6.218-.265L474.873,249.91a2.514,2.514,0,0,0,1.5-2.048l.018.01-.033-7.429-11.738,6.483-95.382-54.917a6.914,6.914,0,0,0-6.219.265L147.389,317.111c.552-.606.951-1.054.953-1.087C148.349,315.915,136.276,310.548,136.276,310.548Z" fill="#58ddf5"/>
              <path id="Path_3" data-name="Path 3" d="M248.875,380.663l-.044-30.22-4.841-2.787.048,33.153A7.189,7.189,0,0,0,248.875,380.663Z" fill="#18a7c3"/>
              <path id="Path_4" data-name="Path 4" d="M369.206,177.9l106.077,61.075c1.6.919,1.4,2.527-.442,3.592L249.649,372.936a6.908,6.908,0,0,1-6.218.265L137.354,312.126c-1.6-.918-1.4-2.526.442-3.591L362.987,178.162A6.914,6.914,0,0,1,369.206,177.9Z" fill="#58ddf5"/>
              <path id="Path_5" data-name="Path 5" d="M243.431,373.2,137.354,312.126a1.688,1.688,0,0,1-.961-2.111,2.017,2.017,0,0,0,1.019,1.19L243.489,372.28a6.909,6.909,0,0,0,6.218-.265L474.9,241.643a3.044,3.044,0,0,0,1.4-1.48c.216.806-.277,1.715-1.461,2.4L249.649,372.936A6.908,6.908,0,0,1,243.431,373.2Z" fill="#0f505c"/>
              <path id="Path_6" data-name="Path 6" d="M351.565,184.775l111.854,64.4L261.071,366.323l-111.854-64.4Z" fill="#18a7c3"/>
              <path id="Path_7" data-name="Path 7" d="M351.565,184.775l111.854,64.4L261.071,366.323l-111.854-64.4Z" fill="#18a7c3"/>
              <path id="Path_8" data-name="Path 8" d="M351.565,184.775l111.854,64.4L261.071,366.323l-111.854-64.4Z" opacity="0.5" fill="url(#radial-gradient)"/>
              <path id="Path_9" data-name="Path 9" d="M191.078,332.2l20.269,11.63c.59.34.93.724.559,1.19a1.881,1.881,0,0,1-.532.44h0a3.422,3.422,0,0,1-3.079.131l-20.447-11.772c-.062-.036-.153-.051-.169-.113-.167-.647-.113-.8.727-1.288l.281-.058A2.147,2.147,0,0,1,191.078,332.2Z" fill="#18a7c3"/>
              <path id="Path_10" data-name="Path 10" d="M187.684,333.7a1.868,1.868,0,0,1,.53-.438,3.423,3.423,0,0,1,3.078-.131l20.447,11.773a1.432,1.432,0,0,1,.165.12.832.832,0,0,0-.312-1.34l-20.447-11.773a3.42,3.42,0,0,0-3.078.131C187.23,332.531,187.089,333.239,187.684,333.7Z" fill="#58ddf5"/>
            </g>
          </g>
        </g>
      </g>
      <g id="Group_7" data-name="Group 7">
        <g id="Group_6" data-name="Group 6">
          <g id="Group_5" data-name="Group 5">
            <path id="Path_11" data-name="Path 11" d="M217.638,294.3l-7.335-4.235a1.284,1.284,0,0,1,0-2.432h0a4.658,4.658,0,0,1,4.212,0l7.335,4.235a1.284,1.284,0,0,1,0,2.432h0A4.652,4.652,0,0,1,217.638,294.3Z" fill="#58ddf5" opacity="0.2"/>
            <path id="Path_12" data-name="Path 12" d="M232.816,303.061l-7.335-4.235a1.283,1.283,0,0,1,0-2.431h0a4.652,4.652,0,0,1,4.212,0l7.335,4.234a1.284,1.284,0,0,1,0,2.432h0A4.652,4.652,0,0,1,232.816,303.061Z" fill="#58ddf5" opacity="0.6"/>
            <path id="Path_13" data-name="Path 13" d="M247.994,311.824l-7.335-4.234a1.284,1.284,0,0,1,0-2.432h0a4.652,4.652,0,0,1,4.212,0l7.335,4.234a1.284,1.284,0,0,1,0,2.432h0A4.652,4.652,0,0,1,247.994,311.824Z" fill="#58ddf5"/>
            <path id="Path_14" data-name="Path 14" d="M263.172,320.587l-7.335-4.234a1.284,1.284,0,0,1,0-2.432h0a4.652,4.652,0,0,1,4.212,0l7.335,4.235a1.283,1.283,0,0,1,0,2.431h0A4.652,4.652,0,0,1,263.172,320.587Z" fill="#58ddf5" opacity="0.6"/>
            <path id="Path_15" data-name="Path 15" d="M278.351,329.351l-7.335-4.235a1.283,1.283,0,0,1,0-2.432h0a4.652,4.652,0,0,1,4.212,0l7.335,4.235a1.284,1.284,0,0,1,0,2.432h0A4.658,4.658,0,0,1,278.351,329.351Z" fill="#58ddf5" opacity="0.2"/>
          </g>
        </g>
      </g>
      <g id="Group_29" data-name="Group 29">
        <g id="Group_8" data-name="Group 8">
          <ellipse id="Ellipse_2" data-name="Ellipse 2" cx="61.836" cy="35.701" rx="61.836" ry="35.701" transform="translate(241.307 239.689)" fill="#065564" opacity="0.2"/>
          <ellipse id="Ellipse_3" data-name="Ellipse 3" cx="35.08" cy="20.254" rx="35.08" ry="20.254" transform="translate(268.063 255.137)" fill="#037286"/>
        </g>
        <g id="Group_9" data-name="Group 9" opacity="0.3">
          <path id="Path_16" data-name="Path 16" d="M382.64,149.074c.768,4.347,3.992,15.271,17.293,22.827,18.934,8.744,32.049,20.237,36.443,33.07a29.745,29.745,0,0,0,1.143,2.764c.471-.777.471-.777.474-2.659V183.53c-.009-12.651-.718-15.44-1.617-18.971-4.394-12.833-17.509-24.327-36.443-33.07-15.105-4.876-18.761,9.286-17.293,17.585Z" fill="#58ddf5"/>
          <path id="Path_17" data-name="Path 17" d="M243.8,123.222c20.046-5.815,43.76-9.089,69.071-8.881q5.008.04,9.918.26c22.225,2.03,30.129,25.5,16.73,35.77-6.151,4.713-13.564,4.664-16.73,4.643q-4.906-.219-9.918-.261c-25.311-.207-49.025,3.067-69.071,8.882-20.24,4.93-21.436-15.639-14.358-28.221A25.58,25.58,0,0,1,243.8,123.222Z" fill="#58ddf5"/>
          <path id="Path_18" data-name="Path 18" d="M183.3,214.551c.552-6.406.988-11.465,7.51-20.295,13.748-20.287,10.972-43.865,3.377-42.776-1.224.176-2.5,1.5-3.377,2.363-4.616,6.015-7.239,12.483-7.49,19.231-.013.356-.02.71-.02,1.064v40.413Z" fill="#58ddf5"/>
        </g>
        <g id="content" transform="translate(244.179 89.789)">
          <g id="Group_359" data-name="Group 359" transform="translate(0 0)">
            <g id="Group_341" data-name="Group 341" transform="translate(0.774 3.679)">
              <g id="Group_320" data-name="Group 320" transform="translate(0 45.355)">
                <path id="Path_454" data-name="Path 454" d="M253.108,62.1l.007-.01s-15.326-5.942-21.352,5.157,7.329,20.7,7.329,20.7l0-.008c1.965,1.66,4.939,1.683,8.233-.339,5.7-3.5,10.167-11.743,9.99-18.422C257.213,65.317,255.572,62.837,253.108,62.1Z" transform="translate(-229.533 -59.854)" fill="#58ddf5"/>
                <path id="Path_455" data-name="Path 455" d="M242.782,90.092a5.851,5.851,0,0,1-3.748-1.287l-.08-.055c-.138-.1-13.768-10.088-7.529-21.58s22.033-5.525,22.192-5.465l.111.044a5.59,5.59,0,0,1,.551.213l.08.031,0,0c2.394,1.111,3.8,3.759,3.9,7.412.184,6.886-4.443,15.417-10.311,19.02A10.042,10.042,0,0,1,242.782,90.092Zm-3.609-2.933.621.513c1.815,1.535,4.526,1.388,7.438-.4,5.5-3.376,9.838-11.373,9.666-17.826-.093-3.417-1.45-5.768-3.725-6.452l-.826-.246.021-.036c-3.1-.979-14.828-3.963-19.75,5.1-4.955,9.128,4.082,17.364,6.539,19.367Z" transform="translate(-229.791 -60.103)" fill="#18a7c3"/>
              </g>
              <g id="Group_321" data-name="Group 321" transform="translate(43.744 165.535)">
                <path id="Path_456" data-name="Path 456" d="M285.057,149.757h.01s-1.972-15.473-13.957-15.479-13.959,15.479-13.959,15.479h.008c-.5,2.389.831,4.88,4.007,6.713,5.493,3.172,14.394,3.172,19.887,0C284.227,154.637,285.555,152.146,285.057,149.757Z" transform="translate(-256.375 -133.599)" fill="#58ddf5"/>
                <path id="Path_457" data-name="Path 457" d="M271.372,159.778a21.026,21.026,0,0,1-10.285-2.457c-3.278-1.892-4.859-4.544-4.359-7.3l.011-.091c.02-.16,2.192-16.072,14.624-16.072h.008c12.437.008,14.609,15.913,14.63,16.072l.016.125c.031.178.054.357.067.534l.015.106h0c.147,2.508-1.432,4.885-4.442,6.622A21.009,21.009,0,0,1,271.372,159.778Zm-13.156-10.436h.033l-.163.816c-.455,2.193.885,4.375,3.679,5.988,5.3,3.055,13.912,3.058,19.209,0,2.8-1.613,4.137-3.795,3.682-5.988l-.171-.816h.041c-.59-3.044-3.409-14.119-13.154-14.124h-.008C261.609,135.218,258.8,146.3,258.217,149.342Z" transform="translate(-256.638 -133.861)" fill="#18a7c3"/>
              </g>
              <g id="Group_322" data-name="Group 322" transform="translate(51.362 142.373)">
                <path id="Path_458" data-name="Path 458" d="M261.731,120.13V143.9a3.168,3.168,0,0,0,1.884,2.68,10.055,10.055,0,0,0,9.1,0,3.194,3.194,0,0,0,1.884-2.627h0V120.065Z" transform="translate(-261.051 -119.382)" fill="#58ddf5"/>
                <path id="Path_459" data-name="Path 459" d="M268.428,148.62a9.939,9.939,0,0,1-4.89-1.188,3.807,3.807,0,0,1-2.224-3.285V119.719l14.23-.073v24.571a3.834,3.834,0,0,1-2.224,3.215A9.945,9.945,0,0,1,268.428,148.62Zm-5.755-27.551v23.1a2.538,2.538,0,0,0,1.545,2.094,9.331,9.331,0,0,0,8.421,0,2.574,2.574,0,0,0,1.546-2.042V121.01Z" transform="translate(-261.314 -119.646)" fill="#18a7c3"/>
              </g>
              <g id="Group_325" data-name="Group 325" transform="translate(24.411 105.438)">
                <g id="Group_323" data-name="Group 323" transform="translate(0.023 0.002)">
                  <path id="Path_460" data-name="Path 460" d="M245.452,119.024h-.018s4.745,36.72,33.2,36.684,33.067-36.8,33.067-36.8h-.021c1.172-5.674-1.99-11.582-9.535-15.922-13.05-7.5-34.185-7.464-47.207.086C247.4,107.436,244.262,113.356,245.452,119.024Z" transform="translate(-244.523 -96.725)" fill="#58ddf5"/>
                  <path id="Path_461" data-name="Path 461" d="M278.854,156.642c-28.684,0-33.784-36.9-33.831-37.274l-.039-.293c-1.106-6.11,2.472-12.046,9.872-16.338,13.193-7.643,34.672-7.683,47.885-.085,7.458,4.289,11.057,10.255,9.912,16.4l-.02.191c-.046.373-5.022,37.359-33.738,37.395ZM246.48,119.909c.862,5.08,7.068,35.376,32.374,35.376h.039c25.277-.031,31.407-30.219,32.275-35.444h-.041l.15-.816c1.159-5.623-2.2-11.163-9.213-15.194-12.838-7.384-33.712-7.349-46.527.081-7,4.057-10.337,9.607-9.156,15.228l.158.766Z" transform="translate(-244.787 -96.979)" fill="none" stroke="#18a7c3" stroke-width="1"/>
                </g>
                <g id="Group_324" data-name="Group 324" transform="translate(0 0)">
                  <path id="Path_462" data-name="Path 462" d="M302.173,103.028c13.035,7.526,13.035,19.729,0,27.253s-34.17,7.526-47.207,0-13.034-19.729,0-27.255S289.138,95.5,302.173,103.028Z" transform="translate(-244.51 -96.723)" fill="#58ddf5"/>
                  <path id="Path_463" data-name="Path 463" d="M278.832,136.843c-8.67,0-17.34-1.9-23.942-5.716-6.522-3.767-10.117-8.815-10.117-14.216s3.594-10.449,10.117-14.215c13.2-7.622,34.687-7.624,47.886,0h0c6.524,3.766,10.117,8.815,10.117,14.215s-3.593,10.449-10.117,14.216C296.174,134.936,287.5,136.843,278.832,136.843Zm0-38.527c-8.424,0-16.848,1.853-23.263,5.555-6.086,3.515-9.437,8.145-9.437,13.04s3.352,9.527,9.436,13.04c12.83,7.407,33.7,7.407,46.531,0,6.084-3.513,9.436-8.144,9.436-13.04s-3.352-9.525-9.436-13.04C295.684,100.168,287.26,98.316,278.832,98.316Z" transform="translate(-244.773 -96.978)" fill="#18a7c3"/>
                </g>
              </g>
              <g id="Group_328" data-name="Group 328" transform="translate(3.319 25.004)">
                <g id="Group_326" data-name="Group 326" transform="translate(0 15.415)">
                  <path id="Path_464" data-name="Path 464" d="M341.189,122.763a18.472,18.472,0,0,0-.469-4.069c-1.33-9.786-6.094-35.767-21.283-61.184l-32.723,2.755-32.721-2.755c-15.189,25.417-19.95,51.4-21.285,61.184-2.1,9.345,3.055,19.129,15.487,26.308,21.275,12.282,55.766,12.282,77.04,0,10.638-6.141,15.955-14.19,15.955-22.24Z" transform="translate(-231.562 -56.799)" fill="#58ddf5"/>
                  <path id="Path_465" data-name="Path 465" d="M286.98,155.144c-14.073,0-28.146-3.093-38.858-9.279-12.312-7.106-18.075-16.964-15.81-27.043,1.349-9.938,6.154-35.931,21.363-61.384l.217-.363,33.145,2.791,33.031-2.791.218.363c15.212,25.456,20.014,51.448,21.373,61.44a18.973,18.973,0,0,1,.476,4.161c0,8.652-5.786,16.76-16.3,22.826C315.126,152.051,301.054,155.144,286.98,155.144ZM254.623,58.5c-14.907,25.119-19.634,50.7-20.977,60.563-2.136,9.519,3.391,18.839,15.153,25.63,21.052,12.152,55.308,12.152,76.362,0,10.07-5.817,15.616-13.506,15.616-21.653a17.9,17.9,0,0,0-.453-3.92c-1.351-9.918-6.074-35.5-20.988-60.62l-32.3,2.719Z" transform="translate(-231.828 -57.074)" fill="#18a7c3"/>
                </g>
                <g id="Group_327" data-name="Group 327" transform="translate(21.092)">
                  <path id="Path_466" data-name="Path 466" d="M302.173,53.662c13.035,7.528,13.035,19.729,0,27.257s-34.17,7.526-47.207,0-13.034-19.729,0-27.257S289.138,46.136,302.173,53.662Z" transform="translate(-244.51 -47.359)" fill="#58ddf5"/>
                  <path id="Path_467" data-name="Path 467" d="M278.832,87.476c-8.67,0-17.34-1.9-23.942-5.716-6.522-3.766-10.117-8.815-10.117-14.215S248.367,57.1,254.89,53.33c13.2-7.622,34.687-7.622,47.886,0h0c6.524,3.766,10.117,8.813,10.117,14.215S309.3,77.994,302.776,81.76C296.174,85.571,287.5,87.476,278.832,87.476Zm0-38.525c-8.424,0-16.848,1.851-23.263,5.555-6.086,3.515-9.437,8.144-9.437,13.04s3.352,9.525,9.436,13.04c12.83,7.406,33.7,7.406,46.531,0,6.084-3.515,9.436-8.145,9.436-13.04s-3.352-9.525-9.436-13.04C295.684,50.8,287.26,48.95,278.832,48.95Z" transform="translate(-244.773 -47.613)" fill="#18a7c3"/>
                </g>
              </g>
              <g id="Group_329" data-name="Group 329" transform="translate(24.436)">
                <path id="Path_468" data-name="Path 468" d="M311.672,69.428h.02s-4.68-36.728-33.132-36.743-33.131,36.743-33.131,36.743h.02c-1.18,5.67,1.97,11.585,9.508,15.937,13.037,7.526,34.172,7.526,47.207,0C309.7,81.013,312.853,75.1,311.672,69.428Z" transform="translate(-244.524 -32.006)" fill="#58ddf5"/>
                <path id="Path_469" data-name="Path 469" d="M278.823,91.932c-8.67,0-17.342-1.906-23.942-5.716-7.446-4.3-11.033-10.272-9.881-16.418l.02-.194c.047-.373,5.089-37.336,33.786-37.336h.018c28.718.015,33.759,36.963,33.807,37.336l.034.275c1.1,6.118-2.482,12.056-9.9,16.336C296.164,90.025,287.494,91.932,278.823,91.932Zm-32.34-22.921h.044l-.148.818c-1.172,5.621,2.177,11.165,9.18,15.21,12.83,7.407,33.7,7.407,46.531,0,7-4.046,10.353-9.589,9.182-15.21l-.169-.818h.06c-.88-5.225-7.075-35.373-32.339-35.386H278.8C253.556,33.625,247.364,63.785,246.483,69.011Z" transform="translate(-244.788 -32.268)" fill="#18a7c3"/>
              </g>
              <g id="Group_330" data-name="Group 330" transform="translate(51.673 2.706)">
                <ellipse id="Ellipse_1" data-name="Ellipse 1" cx="6.126" cy="3.537" rx="6.126" ry="3.537" transform="translate(0.68 0.686)" fill="#fff"/>
                <path id="Path_470" data-name="Path 470" d="M268.308,42.374a9.5,9.5,0,0,1-4.67-1.134,3.684,3.684,0,0,1-2.134-3.088,3.686,3.686,0,0,1,2.134-3.089,10.185,10.185,0,0,1,9.341,0h0a3.684,3.684,0,0,1,2.133,3.089,3.682,3.682,0,0,1-2.133,3.088A9.523,9.523,0,0,1,268.308,42.374Zm0-7.072a8.2,8.2,0,0,0-3.994.937,2.415,2.415,0,0,0-1.453,1.913,2.419,2.419,0,0,0,1.453,1.913,8.984,8.984,0,0,0,7.986,0,2.42,2.42,0,0,0,1.453-1.913,2.415,2.415,0,0,0-1.453-1.913h0A8.193,8.193,0,0,0,268.31,35.3Z" transform="translate(-261.504 -33.929)" fill="#2a9db2"/>
              </g>
              <g id="Group_331" data-name="Group 331" transform="translate(90.193 54.405)">
                <path id="Path_471" data-name="Path 471" d="M297.557,98.271v.01s17.633-3.842,16.428-17.656S294.728,66.1,294.728,66.1v.011c-2.8-.332-5.542,1.45-7.332,5.3-3.1,6.651-2.2,16.913,2.016,22.922C291.844,97.81,294.852,99.085,297.557,98.271Z" transform="translate(-284.888 -65.394)" fill="#58ddf5"/>
                <path id="Path_472" data-name="Path 472" d="M296.187,99.455c-2.53,0-5.035-1.558-7.075-4.468-4.331-6.177-5.26-16.762-2.074-23.6,1.83-3.93,4.694-6.009,7.867-5.7l.1,0c.187.008,18.661.891,19.906,15.137s-16.778,18.339-16.959,18.38l-.124.026a5.95,5.95,0,0,1-.637.14l-.062.013v0A6.4,6.4,0,0,1,296.187,99.455Zm-1.864-32.436c-2.394,0-4.577,1.77-6.056,4.944-3,6.444-2.123,16.424,1.957,22.246,2.17,3.1,4.862,4.435,7.393,3.676l.875-.264v.044c3.4-.965,16.064-5.346,15.072-16.718-1.005-11.533-14.622-13.532-17.9-13.845v.031l-.758-.08A4.975,4.975,0,0,0,294.323,67.019Z" transform="translate(-285.145 -65.658)" fill="#18a7c3"/>
              </g>
              <g id="Group_332" data-name="Group 332" transform="translate(26.307 12.497)">
                <path id="Path_473" data-name="Path 473" d="M261.093,52.972c-5.721-3.306-7.94-7.992-6.609-12.351a.2.2,0,0,0-.35-.182,53.353,53.353,0,0,0-7.518,15.746c-1.224,5.367,1.856,11.1,9,15.222,5.959,3.44,13.724,5.185,21.532,5.258a8.362,8.362,0,0,0,7.378-4.3l.072-.132a11.562,11.562,0,0,0-.386-11.914h0a7.226,7.226,0,0,0-6.071-3.353C271.978,57.013,265.794,55.685,261.093,52.972Z" transform="translate(-245.674 -39.676)" fill="#58ddf5"/>
                <path id="Path_474" data-name="Path 474" d="M277.487,77.6H277.4c-8.258-.077-16.023-1.976-21.863-5.348-7.173-4.142-10.658-10.107-9.322-15.962A54.552,54.552,0,0,1,253.846,40.3a.871.871,0,0,1,1.095-.272.881.881,0,0,1,.455,1.051c-1.289,4.222,1.067,8.543,6.3,11.565h0a33.263,33.263,0,0,0,16.377,3.9c.127,0,.253,0,.383,0a7.854,7.854,0,0,1,6.588,3.663,12.233,12.233,0,0,1,.409,12.612l-.073.13A9.025,9.025,0,0,1,277.487,77.6ZM253.7,42.925a55.044,55.044,0,0,0-6.169,13.718c-1.186,5.2,2.06,10.611,8.688,14.438,5.641,3.257,13.169,5.092,21.2,5.167a7.606,7.606,0,0,0,6.778-3.953l.073-.134a10.868,10.868,0,0,0-.365-11.212,6.58,6.58,0,0,0-5.449-3.044c-.14,0-.254,0-.38,0a34.644,34.644,0,0,1-17.055-4.085h0C256.093,50.977,253.483,47.023,253.7,42.925Z" transform="translate(-245.937 -39.938)" fill="#18a7c3"/>
              </g>
              <g id="Group_333" data-name="Group 333" transform="translate(26.307 12.497)">
                <path id="Path_475" data-name="Path 475" d="M277.573,73.523c-7.806-.073-12.5-.735-18.9-4.153-7.277-3.881-10.985-8.488-9-15.22a58.209,58.209,0,0,1,4.451-10.821,8.382,8.382,0,0,1,.363-2.708.2.2,0,0,0-.35-.182,53.393,53.393,0,0,0-7.518,15.746c-1.224,5.367,1.856,11.1,9,15.222,5.959,3.44,13.724,5.258,21.532,5.258,3.081,0,5.382-2.214,6.958-3.858a.143.143,0,0,0-.16-.228A20.279,20.279,0,0,1,277.573,73.523Z" transform="translate(-245.674 -39.676)" fill="#58ddf5"/>
                <path id="Path_476" data-name="Path 476" d="M277.409,77.6c-8.127,0-15.9-1.9-21.87-5.348-7.173-4.142-10.658-10.109-9.322-15.962A54.615,54.615,0,0,1,253.846,40.3a.871.871,0,0,1,1.095-.272.881.881,0,0,1,.455,1.051,7.772,7.772,0,0,0-.334,2.491l.006.181-.088.161a57.746,57.746,0,0,0-4.4,10.692c-1.726,5.858.947,10.308,8.668,14.427,6.325,3.376,11.036,4,18.591,4.073h0a19.215,19.215,0,0,0,6.143-.906.82.82,0,0,1,.87,1.338C282.832,75.649,280.528,77.6,277.409,77.6Zm-23.7-34.7a55.049,55.049,0,0,0-6.184,13.739c-1.183,5.2,2.06,10.611,8.688,14.438,5.77,3.332,13.3,5.167,21.192,5.167a7.605,7.605,0,0,0,4.983-2.214,22.55,22.55,0,0,1-4.562.43c-7.78-.073-12.641-.723-19.215-4.233-8.286-4.419-11.249-9.508-9.332-16.012A59.155,59.155,0,0,1,253.7,43.427Q253.7,43.163,253.713,42.9Z" transform="translate(-245.937 -39.938)" fill="#18a7c3"/>
              </g>
              <g id="Group_334" data-name="Group 334" transform="translate(32.223 24.663)">
                <path id="Path_477" data-name="Path 477" d="M254.131,52.264c-.186,2.363-1.26,4.205-2.4,4.116s-1.908-2.079-1.722-4.44,1.26-4.205,2.4-4.116S254.32,49.9,254.131,52.264Z" transform="translate(-249.305 -47.142)" fill="#18a7c3"/>
                <path id="Path_478" data-name="Path 478" d="M252.08,57.324c-.046,0-.091,0-.139,0-1.561-.124-2.566-2.346-2.343-5.172s1.579-4.854,3.128-4.738,2.568,2.348,2.343,5.172a7.827,7.827,0,0,1-.93,3.265A2.515,2.515,0,0,1,252.08,57.324Zm.513-8.562c-.554,0-1.473,1.362-1.642,3.493-.171,2.165.547,3.668,1.1,3.712.251.011.616-.288.916-.8a6.525,6.525,0,0,0,.751-2.689c.174-2.165-.546-3.668-1.1-3.712Z" transform="translate(-249.567 -47.404)" fill="#fff"/>
              </g>
              <g id="Group_335" data-name="Group 335" transform="translate(47.646 32.35)">
                <path id="Path_479" data-name="Path 479" d="M269.161,57.47a4.856,4.856,0,1,1-4.821-4.932A4.876,4.876,0,0,1,269.161,57.47Z" transform="translate(-258.771 -51.86)" fill="#18a7c3"/>
                <path id="Path_480" data-name="Path 480" d="M264.57,63.272h-.041a5.584,5.584,0,0,1-3.849-9.543,5.46,5.46,0,0,1,3.925-1.607,5.584,5.584,0,0,1,3.85,9.543A5.478,5.478,0,0,1,264.57,63.272Zm0-9.793a4.13,4.13,0,0,0-2.931,1.212,4.228,4.228,0,0,0,2.9,7.223A4.007,4.007,0,0,0,267.5,60.7a4.21,4.21,0,0,0,1.245-2.975l.678.007-.678-.007a4.2,4.2,0,0,0-4.148-4.246Z" transform="translate(-259.033 -52.122)" fill="#fff"/>
              </g>
              <g id="Group_336" data-name="Group 336" transform="translate(9.01 74.789)">
                <path id="Path_481" data-name="Path 481" d="M292.416,100.35l-3.322-10.255a2.952,2.952,0,0,0-2.879-2.025,64.249,64.249,0,0,1-34.383-9.032,2.966,2.966,0,0,0-3.813.574l-4.056,4.7a26.1,26.1,0,0,0-5.532,10.43c-5.654,21.668-.662,30.773-.58,30.919a42.494,42.494,0,0,0,8.067,5.931c12.527,7.233,29.634,10.2,45.929,8.918,3.92-10.894,3.278-24.084,2.5-31.231A44.647,44.647,0,0,0,292.416,100.35Z" transform="translate(-235.058 -77.904)" fill="#58ddf5"/>
                <path id="Path_482" data-name="Path 482" d="M284.566,141.75c-14.479,0-28.28-3.275-38.726-9.3a43.371,43.371,0,0,1-8.194-6.029l-.127-.163c-.21-.385-5.155-9.669.515-31.42a26.91,26.91,0,0,1,5.678-10.7l4.056-4.7a3.626,3.626,0,0,1,4.684-.707,63.648,63.648,0,0,0,34.015,8.929A3.676,3.676,0,0,1,290,90.15l3.322,10.254a45.706,45.706,0,0,1,1.96,9.064c.764,7.023,1.452,20.454-2.539,31.534l-.147.412-.44.034C289.619,141.651,287.082,141.75,284.566,141.75Zm-45.9-16.239a41.963,41.963,0,0,0,7.855,5.758c11.924,6.883,28.335,10.1,45.1,8.861,3.733-10.744,3.062-23.7,2.32-30.514a44.241,44.241,0,0,0-1.9-8.792l-3.322-10.257a2.271,2.271,0,0,0-2.185-1.556h-.039a65.11,65.11,0,0,1-34.75-9.133,2.281,2.281,0,0,0-2.943.44l-4.054,4.7a25.554,25.554,0,0,0-5.392,10.158C234.094,115.328,238.192,124.55,238.664,125.512Z" transform="translate(-235.321 -78.168)" fill="#18a7c3"/>
              </g>
              <g id="Group_337" data-name="Group 337" transform="translate(13.274 115.677)">
                <path id="Path_483" data-name="Path 483" d="M241.38,105.844c0,1.2-.678,2.167-1.512,2.167s-1.514-.969-1.514-2.167.678-2.165,1.514-2.165S241.38,104.648,241.38,105.844Z" transform="translate(-237.676 -103)" fill="#fff"/>
                <path id="Path_484" data-name="Path 484" d="M240.13,108.953c-1.23,0-2.192-1.25-2.192-2.847s.961-2.845,2.192-2.845,2.19,1.25,2.19,2.845S241.358,108.953,240.13,108.953Zm0-4.334c-.394,0-.834.637-.834,1.488s.44,1.489.834,1.489.834-.635.834-1.489S240.524,104.619,240.13,104.619Z" transform="translate(-237.938 -103.262)" fill="#2a9db2"/>
              </g>
              <g id="Group_338" data-name="Group 338" transform="translate(21.504 79.507)">
                <path id="Path_485" data-name="Path 485" d="M246.379,84.215c-.559,1.057-1.6,1.6-2.328,1.216s-.86-1.553-.3-2.612,1.6-1.6,2.33-1.216S246.943,83.157,246.379,84.215Z" transform="translate(-242.727 -80.802)" fill="#fff"/>
                <path id="Path_486" data-name="Path 486" d="M244.824,86.494a1.745,1.745,0,0,1-.831-.2,1.981,1.981,0,0,1-.986-1.576,3.589,3.589,0,0,1,1.8-3.386,1.981,1.981,0,0,1,1.859-.065c1.072.57,1.326,2.12.578,3.529h0a3.393,3.393,0,0,1-1.39,1.432A2.223,2.223,0,0,1,244.824,86.494Zm1.01-4.073a.932.932,0,0,0-.4.114,2.234,2.234,0,0,0-1.075,2.027.526.526,0,0,0,.868.463,2.063,2.063,0,0,0,.818-.867c.4-.751.323-1.514-.015-1.695A.426.426,0,0,0,245.834,82.42Z" transform="translate(-242.989 -81.063)" fill="#2a9db2"/>
              </g>
              <g id="Group_339" data-name="Group 339" transform="translate(57.532 128.499)">
                <path id="Path_487" data-name="Path 487" d="M269.852,113.714a2.168,2.168,0,1,1-2.167-2.167A2.167,2.167,0,0,1,269.852,113.714Z" transform="translate(-264.838 -110.869)" fill="#fff"/>
                <path id="Path_488" data-name="Path 488" d="M267.946,116.822a2.846,2.846,0,1,1,2.847-2.847A2.849,2.849,0,0,1,267.946,116.822Zm0-4.334a1.488,1.488,0,1,0,1.488,1.488A1.489,1.489,0,0,0,267.946,112.488Z" transform="translate(-265.1 -111.131)" fill="#2a9db2"/>
              </g>
              <g id="Group_340" data-name="Group 340" transform="translate(54.856 89.255)">
                <path id="Path_489" data-name="Path 489" d="M268.209,89.631a2.167,2.167,0,1,1-2.167-2.169A2.167,2.167,0,0,1,268.209,89.631Z" transform="translate(-263.195 -86.784)" fill="#fff"/>
                <path id="Path_490" data-name="Path 490" d="M266.3,92.737a2.846,2.846,0,1,1,2.845-2.847A2.85,2.85,0,0,1,266.3,92.737Zm0-4.334a1.488,1.488,0,1,0,1.489,1.488A1.491,1.491,0,0,0,266.3,88.4Z" transform="translate(-263.458 -87.046)" fill="#2a9db2"/>
              </g>
            </g>
            <g id="Group_342" data-name="Group 342" transform="translate(96.025 73.205)">
              <path id="Path_491" data-name="Path 491" d="M297.216,92.853c-8.994-4.44-8.971-17.368-8.967-17.915l1.357.011c0,.127-.015,12.626,8.212,16.688Z" transform="translate(-288.249 -74.938)" fill="#18a7c3"/>
            </g>
            <g id="Group_343" data-name="Group 343" transform="translate(96.027 62.279)">
              <path id="Path_492" data-name="Path 492" d="M289.606,76.275l-1.356-.1a17.3,17.3,0,0,1,2.734-7.942l1.09.81C289.959,71.887,289.606,76.231,289.606,76.275Z" transform="translate(-288.25 -68.232)" fill="#18a7c3"/>
            </g>
            <g id="Group_344" data-name="Group 344" transform="translate(4.026 52.598)">
              <path id="Path_493" data-name="Path 493" d="M231.877,73.821c-.051-.277-1.152-6.837,5.977-11.53l.745,1.134c-6.386,4.2-5.4,10.094-5.387,10.153Z" transform="translate(-231.787 -62.291)" fill="#18a7c3"/>
            </g>
            <g id="Group_345" data-name="Group 345" transform="translate(49.011 11.903)">
              <path id="Path_494" data-name="Path 494" d="M269.978,43.518c-8.458,0-10.495-5.5-10.583-5.75l1.279-.453c.081.228,2.118,5.6,11.174,4.755l.124,1.352C271.272,43.487,270.605,43.518,269.978,43.518Z" transform="translate(-259.395 -37.315)" fill="#18a7c3"/>
            </g>
            <g id="Group_346" data-name="Group 346" transform="translate(72.528 127.039)">
              <path id="Path_495" data-name="Path 495" d="M274,117.488l-.168-1.348c.135-.018,13.638-1.758,24.2-8.163l.7,1.16C287.917,115.7,274.134,117.47,274,117.488Z" transform="translate(-273.828 -107.977)" fill="#18a7c3"/>
            </g>
            <g id="Group_347" data-name="Group 347" transform="translate(107.152 110.949)">
              <path id="Path_496" data-name="Path 496" d="M295.9,104.88l-.818-1.082a10.46,10.46,0,0,0,3.145-5.7l1.32.311A11.546,11.546,0,0,1,295.9,104.88Z" transform="translate(-295.078 -98.102)" fill="#18a7c3"/>
            </g>
            <g id="Group_348" data-name="Group 348" transform="translate(39.469 155.452)">
              <path id="Path_497" data-name="Path 497" d="M271.816,135.134c-13.257-.313-18.078-8.7-18.277-9.058l1.186-.662c.044.081,4.678,8.067,17.122,8.362Z" transform="translate(-253.539 -125.415)" fill="#18a7c3"/>
            </g>
            <g id="Group_349" data-name="Group 349" transform="translate(47.469 186.401)">
              <path id="Path_498" data-name="Path 498" d="M269.472,150.029a14.488,14.488,0,0,1-11.023-4.774l1.061-.846a13.35,13.35,0,0,0,11.759,4.16l.152,1.349A17.632,17.632,0,0,1,269.472,150.029Z" transform="translate(-258.449 -144.409)" fill="#18a7c3"/>
            </g>
            <g id="Group_350" data-name="Group 350" transform="translate(35.883 0.003)">
              <path id="Path_499" data-name="Path 499" d="M252.3,40.388l-.961-.955a36.865,36.865,0,0,1,20.995-9.421l.143,1.349A36.119,36.119,0,0,0,252.3,40.388Z" transform="translate(-251.338 -30.012)" fill="#18a7c3"/>
            </g>
            <g id="Group_351" data-name="Group 351" transform="translate(75.488 152.847)">
              <path id="Path_500" data-name="Path 500" d="M276.337,139.509l-.693-1.167c.088-.055,9.11-5.511,13.043-14.526l1.245.544C285.822,133.783,276.725,139.279,276.337,139.509Z" transform="translate(-275.645 -123.816)" fill="#18a7c3"/>
            </g>
            <g id="Group_354" data-name="Group 354" transform="translate(0 85.452)">
              <path id="Path_503" data-name="Path 503" d="M230.66,105.722l-1.344-.209c.023-.145,2.3-14.715,5.118-23.059l1.287.433C232.945,91.121,230.681,105.577,230.66,105.722Z" transform="translate(-229.316 -82.454)" fill="#18a7c3"/>
            </g>
            <g id="Group_355" data-name="Group 355" transform="translate(60.628)" style="isolation: isolate">
              <path id="Path_504" data-name="Path 504" d="M275.322,32.485c-2.641-.966-8.734-1.118-8.8-1.118l.033-1.357c.257.007,6.377.156,9.232,1.2Z" transform="translate(-266.525 -30.01)" fill="#18a7c3"/>
            </g>
            <g id="Group_356" data-name="Group 356" transform="translate(68.534 167.922)">
              <path id="Path_505" data-name="Path 505" d="M271.729,136.374l-.352-1.31a36.4,36.4,0,0,0,5.315-2l.578,1.229A36.666,36.666,0,0,1,271.729,136.374Z" transform="translate(-271.377 -133.068)" fill="#18a7c3"/>
            </g>
          </g>
        </g>
        <g id="Group_28" data-name="Group 28" opacity="0.5">
          <g id="Group_27" data-name="Group 27">
            <path id="Path_40" data-name="Path 40" d="M198.1,226.4c-.923,7.419-4.769,11.833-8.814,6.306-5.185-7.085-5.689-14.013-5.99-18.152V174.138a32.094,32.094,0,0,0,5.99,18.153c8.548,14.139,9.562,28.091,8.814,34.106Z" fill="#58ddf5"/>
            <path id="Path_41" data-name="Path 41" d="M318.08,233.8q-4.785.129-9.657.09c-25.409-.208-48.95-3.9-68.6-10.079-19.625-5.243-20.811,15.292-13.962,27.976,4.878,9.031,11.477,11.5,13.962,12.436,19.647,6.184,43.188,9.872,68.6,10.08q4.869.041,9.657-.09c23.059-1.7,29.1-23.847,18.321-34.184-3.008-2.885-8.628-6.307-18.321-6.229Z" fill="#58ddf5"/>
            <path id="Path_42" data-name="Path 42" d="M437.973,201.583c-.112,17.476-1.138,20.657-2.436,24.684-5.4,12.744-19.41,24-39.018,32.411-17.167,5.065-21.908-12.773-14.926-26a34.316,34.316,0,0,1,14.926-14.413c19.608-8.41,33.616-19.668,39.018-32.411a21.126,21.126,0,0,1,1.483-2.737l.439-.057c.333.934.47,1.321.514,6.091v12.431Z" fill="#58ddf5"/>
          </g>
        </g>
      </g>
      <path id="Path_8756" data-name="Path 8756" d="M453.269,188.272h0a2.064,2.064,0,0,1-2.065-2.065V115.59a2.065,2.065,0,0,1,2.065-2.065h0a2.065,2.065,0,0,1,2.064,2.065v70.617A2.064,2.064,0,0,1,453.269,188.272Z" transform="translate(-237.707 -8.627)" fill="url(#linear-gradient)"/>
      <path id="Path_8760" data-name="Path 8760" d="M453.269,188.272h0a2.064,2.064,0,0,1-2.065-2.065V115.59a2.065,2.065,0,0,1,2.065-2.065h0a2.065,2.065,0,0,1,2.064,2.065v70.617A2.064,2.064,0,0,1,453.269,188.272Z" transform="translate(-284.707 -21.942)" fill="url(#linear-gradient)"/>
      <path id="Path_8758" data-name="Path 8758" d="M453.269,188.272h0a2.064,2.064,0,0,1-2.065-2.065V115.59a2.065,2.065,0,0,1,2.065-2.065h0a2.065,2.065,0,0,1,2.064,2.065v70.617A2.064,2.064,0,0,1,453.269,188.272Z" transform="translate(4.128 0)" fill="url(#linear-gradient-3)"/>
      <path id="Path_8759" data-name="Path 8759" d="M453.269,188.272h0a2.064,2.064,0,0,1-2.065-2.065V115.59a2.065,2.065,0,0,1,2.065-2.065h0a2.065,2.065,0,0,1,2.064,2.065v70.617A2.064,2.064,0,0,1,453.269,188.272Z" transform="translate(-75.872 -37.374)" fill="url(#linear-gradient-3)"/>
      <path id="Path_47" data-name="Path 47" d="M242.25,88.5a3.084,3.084,0,1,1-3.083-3.083A3.083,3.083,0,0,1,242.25,88.5Z" fill="#18a7c3"/>
      <path id="Path_48" data-name="Path 48" d="M361.859,54.453a4.257,4.257,0,1,1-6.021,0A4.257,4.257,0,0,1,361.859,54.453Z" fill="#18a7c3"/>
      <path id="Path_49" data-name="Path 49" d="M358.849,156.352a1.96,1.96,0,1,1-1.96-1.96A1.961,1.961,0,0,1,358.849,156.352Z" transform="translate(0 -30)" fill="#18a7c3" opacity="0.563"/>
      <path id="Path_50" data-name="Path 50" d="M215.562,255.137a1.96,1.96,0,1,1-1.96-1.96A1.961,1.961,0,0,1,215.562,255.137Z" fill="#31a8be" opacity="0.5"/>
      <circle id="Ellipse_10" data-name="Ellipse 10" cx="1.023" cy="1.023" r="1.023" transform="translate(251.977 176.256)" fill="#fff" opacity="0.8"/>
    </g>
  </g>
</svg>
