<svg xmlns="http://www.w3.org/2000/svg" xmlns:xlink="http://www.w3.org/1999/xlink" width="1464" height="1489.136" viewBox="0 0 1464 1489.136">
  <defs>
    <linearGradient id="linear-gradient" y1="0.5" x2="1" y2="0.5" gradientUnits="objectBoundingBox">
      <stop offset="0" stop-color="#dae3fe"/>
      <stop offset="1" stop-color="#e9effd"/>
    </linearGradient>
    <linearGradient id="linear-gradient-2" x1="0.712" y1="3.486" x2="0.425" y2="-3.84" gradientUnits="objectBoundingBox">
      <stop offset="0" stop-color="#09005d"/>
      <stop offset="1" stop-color="#1a0f91"/>
    </linearGradient>
    <linearGradient id="linear-gradient-3" x1="0.998" y1="3.618" x2="0.288" y2="-4.96" xlink:href="#linear-gradient-2"/>
    <linearGradient id="linear-gradient-4" x1="-20.087" y1="0.5" x2="-19.087" y2="0.5" gradientUnits="objectBoundingBox">
      <stop offset="0" stop-color="#febbba"/>
      <stop offset="1" stop-color="#ff928e"/>
    </linearGradient>
    <linearGradient id="linear-gradient-5" x1="-74.182" y1="0.5" x2="-73.182" y2="0.5" xlink:href="#linear-gradient-2"/>
    <linearGradient id="linear-gradient-6" x1="-51.206" y1="0.5" x2="-50.206" y2="0.5" xlink:href="#linear-gradient-2"/>
    <linearGradient id="linear-gradient-7" x1="-51.793" y1="-20.143" x2="-49.836" y2="-20.143" xlink:href="#linear-gradient-2"/>
    <linearGradient id="linear-gradient-8" x1="-49.51" y1="-12.775" x2="-48.364" y2="-12.775" xlink:href="#linear-gradient-2"/>
    <linearGradient id="linear-gradient-9" x1="-1.492" y1="-6.863" x2="-3.913" y2="-3.08" xlink:href="#linear-gradient-4"/>
    <linearGradient id="linear-gradient-10" x1="-4.855" y1="78.423" x2="-2.064" y2="75.912" xlink:href="#linear-gradient-4"/>
  </defs>
  <g id="Illustration" transform="translate(-462.328 -398.359)">
    <g id="Group_33" data-name="Group 33" transform="translate(462.328 398.359)">
      <path id="Path_1" data-name="Path 1" d="M1750.185,1706.038c-38.107,39.279-72.2,62.369-98.309,79.8-254.6,170-545.638,121-635.62,104.254-145.174-27.02-267.721-46.081-373.011-141.206C404,1532.732,415.633,1081.821,598.449,802.5c21.677-33.119,204.216-303.7,495.883-341.826,7.134-.932,12.457-1.464,17.119-1.957,45.12-4.777,324.721-29.99,552.708,161.017a680.133,680.133,0,0,1,133.858,151.877C1976.095,1046.639,1976.659,1472.6,1750.185,1706.038Z" transform="translate(-462.328 -425.229)" fill="#d2fdfd"/>
      <g id="Group_4" data-name="Group 4" transform="translate(1.507 106.155)">
        <path id="Path_2" data-name="Path 2" d="M1004.706,602.863l-528.028-2.539c-6.364-.058-11.532,6.981-11.483,15.641l1.169,208.913c.049,8.709,5.353,15.659,11.75,15.4l525.018-11.244c6.107-.25,10.985-7,11.064-15.317l1.84-195.13C1016.117,609.975,1011.033,602.921,1004.706,602.863Z" transform="translate(-465.194 -600.324)" fill="#fcb957"/>
        <path id="Path_3" data-name="Path 3" d="M486.51,838.977a1.933,1.933,0,0,1-1.743-2.1L483.6,627.964a2.354,2.354,0,0,1,.437-1.432,1.573,1.573,0,0,1,1.3-.7l528.031,2.54a1.569,1.569,0,0,1,1.293.711,2.356,2.356,0,0,1,.432,1.429l-1.84,195.129a1.938,1.938,0,0,1-1.676,2.092h-.013Zm-1.174-211.793c-.033,0-.1,0-.207.147a1.018,1.018,0,0,0-.177.625l1.169,208.91c0,.463.248.757.375.757l525.042-11.245c.139-.01.36-.312.363-.752l1.84-195.128a1.02,1.02,0,0,0-.176-.625c-.107-.148-.175-.149-.2-.149Z" transform="translate(-473.925 -612.424)" fill="url(#linear-gradient)"/>
        <g id="Group_3" data-name="Group 3" transform="translate(32.894 30.941)" opacity="0.6">
          <rect id="Rectangle_2" data-name="Rectangle 2" width="25.697" height="98.197" transform="translate(0 79.55)" fill="#fff"/>
          <rect id="Rectangle_3" data-name="Rectangle 3" width="25.697" height="64.448" transform="translate(42.936 113.299)" fill="#fff"/>
          <rect id="Rectangle_4" data-name="Rectangle 4" width="25.697" height="147.856" transform="translate(85.873 29.892)" fill="#fff"/>
          <rect id="Rectangle_5" data-name="Rectangle 5" width="25.696" height="35.521" transform="translate(128.809 142.227)" fill="#fff"/>
          <rect id="Rectangle_6" data-name="Rectangle 6" width="25.697" height="128.088" transform="translate(171.746 49.659)" fill="#fff"/>
          <rect id="Rectangle_7" data-name="Rectangle 7" width="25.697" height="105.911" transform="translate(214.682 71.837)" fill="#fff"/>
          <rect id="Rectangle_8" data-name="Rectangle 8" width="25.697" height="81.805" transform="translate(257.619 95.943)" fill="#fff"/>
          <rect id="Rectangle_9" data-name="Rectangle 9" width="25.697" height="177.747" transform="translate(300.555)" fill="#fff"/>
          <rect id="Rectangle_10" data-name="Rectangle 10" width="25.697" height="158.944" transform="translate(343.492 18.803)" fill="#fff"/>
          <rect id="Rectangle_11" data-name="Rectangle 11" width="25.696" height="130.499" transform="translate(386.428 47.248)" fill="#fff"/>
          <rect id="Rectangle_12" data-name="Rectangle 12" width="25.697" height="32.224" transform="translate(429.365 145.523)" fill="#fff"/>
          <rect id="Rectangle_13" data-name="Rectangle 13" width="25.697" height="94.822" transform="translate(472.301 82.925)" fill="#fff"/>
        </g>
      </g>
      <g id="Group_18" data-name="Group 18" transform="translate(113.371)">
        <g id="Group_13" data-name="Group 13" transform="translate(284.41)">
          <g id="Group_6" data-name="Group 6" transform="translate(204.075 44.824)">
            <circle id="Ellipse_1" data-name="Ellipse 1" cx="90.376" cy="90.376" r="90.376" transform="translate(0 127.81) rotate(-45)" fill="#bf770c"/>
            <circle id="Ellipse_2" data-name="Ellipse 2" cx="87.371" cy="87.371" r="87.371" transform="translate(4.25 127.811) rotate(-45)" fill="#f89f1b"/>
            <path id="Path_4" data-name="Path 4" d="M1710.176,618.075a3.67,3.67,0,0,1-3.272-5.324,83.966,83.966,0,0,1,75.32-46.374,85.119,85.119,0,0,1,15.208,1.367,3.67,3.67,0,1,1-1.316,7.222,77.562,77.562,0,0,0-13.893-1.249,76.664,76.664,0,0,0-68.769,42.342A3.667,3.667,0,0,1,1710.176,618.075Z" transform="translate(-1654.413 -522.889)" fill="#fff" opacity="0.7"/>
            <circle id="Ellipse_3" data-name="Ellipse 3" cx="73.948" cy="73.948" r="73.948" transform="translate(25.135 129.714) rotate(-45)" fill="#fff" opacity="0.78"/>
            <g id="Group_5" data-name="Group 5" transform="translate(97.144 77.378)">
              <path id="Path_5" data-name="Path 5" d="M1817.529,738.165V730.12a65.611,65.611,0,0,1-22.574-4.894,4.653,4.653,0,0,1-2.572-5.5l2.044-7.494a4.691,4.691,0,0,1,6.368-3.07,54.465,54.465,0,0,0,20.843,4.388c8.078,0,14.1-2.738,14.1-8.352,0-5.065-4.655-8.077-15.882-11.089-16.019-4.381-27.52-11.364-27.52-25.467,0-12.734,9.311-22.454,25.467-25.056v-8.046a4.687,4.687,0,0,1,4.687-4.688h4.727a4.687,4.687,0,0,1,4.688,4.688v7.224a59.858,59.858,0,0,1,17.893,3.213,4.665,4.665,0,0,1,2.915,5.631l-1.88,6.931a4.674,4.674,0,0,1-6.171,3.157,48.817,48.817,0,0,0-17.549-3.186c-9.584,0-12.322,3.971-12.322,7.53,0,4.381,5.75,7.393,18.21,11.228,17.8,5.34,25.192,12.733,25.192,26.014,0,12.186-9.036,23.139-26.562,25.877v9a4.688,4.688,0,0,1-4.688,4.688h-4.727A4.688,4.688,0,0,1,1817.529,738.165Z" transform="translate(-1792.216 -630.855)" fill="#f89f1b"/>
            </g>
          </g>
          <g id="Group_8" data-name="Group 8">
            <circle id="Ellipse_4" data-name="Ellipse 4" cx="78.276" cy="78.276" r="78.276" transform="translate(0 110.699) rotate(-45)" fill="#bf770c"/>
            <circle id="Ellipse_5" data-name="Ellipse 5" cx="75.673" cy="75.673" r="75.673" transform="translate(3.681 110.699) rotate(-45)" fill="#f89f1b"/>
            <path id="Path_6" data-name="Path 6" d="M1308.833,514.722a2.421,2.421,0,0,1-2.16-3.513,71.974,71.974,0,0,1,64.561-39.75,72.956,72.956,0,0,1,13.036,1.173,2.422,2.422,0,1,1-.868,4.766,68.012,68.012,0,0,0-12.168-1.095A67.154,67.154,0,0,0,1311,513.393,2.42,2.42,0,0,1,1308.833,514.722Z" transform="translate(-1260.536 -433.037)" fill="#fff" opacity="0.7"/>
            <circle id="Ellipse_6" data-name="Ellipse 6" cx="64.048" cy="64.048" r="64.048" transform="translate(48.3 48.3)" fill="#fff" opacity="0.78"/>
            <g id="Group_7" data-name="Group 7" transform="translate(84.138 67.019)">
              <path id="Path_7" data-name="Path 7" d="M1401.13,618.809v-6.968a56.829,56.829,0,0,1-19.552-4.239,4.031,4.031,0,0,1-2.228-4.762l1.77-6.49a4.064,4.064,0,0,1,5.515-2.659,47.17,47.17,0,0,0,18.052,3.8c7,0,12.215-2.372,12.215-7.234,0-4.387-4.032-7-13.756-9.6-13.874-3.794-23.836-9.843-23.836-22.057,0-11.029,8.064-19.448,22.057-21.7v-6.969a4.06,4.06,0,0,1,4.06-4.06h4.094a4.06,4.06,0,0,1,4.06,4.06v6.256a51.811,51.811,0,0,1,15.5,2.783,4.04,4.04,0,0,1,2.525,4.877l-1.628,6a4.049,4.049,0,0,1-5.345,2.734,42.275,42.275,0,0,0-15.2-2.759c-8.3,0-10.672,3.438-10.672,6.522,0,3.795,4.98,6.4,15.771,9.724,15.416,4.625,21.82,11.028,21.82,22.531,0,10.554-7.826,20.041-23.005,22.413v7.8a4.06,4.06,0,0,1-4.06,4.06h-4.094A4.061,4.061,0,0,1,1401.13,618.809Z" transform="translate(-1379.206 -525.866)" fill="#f89f1b"/>
            </g>
          </g>
          <g id="Group_10" data-name="Group 10" transform="translate(226.064 294.297)">
            <circle id="Ellipse_7" data-name="Ellipse 7" cx="81.966" cy="81.966" r="81.966" transform="translate(30.097 30.097)" fill="#bf770c"/>
            <circle id="Ellipse_8" data-name="Ellipse 8" cx="79.241" cy="79.241" r="79.241" transform="translate(0 112.064) rotate(-45)" fill="#f89f1b"/>
            <path id="Path_8" data-name="Path 8" d="M1735.114,1072.871a3.329,3.329,0,0,1-2.968-4.829,76.153,76.153,0,0,1,68.312-42.059,77.195,77.195,0,0,1,13.794,1.24,3.329,3.329,0,0,1-1.194,6.55,70.358,70.358,0,0,0-12.6-1.133,69.531,69.531,0,0,0-62.37,38.4A3.326,3.326,0,0,1,1735.114,1072.871Z" transform="translate(-1688.394 -990.396)" fill="#fff" opacity="0.7"/>
            <circle id="Ellipse_9" data-name="Ellipse 9" cx="67.068" cy="67.068" r="67.068" transform="translate(35.606 167.487) rotate(-79.481)" fill="#fff" opacity="0.78"/>
            <g id="Group_9" data-name="Group 9" transform="translate(84.25 66.324)">
              <path id="Path_9" data-name="Path 9" d="M1832.478,1181.787v-7.3a59.492,59.492,0,0,1-20.474-4.439,4.22,4.22,0,0,1-2.333-4.986l1.854-6.8a4.254,4.254,0,0,1,5.775-2.784,49.4,49.4,0,0,0,18.9,3.98c7.326,0,12.79-2.484,12.79-7.576,0-4.594-4.222-7.325-14.4-10.058-14.528-3.974-24.959-10.307-24.959-23.1,0-11.549,8.444-20.365,23.1-22.724v-7.3a4.251,4.251,0,0,1,4.252-4.251h4.287a4.251,4.251,0,0,1,4.251,4.251v6.552a54.256,54.256,0,0,1,16.228,2.914,4.23,4.23,0,0,1,2.644,5.107l-1.705,6.286a4.239,4.239,0,0,1-5.6,2.863,44.265,44.265,0,0,0-15.916-2.89c-8.693,0-11.176,3.6-11.176,6.83,0,3.974,5.215,6.705,16.515,10.183,16.144,4.842,22.848,11.548,22.848,23.593,0,11.052-8.2,20.986-24.09,23.47v8.166a4.251,4.251,0,0,1-4.252,4.251h-4.287A4.251,4.251,0,0,1,1832.478,1181.787Z" transform="translate(-1809.52 -1084.462)" fill="#f89f1b"/>
            </g>
          </g>
          <g id="Group_12" data-name="Group 12" transform="translate(5.285 165.996)">
            <circle id="Ellipse_10" data-name="Ellipse 10" cx="103.077" cy="103.077" r="103.077" transform="translate(0 145.773) rotate(-45)" fill="#bf770c"/>
            <circle id="Ellipse_11" data-name="Ellipse 11" cx="99.649" cy="99.649" r="99.649" transform="translate(4.847 145.773) rotate(-45)" fill="#f89f1b"/>
            <path id="Path_10" data-name="Path 10" d="M1348.02,867.332a2.4,2.4,0,0,1-2.144-3.488,93.993,93.993,0,0,1,84.315-51.914,95.116,95.116,0,0,1,17.026,1.532,2.4,2.4,0,1,1-.861,4.731,90.356,90.356,0,0,0-16.165-1.455,89.211,89.211,0,0,0-80.023,49.272A2.4,2.4,0,0,1,1348.02,867.332Z" transform="translate(-1284.419 -760.549)" fill="#fff" opacity="0.7"/>
            <circle id="Ellipse_12" data-name="Ellipse 12" cx="84.341" cy="84.341" r="84.341" transform="translate(28.668 147.944) rotate(-45)" fill="#fff" opacity="0.78"/>
            <g id="Group_11" data-name="Group 11" transform="translate(110.796 88.253)">
              <path id="Path_11" data-name="Path 11" d="M1468.851,1004.473V995.3a74.831,74.831,0,0,1-25.747-5.583,5.306,5.306,0,0,1-2.933-6.27l2.331-8.547a5.35,5.35,0,0,1,7.262-3.5,62.124,62.124,0,0,0,23.772,5c9.214,0,16.084-3.123,16.084-9.526,0-5.777-5.309-9.212-18.114-12.647-18.271-5-31.388-12.962-31.388-29.046,0-14.523,10.619-25.61,29.046-28.577v-9.177a5.346,5.346,0,0,1,5.347-5.347h5.391a5.346,5.346,0,0,1,5.346,5.347v8.239a68.248,68.248,0,0,1,20.408,3.665,5.321,5.321,0,0,1,3.324,6.423l-2.144,7.9a5.332,5.332,0,0,1-7.039,3.6,55.667,55.667,0,0,0-20.015-3.634c-10.932,0-14.054,4.529-14.054,8.589,0,5,6.558,8.432,20.768,12.8,20.3,6.09,28.733,14.523,28.733,29.67,0,13.9-10.306,26.391-30.294,29.514v10.269a5.346,5.346,0,0,1-5.346,5.346H1474.2A5.346,5.346,0,0,1,1468.851,1004.473Z" transform="translate(-1439.981 -882.082)" fill="#f89f1b"/>
            </g>
          </g>
        </g>
        <g id="Group_17" data-name="Group 17" transform="translate(0 311.217)">
          <path id="Path_12" data-name="Path 12" d="M1317.874,1230.137s-150.058-209.669-71.945-193.225,86.334,59.612,174.724,12.333,108.946-90.445,125.391-26.722,17.629,57.335,85.463,45,64.594,35.166-42.3,142.056C1474.1,1209.582,1317.874,1230.137,1317.874,1230.137Z" transform="translate(-936.743 -990.467)" fill="#0992ac"/>
          <path id="Path_13" data-name="Path 13" d="M1048.19,1478.224s-487.9,342.415-343.416,772.552c0,0,86.914,144.422,473.363,144.422s431.941-115.559,473.053-189.561c32.889-106.89,70.4-367.289-320.7-727.413Z" transform="translate(-678.022 -1221.855)" fill="#0992ac"/>
          <path id="Rectangle_14" data-name="Rectangle 14" d="M21.013,0H309.947A21.013,21.013,0,0,1,330.96,21.013v0a21.013,21.013,0,0,1-21.013,21.013H21.013A21.013,21.013,0,0,1,0,21.013v0A21.013,21.013,0,0,1,21.013,0Z" transform="translate(346.272 217.544)" fill="#55e2fa"/>
          <g id="Group_16" data-name="Group 16" transform="translate(352.798 457.664)">
            <g id="Group_14" data-name="Group 14" transform="translate(3.178 5.253)">
              <path id="Path_14" data-name="Path 14" d="M1475.289,2379.908v-38.14c-39.759-1.592-79.085-10.975-107.016-23.2a22.063,22.063,0,0,1-12.193-26.063l9.689-35.525a22.237,22.237,0,0,1,30.185-14.551c27.708,11.615,61.918,20.805,98.809,20.805,38.294,0,66.852-12.984,66.852-39.6,0-24.013-22.067-38.291-75.291-52.57-75.94-20.77-130.464-53.874-130.464-120.728,0-60.366,44.14-106.448,120.728-118.778v-38.144a22.222,22.222,0,0,1,22.222-22.222h22.408a22.222,22.222,0,0,1,22.222,22.222v34.246c36.791,1.472,63.571,7.764,84.824,15.232a22.112,22.112,0,0,1,13.818,26.7l-8.91,32.855a22.16,22.16,0,0,1-29.255,14.967,231.38,231.38,0,0,0-83.193-15.1c-45.436,0-58.415,18.822-58.415,35.7,0,20.77,27.26,35.048,86.324,53.224,84.379,25.313,119.428,60.362,119.428,123.322,0,57.766-42.837,109.692-125.917,122.676v42.682a22.223,22.223,0,0,1-22.222,22.222h-22.411A22.222,22.222,0,0,1,1475.289,2379.908Z" transform="translate(-1355.287 -1871.193)" fill="#f89f1b"/>
            </g>
            <g id="Group_15" data-name="Group 15">
              <path id="Path_15" data-name="Path 15" d="M1519.121,2402.64H1496.71a27.5,27.5,0,0,1-27.474-27.472v-33.136c-36.384-2.062-74.86-10.7-103.869-23.394a27.429,27.429,0,0,1-15.157-32.259l9.691-35.526a27.375,27.375,0,0,1,14.393-17.4,27.775,27.775,0,0,1,22.891-.611c22.2,9.306,57.012,20.4,96.777,20.4,14.452,0,61.6-2.478,61.6-34.347,0-20.4-20.018-33.71-71.4-47.495-120.429-32.936-134.355-87.567-134.355-125.8,0-62.809,46.128-109.71,120.726-123.212v-33.711a27.509,27.509,0,0,1,27.475-27.478h22.409a27.509,27.509,0,0,1,27.477,27.478v29.232c29.968,1.59,56.614,6.608,81.311,15.288a27.439,27.439,0,0,1,17.148,33.029l-8.911,32.854a27.42,27.42,0,0,1-36.184,18.5,225.958,225.958,0,0,0-81.334-14.765c-33.785,0-53.162,11.1-53.162,30.443,0,16.4,23.163,29.909,82.615,48.2,87.452,26.236,123.138,63.419,123.138,128.343,0,64.071-49.258,113.6-125.918,127.131v38.23A27.5,27.5,0,0,1,1519.121,2402.64Zm-132.729-161.468a17.063,17.063,0,0,0-7.493,1.723,16.63,16.63,0,0,0-8.862,10.722l-9.691,35.526a16.864,16.864,0,0,0,9.232,19.87c29.219,12.79,68.517,21.295,105.121,22.762l5.043.2v43.191a16.986,16.986,0,0,0,16.968,16.966h22.411a16.987,16.987,0,0,0,16.968-16.966v-47.177l4.443-.7c74.929-11.707,121.475-56.73,121.475-117.487,0-60.152-32.436-93.313-115.684-118.288-57.058-17.561-90.068-32.715-90.068-58.259,0-37.994,48.732-40.949,63.668-40.949a236.387,236.387,0,0,1,85.049,15.442,16.9,16.9,0,0,0,22.326-11.425l8.911-32.854a16.894,16.894,0,0,0-10.489-20.367c-25.074-8.814-52.318-13.7-83.292-14.939l-5.043-.2v-39.292a16.99,16.99,0,0,0-16.971-16.971h-22.409a16.988,16.988,0,0,0-16.968,16.971v42.616l-4.42.713c-72.828,11.722-116.307,54.185-116.307,113.593,0,56.042,39.043,91.713,126.6,115.655,47.505,12.743,79.159,27.426,79.159,57.638,0,28.088-26.957,44.854-72.108,44.854-32.856,0-67.727-7.336-100.84-21.219A17.444,17.444,0,0,0,1386.393,2241.172Z" transform="translate(-1349.241 -1861.198)" fill="#fff"/>
            </g>
          </g>
        </g>
      </g>
      <g id="Group_22" data-name="Group 22" transform="translate(11.585 628.699)">
        <path id="Path_16" data-name="Path 16" d="M487.729,1979.236s0,96.716,42.4,88.831c25.906-4.818,41.245-109,41.245-109s-26.8-59.7-29.8-40.161C519.818,2060.966,503.611,1952.235,487.729,1979.236Z" transform="translate(-485.963 -1746.527)" fill="#f48f8f"/>
        <path id="Path_17" data-name="Path 17" d="M610.322,3129.43s3.2,18.126,4.771,36.068a12.362,12.362,0,0,1-11.825,13.394c-23.894,1-75,2.93-93.343,2.112a4.022,4.022,0,0,1-3.539-5.509h0a9.005,9.005,0,0,1,4.605-4.853l84.424-38.8Z" transform="translate(-494.677 -2322.655)" fill="url(#linear-gradient-2)"/>
        <path id="Path_18" data-name="Path 18" d="M684.6,3106.147l-2.572,21.68s-14.789,6.885-24.889-.867l6.124-24.161Z" transform="translate(-566.328 -2310.022)" fill="#f48f8f"/>
        <path id="Path_19" data-name="Path 19" d="M684.268,2333.679c1.111,5.662,5.964,282.533-23.631,406.608a4.212,4.212,0,0,0,2.471,4.9,73.318,73.318,0,0,0,24.1,4.9,7.253,7.253,0,0,0,7.2-5.206c8.46-28.787,49-173.02,54.286-310.8,5.909-153.958,0-5.242,0-5.242l-3.466-95.167Z" transform="translate(-567.933 -1945.152)" fill="#71716f"/>
        <path id="Path_20" data-name="Path 20" d="M858.589,3147.421s5.1,9.15,10.031,33.465a7.542,7.542,0,0,1-6.636,9.032c-7.89.776-20.036,1.773-29.765,1.706a7.519,7.519,0,0,1-7.445-8.388c1.078-8.875,4.436-23.437,14.807-34.786Z" transform="translate(-645.828 -2331.19)" fill="url(#linear-gradient-3)"/>
        <path id="Path_21" data-name="Path 21" d="M876.276,3093.216,870.266,3126s-5.944,4.42-17.7,1.215l2.869-35.276Z" transform="translate(-659.039 -2304.872)" fill="#f48f8f"/>
        <path id="Path_22" data-name="Path 22" d="M820.633,2336.023c24.205,146.079-5.25,361.048-15.185,403.122a6.56,6.56,0,0,1-5.3,4.982,44.05,44.05,0,0,1-18.932-.756,6.013,6.013,0,0,1-4.323-5.537c-1.333-34.016,1.066-242.841-21.487-325.369a18.756,18.756,0,0,0-7.231-10.342L704.4,2371l-3.356-50.3Z" transform="translate(-587.159 -1939.001)" fill="#71716f"/>
        <g id="Group_19" data-name="Group 19" transform="translate(36.785 123.681)">
          <path id="Path_23" data-name="Path 23" d="M594.143,1831.872c88.381-8.838,155.242,13.53,155.242,13.53,21.622,126.164,3.781,271.685,3.781,271.685-56.157,14.727-119.505-9-119.505-9-9.334-52.733-48.225-174.5-48.225-174.5-17.721-2.2-34.351,6.752-30.527-17.848S583.01,1832.985,594.143,1831.872Z" transform="translate(-554.356 -1829.805)" fill="#739af0"/>
        </g>
        <path id="Path_24" data-name="Path 24" d="M872.476,1929.716l27.823-70.238s67.755,46.036,78.9,104.4c-12.8.943-36.1,4.272-58.9,15.787C915.285,1952.109,872.476,1929.716,872.476,1929.716Z" transform="translate(-668.484 -1720.201)" fill="#739af0"/>
        <path id="Path_25" data-name="Path 25" d="M739.53,2090.039s76.071,42.992,101.739,6.282c5.329-7.622,6.6-15.2,5.29-22.42,22.8-11.514,46.1-14.844,58.9-15.787a80.565,80.565,0,0,1-8.757,55.226c-44.961,82.247-167.24-4.545-167.24-4.545Z" transform="translate(-600.64 -1814.432)" fill="#f48f8f"/>
        <g id="Group_20" data-name="Group 20" transform="translate(0 196.744)">
          <path id="Path_26" data-name="Path 26" d="M618.958,2089.141,594,2001.984a2.543,2.543,0,0,0-2.15-1.83c-4.522-.527-17.624-2.008-32.753-3.288-18.223-1.542-39.384-2.791-52.03-1.728a2.55,2.55,0,0,0-2.085,3.67c7.191,14.548,36.771,73.728,51.583,93.114a2.557,2.557,0,0,0,2.057,1.011l57.906-.539A2.55,2.55,0,0,0,618.958,2089.141Z" transform="translate(-494.022 -1981.113)" fill="#0992ac"/>
          <path id="Path_27" data-name="Path 27" d="M700.614,2111.071s5.783-23.781,3.451-32.218-6.853-19.285-21.919-16.874-32.839,8.757-32.839,8.757.9,10.99,12.349,7.444l-7.1,5.494s1.016,8.8,10.687,4.1l-6.6,7.286s4.153,7.227,11.27,2.592S680.435,2113.935,700.614,2111.071Z" transform="translate(-562.614 -2012.848)" fill="url(#linear-gradient-4)"/>
          <path id="Path_28" data-name="Path 28" d="M506.173,2030.24s-17.532-17.076-20.038-25.463-4.438-19.978,9.607-25.94,32.474-10.024,32.474-10.024,5.077,9.788-6.508,12.866l8.935.883s3.814,7.995-6.878,9.15l9.466,2.664s.32,8.33-8.171,8.182S524.791,2021.947,506.173,2030.24Z" transform="translate(-484.369 -1968.812)" fill="#f48f8f"/>
        </g>
        <path id="Path_29" data-name="Path 29" d="M726.406,1728.342l23.08,66.748a2.4,2.4,0,0,1-1.1,2.9c-6.292,3.479-28.958,13.533-56.274-3.785a11.326,11.326,0,0,1-5.215-8.088l-7.474-57.77Z" transform="translate(-576.903 -1657.991)" fill="#f48f8f"/>
        <path id="Path_9066" data-name="Path 9066" d="M109.879,125.514s55.279-8.989,50.411-23.674-5.224-14.216-5.224-14.216l-50.348,26.517" fill="#c75858" opacity="0.4"/>
        <g id="Group_21" data-name="Group 21" transform="translate(57.426)">
          <path id="Path_30" data-name="Path 30" d="M637.686,1678.534s7.458,53.506,21.393,67.208,38.564-5.843,51.6-34.608l-14.693-52.964Z" transform="translate(-614.528 -1624.702)" fill="#f48f8f"/>
          <path id="Path_31" data-name="Path 31" d="M673.954,1661.15a1.966,1.966,0,0,1-2.383-1.828c-.175-3.7-.8-11.062-3.071-16.261,0,0,1.979-5.036-13.371,1.307s-38.379,15.612-50.544,7.447c-11.861-7.961-21.13-42.871,11.384-33.255a1.965,1.965,0,0,0,2.536-1.81c.158-5.566,2.006-18.218,15.292-20.982,12.434-2.586,18.471,3.525,20.852,7.085a1.955,1.955,0,0,0,3.05.262c4.089-4.341,14.912-13.364,28.686-5.533,11.345,6.45,12.444,13.957,11.782,18.5a1.96,1.96,0,0,0,2.589,2.145c3.81-1.3,9.751-1.576,14.639,6.021,6.758,10.5-5.178,17.791-8.727,19.659a1.971,1.971,0,0,0-1.053,1.524c-.547,5.047-3.586,27-15.9,38.293a1.982,1.982,0,0,1-3.221-.9l-6.43-21.124a1.975,1.975,0,0,0-2.3-1.357Z" transform="translate(-593.626 -1594.495)" fill="#0d5d6c"/>
          <path id="Path_32" data-name="Path 32" d="M745.312,1715.873s7.353-20.613,14.537-12.942-4.3,21.763-13.63,23.719Z" transform="translate(-665.585 -1645.125)" fill="#f48f8f"/>
        </g>
      </g>
      <g id="Group_25" data-name="Group 25" transform="translate(52.072 384.573)">
        <path id="Path_33" data-name="Path 33" d="M575.856,1292.2a14.438,14.438,0,0,1-14.459-14.2V1143.748a13.863,13.863,0,0,1,14.459-13.713l307.266,7.319a14.064,14.064,0,0,1,13.677,13.981v124.134a14.35,14.35,0,0,1-14.239,14.35Z" transform="translate(-561.397 -1130.031)" fill="#fcb957"/>
        <g id="Group_23" data-name="Group 23" transform="translate(130.498 35.187)">
          <path id="Path_34" data-name="Path 34" d="M965,1217.628l-155.327-4.1v-16.553L965,1201.857Z" transform="translate(-809.677 -1196.977)" fill="#fff" opacity="0.67"/>
          <path id="Path_35" data-name="Path 35" d="M965,1279.05l-155.327-2.535v-16.553L965,1263.279Z" transform="translate(-809.677 -1226.857)" fill="#fff" opacity="0.67"/>
          <path id="Path_36" data-name="Path 36" d="M965,1340.472l-155.327-.972v-16.553L965,1324.7Z" transform="translate(-809.677 -1256.736)" fill="#fff" opacity="0.67"/>
        </g>
        <g id="Group_24" data-name="Group 24" transform="translate(25.267 8.454)">
          <path id="Path_37" data-name="Path 37" d="M648.372,1146.133h0a4.635,4.635,0,0,1,4.092,4.548v7.839a115.161,115.161,0,0,1,13.585,2.357q5.016,1.178,9.964,2.806a4.583,4.583,0,0,1,3.122,4.7l-.963,9.829a3.685,3.685,0,0,1-5.26,3.057,56.746,56.746,0,0,0-6.684-2.49,60.629,60.629,0,0,0-12.608-2.356l-1.156-.1v22.449c11.8,3.3,20.461,7.741,26.061,13.326q8.359,8.338,8.349,20.8,0,13.49-9.233,21.626-9.294,8.19-26.117,9.2v8.652a3.935,3.935,0,0,1-4.1,4l-.073,0a4.349,4.349,0,0,1-4.11-4.338V1263.5l-1.823-.082a119.8,119.8,0,0,1-15.131-1.613,98.393,98.393,0,0,1-10.455-2.4,4.507,4.507,0,0,1-3.28-4.658l1.133-12.636a4,4,0,0,1,5.586-3.3,82,82,0,0,0,9.2,3.019,80.6,80.6,0,0,0,14.7,2.456l.073-24.971q-16.986-4.2-25.373-12.45-8.4-8.285-8.4-21.186,0-13.341,9.111-20.578c6.036-4.794,14.616-7.179,25.685-7.173v-8.013A3.7,3.7,0,0,1,648.372,1146.133Zm-4.107,29.966a13.829,13.829,0,0,0-8.182,2.885,8.413,8.413,0,0,0-2.936,6.739,9.048,9.048,0,0,0,2.716,6.7q2.711,2.685,8.4,4.286Zm7.258,45.218v22.9q5.706.011,8.759-2.723t3.048-7.708a10.533,10.533,0,0,0-2.833-7.537Q657.659,1223.249,651.524,1221.317Z" transform="translate(-609.469 -1146.115)" fill="#fff"/>
        </g>
        <path id="Path_38" data-name="Path 38" d="M871.157,1436.053l13.37,32.293a3.462,3.462,0,0,0,5.93.8l26.049-33.447Z" transform="translate(-708.345 -1275.039)" fill="#fcb957"/>
      </g>
      <g id="Group_27" data-name="Group 27" transform="translate(1125.958 512.818)">
        <path id="Path_39" data-name="Path 39" d="M2618.987,1536.188a14.438,14.438,0,0,1-14.459-14.2V1387.741a13.863,13.863,0,0,1,14.459-13.713l307.266,7.319a14.064,14.064,0,0,1,13.677,13.981v124.133a14.35,14.35,0,0,1-14.239,14.35Z" transform="translate(-2604.527 -1374.024)" fill="#f89f1b"/>
        <g id="Group_26" data-name="Group 26" transform="translate(35.531 35.187)">
          <path id="Path_40" data-name="Path 40" d="M2934.775,1461.621l-262.647-4.1V1440.97l262.647,4.88Z" transform="translate(-2672.127 -1440.97)" fill="#fff" opacity="0.67"/>
          <path id="Path_41" data-name="Path 41" d="M2934.775,1523.043l-262.647-2.535v-16.553l262.647,3.317Z" transform="translate(-2672.127 -1470.849)" fill="#fff" opacity="0.67"/>
          <path id="Path_42" data-name="Path 42" d="M2934.775,1584.465l-262.647-.972V1566.94l262.647,1.753Z" transform="translate(-2672.127 -1500.729)" fill="#fff" opacity="0.67"/>
        </g>
        <path id="Path_43" data-name="Path 43" d="M2914.286,1680.046l13.37,32.293a3.463,3.463,0,0,0,5.931.8l26.048-33.448Z" transform="translate(-2751.474 -1519.031)" fill="#f89f1b"/>
      </g>
      <g id="Group_30" data-name="Group 30" transform="translate(890.244 596.151)">
        <path id="Path_44" data-name="Path 44" d="M2679.165,1850.713l67.321,138.262-17.572,46.538-33.39-5.384,3.487-30.328a24.34,24.34,0,0,0-2.564-13.968l-44.873-86.71,17.22-47.851A5.636,5.636,0,0,1,2679.165,1850.713Z" transform="translate(-2391.131 -1681.991)" fill="#f48f8f"/>
        <path id="Path_45" data-name="Path 45" d="M2456.752,1618.59s-19.027,8.081-22.526,17.363c-2.807,7.448-23.847,8.408-25.925,23.056-1.073,7.563-7.483,13.62-16.11,14.774-21.488,2.876-54.6,12.618-59.9,45.191-4.044,24.862,10.473,34.29,25.708,37.554,11.19,2.4,18.626,11.9,16.363,21.762-2.171,9.46,1.067,20.4,19.839,29.045,42.068,19.38,84.078-45.912,84.078-45.912l8.61-114.005Z" transform="translate(-2239.34 -1573.377)" fill="#0d5d6c"/>
        <path id="Path_46" data-name="Path 46" d="M2203.87,3131.3l-2.723,22.378a9.245,9.245,0,0,1-8.107,8.088,143.131,143.131,0,0,1-29.951.469,7.917,7.917,0,0,1-6.647-10.267c2.745-8.639,7.769-21.608,15.012-29.24h24.824A7.648,7.648,0,0,1,2203.87,3131.3Z" transform="translate(-2156.067 -2286.93)" fill="url(#linear-gradient-5)"/>
        <path id="Path_47" data-name="Path 47" d="M2573.708,2640.277l4.19,24.648s-14.031,142.13-16.527,198.982a44.542,44.542,0,0,0,6.592,25.318l24.4,39.622-62.01-36.592-1.234-7.567,10.151-13.957-13.3-159.221a48.848,48.848,0,0,1,5.559-27.02l12.826-24.095Z" transform="translate(-2331.468 -2058.057)" fill="#f48f8f"/>
        <path id="Path_48" data-name="Path 48" d="M2595.032,3147.119h-19.789a11.912,11.912,0,0,1-9.456-4.636c-6.169-8.016-18.951-23.654-25.062-24.063-8.228-.55-7.175,28.7-7.175,28.7h-4.612l-5.841-36.345a21.514,21.514,0,0,1,11.29-22.488h0s1.881,13.908,12.078,20.06,41.5,28.184,41.5,28.184a28.263,28.263,0,0,1,8.042.214C2602.25,3137.873,2601.377,3147.119,2595.032,3147.119Z" transform="translate(-2330.054 -2270.59)" fill="url(#linear-gradient-6)"/>
        <path id="Path_49" data-name="Path 49" d="M2321.221,2653.3s-82.2,155.93-95.269,191.531-17.645,65.3-17.82,68.113c-.273,4.395-5.739,8.609-20.806,8.609-7.776,0-11.584-3.117-13.449-6.134a8.785,8.785,0,0,1-.332-8.508c4.755-9.623,19.845-40.376,25.434-54.324,6.672-16.653,21.025-92.124,28.9-118.365s16.77-54.7,51.048-80.923C2278.923,2653.3,2302.455,2630.257,2321.221,2653.3Z" transform="translate(-2163.913 -2059.378)" fill="#f48f8f"/>
        <path id="Path_50" data-name="Path 50" d="M2521.857,2009.874c21.2-89.852-35.783-137.377-35.783-137.377,23.4-22.466,61.651-38.048,83.084-45.542a29.241,29.241,0,0,1,28.989,5.662c16.925,14.928,43.62,42.727,38.785,66.048-4.1,19.763-41.421,118.382-41.421,118.382S2561,2033.382,2521.857,2009.874Z" transform="translate(-2312.62 -1671.446)" fill="#739af0"/>
        <path id="Path_51" data-name="Path 51" d="M2419.739,2220.932c8.629-26,47.014-44.483,47.014-44.483,39.141,23.508,73.654,7.175,73.654,7.175s7.74,29.584,2.4,57.078-38.858,204.188-38.858,204.188c-52.81,10.7-134.031-10.766-134.031-10.766C2403.554,2374.4,2411.109,2246.929,2419.739,2220.932Z" transform="translate(-2257.515 -1838.021)" fill="#71716f"/>
        <path id="Path_52" data-name="Path 52" d="M2585.178,1699.115l-17.24,77.437c-1.65,6.821,4.568,5.7,11.463,4.4,11.293-2.13,25.849-6.514,30.715-15.3a8.338,8.338,0,0,0,.882-2.918l7.406-53.7a9.647,9.647,0,0,0-5.646-10.138l-14.292-6.338A9.648,9.648,0,0,0,2585.178,1699.115Z" transform="translate(-2351.328 -1608.075)" fill="#f48f8f"/>
        <path id="Path_9067" data-name="Path 9067" d="M266.688,98.349s-.568,8.884-1.527,12.432-34.361-8.245-34.361-8.245l2.295-10.347" transform="translate(0.48)" fill="#e37979"/>
        <g id="Group_28" data-name="Group 28" transform="translate(185.668)">
          <path id="Path_53" data-name="Path 53" d="M2597.491,1579.74s21.955,3.029,43.018,27.921,14.584,40.738,2.493,45.922-30.567,6.874-55.406-6.187S2569.207,1576.757,2597.491,1579.74Z" transform="translate(-2539.124 -1554.894)" fill="#f48f8f"/>
          <path id="Path_54" data-name="Path 54" d="M2566.664,1609.355s-26.076-37.691,10.752-48.113l10.33,3.742s7.352-26.756-17.87-31.809-58.778,22.293-60.194,54.825.426,28.18,20.039,38.294,25.119,6.472,25.119,6.472-3.682-11.86-2.118-19.978,11.95-1.618,11.95-1.618Z" transform="translate(-2509.311 -1532.57)" fill="#0d5d6c"/>
          <path id="Path_55" data-name="Path 55" d="M2602.106,1679.044s-13.291-19.453-21.027-8.206,13.484,17.645,21.587,19.388Z" transform="translate(-2542.565 -1596.503)" fill="#f48f8f"/>
        </g>
        <g id="Group_29" data-name="Group 29" transform="translate(222.969 244.282)">
          <path id="Path_56" data-name="Path 56" d="M2585.451,2195.449c.092,0,.185.007.28.006l121.673-.131a5.388,5.388,0,1,0-.012-10.776l-121.673.131a5.388,5.388,0,0,0-.267,10.771Z" transform="translate(-2580.278 -2086.145)" fill="#0992ac"/>
          <path id="Path_57" data-name="Path 57" d="M2880.738,1997.331h-101.33a19.329,19.329,0,0,0-17.467,10.958l-46.845,98.282h125.926a11.736,11.736,0,0,0,10.916-7.345l36.326-90.945A8.016,8.016,0,0,0,2880.738,1997.331Z" transform="translate(-2644.234 -1997.331)" fill="#0992ac"/>
          <ellipse id="Ellipse_13" data-name="Ellipse 13" cx="12.853" cy="7.975" rx="12.853" ry="7.975" transform="translate(161.117 62.523) rotate(-71.758)" fill="#fff"/>
        </g>
        <path id="Path_58" data-name="Path 58" d="M2462.1,1910.266c-18.476,20.005-39.764,106.544-27.2,120.432,11.2,16.287,48.155,37.693,82.581,36.511l50.792-1.788c-22.141-21.925-37.039-27.16-53.983-10.686-14.1-5.445-32.914-27.8-45.294-37.637a12.825,12.825,0,0,1-3.249-16.152c8.979-16.5,20.369-33.541,23.61-49.772C2489.507,1932.281,2474.788,1911.183,2462.1,1910.266Z" transform="translate(-2286.551 -1711.746)" fill="#f48f8f"/>
      </g>
      <g id="Group_32" data-name="Group 32" transform="translate(503.517 143.504)">
        <path id="Path_59" data-name="Path 59" d="M3017.177,1050.03s24.657-.83,25.621,18.786-23.35,27.449-23.35,27.449Z" transform="translate(-2177.844 -851.008)" fill="#f89f1b"/>
        <path id="Path_60" data-name="Path 60" d="M2849.944,1136.691s-24.688,25.48-26.664,31.494c-3.169,9.65,3.828,37.638-7.47,36.657s-10.366,2.513-15.944,2.7,7-44.263,6.547-55.1a65.873,65.873,0,0,0-4.165-19.911Z" transform="translate(-2074.075 -890.146)" fill="#fdd08d"/>
        <path id="Path_61" data-name="Path 61" d="M2974.993,994.88c-17.586-5.222-23.532,20.844-23.532,20.844l2.929,75.45c21.594,40.032,42.43,7.483,44.836-24.726S2992.579,1000.1,2974.993,994.88Z" transform="translate(-2146.669 -824.52)" fill="#fdd08d"/>
        <path id="Path_62" data-name="Path 62" d="M2758.828,1119.938c-19.76,20.993-41.777-2.562-36.61-28.858S2751,1080.388,2751,1080.388Z" transform="translate(-2037.556 -863.232)" fill="#fdd08d"/>
        <path id="Path_63" data-name="Path 63" d="M2309.17,671.384l3.117,3.455a10.993,10.993,0,0,1,2.438,8.2l-2.463,31.182s2.423,1.78,6.569-3.37a5.755,5.755,0,0,1,8.693-1.01s-6.108,6.8-15.4,16.568a23.079,23.079,0,0,1-15.636,7.318l-4.1-10.546A170.556,170.556,0,0,1,2309.17,671.384Z" transform="translate(-1834.012 -671.384)" fill="#f48f8f"/>
        <path id="Path_64" data-name="Path 64" d="M2257.875,769.883c-6.758,12.529-38.911,68-41.276,83.529s14.2,38.536,14.2,38.536c-8.029,12.482,30.68-82.981,37.155-112.414Z" transform="translate(-1797.947 -718.111)" fill="#f48f8f"/>
        <path id="Path_65" data-name="Path 65" d="M2282.845,951.761c55.716,24.161,63.578,46.772,63.578,46.772l-47.841,39.621s-48.257-27.579-73.623-89.98c11.18-6.152,16.469-15.734,23.175-22.672C2255.6,936.342,2269.848,946.125,2282.845,951.761Z" transform="translate(-1802.022 -791.936)" fill="#739af0"/>
        <path id="Path_66" data-name="Path 66" d="M1555.219,1782.694a61.686,61.686,0,0,0-32.162-2.5,7.8,7.8,0,0,0-6.088,9.1l12.406,67.473a3.285,3.285,0,0,0,6.217.776c6.618-14.417,18.753-42.591,22-61.952Z" transform="translate(-1466.095 -1196.886)" fill="url(#linear-gradient-7)"/>
        <path id="Path_67" data-name="Path 67" d="M1489.865,1546.851a61.688,61.688,0,0,0-22.054-23.543,7.8,7.8,0,0,0-10.633,2.61l-36.364,58.174a3.284,3.284,0,0,0,4.065,4.767c14.611-6.177,42.577-18.786,58.035-30.887Z" transform="translate(-1420.298 -1075.003)" fill="url(#linear-gradient-8)"/>
        <path id="Path_68" data-name="Path 68" d="M1591.189,1765.441l-22.965,10.33a5.334,5.334,0,0,0-.626,7.552,19.294,19.294,0,0,0,5.122,4.063,6.124,6.124,0,0,0,6.794-.624l29.11-9.717Z" transform="translate(-1489.567 -1190.396)" fill="#f48f8f"/>
        <path id="Path_69" data-name="Path 69" d="M1551.987,1532.33l-20.644,9.462c-2.691,1.22-4.161,12-2.326,13.849a6.124,6.124,0,0,0,6.7,1.289l29.357-12.29Z" transform="translate(-1471.486 -1079.81)" fill="#f48f8f"/>
        <path id="Path_70" data-name="Path 70" d="M1866.868,1306.654s-27.4,5.831-42.674,18.677c-52.385,44.05-262.41,100.9-262.41,100.9s-1.608,25.316,9.419,23.549c0,0,156.827-23.894,231.9-51.07,0,0-63.76,71.741-218.66,148.045,0,0,8.356,19.89,14.967,18.91,0,0,330.747-134.955,335.608-186.4Z" transform="translate(-1487.378 -972.751)" fill="#71716f"/>
        <path id="Path_71" data-name="Path 71" d="M2014.359,1450.351a1.279,1.279,0,0,1-.679-2.365l41.805-26.208-9.006-8.933a1.28,1.28,0,1,1,1.8-1.819l11.3,11.209-44.547,27.921A1.252,1.252,0,0,1,2014.359,1450.351Z" transform="translate(-1701.508 -1022.088)" fill="#412e2e" style="mix-blend-mode: soft-light;isolation: isolate"/>
        <path id="Path_72" data-name="Path 72" d="M2348.143,1066.966c-21-34.476-69.579-58.02-98.155-69.448a27.779,27.779,0,0,0-33.937,11.06c-20.668,33.174-33.5,89.839-100.412,154.446,31.152,21.406,65,59.986,82.13,69.009,65.763-53.67,99.492-110.847,99.492-110.847,33.276,56.427,95.663,41.593,106.318,38.227a222.019,222.019,0,0,1-.366-47.121C2361.979,1096.266,2348.143,1066.966,2348.143,1066.966Z" transform="translate(-1750.161 -825.148)" fill="#739af0"/>
        <path id="Path_73" data-name="Path 73" d="M2734.042,1219.156l-5.616-11.853c-28.456,12.056-50.149,11.868-66.634,5.46a222.035,222.035,0,0,0,.366,47.121C2703.059,1253.9,2734.042,1219.156,2734.042,1219.156Z" transform="translate(-2008.74 -925.62)" fill="#f48f8f"/>
        <path id="Path_74" data-name="Path 74" d="M2438.568,913.848l-34.317,51.258s22.619,23.6,44.161,26.178l21.687-47.959Z" transform="translate(-1887.077 -786.407)" fill="url(#linear-gradient-9)"/>
        <g id="Group_31" data-name="Group 31" transform="translate(531.86 63.955)">
          <path id="Path_75" data-name="Path 75" d="M2507.72,840.569c.493.788,13.563,60.8,13.563,60.8l-34.427,6.735-20.839-55.042S2499.471,827.384,2507.72,840.569Z" transform="translate(-2448.239 -813.813)" fill="#ff928e"/>
          <path id="Path_76" data-name="Path 76" d="M2462.3,841.187l8.7,29.834a4.285,4.285,0,0,0,.481,1.078c1.291,2.069,6.254,8.865,12.9,3.362,6.027-4.992,11.6-9.459,16.555-10.051a4.337,4.337,0,0,1,4.757,3.385c1.186,5.453,3.632,17.791,4.121,28.834a4.329,4.329,0,0,1-3.775,4.465c-6.7.89-20.884,2.372-32.574.891a4.344,4.344,0,0,1-3.513-2.719c-2.84-7.247-11.556-29.242-14.933-35-3.169-5.4-11.657-5.726-15.231-5.609a4.267,4.267,0,0,1-3.135-1.221c-2.959-2.9-8.493-10.193.3-18.065a4.347,4.347,0,0,0,.248-6.254c-3.39-3.563-6.884-9.741-.512-16.807,6.477-7.182,14.406-5.54,19.207-3.48a4.343,4.343,0,0,0,5.326-1.637,3.434,3.434,0,0,1,3.629-1.457,4.276,4.276,0,0,0,4.8-4.124c.182-4.822,2.245-10.812,10.747-12.948,15.086-3.79,23.536,11.051,23.857,21.793s-16.269,13.92-25.85,12.663c-7.285-.956-13.12,5.992-15.5,9.378A4.3,4.3,0,0,0,2462.3,841.187Z" transform="translate(-2432.193 -793.063)" fill="#0d5d6c"/>
          <path id="Path_77" data-name="Path 77" d="M2463.574,932.8s-1.363-18.692-9.032-20.031S2439,917.358,2446.1,928.2C2454.926,941.691,2463.574,932.8,2463.574,932.8Z" transform="translate(-2437.474 -849.762)" fill="url(#linear-gradient-10)"/>
        </g>
        <path id="Path_78" data-name="Path 78" d="M2832.729,1189.4l-39.19-3.136,1.222-5.069s-17.425,3.9-18.041,17.464l-2.727,21.246c3.424-2.5,13.889-7.631,18.062-6.867l20.718,3.793a16.625,16.625,0,0,0,19.167-12.5C2833.108,1199.429,2833.731,1194.051,2832.729,1189.4Z" transform="translate(-2062.479 -913.235)" fill="#f48f8f"/>
        <path id="Path_79" data-name="Path 79" d="M2763.217,1050.721s48.635,1.419,106.092-37.776a6.354,6.354,0,0,1,9,1.91c17.683,29.392,13.926,61.278,8.968,80.344a15.94,15.94,0,0,1-21.051,10.95c-21.559-8.155-62.8-20.633-101.588-14.863C2750.013,1088.876,2744.557,1056.918,2763.217,1050.721Z" transform="translate(-2051.721 -832.891)" fill="#f89f1b"/>
        <path id="Path_80" data-name="Path 80" d="M3098.019,951.945a2.559,2.559,0,0,1-2.023-4.13l23.132-29.856a2.56,2.56,0,1,1,4.046,3.137l-23.132,29.855A2.547,2.547,0,0,1,3098.019,951.945Z" transform="translate(-2214.979 -787.886)" fill="#fdd08d"/>
        <path id="Path_81" data-name="Path 81" d="M3167.334,875.122a2.562,2.562,0,0,1-2.023-4.13l12.284-15.86a2.56,2.56,0,1,1,4.046,3.136l-12.285,15.86A2.547,2.547,0,0,1,3167.334,875.122Z" transform="translate(-2247.862 -758.081)" fill="#fdd08d"/>
        <path id="Path_82" data-name="Path 82" d="M3200.694,999.565a.873.873,0,0,1-.785-.666,1.186,1.186,0,0,1,.463-1.4l23.44-12.159a.8.8,0,0,1,1.107.586,1.187,1.187,0,0,1-.463,1.4l-23.44,12.158A.7.7,0,0,1,3200.694,999.565Z" transform="translate(-2264.5 -820.284)" fill="#fdd08d"/>
        <path id="Path_83" data-name="Path 83" d="M3114.176,1035.1a2.562,2.562,0,0,1-.972-4.931l26.539-10.887a2.56,2.56,0,1,1,1.943,4.738l-26.539,10.887A2.552,2.552,0,0,1,3114.176,1035.1Z" transform="translate(-2222.644 -836.334)" fill="#fdd08d"/>
        <path id="Path_84" data-name="Path 84" d="M3165.927,1111.411c-.971,0-1.773-1.1-1.8-2.484-.028-1.416.755-2.593,1.748-2.635l40.309-1.666c1.1-.053,1.823,1.076,1.854,2.485s-.755,2.593-1.748,2.635l-40.31,1.666Z" transform="translate(-2247.555 -876.909)" fill="#fdd08d"/>
        <path id="Path_85" data-name="Path 85" d="M3105.373,1114.368a2.561,2.561,0,0,1-.076-5.12l12.667-.368a2.463,2.463,0,0,1,2.635,2.485,2.563,2.563,0,0,1-2.484,2.635l-12.667.369Z" transform="translate(-2218.469 -878.928)" fill="#fdd08d"/>
      </g>
    </g>
  </g>
</svg>
