<svg xmlns="http://www.w3.org/2000/svg" xmlns:xlink="http://www.w3.org/1999/xlink" width="472.519" height="480.631" viewBox="0 0 472.519 480.631">
  <defs>
    <linearGradient id="linear-gradient" y1="0.5" x2="1" y2="0.5" gradientUnits="objectBoundingBox">
      <stop offset="0" stop-color="#dae3fe"/>
      <stop offset="1" stop-color="#e9effd"/>
    </linearGradient>
    <linearGradient id="linear-gradient-2" x1="0.712" y1="3.486" x2="0.425" y2="-3.84" gradientUnits="objectBoundingBox">
      <stop offset="0" stop-color="#09005d"/>
      <stop offset="1" stop-color="#1a0f91"/>
    </linearGradient>
    <linearGradient id="linear-gradient-3" x1="0.998" y1="3.618" x2="0.288" y2="-4.96" xlink:href="#linear-gradient-2"/>
    <linearGradient id="linear-gradient-4" x1="-20.087" y1="0.5" x2="-19.087" y2="0.5" gradientUnits="objectBoundingBox">
      <stop offset="0" stop-color="#febbba"/>
      <stop offset="1" stop-color="#ff928e"/>
    </linearGradient>
    <linearGradient id="linear-gradient-5" x1="-74.182" y1="0.5" x2="-73.182" y2="0.5" xlink:href="#linear-gradient-2"/>
    <linearGradient id="linear-gradient-6" x1="-51.206" y1="0.5" x2="-50.206" y2="0.5" xlink:href="#linear-gradient-2"/>
    <linearGradient id="linear-gradient-7" x1="-51.793" y1="-20.143" x2="-49.836" y2="-20.143" xlink:href="#linear-gradient-2"/>
    <linearGradient id="linear-gradient-8" x1="-49.51" y1="-12.775" x2="-48.364" y2="-12.775" xlink:href="#linear-gradient-2"/>
    <linearGradient id="linear-gradient-9" x1="-1.492" y1="-6.863" x2="-3.913" y2="-3.08" xlink:href="#linear-gradient-4"/>
    <linearGradient id="linear-gradient-10" x1="-4.855" y1="78.423" x2="-2.064" y2="75.912" xlink:href="#linear-gradient-4"/>
  </defs>
  <g id="Illustration" transform="translate(-462.328 -398.359)">
    <g id="Group_33" data-name="Group 33" transform="translate(462.328 398.359)">
      <path id="Path_1" data-name="Path 1" d="M877.995,858.783c-12.3,12.678-23.3,20.13-31.73,25.756-82.175,54.869-176.109,39.055-205.152,33.649-46.856-8.721-86.409-14.873-120.393-45.576-77.22-69.765-73.464-215.3-14.459-305.454,7-10.689,65.913-98.021,160.051-110.327,2.3-.3,4.021-.472,5.525-.632,14.563-1.542,104.807-9.68,178.391,51.97a219.514,219.514,0,0,1,43.2,49.02C950.909,645.957,951.091,783.438,877.995,858.783Z" transform="translate(-462.328 -445.391)" fill="#d2fdfd"/>
      <g id="Group_4" data-name="Group 4" transform="translate(0.486 34.262)">
        <path id="Path_2" data-name="Path 2" d="M639.326,601.144,468.9,600.324c-2.054-.019-3.722,2.253-3.706,5.048l.378,67.428c.016,2.811,1.728,5.054,3.792,4.97l169.454-3.629c1.971-.081,3.546-2.26,3.571-4.944l.594-62.98C643.009,603.439,641.369,601.162,639.326,601.144Z" transform="translate(-465.194 -600.324)" fill="#fcb957"/>
        <path id="Path_3" data-name="Path 3" d="M484.538,694.625a.624.624,0,0,1-.563-.679l-.377-67.427a.759.759,0,0,1,.141-.462.508.508,0,0,1,.421-.227l170.427.82a.506.506,0,0,1,.417.229.76.76,0,0,1,.139.461l-.594,62.979a.625.625,0,0,1-.541.675h0Zm-.379-68.358c-.011,0-.032,0-.067.047a.328.328,0,0,0-.057.2l.377,67.428c0,.149.08.244.121.244l169.462-3.63c.045,0,.116-.1.117-.243l.594-62.979a.329.329,0,0,0-.057-.2c-.035-.048-.057-.048-.066-.048Z" transform="translate(-480.476 -621.503)" fill="url(#linear-gradient)"/>
        <g id="Group_3" data-name="Group 3" transform="translate(10.617 9.987)" opacity="0.6">
          <rect id="Rectangle_2" data-name="Rectangle 2" width="8.294" height="31.694" transform="translate(0 25.676)" fill="#fff"/>
          <rect id="Rectangle_3" data-name="Rectangle 3" width="8.294" height="20.801" transform="translate(13.858 36.568)" fill="#fff"/>
          <rect id="Rectangle_4" data-name="Rectangle 4" width="8.294" height="47.722" transform="translate(27.716 9.648)" fill="#fff"/>
          <rect id="Rectangle_5" data-name="Rectangle 5" width="8.294" height="11.465" transform="translate(41.574 45.905)" fill="#fff"/>
          <rect id="Rectangle_6" data-name="Rectangle 6" width="8.294" height="41.342" transform="translate(55.432 16.028)" fill="#fff"/>
          <rect id="Rectangle_7" data-name="Rectangle 7" width="8.294" height="34.184" transform="translate(69.291 23.186)" fill="#fff"/>
          <rect id="Rectangle_8" data-name="Rectangle 8" width="8.294" height="26.403" transform="translate(83.149 30.966)" fill="#fff"/>
          <rect id="Rectangle_9" data-name="Rectangle 9" width="8.294" height="57.369" transform="translate(97.007)" fill="#fff"/>
          <rect id="Rectangle_10" data-name="Rectangle 10" width="8.294" height="51.301" transform="translate(110.865 6.069)" fill="#fff"/>
          <rect id="Rectangle_11" data-name="Rectangle 11" width="8.294" height="42.12" transform="translate(124.723 15.25)" fill="#fff"/>
          <rect id="Rectangle_12" data-name="Rectangle 12" width="8.294" height="10.401" transform="translate(138.581 46.969)" fill="#fff"/>
          <rect id="Rectangle_13" data-name="Rectangle 13" width="8.294" height="30.605" transform="translate(152.439 26.765)" fill="#fff"/>
        </g>
      </g>
      <g id="Group_18" data-name="Group 18" transform="translate(36.591 0)">
        <g id="Group_13" data-name="Group 13" transform="translate(91.796)">
          <g id="Group_6" data-name="Group 6" transform="translate(65.867 14.467)">
            <circle id="Ellipse_1" data-name="Ellipse 1" cx="29.17" cy="29.17" r="29.17" transform="translate(0 41.252) rotate(-45)" fill="#bf770c"/>
            <circle id="Ellipse_2" data-name="Ellipse 2" cx="28.2" cy="28.2" r="28.2" transform="translate(1.372 41.252) rotate(-45)" fill="#f89f1b"/>
            <path id="Path_4" data-name="Path 4" d="M1707.692,583.063a1.185,1.185,0,0,1-1.056-1.718,27.1,27.1,0,0,1,24.31-14.968,27.465,27.465,0,0,1,4.909.441,1.185,1.185,0,1,1-.425,2.331,25.04,25.04,0,0,0-4.484-.4,24.743,24.743,0,0,0-22.2,13.666A1.184,1.184,0,0,1,1707.692,583.063Z" transform="translate(-1689.694 -552.341)" fill="#fff" opacity="0.7"/>
            <circle id="Ellipse_3" data-name="Ellipse 3" cx="23.868" cy="23.868" r="23.868" transform="translate(8.113 41.866) rotate(-45)" fill="#fff" opacity="0.78"/>
            <g id="Group_5" data-name="Group 5" transform="translate(31.354 24.975)">
              <path id="Path_5" data-name="Path 5" d="M1800.386,665.49v-2.6a21.179,21.179,0,0,1-7.286-1.58,1.5,1.5,0,0,1-.83-1.774l.659-2.419a1.514,1.514,0,0,1,2.055-.991,17.58,17.58,0,0,0,6.727,1.416c2.607,0,4.552-.884,4.552-2.7,0-1.635-1.5-2.607-5.126-3.579-5.17-1.414-8.883-3.668-8.883-8.22,0-4.11,3.005-7.247,8.219-8.087v-2.6a1.513,1.513,0,0,1,1.513-1.513h1.525a1.513,1.513,0,0,1,1.513,1.513V634.7a19.32,19.32,0,0,1,5.775,1.037,1.506,1.506,0,0,1,.941,1.818l-.607,2.237a1.509,1.509,0,0,1-1.992,1.019,15.754,15.754,0,0,0-5.664-1.028c-3.093,0-3.977,1.282-3.977,2.431,0,1.414,1.856,2.386,5.877,3.624,5.745,1.723,8.131,4.11,8.131,8.4,0,3.933-2.917,7.468-8.573,8.352v2.906a1.513,1.513,0,0,1-1.513,1.513H1801.9A1.513,1.513,0,0,1,1800.386,665.49Z" transform="translate(-1792.216 -630.855)" fill="#f89f1b"/>
            </g>
          </g>
          <g id="Group_8" data-name="Group 8">
            <circle id="Ellipse_4" data-name="Ellipse 4" cx="25.264" cy="25.264" r="25.264" transform="translate(0 35.729) rotate(-45)" fill="#bf770c"/>
            <circle id="Ellipse_5" data-name="Ellipse 5" cx="24.424" cy="24.424" r="24.424" transform="translate(1.188 35.729) rotate(-45)" fill="#f89f1b"/>
            <path id="Path_6" data-name="Path 6" d="M1307.195,485.423a.781.781,0,0,1-.7-1.134,23.23,23.23,0,0,1,20.838-12.83,23.544,23.544,0,0,1,4.207.379.782.782,0,1,1-.28,1.538,21.945,21.945,0,0,0-3.927-.353,21.674,21.674,0,0,0-19.442,11.971A.781.781,0,0,1,1307.195,485.423Z" transform="translate(-1291.606 -459.058)" fill="#fff" opacity="0.7"/>
            <circle id="Ellipse_6" data-name="Ellipse 6" cx="20.672" cy="20.672" r="20.672" transform="translate(15.589 15.589)" fill="#fff" opacity="0.78"/>
            <g id="Group_7" data-name="Group 7" transform="translate(27.156 21.631)">
              <path id="Path_7" data-name="Path 7" d="M1386.282,555.864v-2.249a18.342,18.342,0,0,1-6.31-1.368,1.3,1.3,0,0,1-.719-1.537l.572-2.095a1.312,1.312,0,0,1,1.78-.858,15.223,15.223,0,0,0,5.826,1.227c2.258,0,3.942-.766,3.942-2.335,0-1.416-1.3-2.258-4.44-3.1-4.478-1.225-7.693-3.177-7.693-7.119,0-3.56,2.6-6.277,7.119-7v-2.249a1.31,1.31,0,0,1,1.31-1.311h1.321a1.31,1.31,0,0,1,1.31,1.311V529.2a16.727,16.727,0,0,1,5,.9,1.3,1.3,0,0,1,.815,1.574l-.525,1.937a1.307,1.307,0,0,1-1.725.883,13.648,13.648,0,0,0-4.906-.891c-2.679,0-3.444,1.11-3.444,2.1,0,1.225,1.607,2.067,5.09,3.139,4.976,1.493,7.042,3.559,7.042,7.272,0,3.406-2.526,6.468-7.425,7.234v2.517a1.31,1.31,0,0,1-1.311,1.311h-1.321A1.311,1.311,0,0,1,1386.282,555.864Z" transform="translate(-1379.206 -525.866)" fill="#f89f1b"/>
            </g>
          </g>
          <g id="Group_10" data-name="Group 10" transform="translate(72.964 94.987)">
            <circle id="Ellipse_7" data-name="Ellipse 7" cx="26.455" cy="26.455" r="26.455" transform="translate(9.714 9.714)" fill="#bf770c"/>
            <circle id="Ellipse_8" data-name="Ellipse 8" cx="25.576" cy="25.576" r="25.576" transform="translate(0 36.169) rotate(-45)" fill="#f89f1b"/>
            <path id="Path_8" data-name="Path 8" d="M1732.862,1041.116a1.06,1.06,0,0,1-.483-.115,1.073,1.073,0,0,1-.475-1.443,24.579,24.579,0,0,1,22.048-13.575,24.9,24.9,0,0,1,4.452.4,1.074,1.074,0,0,1-.385,2.114,22.719,22.719,0,0,0-4.067-.365,22.442,22.442,0,0,0-20.13,12.395A1.074,1.074,0,0,1,1732.862,1041.116Z" transform="translate(-1717.783 -1014.497)" fill="#fff" opacity="0.7"/>
            <circle id="Ellipse_9" data-name="Ellipse 9" cx="21.647" cy="21.647" r="21.647" transform="translate(11.492 54.058) rotate(-79.481)" fill="#fff" opacity="0.78"/>
            <g id="Group_9" data-name="Group 9" transform="translate(27.193 21.407)">
              <path id="Path_9" data-name="Path 9" d="M1816.93,1115.875v-2.355a19.207,19.207,0,0,1-6.608-1.433,1.362,1.362,0,0,1-.752-1.609l.6-2.194a1.373,1.373,0,0,1,1.864-.9,15.947,15.947,0,0,0,6.1,1.285c2.365,0,4.128-.8,4.128-2.445,0-1.483-1.363-2.365-4.649-3.246-4.689-1.282-8.056-3.327-8.056-7.455,0-3.728,2.725-6.573,7.455-7.334v-2.355a1.372,1.372,0,0,1,1.372-1.372h1.384a1.372,1.372,0,0,1,1.372,1.372v2.115a17.522,17.522,0,0,1,5.238.941,1.366,1.366,0,0,1,.853,1.648l-.55,2.029a1.368,1.368,0,0,1-1.806.924,14.292,14.292,0,0,0-5.137-.933c-2.806,0-3.607,1.162-3.607,2.2,0,1.282,1.683,2.164,5.33,3.286,5.211,1.563,7.375,3.727,7.375,7.615,0,3.567-2.645,6.773-7.775,7.575v2.636a1.372,1.372,0,0,1-1.372,1.372H1818.3A1.372,1.372,0,0,1,1816.93,1115.875Z" transform="translate(-1809.52 -1084.462)" fill="#f89f1b"/>
            </g>
          </g>
          <g id="Group_12" data-name="Group 12" transform="translate(1.706 53.577)">
            <circle id="Ellipse_10" data-name="Ellipse 10" cx="33.269" cy="33.269" r="33.269" transform="translate(0 47.049) rotate(-45)" fill="#bf770c"/>
            <circle id="Ellipse_11" data-name="Ellipse 11" cx="32.163" cy="32.163" r="32.163" transform="translate(1.565 47.049) rotate(-45)" fill="#f89f1b"/>
            <path id="Path_10" data-name="Path 10" d="M1346.393,829.811a.776.776,0,0,1-.692-1.126,30.337,30.337,0,0,1,27.213-16.756,30.7,30.7,0,0,1,5.5.495.776.776,0,1,1-.278,1.527,29.157,29.157,0,0,0-5.217-.47,28.793,28.793,0,0,0-25.828,15.9A.776.776,0,0,1,1346.393,829.811Z" transform="translate(-1325.865 -795.346)" fill="#fff" opacity="0.7"/>
            <circle id="Ellipse_12" data-name="Ellipse 12" cx="27.222" cy="27.222" r="27.222" transform="translate(9.253 47.75) rotate(-45)" fill="#fff" opacity="0.78"/>
            <g id="Group_11" data-name="Group 11" transform="translate(35.76 28.485)">
              <path id="Path_11" data-name="Path 11" d="M1449.3,921.585v-2.962a24.154,24.154,0,0,1-8.31-1.8,1.712,1.712,0,0,1-.947-2.024l.752-2.759a1.726,1.726,0,0,1,2.344-1.13,20.051,20.051,0,0,0,7.673,1.615c2.974,0,5.191-1.008,5.191-3.075,0-1.865-1.714-2.973-5.847-4.082-5.9-1.613-10.131-4.184-10.131-9.375,0-4.687,3.427-8.266,9.375-9.223v-2.962a1.726,1.726,0,0,1,1.726-1.726h1.74a1.726,1.726,0,0,1,1.726,1.726v2.659a22.025,22.025,0,0,1,6.587,1.183,1.718,1.718,0,0,1,1.073,2.073l-.692,2.551a1.721,1.721,0,0,1-2.272,1.162,17.964,17.964,0,0,0-6.46-1.173c-3.528,0-4.536,1.462-4.536,2.772,0,1.613,2.117,2.722,6.7,4.133,6.552,1.966,9.274,4.687,9.274,9.576,0,4.486-3.326,8.518-9.778,9.526v3.315a1.725,1.725,0,0,1-1.725,1.725h-1.74A1.725,1.725,0,0,1,1449.3,921.585Z" transform="translate(-1439.981 -882.082)" fill="#f89f1b"/>
            </g>
          </g>
        </g>
        <g id="Group_17" data-name="Group 17" transform="translate(0 100.448)">
          <path id="Path_12" data-name="Path 12" d="M1253.889,1067.823s-48.432-67.673-23.221-62.365,27.865,19.24,56.394,3.981,35.163-29.192,40.471-8.625,5.69,18.505,27.584,14.525,20.848,11.35-13.651,45.85C1304.312,1061.188,1253.889,1067.823,1253.889,1067.823Z" transform="translate(-1130.876 -990.467)" fill="#0992ac"/>
          <path id="Path_13" data-name="Path 13" d="M797.5,1478.224s-157.476,110.518-110.841,249.348c0,0,28.052,46.614,152.782,46.614s139.413-37.3,152.682-61.182c10.615-34.5,22.721-118.546-103.509-234.779Z" transform="translate(-678.022 -1395.479)" fill="#0992ac"/>
          <path id="Rectangle_14" data-name="Rectangle 14" d="M6.782,0h93.256a6.782,6.782,0,0,1,6.782,6.782v0a6.782,6.782,0,0,1-6.782,6.782H6.782A6.782,6.782,0,0,1,0,6.782v0A6.782,6.782,0,0,1,6.782,0Z" transform="translate(111.762 70.214)" fill="#55e2fa"/>
          <g id="Group_16" data-name="Group 16" transform="translate(113.869 147.715)">
            <g id="Group_14" data-name="Group 14" transform="translate(1.026 1.696)">
              <path id="Path_14" data-name="Path 14" d="M1394.018,2035.385v-12.31c-12.833-.514-25.525-3.542-34.54-7.489a7.121,7.121,0,0,1-3.935-8.412l3.127-11.466a7.177,7.177,0,0,1,9.742-4.7,83.339,83.339,0,0,0,31.891,6.715c12.36,0,21.577-4.19,21.577-12.78,0-7.75-7.122-12.359-24.3-16.967-24.51-6.7-42.108-17.388-42.108-38.966,0-19.484,14.246-34.357,38.966-38.337v-12.311a7.172,7.172,0,0,1,7.172-7.172h7.232a7.172,7.172,0,0,1,7.173,7.172v11.053a91.533,91.533,0,0,1,27.377,4.916,7.137,7.137,0,0,1,4.46,8.616l-2.876,10.6a7.153,7.153,0,0,1-9.442,4.831,74.67,74.67,0,0,0-26.851-4.875c-14.665,0-18.854,6.075-18.854,11.522,0,6.7,8.8,11.312,27.862,17.178,27.234,8.17,38.546,19.483,38.546,39.8,0,18.645-13.826,35.4-40.641,39.594v13.776a7.173,7.173,0,0,1-7.172,7.172h-7.234A7.172,7.172,0,0,1,1394.018,2035.385Z" transform="translate(-1355.287 -1871.193)" fill="#f89f1b"/>
            </g>
            <g id="Group_15" data-name="Group 15">
              <path id="Path_15" data-name="Path 15" d="M1404.071,2035.953h-7.234a8.877,8.877,0,0,1-8.868-8.867v-10.695c-11.743-.666-24.162-3.452-33.524-7.551a8.853,8.853,0,0,1-4.892-10.412l3.128-11.466a8.836,8.836,0,0,1,4.646-5.617,8.965,8.965,0,0,1,7.388-.2,82.362,82.362,0,0,0,31.235,6.583c4.664,0,19.882-.8,19.882-11.086,0-6.583-6.461-10.88-23.045-15.33-38.87-10.63-43.364-28.263-43.364-40.6,0-20.272,14.888-35.41,38.966-39.768v-10.88a8.879,8.879,0,0,1,8.868-8.869h7.233a8.879,8.879,0,0,1,8.869,8.869v9.435a93.1,93.1,0,0,1,26.244,4.934,8.856,8.856,0,0,1,5.535,10.66l-2.876,10.6a8.85,8.85,0,0,1-11.679,5.972,72.936,72.936,0,0,0-26.251-4.765c-10.9,0-17.158,3.582-17.158,9.825,0,5.292,7.476,9.654,26.664,15.558,28.226,8.468,39.744,20.469,39.744,41.424,0,20.679-15.9,36.665-40.641,41.033v12.339A8.877,8.877,0,0,1,1404.071,2035.953Zm-42.839-52.115a5.511,5.511,0,0,0-2.418.556,5.367,5.367,0,0,0-2.86,3.461l-3.128,11.467a5.443,5.443,0,0,0,2.98,6.413c9.431,4.128,22.114,6.873,33.928,7.347l1.628.065v13.94a5.482,5.482,0,0,0,5.476,5.476h7.234a5.482,5.482,0,0,0,5.477-5.476v-15.227l1.434-.226c24.184-3.778,39.207-18.31,39.207-37.92,0-19.415-10.469-30.118-37.338-38.178-18.416-5.668-29.07-10.559-29.07-18.8,0-12.263,15.729-13.217,20.55-13.217a76.3,76.3,0,0,1,27.45,4.984,5.455,5.455,0,0,0,7.206-3.688l2.876-10.6a5.453,5.453,0,0,0-3.385-6.573,91.049,91.049,0,0,0-26.883-4.822l-1.628-.065v-12.681a5.484,5.484,0,0,0-5.477-5.478h-7.233a5.483,5.483,0,0,0-5.477,5.478v13.755l-1.426.23c-23.506,3.784-37.539,17.489-37.539,36.663,0,18.088,12.6,29.6,40.86,37.329,15.333,4.113,25.549,8.852,25.549,18.6,0,9.065-8.7,14.477-23.273,14.477a85.2,85.2,0,0,1-32.547-6.849A5.633,5.633,0,0,0,1361.232,1983.838Z" transform="translate(-1349.241 -1861.198)" fill="#fff"/>
            </g>
          </g>
        </g>
      </g>
      <g id="Group_22" data-name="Group 22" transform="translate(3.739 202.918)">
        <path id="Path_16" data-name="Path 16" d="M487.729,1935.714s0,31.216,13.685,28.671c8.361-1.555,13.312-35.182,13.312-35.182s-8.651-19.27-9.617-12.962C498.086,1962.094,492.855,1927,487.729,1935.714Z" transform="translate(-487.159 -1860.606)" fill="#f48f8f"/>
        <path id="Path_17" data-name="Path 17" d="M539.737,3129.43s1.033,5.851,1.54,11.642a3.99,3.99,0,0,1-3.817,4.323c-7.712.321-24.208.945-30.127.682a1.3,1.3,0,0,1-1.142-1.778h0a2.908,2.908,0,0,1,1.486-1.566l27.249-12.523Z" transform="translate(-502.411 -2869.036)" fill="url(#linear-gradient-2)"/>
        <path id="Path_18" data-name="Path 18" d="M666,3103.88l-.83,7s-4.773,2.223-8.033-.28l1.977-7.8Z" transform="translate(-627.827 -2846.923)" fill="#f48f8f"/>
        <path id="Path_19" data-name="Path 19" d="M668.184,2333.671c.359,1.827,1.925,91.19-7.627,131.236a1.36,1.36,0,0,0,.8,1.581,23.666,23.666,0,0,0,7.779,1.581,2.341,2.341,0,0,0,2.322-1.681c2.73-9.291,15.814-55.843,17.521-100.313,1.907-49.692,0-1.692,0-1.692l-1.119-30.716Z" transform="translate(-630.636 -2208.271)" fill="#71716f"/>
        <path id="Path_20" data-name="Path 20" d="M835.65,3147.421s1.645,2.953,3.237,10.8a2.434,2.434,0,0,1-2.142,2.915c-2.547.25-6.467.572-9.607.55a2.427,2.427,0,0,1-2.4-2.707,20.472,20.472,0,0,1,4.779-11.227Z" transform="translate(-766.98 -2883.975)" fill="url(#linear-gradient-3)"/>
        <path id="Path_21" data-name="Path 21" d="M860.219,3092.354l-1.94,10.582s-1.918,1.427-5.713.393l.926-11.386Z" transform="translate(-790.103 -2837.909)" fill="#f48f8f"/>
        <path id="Path_22" data-name="Path 22" d="M739.644,2325.646c7.812,47.148-1.695,116.531-4.9,130.111a2.117,2.117,0,0,1-1.71,1.608,14.206,14.206,0,0,1-6.11-.244,1.941,1.941,0,0,1-1.4-1.787c-.43-10.979.344-78.379-6.935-105.016a6.052,6.052,0,0,0-2.334-3.338l-14.129-10.044-1.083-16.236Z" transform="translate(-664.288 -2197.503)" fill="#71716f"/>
        <g id="Group_19" data-name="Group 19" transform="translate(11.873 39.919)">
          <path id="Path_23" data-name="Path 23" d="M567.2,1830.472c28.526-2.852,50.106,4.367,50.106,4.367,6.979,40.72,1.22,87.689,1.22,87.689-18.125,4.753-38.572-2.906-38.572-2.906-3.013-17.02-15.565-56.322-15.565-56.322-5.719-.71-11.087,2.179-9.853-5.76S563.6,1830.831,567.2,1830.472Z" transform="translate(-554.356 -1829.805)" fill="#739af0"/>
        </g>
        <path id="Path_24" data-name="Path 24" d="M872.476,1882.148l8.98-22.67s21.868,14.858,25.465,33.7a51.752,51.752,0,0,0-19.011,5.1C886.293,1889.375,872.476,1882.148,872.476,1882.148Z" transform="translate(-806.636 -1814.525)" fill="#739af0"/>
        <path id="Path_25" data-name="Path 25" d="M732.712,2068.418s24.553,13.876,32.837,2.028a9.313,9.313,0,0,0,1.708-7.236,51.746,51.746,0,0,1,19.011-5.1,26,26,0,0,1-2.826,17.825c-14.511,26.545-53.978-1.467-53.978-1.467Z" transform="translate(-687.884 -1979.464)" fill="#f48f8f"/>
        <g id="Group_20" data-name="Group 20" transform="translate(0 63.501)">
          <path id="Path_26" data-name="Path 26" d="M541.589,2025.211l-8.055-28.131a.82.82,0,0,0-.694-.591c-1.459-.17-5.688-.648-10.571-1.061-5.882-.5-12.712-.9-16.793-.558a.823.823,0,0,0-.673,1.184c2.321,4.7,11.868,23.8,16.649,30.054a.826.826,0,0,0,.664.326l18.69-.174A.823.823,0,0,0,541.589,2025.211Z" transform="translate(-501.265 -1990.343)" fill="#0992ac"/>
          <path id="Path_27" data-name="Path 27" d="M665.867,2077.592s1.867-7.676,1.114-10.4-2.212-6.224-7.074-5.447a71.179,71.179,0,0,0-10.6,2.827s.29,3.547,3.986,2.4L651,2068.75s.328,2.84,3.449,1.323l-2.131,2.352a2.484,2.484,0,0,0,3.637.836C658.253,2071.765,659.354,2078.517,665.867,2077.592Z" transform="translate(-621.326 -2045.89)" fill="url(#linear-gradient-4)"/>
          <path id="Path_28" data-name="Path 28" d="M491.407,1988.638s-5.659-5.511-6.467-8.218-1.432-6.448,3.1-8.372a71.177,71.177,0,0,1,10.481-3.236s1.639,3.159-2.1,4.153l2.884.285s1.231,2.58-2.22,2.953l3.055.86a2.484,2.484,0,0,1-2.637,2.641C494.762,1979.656,497.416,1985.962,491.407,1988.638Z" transform="translate(-484.369 -1968.812)" fill="#f48f8f"/>
        </g>
        <path id="Path_29" data-name="Path 29" d="M694.59,1728.342l7.449,21.543a.776.776,0,0,1-.354.935c-2.031,1.123-9.347,4.368-18.163-1.222a3.656,3.656,0,0,1-1.683-2.61l-2.412-18.646Z" transform="translate(-646.336 -1705.636)" fill="#f48f8f"/>
        <path id="Path_9066" data-name="Path 9066" d="M106.384,99.852s17.842-2.9,16.271-7.641-1.686-4.588-1.686-4.588l-16.25,8.558" transform="translate(-70.92 -59.341)" fill="#c75858" opacity="0.4"/>
        <g id="Group_21" data-name="Group 21" transform="translate(18.535)">
          <path id="Path_30" data-name="Path 30" d="M637.686,1664.743s2.407,17.27,6.9,21.692,12.447-1.886,16.653-11.17L656.5,1658.17Z" transform="translate(-630.211 -1647.368)" fill="#f48f8f"/>
          <path id="Path_31" data-name="Path 31" d="M619.552,1616.009a.635.635,0,0,1-.769-.59,16.564,16.564,0,0,0-.991-5.249s.639-1.625-4.316.422-12.387,5.039-16.314,2.4c-3.828-2.569-6.82-13.837,3.674-10.733a.634.634,0,0,0,.818-.584c.051-1.8.647-5.88,4.936-6.772,4.013-.835,5.962,1.138,6.73,2.287a.631.631,0,0,0,.984.085c1.32-1.4,4.813-4.314,9.258-1.786,3.662,2.082,4.016,4.5,3.8,5.97a.633.633,0,0,0,.836.692c1.23-.421,3.147-.509,4.725,1.943,2.181,3.39-1.671,5.742-2.817,6.345a.636.636,0,0,0-.34.492c-.177,1.629-1.157,8.713-5.131,12.359a.64.64,0,0,1-1.04-.291l-2.075-6.818a.638.638,0,0,0-.743-.438Z" transform="translate(-593.626 -1594.495)" fill="#0d5d6c"/>
          <path id="Path_32" data-name="Path 32" d="M745.312,1705.95s2.373-6.653,4.692-4.177-1.389,7.024-4.4,7.656Z" transform="translate(-719.579 -1683.115)" fill="#f48f8f"/>
        </g>
      </g>
      <g id="Group_25" data-name="Group 25" transform="translate(16.807 124.124)">
        <path id="Path_33" data-name="Path 33" d="M566.064,1182.371a4.66,4.66,0,0,1-4.667-4.584v-43.329a4.474,4.474,0,0,1,4.667-4.426l99.173,2.362a4.539,4.539,0,0,1,4.414,4.512v40.065a4.632,4.632,0,0,1-4.6,4.632Z" transform="translate(-561.397 -1130.031)" fill="#fcb957"/>
        <g id="Group_23" data-name="Group 23" transform="translate(42.119 11.357)">
          <path id="Path_34" data-name="Path 34" d="M859.81,1203.642l-50.133-1.323v-5.343l50.133,1.575Z" transform="translate(-809.677 -1196.977)" fill="#fff" opacity="0.67"/>
          <path id="Path_35" data-name="Path 35" d="M859.81,1266.123l-50.133-.818v-5.343l50.133,1.07Z" transform="translate(-809.677 -1249.277)" fill="#fff" opacity="0.67"/>
          <path id="Path_36" data-name="Path 36" d="M859.81,1328.6l-50.133-.313v-5.343l50.133.566Z" transform="translate(-809.677 -1301.577)" fill="#fff" opacity="0.67"/>
        </g>
        <g id="Group_24" data-name="Group 24" transform="translate(8.155 2.729)">
          <path id="Path_37" data-name="Path 37" d="M622.025,1146.121h0a1.5,1.5,0,0,1,1.321,1.468v2.53a37.224,37.224,0,0,1,4.385.761q1.619.381,3.216.906a1.479,1.479,0,0,1,1.008,1.518l-.311,3.172a1.189,1.189,0,0,1-1.7.987,18.317,18.317,0,0,0-2.157-.8,19.562,19.562,0,0,0-4.069-.76l-.373-.031v7.246c3.808,1.065,6.6,2.5,8.411,4.3a9.093,9.093,0,0,1,2.695,6.714,8.84,8.84,0,0,1-2.98,6.98q-3,2.643-8.429,2.968v2.792a1.27,1.27,0,0,1-1.322,1.29H621.7a1.4,1.4,0,0,1-1.326-1.4V1184l-.588-.026a38.692,38.692,0,0,1-4.884-.521,31.826,31.826,0,0,1-3.375-.776,1.455,1.455,0,0,1-1.059-1.5l.366-4.078a1.29,1.29,0,0,1,1.8-1.064,26.424,26.424,0,0,0,2.968.974,26,26,0,0,0,4.745.793l.023-8.06q-5.482-1.357-8.189-4.018a9.2,9.2,0,0,1-2.713-6.838,7.994,7.994,0,0,1,2.941-6.642c1.948-1.547,4.717-2.317,8.29-2.315v-2.587A1.194,1.194,0,0,1,622.025,1146.121Zm-1.325,9.672a4.462,4.462,0,0,0-2.641.931,2.715,2.715,0,0,0-.948,2.175,2.921,2.921,0,0,0,.877,2.162,6.213,6.213,0,0,0,2.712,1.383Zm2.343,14.594v7.391a4.089,4.089,0,0,0,2.827-.879,3.163,3.163,0,0,0,.984-2.488,3.4,3.4,0,0,0-.914-2.433A6.715,6.715,0,0,0,623.043,1170.387Z" transform="translate(-609.469 -1146.115)" fill="#fff"/>
        </g>
        <path id="Path_38" data-name="Path 38" d="M871.157,1435.815l4.315,10.423a1.118,1.118,0,0,0,1.914.26l8.407-10.8Z" transform="translate(-818.608 -1383.847)" fill="#fcb957"/>
      </g>
      <g id="Group_27" data-name="Group 27" transform="translate(363.413 165.516)">
        <path id="Path_39" data-name="Path 39" d="M2609.194,1426.364a4.66,4.66,0,0,1-4.667-4.583v-43.329a4.475,4.475,0,0,1,4.667-4.426l99.173,2.362a4.539,4.539,0,0,1,4.415,4.512v40.065a4.632,4.632,0,0,1-4.6,4.632Z" transform="translate(-2604.527 -1374.024)" fill="#f89f1b"/>
        <g id="Group_26" data-name="Group 26" transform="translate(11.468 11.357)">
          <path id="Path_40" data-name="Path 40" d="M2756.9,1447.635l-84.771-1.323v-5.343l84.771,1.575Z" transform="translate(-2672.127 -1440.97)" fill="#fff" opacity="0.67"/>
          <path id="Path_41" data-name="Path 41" d="M2756.9,1510.116l-84.771-.818v-5.342l84.771,1.07Z" transform="translate(-2672.127 -1493.27)" fill="#fff" opacity="0.67"/>
          <path id="Path_42" data-name="Path 42" d="M2756.9,1572.6l-84.771-.314v-5.343l84.771.566Z" transform="translate(-2672.127 -1545.57)" fill="#fff" opacity="0.67"/>
        </g>
        <path id="Path_43" data-name="Path 43" d="M2914.286,1679.807l4.316,10.423a1.117,1.117,0,0,0,1.914.259l8.407-10.8Z" transform="translate(-2861.737 -1627.839)" fill="#f89f1b"/>
      </g>
      <g id="Group_30" data-name="Group 30" transform="translate(287.334 192.413)">
        <path id="Path_44" data-name="Path 44" d="M2660.479,1848.566l21.728,44.625-5.671,15.021-10.777-1.738,1.125-9.789a7.852,7.852,0,0,0-.827-4.508l-14.483-27.987,5.558-15.444A1.82,1.82,0,0,1,2660.479,1848.566Z" transform="translate(-2567.513 -1794.11)" fill="#f48f8f"/>
        <path id="Path_45" data-name="Path 45" d="M2372,1618.59s-6.142,2.608-7.271,5.6c-.906,2.4-7.7,2.714-8.367,7.441a5.818,5.818,0,0,1-5.2,4.769c-6.936.928-17.624,4.073-19.334,14.585-1.305,8.025,3.38,11.068,8.3,12.121,3.612.773,6.012,3.84,5.281,7.024-.7,3.053.344,6.583,6.4,9.375,13.578,6.255,27.137-14.819,27.137-14.819l2.779-36.8Z" transform="translate(-2301.823 -1603.997)" fill="#0d5d6c"/>
        <path id="Path_46" data-name="Path 46" d="M2171.5,3125.5l-.879,7.223a2.983,2.983,0,0,1-2.617,2.61,46.181,46.181,0,0,1-9.667.151,2.555,2.555,0,0,1-2.146-3.313c.886-2.789,2.507-6.974,4.845-9.437h8.012A2.468,2.468,0,0,1,2171.5,3125.5Z" transform="translate(-2156.067 -2852.97)" fill="url(#linear-gradient-5)"/>
        <path id="Path_47" data-name="Path 47" d="M2541.265,2640.277l1.353,7.956s-4.529,45.874-5.334,64.223a14.375,14.375,0,0,0,2.127,8.172l7.875,12.788-20.014-11.81-.4-2.442,3.276-4.5-4.292-51.39a15.764,15.764,0,0,1,1.794-8.721l4.14-7.777Z" transform="translate(-2463.08 -2452.36)" fill="#f48f8f"/>
        <path id="Path_48" data-name="Path 48" d="M2546.131,3107.276h-6.387a3.843,3.843,0,0,1-3.052-1.5c-1.991-2.587-6.117-7.635-8.089-7.767-2.656-.177-2.316,9.263-2.316,9.263H2524.8l-1.885-11.73a6.944,6.944,0,0,1,3.644-7.258h0s.607,4.489,3.9,6.475,13.394,9.1,13.394,9.1a9.1,9.1,0,0,1,2.6.069A1.689,1.689,0,0,1,2546.131,3107.276Z" transform="translate(-2460.606 -2824.368)" fill="url(#linear-gradient-6)"/>
        <path id="Path_49" data-name="Path 49" d="M2220.573,2646.367s-26.531,50.328-30.749,61.819a110.406,110.406,0,0,0-5.752,21.984c-.088,1.418-1.852,2.779-6.715,2.779-2.51,0-3.739-1.006-4.341-1.98a2.835,2.835,0,0,1-.107-2.746c1.534-3.105,6.405-13.032,8.209-17.533,2.154-5.375,6.786-29.734,9.327-38.2s5.413-17.656,16.476-26.119C2206.921,2646.367,2214.516,2638.929,2220.573,2646.367Z" transform="translate(-2169.801 -2454.673)" fill="#f48f8f"/>
        <path id="Path_50" data-name="Path 50" d="M2497.623,1884.884c6.844-29-11.549-44.34-11.549-44.34,7.554-7.251,19.9-12.281,26.816-14.7a9.438,9.438,0,0,1,9.356,1.828c5.463,4.818,14.079,13.791,12.518,21.318-1.323,6.378-13.369,38.209-13.369,38.209S2510.256,1892.471,2497.623,1884.884Z" transform="translate(-2430.09 -1775.653)" fill="#739af0"/>
        <path id="Path_51" data-name="Path 51" d="M2386,2190.806c2.785-8.391,15.174-14.357,15.174-14.357,12.633,7.587,23.772,2.316,23.772,2.316s2.5,9.549.774,18.422-12.542,65.9-12.542,65.9c-17.045,3.454-43.26-3.475-43.26-3.475C2380.773,2240.34,2383.212,2199.2,2386,2190.806Z" transform="translate(-2333.638 -2067.218)" fill="#71716f"/>
        <path id="Path_52" data-name="Path 52" d="M2573.321,1694.114l-5.564,24.994c-.532,2.2,1.474,1.841,3.7,1.422,3.645-.687,8.343-2.1,9.914-4.939a2.7,2.7,0,0,0,.285-.942l2.39-17.331a3.114,3.114,0,0,0-1.823-3.272L2577.61,1692A3.114,3.114,0,0,0,2573.321,1694.114Z" transform="translate(-2497.844 -1664.73)" fill="#f48f8f"/>
        <path id="Path_9067" data-name="Path 9067" d="M242.382,94.178a30.985,30.985,0,0,1-.493,4.013c-.31,1.145-11.09-2.661-11.09-2.661l.741-3.339" transform="translate(-156.151 -62.435)" fill="#e37979"/>
        <g id="Group_28" data-name="Group 28" transform="translate(59.926)">
          <path id="Path_53" data-name="Path 53" d="M2580.333,1579.664s7.086.978,13.884,9.011,4.708,13.149.8,14.822-9.866,2.219-17.883-2S2571.2,1578.7,2580.333,1579.664Z" transform="translate(-2561.494 -1571.645)" fill="#f48f8f"/>
          <path id="Path_54" data-name="Path 54" d="M2527.822,1557.353s-8.416-12.165,3.471-15.529l3.334,1.208s2.373-8.636-5.768-10.267-18.971,7.2-19.428,17.7.137,9.1,6.468,12.36,8.107,2.089,8.107,2.089-1.188-3.828-.684-6.448,3.857-.522,3.857-.522Z" transform="translate(-2509.311 -1532.57)" fill="#0d5d6c"/>
          <path id="Path_55" data-name="Path 55" d="M2586.735,1671.116s-4.29-6.279-6.787-2.649,4.352,5.7,6.967,6.258Z" transform="translate(-2567.518 -1644.475)" fill="#f48f8f"/>
        </g>
        <g id="Group_29" data-name="Group 29" transform="translate(71.965 78.844)">
          <path id="Path_56" data-name="Path 56" d="M2581.948,2188.065l.09,0,39.271-.042a1.739,1.739,0,1,0,0-3.478l-39.271.042a1.739,1.739,0,0,0-.086,3.476Z" transform="translate(-2580.278 -2152.786)" fill="#0992ac"/>
          <path id="Path_57" data-name="Path 57" d="M2768.558,1997.331h-32.705a6.238,6.238,0,0,0-5.637,3.537l-15.12,31.721h40.644a3.788,3.788,0,0,0,3.523-2.371l11.725-29.354A2.587,2.587,0,0,0,2768.558,1997.331Z" transform="translate(-2692.225 -1997.331)" fill="#0992ac"/>
          <ellipse id="Ellipse_13" data-name="Ellipse 13" cx="4.148" cy="2.574" rx="4.148" ry="2.574" transform="translate(52.002 20.18) rotate(-71.758)" fill="#fff"/>
        </g>
        <path id="Path_58" data-name="Path 58" d="M2441.12,1910.266c-5.963,6.457-12.834,34.388-8.779,38.87,3.616,5.257,15.542,12.166,26.654,11.784l16.393-.577c-7.146-7.076-11.955-8.766-17.424-3.449-4.55-1.757-10.624-8.972-14.619-12.148a4.139,4.139,0,0,1-1.049-5.213c2.9-5.326,6.574-10.826,7.621-16.064C2449.966,1917.371,2445.216,1910.562,2441.12,1910.266Z" transform="translate(-2384.461 -1846.192)" fill="#f48f8f"/>
      </g>
      <g id="Group_32" data-name="Group 32" transform="translate(162.514 46.317)">
        <path id="Path_59" data-name="Path 59" d="M3017.177,1050.027s7.958-.268,8.27,6.063-7.536,8.86-7.536,8.86Z" transform="translate(-2746.274 -985.791)" fill="#f89f1b"/>
        <path id="Path_60" data-name="Path 60" d="M2815.061,1133.87s-7.969,8.224-8.606,10.165c-1.023,3.115,1.235,12.148-2.411,11.831s-3.346.811-5.146.871,2.258-14.286,2.113-17.785a21.266,21.266,0,0,0-1.345-6.426Z" transform="translate(-2564.642 -1054.296)" fill="#fdd08d"/>
        <path id="Path_61" data-name="Path 61" d="M2959.056,994.411c-5.675-1.685-7.595,6.728-7.595,6.728l.945,24.352c6.97,12.921,13.695,2.415,14.471-7.981S2964.732,996.1,2959.056,994.411Z" transform="translate(-2691.708 -939.426)" fill="#fdd08d"/>
        <path id="Path_62" data-name="Path 62" d="M2733.517,1090.04c-6.378,6.776-13.484-.827-11.816-9.314s9.288-3.451,9.288-3.451Z" transform="translate(-2500.72 -1007.186)" fill="#fdd08d"/>
        <path id="Path_63" data-name="Path 63" d="M2297.808,671.384l1.006,1.115a3.551,3.551,0,0,1,.787,2.647l-.795,10.064s.782.574,2.12-1.088a1.857,1.857,0,0,1,2.806-.326s-1.972,2.194-4.969,5.347a7.449,7.449,0,0,1-5.047,2.362l-1.323-3.4A55.046,55.046,0,0,1,2297.808,671.384Z" transform="translate(-2144.447 -671.384)" fill="#f48f8f"/>
        <path id="Path_64" data-name="Path 64" d="M2229.765,769.883c-2.181,4.044-12.559,21.948-13.322,26.96s4.584,12.438,4.584,12.438c-2.592,4.029,9.9-26.783,11.992-36.282Z" transform="translate(-2081.319 -753.173)" fill="#f48f8f"/>
        <path id="Path_65" data-name="Path 65" d="M2243.643,933.978c17.982,7.8,20.52,15.1,20.52,15.1l-15.441,12.788a62.218,62.218,0,0,1-23.762-29.042c3.608-1.986,5.316-5.078,7.48-7.318C2234.848,929,2239.447,932.159,2243.643,933.978Z" transform="translate(-2088.452 -882.393)" fill="#739af0"/>
        <path id="Path_66" data-name="Path 66" d="M1529.225,1780.275a19.909,19.909,0,0,0-10.381-.806,2.519,2.519,0,0,0-1.965,2.937l4,21.778a1.06,1.06,0,0,0,2.007.25c2.136-4.653,6.053-13.746,7.1-20Z" transform="translate(-1500.46 -1591.201)" fill="url(#linear-gradient-7)"/>
        <path id="Path_67" data-name="Path 67" d="M1442.751,1530.156a19.911,19.911,0,0,0-7.118-7.6,2.52,2.52,0,0,0-3.432.842l-11.737,18.776a1.06,1.06,0,0,0,1.312,1.539c4.716-1.993,13.742-6.063,18.731-9.969Z" transform="translate(-1420.298 -1377.863)" fill="url(#linear-gradient-8)"/>
        <path id="Path_68" data-name="Path 68" d="M1574.343,1765.441l-7.412,3.334a1.722,1.722,0,0,0-.2,2.438,6.227,6.227,0,0,0,1.653,1.312,1.977,1.977,0,0,0,2.193-.2l9.4-3.136Z" transform="translate(-1541.543 -1579.84)" fill="#f48f8f"/>
        <path id="Path_69" data-name="Path 69" d="M1535.878,1532.33l-6.663,3.054c-.869.394-1.343,3.873-.751,4.47a1.976,1.976,0,0,0,2.162.416l9.475-3.967Z" transform="translate(-1509.896 -1386.275)" fill="#f48f8f"/>
        <path id="Path_70" data-name="Path 70" d="M1660.2,1306.654s-8.842,1.882-13.773,6.028c-16.908,14.218-84.7,32.567-84.7,32.567s-.519,8.171,3.04,7.6c0,0,50.617-7.712,74.846-16.483,0,0-20.579,23.155-70.574,47.783,0,0,2.7,6.42,4.831,6.1,0,0,106.752-43.558,108.32-60.163Z" transform="translate(-1537.713 -1198.884)" fill="#71716f"/>
        <path id="Path_71" data-name="Path 71" d="M2013.492,1423.468a.413.413,0,0,1-.219-.763l13.493-8.459-2.907-2.883a.413.413,0,0,1,.581-.587l3.649,3.618-14.378,9.012A.4.4,0,0,1,2013.492,1423.468Z" transform="translate(-1912.517 -1285.242)" fill="#412e2e" style="mix-blend-mode: soft-light;isolation: isolate"/>
        <path id="Path_72" data-name="Path 72" d="M2190.681,1018.576c-6.777-11.127-22.457-18.726-31.68-22.415a8.965,8.965,0,0,0-10.953,3.57c-6.671,10.707-10.812,29-32.409,49.849,10.054,6.909,20.979,19.361,26.508,22.273,21.226-17.322,32.112-35.777,32.112-35.777,10.74,18.212,30.876,13.425,34.315,12.338a71.691,71.691,0,0,1-.118-15.209C2195.147,1028.032,2190.681,1018.576,2190.681,1018.576Z" transform="translate(-1997.678 -940.527)" fill="#739af0"/>
        <path id="Path_73" data-name="Path 73" d="M2684.381,1211.129l-1.812-3.826c-9.184,3.891-16.186,3.83-21.507,1.762a71.675,71.675,0,0,0,.118,15.209C2674.38,1222.344,2684.381,1211.129,2684.381,1211.129Z" transform="translate(-2450.283 -1116.387)" fill="#f48f8f"/>
        <path id="Path_74" data-name="Path 74" d="M2415.327,913.848l-11.076,16.544s7.3,7.616,14.253,8.449l7-15.479Z" transform="translate(-2237.329 -872.715)" fill="url(#linear-gradient-9)"/>
        <g id="Group_31" data-name="Group 31" transform="translate(171.663 20.642)">
          <path id="Path_75" data-name="Path 75" d="M2479.477,838.019c.159.254,4.377,19.625,4.377,19.625l-11.111,2.174-6.726-17.765S2476.814,833.764,2479.477,838.019Z" transform="translate(-2460.279 -829.384)" fill="#ff928e"/>
          <path id="Path_76" data-name="Path 76" d="M2441.91,808.6l2.809,9.629a1.38,1.38,0,0,0,.155.348c.417.668,2.019,2.861,4.163,1.085,1.945-1.611,3.745-3.053,5.343-3.244a1.4,1.4,0,0,1,1.536,1.093,60.576,60.576,0,0,1,1.33,9.306,1.4,1.4,0,0,1-1.218,1.441,45.162,45.162,0,0,1-10.514.288,1.4,1.4,0,0,1-1.134-.878c-.917-2.339-3.73-9.438-4.82-11.295-1.023-1.743-3.763-1.848-4.916-1.81a1.377,1.377,0,0,1-1.012-.394c-.956-.936-2.741-3.29.1-5.831a1.4,1.4,0,0,0,.08-2.018c-1.094-1.15-2.222-3.144-.166-5.425a5.134,5.134,0,0,1,6.2-1.123,1.4,1.4,0,0,0,1.719-.528,1.108,1.108,0,0,1,1.171-.47,1.38,1.38,0,0,0,1.549-1.331,4.183,4.183,0,0,1,3.468-4.179c4.869-1.223,7.6,3.567,7.7,7.034s-5.251,4.493-8.343,4.087c-2.352-.308-4.235,1.934-5,3.027A1.389,1.389,0,0,0,2441.91,808.6Z" transform="translate(-2432.193 -793.063)" fill="#0d5d6c"/>
          <path id="Path_77" data-name="Path 77" d="M2449.861,919.109s-.44-6.033-2.915-6.465-5.015,1.48-2.724,4.981C2447.07,921.978,2449.861,919.109,2449.861,919.109Z" transform="translate(-2441.437 -892.307)" fill="url(#linear-gradient-10)"/>
        </g>
        <path id="Path_78" data-name="Path 78" d="M2792.95,1183.844l-12.649-1.012.394-1.636s-5.624,1.259-5.823,5.636l-.88,6.857c1.105-.808,4.483-2.463,5.83-2.216l6.687,1.224a5.365,5.365,0,0,0,6.186-4.034A11.289,11.289,0,0,0,2792.95,1183.844Z" transform="translate(-2544.345 -1094.709)" fill="#f48f8f"/>
        <path id="Path_79" data-name="Path 79" d="M2755.156,1024.385s15.7.458,34.242-12.193a2.051,2.051,0,0,1,2.906.616c5.708,9.487,4.5,19.778,2.895,25.932a5.145,5.145,0,0,1-6.794,3.534c-6.958-2.632-20.268-6.66-32.789-4.8C2750.895,1036.7,2749.134,1026.385,2755.156,1024.385Z" transform="translate(-2525.515 -954.079)" fill="#f89f1b"/>
        <path id="Path_80" data-name="Path 80" d="M3096.284,928.255a.826.826,0,0,1-.653-1.333l7.466-9.636a.826.826,0,1,1,1.306,1.012l-7.466,9.636A.822.822,0,0,1,3096.284,928.255Z" transform="translate(-2811.275 -875.304)" fill="#fdd08d"/>
        <path id="Path_81" data-name="Path 81" d="M3165.6,860.91a.827.827,0,0,1-.653-1.333l3.965-5.119a.826.826,0,0,1,1.306,1.012l-3.965,5.119A.823.823,0,0,1,3165.6,860.91Z" transform="translate(-2868.831 -823.134)" fill="#fdd08d"/>
        <path id="Path_82" data-name="Path 82" d="M3200.118,989.876a.281.281,0,0,1-.253-.215.382.382,0,0,1,.149-.452l7.566-3.924a.257.257,0,0,1,.357.189.382.382,0,0,1-.149.452l-7.566,3.924A.22.22,0,0,1,3200.118,989.876Z" transform="translate(-2897.954 -932.012)" fill="#fdd08d"/>
        <path id="Path_83" data-name="Path 83" d="M3112.441,1024.261a.827.827,0,0,1-.313-1.592l8.566-3.514a.826.826,0,1,1,.627,1.529l-8.565,3.514A.828.828,0,0,1,3112.441,1024.261Z" transform="translate(-2824.692 -960.106)" fill="#fdd08d"/>
        <path id="Path_84" data-name="Path 84" d="M3164.707,1106.814c-.313,0-.573-.354-.582-.8s.244-.837.564-.851l13.01-.538c.357-.017.589.347.6.8s-.244.837-.564.85l-13.01.538Z" transform="translate(-2868.294 -1031.127)" fill="#fdd08d"/>
        <path id="Path_85" data-name="Path 85" d="M3103.639,1110.65a.826.826,0,0,1-.024-1.653l4.088-.119a.8.8,0,0,1,.851.8.827.827,0,0,1-.8.85l-4.088.119Z" transform="translate(-2817.383 -1034.659)" fill="#fdd08d"/>
      </g>
    </g>
  </g>
</svg>
