<svg xmlns="http://www.w3.org/2000/svg" width="537.943" height="573.287" viewBox="0 0 537.943 573.287">
  <g id="africa" transform="translate(-697.606 -4771.974)">
    <g id="africa-o" transform="translate(-20 20)" opacity="0.07">
      <path id="Path_8937" data-name="Path 8937" d="M971.819,5278.753s3.948,7.2,4.77,9.884,2.833,4.05,3.742,6.752,1.325,2.493,2.259,5.237,1.268,2.537.968,3.95a32.966,32.966,0,0,1-.968,3.538c-.233.667-1.355.991-1.455,1.673s-1.359.749,1.455,5.09-.158,6.9,5.438,7.829,6.825,1.432,8.14,1.549,4.314-1.037,5.954-1.549,1.092-.809,3.343-1.32-3.007-1.708,6.1-1.213,10.32-.5,10.9,0-.848,2.411,4.34,0a55.045,55.045,0,0,1,9.513-3.428c1.1-.313,2.268.039,4.489,0s4.346,0,4.346,0,30.731-30.34,32.115-32.071a11.026,11.026,0,0,1,2.616-2.631c1.021-.792,2.614-1.817,4.69-3.291s4.019-15.048,4.019-15.048-.414-1.37,0-1.875-1.409-.667-.83-2.742,15.65-8.006,16.482-8.513,2.456-.708,3.326-2.638,2.014-2.222,1.5-4.246-2.335-4.09-1.5-5.995.843-3.271,1.5-4.109,1.13-5.323,0-8.62-.3-3.544-1.5-5.686,0-6.816,0-6.816l12.055-8.694s3.54-2.444,4.414-3.781.71-1.717,1.934-2.375a25.416,25.416,0,0,1,3.326-1.335s9.047-5.877,13.149-8.039,4.585-.776,7.636-5.264,4.238-6.416,4.663-8.546,1.377-20.976,0-23.9,0-8.389,0-8.389,7.238,14.841,0-7.558-3.042-28.861-4.663-30.788-1.716-3.844,0-8.312,10.965-20.362,10.965-20.362l6.013-4.689s27.759-29.929,29.5-31a33.622,33.622,0,0,0,9.248-6.548c5.347-5.01,5.159-3.688,7.49-7.41s2.2-2.967,4.838-7.35,10.98-8.8,8.857-11.568-.8-4.083,0-6.907-4.944-6.738,0-9.527,7.168-12.217,7.168-12.217-.761-1.537,0-4.513a13.829,13.829,0,0,0,0-6.01v-5.907s-6.729-2.342-7.168,0,7.451-.134,0,3.456-23.371,5.565-23.371,5.565l-17.125,2.9a3.96,3.96,0,0,0-3.295-2.9c-2.671-.3-3.947-.407-5.13-3.113s-2.955-2.452-2.955-2.452,1.218-.086,0-3.456,5.427-2.658,0-5.473-3.557-3.98-8.061-7.456-16.672-7.948-16.978-9.076-7.626-3.4-7.636-6.038-.429-2.816-2.184-6.619a59.963,59.963,0,0,0-3.8-7.107c-1.063-1.773,1.4,1.7-4.649-7.694s-4.836-7.764-7.774-14.9-2.911-11.14-4.414-12.472-10.559-6.252-10.559-6.252v-7.53l-14.334-23.908v-4.419l-3.975-4.513-4.284-7.52s-3.068-9.8,0-3.828,11.41,15.861,11.41,15.861-1.7-.763,0-4.513a35.227,35.227,0,0,0,2.357-7.52s-.116-3.588,0-3.828,1.1-.865,0-2.674-5.509-8.223-5.509-8.223-1.837.623-8.259,0-17.2,0-17.2,0-2.159-1.082-5.972,0,.112-1.781-5.585,0-13.175,0-13.175,0h-6.877s-3.437,3.312-5.987,0-5.928-7.124-8.157-7.392-12.449,0-12.449,0,.2-.319-4.333,0-12.193,7.392-12.193,7.392.038,2.191,0,5.849-10.126.227-13.4,0-6.353-1.925-9.087-2.707-9.881-3.143-9.881-3.143l-2.442-5.012s-5.483-1.659-7.382-2.38-9.991-2.724-12.095-3.583-2.458-1.182-5.278-2.4-8.2-2.444-8.95-4.784.171-3.359,3.354-6.35,0-12.45,0-12.45,15.968,3.6,5.6-2.4a19.713,19.713,0,0,0-19.7,0s-10.911-5.726-29.154-2.378-28.647,4.773-28.647,4.773a9.061,9.061,0,0,1-2.576,4.146c-2.172,2.151-2.824,2.68-5.2,3.379s-8.169,0-8.169,0,2.592-1.805-5.026-3.379-10.49-4.146-10.49-4.146l-7.107,4.146s2.836,1.715,0,3.379a13.446,13.446,0,0,0-4.479,4.924s-14.021,4.436-14.945,6.35-1.714,1.324-3.958,4.784-1.858,1.978-3.187,5.985-2.379,3.316-2.493,7.392,3.088,3.522,0,6.141-3.592,3.517-5.654,5.317-11.9,7.084-11.9,7.084.055-2.23-3.547,0-9.426,9.548-9.426,9.548l-4.393,3.307s-.655.09-2.414,2.454-3.069,3.833-3.2,5.66-1.961,3.77-2.413,4.729-1.716,2.983-1.716,2.983-10.707,10.065-11.147,11.054-.9,1.651-2.28,4.592-1.361,1.371-2.828,6.1-.38,4.823,0,5.948.962.5,1.139,3.556.52,5.414,0,6.786-.279.875,0,3.553,3.083,4.581,1.689,7.146-1.2,3.889-1.689,7.26-2.538,6.1-3.366,7.357-1.447,4.3-1.854,5.243.077,1.361-1.795,3.753-3.366,3.373-3.561,4.522-2.069,1.56,0,3.987,3.561,15.476,3.561,15.476-.664.865,1.795,2.8a29.184,29.184,0,0,1,6.909,7.015c2.465,3.517.252,3.187,2.28,4.346a22.516,22.516,0,0,1,4.905,3.125c3.134,2.434,3.077.953,3.92,3.124s3.824,6.4,4.038,7.653-.275,1.24,0,3.885,11.89,12.946,13.973,13.635,1.936-.3,5.536,2.51,2.863,7.229,10.874,11.611,7.813,4.188,10.275,4.188h5.323s13.182-4.269,15.809-4.187-7.708-.176,6.119,0,14.315-1.193,15.526,0-2.234.7,6.206,0,9.473.334,11.889-1.963,1.425-2.787,4.185-4.017-13.531-.309,5.258-2.129,20.617-2.672,21.907-1.739.888,2.411,3.783,3.869,3.218,12.1,10.177,11.408,9.092-1.1,10.653-1.24-.638.142,3.2,0,4.341-1.527,5.6,0,3.091,4.171,4.536,6.313,2.949,4.6,2.949,4.6l-2.949,14.977s1.463.634,1.577,3.458.485-1.328-1.577,4.531-4.536,6.961-4.536,6.961v1.2l16.605,21.473a22.113,22.113,0,0,1,2.516,2.206c1.546,1.528,5.917,7.189,5.917,7.189s9.5,23.209,9.091,27.315-1.437,6.71,0,8.007,2.824,4.209,3.542,6.042a12.785,12.785,0,0,1,1.2,5.793c-.064,2.592-10.452,18.8-11.616,22.2s-.822,6.708-2.221,11.567-1.761,3.63-1.739,6.731,3.96,24.479,3.96,24.479,5.36,6.65,6.87,7.542,2.724,3.015,3.542,3.9,7.149,22.861,7.149,22.861a3.274,3.274,0,0,0,0,3.2,92.746,92.746,0,0,1,3.844,9.455c1.521,4.042,2.006,5.215,1.924,7.213s-.381,4.146,0,5.084a16.429,16.429,0,0,0,2.164,3.917C967.165,5273.046,971.819,5278.753,971.819,5278.753Z" fill="none" stroke="#151515" stroke-linecap="round" stroke-linejoin="round" stroke-width="2"/>
      <path id="Path_8938" data-name="Path 8938" d="M937.315,5189.811a6.39,6.39,0,0,1,3.139-1.315c1.455,0,4.733.076,5.851-.425s-.507-1.961,2.775-1.152,5.359,3.76,5.867,4.313,1.347.78,6.051,1.369,11.622-.964,15.872-.911a66.52,66.52,0,0,1,8.357.41,12.886,12.886,0,0,1,4.089,1.037c1.78.863-.27,1.859,4.977,2.142s3.863-.249,8.029-.408a26.884,26.884,0,0,1,4.746,0l9.617-1.734,5.59-.536a10.527,10.527,0,0,0-3.6-3.848c-2.477-1.546-3.658-1.247-4.293-3.74s-1.43-14.653-1.093-16.609-.665-10.21,0-10.233,17.318.728,16.85-.423-1.5-2.577-1.614-3.8,1.614-12.72,1.614-12.72-12.256.585-12.473.94.306,2.856-.98,2.49a9.327,9.327,0,0,1-2.94-2.022l2.94-4.729-4.122-8.875-.467-15.856h-5.545s-1.979-3.941-2.553-3.836,1.468-.62-1.538.726-4.123,1.729-4.512,1.729-3.16-2.361-3.082,0-.431,7.251-.936,7.374-6.5,1.192-7.926,1.4a24.374,24.374,0,0,1-3.168,0c-.436.079-8.078-9.267-10.037-14.909s-16.6-3.23-16.6-3.23-8.183-.392-8.536,0a55.889,55.889,0,0,1-5.289,2.5h-.557" fill="none" stroke="#151515" stroke-linecap="round" stroke-linejoin="round" stroke-width="2"/>
      <path id="Path_8939" data-name="Path 8939" d="M1022.291,5192.95s3.181-.244,3.979-.394,5.748-.986,7.13-1.254,2.723,2.3,2.723,2.3l-6.878,3.262s-4.815,3.183-4.883,3.4-2.07-4.239-2.07-4.239l-17.361,3.212-.623,27.227h-7.848l-1.095,49.938-4.869,3.6s-9.605-.283-10.7.281,0-6.78-4.47-5.712-4.141,2.975-4.141,2.975" fill="none" stroke="#151515" stroke-linecap="round" stroke-linejoin="round" stroke-width="2"/>
      <path id="Path_8940" data-name="Path 8940" d="M996.261,5246.825l6.168,7.706v6.691l8.912,1.779s5.214-8.149,7.116-8.47,2.8-1.089,4.789-1.835,1.085.417,6.789,1.1a33.516,33.516,0,0,0,8.316,0c.42.152-7.027,3.481,1.093-3.42s26.324-22.324,26.324-22.324" fill="none" stroke="#151515" stroke-linecap="round" stroke-linejoin="round" stroke-width="2"/>
      <path id="Path_8941" data-name="Path 8941" d="M1053.148,5293.255a10.533,10.533,0,0,0,2.222-1.515,4.681,4.681,0,0,1,2.612-1.485c1.816-.522,2.529-1.064,3.123-2.081s1.264-1.76,1.264-2.834.178-1.463-.443-2.237a19.633,19.633,0,0,0-1.555-2.328c-1.1-1.262,1.38-4.9-3.2-2.67s-5.508,2.249-6.442,3.108-3.212,2.01-3.792,2.669-.869.417-1.031,1.876-.562.99,0,2.417a8.532,8.532,0,0,0,2.174,3.566,6.472,6.472,0,0,0,2.649,2.046C1051.6,5294.173,1053.148,5293.255,1053.148,5293.255Z" fill="none" stroke="#151515" stroke-linecap="round" stroke-linejoin="round" stroke-width="2"/>
      <path id="Path_8942" data-name="Path 8942" d="M1087.729,5265.81a22.74,22.74,0,0,1-3.431-.31c-.8-.216-.672-.526-1.385-.284s-1.589.94-3.1,1.7-1.567,1.058-3.2,1.23-2.423-.231-2.165-2.332a19.882,19.882,0,0,1,1.189-5.583c.758-1.812,1.847-2.979,3.193-3.245s4.084,1.571,4.084,1.571" fill="none" stroke="#151515" stroke-linecap="round" stroke-linejoin="round" stroke-width="2"/>
      <path id="Path_8943" data-name="Path 8943" d="M1082.844,5265.11l-1.2-32.394s-4.871-2.579-5.5-2.7-2.024.073-2.35,0-1.73.571-2.075.447-6.923-2.41-6.923-2.41-4.194-1.844-5.045-2.174-3.746-1.294-3.746-1.294l-1.356-8.378-2.9-1.64-4.233-3.127-6.707-7.849-.526-2.321-4.461-7.506" fill="none" stroke="#151515" stroke-linecap="round" stroke-linejoin="round" stroke-width="2"/>
      <path id="Path_8944" data-name="Path 8944" d="M1037.177,5195.36l9.63.5,1.647.553,7.628-6.984,7.215-3.6v-4.66s5.468-2.819,9.384-2.665,2.848.7,2.848.7v1.964h5.915l12.8,4.66s-.356,10.03,0,10.583.4.785,0,3.175-1.643,5.513-1.709,6.252a14.9,14.9,0,0,0,0,2.62c.077,1.647-.762,2.225,0,3.4s2.032.965,0,3.152-1.659,1.931-2.6,4.5-1.35,4.236-2.087,5.052-2.109,2.6-2.7,3.318-2.922,3.563-2.922,3.563l-.787,1.439" fill="none" stroke="#151515" stroke-linecap="round" stroke-linejoin="round" stroke-width="2"/>
      <path id="Path_8945" data-name="Path 8945" d="M1075.454,5178.5l-1.581-3.948,21.467-6.642,1.833-.567s2.263.359,2.382.625-.361-.737.7,1.171.007,2.08,1.61,2.119,3.43-.108,3.913,0,.143-.748,1.039,0,1.439.372,1.558,1.042-1,2.919-.972,3.95.985,1.365,0,3.167-1.339,1.939-1.21,2.459,1.184,1.783,1.21,2.053.2.187.972,1.959,2.727,3.2,2.854,3.521a20.429,20.429,0,0,1,.345,2.118l1.526-.607v-6.252l4-1.548s3.636-5.635,1.8-9.164-10.529-13.01-10.529-13.01l1.934-13.035-4.53-15.16-7.536-1.988,5.339,10.329-1.716,1.524-1.61,10.076,1.61,2.767-3.623,1.107-3.463,7.091,1.488,2.418,3.726,3.583" fill="none" stroke="#151515" stroke-linecap="round" stroke-linejoin="round" stroke-width="2"/>
      <path id="Path_8946" data-name="Path 8946" d="M1111.23,5148.449a33.6,33.6,0,0,0,6.18,0c1.86-.36,1.563.251,2.573,0s.8-.167,3.417.586,3.728,2.279,6.484,1.032,3.023-1.755,4.747-2.355.536-1.1,4.106-1.446a34.255,34.255,0,0,0,6.143-.752c3.206-.672,2.576-1.628,7.284-2.511s2.511-.848,2.511-.848" fill="none" stroke="#151515" stroke-linecap="round" stroke-linejoin="round" stroke-width="2"/>
      <path id="Path_8947" data-name="Path 8947" d="M1097.535,5130.768a56.275,56.275,0,0,0-5.36-2.584c-.722-.117-.181,1.786-2.016,0s-1.939-2.017-2.612-2.35a19.535,19.535,0,0,0-2.148-1.093c-1.4-.6-4.792-4.256-4.792-4.256l-11.958,4.256s-2.727,3.579-2.727,4.349.709,2.4,1.063,4.346a7.49,7.49,0,0,1,0,4.111,21.852,21.852,0,0,1-1.063,3.587c-.93,2.438-1.774,3.227-1.892,4.867s-.348,2.413,0,2.846,4.087,1.9,4.618,2.332,1.684,1.306,2.425.935,1.662,3.14,1.662,3.14v5.314s-6.555-1.786-6.813-1.861-.507.566-1.892-1a13.83,13.83,0,0,0-2.837-2.451,4.729,4.729,0,0,0-1.483-3.14c-1.4-1.15.286-.626-2.938-1.6a40.1,40.1,0,0,1-4.716-1.666s.368.316-.619,0-.7-.281-3.778,0-3.042,1.615-4.035,0,.111-1.784-2.275-2.846a9.493,9.493,0,0,1-3.52-2.558l-4,.734-1.762-3.044H1029.7" fill="none" stroke="#151515" stroke-linecap="round" stroke-linejoin="round" stroke-width="2"/>
      <path id="Path_8948" data-name="Path 8948" d="M1149.684,5095.138s-11.052-6.742-11.425-7.3-2.529-6.644-2.529-6.644l-31.105-19.852-3.208,4.026-20.876.866,3.4,6.614s-4.9,1.954-.913,8.346-10.787,10.467-10.787,10.467.063,10.329,1.481,13.827a62.053,62.053,0,0,0,5.208,8.945l1.608,3.558v2.447" fill="none" stroke="#151515" stroke-linecap="round" stroke-linejoin="round" stroke-width="2"/>
      <path id="Path_8949" data-name="Path 8949" d="M1072.242,5091.467s.3-8.608-.589-10.255-4.023-4.074-4.023-4.074l7.745-10.052s.457,1.613,2.659.446,2.276-1.675,2.276-1.675" fill="none" stroke="#151515" stroke-linecap="round" stroke-linejoin="round" stroke-width="2"/>
      <path id="Path_8950" data-name="Path 8950" d="M1069.782,5078.662s1.909-3.856,3.015,0,4.291-.913,4.291-.913l-.351-1.854h4.292" fill="none" stroke="#151515" stroke-linecap="round" stroke-linejoin="round" stroke-width="2"/>
      <path id="Path_8951" data-name="Path 8951" d="M1075.406,5067.487V5054.74l5.8-8.321,6.577-5.46-5.106-3.306.687-8.443,2.045-.81,16.2.81,2.01-1.259,4.021-2.539a15.889,15.889,0,0,1,3.468,7.808c.541,4.512,3.729,2.519,3.729,2.519v8.982l-10.3,16.688" fill="none" stroke="#151515" stroke-linecap="round" stroke-linejoin="round" stroke-width="2"/>
      <path id="Path_8952" data-name="Path 8952" d="M1107.1,5025.413l3.627-3.15,8.892-.662,7.949.662,5.616,3.15,2.79,1.948,12.454,2.293,3.986-2.293.825-1.563,4.656-1.044,4.061.66,3.5,1.358h2.351l-5.852,8.5v29.805l4.43,5.591" fill="none" stroke="#151515" stroke-linecap="round" stroke-linejoin="round" stroke-width="2"/>
      <path id="Path_8953" data-name="Path 8953" d="M1168.394,5026.75l7.434-3.506,6.235-5.547h10.367l21.56-25.074-8.074.49-22.167-7.125-9.417-8.833-1.317-5.937,4.109-5.718" fill="none" stroke="#151515" stroke-linecap="round" stroke-linejoin="round" stroke-width="2"/>
      <path id="Path_8954" data-name="Path 8954" d="M1173.11,4954.958l-5.377,4.982-.6,5.116-2.55,3.786,1.412,1.687,5.418-.452,1.7.869" fill="none" stroke="#151515" stroke-linecap="round" stroke-linejoin="round" stroke-width="2"/>
      <path id="Path_8955" data-name="Path 8955" d="M1167.826,4959.325,1154.809,4946a24.044,24.044,0,0,0-2.263-1.229c-.4-.114-2.141-.917-2.141-.917s-3.228.1-3.741,0-4.685,0-4.685,0l-.447-1.1-2.86,2.015h-3.088l-2.551-3-2.636,5.959-1.552-2.956h-2.162V4946l-3.8.465v-12.1s2.369-4.433,2.29-5,0-4.176,0-4.176v-1.446h2.354l2.057-2.1,3.936-1.267,2.067-2.511" fill="none" stroke="#151515" stroke-linecap="round" stroke-linejoin="round" stroke-width="2"/>
      <path id="Path_8956" data-name="Path 8956" d="M1122.88,4946.6l-1.153,9.792-3.475,2.88-2.593,3.285-2.643,4.63-.741,4.941-2.858.712-1.886,3.3v14.377l-2.345,1.925h-5.162v2.937l-1.441,1.142,4.715,1.084,1.112-.3,3.121,3.25-.311,1.437,5.055,4.234,4.007,8.375,5.7,2.009-.458,5.221" fill="none" stroke="#151515" stroke-linecap="round" stroke-linejoin="round" stroke-width="2"/>
      <path id="Path_8957" data-name="Path 8957" d="M1107.332,4985.416l-3.437,1.45.433-5.49-2.271-4.191-3.193-.836-2.7-15.851-3-1.052-.268,2.985h-4.871l2.681,2.847.412,6.236-7.657,9.326-7.747-5.05-5.212,1.713.414,2.787-4.731,1.6V4978.1l-8.8.84v2.952l-12.05.35-1.928-3.813h-6.238l-6.593,12.813,2.817,3.057,3.775-.765,1.95,2.666a4.1,4.1,0,0,0,2.108,4.146,56.411,56.411,0,0,1,6.489,4.875l3.337,6.368s4.09.53,4.785,1.849a19.6,19.6,0,0,1,1.239,3.8l.307.822,3.788,3.645s.765,2.534,2.742,2.562a3.466,3.466,0,0,0,2.922-1.631l5.279.759,1.942-1.4,9.1,7.868" fill="none" stroke="#151515" stroke-linecap="round" stroke-linejoin="round" stroke-width="2"/>
      <path id="Path_8958" data-name="Path 8958" d="M1057.056,5017.744h-3.864l-1.156,2.141-2.112-1.892-1.333,1.543-1.33-2.318-8.409.526v1.792l-2.814.606-1.034-1.725-9.638,3.6a5.4,5.4,0,0,0-3.744-1.235c-1.989.27-2.485,3.526-2.485,3.526H1011.1l-4.893-1.777s-1.139,1.463-2.258.97-2.993-3.525-2.993-3.525l-1.138-1.429-3.393-.936-5.727,5.523-.909,6.6-6.388,1.841-4.646-2.245-9.708,6.915-8.247-9.513-2.818-5.224-.938-6.491-.392-2.564,5.009-7.93,2.5-3.543,8.326-1.435,7.9-1.576,4.047-1.367,5.359-.429,2.662-4.446v-2.9l9.835-.95,1.957-2.292,1.891-.242,2.2-3.056,2.26-2.17,1.983-1.164.809-3.583,3.357-2.147,3.614-.215,4.478,6.167,2.28,4.589-.834,3.072.834,3.062,3.528,1.378" fill="none" stroke="#151515" stroke-linecap="round" stroke-linejoin="round" stroke-width="2"/>
      <path id="Path_8959" data-name="Path 8959" d="M940.833,5101.913l1.9-1.7v-3.024l.992-2.086,2.364-1.784-2.364-1.525-1.418,1.281-.917,1.555-3.027,1.69" fill="none" stroke="#151515" stroke-linecap="round" stroke-linejoin="round" stroke-width="2"/>
      <path id="Path_8960" data-name="Path 8960" d="M945.837,5093.556l2.2,1.081,2.531-.364,1.029-1.81,2.6-1.105,1.544.546.873,2.369-.3.7,4.328-1.417,3.314-2.818,3.364-3.5,2.518-2.345,1.184-6.257.757-4.98,4.3-5.447,2.385-2.607,4.187-2.443.543-7.584.729-7.894,1.24-6.966,1.7-3.35,2.864-7.494" fill="none" stroke="#151515" stroke-linecap="round" stroke-linejoin="round" stroke-width="2"/>
      <path id="Path_8961" data-name="Path 8961" d="M969.19,5036.244v8.677l-4.158-2.055h-2.779l-3.782-1.747H947.688l-.929,2.115v5.243l2.355-1.035,1.025-1.452s3.24-.465,4.118,1.13a17.876,17.876,0,0,1,1.345,4.574l-2.065,2.864v3.936l1.51,4.592-1.107,11.321-3.166,2.3-2.357-2.3-3.329-.4-2.356-1.49-3.937,3.074-3.848,2.221.477,5.968-5.348,3.013" fill="none" stroke="#151515" stroke-linecap="round" stroke-linejoin="round" stroke-width="2"/>
      <path id="Path_8962" data-name="Path 8962" d="M947.412,5041.126H932.364v8.278l-13.652.713" fill="none" stroke="#151515" stroke-linecap="round" stroke-linejoin="round" stroke-width="2"/>
      <path id="Path_8963" data-name="Path 8963" d="M919.336,5041.306l13.213-.231" fill="none" stroke="#151515" stroke-linecap="round" stroke-width="2"/>
      <path id="Path_8964" data-name="Path 8964" d="M911.235,5022.692l-.468-2.128,3.455-7.467,4.915-5.85.331-2.247,7.672-.209,3.409,3.279h3.643l5.727-14.588,3.837-3,2.363-7.13,3.088-8.955s1.6-3.835,4.3-4.132,3.43-5.039,3.43-5.039l-.781-2.173a1.768,1.768,0,0,1-1.606-1.6,39.82,39.82,0,0,0-1.042-4.426l1.042-.643,3.856,3.212.958,3.457.57,6.144-.357,4.341,2.553,4.422.855,3.333-3.621.416-3.838-.416-1.446,4.045,3.41,3.95,2.843.783,3.572,11.218" fill="none" stroke="#151515" stroke-linecap="round" stroke-linejoin="round" stroke-width="2"/>
      <path id="Path_8965" data-name="Path 8965" d="M954.1,4956.38l-4.556-5.155-8.307,5.155-2.621.345-1.788-1.406H924.386l-4.631,3.87h-6.03l-5.979-3.87h-2.554l-3.33,3.017h-2.106l-9.016-6.258-10.508.62-1.152,1.736-1.11,3.9-3.369,3.694-.942,2.643v6.335l2.084,3.375-1.142,2.774-.942.7.5,3.72-2.358,1.579-2.283,5.789-1.934,2.565v18.3" fill="none" stroke="#151515" stroke-linecap="round" stroke-linejoin="round" stroke-width="2"/>
      <path id="Path_8966" data-name="Path 8966" d="M873.927,4964.312l-8.058-.7-2.933,5.8h-5.551l-4.161,3.269-.476,4.594,4.19,3.792.811,7.951.877,8.444,1.662,13.109" fill="none" stroke="#151515" stroke-linecap="round" stroke-linejoin="round" stroke-width="2"/>
      <path id="Path_8967" data-name="Path 8967" d="M854.608,5010.946l-2.421-4.6-.333-5.55-.662-10.408-.752-8.6-1.19-3.786-2.979-3.03.8-3.248,6.213.717" fill="none" stroke="#151515" stroke-linecap="round" stroke-linejoin="round" stroke-width="2"/>
      <path id="Path_8968" data-name="Path 8968" d="M822.53,5018.451l.809-4.813.654-1.426-2.228-5.366,1.573-4.559,1.41-1.02.755-6.063,2.843-1.656-1.666-9.959-1.177-11.251,15.652.533,3.075-1.143h4.006" fill="none" stroke="#151515" stroke-linecap="round" stroke-linejoin="round" stroke-width="2"/>
      <path id="Path_8969" data-name="Path 8969" d="M826.58,4984.409l-2.994-3.325-2.642-2.115-5.349,1.123-2.555,2.286-5.852-6.3H802.5l-2.479,1.834V4973.3l-4.033,1.081.478,1.7-3.064,1.3-.944,1.3-1.748-3.22h-2.452l-2.185,1.917-1.556,4.193,1.556,2.379h.87l.42,2.437-.42,2.176,1.314,3.315-4.06-.4v2.379l2.255,1.121-2.255,2.55-2.561.406v2.2l1.438,2.382-2.294,3.8,3.416,2.035h1.334a9.342,9.342,0,0,1,1.831,2.283,8.693,8.693,0,0,0,2.052,2.28,8.356,8.356,0,0,1-.56,4.355c-.944,1.956-.6,5.694-.6,5.694" fill="none" stroke="#151515" stroke-linecap="round" stroke-linejoin="round" stroke-width="2"/>
      <path id="Path_8970" data-name="Path 8970" d="M781.355,4998.126l-1.25-.434-.94,1.91-2.132,1.222-2.886-1.5s1.295-4.2.611-5.412-1.5-2.965-1.5-2.965l-.634-.6h-3.295l-3.546,3.564v2.423l-8.034,6.491" fill="none" stroke="#151515" stroke-linecap="round" stroke-linejoin="round" stroke-width="2"/>
      <path id="Path_8971" data-name="Path 8971" d="M745.815,4985.514s4.269-1.38,5.205-3.3,1.4-2.665,1.4-2.665l7.809-1.081,4.684,4.154,1.2,5.159-.8,4.113,4.153-1.441" fill="none" stroke="#151515" stroke-linecap="round" stroke-linejoin="round" stroke-width="2"/>
      <path id="Path_8972" data-name="Path 8972" d="M786.232,4976.672l-2.33-1.963.282-4.454-2.465.973-.35-1.182,2.532-2.037-3.53-2.444-.77-5.132-.4-1.542-2.266-.648-.609,2.19-1.908.841L774.1,4963l-5.187-2.389L766.466,4963l-1.956-2.57-2.981,1.392v-2.21l.7-.992-.7-5.908-1.444-1.641-2.594-1.835,1.111-4.3-1.111-3.137.5-1.568,3.537-4.177,2.215-4.073,1.858.689,1.747,4.157,1.924.764,3.174-2.388,34.578,1.624,2.062-6.561-3.387-1.185.233-67.023h11.475l-23.5-18.143-1.309,8.864-23.31-1.4-2.355,19.911s-9.492.324-9.722,5.484,0,10.892,0,10.892l-26.425-1.38-2.65,1.38" fill="none" stroke="#151515" stroke-linecap="round" stroke-linejoin="round" stroke-width="2"/>
      <path id="Path_8973" data-name="Path 8973" d="M793.8,4843.915l.595-4.593-29.293-2.067" fill="none" stroke="#151515" stroke-linecap="round" stroke-linejoin="round" stroke-width="2"/>
      <path id="Path_8974" data-name="Path 8974" d="M794.393,4839.66l1.371-8.753,6.666-3.542,1.435.379,3.4-2.467,3.917.731v-2.63s5.343,2.244,9.422-1.479,7.333-4.016,7.333-4.016l5.626-1.614a10.069,10.069,0,0,1-1.722-1.729,28.086,28.086,0,0,1,0-4.41s4.395,1.976,6.553-1.868,11.474,0,11.474,0l2.016-3.823a12.635,12.635,0,0,1-2.526-8.962c.448-5.613.511-6.584.511-6.584l-2.205-1.882-.612-.385" fill="none" stroke="#151515" stroke-linecap="round" stroke-linejoin="round" stroke-width="2"/>
      <path id="Path_8975" data-name="Path 8975" d="M817.407,4862.426l42.151,31.813,1.343,1.954,2.945,2.838a23.042,23.042,0,0,1,3.026,1.7c.854.671.46.829,1.665,1.5s1.536-.839,2.769,0,2.294,1.4,2.546,3.842a23.354,23.354,0,0,1,0,4.577h6.706l14.327-4.577,3.77-3.842,38.939-24.343s-2.768-6.237-4.9-7.4-5.771-1.022-5.771-1.022-1.994.167-2.362-3.216-2.788-5.791-3.127-6.467-1.272-3.777-1.272-3.777l4.4-1.986-1.593-21.288s-5.4-5.735-1.534-6.833,6.715-3.58,5.489-10.133,8.272,3.244,9.654-12.45" fill="none" stroke="#151515" stroke-linecap="round" stroke-linejoin="round" stroke-width="2"/>
      <path id="Path_8976" data-name="Path 8976" d="M922.3,4825.439l-2.268-14.374-5.585-2.615v-3.721s-7.55-6.34-3.626-8.974,2.664-3.521,4.506-4.1,1.573,1.132,1.573,1.132v-17.256" fill="none" stroke="#151515" stroke-linecap="round" stroke-linejoin="round" stroke-width="2"/>
      <path id="Path_8977" data-name="Path 8977" d="M880.359,4910.655v23.982s-2.652.085-3.077,1.493-3.205,1.778-3.266,3.01-15.714.521-15.714.521l-3.507,1.873h-6.372l1.26,4.4.57,3.386,8.644,10.554h3.676l1.987,3.277,1.336.73" fill="none" stroke="#151515" stroke-linecap="round" stroke-linejoin="round" stroke-width="2"/>
      <path id="Path_8978" data-name="Path 8978" d="M807.535,4976.672s-.521-7.045,2.665-9.91a34.386,34.386,0,0,1,5.033-3.932l4.076-8.438s8.2-.287,11.8-3.6a41.618,41.618,0,0,1,6.617-5.04l10.663-4.08" fill="none" stroke="#151515" stroke-linecap="round" stroke-linejoin="round" stroke-width="2"/>
      <path id="Path_8979" data-name="Path 8979" d="M722.452,4952.028h6.136s1.3-1.765,1.532-1.765,6.048-.495,6.743-.589,2.167,1.023,2.964,1.246a25.267,25.267,0,0,0,4.144,0v-1.246l-5.433-.825s-2.525-1.892-2.861-2.043a26.919,26.919,0,0,0-3.811.348l-.925,1.244h-9.254" fill="none" stroke="#151515" stroke-linecap="round" stroke-linejoin="round" stroke-width="2"/>
      <path id="Path_8980" data-name="Path 8980" d="M722.719,4957.8l5.44-.517s3.347-.517,3.608-.534,2.013-.6,2.28-.614,11.129,0,11.129,0,5.706,1.5,5.942,1.665,10.271,1.387,10.271,1.387" fill="none" stroke="#151515" stroke-linecap="round" stroke-linejoin="round" stroke-width="2"/>
      <path id="Path_8981" data-name="Path 8981" d="M744.6,4956.513l-.605,7.733s-8.383-1.181-11.228,5.734" fill="none" stroke="#151515" stroke-linecap="round" stroke-linejoin="round" stroke-width="2"/>
      <path id="Path_8982" data-name="Path 8982" d="M1180.385,5187s-.907,4.979-2.481,6.968-3.061,3.784-3.061,3.784,2.943,2.033,3.39,8.079a74.409,74.409,0,0,1,.3,8.534l-4.612,8.289a34.082,34.082,0,0,1-4.67,6.042,8.412,8.412,0,0,0-2.7,6.432c.116,1.8.445,5.369,1.411,7.473a9.988,9.988,0,0,1,.929,3.951l-.585,7.367a21.93,21.93,0,0,0,3.444,5.315,28.945,28.945,0,0,0,4.527,3.3h2.809s3.366-2.79,6.709-2.54a7.716,7.716,0,0,0,5.115-1.139l6.177-13.021,16.9-35.946.746-4.894s2.706-8.855,4.266-10.383,1.954-1.59,1.689-3.618a17.286,17.286,0,0,1,0-4l.434-2.9s1.515-1.493,1.979.5.556,2.737.556,2.737a1.923,1.923,0,0,0,1.807-2.035c-.139-1.858-2.362-24.753-2.362-24.753l-4.1-3.854-2.551,1.6-.716,4.957-1,2.992-1.908-.741V5167l-2.117,2.52-1.568-2.016s-.321-.969-.682,1.533,0,3.311,0,3.311l-2.478,2.473,2.478,2.128h-2.478l-1.861,1.865.557-3.111-3.684,3.833,1.205,3.839-2.955-.609.419-1.352-5.273.527s.191,2.5.78,2.981.713,2.079.713,2.079l-2.4-.45-3.725-1.942-1.146,1.531-1.448.861V5184.6l-2.873,1.942Z" fill="none" stroke="#151515" stroke-linecap="round" stroke-linejoin="round" stroke-width="2"/>
      <path id="Path_8983" data-name="Path 8983" d="M1020.307,4973v-3.827l-3.458-9.935h-3.389l.848-4.806,2.541-4.84v-4.246s4.469-4.128,4.469-4.9a18.853,18.853,0,0,0-1.011-3.412h9.26s-2.751-34.537-1.615-34.373,8.064,0,8.064,0l-4.261-68.8s-3.436-1.553-2.188-8.983-3.9-8.271,0-10.771" fill="none" stroke="#151515" stroke-linecap="round" stroke-linejoin="round" stroke-width="2"/>
      <path id="Path_8984" data-name="Path 8984" d="M1035.2,4888.344l59.491-1.884,2.927,1.884h3.315v-4.56h4.592v-4.35h3.979" fill="none" stroke="#151515" stroke-linecap="round" stroke-linejoin="round" stroke-width="2"/>
      <path id="Path_8985" data-name="Path 8985" d="M1027.3,4907.538l-58.95-28.576-9.2,2.8s-1.629-3.723-7.3-3.767-14.218,0-14.218,0" fill="none" stroke="#151515" stroke-linecap="round" stroke-linejoin="round" stroke-width="2"/>
      <path id="Path_8986" data-name="Path 8986" d="M950.4,4952.513a8.231,8.231,0,0,1,0-7.308c1.954-3.776,14.544-17.842,14.544-17.842s.777-23.183,3.278-26.49-8.685,4.781-7.794-18.889" fill="none" stroke="#151515" stroke-linecap="round" stroke-linejoin="round" stroke-width="2"/>
    </g>
    <g id="africa-2" data-name="africa">
      <path id="Path_8937-2" data-name="Path 8937" d="M971.819,5278.753s3.948,7.2,4.77,9.884,2.833,4.05,3.742,6.752,1.325,2.493,2.259,5.237,1.268,2.537.968,3.95a32.966,32.966,0,0,1-.968,3.538c-.233.667-1.355.991-1.455,1.673s-1.359.749,1.455,5.09-.158,6.9,5.438,7.829,6.825,1.432,8.14,1.549,4.314-1.037,5.954-1.549,1.092-.809,3.343-1.32-3.007-1.708,6.1-1.213,10.32-.5,10.9,0-.848,2.411,4.34,0a55.045,55.045,0,0,1,9.513-3.428c1.1-.313,2.268.039,4.489,0s4.346,0,4.346,0,30.731-30.34,32.115-32.071a11.026,11.026,0,0,1,2.616-2.631c1.021-.792,2.614-1.817,4.69-3.291s4.019-15.048,4.019-15.048-.414-1.37,0-1.875-1.409-.667-.83-2.742,15.65-8.006,16.482-8.513,2.456-.708,3.326-2.638,2.014-2.222,1.5-4.246-2.335-4.09-1.5-5.995.843-3.271,1.5-4.109,1.13-5.323,0-8.62-.3-3.544-1.5-5.686,0-6.816,0-6.816l12.055-8.694s3.54-2.444,4.414-3.781.71-1.717,1.934-2.375a25.416,25.416,0,0,1,3.326-1.335s9.047-5.877,13.149-8.039,4.585-.776,7.636-5.264,4.238-6.416,4.663-8.546,1.377-20.976,0-23.9,0-8.389,0-8.389,7.238,14.841,0-7.558-3.042-28.861-4.663-30.788-1.716-3.844,0-8.312,10.965-20.362,10.965-20.362l6.013-4.689s27.759-29.929,29.5-31a33.622,33.622,0,0,0,9.248-6.548c5.347-5.01,5.159-3.688,7.49-7.41s2.2-2.967,4.838-7.35,10.98-8.8,8.857-11.568-.8-4.083,0-6.907-4.944-6.738,0-9.527,7.168-12.217,7.168-12.217-.761-1.537,0-4.513a13.829,13.829,0,0,0,0-6.01v-5.907s-6.729-2.342-7.168,0,7.451-.134,0,3.456-23.371,5.565-23.371,5.565l-17.125,2.9a3.96,3.96,0,0,0-3.295-2.9c-2.671-.3-3.947-.407-5.13-3.113s-2.955-2.452-2.955-2.452,1.218-.086,0-3.456,5.427-2.658,0-5.473-3.557-3.98-8.061-7.456-16.672-7.948-16.978-9.076-7.626-3.4-7.636-6.038-.429-2.816-2.184-6.619a59.963,59.963,0,0,0-3.8-7.107c-1.063-1.773,1.4,1.7-4.649-7.694s-4.836-7.764-7.774-14.9-2.911-11.14-4.414-12.472-10.559-6.252-10.559-6.252v-7.53l-14.334-23.908v-4.419l-3.975-4.513-4.284-7.52s-3.068-9.8,0-3.828,11.41,15.861,11.41,15.861-1.7-.763,0-4.513a35.227,35.227,0,0,0,2.357-7.52s-.116-3.588,0-3.828,1.1-.865,0-2.674-5.509-8.223-5.509-8.223-1.837.623-8.259,0-17.2,0-17.2,0-2.159-1.082-5.972,0,.112-1.781-5.585,0-13.175,0-13.175,0h-6.877s-3.437,3.312-5.987,0-5.928-7.124-8.157-7.392-12.449,0-12.449,0,.2-.319-4.333,0-12.193,7.392-12.193,7.392.038,2.191,0,5.849-10.126.227-13.4,0-6.353-1.925-9.087-2.707-9.881-3.143-9.881-3.143l-2.442-5.012s-5.483-1.659-7.382-2.38-9.991-2.724-12.095-3.583-2.458-1.182-5.278-2.4-8.2-2.444-8.95-4.784.171-3.359,3.354-6.35,0-12.45,0-12.45,15.968,3.6,5.6-2.4a19.713,19.713,0,0,0-19.7,0s-10.911-5.726-29.154-2.378-28.647,4.773-28.647,4.773a9.061,9.061,0,0,1-2.576,4.146c-2.172,2.151-2.824,2.68-5.2,3.379s-8.169,0-8.169,0,2.592-1.805-5.026-3.379-10.49-4.146-10.49-4.146l-7.107,4.146s2.836,1.715,0,3.379a13.446,13.446,0,0,0-4.479,4.924s-14.021,4.436-14.945,6.35-1.714,1.324-3.958,4.784-1.858,1.978-3.187,5.985-2.379,3.316-2.493,7.392,3.088,3.522,0,6.141-3.592,3.517-5.654,5.317-11.9,7.084-11.9,7.084.055-2.23-3.547,0-9.426,9.548-9.426,9.548l-4.393,3.307s-.655.09-2.414,2.454-3.069,3.833-3.2,5.66-1.961,3.77-2.413,4.729-1.716,2.983-1.716,2.983-10.707,10.065-11.147,11.054-.9,1.651-2.28,4.592-1.361,1.371-2.828,6.1-.38,4.823,0,5.948.962.5,1.139,3.556.52,5.414,0,6.786-.279.875,0,3.553,3.083,4.581,1.689,7.146-1.2,3.889-1.689,7.26-2.538,6.1-3.366,7.357-1.447,4.3-1.854,5.243.077,1.361-1.795,3.753-3.366,3.373-3.561,4.522-2.069,1.56,0,3.987,3.561,15.476,3.561,15.476-.664.865,1.795,2.8a29.184,29.184,0,0,1,6.909,7.015c2.465,3.517.252,3.187,2.28,4.346a22.516,22.516,0,0,1,4.905,3.125c3.134,2.434,3.077.953,3.92,3.124s3.824,6.4,4.038,7.653-.275,1.24,0,3.885,11.89,12.946,13.973,13.635,1.936-.3,5.536,2.51,2.863,7.229,10.874,11.611,7.813,4.188,10.275,4.188h5.323s13.182-4.269,15.809-4.187-7.708-.176,6.119,0,14.315-1.193,15.526,0-2.234.7,6.206,0,9.473.334,11.889-1.963,1.425-2.787,4.185-4.017-13.531-.309,5.258-2.129,20.617-2.672,21.907-1.739.888,2.411,3.783,3.869,3.218,12.1,10.177,11.408,9.092-1.1,10.653-1.24-.638.142,3.2,0,4.341-1.527,5.6,0,3.091,4.171,4.536,6.313,2.949,4.6,2.949,4.6l-2.949,14.977s1.463.634,1.577,3.458.485-1.328-1.577,4.531-4.536,6.961-4.536,6.961v1.2l16.605,21.473a22.113,22.113,0,0,1,2.516,2.206c1.546,1.528,5.917,7.189,5.917,7.189s9.5,23.209,9.091,27.315-1.437,6.71,0,8.007,2.824,4.209,3.542,6.042a12.785,12.785,0,0,1,1.2,5.793c-.064,2.592-10.452,18.8-11.616,22.2s-.822,6.708-2.221,11.567-1.761,3.63-1.739,6.731,3.96,24.479,3.96,24.479,5.36,6.65,6.87,7.542,2.724,3.015,3.542,3.9,7.149,22.861,7.149,22.861a3.274,3.274,0,0,0,0,3.2,92.746,92.746,0,0,1,3.844,9.455c1.521,4.042,2.006,5.215,1.924,7.213s-.381,4.146,0,5.084a16.429,16.429,0,0,0,2.164,3.917C967.165,5273.046,971.819,5278.753,971.819,5278.753Z" fill="none" stroke="#151515" stroke-linecap="round" stroke-linejoin="round" stroke-width="2"/>
      <path id="Path_8938-2" data-name="Path 8938" d="M937.315,5189.811a6.39,6.39,0,0,1,3.139-1.315c1.455,0,4.733.076,5.851-.425s-.507-1.961,2.775-1.152,5.359,3.76,5.867,4.313,1.347.78,6.051,1.369,11.622-.964,15.872-.911a66.52,66.52,0,0,1,8.357.41,12.886,12.886,0,0,1,4.089,1.037c1.78.863-.27,1.859,4.977,2.142s3.863-.249,8.029-.408a26.884,26.884,0,0,1,4.746,0l9.617-1.734,5.59-.536a10.527,10.527,0,0,0-3.6-3.848c-2.477-1.546-3.658-1.247-4.293-3.74s-1.43-14.653-1.093-16.609-.665-10.21,0-10.233,17.318.728,16.85-.423-1.5-2.577-1.614-3.8,1.614-12.72,1.614-12.72-12.256.585-12.473.94.306,2.856-.98,2.49a9.327,9.327,0,0,1-2.94-2.022l2.94-4.729-4.122-8.875-.467-15.856h-5.545s-1.979-3.941-2.553-3.836,1.468-.62-1.538.726-4.123,1.729-4.512,1.729-3.16-2.361-3.082,0-.431,7.251-.936,7.374-6.5,1.192-7.926,1.4a24.374,24.374,0,0,1-3.168,0c-.436.079-8.078-9.267-10.037-14.909s-16.6-3.23-16.6-3.23-8.183-.392-8.536,0a55.889,55.889,0,0,1-5.289,2.5h-.557" fill="none" stroke="#151515" stroke-linecap="round" stroke-linejoin="round" stroke-width="2"/>
      <path id="Path_8939-2" data-name="Path 8939" d="M1022.291,5192.95s3.181-.244,3.979-.394,5.748-.986,7.13-1.254,2.723,2.3,2.723,2.3l-6.878,3.262s-4.815,3.183-4.883,3.4-2.07-4.239-2.07-4.239l-17.361,3.212-.623,27.227h-7.848l-1.095,49.938-4.869,3.6s-9.605-.283-10.7.281,0-6.78-4.47-5.712-4.141,2.975-4.141,2.975" fill="none" stroke="#151515" stroke-linecap="round" stroke-linejoin="round" stroke-width="2"/>
      <path id="Path_8940-2" data-name="Path 8940" d="M996.261,5246.825l6.168,7.706v6.691l8.912,1.779s5.214-8.149,7.116-8.47,2.8-1.089,4.789-1.835,1.085.417,6.789,1.1a33.516,33.516,0,0,0,8.316,0c.42.152-7.027,3.481,1.093-3.42s26.324-22.324,26.324-22.324" fill="none" stroke="#151515" stroke-linecap="round" stroke-linejoin="round" stroke-width="2"/>
      <path id="Path_8941-2" data-name="Path 8941" d="M1053.148,5293.255a10.533,10.533,0,0,0,2.222-1.515,4.681,4.681,0,0,1,2.612-1.485c1.816-.522,2.529-1.064,3.123-2.081s1.264-1.76,1.264-2.834.178-1.463-.443-2.237a19.633,19.633,0,0,0-1.555-2.328c-1.1-1.262,1.38-4.9-3.2-2.67s-5.508,2.249-6.442,3.108-3.212,2.01-3.792,2.669-.869.417-1.031,1.876-.562.99,0,2.417a8.532,8.532,0,0,0,2.174,3.566,6.472,6.472,0,0,0,2.649,2.046C1051.6,5294.173,1053.148,5293.255,1053.148,5293.255Z" fill="none" stroke="#151515" stroke-linecap="round" stroke-linejoin="round" stroke-width="2"/>
      <path id="Path_8942-2" data-name="Path 8942" d="M1087.729,5265.81a22.74,22.74,0,0,1-3.431-.31c-.8-.216-.672-.526-1.385-.284s-1.589.94-3.1,1.7-1.567,1.058-3.2,1.23-2.423-.231-2.165-2.332a19.882,19.882,0,0,1,1.189-5.583c.758-1.812,1.847-2.979,3.193-3.245s4.084,1.571,4.084,1.571" fill="none" stroke="#151515" stroke-linecap="round" stroke-linejoin="round" stroke-width="2"/>
      <path id="Path_8943-2" data-name="Path 8943" d="M1082.844,5265.11l-1.2-32.394s-4.871-2.579-5.5-2.7-2.024.073-2.35,0-1.73.571-2.075.447-6.923-2.41-6.923-2.41-4.194-1.844-5.045-2.174-3.746-1.294-3.746-1.294l-1.356-8.378-2.9-1.64-4.233-3.127-6.707-7.849-.526-2.321-4.461-7.506" fill="none" stroke="#151515" stroke-linecap="round" stroke-linejoin="round" stroke-width="2"/>
      <path id="Path_8944-2" data-name="Path 8944" d="M1037.177,5195.36l9.63.5,1.647.553,7.628-6.984,7.215-3.6v-4.66s5.468-2.819,9.384-2.665,2.848.7,2.848.7v1.964h5.915l12.8,4.66s-.356,10.03,0,10.583.4.785,0,3.175-1.643,5.513-1.709,6.252a14.9,14.9,0,0,0,0,2.62c.077,1.647-.762,2.225,0,3.4s2.032.965,0,3.152-1.659,1.931-2.6,4.5-1.35,4.236-2.087,5.052-2.109,2.6-2.7,3.318-2.922,3.563-2.922,3.563l-.787,1.439" fill="none" stroke="#151515" stroke-linecap="round" stroke-linejoin="round" stroke-width="2"/>
      <path id="Path_8945-2" data-name="Path 8945" d="M1075.454,5178.5l-1.581-3.948,21.467-6.642,1.833-.567s2.263.359,2.382.625-.361-.737.7,1.171.007,2.08,1.61,2.119,3.43-.108,3.913,0,.143-.748,1.039,0,1.439.372,1.558,1.042-1,2.919-.972,3.95.985,1.365,0,3.167-1.339,1.939-1.21,2.459,1.184,1.783,1.21,2.053.2.187.972,1.959,2.727,3.2,2.854,3.521a20.429,20.429,0,0,1,.345,2.118l1.526-.607v-6.252l4-1.548s3.636-5.635,1.8-9.164-10.529-13.01-10.529-13.01l1.934-13.035-4.53-15.16-7.536-1.988,5.339,10.329-1.716,1.524-1.61,10.076,1.61,2.767-3.623,1.107-3.463,7.091,1.488,2.418,3.726,3.583" fill="none" stroke="#151515" stroke-linecap="round" stroke-linejoin="round" stroke-width="2"/>
      <path id="Path_8946-2" data-name="Path 8946" d="M1111.23,5148.449a33.6,33.6,0,0,0,6.18,0c1.86-.36,1.563.251,2.573,0s.8-.167,3.417.586,3.728,2.279,6.484,1.032,3.023-1.755,4.747-2.355.536-1.1,4.106-1.446a34.255,34.255,0,0,0,6.143-.752c3.206-.672,2.576-1.628,7.284-2.511s2.511-.848,2.511-.848" fill="none" stroke="#151515" stroke-linecap="round" stroke-linejoin="round" stroke-width="2"/>
      <path id="Path_8947-2" data-name="Path 8947" d="M1097.535,5130.768a56.275,56.275,0,0,0-5.36-2.584c-.722-.117-.181,1.786-2.016,0s-1.939-2.017-2.612-2.35a19.535,19.535,0,0,0-2.148-1.093c-1.4-.6-4.792-4.256-4.792-4.256l-11.958,4.256s-2.727,3.579-2.727,4.349.709,2.4,1.063,4.346a7.49,7.49,0,0,1,0,4.111,21.852,21.852,0,0,1-1.063,3.587c-.93,2.438-1.774,3.227-1.892,4.867s-.348,2.413,0,2.846,4.087,1.9,4.618,2.332,1.684,1.306,2.425.935,1.662,3.14,1.662,3.14v5.314s-6.555-1.786-6.813-1.861-.507.566-1.892-1a13.83,13.83,0,0,0-2.837-2.451,4.729,4.729,0,0,0-1.483-3.14c-1.4-1.15.286-.626-2.938-1.6a40.1,40.1,0,0,1-4.716-1.666s.368.316-.619,0-.7-.281-3.778,0-3.042,1.615-4.035,0,.111-1.784-2.275-2.846a9.493,9.493,0,0,1-3.52-2.558l-4,.734-1.762-3.044H1029.7" fill="none" stroke="#151515" stroke-linecap="round" stroke-linejoin="round" stroke-width="2"/>
      <path id="Path_8948-2" data-name="Path 8948" d="M1149.684,5095.138s-11.052-6.742-11.425-7.3-2.529-6.644-2.529-6.644l-31.105-19.852-3.208,4.026-20.876.866,3.4,6.614s-4.9,1.954-.913,8.346-10.787,10.467-10.787,10.467.063,10.329,1.481,13.827a62.053,62.053,0,0,0,5.208,8.945l1.608,3.558v2.447" fill="none" stroke="#151515" stroke-linecap="round" stroke-linejoin="round" stroke-width="2"/>
      <path id="Path_8949-2" data-name="Path 8949" d="M1072.242,5091.467s.3-8.608-.589-10.255-4.023-4.074-4.023-4.074l7.745-10.052s.457,1.613,2.659.446,2.276-1.675,2.276-1.675" fill="none" stroke="#151515" stroke-linecap="round" stroke-linejoin="round" stroke-width="2"/>
      <path id="Path_8950-2" data-name="Path 8950" d="M1069.782,5078.662s1.909-3.856,3.015,0,4.291-.913,4.291-.913l-.351-1.854h4.292" fill="none" stroke="#151515" stroke-linecap="round" stroke-linejoin="round" stroke-width="2"/>
      <path id="Path_8951-2" data-name="Path 8951" d="M1075.406,5067.487V5054.74l5.8-8.321,6.577-5.46-5.106-3.306.687-8.443,2.045-.81,16.2.81,2.01-1.259,4.021-2.539a15.889,15.889,0,0,1,3.468,7.808c.541,4.512,3.729,2.519,3.729,2.519v8.982l-10.3,16.688" fill="none" stroke="#151515" stroke-linecap="round" stroke-linejoin="round" stroke-width="2"/>
      <path id="Path_8952-2" data-name="Path 8952" d="M1107.1,5025.413l3.627-3.15,8.892-.662,7.949.662,5.616,3.15,2.79,1.948,12.454,2.293,3.986-2.293.825-1.563,4.656-1.044,4.061.66,3.5,1.358h2.351l-5.852,8.5v29.805l4.43,5.591" fill="none" stroke="#151515" stroke-linecap="round" stroke-linejoin="round" stroke-width="2"/>
      <path id="Path_8953-2" data-name="Path 8953" d="M1168.394,5026.75l7.434-3.506,6.235-5.547h10.367l21.56-25.074-8.074.49-22.167-7.125-9.417-8.833-1.317-5.937,4.109-5.718" fill="none" stroke="#151515" stroke-linecap="round" stroke-linejoin="round" stroke-width="2"/>
      <path id="Path_8954-2" data-name="Path 8954" d="M1173.11,4954.958l-5.377,4.982-.6,5.116-2.55,3.786,1.412,1.687,5.418-.452,1.7.869" fill="none" stroke="#151515" stroke-linecap="round" stroke-linejoin="round" stroke-width="2"/>
      <path id="Path_8955-2" data-name="Path 8955" d="M1167.826,4959.325,1154.809,4946a24.044,24.044,0,0,0-2.263-1.229c-.4-.114-2.141-.917-2.141-.917s-3.228.1-3.741,0-4.685,0-4.685,0l-.447-1.1-2.86,2.015h-3.088l-2.551-3-2.636,5.959-1.552-2.956h-2.162V4946l-3.8.465v-12.1s2.369-4.433,2.29-5,0-4.176,0-4.176v-1.446h2.354l2.057-2.1,3.936-1.267,2.067-2.511" fill="none" stroke="#151515" stroke-linecap="round" stroke-linejoin="round" stroke-width="2"/>
      <path id="Path_8956-2" data-name="Path 8956" d="M1122.88,4946.6l-1.153,9.792-3.475,2.88-2.593,3.285-2.643,4.63-.741,4.941-2.858.712-1.886,3.3v14.377l-2.345,1.925h-5.162v2.937l-1.441,1.142,4.715,1.084,1.112-.3,3.121,3.25-.311,1.437,5.055,4.234,4.007,8.375,5.7,2.009-.458,5.221" fill="none" stroke="#151515" stroke-linecap="round" stroke-linejoin="round" stroke-width="2"/>
      <path id="Path_8957-2" data-name="Path 8957" d="M1107.332,4985.416l-3.437,1.45.433-5.49-2.271-4.191-3.193-.836-2.7-15.851-3-1.052-.268,2.985h-4.871l2.681,2.847.412,6.236-7.657,9.326-7.747-5.05-5.212,1.713.414,2.787-4.731,1.6V4978.1l-8.8.84v2.952l-12.05.35-1.928-3.813h-6.238l-6.593,12.813,2.817,3.057,3.775-.765,1.95,2.666a4.1,4.1,0,0,0,2.108,4.146,56.411,56.411,0,0,1,6.489,4.875l3.337,6.368s4.09.53,4.785,1.849a19.6,19.6,0,0,1,1.239,3.8l.307.822,3.788,3.645s.765,2.534,2.742,2.562a3.466,3.466,0,0,0,2.922-1.631l5.279.759,1.942-1.4,9.1,7.868" fill="none" stroke="#151515" stroke-linecap="round" stroke-linejoin="round" stroke-width="2"/>
      <path id="Path_8958-2" data-name="Path 8958" d="M1057.056,5017.744h-3.864l-1.156,2.141-2.112-1.892-1.333,1.543-1.33-2.318-8.409.526v1.792l-2.814.606-1.034-1.725-9.638,3.6a5.4,5.4,0,0,0-3.744-1.235c-1.989.27-2.485,3.526-2.485,3.526H1011.1l-4.893-1.777s-1.139,1.463-2.258.97-2.993-3.525-2.993-3.525l-1.138-1.429-3.393-.936-5.727,5.523-.909,6.6-6.388,1.841-4.646-2.245-9.708,6.915-8.247-9.513-2.818-5.224-.938-6.491-.392-2.564,5.009-7.93,2.5-3.543,8.326-1.435,7.9-1.576,4.047-1.367,5.359-.429,2.662-4.446v-2.9l9.835-.95,1.957-2.292,1.891-.242,2.2-3.056,2.26-2.17,1.983-1.164.809-3.583,3.357-2.147,3.614-.215,4.478,6.167,2.28,4.589-.834,3.072.834,3.062,3.528,1.378" fill="none" stroke="#151515" stroke-linecap="round" stroke-linejoin="round" stroke-width="2"/>
      <path id="Path_8959-2" data-name="Path 8959" d="M940.833,5101.913l1.9-1.7v-3.024l.992-2.086,2.364-1.784-2.364-1.525-1.418,1.281-.917,1.555-3.027,1.69" fill="none" stroke="#151515" stroke-linecap="round" stroke-linejoin="round" stroke-width="2"/>
      <path id="Path_8960-2" data-name="Path 8960" d="M945.837,5093.556l2.2,1.081,2.531-.364,1.029-1.81,2.6-1.105,1.544.546.873,2.369-.3.7,4.328-1.417,3.314-2.818,3.364-3.5,2.518-2.345,1.184-6.257.757-4.98,4.3-5.447,2.385-2.607,4.187-2.443.543-7.584.729-7.894,1.24-6.966,1.7-3.35,2.864-7.494" fill="none" stroke="#151515" stroke-linecap="round" stroke-linejoin="round" stroke-width="2"/>
      <path id="Path_8961-2" data-name="Path 8961" d="M969.19,5036.244v8.677l-4.158-2.055h-2.779l-3.782-1.747H947.688l-.929,2.115v5.243l2.355-1.035,1.025-1.452s3.24-.465,4.118,1.13a17.876,17.876,0,0,1,1.345,4.574l-2.065,2.864v3.936l1.51,4.592-1.107,11.321-3.166,2.3-2.357-2.3-3.329-.4-2.356-1.49-3.937,3.074-3.848,2.221.477,5.968-5.348,3.013" fill="none" stroke="#151515" stroke-linecap="round" stroke-linejoin="round" stroke-width="2"/>
      <path id="Path_8962-2" data-name="Path 8962" d="M947.412,5041.126H932.364v8.278l-13.652.713" fill="none" stroke="#151515" stroke-linecap="round" stroke-linejoin="round" stroke-width="2"/>
      <path id="Path_8963-2" data-name="Path 8963" d="M919.336,5041.306l13.213-.231" fill="none" stroke="#151515" stroke-linecap="round" stroke-width="2"/>
      <path id="Path_8964-2" data-name="Path 8964" d="M911.235,5022.692l-.468-2.128,3.455-7.467,4.915-5.85.331-2.247,7.672-.209,3.409,3.279h3.643l5.727-14.588,3.837-3,2.363-7.13,3.088-8.955s1.6-3.835,4.3-4.132,3.43-5.039,3.43-5.039l-.781-2.173a1.768,1.768,0,0,1-1.606-1.6,39.82,39.82,0,0,0-1.042-4.426l1.042-.643,3.856,3.212.958,3.457.57,6.144-.357,4.341,2.553,4.422.855,3.333-3.621.416-3.838-.416-1.446,4.045,3.41,3.95,2.843.783,3.572,11.218" fill="none" stroke="#151515" stroke-linecap="round" stroke-linejoin="round" stroke-width="2"/>
      <path id="Path_8965-2" data-name="Path 8965" d="M954.1,4956.38l-4.556-5.155-8.307,5.155-2.621.345-1.788-1.406H924.386l-4.631,3.87h-6.03l-5.979-3.87h-2.554l-3.33,3.017h-2.106l-9.016-6.258-10.508.62-1.152,1.736-1.11,3.9-3.369,3.694-.942,2.643v6.335l2.084,3.375-1.142,2.774-.942.7.5,3.72-2.358,1.579-2.283,5.789-1.934,2.565v18.3" fill="none" stroke="#151515" stroke-linecap="round" stroke-linejoin="round" stroke-width="2"/>
      <path id="Path_8966-2" data-name="Path 8966" d="M873.927,4964.312l-8.058-.7-2.933,5.8h-5.551l-4.161,3.269-.476,4.594,4.19,3.792.811,7.951.877,8.444,1.662,13.109" fill="none" stroke="#151515" stroke-linecap="round" stroke-linejoin="round" stroke-width="2"/>
      <path id="Path_8967-2" data-name="Path 8967" d="M854.608,5010.946l-2.421-4.6-.333-5.55-.662-10.408-.752-8.6-1.19-3.786-2.979-3.03.8-3.248,6.213.717" fill="none" stroke="#151515" stroke-linecap="round" stroke-linejoin="round" stroke-width="2"/>
      <path id="Path_8968-2" data-name="Path 8968" d="M822.53,5018.451l.809-4.813.654-1.426-2.228-5.366,1.573-4.559,1.41-1.02.755-6.063,2.843-1.656-1.666-9.959-1.177-11.251,15.652.533,3.075-1.143h4.006" fill="none" stroke="#151515" stroke-linecap="round" stroke-linejoin="round" stroke-width="2"/>
      <path id="Path_8969-2" data-name="Path 8969" d="M826.58,4984.409l-2.994-3.325-2.642-2.115-5.349,1.123-2.555,2.286-5.852-6.3H802.5l-2.479,1.834V4973.3l-4.033,1.081.478,1.7-3.064,1.3-.944,1.3-1.748-3.22h-2.452l-2.185,1.917-1.556,4.193,1.556,2.379h.87l.42,2.437-.42,2.176,1.314,3.315-4.06-.4v2.379l2.255,1.121-2.255,2.55-2.561.406v2.2l1.438,2.382-2.294,3.8,3.416,2.035h1.334a9.342,9.342,0,0,1,1.831,2.283,8.693,8.693,0,0,0,2.052,2.28,8.356,8.356,0,0,1-.56,4.355c-.944,1.956-.6,5.694-.6,5.694" fill="none" stroke="#151515" stroke-linecap="round" stroke-linejoin="round" stroke-width="2"/>
      <path id="Path_8970-2" data-name="Path 8970" d="M781.355,4998.126l-1.25-.434-.94,1.91-2.132,1.222-2.886-1.5s1.295-4.2.611-5.412-1.5-2.965-1.5-2.965l-.634-.6h-3.295l-3.546,3.564v2.423l-8.034,6.491" fill="none" stroke="#151515" stroke-linecap="round" stroke-linejoin="round" stroke-width="2"/>
      <path id="Path_8971-2" data-name="Path 8971" d="M745.815,4985.514s4.269-1.38,5.205-3.3,1.4-2.665,1.4-2.665l7.809-1.081,4.684,4.154,1.2,5.159-.8,4.113,4.153-1.441" fill="none" stroke="#151515" stroke-linecap="round" stroke-linejoin="round" stroke-width="2"/>
      <path id="Path_8972-2" data-name="Path 8972" d="M786.232,4976.672l-2.33-1.963.282-4.454-2.465.973-.35-1.182,2.532-2.037-3.53-2.444-.77-5.132-.4-1.542-2.266-.648-.609,2.19-1.908.841L774.1,4963l-5.187-2.389L766.466,4963l-1.956-2.57-2.981,1.392v-2.21l.7-.992-.7-5.908-1.444-1.641-2.594-1.835,1.111-4.3-1.111-3.137.5-1.568,3.537-4.177,2.215-4.073,1.858.689,1.747,4.157,1.924.764,3.174-2.388,34.578,1.624,2.062-6.561-3.387-1.185.233-67.023h11.475l-23.5-18.143-1.309,8.864-23.31-1.4-2.355,19.911s-9.492.324-9.722,5.484,0,10.892,0,10.892l-26.425-1.38-2.65,1.38" fill="none" stroke="#151515" stroke-linecap="round" stroke-linejoin="round" stroke-width="2"/>
      <path id="Path_8973-2" data-name="Path 8973" d="M793.8,4843.915l.595-4.593-29.293-2.067" fill="none" stroke="#151515" stroke-linecap="round" stroke-linejoin="round" stroke-width="2"/>
      <path id="Path_8974-2" data-name="Path 8974" d="M794.393,4839.66l1.371-8.753,6.666-3.542,1.435.379,3.4-2.467,3.917.731v-2.63s5.343,2.244,9.422-1.479,7.333-4.016,7.333-4.016l5.626-1.614a10.069,10.069,0,0,1-1.722-1.729,28.086,28.086,0,0,1,0-4.41s4.395,1.976,6.553-1.868,11.474,0,11.474,0l2.016-3.823a12.635,12.635,0,0,1-2.526-8.962c.448-5.613.511-6.584.511-6.584l-2.205-1.882-.612-.385" fill="none" stroke="#151515" stroke-linecap="round" stroke-linejoin="round" stroke-width="2"/>
      <path id="Path_8975-2" data-name="Path 8975" d="M817.407,4862.426l42.151,31.813,1.343,1.954,2.945,2.838a23.042,23.042,0,0,1,3.026,1.7c.854.671.46.829,1.665,1.5s1.536-.839,2.769,0,2.294,1.4,2.546,3.842a23.354,23.354,0,0,1,0,4.577h6.706l14.327-4.577,3.77-3.842,38.939-24.343s-2.768-6.237-4.9-7.4-5.771-1.022-5.771-1.022-1.994.167-2.362-3.216-2.788-5.791-3.127-6.467-1.272-3.777-1.272-3.777l4.4-1.986-1.593-21.288s-5.4-5.735-1.534-6.833,6.715-3.58,5.489-10.133,8.272,3.244,9.654-12.45" fill="none" stroke="#151515" stroke-linecap="round" stroke-linejoin="round" stroke-width="2"/>
      <path id="Path_8976-2" data-name="Path 8976" d="M922.3,4825.439l-2.268-14.374-5.585-2.615v-3.721s-7.55-6.34-3.626-8.974,2.664-3.521,4.506-4.1,1.573,1.132,1.573,1.132v-17.256" fill="none" stroke="#151515" stroke-linecap="round" stroke-linejoin="round" stroke-width="2"/>
      <path id="Path_8977-2" data-name="Path 8977" d="M880.359,4910.655v23.982s-2.652.085-3.077,1.493-3.205,1.778-3.266,3.01-15.714.521-15.714.521l-3.507,1.873h-6.372l1.26,4.4.57,3.386,8.644,10.554h3.676l1.987,3.277,1.336.73" fill="none" stroke="#151515" stroke-linecap="round" stroke-linejoin="round" stroke-width="2"/>
      <path id="Path_8978-2" data-name="Path 8978" d="M807.535,4976.672s-.521-7.045,2.665-9.91a34.386,34.386,0,0,1,5.033-3.932l4.076-8.438s8.2-.287,11.8-3.6a41.618,41.618,0,0,1,6.617-5.04l10.663-4.08" fill="none" stroke="#151515" stroke-linecap="round" stroke-linejoin="round" stroke-width="2"/>
      <path id="Path_8979-2" data-name="Path 8979" d="M722.452,4952.028h6.136s1.3-1.765,1.532-1.765,6.048-.495,6.743-.589,2.167,1.023,2.964,1.246a25.267,25.267,0,0,0,4.144,0v-1.246l-5.433-.825s-2.525-1.892-2.861-2.043a26.919,26.919,0,0,0-3.811.348l-.925,1.244h-9.254" fill="none" stroke="#151515" stroke-linecap="round" stroke-linejoin="round" stroke-width="2"/>
      <path id="Path_8980-2" data-name="Path 8980" d="M722.719,4957.8l5.44-.517s3.347-.517,3.608-.534,2.013-.6,2.28-.614,11.129,0,11.129,0,5.706,1.5,5.942,1.665,10.271,1.387,10.271,1.387" fill="none" stroke="#151515" stroke-linecap="round" stroke-linejoin="round" stroke-width="2"/>
      <path id="Path_8981-2" data-name="Path 8981" d="M744.6,4956.513l-.605,7.733s-8.383-1.181-11.228,5.734" fill="none" stroke="#151515" stroke-linecap="round" stroke-linejoin="round" stroke-width="2"/>
      <path id="Path_8982-2" data-name="Path 8982" d="M1180.385,5187s-.907,4.979-2.481,6.968-3.061,3.784-3.061,3.784,2.943,2.033,3.39,8.079a74.409,74.409,0,0,1,.3,8.534l-4.612,8.289a34.082,34.082,0,0,1-4.67,6.042,8.412,8.412,0,0,0-2.7,6.432c.116,1.8.445,5.369,1.411,7.473a9.988,9.988,0,0,1,.929,3.951l-.585,7.367a21.93,21.93,0,0,0,3.444,5.315,28.945,28.945,0,0,0,4.527,3.3h2.809s3.366-2.79,6.709-2.54a7.716,7.716,0,0,0,5.115-1.139l6.177-13.021,16.9-35.946.746-4.894s2.706-8.855,4.266-10.383,1.954-1.59,1.689-3.618a17.286,17.286,0,0,1,0-4l.434-2.9s1.515-1.493,1.979.5.556,2.737.556,2.737a1.923,1.923,0,0,0,1.807-2.035c-.139-1.858-2.362-24.753-2.362-24.753l-4.1-3.854-2.551,1.6-.716,4.957-1,2.992-1.908-.741V5167l-2.117,2.52-1.568-2.016s-.321-.969-.682,1.533,0,3.311,0,3.311l-2.478,2.473,2.478,2.128h-2.478l-1.861,1.865.557-3.111-3.684,3.833,1.205,3.839-2.955-.609.419-1.352-5.273.527s.191,2.5.78,2.981.713,2.079.713,2.079l-2.4-.45-3.725-1.942-1.146,1.531-1.448.861V5184.6l-2.873,1.942Z" fill="none" stroke="#151515" stroke-linecap="round" stroke-linejoin="round" stroke-width="2"/>
      <path id="Path_8983-2" data-name="Path 8983" d="M1020.307,4973v-3.827l-3.458-9.935h-3.389l.848-4.806,2.541-4.84v-4.246s4.469-4.128,4.469-4.9a18.853,18.853,0,0,0-1.011-3.412h9.26s-2.751-34.537-1.615-34.373,8.064,0,8.064,0l-4.261-68.8s-3.436-1.553-2.188-8.983-3.9-8.271,0-10.771" fill="none" stroke="#151515" stroke-linecap="round" stroke-linejoin="round" stroke-width="2"/>
      <path id="Path_8984-2" data-name="Path 8984" d="M1035.2,4888.344l59.491-1.884,2.927,1.884h3.315v-4.56h4.592v-4.35h3.979" fill="none" stroke="#151515" stroke-linecap="round" stroke-linejoin="round" stroke-width="2"/>
      <path id="Path_8985-2" data-name="Path 8985" d="M1027.3,4907.538l-58.95-28.576-9.2,2.8s-1.629-3.723-7.3-3.767-14.218,0-14.218,0" fill="none" stroke="#151515" stroke-linecap="round" stroke-linejoin="round" stroke-width="2"/>
      <path id="Path_8986-2" data-name="Path 8986" d="M950.4,4952.513a8.231,8.231,0,0,1,0-7.308c1.954-3.776,14.544-17.842,14.544-17.842s.777-23.183,3.278-26.49-8.685,4.781-7.794-18.889" fill="none" stroke="#151515" stroke-linecap="round" stroke-linejoin="round" stroke-width="2"/>
    </g>
  </g>
</svg>
