<svg xmlns="http://www.w3.org/2000/svg" width="800.166" height="578.452" viewBox="0 0 800.166 578.452">
  <g id="asia" transform="translate(-283.053 -5861.956)">
    <g id="Group_559" data-name="Group 559">
      <path id="Path_8764" data-name="Path 8764" d="M325.058,6240.444s-1.253,3.831,0,5.964,4.967,5.752,5.644,6.643,4.673,7.618,4.673,7.618l3.187,6.709,5.034,4.886a20.349,20.349,0,0,1,2.135,9.534c-.026,5.8,4.7,3.7,7.168,7.284s7.418,9.354,8.327,13.313,4.1.045,10.131,0a82.085,82.085,0,0,1,12.246.828c.964.169,2.313,1.436,3.622,0s1.883-2.144,3.1-3.27-.147-1.442,4.192-2.9,17.412-2.686,19.282-3.522a62.39,62.39,0,0,0,9.281-5.693c1.683-1.466,3.262-2.127,3.519-4.565s.763-4.3,0-5.9-3.459-2.924-5.619-3.261-1.193.036-4.917,0-4.026,1.4-5.234,0-2.237-.7-4.086-3.274-1.389-2.2-3.7-5.141-1.372,1.146-3.882-5.027-2.809-7.225-3.6-8.884-3.377-3.639-3.969-4.079a22.628,22.628,0,0,0-3.5-2.687c-3.751-2.662-2.437-2.571-8.293-4.575s-7.865-1.149-9.316-2.179-2.347-1.482-3.284-2.173-3.114-.9-8.022-4.812-5.623-4.4-6.279-4.454a14.927,14.927,0,0,1-2.535,0c-1.229-.194.455.541-2.9,0s-4.429-.438-5.451,0-1.467-.826-2.394,0-3.573.9-4.241,2.093,3.187,4.341,3.187,4.341l1.055,1.441s-6.735,2.874-6.985,3.564-1.044,2.179-1.044,2.179-.039-.1-.885,0a15.026,15.026,0,0,1-2.19,0Z" fill="none" stroke="#151515" stroke-linecap="round" stroke-linejoin="round" stroke-width="2"/>
      <path id="Path_8765" data-name="Path 8765" d="M362.773,6305.31a18.428,18.428,0,0,0,0,3.674c.236.913,1.812,3.16,1.842,4.4s-.02,1.656,0,2.782a16.5,16.5,0,0,0,.607,4.538c.6,2.417,1,4.058,1,4.058a42.475,42.475,0,0,0,5.213-.792c1.411-.426,4.492.875,6.75,0s2.875.847,6.254-2.3,4.182-3.712,6.97-4.381,2.2-.6,5.551-2.458a23.135,23.135,0,0,1,8.22-2.632c2.29-.4,5.946-.205,6.29-1.606s1.075-3.185,1.105-3.914-.19.376,0-1.364a13.459,13.459,0,0,0-1.105-5.6,13.634,13.634,0,0,0-2.08-3.424,5.387,5.387,0,0,1-1.176-1.792" fill="none" stroke="#151515" stroke-linecap="round" stroke-linejoin="round" stroke-width="2"/>
      <path id="Path_8766" data-name="Path 8766" d="M412.966,6306.312a36.431,36.431,0,0,0,3.811-1.311c1.241-.574,1.037-.333,3.3-1.366s4.008-1.174,6.452-3.259,1.422-1.432,3.623-3.728,2.02-1.754,3.78-3.613a42.471,42.471,0,0,0,3.355-4.187c1.847-2.327,4.454-5.162,4.964-6.017s1.54-1.415,1.927-2.12.946-1.016,1.29-1.9,1.226-.954.471-2.07a14.336,14.336,0,0,0-2.871-3.374,19.079,19.079,0,0,0-2.672-1.77,39.281,39.281,0,0,0-3.561-2.182c-1.555-.878-.971-.138-2.322-1.221a18.745,18.745,0,0,1-2.225-1.842c-.489-.548.725-.125-1.051-.875s-1.595-1.186-2.139-.714-.673-.184-1.6,1.59-.556,2.116-.966,3.063-.7.753-1.021,1.453a18.042,18.042,0,0,1-1.436,2.006c-.248.4-.28-.042-.4.493a2.761,2.761,0,0,1-.455.968" fill="none" stroke="#151515" stroke-linecap="round" stroke-linejoin="round" stroke-width="2"/>
      <path id="Path_8767" data-name="Path 8767" d="M430.51,6263.891s-.327-3.887-.372-4.482a10.383,10.383,0,0,0-.385-2.675c-.225-.207-1.627.68-2.451,1.967s-3.036,4.327-3.8,5.189.184,1.135-1.615,1.968-1.58,1.19-4.51,1.635a23.571,23.571,0,0,0-3.643.577,15.727,15.727,0,0,1-4.674.394c-2.207-.026-2.485-.394-2.485-.394a21.742,21.742,0,0,1-.3-4.832c.177-2.266.651-4.573.3-5s-.438-.868-.974-.436-1.289,1.209-1.746,1.6-.391.563-.986.9a1.3,1.3,0,0,1-1.41,0,2.347,2.347,0,0,1-1.012-.9,3.888,3.888,0,0,1-.674-1.168c-.106-.313-.08-.036-.4-.436a5.738,5.738,0,0,0-1.727-.869s-1.282-3.161-1.506-3.618-1.055-3.356-1.334-4.346.14-.69-1-2.174-1.631-1.808-1.946-2.643a21.007,21.007,0,0,1-.859-3.215c-.591-2.455-.891-3.276-.891-3.276s.073-.5-.553-.613a5.012,5.012,0,0,0-2.51-.23c-.735.3-.845-.2-1.536.543s-1.262,1.026-1.431,1.422-.5.61-.568,1.2a10.331,10.331,0,0,0,.3,2.186" fill="none" stroke="#151515" stroke-linecap="round" stroke-linejoin="round" stroke-width="2"/>
      <path id="Path_8768" data-name="Path 8768" d="M390.423,6237.573s1.85-.562,1.617-1.017-1.062-1.957-1.617-2.934-1.422-1.969-2.044-3.218a7.808,7.808,0,0,1-1.015-2.541c-.168-.967,2.766-.4,0-2.057s-2.541-1.613-3.573-2.256.608.572-1.758-1.21-3.356-2.485-3.895-3.607-.855,0-.905-2.473.295-1.133.905-3.767.955-2.876,1.018-4.366,1.588-.486,0-2.143,0-.758-1.923-2.214-3.083-1.792-3.887-2.9-.681-1.336-1.474-1.956A7.737,7.737,0,0,0,368,6197.38a21.078,21.078,0,0,0-3.841,0c-3,.045-4.834-.193-5.42.721s-.26-.343-1.092,2-1.487,4.038-1.487,5.389.063,1.76,0,3.732.867,1.587,0,3.275a5.609,5.609,0,0,1-2.34,2.5,7.136,7.136,0,0,1-2.336,1.271,13.063,13.063,0,0,0-3.8,1.006,11.267,11.267,0,0,0-2.414,1.466,4.519,4.519,0,0,0,0,2.4c.244,1.315-.61.436,0,2.42s.721,2.256.721,2.256v1.059" fill="none" stroke="#151515" stroke-linecap="round" stroke-linejoin="round" stroke-width="2"/>
      <path id="Path_8769" data-name="Path 8769" d="M345.046,6219.784s-2.833-.6-3.444,0a29.513,29.513,0,0,1-2.24,2.076c-.636.479-.325.63-1.767.9s-1.6-.331-2.812,0a3.157,3.157,0,0,1-2.114,0c-.655-.137.217.833-1.764-.9s-1.8-2.541-2.35-1.685a4.7,4.7,0,0,0-.88,3.184,16.9,16.9,0,0,0,0,2.78c.15,1.323-.373.978,0,1.9s.264.554,0,2-.522,2.655-.68,3.2-.056-.28-.424,1.518a11.251,11.251,0,0,0-.387,2.9,4.233,4.233,0,0,0,.387,1.068,1.291,1.291,0,0,1,0,.963" fill="none" stroke="#151515" stroke-linecap="round" stroke-linejoin="round" stroke-width="2"/>
      <path id="Path_8770" data-name="Path 8770" d="M325.816,6236.635a1.073,1.073,0,0,1-1.079-.648,12.335,12.335,0,0,1-1.025-2.511,29.116,29.116,0,0,1-1.323-3.384,2.731,2.731,0,0,1,.479-2.484c.809-1.454,1.485-1.9,1.87-3.022s1.015-1.3,1.079-2.4a8.36,8.36,0,0,1,.426-2.673c.4-1.371.028-1.606,1.058-2.879s.905-1.405,1.9-2.742-.143-1.345,1.227-1.867a1.709,1.709,0,0,1,2.3.6c.238.426-1.184,4.649-1.184,4.649a9.335,9.335,0,0,0-.741.664,8.975,8.975,0,0,1-.876.73l-.728,1.526" fill="none" stroke="#151515" stroke-linecap="round" stroke-linejoin="round" stroke-width="2"/>
      <path id="Path_8771" data-name="Path 8771" d="M331.023,6210.672a14.174,14.174,0,0,1,0-2.611c.155-.641-.265-1.077,0-2.433s.073-1.573.587-2.419.046-1.55,1.677-1.976a23.632,23.632,0,0,1,5.275-.57c1.4,0,2.333-.108,4.584,0a15.5,15.5,0,0,0,5.8-.37c1.809-.6.411-.484,3.443-1.264a32.941,32.941,0,0,1,4.313-.985c1.075-.188,1.784-.335,2.524-.5.094-.019.258-.067.258-.067" fill="none" stroke="#151515" stroke-linecap="round" stroke-linejoin="round" stroke-width="2"/>
      <path id="Path_8772" data-name="Path 8772" d="M314.689,6211.834a26.612,26.612,0,0,0,3.235-.652c.394-.217-1.045.282,1.5-.879s2.371-.322,2.854-1.363a14.677,14.677,0,0,0,1.086-2.295c.1-.56,1.682-1.477-1.846-.588s-5.3,1.069-5.906,1.45.313.182-.926.658-1.669-.638-1.679.774.37,2.021.647,2.242S314.689,6211.834,314.689,6211.834Z" fill="none" stroke="#151515" stroke-linecap="round" stroke-linejoin="round" stroke-width="2"/>
      <path id="Path_8773" data-name="Path 8773" d="M332.219,6201.809a5.549,5.549,0,0,0-6.652-2.469c-4.611,1.4-4.469,1.655-5.048,1.977s-3.651,1.48-3.651,1.48,2.374,2.25-1.567,0-3.718-2.4-4.619-2.662-.639-.74-2.486-.795-2.249-.8-2.768,0,.244,1.586-.944,2.469-2.079.606-3.406.988a15.1,15.1,0,0,1-2.059.472,7.494,7.494,0,0,1-1.378-1.46c-.568-.829-.806-.983-2.134-1.674a10.787,10.787,0,0,0-3.169-.795c-.895-.245-1.385.65-2.283-.678a9.806,9.806,0,0,1-1.44-2.711c-.127-.517-.181.49-.607-1.545s-.225-2.144-.445-3.172.025-1.027-.449-3.47.235-2.633-.869-3.269a5.086,5.086,0,0,1-2.182-2.576c.045-.421.178-1.126,1.543-1.518a20.488,20.488,0,0,1,3.01-.612,14.46,14.46,0,0,0,3.724,0,10.589,10.589,0,0,1,1.447-.368c1.418-.34,4.788-.994,5.233-1.486a7.888,7.888,0,0,0,.769-1.015,51.836,51.836,0,0,1,7.609-1.673c2.153-.09,5.308-1.849,5.9-2.168a9.934,9.934,0,0,1,1.594-1.011,36.489,36.489,0,0,1,8.422-1.634c1.282.1,1.958-.386,3.114,0s1.549.185,3.829.94a23.876,23.876,0,0,1,4.628,2.1c.537.336-.154.217,1.656.882s2.5.9,2.5.9,6.1.947,7.551.947,1.361.326,2.266,0,1.564-.083,3.229-.584,1.869-.583,2.853-.847.25.092,2.018-.848,2.592-1.448,2.637-1.848l5.94,1.4-.278-.472a4.224,4.224,0,0,1,.739,1.354,9.355,9.355,0,0,0,.735,1.568,14.4,14.4,0,0,0,.952,1.442c.234.358.155.13.38.942a7.909,7.909,0,0,0,1.132,1.922,3.491,3.491,0,0,0,.945.992c.532.448.526.24.976.929s.725.381.618,1.238.09,1.29,0,1.612a24.209,24.209,0,0,0,0,2.565s.19-.1,0,.7a53.355,53.355,0,0,0,.475,6.448,6.87,6.87,0,0,0,.386,1.234c.158.36.568,1.047.761,1.385a10.75,10.75,0,0,1,.771,1.08,4.665,4.665,0,0,1,.571,1.387,1.205,1.205,0,0,1-.276.718c-.176.278-.295.521-.295.521" fill="none" stroke="#151515" stroke-linecap="round" stroke-linejoin="round" stroke-width="2"/>
      <path id="Path_8774" data-name="Path 8774" d="M367.49,6175.859a2.674,2.674,0,0,1,2.625-2.209c2.3-.28,6.86,1.105,6.86,1.105a14.382,14.382,0,0,1,2,0c1.536.063,2.607,3.327,2.62,0s0-3.737,0-3.737a6.121,6.121,0,0,1-1.316-.616,28.282,28.282,0,0,0-3.97-2.228,16.224,16.224,0,0,0-2.718-1.059c-1.3-.332-1.949-.356-2.9-.59a21.641,21.641,0,0,1-2.919-.806c-.44-.237-1.017-.513-1.757-.885a6.442,6.442,0,0,0-3.019-1.286c-2.567-.636,1.308-.2-4.909-1.251a74.717,74.717,0,0,0-7.56-1.084s-.988-.273-.942.4,2.044,2.65,2.651,2.952,1.629.9,2.328,1.159.458-.638,2.224,1.06a15.316,15.316,0,0,1,2.884,4.24v1.131" fill="none" stroke="#151515" stroke-linecap="round" stroke-linejoin="round" stroke-width="2"/>
      <path id="Path_8775" data-name="Path 8775" d="M377.129,6174.933a13.508,13.508,0,0,0,0,2.544c.159.26.636,1.233,1.14,2.059a14.741,14.741,0,0,1,.921,1.6,16.588,16.588,0,0,0,1.287,2.111c1.036,1.63,1.208,1.716,1.351,2.208a8.745,8.745,0,0,1,0,1.966s.628.288,0,.534a8.846,8.846,0,0,1-2.638.432c-.529-.044-.022.453-.921,0s-1.3-.562-1.649-.966-1.213-1.239-1.59-1.6-.257-.5-.827-.894-1.41-.695-1.646-.861-.359-.453-.582-.562-.54-.255-.54-.255" fill="none" stroke="#151515" stroke-linecap="round" stroke-linejoin="round" stroke-width="2"/>
      <path id="Path_8776" data-name="Path 8776" d="M382.106,6187.315a.862.862,0,0,0,1.069,0c.665-.4.75-.173,1.527-.538s.854-.073,1.78-.729.984-.728,1.555-1.167-.165-.658.768-.572,1.139.023,1.229.253a6.285,6.285,0,0,1,.445,1.485v2.312l.6,1.89s1.266.057,1.572-.478.389-.641.853-1.412.393-.213,1.1-1.582,1.292-2.056,1.5-2.468a4.288,4.288,0,0,0,.535-1.249c.137-.612.275-.081.332-1.425s-.073-1.388,0-2.2.335-1,0-1.876a9.425,9.425,0,0,0-1.84-2.583c-.458-.431.145-.588-1.626-.588a22.321,22.321,0,0,0-3.782,0c-.511.2-.17.245-1.273,0a19.823,19.823,0,0,1-2.475-.585,12.409,12.409,0,0,1-2.352-1c-.4-.314-.264-.708-.968-.744s-1.661,1.642-1.6,1.74.347,1.5.347,1.5" fill="none" stroke="#151515" stroke-linecap="round" stroke-linejoin="round" stroke-width="2"/>
      <path id="Path_8777" data-name="Path 8777" d="M392.97,6190.251l.665,4.535a17.472,17.472,0,0,1,2.173.954c.419.3,1.18,1.585,2.607,1.973a18.694,18.694,0,0,1,2.443.682,6.806,6.806,0,0,1,1.49.722,10.755,10.755,0,0,0,1.869,1.245,6.243,6.243,0,0,0,3,.963c2.155.283,2.49.957,5.3,0a21.05,21.05,0,0,0,6.406-2.93c2.163-1.532,2.806-1.925,2.806-1.925s-2.846,1.2,1.207-.73,4.729-2.16,5.755-2.4,3.278-.745,3.278-.745h2.06s7.275,3.082,7.866,3.143a5.477,5.477,0,0,1,2.253.73,15.519,15.519,0,0,0,2.584,1.243c.688.279,1.969.711,2.388,1.4a3.1,3.1,0,0,0,2.33,1.245c.96.091,1.222-.812,1.794,0s1.144.708,1.486,1.688,1.5,3.193,1.371,3.815-1.235,2.5-1.371,3.337a11.722,11.722,0,0,1-.622,2.022l-.864,2.146a4.634,4.634,0,0,0-1.162,1.816c-.7,1.521-.2,1.5-.632,2.781s.071,1.508,0,2.882a21.861,21.861,0,0,0,.632,3.79c.029.633-.267-.254,0,1.461a14.47,14.47,0,0,0,2.026,4.306,3.873,3.873,0,0,1,1.993,0c1.091.29,1.18,2.679,1.18,2.679l-3.173,4.072-2.026,1.527a11.071,11.071,0,0,0,1.162,1.674c.714.845,2.715,1.529,2.857,2.106a5.512,5.512,0,0,0,1.18,2.316,4.147,4.147,0,0,0,1.194,1.047,14.2,14.2,0,0,1,1.955,1.651c1.045.966.961-.356,2.287,2.2s1.859,3,1.345,3.751-.167,1.483-1.345,1.742a39.968,39.968,0,0,0-4.242,1.561s-.012.042-.595,1.659a8.651,8.651,0,0,0-.6,2.4l-1.824,1.407s-12.27-.325-13.562-.532-1.086-.664-3.055-.875a9.728,9.728,0,0,0-2.88,0s-.229-.114-1-1.582-1.075-2.353-1.506-3.138.453-1.211-1.488-2a10.818,10.818,0,0,0-4.815-.639c-.811.073-.711.521-1.822.639s-1.809-.492-3.6,0a7.029,7.029,0,0,1-3.925,0c-.725-.223.691.214-3.024-1.248s-5.03-2.136-5.03-2.136.831,1.687-1.162-1.006a31.66,31.66,0,0,1-2.575-3.85s-1.493-.33-1.793-1.047-3.043-5.055-3.359-5.465.177.654-.779-.632a10.937,10.937,0,0,0-4.888-2.855,14.889,14.889,0,0,1-1.557,0,16.533,16.533,0,0,0-2.14,0" fill="none" stroke="#151515" stroke-linecap="round" stroke-linejoin="round" stroke-width="2"/>
      <path id="Path_8778" data-name="Path 8778" d="M454.046,6240.524a33.57,33.57,0,0,0,4.641,0c1.4-.2-1.25-1.158,3.945-.931a71.306,71.306,0,0,0,10.213,0c1.672-.228,2.727,0,4.224-.635a5.477,5.477,0,0,0,1.985-1.082c.537-.44,1.645-.884,1.673-1.825a19.445,19.445,0,0,0,0-2.1c-.047-.707-1.345-.8,0-1.694a30.406,30.406,0,0,1,2.827-1.752,4.969,4.969,0,0,1,2.528-.909c.885,0,6.352-.91,6.352-.91s-.826.354.579-.66a18.024,18.024,0,0,0,1.823-1.429s-.177.074,0-1.266a7.246,7.246,0,0,0,0-2.2s-.358-.229.96-1.126,2.521-1.541,2.743-2.081-.035-.8,0-1.448-.117-.045,0-1.147-.37-1.2.731-1.132a8.274,8.274,0,0,0,1.889,0,14.027,14.027,0,0,1,2,0s1.975-5.15,2.088-5.551-.319-.225,0-.872a5.18,5.18,0,0,0,0-2.266s-.893-.272,0-1.429,1.944-2.488,1.944-2.488l2.485-1.885a1.3,1.3,0,0,1,.934-.735,5.771,5.771,0,0,1,1.616,0h0a30.911,30.911,0,0,1,3.611-1.045c.751-.062.573.062,2.239,0s.947.062,2.658,0,1.907-1.4,3.113,0,2.862,3.033,2.862,3.033.534-.6.966.632a6.443,6.443,0,0,0,1.136,2.488c.55.573.969,1.338,1.431,1.429a15.977,15.977,0,0,1,2.437,1.569s.385-.211,0,.7-.171,1.143-1.625,1.412-3.611,1.206-4.344,1.235-.676-.029-1.2,0-2.983,0-2.983,0a8.3,8.3,0,0,0-1.788,0c-.348.126-.188-1.9-1.579,0a5.4,5.4,0,0,0-1.079,3.775s-1.1-.1-.68,1.716.838,1.371,1.759,3.126,1.252.925,1.579,2.091.7,1.224,1.108,1.32a20.9,20.9,0,0,1,2,.876,9.471,9.471,0,0,1-2,2.695,6.95,6.95,0,0,0-1.807,3.573s1.169,1.05,0,1.675-2.273.359-2.64,1.212a10.051,10.051,0,0,0-.668,1.566c-.323,1-.1,2.477-.892,2.907a3.724,3.724,0,0,0-1.9,1.566c-.524.934-.812,1.6-1.1,2.181s.086.211-1.516,1.768a16.286,16.286,0,0,1-2.218,1.935,7.829,7.829,0,0,0-.964,1.292c-.661,1.014-2.465.932-2.9,1.087s-.489-.378-2.088,0-3.2-.774-3.89,0a2.6,2.6,0,0,0-.731,1.211s-1.353.81-1.412,1.282-2.706,1.776-1.331,3.5,3.475,4.351,3.475,4.351a4.6,4.6,0,0,0,.75,1.245c.413.413,1.122-1.517,1.139,1.179s-.2,2.054.67,2.859,2.615.857,1.331,1.39-4.621,1.347-4.621,1.347.688.03-1.412,0-2-1.064-3.42,0a12.27,12.27,0,0,0-1.983,1.742c-.418.413-.412.3-.914.791s-.065.613-.974.643-1.913,0-1.913,0a3.732,3.732,0,0,0-1.841-.643c-.867.028-.663.336-1.378-.791a12.357,12.357,0,0,1-1.15-1.742c-.278-.669-1.385-2.737-1.385-2.737s.317-.369-.916-1.322-.358-2.124-2.2-1.538,1.688.563-2.962.645-3.95-.014-5.447,0-1.67-.236-2.445,0,.084-.341-1.413,0-.072-.3-2.467,0-2.133-.548-3.464,0a28.027,28.027,0,0,1-4.374.893c-.46.134,0-1.538,0-1.538" fill="none" stroke="#151515" stroke-linecap="round" stroke-linejoin="round" stroke-width="2"/>
      <path id="Path_8779" data-name="Path 8779" d="M455.607,6208.5s-.648,0,.8,0,1.413-.321,2.134,0a2.892,2.892,0,0,0,1.246.39c.458.038,1.347-.192,1.768,0s.6.735,2.057,0,1.947-.214,2.735-1.407,1.216-1.444,1.709-2.315a11.886,11.886,0,0,1,.832-1.558c.563-.815.052-.676,1.428-1.688s.9-1,1.935-1.469a7.368,7.368,0,0,0,2.813-1.54,13.6,13.6,0,0,0,1.079-1.188c.252-.293-1.154-.315,1.018-.644a14.657,14.657,0,0,1,3.5-.369,3.642,3.642,0,0,1,1.764.369c1.226.544,2.071.128,2.6.644a5.246,5.246,0,0,0,2.546,1.188,9.338,9.338,0,0,1,2.524,0,25.816,25.816,0,0,0,5.569-.5c.4-.231-.016.4,1.224-.685s.091.268,1.784-1.606,1.789-2.071,2.1-2.411.927-.944.927-.944,2.6-2.16,2.927,0a8.112,8.112,0,0,0,1.53,3.949c.421.477.629.433.362,1.012a5.209,5.209,0,0,1-.861,1.188s-.465.374,0,.663a1.92,1.92,0,0,0,1.394.353,7.079,7.079,0,0,0,1.617-.353c.563-.122.034.567.869,0a3.98,3.98,0,0,1,1.455-.663h.57s.921-.407,1.272-.5.143-.988.88-.685.362-.3,1.952,0a22.181,22.181,0,0,0,2.215.341c.268.039.515-.281.859,0a6.608,6.608,0,0,1,.784.847v.663" fill="none" stroke="#151515" stroke-linecap="round" stroke-linejoin="round" stroke-width="2"/>
      <path id="Path_8780" data-name="Path 8780" d="M522.666,6199.293v-2.74s.506-1.055,0-1.634a3.647,3.647,0,0,1-.7-1.271l-.638-.986a5.766,5.766,0,0,0-1.909-1.935c-.544-.354-1.071-.706-1.071-.706a3.555,3.555,0,0,1-.958-.812c-.414-.517.865.923,0-1.062s.677-2.906-1.564-2.65-2.735-.256-4.56,0-2.45-.109-4.269,0a10.089,10.089,0,0,1-3.276,0,9.972,9.972,0,0,0-2.922-.633,19.517,19.517,0,0,0-2.754,0s.755.864-.619,0a6.009,6.009,0,0,1-1.919-1.8s-2.038.353,0-.745a11.443,11.443,0,0,1,4.263-1.219v-.621l1.029-.871v-.965s2.158-1.544-1.029-.986a14.931,14.931,0,0,0-5.268,1.951s-.646-.985-1.147,0-.865.768-1.038,1.492-.39.415-.769,1.219-.338-.124-1.021.745-.421,1.891-1.234,1.8-.653-.9-2,0-1.58,1.174-1.308,1.753a27.209,27.209,0,0,0,1.913,2.593s-.285-2.278.749,0,.641,2.4.641,2.4.859.534,0,2.041a23.217,23.217,0,0,0-1.39,2.9,4.413,4.413,0,0,0-.605,1.467" fill="none" stroke="#151515" stroke-linecap="round" stroke-linejoin="round" stroke-width="2"/>
      <path id="Path_8781" data-name="Path 8781" d="M481.273,6196.673l-.547-2.158s-.208-.592-1.458-.847a7.877,7.877,0,0,1-2.884-1.03c-.7-.48-1.539-.608-2.052-.927a7.649,7.649,0,0,1-2.214-1.3c-2.057-1.455-3.351-2.224-3.351-2.224a3.4,3.4,0,0,0-.73-.506c-.584-.34-3.3-1.786-3.655-2.066s.3.082-.927-.851a13.324,13.324,0,0,1-2.208-1.934,9.032,9.032,0,0,1-.959-1.382c-.819-1.278-1.216-2.132-1.561-2.7a7.364,7.364,0,0,1-.668-1.684c-.257-.746,2.25-.541-.585-1.419a16.347,16.347,0,0,0-5.275-.9h-2.782s1.1-2.772-.909-4.094-2.682-1.823-3.524-2.058-1.889-.549-2.267-.709-.3.469-.975,0-.755-.687-1.352-.514a9.823,9.823,0,0,0-2.182,1.223c-1.214.748-.087.335-2.125,2.058s-2.372,1.81-2.788,2.3-.513,1.745-1.976,1.8-1.82.261-2.744,0a21.752,21.752,0,0,1-2.882-1.145,3.611,3.611,0,0,1-1.485-1.121c-.389-.492-.213-1.063-1.462-1.829a18.593,18.593,0,0,0-2.657-1.484,3.57,3.57,0,0,0-1.994-.573c-1.325-.037-2.756-.45-3.442,0a8.472,8.472,0,0,0-1.628,2.058s.35.01,0,.809a1.862,1.862,0,0,0,0,1.489,6.314,6.314,0,0,0,1.628,0c.509-.133.321-1.164,1.174-1.489s1.377-1.284,1.8-.809.463-.621,1.262.809,2.128,3.285,2.128,3.285.5.44,1.049.9a1.621,1.621,0,0,1,.684,1.419c-.013.536,1.117.468,0,.813s-2.115,1.1-3.86.871-2.339.15-3.06,0-2.187.7-2.187.7a6.848,6.848,0,0,0,0,1.993c.164,1.051-.063.622,1.014,1.842s1.8,1.975,2.192,2.324-.075-2.1.779,1.263,1.668,4.572,1.262,4.831.152.8,0,1.957.178,1.576,0,3a6.175,6.175,0,0,0,0,2.1" fill="none" stroke="#151515" stroke-linecap="round" stroke-linejoin="round" stroke-width="2"/>
      <path id="Path_8782" data-name="Path 8782" d="M428.92,6173.808l.868-20.916s3.11-1.153,3.75-1.383,5.012-1.18,5.012-1.18a4.253,4.253,0,0,1,1.422-1.016,18.717,18.717,0,0,0,1.907-1.135,1.99,1.99,0,0,1,0,2.151c-.689,1.263-1.091,2.034-1,2.563a24.023,24.023,0,0,1,0,2.547s.285-.956,1,0,.861.731,1.283,0a13.375,13.375,0,0,0,.845-2.547,24.2,24.2,0,0,1,1.479,4.015,14.711,14.711,0,0,1,0,1.709s-.077-.385,1.2,0a8.33,8.33,0,0,0,3.229,0s-1.677-1.077.927-.854a25.748,25.748,0,0,1,4.7.854,10.969,10.969,0,0,1,1.879,1.487c.947.935,1.058,1.091,2.066,1.091a12.49,12.49,0,0,1,2.934,0c1.795.221,6.284-.45,7.715,0s.478-1.316,2.678,0a12.116,12.116,0,0,0,4,1.583l1.292,1.865a24.489,24.489,0,0,0,1.057,3.506c.491,1.03-.81-1.417,1.033,2.041s2.455,4.563,2.455,4.563-1.494-1.469,1.09,0a8.982,8.982,0,0,0,4.36,1.614c1.849.352,4.508,1.054,4.967,0s-1.046-.118,1.509-1.614.5-1.284,3.166-1.822,3.366,0,3.366,0a1.894,1.894,0,0,1,1.411.877c.632.878-.712.133,2.4.944s5.51,1.614,5.51,1.614,1.712-1.662,1.392,0a3.962,3.962,0,0,1-1.392,2.413s-.417-.863-1.025,0a2.865,2.865,0,0,1-2.185,1.3c-.851.088-1.566-.731-2.3,0s-3.815,1.285-3.815,1.285h-1.3" fill="none" stroke="#151515" stroke-linecap="round" stroke-linejoin="round" stroke-width="2"/>
      <path id="Path_8783" data-name="Path 8783" d="M516.662,6185.953v-.87c0-.721-1.363-1.331.7-2.262a38.473,38.473,0,0,1,4.192-1.516c.634-.245,1.3-.548,2.574-.991a16.643,16.643,0,0,1,2.241-.916c1.29-.323.931.3,2.277,0s.9.309,3,0,1.392,1.156,4.038-1.371,2.465-2.81,3.386-3.188-.007.654,3.181-1.142,3.542-2.621,3.682-2.993-1.646-2.044-1.646-2.044.9-.455-1.116-.947-6.087-1.007-6.087-1.007.883.443-1.4,0a23.36,23.36,0,0,0-4.038-.553c-2.6-.249-1.465-1.035-5.278-.7a43.171,43.171,0,0,0-5.357.7s-.218,1.127-.9,0,1.53-1.649-1.234-1.772-3.458-.793-3.77,0a17.764,17.764,0,0,1-.623,1.772c-.327.638-1.458,1.927-2.258,1.56s-2.521-1.262-2.937-1.007-.791.087-1.625,0-.347-.884-2.761,0a13.319,13.319,0,0,0-3.692,1.954s-.187-.212-.693.88a5.844,5.844,0,0,0,0,3.064" fill="none" stroke="#151515" stroke-linecap="round" stroke-linejoin="round" stroke-width="2"/>
      <path id="Path_8784" data-name="Path 8784" d="M545.938,6170.681a12.185,12.185,0,0,0,1.246-1.316c.547-.691.342-.16,1.1-1.8s.838-1.444.793-2.222.376-1.364,0-2.5a10.8,10.8,0,0,1-.793-3.175c-.153-1.6.454-2.911,0-3.327a1.773,1.773,0,0,1-.605-1.388c-.1-.732-.271-1.323.605-1.662s-.559-.253,1.952-.646,4.093-.467,4.554-.556.135,1.277,1.283,0,2.762-2.2,2.849-2.512.1.115,0-2.162-.328-2.224,0-2.8a10.368,10.368,0,0,1,1.091-1.41c.723-.924.993-1.554,1.426-1.648s-.343-.463,1.666-.529,6.558,0,6.558,0,.109.833,1.678,0,1.786-1.274,1.786-1.274l-.461-5.066a6.6,6.6,0,0,1,1.3-1.525c.8-.667,1.015-.809,2.019-1.605s1.219-.923,1.508-1.436a3.884,3.884,0,0,0,.673-1.563c.169-.861-.323-1.211,0-1.807s.619-2.25,0-2.277a6.014,6.014,0,0,0-2.883,0,11.109,11.109,0,0,1-2.614.6,6.239,6.239,0,0,1-1.325,0,8.107,8.107,0,0,1-1.678-1.853,15.474,15.474,0,0,1-.954-1.312,5.879,5.879,0,0,0-.957-1.323,7.1,7.1,0,0,0-1.173-.977c-.943-.711-.509-.916-2.241-1.812s-2.43-1.557-3.586-1.243a10.853,10.853,0,0,1-3.987.708c-1.579-.125-4.607-.27-5.016-.708s-.3-.412-.657-.765-2.258-1.367-2.807-.916-2.342,1.681-2.342,1.681-.357,1.134-2.312-3.692a28.2,28.2,0,0,0-5.06-8.075,6.941,6.941,0,0,0-1.538-2.052c-1.066-.983-1.729-1.731-2.432-2.4a12.1,12.1,0,0,1-1.847-1.819c-.21-.437-.641-1.027-.971-1.731s-.271-1.552-.943-1.834-4.3-.72-5.021,0,.071,1.222-1.963,1.834-2.847.876-4.131,1.224-1.239-.071-2.274.507-1.451.887-1.973.748.144-1.2-.46-2.093-.142-.86-.958-1.247-1.067-1.011-1.9-.973-1.014.174-1.6,0-3.278.607-4.768,0-1.723.644-2.191-2.406a5.143,5.143,0,0,0-3.752-4.311c-.844-.167,1.166-.812-3.875-.688s-6.289.61-7.107,1.174-.828.277-2.071,1.03a9.345,9.345,0,0,1-3.818.921c-1.174.166-10.056,3.626-12.139,3.626h-4.428s-3.609,1.274-5,1.626-4.437-.352-5.382,0-1.359-1.217-1.63.861.388,3.063.9,3.364,1.752.336,2.513,1,1.615,1.41,1.664,1.992-3.564.368-4.177.748-1.575-.307-1.886.826.385,1.347,0,2.283-1.861,1.841-2.3,2.477-1.59-.314-.56,1.126,4.217,1.607,4.743,2,1.146.138,1.173,1.056a18.941,18.941,0,0,1-.447,2.436c-.081.909,1.354,1.915,0,2.343s-7.114.09-7.8,0-.893-.239-3.245-.647-2.247-1.545-4.152-1.7-2.98-1.069-6.7,0-3.61.664-4.79,1.7-3.548.708-4.684.647a10.3,10.3,0,0,1-5.753-2.343c-2.494-1.92-3.956-1.961-6.321-2.436s-3.2-1.137-4.707-1.056-3.416-.908-4.609,0-1.683.646-3.219,1.537-1.742,1.409-3.017,1.954-.959.037-1.533.985-.424.12-.929,2.847-1.17,4.367-2.776,3.144a11.082,11.082,0,0,1-2.359-2.177c-.271-.359.3-1.725-.96-.967s-1.577.68-1.838,1.533-.155,1.4-.539,1.61-.271.359-.781.47a10.752,10.752,0,0,0-2.153,1.752s2,.753,2.153,1.221,1.281.518.781,1.052-2.655.36-2.349,2.111a25.744,25.744,0,0,0,.764,3.244c.137.454,1.4.6,1.585,1.282s-.646,1.45,1.321,1.721,3.968.407,3.968.407-.432-.509.407.765a25.2,25.2,0,0,1,1.835,3.009c.211.547-.717-.114,0,2.077s.8,3.259,1.87,3.131,3.623.923,4.55-1.257.769-2.457,1.825-2.607,1.653.135,3.438,0,3.709.242,5.122,0,1.587.2,3.128.733,3.052,6.979,1.259,8.306-.874,1.416-3.812,1.366-2.928.063-4.141,0-.119,4.615-1.556,4.665-3.1.334-3.438,0-2.327.234-.494,1.667a36.581,36.581,0,0,0,3.354,2.332c.367.251-.093-.653.579,1.55s.567,2.6,1.063,2.7-.1.352,1.5.731,1.162.269,2.052.5,2.065,2.513,2.065,2.513l.433.909.646,1.292" fill="none" stroke="#151515" stroke-linecap="round" stroke-linejoin="round" stroke-width="2"/>
      <path id="Path_8785" data-name="Path 8785" d="M519,6152.489a1.884,1.884,0,0,1,0-1.74c.5-.8-.051-.482.938-1.937s1.36-2.342,1.784-2.557-1.074-.723,1.95-.549.472-.485,4.949,0,5.741.866,7.229.549-.06,1.235,3.123-.549,3.424-3.1,2.747-3.121a7.826,7.826,0,0,1-2.747,0c-1.009-.345.826.209-3.123,0a27.663,27.663,0,0,0-4.993,0c-3.264.089-5.207-.112-6.464,0s-1.609-.394-2.671,0-1.493.086-2.723.6-.4-1.393-1.605.789-1.6.753-1.271,3.809a29.664,29.664,0,0,0,.49,3.655c.07.325-.863.248,0,1.046s.688,1.123,1.349.8A3.262,3.262,0,0,0,519,6152.489Z" fill="none" stroke="#151515" stroke-linecap="round" stroke-linejoin="round" stroke-width="2"/>
      <path id="Path_8786" data-name="Path 8786" d="M452.794,6156.787s.28-.294,0-1.111-.415-1.934-.664-2.561-.687-1.6-.859-1.96-.235-.567-.485-1.047-.5-1.027-.814-1.531-.559-1.193-1.123-1.389-.09.051-1.205,0-1.441-.417-2.219,0a5.244,5.244,0,0,1-1.809.573,12.151,12.151,0,0,0-1.574.5" fill="none" stroke="#151515" stroke-linecap="round" stroke-linejoin="round" stroke-width="2"/>
      <path id="Path_8787" data-name="Path 8787" d="M448.894,6144.036a2.109,2.109,0,0,0,1.016.93c.644.218,1,.419,1.391.584a12.654,12.654,0,0,0,2.615.42,17.657,17.657,0,0,1,1.97,0c.553.088.534.024.7-.42a1.444,1.444,0,0,0,0-.985,1.967,1.967,0,0,0-.7-1.071c-.3-.186.076-.15-1.416-.392s-1.186-.237-2.008-.372.229-.291-1.161-.324-1.955-.4-2.406,0S448.894,6144.036,448.894,6144.036Z" fill="none" stroke="#151515" stroke-linecap="round" stroke-linejoin="round" stroke-width="2"/>
      <path id="Path_8788" data-name="Path 8788" d="M577.986,6127.977a4.354,4.354,0,0,0,1.919,0,9.766,9.766,0,0,1,2.828,0s.236-.1.841,1.4a5.315,5.315,0,0,0,1.251,2.147,10.539,10.539,0,0,0,2.856,2.083c1.254.72,4.927,1.492,5.555,2.057s1.992,4.228,2.124,5.486-1.135,1.034,0,3.051,2.054,1.179,1.529,3.659-.767,2.626-.669,3.04.4.742,1.5,1.3a20.173,20.173,0,0,0,5.255,1.539c2.417.437,4.089.021,5.229.5s2.878.216,3.3,1.025a68.074,68.074,0,0,0,4.227,5.668c.72.8-.272-1.31,1.222,1.117s2.813,4.655,3.128,5.219.7,1.227,3.238,1.416,10.658-1.416,10.658-1.416,5.053-1.558,9.226.618a39.459,39.459,0,0,0,8.84,3.058,7.551,7.551,0,0,0,2.553.848c2,.405,3.931.42,4.965.642s.769-.108,3.013,0,3.521,1.178,5.42-.642.671-2.658,3.111-3.108,1.716-.968,3.894-.8a26.936,26.936,0,0,1,4.386.8,15.238,15.238,0,0,0,2.655,0l6.264-3.557s-1.744.985,1.155-1.039,2.94-2.25,3.777-2.61,1.525.212.93-1.349-2.363-2.569-1.458-4.131.717-1.58,1.458-2.13a2.5,2.5,0,0,1,2.077-.574c.433.192,2-.114,2.625.574a2.893,2.893,0,0,0,1.961.688c.371.068,5.982-1.81,5.982-1.81s-.319.941,2.092-.629,2.033-1.7,3.1-1.931,3.8-.57,3.8-.57-.546,1.571,2.125-1.139,1.637-2.984,3.617-3.288,3.03-.42,4.062-.69a26.083,26.083,0,0,1,3.885-1.1c2.844-.591,4.457-.842,4.457-.842s1.216-.594-.711-2.291a18.219,18.219,0,0,0-3.746-2.912c-1.045-.514.722-.509-2.112-.955a21.78,21.78,0,0,0-5.834,0c-1.56.064-.821-.064-3.025,0s-3.335.416-4.257,0-1.738-1.11-1.386-2.23a34.024,34.024,0,0,1,1.386-3.251l3.665-6.783s-.629-.781,0-.831a23.934,23.934,0,0,1,3.617.831s1.35,1.386,2.127,1.148,2.561-1.018,2.977-1.148,2.066-.4,2.411-.831l1.329-1.671,2.046-5.134s1.155-1.52,1.514-2.125.7-.809,1.847-2.548,1.356-1.593,1.426-2.355.867-.945,0-2.479a25.385,25.385,0,0,1-1.426-2.86c-.234-.543-2.252-.434,0-1.76a12,12,0,0,1,3.867-1.791c1.586-.473,7.747,0,7.747,0s11.516,1.017,12.848,2.276,3.964,3.529,3.964,3.529a10.922,10.922,0,0,1,1.045,2.059c.988,2.1,1.7,4.317,2.04,5.1a20.261,20.261,0,0,0,1.187,2.959,13.709,13.709,0,0,1,2.126,3.067c.532,1.169.26,4.486.993,5.235s9.231,2.846,9.7,3.042-.051-.012,1.392.882.071-2.043,1.945,1.183,2.877,5.084,3.056,5.522-.387.3.783,1.41.8,1.077,2.209,1.165a15.5,15.5,0,0,0,4.585-.65,18.8,18.8,0,0,0,2.7-1.466c1.22-.636-1.74-.245,1.9-1s5.265,0,5.265,0a11.315,11.315,0,0,1-.536,5.376c-1.015,2.511-5.358,9.64-5.358,9.64a14,14,0,0,0-1.267,1.129,11.933,11.933,0,0,0-1.271,1.654,2.606,2.606,0,0,1-1.427.733c-1.141.315-1.229.266-1.753,0s-1.693-1.937-2.832-.733a9.5,9.5,0,0,0-2.209,2.8c-.387.964-1.549-.781-.783,3.939s.521,5.384.783,5.792a1.718,1.718,0,0,1-.783,1.97c-.779.437-.923.844-1.842.437s-.132.427-1.848-.437-.758-2.459-3.212,0-2.114,1.8-3,2.882a10.468,10.468,0,0,1-1.913,1.75c-.637.569-.856-.115-1.989,1.086s-4.439,1.337-4.439,1.337.448.08-.975,0-2.6-.771-2.9,0,.688,0-1.173,1.415-6.621,5.787-7.278,6.171a25.162,25.162,0,0,0-3.395,2.029,12.643,12.643,0,0,1-3.37,1.734,12,12,0,0,1-3.267,1.358,8.432,8.432,0,0,0-2.616.894c-1.219.579-1.522,1.44-2.912.953s-.038-3.088,0-3.645,3.205-2.239,2.912-4.17-1.328-4.092-4.091-2.753-6.467,5.022-7.167,5.629-2.208.709-2.831,1.294a3.415,3.415,0,0,0-.915,1.137,4.543,4.543,0,0,1-2.654,1.555c-.681.045-2.31-.7-3.165,0s-.911.011-1,.953.265,1.164,0,2.315-.529,1.62,0,2.135,5.81,1.675,5.81,1.675v1.263s.229,4.6,2.808,3.607a6.576,6.576,0,0,0,3.515-3.079s-2.007.221.827-.529a11.633,11.633,0,0,1,3.42-.646s-.192.914,1.358,1.175a6.9,6.9,0,0,1,2.156.47,10.668,10.668,0,0,0,1.935.5,1.059,1.059,0,0,1,.809.438c.424.474,2.212.681.973,1.671a12.869,12.869,0,0,1-4.693,1.8,21.369,21.369,0,0,0-3.777,1.251c-.373.245-.073.124-1.331,1.2s-2.15.519-2.526,1.45-.773.9-1.876,2.369-3.177,3.148,0,5.748,3.393,3.061,3.554,3.547.145.794.338,1.444-.619-.694.511,1.406,1.731,3.017,2.083,3.679a5.13,5.13,0,0,0,1.06,1.551c.776.886.674.6,1.311,1.268s1.019.9,1.212,1.254.469.769,0,.851a2.526,2.526,0,0,1-1.735,0c-.984-.309-1.081-.528-2.3-.851s-.346-1.229-1.625-.41-2.228.735-1.676,1.738,1.13,1.034,2.178,1.589a5.455,5.455,0,0,0,2.069.853c.938.178,1.629-.493,1.882,0a8.037,8.037,0,0,0,1.212,1.386,7.308,7.308,0,0,1-2.522,2.062c-1.449.628-1.359.231-1.812,1.06s-.881,1.729.752,2.025,2.527.4,3.025.463-.037,2.523,0,2.946-.216.907-.3,2.021a6.371,6.371,0,0,0,0,1.49s-3.074,4.076-3.481,4.692a9.257,9.257,0,0,1-2.18,2.532c-1.178.907-1.649,1.1-1.689,1.822s.107-2.33-1.159,2.086-3.122,6.257-3.122,6.257c-.136.137-2.39,2.37-2.39,2.37-.068.068-2.229,2.248-2.229,2.248a12.863,12.863,0,0,0-2.267,1.841c-.291.477-5.376,4.231-5.376,4.231-.886.682-3.251,2.168-3.251,2.168-.068.068-4.111.643-6.477.927a49.106,49.106,0,0,0-7.476,2.187c-1.771.681-2.707,1.085-4.359,1.73a8.425,8.425,0,0,0-3.121,1.534,22.989,22.989,0,0,0-2.455,1.929c-.362.271,1.229-.823-1.271.507s-3.6,3.377-4.306,3.333-1.8-1.91-1.488-2.558,1.123-2.089.956-2.552.469-.527-.411-.658-1.328.115-2,0a2.1,2.1,0,0,0-.983,0s-3.946.67-4.806.658h-2.288s-4.963-2.572-4.963-2.9.341-1.568,0-1.979,2.251-.095-1.326-1.551-1.8-2.085-4.181-1.541-2.095.228-3.651.764a11.128,11.128,0,0,1-3.229.777c-2.051.315-2.755.234-6.016.627s-3.277.162-3.667.924-1.2-.948-1.907,1.307-.235,3.207-.736,3.576-1.471-.274-1.76,0-.751.148-2.339,0-1.713-.9-2.223-.658-1.114.31-1.344,0-2.759-2.918-2.759-2.918a2.877,2.877,0,0,1-.7-1.307c-.119-.706-.862-4.209-.862-4.209s-.232,1.09-.812-.425-.62-1.625-.764-1.936,1.377.262-.55-.791a26.393,26.393,0,0,1-4.283-3.279s-.621-.989,0-1.618a4.84,4.84,0,0,0,1.219-1.609c.408-.818,2.189-2.945,2.613-3.65s.54-1.869,1-2.215a4.912,4.912,0,0,0,.764-2.693,18.016,18.016,0,0,0-1.313-3.231c-.378-.437-2.029-1.25-2.146-1.935s-.683-.735-.919-1.8-.379-1.586-1.219-1.542-.984-.083-1.847,0-1.482.725-2,0-1.026-.924-1.62-1.785.273-1-1.108-1.629-3.291-1.517-4.173-1.432a8.671,8.671,0,0,0-3.479.754c-2.006.8-2.842.847-3.629,1.391s-6.02,5.959-6.478,6.04a7.908,7.908,0,0,1-2.715,0c-.48-.232.376-.331-1.2-.71s-2.641-1.272-3.586-1.086-2.113-.86-3.139,0a21.5,21.5,0,0,0-1.9,1.433,8.792,8.792,0,0,1-2.792,1.55c-.288.069-.449-.115-1-.766s.271-.958-1.11-.784-7.34.041-7.772-.347a8.649,8.649,0,0,0-4.31-1.086c-2.051-.046-1.491.547-2.723-.55s-3.187-1.039-4.659-2.777a16.8,16.8,0,0,0-3.895-3.467c-1.414-.964-3.1-2.061-3.1-2.061s2.493.666-.668-.786a12.193,12.193,0,0,0-5.684-1.213,3.327,3.327,0,0,0-1.365,0c-.668.164-.979.545-1.756-.7s-1.136-1.672-1.318-2.042a2.615,2.615,0,0,0-1.48-1.692c-1.249-.652-1.768-.565-2.359-1.073a7.077,7.077,0,0,0-1.058-.766l-2.557-3.519a2.477,2.477,0,0,0,0-1.127,3.813,3.813,0,0,1,0-1.376s.8.47,1.351,0,.72-.43,1.206-.836,1.413-.513,1.058-1.03.172-.6,0-1.173-1.067-1.6-1.058-2.22-1.206-1.9-1.206-1.9-.891-.215,0-.772.613,1.485,2.9-.692,4.519-4.846,4.519-4.846.975.8,0-1.2a20.4,20.4,0,0,0-2.07-3.391s1.666.613-.729,0-4.436.317-4.623,0-2.08,0-2.08,0a8.732,8.732,0,0,1-1.818,1.3c-.586.192-.379-.324-1.352,0a11.387,11.387,0,0,1-3.318,0" fill="none" stroke="#151515" stroke-linecap="round" stroke-linejoin="round" stroke-width="2"/>
      <path id="Path_8789" data-name="Path 8789" d="M489.791,6270.336a8.039,8.039,0,0,0,.988,2.621c.561.6.8.476,1.663,1.446s.458,1.484,1.806,1.215a13.883,13.883,0,0,0,2.806-.7,14.78,14.78,0,0,1,1.564-.515s.426-.571.629.515a2.662,2.662,0,0,1-1.927,2.669,9.617,9.617,0,0,1-2.668.647c-.43,0-1.063-.479-1.618,0s2.587,2.506,3.543,3.946,1.126,2.033,1.719,2.484a6.115,6.115,0,0,0,2.3,1.027c.734.131.476.316,2.407,0s3,.051,3.335-1.027.476-1.727.595-2.122-.075-.456.294-1.169.84-1.959.84-1.959-.071-.521.562-.433.511-.4,1.156.433a4.468,4.468,0,0,1,1.082,2.3c.152.946-.081,2.8,0,3.531s-.095.32,0,2.078.63,3.808.729,5.451.637,7.325.834,7.673a6.737,6.737,0,0,1,1.022,1.585c.584,1.228.884,1.739.772,2.019s4.794,14.964,4.794,14.964l5.647,15.257,1.952,1.633s-.86-1.674,0,.379a17.279,17.279,0,0,1,1.11,2.99,6.222,6.222,0,0,0,.442,3,43.272,43.272,0,0,0,1.9,4.137c.813,1.793,1.229,2.376,1.887,2.64s1.861.666,2.274,0,1.23-1.53,2.171-2.934a25.438,25.438,0,0,0,1.948-2.81,8.409,8.409,0,0,1,2.7-3.1c.619-.434.692-.138,1.615-1.982a27.258,27.258,0,0,0,1.579-3.955c.536-1.472,1.325-2.33,1.353-3.7s.483-7.348.547-7.73.335-8.585.335-8.585.723-1.427.912-1.968a14.745,14.745,0,0,1,3.031-2.714,9.141,9.141,0,0,1,.944-.556l10.991-9.746,6.8-6.1s1.1-.769,1.7-1.237,3.92-2.326,4.28-2.724.783-.063,1.01-.991.733-1.362.955-2.2.368-1.364.534-2.032,4.526-2.691,4.526-2.691a14.683,14.683,0,0,0,3.066-.4c1.782-.407,1.756-1.685,1.756-1.685v-.973s-1.114-5.518-1.212-6.023-.618-.436-1.031-1.95-.649-1.633-.371-2.571.124-1.554.371-2.106-.3-1.227.487-1.812,1.186-.057.928-.833a2.62,2.62,0,0,0-.928-1.385c-.387-.329-1-.816-1.337-1.063a4.951,4.951,0,0,1-.611-.531,10.272,10.272,0,0,1,1.461-1.906c.334-.13-.14-.435,1.415,0a9.649,9.649,0,0,1,2.205.709c1.029.455,2.966.207,3.1,1.2s.084,2.893.472,2.979-1.188.148,1.209.4,4.731.313,6.611.438a2.624,2.624,0,0,1,2.383,1.373,3.47,3.47,0,0,1-.613,1.255c-.548.8-1.618,1.4-2.459,2.34s-.9.92-1.075,1.184-.595-.557-.693,1.37-.365,1.778,0,2.285.693,1.089.693,1.089l2.581-1.983s-.3-1.375.5-.474,1,.587,1.063,1.043.813,2.13.888,2.936.588,2.485.688,3.018-.42.8-.687,1.284-1.5,1.325-1.5,1.96.153.8,0,1.05-.953,1.826-.953,1.826" fill="none" stroke="#151515" stroke-linecap="round" stroke-linejoin="round" stroke-width="2"/>
      <path id="Path_8790" data-name="Path 8790" d="M586.3,6280.1s-.044.23.767,0a5.61,5.61,0,0,1,1.646-.325,11.1,11.1,0,0,0,2.131-.264,3.379,3.379,0,0,0,1.441-.528,14.426,14.426,0,0,0,1.57-.8c.354-.282.42-.124.711-.935s.2-1.08.514-1.322.04-.375.6-.472-.069-.64,1.009,0a10.914,10.914,0,0,1,2.238,1.794c.036.1-.438.3,0,1.738s.539,1.562.839,2.695a10.49,10.49,0,0,0,.358,1.466,10.251,10.251,0,0,1,.291,1.632c.117.343.185.278.362.5s.517,1.359,3.532,3.067,2.323,3.8,2.963,4.514,1.01.784,1.4,1.689a9.729,9.729,0,0,1,.931,2.063c.193.892.428,1.333.6,2.105s-.388,1.053,0,1.446.4.432.509,1.381-.4.909,0,3.219,0,2.766,0,2.766-1.67-.05,0,.9,1.927,1.081,2.51,1.138,1.058,1.327,1.7,0,1.819-1.288,2.324-2.04,1.5-1.068,1.941-1.561,1.112-.9,1.278-1.205-2.327-1.416,0-.966,2.7,1.449,2.818,2.171,1.7.252,1.7,3.6.556,8.769.556,8.769-1.067.333,0,1.452a19.346,19.346,0,0,1,2.214,2.438c1.362,1.715,2.245,2.959,2.245,2.959s-.677,2.684-.677,3.106.961,2.128.677,2.738.387.417,0,1.61-.916,1.925-.677,3.237a28.939,28.939,0,0,1,.677,3.644c-.012.818-.677,5.843-.677,5.843s-.961.488-.876,1.024a3.181,3.181,0,0,0,.876,1.913,10.225,10.225,0,0,0,1.694.973,6.469,6.469,0,0,1,1.833,1.792,5.481,5.481,0,0,1,1.08,1.528c.264.674.563.677,1.2,1.664a6.382,6.382,0,0,0,1.225,1.457s1.657.622,2.4.928-.606-1.59,1.4.59a20.39,20.39,0,0,1,2.347,2.8s.5.295,2.092,0a1.967,1.967,0,0,0,1.588-1.929s-2.788-4.127-3.68-3.847a6.079,6.079,0,0,1-2.347,0s-.168,3.243-1.4-1.11a45.129,45.129,0,0,0-2.4-6.759s1.105-.76,0-1.024-.7-.2-1.225-.582-.568-.687-1.2-1.621-.961-.759-1.08-1.527,0-3.7,0-3.7-.471.039,0-.911,2.275-4.382,2.275-4.382-.429-.391,0-1.61a22.915,22.915,0,0,0,1.225-3.992c-.039-.544-.184-1.741,0-1.852a11.576,11.576,0,0,0,.981-1.53s.949-1.322,1.42-1.43,2.992,1.43,2.992,1.43a3.954,3.954,0,0,1,.755,1.53c.008.55,1.158,1.486,2.092,1.852s.521,1.316,1.588,1.254a17.834,17.834,0,0,1,2,0,4.162,4.162,0,0,1,1.463,1.641,7.681,7.681,0,0,1,.834,1.995l1.212,1.958s.029.147.6.706,1.2.241,2.449,1.288,1.337.388,2.06,1.145a3.185,3.185,0,0,0,1.571.911s1.114-.473,1.293,0,.976.417.946,1.588-1.3,3.261-.946,3.64,1.041,1.116.946,1.621-.391.9.9.582.59.084,1.891-.582,3.267-3.962,3.267-3.962a1.086,1.086,0,0,1,.651-1.3c.894-.3,1.556-1.588,1.556-1.588s-1.532-1,0-.911,2.972-.032,3.563,0,7.853-4.382,7.853-4.382l1.15-3.621a9.935,9.935,0,0,1,0-1.981,11.9,11.9,0,0,0,0-3.382c-.2-1.158.325-3.607,0-4.374a10.409,10.409,0,0,1-1.15-2.688c-.061-.847.617-1.164,0-1.751s-1-1.913-1.542-2.65-.354-.8-1.033-1.313-7.792-6.116-7.792-6.116l-4.4-6.046s.905.055,0-.961a3.661,3.661,0,0,1-1.144-3.208c.187-1.287-1.029-.474,0-2.557s.669-2.123,1.71-2.546a15.521,15.521,0,0,0,1.9-1.1,9.167,9.167,0,0,0,2.749-2.4c.771-1.056,1.744-1.232,1.69-1.745s1.068-1.763,1.068-1.763" fill="none" stroke="#151515" stroke-linecap="round" stroke-linejoin="round" stroke-width="2"/>
      <path id="Path_8791" data-name="Path 8791" d="M630.2,6336.488s-.314-.292.366-.807a4.273,4.273,0,0,0,1.414-1.968,14.463,14.463,0,0,1,.64-1.624s-.462-.229,0-1a5.219,5.219,0,0,0,.671-1.77c.1-.441.549.562,0-1.35a16.548,16.548,0,0,1-.671-2.783c-.121-.772.432-.852,0-1.607s-.068-.734-.64-1.885a10.141,10.141,0,0,0-1.414-2.333c-.652-.813-.323-.312-1.31-1.636s-1.535-1.928-1.555-2.549a2.062,2.062,0,0,1,.61-1.585,20.2,20.2,0,0,0,2.254-4.365c-.072-.393.533,1.2-.366-1.443s-.168-2.4-.943-2.971-1.069-.9-1.555-1.227-1.055.31-1.454-1.212a13.512,13.512,0,0,1-.638-3.108c-.063-1.108,0-1.67,0-2.484s.679-1.521.638-2.4.762-3.479,3.009-3.608a6.872,6.872,0,0,0,4.034-1.549,53.532,53.532,0,0,1,3.172-1.69c1.251-.531,1.473-.441,2.033-1.1s.6-.6.825-1.205.345-1.071.572-1.559a.883.883,0,0,0,0-.833l.561-.417" fill="none" stroke="#151515" stroke-linecap="round" stroke-linejoin="round" stroke-width="2"/>
      <path id="Path_8792" data-name="Path 8792" d="M637.886,6286.88a6.283,6.283,0,0,1,.46.688,5.284,5.284,0,0,1,.161,1.363c.01.672.139,1.544.159,1.768s-.1.3,0,.57a2.754,2.754,0,0,0,.218.562.975.975,0,0,0,.7.32c.293.024.162-.122.5,0s1.018.239,1.236.338.484.117.644.209.1-.155.378.336.334.267.228,1a12.962,12.962,0,0,0-.228,1.385c-.021.521.271.033-.378,1.222s-.641.078-.644,1.764.417,1.461,0,2.038-1.362.735-1.236,1.286a1.405,1.405,0,0,0,1.7.753,6.407,6.407,0,0,0,2.46-1.112,10.969,10.969,0,0,1,1.418-.927c.585-.29,1.011-1,2.089-.856s.962-.051,1.353.318.362.837,1.6.243a3.519,3.519,0,0,0,1.743-1.327,4.749,4.749,0,0,1,.606-.682,2.444,2.444,0,0,1,2.848.682c1.226,1.442,1.834,2.017,1.92,2.159a11.17,11.17,0,0,0,.65,1.129,3.832,3.832,0,0,1,.78,1.04c.528.877.515.517.582,1.148s.3,1.73.35,2.315,3.237,5.112,3.306,5.517-.3.618,0,1.152.368.12.368,1.241a13.694,13.694,0,0,1,0,2.449c-.137.288-.4.1-.368.808a13.511,13.511,0,0,0,.368,2.033.488.488,0,0,0,.461.452c.443.046,1.052.813,1.612,0a9.015,9.015,0,0,1,1.169-1.431c.353-.366.3-.632.868-.674s1.652.085,2.341,0a8.249,8.249,0,0,1,1.521,0c.5.008.766.68.84,0s-.015.96,0-2,.337-4.1,0-4.391a7.363,7.363,0,0,1-.84-.993,3.776,3.776,0,0,0-.444-.611c-.344-.412-1.076-1.271-1.076-1.271a9.583,9.583,0,0,0-1.166-1.117c-.435-.3-.476-.71-1.175-1.161s-2.037-1.316-2.037-1.886.648-.59,0-1.082a69.692,69.692,0,0,1-5.16-6.576,19.5,19.5,0,0,0-2.3-2.178s.1-.345-.65-.856-2.389-.767,0-1.885,3.372.175,2.013-3.22-2.388-4.507-3.933-3.858-3.127.809-3.454.443a12.335,12.335,0,0,1-1.259-1.6c-.172-.349-.887-1.307-1.163-1.951s-1.059-1.317-.919-1.646-1.353-2.254-1.353-2.254l-.385-.916" fill="none" stroke="#151515" stroke-linecap="round" stroke-linejoin="round" stroke-width="2"/>
      <path id="Path_8793" data-name="Path 8793" d="M649.676,6329.2s.227-1.023,0-1.286a2.652,2.652,0,0,1-.482-1.053c-.136-.47-.283-.965-.466-1.843a5.507,5.507,0,0,1-.3-2.108,20.639,20.639,0,0,1,1.618-2.727c.473-.643,4.781-2.635,8.175-2.278s4.97.622,4.97.622" fill="none" stroke="#151515" stroke-linecap="round" stroke-linejoin="round" stroke-width="2"/>
      <path id="Path_8794" data-name="Path 8794" d="M672.818,6318.233a5.943,5.943,0,0,0,.336,1.625c.281.674.763,1.644.958,2.137a4.783,4.783,0,0,1,.3,1.48c.149,1.018,1.225.882.585,2.275s-.632,1.508-1.846,2.325-1.414.952-1.876,1.318-.42.152-.86.7a6.264,6.264,0,0,1-.9,1.113,9.862,9.862,0,0,1-1.987.412c-1.155.257-1.069-.04-1.35.467s-.792.259-.415,1.1a5.419,5.419,0,0,1,.415,2.1c.01.411.41.345,0,.613a2.9,2.9,0,0,1-1.651.516c-.562-.052-.806.287-1.087,0s.707-.794-.751-.516-2.168.32-2.293.516a4.5,4.5,0,0,1-.292.505c-.364.576-.5.751-.5.751" fill="none" stroke="#151515" stroke-linecap="round" stroke-linejoin="round" stroke-width="2"/>
      <path id="Path_8795" data-name="Path 8795" d="M637.063,6356.771l.582,4.656s-.169.257,0,1.207-.125.705.427,1.658a13.382,13.382,0,0,1,1.056,2.311c.423,1.06,1.051,1.709,1.507,2.8s.4,1.88,1.208,2.738-3.14-3.266,2.113,1.761,4.555,4.535,6.34,5.758,3.248,2.115,4.519,2.158,1.064-2.114.434-3.141-.906-1.485-1.451-2.432-1.133-.8-1.17-2.344-.625-2.445,0-4.5.994-2.925.754-3.623.381-.216-1.165-2.136-2.046-2.982-2.814-3.666a11.228,11.228,0,0,0-3.365-1.261" fill="none" stroke="#151515" stroke-linecap="round" stroke-linejoin="round" stroke-width="2"/>
      <path id="Path_8796" data-name="Path 8796" d="M582.441,6128.057l8.717-3.954,7.134-4.831a9.506,9.506,0,0,1,2.612-1.759c1.07-.325-.406-.069,2.77,0s4.226,1.247,5.6,1.759,4.424,2.008,4.424,2.008-.83-1.271,1.611,0a12.112,12.112,0,0,0,4.771,1.671c.778,0,2.819-.062,3.49,0s2.071-1.5,2.6-1.671-.965-1.91,0-2.008,1.223-6.127,1.223-6.127,1.038-2.38,2.262-2.991,6.826,0,6.826,0a15.592,15.592,0,0,1,4.347,1.326c2.43,1.117,4.017.845,4.795,1.665s3.328,2.6,3.6,4.369,1.261,3.92,2.391,3.767a22.53,22.53,0,0,1,3.8,0c1.994.055,3.778,1.325,7.436,0s2.271-3.894,6.585-2.008,3.248,3.387,5.561,3.679,6.993,7.649,16,5.105,12.539-3.954,12.539-3.954.582-3.554,3.341-2.823,9.389,1.671,9.389,1.671h1.31" fill="none" stroke="#151515" stroke-linecap="round" stroke-linejoin="round" stroke-width="2"/>
      <path id="Path_8797" data-name="Path 8797" d="M755.45,6184.079s6.275,1.481,4.169,5.76-3.923,5.264,0,5.5a57.261,57.261,0,0,0,7,0l2.613-1.8a7.19,7.19,0,0,1,2.932-1.1c1.068.064,1.64-.1,2.155,0s0-1.347,0-1.347a15.972,15.972,0,0,1-2.155-1.939c-.349-.544-2.11-2.785-2.11-2.785s-1.212-.792,0-1.374.252-1.226,2.11-1.91-.112,1.288,3.417-1.306,4.22-2.948,4.694-3.354a4.015,4.015,0,0,0,1.33-1.431,11.728,11.728,0,0,0,.883-2.749,8.008,8.008,0,0,1,.606-2.35,7.55,7.55,0,0,1,1.418-2.554c.716-.657,1.388-1.369,1.388-1.369" fill="none" stroke="#151515" stroke-linecap="round" stroke-linejoin="round" stroke-width="2"/>
      <path id="Path_8798" data-name="Path 8798" d="M765.927,6196.646l1.349,1.573a1.051,1.051,0,0,0,0,1.012c.294.537-1.629,1.587-1.349,2.056s-.28.367,0,1.879a21.164,21.164,0,0,1,0,4.362s.225-.262,0,.883-.37,2.869,0,3.529,2.72,1.052,3.668.692,1.624-1.182,2.947-1.766,2.043-1.372,3.323-1.869,3.443.139,4.194-.586.89.556.61-2.5-.785-4.274-.61-4.626-.382-1.814-.867-3.067.642-1.292-1.271-3.2a21.868,21.868,0,0,1-2.057-2.164" fill="none" stroke="#151515" stroke-linecap="round" stroke-linejoin="round" stroke-width="2"/>
      <path id="Path_8799" data-name="Path 8799" d="M788.1,6166.672s3.269-3.025,3.9-3.09a28.634,28.634,0,0,1,5.3,1.629c.542.283,2.264,3.041,3.742,1.461a10.512,10.512,0,0,1,2.815-2.3c.58-.349.317-.318,2.307-1.9s.024.021,3.575-2.881,3.333-2.485,4.586-4.326,1.843-2.852,3.3-5.166,11.546-10.591,14.552-19.78,3-10.155,4.146-17.633,3.292-7.286,0-11.359-4.367-7-7.9-6.14-3.886,5.45-6.821,3.97,1.421-5.675-1.671-3.97-6.317,1.967-5.605-1.075-10.46,1.364-5.918-3.163,9.417-6.863,18.715-15.745,7.734-12.908,18.327-15.389,21.655,2.1,27.047,0,9.551-4.5,14.123-2.586,12.5,6.689,14.293,2.586.532-4.594,4.611-8.155,7.31-2.664,8.3-6.775,12.4-4.284,16.983-4.09-2.54,4.383,0,6.221,2.754.628,8.51-2.131,5.473-5.037,5.595-7.288,11.577-5.2,9.846-1.549-4.2,3.176-5.641,8.837-6.407,4.459-9.8,8.081-15.677,16.126-16.627,16.366-3.206,1.549-4.7,2.016-3.314-1.012-3.655.6-.847,5.623-1.263,6.233-5.552,2.381-4.822,10.645,6.085,29.037,6.085,29.037,6.83-6.276,7.817-9.5.187-5.278,3.4-6.239,2.561-1.728,3.319-4.675,6.761-4.292,7.788-4.544,2.273-.533,2.273-.533.026-2.72,0-3-2.417-1.106-.93-3.441,4.643-4.469,6.46-4.3.04-2.312-1.526-3.446-.845-4.438.949-5.807-4.953-1.027-4.953-1.027-1.127-4.12,2-6.842,6.726-8.47,6.726-8.47a7,7,0,0,1,2.86-1.018h2.451l.525,1.018,3.862-4.019,1.91-1.061s.851.294.875.7,0,3.359,0,3.359,5.9-3.139,6.342-3.359,6.359-.7,6.359-.7,3.1.787,3.78,1.061,2.18.717,2.387,1.493,1.568,1.508,1.568,1.508v-3s11.7-4.5,14.234-7.132,10.572-4.89,16.068-7.288.854-1.778,6.531-1.549,8.67,2.563,7.12-1.389-2.864-3.49-3.646-6.221-1.395-3.935-4.352-4.729,1.862-3.745-2.562-3.284-9.095-.38-4.872-2.191,6.9,1.433,10.439,1.292,11.952-2.778,11.15-5.825-7.878-3.438-1.065-5.958,3.859-.309,5.921,2.484a9.147,9.147,0,0,0,9.414,3.475c4.063-.719,2.34,3.269,5.293,4.533s5.1,2.54,7.869,3.33a29.822,29.822,0,0,0,5.56.963s2.518-.639-1.117-2.1,2.271-2.191,2.271-2.191,1.159-2.108-.585-3.447-1.524-3.979.585-3.38,3.891,2.568,5.646,1.494,3.36-1.549,3.851-1.966a14.789,14.789,0,0,0,1.4-1.626s.454.851-1.914-1.566-3.906-4.1-4.447-4.3-1.76-.929-2.508-1.209.5-.312-1.612-.542-3.406-.3-4.357-.409-2.713-.921-3.934-1.2-2.792.832-2.118,2.152,1.264,3.913.74,4.22-3.116-.427-3.428-1.225a9.934,9.934,0,0,1-.587-3c-.054-1.111,2.061-1.616-.685-4.5s-19.043-10.313-19.043-10.313a45.763,45.763,0,0,0-5.611-2.261c-1.909-.5-6.179-2.128-6.691-2.782s-1.082-2.128-3-2.638-2.577.877-3.859,0-2.344-.555-3.575-1.165.776-.872-3.394-.965-10.388-.01-10.895,0-2.3,0-2.3,0-4.088-1.476-5.474-2.064a15.475,15.475,0,0,0-3.323-1.39c-1.07-.156-5.008.6-3.14,4.419s3.262,11.225-1.568,8.847a50.255,50.255,0,0,1-9.191-6.144s-1.138-3.86,1.489-2.7,6.706-.7,2.835-1.882-6.2-.454-8.665,1.882-6.794,1.766-12.509,1.165-11.226-1.907-13.647,0-1.914,2.5-2.707,3.673-2.064,1.566-2.521-1.336-2.139-2.811-4.721-3.5,1.457-2.18,0-5.122-2.686-3.8-6.656-5.3-12.763-1.281-20.528-.876-11.219,2.886-11.793,0-2.34-3.332-6.083-3.917a14.937,14.937,0,0,1-6.038-1.934c-1.95-.93-7.71.3-3.27-1.428s5.121-1.065,5.395-1.483,2.283-2.627-6.322-3.152-9.81,1.664-11.468,3.9-9.083,1.451-4.9-.747.944-2.957-1.185-3.152-5.3-1.829-.772-1.83,3.981-1.371-.95-2.063a127.024,127.024,0,0,0-14.545-.5l-3.1-.923s-.172-1.572-1.183,0-.592,2.141-.984,2.466-.272.27-1.451.5-.6.476-2.161.526-2.031-.638-2.514,0a2.734,2.734,0,0,0-.729,1.83c.056.6,4.182,3.152,4.182,3.152s-.144.161,0,.747a21.157,21.157,0,0,1,0,3.048l-3.452,1.05s.476-2.485-3.391-1.934-5.277.64-5.661.883,2.587,1.05,2.587,1.05a28.882,28.882,0,0,1-3.286,1.462c-.47.047-1.164-1.157-4.382-1.462a30.821,30.821,0,0,0-5.832,0h-.741a37.064,37.064,0,0,1-6.129-1.05c-2.316-.721-2.8.178-3.671-.883s.116-1.3-1.3-1.428-2.4.063-2.717,1.428.191.447-.7,1.934-2.13,5.249-6.339,4.958-8.579-6.855-9.05-7.641a32.1,32.1,0,0,0-2.555-3.547c-.44-.405-1.532-2.834,1.779-1.769s3.462.337,2.05-1.83-.436-5.4-3.829-7.558a13.872,13.872,0,0,0-8.811-1.612c-.7.223-3.836-.187-4.566,0a5.606,5.606,0,0,1-3.972-1.623c-.756-1.044-.886-1.6-2.116-1.759s-1.691-.892-2.9.7-1.584.046-1.941,2.678,0,3.37,0,3.37.057,4.062-10.379,2.063-14.556-1.36-14.265-3.82-2.225-3.048-5.766-3.235-16.125.042-16.689.782.072,2.4-1.065,2.454-2.957-.321-2.482-2.454.284-2.967-2.243-2.541-3.354,2.648-5.585.7-2.965-4.253-5.85-3.209-7.653,2.374-2.883,3.209,5.18.811.843,1.837-7.1,4.044-13.533,4.747-12.032,3.927-7.927,0,10-5.626,11.447-6.583,4.694-1.5,6.367-3.209,1.851-3.638,9.633-6.869,9.649-2.722,11.565-4.848a5.014,5.014,0,0,0,0-6.549c-1.322-1.685-.565-1.208-1.835-2.681s.341-1.683-3.058-3.264a35.046,35.046,0,0,0-5.642-2.348c-.813-.168-2.148.335-3.7,0s-1.185-.775-6.041,0-7.132.841-8.5,1.337,2.387.59-2.31,1.011-2.693-.406-.969-2.348,5.544-3.071.969-2.88-6.872-.273-9.18,0-2.595.363-3.056,0-.364-2.347,3.056-2.812,4.449-1.583,2.161-2.567-13.587-2.4-17.685.589a16.153,16.153,0,0,0-5.465,7.67l-.518,2.348-8.453.963s.177-1.91-.642,0-2,2.371-2.44,2.3-1.719.036-3,0-6.1,1.4-6.562,1.554-1.565-1.554-1.565-1.554l-3.372-.617a1,1,0,0,0-1.3,0,61.347,61.347,0,0,1-6.055,3.11c-.406.145,1.768,0-1.213.762s-4.489.572-7.386,1.45a55,55,0,0,1-6.388,1.373c-.8.18-3.232,3.139-4.525,3.586a32.659,32.659,0,0,1-3.718.97,5.164,5.164,0,0,0-1.794.493,2.417,2.417,0,0,0-1.833,2.292c-.267,1.378-.984,3.3-1.048,4.165s.2,1.037,0,1.963.2,2.633,0,3.118.549,3.414-8.069,2.564-20.579-1.646-20.685,2.5.306,7.967,4.3,8.972,8.571,3.965,5.257,5.135-4.555.825-9.055-2.249-9.205-2.109-10.879-2.886-2.09-1.292-2.856-1.448-2.6-.776-2.933,0-2.091.542,0,2.017a24.767,24.767,0,0,1,2.933,2.316s1.438-.882.653,0a5.289,5.289,0,0,1-3.586,1.354c-.737-.154.038.5-1.239,0a2.309,2.309,0,0,0-2.047,0s-1.662,2.428,2.047,3.855,5.716,1.757,7.028,3,1.687,4.524-2.856,1.82-7.8-2.76-10.209-3.229-3.339-1.084-2.239-4.547,3.592-2.976,2.239-5.986-3.9-4.517-4.008-1.305,2.348,4.229-2.673,6.4-7.676,2.859-5.5,5.441,4.853,3.713,4.14,8.8-4.073,8.844-1.148,9.45,5.405-.967,9.191-1.017,10.151,2.032,10.209,3.971.683,3.769,0,5.806-.219,3.366,2.25,4.421-1.191,4.131-4.06,1.831-2.435-2.353-2.362-5.484,2.026-7.007-3.375-7.261-9.284,1.329-8.368,4.512,2.6,2.551,0,6.4-4.3,6.835-6.477,7.82-3.209,2.657-4.219,3.017-.813.117-3.808,0-5.406.409-7.527,0-2.055.067-3.239-.81-6.245-1.03-2.058-2.208,8.177,2.188,11.38-.9,4.526-5.723,5.922-6.924,1.767-.483,2.494-2.926,1.578-2.174,1.055-3.477a47.705,47.705,0,0,0-2.154-5.344c-.978-1.813-1.781-9.292-1.395-10.884s.8-5.322.5-6.389-2.08-1.878-3.548-3.189-.187-.566,1.551-3.771a19.248,19.248,0,0,0,2-9.38c-.222-1.59-16.777,0-16.777,0s.247.827-1.022,4.246-5.842,7.252-7.8,8.905-5.857,1.658-2.568,4.005,3.168,3.271,1.947,6.787-.517,3.409,2.682,5.718a14.016,14.016,0,0,1,4.478,5.472l1.266.771s.339.969-1.266,3.054-7.969,8.648-9.106,13.327-.221,10.936,1.076,13.115-.6,15.759-2.542,21.177S474.419,6053,473.755,6055a14.247,14.247,0,0,0,0,10.068c1.721,4.238,2.06,6.386-1.289,11.042s-10.438,15.178-11.366,15.757a8.044,8.044,0,0,0-2.053,1.9c-.279.413-1.765,2.275-1.765,2.275" fill="none" stroke="#151515" stroke-linecap="round" stroke-linejoin="round" stroke-width="2"/>
      <path id="Path_8800" data-name="Path 8800" d="M635.8,5898.213s9.339.064,10.618,0,2.105-.113,6.119-1.421,2.223-.125,6.028-1.971,5.124-2.709,5.2-3.157,3.533.176-1.865-2.062-6.4-4.089-9.365-2-4.146,1.654-2.744-.84,5.086-6.926-2.082-3.794-6.77,7.906-8.725,9.818A16.739,16.739,0,0,0,635.8,5898.213Z" fill="none" stroke="#151515" stroke-linecap="round" stroke-linejoin="round" stroke-width="2"/>
      <path id="Path_8801" data-name="Path 8801" d="M609.724,5883.26a1.94,1.94,0,0,0,.429-.1c.436-.034,1.529-1.1,2.956.1,1.51,1.268,1.48.765,2.486,2.015a7.454,7.454,0,0,0,4.282,2.252,47.942,47.942,0,0,0,6.18.979c2.189.1,3.34-.368,4.95,0s.923,2.03,2.373,0,.241.027,1.519-3.706,1.5-3.2,1.33-4.437,0-3.133-1.33-3.261a10.764,10.764,0,0,0-4.927.99c-1.766.762-1.82.762-2.646.788s.8-2.006-3.713-1.778-3.245-.118-6.318.99-3.9,1.69-5.321,2.271a1.615,1.615,0,0,0-1.043,1.93" fill="none" stroke="#151515" stroke-linecap="round" stroke-linejoin="round" stroke-width="2"/>
      <path id="Path_8802" data-name="Path 8802" d="M600.89,5878.049s1.036.821,1.418,1.116-.024.278,2.124,1.116,1.388,1.14,3.053.623,1.4.357,2.763-1.738,1.073-3.047,2.113-3.427,3.423-.943,4.284-1.208.913-.883,3.7-1.146,3.81.2,4.393-.477,1.594-3.482,0-4.407-2.043-1.437-3.366-2.048-1.774-1.065-2.094-1.978,2.777-2.02-.5-1.323a19.223,19.223,0,0,0-6.084,2.081,7.321,7.321,0,0,1-3.382,1.22c-.917-.053-1.266-2.649-1.83,1.166s-1.618,4.645-2.388,4.661-2.525-.966-2.789,0,2.361,2.4,3.158,2.879.646,1.229,0,1.4-1.427.311-2.245.459A10.56,10.56,0,0,0,600.89,5878.049Z" fill="none" stroke="#151515" stroke-linecap="round" stroke-linejoin="round" stroke-width="2"/>
      <path id="Path_8803" data-name="Path 8803" d="M835.986,5944.865c1.441.153,2.828-.574,3.875,0a8.444,8.444,0,0,0,3.257,1.187,16.46,16.46,0,0,0,5.269.362c1.342-.239,2.1.216,1.864-.362a8.664,8.664,0,0,0-1.864-2.669c-1.033-1.02.138-.893-1.942-1.666s-3.941-2.217-5.8-1.563-3.613.133-4.653,1.563-1.632,1.958-.962,2.683" fill="none" stroke="#151515" stroke-linecap="round" stroke-linejoin="round" stroke-width="2"/>
      <path id="Path_8804" data-name="Path 8804" d="M833.29,5939.231a12.7,12.7,0,0,0,2.553-.422c.839-.154.73.085,1.026-.252s1.227-.006.826-1.348-.646-1.609-1.395-1.392-2.386.059-3.172.672-1.738.432-1.215,1.349A4.482,4.482,0,0,0,833.29,5939.231Z" fill="none" stroke="#151515" stroke-linecap="round" stroke-linejoin="round" stroke-width="2"/>
      <path id="Path_8805" data-name="Path 8805" d="M850.295,5929.539a5.712,5.712,0,0,1-1.767-.579c-1-.525-1.457-.683-1.95-1.4a11.474,11.474,0,0,1-1.235-2.214c-.048-.294-.16-1.517-1.291-1.292s-3.08.541-2.549,2.06,2.508,1.959,1.363,2.848a4.354,4.354,0,0,1-2.992,1.207c-1.373.091-4.084-.139-4.6,0s-.387-.612-1.956,0a7.436,7.436,0,0,1-3.609.444c-1.336-.021-2.717-.653-4.25-.444s-1.412.869-3.353,0-4.467-6.85,0-10.387,5.622-3.68,7.6-1.785a31.82,31.82,0,0,0,3.609,2.883,8.391,8.391,0,0,0,2.515.915c.436.153,2.715-1.594,3.15-2.012s-2.2-1,2.519-.6,5.008.606,5.906,1.087a13.6,13.6,0,0,0,4.029,1.095c.848.021.967-3.033,2.656.427s1.838,4.126.7,5.342a8.324,8.324,0,0,1-2.064,1.827A19.991,19.991,0,0,1,850.295,5929.539Z" fill="none" stroke="#151515" stroke-linecap="round" stroke-linejoin="round" stroke-width="2"/>
      <path id="Path_8806" data-name="Path 8806" d="M862.874,5928.1a20.393,20.393,0,0,1,5.345,1.239c1.587.847.889,1.587,3.067,2.118a28.111,28.111,0,0,0,6.5.679c1.981,0,1.324.287,3.37,0s5.122.063,4.866-1.7-.087-2.7-2.786-3.146-14.612-2.281-15.942-2.714-1.116-.877-2.053-.5-2.255.292-2.867,1S862.874,5928.1,862.874,5928.1Z" fill="none" stroke="#151515" stroke-linecap="round" stroke-linejoin="round" stroke-width="2"/>
      <path id="Path_8807" data-name="Path 8807" d="M1023.218,5967.146a22.179,22.179,0,0,1,6.553,0c3.319.556,4.953.78,6.229,0s1.213-.542,2.352-1.308.849-2.159-3.875-3.179-4.747-.34-7.389,0a12.6,12.6,0,0,0-5.429,1.7C1020.955,5964.957,1023.218,5967.146,1023.218,5967.146Z" fill="none" stroke="#151515" stroke-linecap="round" stroke-linejoin="round" stroke-width="2"/>
      <path id="Path_8808" data-name="Path 8808" d="M1068.279,6030.671s3.992,1.136,6.332,1.6.969-.125,3.779,0a27.274,27.274,0,0,0,3.828,0s-.471-3.259-1.864-3.483-11.382.161-12.075,0-1.655-1.314-1.2,0A4.229,4.229,0,0,0,1068.279,6030.671Z" fill="none" stroke="#151515" stroke-linecap="round" stroke-linejoin="round" stroke-width="2"/>
      <path id="Path_8809" data-name="Path 8809" d="M845.57,6097.424c.594,3.284.342,1.188,1.133,2.683s1.81,2.173,1.908,3.1.214-1.309-.334,3.538-.577,4.642.334,7.645a41.335,41.335,0,0,0,1.718,4.777c.742,1.934.795,1.237,1.521,3.834a29.19,29.19,0,0,1,.952,4.172c.273,1.514.138,1.892,0,2s-.762-.019-2.174-.7-1.766-1.379-3.047-1.3-2.02.563-2.012,1.3-.908,5.819-.814,7.441a18.188,18.188,0,0,0,.814,4.388c.616,2.479.4,2.772,1.681,3.952s1.741,1.047,1.806,1.439,1.211,2.264-.779.838-1.864-2.333-2.707-2.629-1.489-.75-1.878-.445-.321,1.776-.7,2.236a8.874,8.874,0,0,1-.853.838c-.282.291-1.414,1.411-1.113-.838a31.3,31.3,0,0,1,.857-4.151c.429-1.925.254-9.125.256-10.051s-.354-.034-.256-2.321-.1-3.231,0-5.375a75.118,75.118,0,0,1,.256-7.923,28.163,28.163,0,0,0,.392-4.962c-.037-.516-.259,1.043-.392-1.069a16.519,16.519,0,0,0-.256-3.1c-.45-4.188-.35-4.2.647-5.893a9.6,9.6,0,0,0,1.424-3.429c.068-.628-.167-.718,0-1.265S844.977,6094.14,845.57,6097.424Z" fill="none" stroke="#151515" stroke-linecap="round" stroke-linejoin="round" stroke-width="2"/>
      <path id="Path_8810" data-name="Path 8810" d="M861.448,6158.289l-3.681,4.783s.184.15,0,.84-.562,2.377-.863,2.2.255-.01-1.083,0-1.814-.389-2.648,0-4.431.455-4.9,1.1a4.635,4.635,0,0,0-.852,2.615v1.375a7.4,7.4,0,0,0-1.221-.568c-1.038-.428-1.274.4-2.491-.807s.521-1.124-2.111-1.575-4-1.381-4.371-1.04-.2.2-1.374.556-1.735-1.062-1.842.484.989,1.95,1.416,2.382a1.588,1.588,0,0,1,.426,1.458c-.074.555,1.327.249-.426.717s-1.86.58-2.015.971-1.365.74-1.365.74a19.559,19.559,0,0,1-.42-2.826,5.179,5.179,0,0,1,0-1.866c.147-.943-.2-.933,0-2.06s-.647-.931,1.785-2.514a38.47,38.47,0,0,1,3.814-2.187c.969-.569.988.192,1.4-.975a24.347,24.347,0,0,0,.788-2.337,22.531,22.531,0,0,0,.676-3.771c.146-1.311-1.13-7.27,3.615-2.681a47.942,47.942,0,0,0,5.644,4.98,5.219,5.219,0,0,0,2.325,1.471c.668.056,2.083.011,3.05,0s1.064.8,2.181,0S861.448,6158.289,861.448,6158.289Z" fill="none" stroke="#151515" stroke-linecap="round" stroke-linejoin="round" stroke-width="2"/>
      <path id="Path_8811" data-name="Path 8811" d="M838.453,6178.114a15.155,15.155,0,0,0,.453,3.205,12.041,12.041,0,0,0,1.159,4.039,5.87,5.87,0,0,1,0,2.258c-.055,1.143,1.245.525,0,1.426a25.307,25.307,0,0,0-2.593,1.8c-.464.512-.551-1.21-.894,1.236s-1.062,9.647-1.062,9.647a6.871,6.871,0,0,0-.587,2.417c-.293,2.013-.628,3.441-1.574,4.465a7.323,7.323,0,0,1-1.828,1.661,18.036,18.036,0,0,1-2.774,1.613,4.206,4.206,0,0,1-1.884.691,3.072,3.072,0,0,1-1.81,0s1.392.064-1.682.6-2.969.625-3.709.536-1.166-.513-1.476-.536-2.025,0-2.025,0a1.092,1.092,0,0,0-1.733,0c-1.012.959-.8,1.19-1.163,1.963a3.771,3.771,0,0,1-1.6,1.978c-1.115.78-1.2.89-1.987,1.028s-1.339.64-1.472-1.028-.332-2.635-.9-2.927a2.549,2.549,0,0,0-1.533,0s3.069-.019-1.843-.479-4.665-1-5.545-.536-.387.76-2.094,1.014a17.423,17.423,0,0,0-3.881.949c-1.457.508-2.263.987-3.071,1.183s-1.455,1.215-1.5-.544,4.521-3.146,4.569-3.2a1.642,1.642,0,0,0,1.083-.691,5.71,5.71,0,0,1,1.456-1.613c.881-.7,1.338-1.466,2.523-1.661s2.022.237,3.638,0,1.782.1,4.662-.379a15.059,15.059,0,0,0,4.3-1.1c1.723-.619,1.6-.739,3.194-2.071s2.244-1.27,2.317-2.446.022-2.177.579-2.877.833-1.21,2.025-1.283.955.422,2.513,0a27.413,27.413,0,0,0,6.632-3.993c.267-.491.19-.4.842-1.527a12.852,12.852,0,0,0,1.177-2.977,23.892,23.892,0,0,1,1.395-3.619c.691-1.378.964-1.663,1.344-2.418s-.9-3.566,0-4.182,1.6-1.751,2.835-2.447a9.32,9.32,0,0,1,3.523-.729Z" fill="none" stroke="#151515" stroke-linecap="round" stroke-linejoin="round" stroke-width="2"/>
      <path id="Path_8812" data-name="Path 8812" d="M796.59,6222.894a2.571,2.571,0,0,0,1.251-.4c.417-.353.892-1.1,1.5-1.425s-.064-.336,1.413-.5.7,1.093,2.454-.391,2.263-2.373,2.31-2.874a4.314,4.314,0,0,0,0-1.779c-.2-.81-3.062-.67-3.931,0s.6.107-1.422.884-1.33.222-2.764.9-2.156-.527-2.666.834.139,4.085,0,4.755S796.59,6222.894,796.59,6222.894Z" fill="none" stroke="#151515" stroke-linecap="round" stroke-linejoin="round" stroke-width="2"/>
      <path id="Path_8813" data-name="Path 8813" d="M787.365,6231.222a30.518,30.518,0,0,1,1.646-3.194c.762-1.2,1.017-2.1,1.587-2.825s1.025-.483,1.395-1.525.677-.849,0-1.569-.418-1.034-1.825-1.772-1.382-1.059-2.8-1.438.167-1.827-2.174-.452-2.737,1.872-3.259,2.618-.79-.466-.79,1.044.016,1.771.79,1.569a3.032,3.032,0,0,0,1.323-.683,9.1,9.1,0,0,0,.965-.887s.788-2.437.971-1.044.473,1.505.523,2.614a25.723,25.723,0,0,1,0,3.416c-.1,1.066-.7,1.452-.523,1.773s-.065-.559,0,1.008a3.078,3.078,0,0,0,.523,1.858c.036.284-.2.714.621.462A1.578,1.578,0,0,0,787.365,6231.222Z" fill="none" stroke="#151515" stroke-linecap="round" stroke-linejoin="round" stroke-width="2"/>
      <path id="Path_8814" data-name="Path 8814" d="M743.265,6265.846s-2.259,5.645-2.75,6.42-.041,1.055-1.113,2.368-.764,2.321-2.167,2.778-2.708,2.523-2.109-1.267.642-3.883.737-5.2-2.932-1.489,0-4.083,2.881-3.83,4.652-3.82,2.413-1.146,2.75,0A7.139,7.139,0,0,1,743.265,6265.846Z" fill="none" stroke="#151515" stroke-linecap="round" stroke-linejoin="round" stroke-width="2"/>
      <path id="Path_8815" data-name="Path 8815" d="M743.414,6300.25a6.249,6.249,0,0,1,1.678,3.275c.177,1.782,1.536,1.336,0,3.433s-3.039,2.143-3.566,3.831-1.055.712-.753,2.316.521,1.969.753,3.028,1.376,2.228,0,3.083a5.255,5.255,0,0,1-2.912.965c-1.409.224-2.636,1.953-3-.965s-.106-1.827-.716-3.083-1.137-.951-1.248-2.1-.484-1.432,0-2.355a4.632,4.632,0,0,1,1.248-1.9c.808-.726.553-.764.716-2.818a33.665,33.665,0,0,0,0-3.433c.054-.9-4.295-1.463,0-3.275s4.428-2.525,5.161-2.193a25.009,25.009,0,0,0,2.642.828Z" fill="none" stroke="#151515" stroke-linecap="round" stroke-linejoin="round" stroke-width="2"/>
      <path id="Path_8816" data-name="Path 8816" d="M741.91,6321.169s2.506.859,3.293,1.11a6.151,6.151,0,0,0,1.837.362c.608.022.677-.494,1.548,0s.371-1.3,1.616,1.008,1.644,3.921,1.519,4.375-.969.406,0,1.768a6.738,6.738,0,0,0,3.31,2.4c-.173,0-.986-1.1-.922-1.1.278,0,.723,3.506,1.207,4.509s.18.09.739,1.174.143,3.226,1.116,1.92a11.41,11.41,0,0,0,1.476-2.8c.274-.577-.192-.443.694-1.022s1.647-.808,1.659-1.211,1.006.467,0-1.469a24.848,24.848,0,0,0-2.354-4.17c-.5-.452-.518-1.179-2.024-1.728a26,26,0,0,1-2.74-.913c-.348-.265-.047.582-1.635-1.966s-1.347-3-2.045-3.357-.188-.556-1.616-.69-.7-.436-2.39,0a10.575,10.575,0,0,0-2.668,1C743.278,6320.5,741.91,6321.169,741.91,6321.169Z" fill="none" stroke="#151515" stroke-linecap="round" stroke-linejoin="round" stroke-width="2"/>
      <path id="Path_8817" data-name="Path 8817" d="M545.733,6342.458s-.409-1.735-.866.608-.839,1-.974,5.168a42.492,42.492,0,0,0,0,5.708c.085,1.312,2.016,6.919,5.358,5.042s4.415-4.14,4.467-4.507a13.493,13.493,0,0,0,0-1.856,3.233,3.233,0,0,0-.717-2.367,9.561,9.561,0,0,0-1.316-2.019c-.725-.926-3.545-4.348-3.762-4.718a2.015,2.015,0,0,0-.615-.8A6.2,6.2,0,0,0,545.733,6342.458Z" fill="none" stroke="#151515" stroke-linecap="round" stroke-linejoin="round" stroke-width="2"/>
      <path id="Path_8818" data-name="Path 8818" d="M735.676,6323.546a9.029,9.029,0,0,0,.827,2.115,20.549,20.549,0,0,0,2.235,2.89c.713.691.232,2.607,1.374.766s1.7-1.094,1.142-2.533-.272-1.935-1.682-2.636a12.1,12.1,0,0,0-2.044-.96A7.986,7.986,0,0,0,735.676,6323.546Z" fill="none" stroke="#151515" stroke-linecap="round" stroke-linejoin="round" stroke-width="2"/>
      <path id="Path_8819" data-name="Path 8819" d="M742.686,6332.848a15.079,15.079,0,0,0,0,2.568c.146.381-.076,1.071,1.279,1.339s1.276.9,2.013,0-.205-3.516.977-1.106,1.077,2.742.91,2.982-1.486.242-1.887,1.509a6.011,6.011,0,0,0-.381,3.082c.128,1.424-1.6,2.826,1.031,2.361s4.55-3.059,4.658-3.229.343-.718.436-.882.117-.022.269-.812a8.4,8.4,0,0,0,.5-2.429,3.255,3.255,0,0,0-.77-2.1c-.533-.793,1.418.113-1.25-1.38s-2.82-1.779-3.1-1.9-.325-.175-.741-.737-.263-.529-1.031-.984-1.259-1.453-2.12-.794S742.686,6332.683,742.686,6332.848Z" fill="none" stroke="#151515" stroke-linecap="round" stroke-linejoin="round" stroke-width="2"/>
      <path id="Path_8820" data-name="Path 8820" d="M731.241,6336.628a21.772,21.772,0,0,1-1.446,3.193,17.023,17.023,0,0,1-2.358,2.489c-.534.546-.828,1.073-1.831,2.063s-1.592,1.47-2.276,2.067a5.872,5.872,0,0,1-1.956,1.136c-.335.067-1.488,1.216-.607-.647s2.862-3.4,4.141-4.619.957-.7,1.837-2.148,1.379-1.919,1.8-2.668.4-2.808.958-3.146.084-1.321.916-.26A4.582,4.582,0,0,1,731.241,6336.628Z" fill="none" stroke="#151515" stroke-linecap="round" stroke-linejoin="round" stroke-width="2"/>
      <path id="Path_8821" data-name="Path 8821" d="M752.5,6352.47a8.884,8.884,0,0,0,.476,3.536c.616,1.279.014.971.933,1.874s.919,1.411,2.454,2.134.976.59,2,1.011,2.159,1.81,2.289,1.164-.081-4.044,0-5.3-.875-1.536,0-1.855.781-.123,1.813-.541.689.187,1.243-.559.887-1.406,1.188-1.809a4.01,4.01,0,0,0,.727-2.879c-.256-1.221-.711-2.242-1.03-3.319s-.647-.975-.884-2.348-.12-2.537-.958-2.488-1.425,1.44-2.1,2.116-.325.695-1.7,1.468a27.985,27.985,0,0,0-3.254,1.7,2.79,2.79,0,0,1-1.524,1.164c-1.245.559-1.844.909-2.371.759a3.772,3.772,0,0,0-1.638-.381c-.966,0-1.844-.236-2.755.381a12.622,12.622,0,0,0-3.317,2.5c-1.519,1.627-2.747,1.59-2.327,2.308a2.325,2.325,0,0,0,2.019,1.39,3.332,3.332,0,0,0,2.868-.559,28.232,28.232,0,0,1,3.989-2.161c.317-.088-.27-.813,1.161-.271S752.5,6352.47,752.5,6352.47Z" fill="none" stroke="#151515" stroke-linecap="round" stroke-linejoin="round" stroke-width="2"/>
      <path id="Path_8822" data-name="Path 8822" d="M756.613,6383.409c-1.046.912-1.247,1.617-2.921,2.1s-2.092.619-3.345.879a8.607,8.607,0,0,1-2.775,0,9.628,9.628,0,0,0-2.683-.529c-3.14-.387-4.517-.81-6.081-.35s-3.074.861-3.554,1.757-2.035,4.648-2.171,5.051,2.718,6.145,5.725,4.262,3.611-2.682,4.205-2.9-.207.086,1.311-.671,2.769-1.179,3.248-.989,1.223-.066.853.989a4.87,4.87,0,0,1-2.3,2.572c-1.049.553-2.291.237-3.114,1s-1.666.566-1.7,1.136-.312-.138,0,1.282.674,1.1,1.7,2.105a6.569,6.569,0,0,1,1.311,3.99c-.16.231-.364,1.833,0,2.2s.142.424.565.864a1.685,1.685,0,0,1,0,2.4c-.871,1.111-1.269,1.233-1.876,1.248s-2.054,0-2.054,0,1.009,2.52-.665-.642-2.051-3.294-2.152-3.875-.639-2.806-.694-3.164-.3-1.3-.3-1.3-1.147-1.339-1.9-.714-1.184-.041-1.375,1.657-.337,4.785,0,5.656.058.126.689,1.734,1.112,1.155.686,1.919.107.682-.686,1.779-.812,1.181-1.485,1.583-1.246.452-1.246,0a6.4,6.4,0,0,0,0-1.982c-.179-1.413.1-2.938,0-3.9a30.391,30.391,0,0,1,0-4.11c.082-.286,1.156-.752-.361-.627s-2.725.362-3.311,0-2.019-1.8-1.887-2.048a5.667,5.667,0,0,0,1.023-1.657c.6-1.35-.115-.329.863-2.331a29.745,29.745,0,0,0,1.465-3.611,8.851,8.851,0,0,0,.825-2.5c.03-.517-1.141.5.4-2.245a30.428,30.428,0,0,0,2.226-5.926,5.573,5.573,0,0,1,2.764-2.1c.912-.389.08-.393,1.886-.5s1.749.054,3.581,0a17.547,17.547,0,0,1,5.246.5c1.864.482,1.811.748,3.787.713s4.048-1.751,4.867-2.274.886-.89,1.4-.7,1.377.989.924,1.382S756.613,6383.409,756.613,6383.409Z" fill="none" stroke="#151515" stroke-linecap="round" stroke-linejoin="round" stroke-width="2"/>
      <path id="Path_8823" data-name="Path 8823" d="M770.466,6381.1s-1.613.776-1.367,1.593-.619-.44,0,2.428-.02,2.678.8,3.534,1.729,1.774,2.479,1.174.211-.509,1.029-1.64-.145-1.358,1.186-1.424,2.039-.289,2.039-.694a2.576,2.576,0,0,0-.618-2.126,8.856,8.856,0,0,0-2.606-2.04c-.4-.307-1.029-.8-1.029-.8Z" fill="none" stroke="#151515" stroke-linecap="round" stroke-linejoin="round" stroke-width="2"/>
      <path id="Path_8824" data-name="Path 8824" d="M772.764,6404.105s2.669.414,3.362.537a19.765,19.765,0,0,0,3.722,1.123c2.285.361,3.307.54,3.307.54a2.173,2.173,0,0,0,1.019.456c.534.051,1.138-1.2.553-2.119s-.192-1.4-1.571-1.612-2.117.367-2.765,0-7.5-.13-7.625,0a7.739,7.739,0,0,0-.5,1.076" fill="none" stroke="#151515" stroke-linecap="round" stroke-linejoin="round" stroke-width="2"/>
      <path id="Path_8825" data-name="Path 8825" d="M762.557,6405.3a12.121,12.121,0,0,0,2.453,1.792c.843.314.28,1.254,2.4.462s2.222-1.2,1.726-1.688-.826-.394-1.726-1.35-.007-1.584-1.761-1.169a13.118,13.118,0,0,0-3.091,1.169" fill="none" stroke="#151515" stroke-linecap="round" stroke-linejoin="round" stroke-width="2"/>
      <path id="Path_8826" data-name="Path 8826" d="M835.264,6402.834v27.707s.9,2.6-1.913.5-4.511-2.25-5.295-1.963a18.038,18.038,0,0,1-2.93.608,37.752,37.752,0,0,1-5.924,0s-2.814.047.619-2.634,3.246-2.739,4.77-3.39,2.754,1.285,1.937-1.336,1.929-2.271-1.937-5.05-5.226-4.54-7.479-5.076-3.08-.473-4.964-.814-3.743-.841-4.376-.992a9.781,9.781,0,0,1-1.98-.84c-1.473-.659-3.584-1.606-4.034-1.842s.466-2.561-2.055-1.418-3.264,4.071-4.547.542-1.269-3.654-2.013-4-7.356-.429-1.176-.5,7.735-1.754,7.735-1.754.815-.466-.561-.566-.212-.62-2.574-.534-1.955.665-3.425,0-1.587-.25-2.031-1.427,1.772-2.358-1.14-2.945a23.319,23.319,0,0,0-4.538-.554,50.626,50.626,0,0,1,6.533-2.907,25.9,25.9,0,0,1,5.287-.586s-.446-.279,1.888,1.454a10.063,10.063,0,0,1,2.615,2.593c.5.419.767-.37,1.09,1.895s.272,2.807,1.008,4.375a9.55,9.55,0,0,0,1.937,3.049c1.052,1.211.837,2.884,2.766.636s8.62-7.187,8.555-7.01-4.251-.975.485,0,5.386.643,7.528,1.427,1,.712,2.93,1.1a58.664,58.664,0,0,1,6.565,2.253Z" fill="none" stroke="#151515" stroke-linecap="round" stroke-linejoin="round" stroke-width="2"/>
      <path id="Path_8827" data-name="Path 8827" d="M766.69,6431.016c-.354-.032-4.643,1.055-5.307,1.854s-.009-.118-1.84,1.293-2.579,1.094-3.635,2.15a13.985,13.985,0,0,1-2.073,1.848c-.8.587-2.7.136-2.916,0s-1.942-.68,0-2.964,1.012-2.695,2.916-3.1,3.057.029,5.011-1.086,1.306-1.271,2.537-1.714.508-2.361,3.6-.823S766.69,6431.016,766.69,6431.016Z" fill="none" stroke="#151515" stroke-linecap="round" stroke-linejoin="round" stroke-width="2"/>
      <path id="Path_8828" data-name="Path 8828" d="M733.413,6431.859a16.326,16.326,0,0,0,3.444.771,14.979,14.979,0,0,0,3.4,0c1.026-.025,1.063-.45,2.9-.771s1.05-.491,3.962-.7,6.675-.269,6.334-1.3-.942-1.5-3.22-1.139-3.525,1.19-3.953,1.139-3.644-.021-4.967,0-.74.326-1.714,0-2.132-1.165-2.743-1.139-3.444,0-3.444,0S730.289,6430.935,733.413,6431.859Z" fill="none" stroke="#151515" stroke-linecap="round" stroke-linejoin="round" stroke-width="2"/>
      <path id="Path_8829" data-name="Path 8829" d="M728.481,6435.859a13.434,13.434,0,0,0,1.73.934,18.766,18.766,0,0,1,1.854.8c.656.38.8.394,1.408.793s.02,1.492,1.613.813a2.426,2.426,0,0,0,1.421-2.4s-.176.405-.928,0,2.1-.1-1.648-.934-4.335-1.2-4.787-.758A5.63,5.63,0,0,0,728.481,6435.859Z" fill="none" stroke="#151515" stroke-linecap="round" stroke-linejoin="round" stroke-width="2"/>
      <path id="Path_8830" data-name="Path 8830" d="M715.755,6433.173a10.557,10.557,0,0,0,2.447.445,4.768,4.768,0,0,0,2.7-.445c1.784-.575,2.316-.8,2.316-.8h.8a17.756,17.756,0,0,1,2.066-.978,1.582,1.582,0,0,1,1,0s.6-1.079,0-1.513,1.523-.731-1-.857a34.367,34.367,0,0,0-4.058,0s-.732,1.089-1.13.857.146-.074-2.7,0-3.945-1.022-3.971,0S715.755,6433.173,715.755,6433.173Z" fill="none" stroke="#151515" stroke-linecap="round" stroke-linejoin="round" stroke-width="2"/>
      <path id="Path_8831" data-name="Path 8831" d="M663.562,6422.893s1.5-.017,2.563,0,.752-.811,1.589,0a7.314,7.314,0,0,1,1.29,1.444c.337.5-.687.321,1.078.845a12.493,12.493,0,0,0,3.477.757c1.559.133,1.776-.154,2.893,0a8.444,8.444,0,0,0,2.354,0c1.562-.062,2.527-.02,3.217,0s-.761-1.392,2.7.4,6.952,3.543,8.313,3.59a14,14,0,0,1,2.737,0c3.272.176,3.079-.457,4.709,0a36.4,36.4,0,0,0,4.719.781,16.884,16.884,0,0,0,4.941-.343l1.377-.438a35.883,35.883,0,0,0-3.366-1.468c-.641-.146-2.719-.7-2.952-.825a8.066,8.066,0,0,0-2.58-.8c-.96-.047-3.042-.585-3.419-.5s-1.343-1.16-1.343-1.16-1.247.417.4-.3a5.181,5.181,0,0,1,2.226-.544c.741-.184-.15.846,1.17,0a9.27,9.27,0,0,0,1.842-1.444c.071-.063,1.6-1.331-.873-.6a35.385,35.385,0,0,1-7.551,1.022c-1.11,0-1.6.491-3.136,0a29.7,29.7,0,0,0-4.09-1.348c-1.313-.2-.89.242-4.177,0s-4.969.258-6.008-.926-1.5-1.8-2.654-2.175-3.573-.977-4.07-1.046-.994-1.4-3.217-.354-3.125,1.309-3.707,2.015-1.388,1.46-1.264,2.184A2.235,2.235,0,0,0,663.562,6422.893Z" fill="none" stroke="#151515" stroke-linecap="round" stroke-linejoin="round" stroke-width="2"/>
      <path id="Path_8832" data-name="Path 8832" d="M662.729,6398.932s.818-1.4,1.079,0,.913,1.625,0,1.74-1.425,1.6-3.465,0a26.522,26.522,0,0,1-3.744-3.723,5.675,5.675,0,0,1-1.185-1.8c-.772-1.5-.611-1.928-1.128-2.871s-.686-2.192-1.66-3.419a35.668,35.668,0,0,1-2.258-2.794,12.464,12.464,0,0,0-4.3-4.352c-2.707-1.837-4.106-2.518-5.1-2.605s1.188,4.9-2.333,0-3.6-5.255-4.744-6.646-.773-1.586-3.011-3.206-3.089-1.8-5.405-3.459-1.627-1.425-3.1-1.976-2.607-1.961-5.429-1.25-2.943,1.663-2.656,2.166a50.14,50.14,0,0,0,4.128,3.539c1.1.945.162,1.668,2.581,4.187s-1.239,1.806,4.48,6.646,6.711,6.5,6.991,6.957-1.8,1.076,0,2.013,4.329,1.286,4.711,1.9-.252-3.368,1.458,2.3,1.581,7.2,2.333,8.39a35.305,35.305,0,0,0,2.984,3.333c1.242,1.458,1.306.633,5.228,4.711s4.077,5.141,5.1,5.683a26.506,26.506,0,0,0,4.746,1.7c1.4.338-.818,1.354,2.521,0s3.235-3.443,3.456-4.025.761-4.818,1.087-5.547.173-1.231.8-1.78.267,2.12,1.2-.747,1.128-4.033,0-5.072-2.393-2.573-3.087-2.7S662.729,6398.932,662.729,6398.932Z" fill="none" stroke="#151515" stroke-linecap="round" stroke-linejoin="round" stroke-width="2"/>
      <path id="Path_8833" data-name="Path 8833" d="M689.307,6291.753s-1.7,2.373-2.037,2.929-.5.879-.887,1.48.2,1.079-2.473,1.548-2.094,1.735-3.541,0-1.951-3.008-1.8-3.028a11.944,11.944,0,0,1,1.8-1.548,18.891,18.891,0,0,1,3.541-2.146c1.483-.588,5.176.188,5.4,0S689.307,6291.753,689.307,6291.753Z" fill="none" stroke="#151515" stroke-linecap="round" stroke-linejoin="round" stroke-width="2"/>
    </g>
  </g>
</svg>
