<svg xmlns="http://www.w3.org/2000/svg" width="603.017" height="455.127" viewBox="0 0 603.017 455.127">
  <g id="australia" transform="translate(-473.364 -7899.143)">
    <g id="Group_569" data-name="Group 569" transform="translate(254.378 191.788)">
      <path id="Path_8987" data-name="Path 8987" d="M309.172,8058.291s-5.27,5.952-5.763,6.7-5.122,1.976-5.122,1.976l-21.234,1.051-3.981,2.586s-.8-.306-2.079,1.164-8.488,2.244-11.413,4.342-5.93,4.159-5.93,4.159c-.555,0-9.685-3.04-9.685-3.04s-5.847-4.984-6.533-5.461-2.7-3.447-2.7-4.8,2.84-5.945,3.849-6.8,1.049-16.329,1.049-16.329l-7.251-16.14s.481-2.426.829-3.776a24.8,24.8,0,0,0,0-5.181l-9.128-20.461s.812-2.593,0-3.226-3.849-3.074-4.085-4.2,2.475-5.713,2.475-5.713h0a10.98,10.98,0,0,1,2.636,1.248l.825-2.9-.825-1.766-3.611-12.062v-3.806l.975-5s2.372-6.034,1.61-6.964.138-3.105,0-4.266a5.8,5.8,0,0,1,1.026-2.9l4.172,1.563L245,7936.4l2.284-3.007h9.907s21.312-8.9,22.511-9.578a44.928,44.928,0,0,0,6.5-6.32c.613-.964,3.392-4.855,3.892-5.832s1.12-2.235,1.12-2.235v-7.753l5.6-5.714s1.013,4.173,3.2,4.828,2.654-1.137,2.361-3.765-1.109-4.724,1.187-4.448,4.534,1.519,5.772-2.127a25.779,25.779,0,0,1,5-8.623c1.9-2.223,8.535-6.483,9.667-7.258a13.074,13.074,0,0,1,2.384-1.631c.876-.346,1.865.476,2.763,0s5.442,1.211,6.032,1.631a20.1,20.1,0,0,1,1.8,1.938c.591.591.521.725,1.457,1.595s5.753,1.133,6.421,1.259,3.938,1.638,3.938,1.638.037-2.887,0-3.723,1.188-3.376,1.525-4.337a10.876,10.876,0,0,1,1.381-3.084c.826-1.2,3.794-6.1,4.4-7.047s-.128-1.731,2.5-3.07,3.2-2.026,4.878-2.417,5.084,1.153,6.726,0,3.968-2.583,3.968-2.583a1.026,1.026,0,0,0,0-1.221,34.706,34.706,0,0,0-3.968-3.386,11.837,11.837,0,0,0,0-1.562c-.047-1.169-.541-2.018.9-2.018s1.659.249,3.065.944.431-1.342,3.161,1.073-3.1,1.489,5,3.6a104.782,104.782,0,0,0,15.286,2.564c1.387.3,3.49-.863,4.08,0s-1.389.233,2.191.979,4.3,1.6,4.3,1.6.487.31,0,1.586-.583,3.215-1.014,3.9a21.15,21.15,0,0,0-2.092,2.822,12.53,12.53,0,0,0-1.192,2.488c-.539,1.583,1.228,1.664,0,3.63s-1.881-.926-2.191,3.921-1.424,3.3,0,6.158,1.637,2.218,3.383,4.245,1.008,1.738,5.565,5.565,2.938,3.633,6.42,4.324,5.727-.053,6.611,1.063a16.61,16.61,0,0,0,1.644,1.791c1.2,1.281,2.918,1.189,3.55,1.974s2.664,3.412,3.258,3.921,3.844.761,5.232.769,2.937.486,3.754-.769,2.507-4.187,2.507-6.752-1.779-2.372,0-5.435,3.218-5.509,3.259-6.452a28.872,28.872,0,0,0,0-4.245,49.4,49.4,0,0,1-.88-7.258c0-3.074-.133-2.342,0-5.515s.834-4.754.88-6.247-1.489-1.4,0-3.9,3.876-7.772,4.618-8.775a10.463,10.463,0,0,0,1.693-2.635,18.63,18.63,0,0,1,1.726-2.875,9.037,9.037,0,0,1,2.191,1.931c.432.784.149,1.455.761,3.579s-.818-.668,1.163,3.386a54.764,54.764,0,0,1,3.217,7.071c.693,2.067.639-1.058,1.214,3.549a73.2,73.2,0,0,0,1.312,7.611s.855.255,1.613,2a4.4,4.4,0,0,0,2.545,2.762c1.191.578,2.2.459,3.76,1.595a17.231,17.231,0,0,1,2.36,2.016c1.06.954-1.733,1.327,0,2.771s1.962,1.131,2.238,2.289-.719.563,0,2,.967.32,1.388,2.527.9,3.632.9,4.46,2.17,4.656,2.17,4.656l3.468,14.234s-.455-.785.966,1.295a23.37,23.37,0,0,0,3.547,3.9s4.642,5.2,6.624,6.146,8.18,3.559,8.943,4.591.817.326.967,1.852,1.653,2.923,1.845,4.006.819,2.854.914,3.478-1.365-.445,0,1.9a12.241,12.241,0,0,1,1.653,3.641c.221.751,1.037,1.405,1.174,2.065s-1.239.5,0,1.657.612,1.017,2.788,1.694,6.059,2.43,6.408,3.182a10.286,10.286,0,0,1,1.17,2.838c.213,1.22-1.29,1.359,0,4.058a15.347,15.347,0,0,0,2.568,4.127c1.3,1.75-1.594-1.847,2.595,2.884s-.548-.117,5.023,5.277,6.895,5.432,7.739,4.962,1.772,2.631,1.772,2.631,1.292-3.135,0,2.124-.912,6.094-.912,6.094a3.462,3.462,0,0,0,0,1.579c.222.626.912,9.988.912,9.988s.672,1.494,1,2.512-1.66-.042,0,2.91,1.476,1.821,1.743,4.308-.149,4.051,0,5.111a11.447,11.447,0,0,1,0,3.271c-.161,1.473.557,1.345,0,2.225s-1.765.765-1.743,2.621,0,3.2,0,3.2l-2.771,12.322s1.4-1.357,0,1.215a40.949,40.949,0,0,0-2.513,4.725,10.874,10.874,0,0,0-1.205,3.906,38.876,38.876,0,0,1-1.1,3.9c-.462,1.754-1.72,3.167-2.011,4.072s2.213-2.356-.91,1.835-3.55,3.86-3.992,5.009-1.031,3.009-1.031,3.009a18.841,18.841,0,0,0-1.325,2.364c-.751,1.545-4.018,11.715-4.189,12.341a10.945,10.945,0,0,1-1.233,2.5,21.356,21.356,0,0,0-1.787,3.333c-.708,1.8-.715.987-1.018,2.88s-1.128,3.4-1.213,5.108.4.512,0,2.5.091,1.762,0,3.031a24.286,24.286,0,0,0,0,2.751s-.62,6.082-1.75,6.687a19.244,19.244,0,0,0-2.429,1.18c-.64.5-1.336.513-2.849.862s-1.717-.97-3.3,0-1.66.822-3.463,1.174-.143-1.052-3.444,1.094a33.1,33.1,0,0,0-4.655,3.393c-2.465,1.945-2.682,1.383-4.419,2.988s-2.263,1.647-2.693,2.591-.441,1.071-1.277,1.071-2.624,1.43-3.794,0-1.171-3.29-2.511-3.662-3.831-3.18-4.976-2.988-1.972.633-3.346,0-6.678,3.811-7.438,4.337-.93,1.543-1.766,1.242-2.35-.229-3.678-1.242-4.58-1.943-5.416-2.447-1.793-2.271-3.3-1.89-4.481.913-5.542,0-4.183-2.063-5.4-3.393-6.7-11-6.7-11a2.22,2.22,0,0,0,0-1.848c-.409-1.223,1.226-1.492,0-2.889a6.579,6.579,0,0,1-1.829-3.551,13.167,13.167,0,0,0-1.238-3.539c-.492-.922-1.115-.129-1.693-1.569s-.466-3.141-1.809-2.88a39.868,39.868,0,0,1-5.681,0,57.126,57.126,0,0,0,1.056-5.834v-3.086a10.609,10.609,0,0,0-1.056-2.649s.195-1.652-1.287,0-2.321,2.017-2.321,2.649a14.983,14.983,0,0,1-1.3,3.086s1.449,1.2-1.049,1.376-4.273,1.175-4.477,0,2.249-4.462,2.249-4.462l.791-1.63,1.437-1.02v-2.41s-.023-.631,0-1.433,0-1.885,0-1.885l2.352-4.542a3.215,3.215,0,0,0,.836-1.709c.3-1.271,2.127-2.522,1.485-3.282s-3.49-1.224-3.624,0,.062,2.511-1.049,3.282.57-1.369-2.228,1.709-4.1,3.831-4.607,4.542.331.4-1.008,1.885-2.569,1.548-3.2,3.843-1.217,4.364-1.217,4.364a1.62,1.62,0,0,1-2.166,0,20.912,20.912,0,0,0-2.19-1.715,5.269,5.269,0,0,1-1.743-2.649c-.205-.864.205-1.565,0-2.41s-1.189-5.085-1.189-5.085a5.763,5.763,0,0,0-1.009-1.941,31.454,31.454,0,0,1-2.139-2.542c-1-1.29-1.149-3.144-2.157-3.282s-2.133-2.031-2.754-3.336a5.859,5.859,0,0,0-2.779-2.747c-1.325-.746.711-.438-2.948-1.9a42.053,42.053,0,0,1-5.261-2.247c-1.049-.59-3.632-1.707-4.878-2.266s-2.329-1.137-2.329-1.137l-1.152-1.194s-10.493-1.405-11.256-1.2-.033,1.081-4.326,1.2-10.848,4.972-11.931,4.6a3.286,3.286,0,0,0-3.162,0,12.959,12.959,0,0,1-4.146,1.252c-2.523.459-2.755-.566-6.482,0s-4.415-.006-6.21,1-2.68,1.113-3.678,1.9-5.366,5.492-5.366,5.492Z" transform="translate(0 -62.462)" fill="none" stroke="#151515" stroke-linecap="round" stroke-linejoin="round" stroke-width="2"/>
      <path id="Path_8988" data-name="Path 8988" d="M569.544,8295.184s-2.4.089,1.856,0,4.242.493,4.966,0,1.707-1.592,1.439-2.181-.854-.9-1.439-1.36-.034-.8-1.635-.953a7.99,7.99,0,0,0-3.331,0,6.622,6.622,0,0,0-2.749.953c-.555.422,0,3.541,0,3.541Z" transform="translate(-159.729 -266.873)" fill="none" stroke="#151515" stroke-linecap="round" stroke-linejoin="round" stroke-width="2"/>
      <path id="Path_8989" data-name="Path 8989" d="M675.118,8374.952a7.128,7.128,0,0,0,0,1.222c.065.431,1.268.117,0,.908s-1.133,1.012-1.58.847-.993-.313-1.081-.847.139-2.118,0-2.13-1.383-.84,0-.94a7.97,7.97,0,0,1,1.856,0Z" transform="translate(-207.133 -305.133)" fill="none" stroke="#151515" stroke-linecap="round" stroke-linejoin="round" stroke-width="2"/>
      <path id="Path_8990" data-name="Path 8990" d="M734.127,8379.339a4.556,4.556,0,0,0,.88,2c.651.9.094.49.888,1.461s.773,1.283,1.31,1.135.52-.844.559-1.135a4.572,4.572,0,0,0,0-1.461c-.116-.494.646-.723,0-1.339s0-.422-.988-1.312-.752-2.6-1.769-1.253S734.127,8379.339,734.127,8379.339Z" transform="translate(-235.698 -306.492)" fill="none" stroke="#151515" stroke-linecap="round" stroke-linejoin="round" stroke-width="2"/>
      <path id="Path_8991" data-name="Path 8991" d="M709.008,8398.735a8.308,8.308,0,0,1-1.833.9c-1.6.665-.213.667-2.737.979s-2.768-.29-3.808,0a10,10,0,0,1-2.832,0,4.188,4.188,0,0,1-1.926-.476c-.872-.282-1.172-1.352-1.806-1.407s-1.044-.669-1.628-.769,1.209-1.756-2.526-.431-3.959,1.39-3.65,2.606.09,1.137.462,2.52a28.864,28.864,0,0,1,.841,3.4,15.989,15.989,0,0,0,1.219,4.333c1.091,3.021,1.914,4.01,2.339,6.38s1.031,2.443,1.316,3.54a15.891,15.891,0,0,0,1.628,3.47c1.029,1.989.522,1.771,1.806,3.282s1.728,1.342,2.809,2.085a10.2,10.2,0,0,0,2.525,1.438c1.159.469,1.534,1.617,2.7.381s2.832-1.82,3.268-3.092a10.415,10.415,0,0,1,1.443-3.117,33.551,33.551,0,0,1,2.961-3.87c.5-.645.923-1.161,1.805-2.226a7.579,7.579,0,0,0,1.523-2.69,6.812,6.812,0,0,0,.811-3.642c0-2.5.368-4.992,0-6.272s-1.08-2.7-.811-4.4.619-2.662,0-2.931a5.243,5.243,0,0,0-1.962-.769,15.146,15.146,0,0,0-3.343.769Z" transform="translate(-213.713 -315.703)" fill="none" stroke="#151515" stroke-linecap="round" stroke-linejoin="round" stroke-width="2"/>
      <path id="Path_8992" data-name="Path 8992" d="M1045.9,8415.327c-.206.954,1.392-.87-1.4,2.882s-1.626,2.955-4.329,5.551-2.162,2.48-6,5.133-4.681,2.188-6.577,4.324a25.8,25.8,0,0,1-3.372,3.537c-2.018,1.816-2.678,1.465-5.043,4.562s-2.526,2.879-3.677,4.888a36.392,36.392,0,0,0-2.882,5.279c-1.678,3.638-5.6-.84-2.86,4.963s-1.986,3.186,4.039,6.408a43.217,43.217,0,0,0,10.423,4.135c1,.334,1.834-1.594,3.372,0s.612,3.936,3.689,1.624,2.732-.774,6.738-5.759,6.637-4.322,6.48-6.408,1.114-1.892,1.4-6.2.292-5.428,1.307-7.623,1.735-5.127,2.936-5.869a8.187,8.187,0,0,1,2.7-1.375c1.023-.232,4.309-.526,5.609-1.139s1.753-2.441,2.179-5.348-3.7-1.865,0-5.133,4.8-4.17,5.955-6.672,1.893-1.869,2.671-5.838,0-6,0-6V8401s-1.655.684-2.671,0a2.961,2.961,0,0,0-2.518,0s-.024,2.246-2.184,0-3.432-3.511-3.432-3.511l-1.323-2.556s-4.883,2.672-4.286,3.754.824.32,0,3.4-.823,6.862-2.7,7.605-2.347-.441-2.936,1.551S1045.9,8415.327,1045.9,8415.327Z" transform="translate(-361.623 -314.746)" fill="none" stroke="#151515" stroke-linecap="round" stroke-linejoin="round" stroke-width="2"/>
      <path id="Path_8993" data-name="Path 8993" d="M1134.76,8325.131c0,.5,1.142-.981,0,2.623s-1.482,3.531-2.745,6.42a31.081,31.081,0,0,1-1.972,4.081c-1.729,3.352-.751,2.521-2.417,4.554s1.145,1.555-2.38,2.7-5.413,1.472-5.879,1.146-.957.79-1.428-1.146-.953-2.087-.653-4.209.644-3.426,1.449-4.451,1.447-1.286,1.447-2.207a7.944,7.944,0,0,0-.815-2.977c-.487-1.186.553-1.025-2.081-3.287s-6.987-3.813-7.619-4.331-1.691-.1-.8-1.635a13.013,13.013,0,0,1,2.169-2.806,11.65,11.65,0,0,0,1.3-1.748,16.954,16.954,0,0,0,2.52-3.964,44.4,44.4,0,0,0,1.225-5.242,7.562,7.562,0,0,1,.484-2.6,23.388,23.388,0,0,0,.714-3.631c.136-.625-3.524-7.219-3.575-7.863a5.353,5.353,0,0,0-.651-1.665l-6.939-10.663a7.814,7.814,0,0,1-1.2-1.663,37.4,37.4,0,0,1-1.395-4.1c-.613-1.824-1.345-2.8-1.766-4.235s-3.655-5,0-2.847,4.383,2.913,6.443,3.967.671-1.206,2.838,1.635,1.906,3.645,2.673,4.721.755,2.145,1.151,2.526.013.432.625,1.809.493-1.446,1.084,2.665-.1,5.474.714,6.189,1.007.45,1.449,1.139-.739.168.631.526,1.56.262,2.045,0a2.06,2.06,0,0,0,1.058-1.665,3.624,3.624,0,0,1,0-1.085,3.561,3.561,0,0,0,.985,1.085c.85.732,1.239-.081,1.341,1.139s-.352-.229.45,2.192.027,1.551,1,3.3.792,2.165,2.449,2.9,5.26,1.946,6.07,2.264,3.542,1.885,4.377.878,2.592-3,3.449-3.142a3.3,3.3,0,0,1,2.632.731c.321.517.243-.929.615,1.532s.222,2.469,0,3.295-.615,2.865-.615,2.865-.073.333-.513,1.958a6.473,6.473,0,0,1-.854,2.223,22.479,22.479,0,0,1-1.264,2.327c-.5.7-.535,1.008-1.172,1.4a21.441,21.441,0,0,1-2.277.857c-1.646.684-2.67.321-3.634,2.15s-.744,2.29-.744,2.29Z" transform="translate(-403.445 -256.877)" fill="none" stroke="#151515" stroke-linecap="round" stroke-linejoin="round" stroke-width="2"/>
      <path id="Path_8994" data-name="Path 8994" d="M1259.325,8464.71l-.656,2.752a3.324,3.324,0,0,1-2.494,0,2.6,2.6,0,0,1-1.413-2.752c.048-.944-1.417-1.113,0-1.54s1.3.3,2.314,0a2.282,2.282,0,0,1,1.592,0Z" transform="translate(-474.092 -345.963)" fill="none" stroke="#151515" stroke-linecap="round" stroke-linejoin="round" stroke-width="2"/>
      <path id="Path_8995" data-name="Path 8995" d="M1027.022,8536.816v2.143s2.037.894-1.16,1.079-4.582.6-4.166-1.079.432-.937.862-2.143-.065-2.653,1.613-2.266A5.532,5.532,0,0,1,1027.022,8536.816Z" transform="translate(-367.499 -378.72)" fill="none" stroke="#151515" stroke-linecap="round" stroke-linejoin="round" stroke-width="2"/>
      <path id="Path_8996" data-name="Path 8996" d="M632,7715.125a26.694,26.694,0,0,1,0,6.09,19.209,19.209,0,0,0,0,7.464c.572,3.1-.571,2.9,0,6.161s.767,2.137.867,6.195-.493,4.353,0,6.971-.415-1.474,0,4.617-.958,5.944,0,7.618-1.948-.294,1.46,3.162,2.877,4.537,6.157,4.708,3.081,1.041,5.314,0,3.94-.005,4.43-2.36,5.943-6.274,4.889-7.378-4.245-1.746,0-3.309,6.9-2.525,8.665-1.564.972-.417,3.232,1.564,2.59,1.362,4.771,3.309,3.753,1.984,5.443,3.982.476-1.212,3.612,3.4,3.465,5.613,5.4,7.153-2.285.979,3.223,1.987,4.359.5,8.788,1.705,6.7,1.622,7.514,1.815,1.189.781,2.581,0,2.215-.938,2.808-1.815,1.074-1.705,1.074-1.705l1.347-.288a1.585,1.585,0,0,1,0-.894,2.017,2.017,0,0,0,0-1.844,30.532,30.532,0,0,0-3.008-3.335c-.466-.243-.367-.833-.893-.308s-1.046.065-.591,1.4.249,1.818.591,2.245.584.575.447,1.039a3.184,3.184,0,0,1-.447,1.128c-.277.4-.4.746-1.015.571a3.773,3.773,0,0,1-2-.894c-1.059-.821-1.825-1.841-2.268-2.158s-.175-.118-1.024-.983a17.642,17.642,0,0,0-2.665-2.346c-1.635-1.249-1.7-1.419-2.895-2.331s-7.279-4.918-7.279-4.918-.283-5.482-1.069-5.909-.627.721-2.257-1.564a20.72,20.72,0,0,0-2.9-3.386,2.026,2.026,0,0,1-1.033-2.585,8.73,8.73,0,0,1,2.97-4.2c1.138-.894,1.783-2.522.966-3.4s-3.832-1.911-6.364-2.81-2.276-.148-4.412-1.872-5.062-5.713-6.657-6.961-.959-.79-2.757-2.085-5.886-4.7-7.219-5.526-2.869-1.7-2.869-1.7-9.71-6.79-11.129-6.885-.545.251-2.827-.816.3-1.4-5.111-2.619S632,7715.125,632,7715.125Z" transform="translate(-188.715 -0.072)" fill="none" stroke="#151515" stroke-linecap="round" stroke-linejoin="round" stroke-width="2"/>
      <path id="Path_8997" data-name="Path 8997" d="M772.873,7738.984s.155,2.411-.68,3.451a20.172,20.172,0,0,1-2.723,2.784c-1.528,1.4,1.6.9-4.351,3.7s-5.931,3.136-8.419,3.215-4.091.582-5.839,0,.287-.418-3.372-1.4-4.911.929-5.324-2.756-6.171-4.45,1.725-4.09,7.483,1.223,8.8,0,1.707-2.083,2.159-2.3-1.008-1.1,1.337,0,1.5.792,2.858,1.424,2.147-1.125,5.267-3.544,3-2.142,3.53-3.248.66-.966.931-1.571.159-1.716,1.724-1.942,2.866,2.209,3.163,2.961S772.873,7738.984,772.873,7738.984Z" transform="translate(-238.28 -11.151)" fill="none" stroke="#151515" stroke-linecap="round" stroke-linejoin="round" stroke-width="2"/>
      <path id="Path_8998" data-name="Path 8998" d="M780.36,7709.961s-.129-.125,1.762,1.385a16.7,16.7,0,0,0,2.767,2.056,12.091,12.091,0,0,0,3.294,1.8c1.259.374.852-1.583,2.732.724s2.031,1.953,2.209,3.234a10.566,10.566,0,0,0,.975,3.53,8.119,8.119,0,0,1,.759,1.589c.552,1.293.171,1.819,1.131,1.414s.906-.033,1.526-.637a1.835,1.835,0,0,0,.749-1.348c.052-.484-1.408-3.337-1.684-3.99a5.3,5.3,0,0,0-.592-1.188c-.505-.873-.031-1.465-1.131-2.119s-1.7-1.132-3.18-1.973-2.256-1.418-3.06-1.812-.782-.6-1.939-1.278-1.077-.213-2.576-1.385-1.747-1.375-2.536-1.58S780.36,7709.961,780.36,7709.961Z" transform="translate(-256.895 0)" fill="none" stroke="#151515" stroke-linecap="round" stroke-linejoin="round" stroke-width="2"/>
      <path id="Path_8999" data-name="Path 8999" d="M837.938,7757.424a9.5,9.5,0,0,0,1.1,3.6c.888,1.352,1.381,1.633,2.392,3.344s1.249,2.237,1.734,2.283-.631.811,1.237,0,2.161-1.164,2.183-1.706,1.684-.066,0-1.75-2.477-3.614-3.42-4.316a10.609,10.609,0,0,1-1.734-1.451c-1.476-1.342-2.392-2.2-2.392-2.2Z" transform="translate(-283.291 -21.481)" fill="none" stroke="#151515" stroke-linecap="round" stroke-linejoin="round" stroke-width="2"/>
      <path id="Path_9000" data-name="Path 9000" d="M865.343,7791.748a14.5,14.5,0,0,0,1.565,1.542,29.383,29.383,0,0,0,4.532,3.755,11.588,11.588,0,0,0,3.566,1.73c.669.163-.017.335,0-.715s.466-1.033-.637-2.11a36.147,36.147,0,0,0-2.929-2.66c-.34-.2.172-.256-1.121-.922a36.865,36.865,0,0,0-3.866-1.6,4.669,4.669,0,0,1-1.11-.521Z" transform="translate(-295.854 -37.538)" fill="none" stroke="#151515" stroke-linecap="round" stroke-linejoin="round" stroke-width="2"/>
      <path id="Path_9001" data-name="Path 9001" d="M908.294,7819.439s-.036-.031-.218-.2c-.236-.21-1.439-1.332.983.2,2.794,1.764,2.067,2.638,5.293,2.573s4.025.96,4.129,0,.955-.558-.785-3.13-1.177-3.033-2.659-3.755-1.837-1.123-2.467-.786a9.982,9.982,0,0,0-2.479,1.412,7.358,7.358,0,0,0-1.8,2C907.63,7818.916,908.294,7819.439,908.294,7819.439Z" transform="translate(-315.212 -48.527)" fill="none" stroke="#151515" stroke-linecap="round" stroke-linejoin="round" stroke-width="2"/>
      <path id="Path_9002" data-name="Path 9002" d="M937.6,7835.681a15.646,15.646,0,0,0,1.642,1.213,2.243,2.243,0,0,1,1.625,0c1.059.312,1.385.637,1.333,0a5.771,5.771,0,0,0-.9-2.4c-.4-.478-.065-2.1-2.056-1.787s-2.038.707-2.086,1.112a3.275,3.275,0,0,0,0,1.494C937.341,7835.7,937.6,7835.681,937.6,7835.681Z" transform="translate(-328.735 -56.981)" fill="none" stroke="#151515" stroke-linecap="round" stroke-linejoin="round" stroke-width="2"/>
      <path id="Path_9003" data-name="Path 9003" d="M926.463,7803.487l4.984,7.594s-1.135,1.25-1.444,1.119-1.434-.163-1.941-1.119a18.3,18.3,0,0,1-1.6-3.3,14.667,14.667,0,0,1-.4-1.882C926.064,7805.436,926.463,7803.487,926.463,7803.487Z" transform="translate(-323.691 -43.607)" fill="none" stroke="#151515" stroke-linecap="round" stroke-linejoin="round" stroke-width="2"/>
      <path id="Path_9004" data-name="Path 9004" d="M895.578,7791.387a14.524,14.524,0,0,1,2.5,1.416,8.408,8.408,0,0,0,2.09,1.093c.838.425-.295.682,1.388.5s3.578-.286,1.552-1.591-3.621-2.466-4.12-2.755,1.252.36-.909-.777-1.786-2.447-2.5-1.358S895.578,7791.387,895.578,7791.387Z" transform="translate(-309.57 -36.28)" fill="none" stroke="#151515" stroke-linecap="round" stroke-linejoin="round" stroke-width="2"/>
      <path id="Path_9005" data-name="Path 9005" d="M863.723,7775.084l1.548,2.18a3.7,3.7,0,0,0,2.042,1.586c1.25.365,2.136.153,2.2,0a.768.768,0,0,0,0-.889c-.3-.381-.225-.683-.9-1.2s-.966-.561-1.3-.848-1.073-.294-1.47-.832.285-.811-.572-.806A2.411,2.411,0,0,0,863.723,7775.084Z" transform="translate(-295.112 -30.217)" fill="none" stroke="#151515" stroke-linecap="round" stroke-linejoin="round" stroke-width="2"/>
      <path id="Path_9006" data-name="Path 9006" d="M978.85,8007.242a5.321,5.321,0,0,1,3,1.769,32.981,32.981,0,0,1,2.509,3.841c.808,1.35-.475,1.265,1.78,2.675a20.648,20.648,0,0,1,3.855,2.555c2.615,2.061,2.275,1.174,3.352,2.826s0,2.59,0,2.59-2.486.706-3.352,0-3.478-2.7-4.406-3.309-1.627-1.4-2.722-2.107-2.741-1.991-2.741-1.991-1.3-1.234-1.744-1.78-.968-1.484-1.662-2.345-.416-.671-1.518-2.191-1.821-1.84-1.9-2.532a7.346,7.346,0,0,1,0-1.934c.087-.626,1.692.03,1.9,0s1.2-.643,1.518,0A10.2,10.2,0,0,0,978.85,8007.242Z" transform="translate(-345.315 -135.994)" fill="none" stroke="#151515" stroke-linecap="round" stroke-linejoin="round" stroke-width="2"/>
      <path id="Path_9007" data-name="Path 9007" d="M1011.256,7914.836" transform="translate(-362.745 -94.653)" fill="none" stroke="#151515" stroke-linecap="round" stroke-width="2"/>
      <path id="Path_9008" data-name="Path 9008" d="M1008.918,7911.918l.906,4.334a1.65,1.65,0,0,0,1.018,1.188,13.571,13.571,0,0,0,3.2,0V7915.1l-1.623-2.127s-.44-1.062-.956-1.05S1008.918,7911.918,1008.918,7911.918Z" transform="translate(-361.674 -93.315)" fill="none" stroke="#151515" stroke-linecap="round" stroke-linejoin="round" stroke-width="2"/>
      <path id="Path_9009" data-name="Path 9009" d="M1031.243,7915.815a6.312,6.312,0,0,0-.57,1.516,2.362,2.362,0,0,0,0,1.313s-.982.035-1.654,0-1.642-.052-1.674-.691,0-2.137,0-2.137l1.674-.617,1.654-.918Z" transform="translate(-370.115 -94.398)" fill="none" stroke="#151515" stroke-linecap="round" stroke-linejoin="round" stroke-width="2"/>
      <path id="Path_9010" data-name="Path 9010" d="M1019.713,7929.647s.379.517.708.993a1.354,1.354,0,0,1,0,1.181v.833l-.708.711s-.9.759-1.285,0-.69-.751-.69-1.544-.831-2,0-2.174A6.586,6.586,0,0,1,1019.713,7929.647Z" transform="translate(-365.548 -101.406)" fill="none" stroke="#151515" stroke-linecap="round" stroke-linejoin="round" stroke-width="2"/>
      <path id="Path_9011" data-name="Path 9011" d="M1172.138,7961.192l3.169-1.385s1.655.038,1.89-.872a13.6,13.6,0,0,0,0-3.286c-.03-1.128-2.825-4.242-4.167-3.95a12.154,12.154,0,0,0-2.741.8,10.49,10.49,0,0,0-2.456,1.334c-.847.685-1.144-.208-1.144,1.159s.648,2.014,1.144,3.176,1.382,3.169,2.456,3.024A6.39,6.39,0,0,1,1172.138,7961.192Z" transform="translate(-434.001 -111.544)" fill="none" stroke="#151515" stroke-linecap="round" stroke-linejoin="round" stroke-width="2"/>
      <path id="Path_9012" data-name="Path 9012" d="M1188.756,7940.335s4.4,1.038,5.295,0a15.477,15.477,0,0,1,2.329-2.065c.85-.718,1.144-1.093.927-1.878s0-1.878-.927-1.957.738-.692-2.329,0-4.186.842-5.295,1.239-1.554-.545-1.807.718S1188.756,7940.335,1188.756,7940.335Z" transform="translate(-443.279 -103.488)" fill="none" stroke="#151515" stroke-linecap="round" stroke-linejoin="round" stroke-width="2"/>
      <path id="Path_9013" data-name="Path 9013" d="M1277.2,8019.91h3.075l-1.312-2.186Z" transform="translate(-484.663 -141.82)" fill="none" stroke="#151515" stroke-linecap="round" stroke-linejoin="round" stroke-width="2"/>
      <path id="Path_9014" data-name="Path 9014" d="M1316.678,7890.672h2.151a7.56,7.56,0,0,0,2.354,1.261,8.466,8.466,0,0,0,2.572,0s.162.167-1.144-1.261-3.832-1.741-3.781-2.061-2.151,0-2.151,0Z" transform="translate(-502.761 -82.566)" fill="none" stroke="#151515" stroke-linecap="round" stroke-linejoin="round" stroke-width="2"/>
    </g>
    <circle id="Ellipse_2050" data-name="Ellipse 2050" cx="91" cy="91" r="91" transform="translate(846.359 8137.221)" fill="#f89f1b" opacity="0.3"/>
    <ellipse id="Ellipse_2051" data-name="Ellipse 2051" cx="118" cy="118.5" rx="118" ry="118.5" transform="translate(497.359 8026.221)" fill="#f89f1b" opacity="0.3"/>
  </g>
</svg>
