<svg xmlns="http://www.w3.org/2000/svg" xmlns:xlink="http://www.w3.org/1999/xlink" width="2796.589" height="2800" viewBox="0 0 2796.589 2800">
  <defs>
    <linearGradient id="linear-gradient" y1="0.5" x2="1" y2="0.5" gradientUnits="objectBoundingBox">
      <stop offset="0" stop-color="#febbba"/>
      <stop offset="1" stop-color="#ff928e"/>
    </linearGradient>
    <linearGradient id="linear-gradient-2" x1="0.841" y1="-0.194" x2="0.159" y2="1.194" gradientUnits="objectBoundingBox">
      <stop offset="0" stop-color="#f9c200"/>
      <stop offset="0.996" stop-color="#9b1e5f"/>
    </linearGradient>
    <linearGradient id="linear-gradient-3" x1="-8.756" y1="5.868" x2="-6.299" y2="3.22" xlink:href="#linear-gradient"/>
    <linearGradient id="linear-gradient-4" x1="-68.755" y1="-0.166" x2="-86.798" y2="3.358" gradientUnits="objectBoundingBox">
      <stop offset="0" stop-color="#09005d"/>
      <stop offset="1" stop-color="#1a0f91"/>
    </linearGradient>
    <linearGradient id="linear-gradient-5" x1="-84.792" y1="-0.086" x2="-107.554" y2="3.376" xlink:href="#linear-gradient-4"/>
    <linearGradient id="linear-gradient-6" x1="-73.087" y1="-0.015" x2="-93.305" y2="3.448" xlink:href="#linear-gradient-4"/>
    <linearGradient id="linear-gradient-7" x1="-46.839" y1="0.121" x2="-60.534" y2="3.397" xlink:href="#linear-gradient-4"/>
    <linearGradient id="linear-gradient-8" x1="-106.195" y1="0.174" x2="-138.195" y2="3.699" xlink:href="#linear-gradient-4"/>
    <linearGradient id="linear-gradient-9" x1="-65.353" y1="0.227" x2="-85.567" y2="3.744" xlink:href="#linear-gradient-4"/>
    <linearGradient id="linear-gradient-10" x1="-47.15" y1="-0.19" x2="-59.145" y2="2.95" xlink:href="#linear-gradient-4"/>
    <linearGradient id="linear-gradient-11" x1="-6.853" y1="-2.963" x2="-4.254" y2="-2.128" gradientUnits="objectBoundingBox">
      <stop offset="0" stop-color="#e1473d"/>
      <stop offset="1" stop-color="#e9605a"/>
    </linearGradient>
    <linearGradient id="linear-gradient-12" x1="-9.511" y1="-7.836" x2="-7.067" y2="-5.79" xlink:href="#linear-gradient-11"/>
  </defs>
  <g id="Illustration" transform="translate(-465.01 -455)">
    <g id="Group_32" data-name="Group 32">
      <path id="Path_1" data-name="Path 1" d="M2915.882,2848.407c-56.925,59.928-110.787,98.575-153.343,129.109-500.229,358.921-1092.134,254.3-1217.93,228.747-185.762-37.729-544.835-110.659-804.439-415.948-392.758-461.876-331.6-1189.549-26.95-1669.9,55.725-87.863,350.082-575.527,948.362-653.733,362.072-47.329,784.132,48.129,1089.777,304.2C3392.933,1308.4,3347.26,2394.266,2915.882,2848.407Z" fill="#d2fdfd"/>
      <g id="Group_5" data-name="Group 5">
        <g id="Group_3" data-name="Group 3">
          <path id="Path_2" data-name="Path 2" d="M1202.5,2424.9s402.209-1072.013,98.65-1958.472a16.788,16.788,0,0,0-27.38-6.874C1133.237,591.792,282.471,1464.688,1202.5,2424.9Z" fill="#46cde5"/>
          <path id="Path_3" data-name="Path 3" d="M1198.039,782.007c-17.552,64.16-32.589,129.281-45.091,194.721q-19.406,98.067-32.982,197.091c-8.879,66-16.384,132.166-21.344,198.531-5.293,66.326-8.708,132.81-9.322,199.316-.928,66.486-.041,133.032,4.076,199.389.445,8.3.772,16.608,1.314,24.9l1.945,24.853c1.4,16.559,2.36,33.167,4.121,49.691l5.294,49.581,1.288,12.4,1.665,12.352,3.326,24.708c3.917,33.039,10.155,65.7,15.354,98.557,2.888,16.373,6.388,32.629,9.553,48.96l4.866,24.476c1.7,8.142,3.8,16.189,5.6,24.31l11.2,48.661,12.995,48.22,6.525,24.124,7.447,23.845,14.615,47.84.039.127a4.7,4.7,0,0,1-8.875,3.057c-48.082-125.142-83.27-255.711-103.474-388.622l-3.92-24.9-1.959-12.454-1.583-12.5-6.129-50.045c-2-16.688-3.2-33.453-4.843-50.179l-2.305-25.106c-.661-8.376-1.106-16.766-1.67-25.15-4.89-67.058-5.78-134.321-5.238-201.5,1.816-134.394,14.044-268.5,35.071-401.067q15.768-99.435,38.78-197.474,11.57-48.96,25.086-97.422c8.935-32.342,18.512-64.41,29.646-96.21a4.7,4.7,0,0,1,8.967,2.776Z" fill="#fff"/>
        </g>
        <g id="Group_4" data-name="Group 4">
          <path id="Path_4" data-name="Path 4" d="M939.1,2512.815S1196.876,1206.381,657.755,698.667a20.394,20.394,0,0,0-31.623,4.689C549.683,835.777,190.765,1565.977,939.1,2512.815Z" fill="#56dcf4"/>
          <path id="Path_5" data-name="Path 5" d="M666.079,938.131c2.886,64.425,8.047,128.926,13.836,193.259,3.049,32.165,6.1,64.333,9.5,96.464,3.725,32.1,7.026,64.242,11.1,96.3,4.2,32.038,8.146,64.109,12.56,96.116l14.092,95.9c10.38,63.78,20.717,127.57,32.843,191.04,11.022,63.682,25.024,126.774,37.886,190.1l21.878,94.418c3.7,15.722,7.191,31.5,11.074,47.178l12.211,46.894c8.218,31.242,16.107,62.577,24.6,93.744l27.1,93.047c4.535,15.5,8.812,31.087,13.558,46.525l14.913,46.1,29.827,92.224.043.133a4.742,4.742,0,0,1-9,2.985c-41.682-122.591-81.54-245.983-112.875-371.705l-12.4-46.964c-3.946-15.7-7.5-31.5-11.264-47.246l-22.258-94.562c-13.112-63.415-27.364-126.613-38.635-190.394q-35.781-190.959-58.426-384.052c-3.955-32.134-7.14-64.359-10.747-96.533-3.28-32.21-6.215-64.458-9.146-96.7-5.158-64.573-9.546-129.133-11.742-193.991a4.742,4.742,0,0,1,9.476-.377Z" fill="#fff"/>
        </g>
      </g>
      <g id="Group_7" data-name="Group 7">
        <ellipse id="Ellipse_1" data-name="Ellipse 1" cx="1150.308" cy="1241.645" rx="1150.308" ry="1241.645" transform="translate(679.796 2997.104) rotate(-87.486)" fill="#00b3d3"/>
        <ellipse id="Ellipse_2" data-name="Ellipse 2" cx="974.306" cy="920.409" rx="974.306" ry="920.409" transform="translate(929.19 898.957)" fill="#fff" opacity="0.314"/>
        <g id="Group_6" data-name="Group 6" opacity="0.68">
          <path id="Path_6" data-name="Path 6" d="M2287.9,1907.915c-.3,202.882-14.212,406.179-49.965,606.189-9.052,49.961-19.545,99.683-32.048,148.932-12.541,49.23-27.02,98.034-44.748,145.749-17.876,47.591-38.624,94.5-66.759,137.368-14.178,21.279-30.259,41.668-50.1,58.44a142.8,142.8,0,0,1-32.8,21.137,98.255,98.255,0,0,1-38.292,9.02,96.609,96.609,0,0,1-38.707-7.116,134.221,134.221,0,0,1-33.56-19.978c-20.319-16.25-36.754-36.415-51.186-57.526-28.634-42.564-49.663-89.376-67.726-136.893-17.952-47.633-32.574-96.4-45.224-145.6-12.628-49.217-23.227-98.917-32.353-148.862-18.214-99.912-30.637-200.785-39.02-301.935q-12.483-151.749-13.007-304.161c-.249-50.745,1.136-101.483,2.939-152.189q2.852-76.057,8.426-151.981c7.506-101.195,18.716-202.165,35.383-302.3,8.362-50.059,18.112-99.906,29.84-149.312,11.759-49.389,25.423-98.386,42.373-146.321,8.519-23.946,17.834-47.634,28.456-70.767,10.607-23.128,22.477-45.751,36.427-67.139,13.982-21.295,30.056-41.621,50.071-57.892a127.9,127.9,0,0,1,33.107-19.835,93.379,93.379,0,0,1,38.066-6.759,100.929,100.929,0,0,1,37.615,8.812,147,147,0,0,1,32.687,20.4c19.966,16.224,36.49,36.061,51.15,56.891,29.145,41.951,51.117,88.217,70.15,135.29,18.893,47.2,34.493,95.629,48.081,144.555,13.54,48.948,25.005,98.443,34.927,148.228C2271.361,1501.675,2287.31,1705,2287.9,1907.915Zm-15.017,0c.187-101.092-3.656-202.209-12.057-302.949-8.283-100.737-20.83-201.184-39.524-300.519-9.335-49.66-20.207-99.039-33.143-147.872-12.982-48.808-27.966-97.118-46.21-144.178-18.374-46.926-39.682-93.03-67.957-134.683-14.213-20.68-30.245-40.321-49.484-56.3a142.041,142.041,0,0,0-31.353-20.06c-11.286-5.077-23.441-8.406-35.8-8.73a87.908,87.908,0,0,0-36.12,6.8,122.9,122.9,0,0,0-31.6,19.416c-19.2,15.955-34.762,36.022-48.285,57.128-13.5,21.195-24.989,43.676-35.237,66.685-10.266,23.014-19.248,46.61-27.445,70.469-16.305,47.766-29.362,96.633-40.522,145.9-11.132,49.283-20.3,99.013-28.079,148.951-15.507,99.9-25.578,200.622-31.953,301.527-6.44,100.918-8.664,202.066-8.481,303.169q-.4,151.629,10.623,303.014c7.572,100.795,19.171,201.338,36.53,300.892,8.7,49.767,18.861,99.28,31.034,148.282,12.193,48.984,26.342,97.509,43.757,144.817,17.51,47.181,37.984,93.6,65.656,135.408,13.927,20.73,29.772,40.391,48.976,55.978a125.911,125.911,0,0,0,31.33,19.007,86.431,86.431,0,0,0,35.432,6.739,90.091,90.091,0,0,0,35.078-8.582,134.452,134.452,0,0,0,30.69-20.153c18.788-16.125,34.3-36.033,47.977-56.941,27.187-42.139,47.368-88.662,64.681-135.922,17.18-47.4,31.173-95.96,43.242-144.975,12.036-49.036,22.075-98.571,30.688-148.351,17.241-99.574,28.7-200.128,36.314-300.923C2269.355,2110.151,2272.919,2009.026,2272.879,1907.915Z" fill="#fff" style="mix-blend-mode: soft-light;isolation: isolate"/>
          <path id="Path_7" data-name="Path 7" d="M2799.706,1907.915c-.7,130.65-17.493,261.359-52.469,387.352-35.585,125.7-89.229,246.633-162.058,355.2A1022.925,1022.925,0,0,1,2461.4,2802.05c-46.082,46.3-97.047,87.843-152.368,122.661-55.372,34.685-115.178,62.451-177.783,81.288a664.924,664.924,0,0,1-386.573.17c-62.637-18.785-122.492-46.506-177.921-81.156-55.379-34.783-106.419-76.293-152.575-122.57A1023.61,1023.61,0,0,1,1290.16,2650.9c-72.976-108.585-126.732-229.568-162.484-355.333a1406.885,1406.885,0,0,1-39.34-192.055,1444.267,1444.267,0,0,1,.121-391.17,1406.091,1406.091,0,0,1,39.472-192c35.842-125.715,89.681-246.615,162.7-355.089a1023.118,1023.118,0,0,1,124.036-151.379c46.157-46.207,97.16-87.678,152.53-122.351a737.662,737.662,0,0,1,177.781-80.855,660.235,660.235,0,0,1,385.969.158,737.172,737.172,0,0,1,177.641,81c55.309,34.712,106.24,76.218,152.321,122.445a1022.5,1022.5,0,0,1,123.8,151.411c72.875,108.458,126.6,229.306,162.277,354.959C2782.035,1646.577,2798.916,1777.263,2799.706,1907.915Zm-17.214,0c-.189-129.169-16.279-258.475-50.361-383.162-34.27-124.495-85.871-244.684-156.91-352.771a1011.977,1011.977,0,0,0-120.979-151.133c-45.177-46.185-95.077-87.97-149.651-122.7-54.641-34.536-113.646-62.334-175.517-81.137a643.87,643.87,0,0,0-382.124.158c-61.839,18.852-120.793,46.705-175.375,81.278-54.515,34.769-104.341,76.589-149.443,122.794a1011.5,1011.5,0,0,0-120.739,151.164c-70.891,108.073-122.381,228.209-156.483,352.642a1416.745,1416.745,0,0,0-37.624,189.786,1475.95,1475.95,0,0,0,.121,386.144,1415.906,1415.906,0,0,0,37.757,189.731c34.19,124.383,85.765,244.437,156.7,352.4a1010.691,1010.691,0,0,0,120.754,151c45.1,46.134,94.891,87.915,149.4,122.575,54.566,34.484,113.506,62.13,175.236,80.976a639.347,639.347,0,0,0,381.521.171c61.763-18.794,120.751-46.4,175.374-80.845,54.562-34.625,104.427-76.369,149.6-122.484a1011.443,1011.443,0,0,0,120.994-150.965c71.086-107.975,122.773-228.082,157.129-352.526C2766.035,2166.366,2782.215,2037.082,2782.492,1907.915Z" fill="#fff" style="mix-blend-mode: soft-light;isolation: isolate"/>
          <path id="Path_8" data-name="Path 8" d="M932.433,1462l258.785-2.091L1450,1458.728l517.569-.955,517.57,1.052,258.784,1.294,258.785,2.257a.76.76,0,0,1,0,1.519l-258.785,2.257-258.784,1.294-517.57,1.053L1450,1467.543l-258.785-1.185-258.785-2.09a1.132,1.132,0,0,1,0-2.264Z" fill="#fff" style="mix-blend-mode: soft-light;isolation: isolate"/>
          <path id="Path_9" data-name="Path 9" d="M1232.654,1028.561c61.243-.97,122.486-1.386,183.729-2.09l183.73-1.185c61.243-.5,122.486-.45,183.73-.606l183.729-.35,367.459,1.053,183.729,1.293c61.244.768,122.487,1.218,183.73,2.258a.76.76,0,0,1,0,1.519c-61.243,1.04-122.486,1.489-183.73,2.257L2335.031,1034l-367.459,1.052-183.729-.349c-61.244-.156-122.487-.1-183.73-.607l-183.73-1.184c-61.243-.7-122.486-1.12-183.729-2.091a1.132,1.132,0,0,1,0-2.264Z" fill="#fff" style="mix-blend-mode: soft-light;isolation: isolate"/>
          <path id="Path_10" data-name="Path 10" d="M842.5,1895.446l281.268-2.084,281.268-1.191,562.534-.956,562.534,1.052,281.268,1.3,281.267,2.256a.76.76,0,0,1,0,1.52l-281.267,2.255-281.268,1.3-562.534,1.052-562.534-.956-281.268-1.192L842.5,1897.71a1.132,1.132,0,0,1,0-2.264Z" fill="#fff" style="mix-blend-mode: soft-light;isolation: isolate"/>
          <path id="Path_11" data-name="Path 11" d="M932.433,2328.888l258.785-2.09L1450,2325.613l517.569-.956,517.57,1.053L2743.926,2327l258.785,2.257a.76.76,0,0,1,0,1.52l-258.785,2.257-258.784,1.294-517.57,1.052L1450,2334.427l-258.785-1.184-258.785-2.091a1.132,1.132,0,0,1,0-2.264Z" fill="#fff" style="mix-blend-mode: soft-light;isolation: isolate"/>
          <path id="Path_12" data-name="Path 12" d="M2739.519,2767.431H1269.685a3.967,3.967,0,1,1,0-7.935H2739.519a3.967,3.967,0,1,1,0,7.935Z" fill="#fff" style="mix-blend-mode: soft-light;isolation: isolate"/>
        </g>
      </g>
      <g id="Group_15" data-name="Group 15">
        <g id="Group_8" data-name="Group 8">
          <path id="Path_13" data-name="Path 13" d="M2282.383,986.856l500.195-391.324a11.2,11.2,0,0,0,3.816-5.547l31.04-101.371a11.191,11.191,0,0,1,5.175-6.455l20.161-11.452a11.192,11.192,0,0,1,6.614-1.408l62.675,6.1a11.194,11.194,0,0,1,9.965,9.353l4.744,29.323a11.194,11.194,0,0,1-1.846,8.159l-8.413,12.152a11.194,11.194,0,0,0-.6,11.768h0a11.139,11.139,0,0,1-1.423,12.816c-10.372,11.566-36.495,37.139-78.322,55.058a11.133,11.133,0,0,0-3.8,2.667L2353.011,1121.07C2348.744,1125.707,2277.03,991.033,2282.383,986.856Z" fill="#ff928e"/>
          <path id="Path_14" data-name="Path 14" d="M2856.121,557.762a2.586,2.586,0,0,1-2.263-3.831c.619-1.134,15.445-27.623,34.057-21.915,14.572,4.482,18.651,2.8,18.7,2.788a2.485,2.485,0,0,1,3.485.778,2.68,2.68,0,0,1-.818,3.644c-1.149.768-6.2,2.869-22.883-2.265-14.632-4.524-27.876,19.22-28.007,19.461A2.585,2.585,0,0,1,2856.121,557.762Z" fill="url(#linear-gradient)"/>
          <path id="Path_15" data-name="Path 15" d="M2283.79,985.677l-226.022,189.409,69.955,161.712,253.994-234.978C2332.669,1068.162,2298.586,1029.89,2283.79,985.677Z" fill="#739af0"/>
        </g>
        <g id="Group_9" data-name="Group 9">
          <path id="Path_16" data-name="Path 16" d="M805.053,2937.365c2.13-28.643,11.483-48.8,21.46-62.526-21.333,6.967-29.362,22.822-34.331,65.22-5.91,50.427-16.5,186.972-19.28,217.192s9.674,45.021,19.28,54.852c3.16,3.235,8.136,1.739,14-2.857-11.986-15.317-16.771-30.943-19.167-43.813C783.234,3145.136,800.09,3004.094,805.053,2937.365Z" fill="#140a7d"/>
          <path id="Path_17" data-name="Path 17" d="M944.546,2897.765l-37.061-48.042s-35.57,16.945-67.4,21.962a87.418,87.418,0,0,0-13.571,3.154c-9.977,13.73-19.33,33.883-21.46,62.526-4.963,66.729-21.819,207.771-18.04,228.068,2.4,12.87,7.181,28.5,19.167,43.813,11.953-9.371,27.65-31.835,39.554-54.794,17.742-34.217,77.856-136.631,91.949-174.865S944.546,2897.765,944.546,2897.765Z" fill="#140a7d"/>
        </g>
        <g id="Group_10" data-name="Group 10">
          <path id="Path_18" data-name="Path 18" d="M1448.87,2461.242c6.84-27.9,19.4-46.223,31.51-58.112-22.191,3.34-32.733,17.648-44.649,58.639-14.173,48.755-47.206,181.665-54.953,211.008s2.092,46,9.939,57.287c2.581,3.713,7.736,3.06,14.277-.5-9.286-17.09-11.42-33.292-11.653-46.382C1392.974,2662.539,1432.933,2526.23,1448.87,2461.242Z" fill="#150a80"/>
          <path id="Path_19" data-name="Path 19" d="M1592.994,2445.27l-28.6-53.513s-37.884,10.827-70.106,10.508a87.284,87.284,0,0,0-13.906.865c-12.11,11.889-24.67,30.216-31.51,58.112-15.937,64.988-55.9,201.3-55.529,221.939.233,13.09,2.367,29.292,11.653,46.382,13.34-7.265,32.537-26.823,48.076-47.495,23.159-30.809,99.39-121.865,119.616-157.24S1592.994,2445.27,1592.994,2445.27Z" fill="#150a80"/>
        </g>
        <path id="Path_20" data-name="Path 20" d="M944.546,2780.86c-6.5,8.514-53.849,94.659-64.1,113.343a27.873,27.873,0,0,0-3.292,10.079c-1.172,9.7-.187,28.249,20.21,41.764a28.425,28.425,0,0,0,38.314-6.5l86.057-113.314Z" fill="#ff928e"/>
        <path id="Path_21" data-name="Path 21" d="M1612.337,2329.976c-7.815,7.321-68.769,84.445-81.968,101.175a27.857,27.857,0,0,0-4.915,9.4c-2.761,9.374-4.858,27.827,13.021,44.531a28.423,28.423,0,0,0,38.861-.071l92.559-106.785Z" fill="#ff928e"/>
        <path id="Path_22" data-name="Path 22" d="M1728.332,1923.756c0-23.91,137.2-15.415,257.468-29.317,63.162-7.3,100.6,68.651,56.35,114.312l-364.228,375.855a28.732,28.732,0,0,1-29.48,7.433c-14.3-4.661-35.031-13.225-53.445-27.737-10.75-8.473-12.675-24.064-4.809-35.264l167.427-238.385-152.746,44.058L1025.221,2851.7a30.053,30.053,0,0,1-39.365,6.564c-17.063-10.7-39.8-26.818-54.8-44.673a27.991,27.991,0,0,1-1.687-33.285c63.947-97.7,411.449-630.015,427.928-685.3,18.153-60.905,84.842-172.439,147.187-176.414S1728.332,1923.756,1728.332,1923.756Z" fill="#71716f"/>
        <path id="Path_23" data-name="Path 23" d="M1766.762,2087.49a3.88,3.88,0,0,1-.992-7.63l137.413-36.433a3.88,3.88,0,1,1,1.989,7.5l-137.412,36.434A3.869,3.869,0,0,1,1766.762,2087.49Z" fill="#404037"/>
        <path id="Path_24" data-name="Path 24" d="M1618.519,2124.7a3.879,3.879,0,0,1-2.851-6.508l34.318-37.207a3.878,3.878,0,0,1,5.7,5.258l-34.318,37.206A3.86,3.86,0,0,1,1618.519,2124.7Z" fill="#404037"/>
        <path id="Path_25" data-name="Path 25" d="M2127.723,1168.223s72.611,74.144,60.12,202.041c-3.676,37.633-18.405,73.363-41.569,103.25L1779.746,1946.44a51.756,51.756,0,0,1-34.592,19.7c-53.909,6.613-197.273,19.537-298.719-14.075a13.546,13.546,0,0,1-7.376-19.559l333.2-586.293,201.821-234.828S2070.274,1078.327,2127.723,1168.223Z" fill="#739af0"/>
        <path id="Path_26" data-name="Path 26" d="M1074.31,1695.791a3.365,3.365,0,0,1-1.611-6.322c1.417-.772,142.185-77.421,172.163-102.23a3.366,3.366,0,0,1,4.292,5.186c-30.481,25.224-167.426,99.795-173.24,102.957A3.355,3.355,0,0,1,1074.31,1695.791Z" fill="url(#linear-gradient-2)"/>
        <g id="Group_11" data-name="Group 11">
          <path id="Path_27" data-name="Path 27" d="M2145.339,947.719l-109.528,154.654a25.878,25.878,0,0,0,2.272,32.676c14.758,15.752,39.642,37.948,66.468,43.017a20.876,20.876,0,0,0,21.432-9.026l58.249-89.414S2195.385,939.169,2145.339,947.719Z" fill="#ff928e"/>
          <path id="Path_28" data-name="Path 28" d="M2176.258,818.465c2.214,2.085,93.451,181.253,93.451,181.253l-103.41,49.921L2054.6,892.672S2139.188,783.57,2176.258,818.465Z" fill="#ff928e"/>
          <path id="Path_29" data-name="Path 29" d="M2101.591,911.505l51.576,85.975a16.066,16.066,0,0,0,2.827,3.521c6.139,5.714,27.146,22.335,43.386-.294,13.841-19.288,26.828-36.824,40.743-44.056a16.484,16.484,0,0,1,22.252,7.326c8.5,16.842,24.957,51.173,35.3,83.728a16.417,16.417,0,0,1-9.555,20.135c-20.938,8.483-62.323,23.825-99.047,28.894a16.492,16.492,0,0,1-15.595-6.631c-15.8-21.645-60.332-82.133-75.53-97.273-14.12-14.067-40.18-8.762-51.923-5.389a16.583,16.583,0,0,1-13.176-1.728c-11.915-7.177-32.706-25.047-13.686-55.3a16.511,16.511,0,0,0-5.1-22.426c-13.3-8.75-27.736-25.174-13.984-51.772,13.921-26.926,38.781-29.343,55.712-27.273,7.492.915,15.1-3.014,17.973-9.994,2.922-7.093,10.748-4.322,14.535-9.157,3.319-4.236,2.4-7.178,4.526-10.949,6.812-12.063,6.348-21.762,21.988-28.641,12.116-5.329,25.948-5.5,39.01-3.367,7.242,1.185,14.576,3.144,20.454,7.536,5.248,3.921,8.97,9.5,12.586,14.959,7.526,11.368,15.367,25.146,10.434,37.856-7.435,19.152-39.326,22.672-56.2,28.608-20.96,7.375-32.632,20.261-40.741,41.227A16.521,16.521,0,0,0,2101.591,911.505Z" fill="#0d5d6c"/>
          <path id="Path_30" data-name="Path 30" d="M2117.316,1024.4s-19.839-58.051-45.237-55.921-45.384,27.432-13.909,55.873C2097.32,1059.731,2117.316,1024.4,2117.316,1024.4Z" fill="url(#linear-gradient-3)"/>
        </g>
        <g id="Group_13" data-name="Group 13">
          <path id="Path_31" data-name="Path 31" d="M2512.033,1850.724V1465.086a92.4,92.4,0,0,0-91.382-92.445c-152.056-1.656-465.663-1.739-722.261,19.884a69.465,69.465,0,0,0-63.521,66.766l-23.982,372.835a88.279,88.279,0,0,0,86.545,91.452l726.283,13.8A86.671,86.671,0,0,0,2512.033,1850.724Z" fill="#f89f1b"/>
          <path id="Path_32" data-name="Path 32" d="M2423.964,1506.811c.647,32.813-.328,84.877-1.125,118.515a29.7,29.7,0,0,1-33.166,28.8l-125.137-14.666a29.715,29.715,0,0,1-25.927-33.918l15.36-102.467a29.715,29.715,0,0,1,29.386-25.309h110.9A29.675,29.675,0,0,1,2423.964,1506.811Z" fill="#fff"/>
          <path id="Path_33" data-name="Path 33" d="M2096.941,1701l-104.388,11.261a23.532,23.532,0,0,1-25.993-25.122l22.82-310.518c43.759-1.387,86.921-2.4,128.569-3.111V1677.6A23.533,23.533,0,0,1,2096.941,1701Z" fill="#fff" opacity="0.37"/>
          <path id="Path_34" data-name="Path 34" d="M2054.156,1647.181a10.493,10.493,0,0,1-10.472,9.892q-.309,0-.616-.021a10.489,10.489,0,0,1-9.871-11.087l15.74-271.01c7.058-.174,14.058-.332,21.058-.487Z" fill="#fff"/>
          <g id="Group_12" data-name="Group 12">
            <path id="Path_35" data-name="Path 35" d="M2366.092,1604.627a3.5,3.5,0,0,0,3.494-3.281l5.414-85.36a3.5,3.5,0,0,0-3.274-3.712,3.42,3.42,0,0,0-3.713,3.274l-5.414,85.361a3.5,3.5,0,0,0,3.275,3.712C2365.949,1604.627,2366.024,1604.627,2366.092,1604.627Z" fill="url(#linear-gradient-4)"/>
            <path id="Path_36" data-name="Path 36" d="M2354.95,1604.627a3.5,3.5,0,0,0,3.5-3.383l2.837-86.994a3.5,3.5,0,0,0-3.383-3.617,3.313,3.313,0,0,0-3.617,3.384l-2.837,86.994a3.5,3.5,0,0,0,3.384,3.616Z" fill="url(#linear-gradient-5)"/>
            <path id="Path_37" data-name="Path 37" d="M2339.842,1604.621a3.491,3.491,0,0,1-3.329-3.657c1.388-29.224,4.033-84.964,4.074-86.865a3.5,3.5,0,0,1,7,.034c0,1.442-3.4,72.858-4.088,87.159a3.5,3.5,0,0,1-3.494,3.335A1.511,1.511,0,0,1,2339.842,1604.621Zm.677-90.488h0Z" fill="url(#linear-gradient-6)"/>
            <path id="Path_38" data-name="Path 38" d="M2316.675,1608.127a6.992,6.992,0,0,0,6.987-6.753c2.96-84.287,2.44-86.189,2.1-87.446a7,7,0,0,0-13.691,2.768c.225,5.066-1.34,54.107-2.393,84.186a6.993,6.993,0,0,0,6.747,7.239C2316.5,1608.127,2316.593,1608.127,2316.675,1608.127Z" fill="url(#linear-gradient-7)"/>
            <path id="Path_39" data-name="Path 39" d="M2301.506,1604.627a3.5,3.5,0,0,0,3.5-3.5v-85.36a3.5,3.5,0,1,0-7,0v85.36A3.5,3.5,0,0,0,2301.506,1604.627Z" fill="url(#linear-gradient-8)"/>
            <path id="Path_40" data-name="Path 40" d="M2289.256,1604.627a3.5,3.5,0,0,0,3.5-3.417c.67-29.661,2.236-78.108,3.637-83.932a3.5,3.5,0,0,0-4.976-4.635c-1.907,1.25-3.719,2.434-5.661,88.4a3.508,3.508,0,0,0,3.419,3.581Z" fill="url(#linear-gradient-9)"/>
            <path id="Path_41" data-name="Path 41" d="M2384.926,1612.4a7,7,0,0,0,6.986-6.638l4.669-89.633a7.009,7.009,0,0,0-6.631-7.356,7.088,7.088,0,0,0-7.355,6.632l-4.669,89.633a7.005,7.005,0,0,0,6.63,7.355C2384.679,1612.4,2384.8,1612.4,2384.926,1612.4Z" fill="url(#linear-gradient-10)"/>
          </g>
        </g>
        <g id="Group_14" data-name="Group 14">
          <path id="Path_42" data-name="Path 42" d="M2217.241,824.453c-87.791-165.827-315.331-15.18-209.435,124.513C2086.54,896.615,2175.508,818.792,2217.241,824.453Z" fill="url(#linear-gradient-11)"/>
        </g>
        <path id="Path_43" data-name="Path 43" d="M2042.034,1362.318l-197.221-101.074s-140.808,138.812-176.831,327.513c41.388,3.049,116.7,13.813,190.418,51.035C1874.6,1550.691,2042.034,1362.318,2042.034,1362.318Z" fill="#739af0"/>
        <path id="Path_44" data-name="Path 44" d="M2204.416,1691.966s-245.93,138.988-328.912,20.309c-17.229-24.643-21.347-49.134-17.1-72.483-73.717-37.222-149.03-47.986-190.418-51.035-10.862,56.886-5.119,117.389,28.309,178.54,145.353,265.894,540.671-14.694,540.671-14.694Z" fill="#ff928e"/>
        <path id="Path_45" data-name="Path 45" d="M2216.1,1762.743c-15.7,4.162-31.587-6.116-34.726-22.053-4.91-24.926-10.961-63.152-6.1-80.744,7.542-27.276,22.154-62.345,70.862-54.551S2352.3,1633.7,2352.3,1633.7s-2.9,35.528-39.921,24.066l22.954,17.762s-3.279,28.447-34.547,13.249l21.349,23.556s-13.427,23.363-36.433,8.379C2266.732,1708.358,2255.906,1752.19,2216.1,1762.743Z" fill="#ff928e"/>
        <path id="Path_46" data-name="Path 46" d="M975.525,1727.953a13.173,13.173,0,0,0-9.268,18.818c17.766,35.822,70.127,114.854,177.985,89.936,138.113-31.908,559.455-350.384,654.851-437.4s221.716-195.43,283.513-180.3,24.531-20.677-18.285-49.415-58.713-70.93-26.832-63.046c0,0-76.875-24.946-194.287,39.759-114.736,63.233-674.976,279.394-862.54,216.809a11.972,11.972,0,0,0-15.54,9.358c-7.468,42.723-18.789,176.479,90.851,326.964C1055.973,1699.439,1013.248,1720.838,975.525,1727.953Z" fill="#739af0"/>
        <path id="Path_47" data-name="Path 47" d="M2080.116,894.7l157.645-4.875a11.374,11.374,0,0,0,9.6-5.844c14.123-25.5,34.787-41.748,60.626-50.672a3.188,3.188,0,0,0-.858-6.184l-96.649-6.573a2.178,2.178,0,0,0-.323,0c-48.166,3.7-90.807,32.683-131.483,70.649A2.025,2.025,0,0,0,2080.116,894.7Z" fill="url(#linear-gradient-12)"/>
      </g>
      <g id="Group_17" data-name="Group 17">
        <path id="Path_48" data-name="Path 48" d="M2751.137,2203.967a12.3,12.3,0,0,0-12.493-11.823H2325.615c-6.9,0-14.23,5.434-14.23,12.074V3131.71c0,4.956,2.918,9.709,6.565,13.209a20.849,20.849,0,0,0,14.177,5.446l417.553-1.1a20.031,20.031,0,0,0,13.911-5.606,18.373,18.373,0,0,0,5.583-13.412Z" fill="#ff7f75"/>
        <g id="Group_16" data-name="Group 16">
          <path id="Path_49" data-name="Path 49" d="M2513.94,2257.874l-135.111-.45.051-16.266,134.96.41Z" fill="#fff" style="mix-blend-mode: overlay;isolation: isolate"/>
          <path id="Path_50" data-name="Path 50" d="M2514.311,2317.787l-135.667-.6.051-16.4,135.514.556Z" fill="#fff" style="mix-blend-mode: overlay;isolation: isolate"/>
          <path id="Path_51" data-name="Path 51" d="M2514.684,2378.2l-136.227-.744.051-16.535,136.073.7Z" fill="#fff" style="mix-blend-mode: overlay;isolation: isolate"/>
          <path id="Path_52" data-name="Path 52" d="M2515.061,2439.105l-136.792-.894.052-16.672,136.637.853Z" fill="#fff" style="mix-blend-mode: overlay;isolation: isolate"/>
          <path id="Path_53" data-name="Path 53" d="M2515.44,2500.522l-137.361-1.047.052-16.811,137.205,1.005Z" fill="#fff" style="mix-blend-mode: overlay;isolation: isolate"/>
          <path id="Path_54" data-name="Path 54" d="M2516.209,2624.9l-138.515-1.361.053-17.094,138.355,1.317Z" fill="#fff" style="mix-blend-mode: overlay;isolation: isolate"/>
          <path id="Path_55" data-name="Path 55" d="M2517.387,2815.448l-140.281-1.852.054-17.531,140.118,1.806Z" fill="#fff" style="mix-blend-mode: overlay;isolation: isolate"/>
          <path id="Path_56" data-name="Path 56" d="M2515.823,2562.453l-137.936-1.2.052-16.952,137.778,1.16Z" fill="#fff" style="mix-blend-mode: overlay;isolation: isolate"/>
          <path id="Path_57" data-name="Path 57" d="M2516.6,2687.884l-139.1-1.522.054-17.238,138.938,1.478Z" fill="#fff" style="mix-blend-mode: overlay;isolation: isolate"/>
          <path id="Path_58" data-name="Path 58" d="M2516.991,2751.4l-139.687-1.685.054-17.384,139.526,1.64Z" fill="#fff" style="mix-blend-mode: overlay;isolation: isolate"/>
          <path id="Path_59" data-name="Path 59" d="M2517.787,2880.049l-140.88-2.021.055-17.681,140.716,1.974Z" fill="#fff" style="mix-blend-mode: overlay;isolation: isolate"/>
          <path id="Path_60" data-name="Path 60" d="M2518.19,2945.2l-141.485-2.192.055-17.833,141.319,2.145Z" fill="#fff" style="mix-blend-mode: overlay;isolation: isolate"/>
          <path id="Path_61" data-name="Path 61" d="M2518.6,3010.92l-142.094-2.367.055-17.987,141.927,2.319Z" fill="#fff" style="mix-blend-mode: overlay;isolation: isolate"/>
          <path id="Path_62" data-name="Path 62" d="M2519.006,3077.205,2376.3,3074.66l.056-18.142,142.54,2.5Z" fill="#fff" style="mix-blend-mode: overlay;isolation: isolate"/>
          <path id="Path_63" data-name="Path 63" d="M2691.081,2258.464l-135.959-.453-.147-16.317,135.806.413Z" fill="#fff" style="mix-blend-mode: overlay;isolation: isolate"/>
          <path id="Path_64" data-name="Path 64" d="M2692.184,2318.568l-136.521-.6-.148-16.452,136.367.559Z" fill="#fff" style="mix-blend-mode: overlay;isolation: isolate"/>
          <path id="Path_65" data-name="Path 65" d="M2693.3,2379.17l-137.089-.749-.149-16.588,136.933.708Z" fill="#fff" style="mix-blend-mode: overlay;isolation: isolate"/>
          <path id="Path_66" data-name="Path 66" d="M2694.417,2440.278l-137.661-.9-.151-16.726,137.5.858Z" fill="#fff" style="mix-blend-mode: overlay;isolation: isolate"/>
          <path id="Path_67" data-name="Path 67" d="M2695.548,2501.9l-138.237-1.054-.152-16.866,138.079,1.012Z" fill="#fff" style="mix-blend-mode: overlay;isolation: isolate"/>
          <path id="Path_68" data-name="Path 68" d="M2697.838,2626.689l-139.406-1.37-.155-17.151,139.245,1.326Z" fill="#fff" style="mix-blend-mode: overlay;isolation: isolate"/>
          <path id="Path_69" data-name="Path 69" d="M2701.346,2817.876l-141.2-1.864-.158-17.591,141.03,1.817Z" fill="#fff" style="mix-blend-mode: overlay;isolation: isolate"/>
          <path id="Path_70" data-name="Path 70" d="M2696.688,2564.031l-138.819-1.21-.153-17.007,138.659,1.167Z" fill="#fff" style="mix-blend-mode: overlay;isolation: isolate"/>
          <path id="Path_71" data-name="Path 71" d="M2699,2689.88l-140-1.532-.156-17.3,139.835,1.487Z" fill="#fff" style="mix-blend-mode: overlay;isolation: isolate"/>
          <path id="Path_72" data-name="Path 72" d="M2700.167,2753.606l-140.594-1.7-.157-17.442,140.43,1.651Z" fill="#fff" style="mix-blend-mode: overlay;isolation: isolate"/>
          <path id="Path_73" data-name="Path 73" d="M2702.535,2882.7l-141.8-2.034-.16-17.742,141.635,1.987Z" fill="#fff" style="mix-blend-mode: overlay;isolation: isolate"/>
          <path id="Path_74" data-name="Path 74" d="M2703.735,2948.078l-142.414-2.207-.162-17.895,142.246,2.159Z" fill="#fff" style="mix-blend-mode: overlay;isolation: isolate"/>
          <path id="Path_75" data-name="Path 75" d="M2704.945,3014.025l-143.032-2.383-.162-18.049,142.862,2.334Z" fill="#fff" style="mix-blend-mode: overlay;isolation: isolate"/>
          <path id="Path_76" data-name="Path 76" d="M2706.165,3080.542l-143.654-2.562-.164-18.206,143.484,2.512Z" fill="#fff" style="mix-blend-mode: overlay;isolation: isolate"/>
        </g>
      </g>
      <g id="Group_19" data-name="Group 19">
        <path id="Path_77" data-name="Path 77" d="M2429.17,2411.563c-.132-5.179-5.919-9.347-13.012-9.347H1985.969c-7.188,0-14.823,4.3-14.823,9.546V3145.1c0,3.919,3.04,7.677,6.838,10.444s9.4,4.316,14.767,4.306l434.9-.867a24.729,24.729,0,0,0,14.489-4.433c3.786-2.825,5.917-6.652,5.815-10.6Z" fill="#ff7f75"/>
        <g id="Group_18" data-name="Group 18">
          <path id="Path_78" data-name="Path 78" d="M2182.118,2454.186l-140.725-.356.052-12.861,140.567.324Z" fill="#fff"/>
          <path id="Path_79" data-name="Path 79" d="M2182.5,2501.557l-141.3-.471.053-12.967,141.145.439Z" fill="#fff"/>
          <path id="Path_80" data-name="Path 80" d="M2182.893,2549.319l-141.887-.588.053-13.074,141.727.556Z" fill="#fff"/>
          <path id="Path_81" data-name="Path 81" d="M2183.285,2597.479l-142.475-.707.054-13.182,142.314.675Z" fill="#fff"/>
          <path id="Path_82" data-name="Path 82" d="M2183.68,2646.04l-143.068-.828.055-13.292,142.906.8Z" fill="#fff"/>
          <path id="Path_83" data-name="Path 83" d="M2184.481,2744.385l-144.269-1.076.055-13.515,144.1,1.042Z" fill="#fff"/>
          <path id="Path_84" data-name="Path 84" d="M2185.708,2895.042l-146.11-1.464.056-13.862,145.941,1.428Z" fill="#fff"/>
          <path id="Path_85" data-name="Path 85" d="M2184.08,2695.007l-143.667-.951.055-13.4,143.5.917Z" fill="#fff"/>
          <path id="Path_86" data-name="Path 86" d="M2184.887,2794.181l-144.878-1.2.056-13.63,144.711,1.168Z" fill="#fff"/>
          <path id="Path_87" data-name="Path 87" d="M2185.3,2844.4l-145.491-1.333.056-13.745,145.323,1.3Z" fill="#fff"/>
          <path id="Path_88" data-name="Path 88" d="M2186.125,2946.119l-146.734-1.6.057-13.98,146.563,1.561Z" fill="#fff"/>
          <path id="Path_89" data-name="Path 89" d="M2186.544,2997.635l-147.363-1.734.058-14.1,147.19,1.7Z" fill="#fff"/>
          <path id="Path_90" data-name="Path 90" d="M2186.967,3049.6l-148-1.872.058-14.221,147.824,1.833Z" fill="#fff"/>
          <path id="Path_91" data-name="Path 91" d="M2187.394,3102l-148.638-2.012.058-14.344,148.462,1.974Z" fill="#fff"/>
          <path id="Path_92" data-name="Path 92" d="M2366.619,2454.652l-141.608-.358-.153-12.9,141.448.327Z" fill="#fff"/>
          <path id="Path_93" data-name="Path 93" d="M2367.768,2502.174l-142.194-.473-.154-13.008,142.033.442Z" fill="#fff"/>
          <path id="Path_94" data-name="Path 94" d="M2368.926,2550.091l-142.785-.592-.155-13.115,142.622.559Z" fill="#fff"/>
          <path id="Path_95" data-name="Path 95" d="M2370.094,2598.407l-143.381-.711-.157-13.225,143.217.678Z" fill="#fff"/>
          <path id="Path_96" data-name="Path 96" d="M2371.271,2647.126l-143.981-.834-.158-13.335,143.816.8Z" fill="#fff"/>
          <path id="Path_97" data-name="Path 97" d="M2373.656,2745.8l-145.2-1.083-.161-13.561,145.03,1.049Z" fill="#fff"/>
          <path id="Path_98" data-name="Path 98" d="M2377.31,2896.962l-147.062-1.473-.165-13.909,146.89,1.437Z" fill="#fff"/>
          <path id="Path_99" data-name="Path 99" d="M2372.459,2696.254l-144.587-.957-.159-13.447,144.42.923Z" fill="#fff"/>
          <path id="Path_100" data-name="Path 100" d="M2374.864,2795.759l-145.814-1.211-.162-13.675,145.645,1.176Z" fill="#fff"/>
          <path id="Path_101" data-name="Path 101" d="M2376.082,2846.145l-146.436-1.341-.164-13.791,146.265,1.305Z" fill="#fff"/>
          <path id="Path_102" data-name="Path 102" d="M2378.549,2948.214l-147.694-1.608-.166-14.028,147.521,1.571Z" fill="#fff"/>
          <path id="Path_103" data-name="Path 103" d="M2379.8,2999.908l-148.331-1.745-.168-14.149,148.156,1.708Z" fill="#fff"/>
          <path id="Path_104" data-name="Path 104" d="M2381.059,3052.05l-148.974-1.884-.169-14.271,148.8,1.846Z" fill="#fff"/>
          <path id="Path_105" data-name="Path 105" d="M2382.33,3104.644l-149.623-2.025-.171-14.4,149.445,1.986Z" fill="#fff"/>
        </g>
      </g>
      <g id="Group_30" data-name="Group 30">
        <path id="Path_106" data-name="Path 106" d="M3224.42,2099.317c-.228-11.675-10.128-21.281-22.264-21.281h-458.7c-12.3,0-24.377,10.108-24.377,21.941V3157.641c0,5.692,3.409,11.151,7.6,15.171a24.017,24.017,0,0,0,16.312,6.255l479.6-1.26a23.024,23.024,0,0,0,15.985-6.439,21.352,21.352,0,0,0,6.415-15.518Z" fill="#ff7f75"/>
        <g id="Group_29" data-name="Group 29" opacity="0.5">
          <g id="Group_20" data-name="Group 20">
            <path id="Path_107" data-name="Path 107" d="M2886.61,2202.668l-130.674-.169-1.037-64.447h130.8Z" fill="#fff"/>
            <path id="Path_108" data-name="Path 108" d="M3033.081,2202.636l-130.543-.169-.894-64.414h130.67Z" fill="#fff"/>
            <path id="Path_109" data-name="Path 109" d="M3179.4,2202.6l-130.412-.169-.752-64.382h130.538Z" fill="#fff"/>
          </g>
          <g id="Group_21" data-name="Group 21">
            <path id="Path_110" data-name="Path 110" d="M2888.243,2318.348l-130.447.08-1.033-64.026,130.573-.052Z" fill="#fff"/>
            <path id="Path_111" data-name="Path 111" d="M3034.459,2318.258l-130.316.08-.891-63.994,130.442-.052Z" fill="#fff"/>
            <path id="Path_112" data-name="Path 112" d="M3180.528,2318.168l-130.185.08-.75-63.962,130.311-.052Z" fill="#fff"/>
          </g>
          <g id="Group_22" data-name="Group 22">
            <path id="Path_113" data-name="Path 113" d="M2889.87,2433.232l-130.22.132-1.03-63.8,130.346-.1Z" fill="#fff"/>
            <path id="Path_114" data-name="Path 114" d="M3035.832,2433.085l-130.089.131-.888-63.772,130.215-.1Z" fill="#fff"/>
            <path id="Path_115" data-name="Path 115" d="M3181.647,2432.937l-129.959.132-.747-63.74,130.084-.1Z" fill="#fff"/>
          </g>
          <g id="Group_23" data-name="Group 23">
            <path id="Path_116" data-name="Path 116" d="M2891.492,2547.719l-129.994.182-1.026-63.583,130.119-.154Z" fill="#fff"/>
            <path id="Path_117" data-name="Path 117" d="M3037.2,2547.514l-129.864.182-.885-63.551,129.989-.154Z" fill="#fff"/>
            <path id="Path_118" data-name="Path 118" d="M3182.763,2547.31l-129.734.182-.744-63.52,129.859-.154Z" fill="#fff"/>
          </g>
          <g id="Group_24" data-name="Group 24">
            <path id="Path_119" data-name="Path 119" d="M2893.108,2661.81l-129.768.233-1.022-63.364,129.893-.205Z" fill="#fff"/>
            <path id="Path_120" data-name="Path 120" d="M3038.564,2661.549l-129.638.233-.882-63.332,129.763-.2Z" fill="#fff"/>
            <path id="Path_121" data-name="Path 121" d="M3183.875,2661.288l-129.51.233-.742-63.3,129.634-.2Z" fill="#fff"/>
          </g>
          <g id="Group_25" data-name="Group 25">
            <path id="Path_122" data-name="Path 122" d="M2894.719,2775.508l-129.543.283-1.019-63.145,129.668-.255Z" fill="#fff"/>
            <path id="Path_123" data-name="Path 123" d="M3039.923,2775.19l-129.414.283-.879-63.113,129.539-.255Z" fill="#fff"/>
            <path id="Path_124" data-name="Path 124" d="M3184.983,2774.873l-129.285.282-.739-63.082,129.409-.255Z" fill="#fff"/>
          </g>
          <g id="Group_26" data-name="Group 26">
            <path id="Path_125" data-name="Path 125" d="M2896.324,2888.813l-129.32.333-1.016-62.927,129.444-.305Z" fill="#fff"/>
            <path id="Path_126" data-name="Path 126" d="M3041.277,2888.44l-129.191.333-.876-62.9,129.315-.3Z" fill="#fff"/>
            <path id="Path_127" data-name="Path 127" d="M3186.087,2888.067l-129.062.332-.737-62.865,129.187-.3Z" fill="#fff"/>
          </g>
          <g id="Group_27" data-name="Group 27">
            <path id="Path_128" data-name="Path 128" d="M2897.923,3001.729l-129.1.383-1.012-62.711,129.22-.355Z" fill="#fff"/>
            <path id="Path_129" data-name="Path 129" d="M3042.627,3001.3l-128.968.382-.873-62.68,129.092-.354Z" fill="#fff"/>
            <path id="Path_130" data-name="Path 130" d="M3187.187,3000.873l-128.84.381-.734-62.649,128.963-.354Z" fill="#fff"/>
          </g>
          <g id="Group_28" data-name="Group 28">
            <path id="Path_131" data-name="Path 131" d="M2899.517,3114.259l-128.874.431-1.008-62.5,129-.4Z" fill="#fff"/>
            <path id="Path_132" data-name="Path 132" d="M3043.972,3113.775l-128.747.431-.87-62.465,128.869-.4Z" fill="#fff"/>
            <path id="Path_133" data-name="Path 133" d="M3188.284,3113.292l-128.619.431-.732-62.434,128.742-.4Z" fill="#fff"/>
          </g>
        </g>
      </g>
      <g id="Group_31" data-name="Group 31">
        <rect id="Rectangle_2" data-name="Rectangle 2" width="106.12" height="139.515" transform="translate(2634.041 2270.234)" fill="#048ea7"/>
        <path id="Path_134" data-name="Path 134" d="M2768.762,2306.814h-168.9a32.142,32.142,0,0,1-32.142-32.142h0c-8.737-42.292,19.926-74.34,69.172-69.172h128.484a34.481,34.481,0,0,1,34.481,34.481v35.742A31.091,31.091,0,0,1,2768.762,2306.814Z" fill="#007a90"/>
        <rect id="Rectangle_3" data-name="Rectangle 3" width="59.359" height="78.039" transform="matrix(0.689, 0.724, -0.724, 0.689, 3009.503, 2434.982)" fill="#048ea7"/>
        <path id="Rectangle_4" data-name="Rectangle 4" d="M6.754,0h119.46a3.635,3.635,0,0,1,3.635,3.635v50a3.036,3.036,0,0,1-3.036,3.036H2.016A2.016,2.016,0,0,1,0,54.655V6.754A6.754,6.754,0,0,1,6.754,0Z" transform="matrix(0.689, 0.724, -0.724, 0.689, 3010.163, 2383.145)" fill="#007a90"/>
        <rect id="Rectangle_5" data-name="Rectangle 5" width="59.359" height="78.039" transform="matrix(-0.689, 0.724, -0.724, -0.689, 2426.185, 2486.997)" fill="#048ea7"/>
        <path id="Rectangle_6" data-name="Rectangle 6" d="M2.016,0h124.8a3.036,3.036,0,0,1,3.036,3.036V53.3a3.371,3.371,0,0,1-3.371,3.371H6.754A6.754,6.754,0,0,1,0,49.917V2.016A2.016,2.016,0,0,1,2.016,0Z" transform="translate(2410.044 2420.431) rotate(133.575)" fill="#007a90"/>
        <circle id="Ellipse_3" data-name="Ellipse 3" cx="433.206" cy="433.206" r="433.206" transform="translate(2248.18 2388.588)" fill="#00b3d3"/>
        <circle id="Ellipse_4" data-name="Ellipse 4" cx="366.916" cy="366.916" r="366.916" transform="translate(2319.035 2460.11)" fill="#fff"/>
        <rect id="Rectangle_7" data-name="Rectangle 7" width="13.265" height="105.224" transform="translate(2677.152 2467.754)" fill="#007a90"/>
        <rect id="Rectangle_8" data-name="Rectangle 8" width="13.265" height="105.224" transform="translate(2677.152 3082.885)" fill="#007a90"/>
        <rect id="Rectangle_9" data-name="Rectangle 9" width="13.265" height="105.224" transform="translate(3044.87 2816.11) rotate(89.408)" fill="#007a90"/>
        <rect id="Rectangle_10" data-name="Rectangle 10" width="13.265" height="105.224" transform="translate(2432.423 2822.187) rotate(89.408)" fill="#007a90"/>
        <path id="Path_135" data-name="Path 135" d="M2683.123,2832.679a3.309,3.309,0,0,1-2.612-1.271l-160.6-204.989a3.317,3.317,0,0,1,5.222-4.091l160.595,204.99a3.317,3.317,0,0,1-2.609,5.361Z" fill="#007a90"/>
        <path id="Path_136" data-name="Path 136" d="M2640.564,2897.3a13.265,13.265,0,0,1-10.405-21.482l161.859-205.13a13.265,13.265,0,1,1,20.827,16.434l-161.859,205.129A13.24,13.24,0,0,1,2640.564,2897.3Z" fill="#007a90"/>
        <path id="Path_137" data-name="Path 137" d="M2886.1,3055.719a9.916,9.916,0,0,1-7.3-3.191L2632.046,2785.97a9.949,9.949,0,1,1,14.6-13.516L2893.4,3039.012a9.948,9.948,0,0,1-7.3,16.707Z" fill="#007a90"/>
        <circle id="Ellipse_5" data-name="Ellipse 5" cx="35.815" cy="35.815" r="35.815" transform="translate(2632.47 2829.363) rotate(-45)" fill="#00b3d3"/>
        <circle id="Ellipse_6" data-name="Ellipse 6" cx="23.877" cy="23.877" r="23.877" transform="translate(2649.354 2829.363) rotate(-45)" fill="#fff"/>
        <rect id="Rectangle_11" data-name="Rectangle 11" width="13.265" height="56.679" transform="translate(2677.152 2477.168)" fill="#007a90"/>
        <rect id="Rectangle_12" data-name="Rectangle 12" width="13.265" height="56.679" transform="translate(2843.657 2515.826) rotate(28.084)" fill="#007a90"/>
        <rect id="Rectangle_13" data-name="Rectangle 13" width="13.265" height="56.679" transform="translate(2984.35 2646.777) rotate(59.749)" fill="#007a90"/>
        <rect id="Rectangle_14" data-name="Rectangle 14" width="13.265" height="56.679" transform="translate(2995.988 2991.2) rotate(118.322)" fill="#007a90"/>
        <rect id="Rectangle_15" data-name="Rectangle 15" width="13.265" height="56.679" transform="matrix(-0.867, 0.499, -0.499, -0.867, 2864.011, 3131.614)" fill="#007a90"/>
        <rect id="Rectangle_16" data-name="Rectangle 16" width="13.265" height="56.679" transform="translate(2519.558 3141.33) rotate(-151.361)" fill="#007a90"/>
        <rect id="Rectangle_17" data-name="Rectangle 17" width="13.265" height="56.679" transform="translate(2372.611 2995.676) rotate(-117.203)" fill="#007a90"/>
        <rect id="Rectangle_18" data-name="Rectangle 18" width="13.265" height="56.679" transform="translate(2357.384 2695.302) rotate(-66.659)" fill="#007a90"/>
        <rect id="Rectangle_19" data-name="Rectangle 19" width="13.265" height="56.679" transform="translate(2461.331 2555.709) rotate(-38.053)" fill="#007a90"/>
        <path id="Path_138" data-name="Path 138" d="M2685.18,3230.923a403.412,403.412,0,0,1-204.121-55.326,1.327,1.327,0,0,1,1.344-2.288,402.288,402.288,0,0,0,317.073,38.442,1.326,1.326,0,1,1,.754,2.543A404.153,404.153,0,0,1,2685.18,3230.923Z" fill="#fff"/>
        <path id="Path_139" data-name="Path 139" d="M3065.53,2960.248a1.327,1.327,0,0,1-1.254-1.761,400.276,400.276,0,0,0,21.984-131.3c0-88.646-28.335-172.663-81.942-242.966a1.327,1.327,0,1,1,2.11-1.609,404.459,404.459,0,0,1,60.355,376.739A1.327,1.327,0,0,1,3065.53,2960.248Z" fill="#fff"/>
        <path id="Path_140" data-name="Path 140" d="M2298.053,2938.733a1.327,1.327,0,0,1-1.275-.964,404.075,404.075,0,0,1,278.041-499.041,1.326,1.326,0,1,1,.724,2.551c-171.6,48.656-291.443,207.348-291.443,385.912a401.794,401.794,0,0,0,15.23,109.852,1.329,1.329,0,0,1-1.277,1.69Z" fill="#fff"/>
        <path id="Path_141" data-name="Path 141" d="M2580.979,2288.1a1.325,1.325,0,0,1-1.3-1.1c-5.278-29.86-3.385-47.333,6.33-58.425,16.966-19.372,57.586-17.639,131.326-14.491l4.227.18a1.327,1.327,0,0,1-.113,2.651l-4.227-.18c-72.921-3.113-113.09-4.828-129.217,13.588-9.006,10.283-10.768,27.621-5.714,56.216a1.325,1.325,0,0,1-1.308,1.557Z" fill="#fff"/>
      </g>
    </g>
  </g>
</svg>
