<svg xmlns="http://www.w3.org/2000/svg" xmlns:xlink="http://www.w3.org/1999/xlink" width="327.833" height="323.529" viewBox="0 0 327.833 323.529">
  <defs>
    <linearGradient id="linear-gradient" x1="1.01" y1="-1.182" x2="0.399" y2="0.558" gradientUnits="objectBoundingBox">
      <stop offset="0" stop-color="#febbba"/>
      <stop offset="1" stop-color="#ff928e"/>
    </linearGradient>
    <linearGradient id="linear-gradient-2" x1="0.485" y1="0.339" x2="0.712" y2="1.663" gradientUnits="objectBoundingBox">
      <stop offset="0" stop-color="#4f52ff"/>
      <stop offset="1" stop-color="#4042e2"/>
    </linearGradient>
  </defs>
  <g id="Illustration" transform="translate(-462.235 -455)">
    <g id="Group_22" data-name="Group 22" transform="translate(462.235 455)">
      <path id="Path_1" data-name="Path 1" d="M769.662,687.124C737.155,763.1,651.349,795.739,584.118,790.174c-18.357-1.519-55.291-4.576-84.129-31.848-55.382-52.373-46.853-161.848,6.164-226.3,6.828-8.3,54.086-63.911,127.73-63.166,53.918.545,91.763,31,96.364,34.8a148.422,148.422,0,0,1,30.19,34.254C787.589,580.37,789.975,639.644,769.662,687.124Z" transform="translate(-462.235 -467.251)" fill="#d2fdfd"/>
      <g id="Group_3" data-name="Group 3" transform="translate(36.091 0)">
        <path id="Path_2" data-name="Path 2" d="M785.706,456.523a1.388,1.388,0,0,1,2.424-1.048c9.023,10.251,30.178,40.389,19.6,88.526-13.269,60.4-2.666,83.905,11.882,99.016,0,0-21.15-8.47-32.683-32.4C758.614,551.865,788.215,480.3,785.706,456.523Z" transform="translate(-774.584 -455)" fill="#35b3ca"/>
        <path id="Path_3" data-name="Path 3" d="M886.409,636.581c.591,6.921,1.046,13.849,1.247,20.785q.355,10.4.074,20.8c-.216,6.927-.562,13.848-1.2,20.745-.608,6.9-1.512,13.764-2.444,20.654-.893,6.891-1.831,13.828-2.063,20.882a70.464,70.464,0,0,0,2.255,21.077c.474,1.709.98,3.417,1.583,5.077.572,1.672,1.218,3.32,1.893,4.955a73.064,73.064,0,0,0,18.14,25.9,1.343,1.343,0,0,0,1.858-1.938l0,0c-1.221-1.2-2.427-2.418-3.575-3.683-.584-.624-1.139-1.271-1.706-1.909-.542-.658-1.11-1.3-1.632-1.969a70.778,70.778,0,0,1-5.8-8.4,77.591,77.591,0,0,1-7.91-18.8,67.615,67.615,0,0,1-1.874-10.011,76.681,76.681,0,0,1-.39-10.221c.172-6.852,1.045-13.725,1.888-20.622s1.626-13.839,2.13-20.8q.392-5.219.6-10.448c.078-1.742.123-3.486.17-5.229q.046-2.615.059-5.23.023-10.46-.6-20.9c-.451-6.953-1.086-13.891-1.987-20.793a.36.36,0,0,0-.716.077Z" transform="translate(-869.564 -615.255)" fill="#fff" style="mix-blend-mode: soft-light;isolation: isolate"/>
      </g>
      <g id="Group_5" data-name="Group 5" transform="translate(1.299 49.626)">
        <g id="Group_4" data-name="Group 4">
          <path id="Path_4" data-name="Path 4" d="M510.435,1043.3a3.489,3.489,0,0,1-5.672,1.177c-9.795-9.54-35.049-39.017-30.816-86.027,3.574-39.7,1.74-61.564.219-71.432a2.188,2.188,0,0,1,3.706-1.883C494.4,901.555,543.953,960,510.435,1043.3Z" transform="translate(-473.473 -884.494)" fill="#51d9f2"/>
          <path id="Path_5" data-name="Path 5" d="M608.72,1383.935a.969.969,0,0,1-1.413-.485c-.212-.567-21.19-57.367-18.714-112.789a.968.968,0,0,1,1.933.086c-2.458,55.019,18.382,111.461,18.593,112.025A.967.967,0,0,1,608.72,1383.935Z" transform="translate(-575.112 -1225.224)" fill="#fff" style="mix-blend-mode: soft-light;isolation: isolate"/>
        </g>
      </g>
      <g id="Group_7" data-name="Group 7" transform="translate(15.547 9.176)">
        <ellipse id="Ellipse_1" data-name="Ellipse 1" cx="139.138" cy="150.185" rx="139.138" ry="150.185" transform="translate(0 278.007) rotate(-87.486)" fill="#02a0bc"/>
        <ellipse id="Ellipse_2" data-name="Ellipse 2" cx="117.849" cy="111.33" rx="117.849" ry="111.33" transform="translate(30.166 24.222)" fill="#fff" opacity="0.2"/>
        <g id="Group_6" data-name="Group 6" transform="translate(19.545 10.064)" opacity="0.68">
          <path id="Path_6" data-name="Path 6" d="M1691.773,763.465a420.142,420.142,0,0,1-6.044,73.323c-1.095,6.043-2.364,12.057-3.876,18.015a173.574,173.574,0,0,1-5.412,17.629,83.563,83.563,0,0,1-8.075,16.616,33.183,33.183,0,0,1-6.06,7.069,17.274,17.274,0,0,1-3.967,2.557,11.887,11.887,0,0,1-4.632,1.091,11.685,11.685,0,0,1-4.682-.861,16.232,16.232,0,0,1-4.059-2.416,31.5,31.5,0,0,1-6.191-6.958,80.849,80.849,0,0,1-8.192-16.558,169.647,169.647,0,0,1-5.47-17.611c-1.528-5.953-2.81-11.965-3.914-18.006-2.2-12.085-3.706-24.286-4.719-36.521s-1.511-24.513-1.573-36.79c-.03-6.138.137-12.275.355-18.408s.568-12.262,1.019-18.383c.908-12.24,2.264-24.453,4.28-36.566,1.011-6.055,2.191-12.084,3.609-18.06a173.668,173.668,0,0,1,5.125-17.7c1.031-2.9,2.157-5.762,3.442-8.56a62.5,62.5,0,0,1,4.406-8.121,30.266,30.266,0,0,1,6.056-7,15.47,15.47,0,0,1,4-2.4,11.3,11.3,0,0,1,4.6-.818,12.211,12.211,0,0,1,4.55,1.066,17.772,17.772,0,0,1,3.954,2.468,33.747,33.747,0,0,1,6.187,6.881,82.867,82.867,0,0,1,8.485,16.364,167.873,167.873,0,0,1,5.816,17.485c1.638,5.921,3.025,11.907,4.225,17.929A384.721,384.721,0,0,1,1691.773,763.465Zm-1.816,0c.022-12.228-.442-24.458-1.458-36.644a352.83,352.83,0,0,0-4.781-36.35c-1.129-6.007-2.444-11.979-4.009-17.886a166.846,166.846,0,0,0-5.589-17.439,82.066,82.066,0,0,0-8.22-16.291,33.09,33.09,0,0,0-5.985-6.81,17.172,17.172,0,0,0-3.792-2.426,11.347,11.347,0,0,0-4.331-1.056,10.635,10.635,0,0,0-4.369.822,14.871,14.871,0,0,0-3.822,2.349,29.618,29.618,0,0,0-5.84,6.91,61.734,61.734,0,0,0-4.262,8.066c-1.242,2.784-2.328,5.638-3.32,8.524a172.69,172.69,0,0,0-4.9,17.647c-1.346,5.961-2.455,11.976-3.4,18.017-1.876,12.084-3.094,24.266-3.865,36.472s-1.048,24.441-1.026,36.67q-.049,18.34,1.285,36.652c.916,12.192,2.319,24.353,4.419,36.4,1.052,6.02,2.281,12.008,3.754,17.936a168.431,168.431,0,0,0,5.293,17.517,79.742,79.742,0,0,0,7.942,16.379,30.484,30.484,0,0,0,5.924,6.771,15.231,15.231,0,0,0,3.79,2.3,10.455,10.455,0,0,0,4.286.815,10.9,10.9,0,0,0,4.243-1.038,16.268,16.268,0,0,0,3.712-2.438,32.15,32.15,0,0,0,5.8-6.887A82.417,82.417,0,0,0,1675.262,872a172.258,172.258,0,0,0,5.23-17.536c1.456-5.931,2.67-11.923,3.712-17.944,2.085-12.044,3.471-24.207,4.392-36.4S1689.962,775.7,1689.957,763.465Z" transform="translate(-1516.807 -627.267)" fill="#fff" style="mix-blend-mode: soft-light;isolation: isolate"/>
          <path id="Path_7" data-name="Path 7" d="M1219.195,757.715a178.887,178.887,0,0,1-6.346,46.853,150.855,150.855,0,0,1-19.6,42.964,123.734,123.734,0,0,1-14.972,18.334,105.022,105.022,0,0,1-18.43,14.837,88.837,88.837,0,0,1-21.5,9.832,80.429,80.429,0,0,1-46.759.021,88.875,88.875,0,0,1-21.521-9.816,105.139,105.139,0,0,1-18.455-14.826,123.816,123.816,0,0,1-15-18.331,151.071,151.071,0,0,1-19.654-42.98,170.169,170.169,0,0,1-4.758-23.23,174.685,174.685,0,0,1,.015-47.315,170.071,170.071,0,0,1,4.774-23.224,151.013,151.013,0,0,1,19.68-42.95,123.759,123.759,0,0,1,15-18.31,104.776,104.776,0,0,1,18.449-14.8,89.227,89.227,0,0,1,21.5-9.78,79.858,79.858,0,0,1,46.686.019,89.176,89.176,0,0,1,21.487,9.8,104.7,104.7,0,0,1,18.424,14.811,123.682,123.682,0,0,1,14.974,18.314,150.785,150.785,0,0,1,19.628,42.935A178.872,178.872,0,0,1,1219.195,757.715Zm-2.082,0a176.911,176.911,0,0,0-6.091-46.346,150.184,150.184,0,0,0-18.979-42.67,122.4,122.4,0,0,0-14.633-18.28,102.25,102.25,0,0,0-18.1-14.842,87.452,87.452,0,0,0-21.23-9.814,77.881,77.881,0,0,0-46.221.019,87.4,87.4,0,0,0-21.213,9.831,102.178,102.178,0,0,0-18.076,14.853,122.339,122.339,0,0,0-14.6,18.284,149.963,149.963,0,0,0-18.928,42.654,171.358,171.358,0,0,0-4.551,22.956,178.541,178.541,0,0,0,.015,46.707,171.262,171.262,0,0,0,4.567,22.949,149.9,149.9,0,0,0,18.954,42.625,122.255,122.255,0,0,0,14.606,18.264,101.817,101.817,0,0,0,18.071,14.826,87.738,87.738,0,0,0,21.2,9.795,77.333,77.333,0,0,0,46.147.021,87.786,87.786,0,0,0,21.213-9.779,101.937,101.937,0,0,0,18.1-14.815,122.336,122.336,0,0,0,14.635-18.26,150.12,150.12,0,0,0,19.006-42.64A176.887,176.887,0,0,0,1217.112,757.715Z" transform="translate(-982.322 -621.517)" fill="#fff" style="mix-blend-mode: soft-light;isolation: isolate"/>
          <path id="Path_8" data-name="Path 8" d="M860.212,1329.543l31.3-.253,31.3-.143,62.6-.115,62.6.127,31.3.156,31.3.273a.092.092,0,0,1,0,.184l-31.3.273-31.3.157-62.6.127-62.6-.116-31.3-.143-31.3-.253a.137.137,0,0,1,0-.274Z" transform="translate(-849.198 -1247.281)" fill="#fff" style="mix-blend-mode: soft-light;isolation: isolate"/>
          <path id="Path_9" data-name="Path 9" d="M1174.5,875.8c7.408-.117,14.815-.168,22.223-.253l22.223-.143c7.408-.061,14.816-.054,22.223-.073l22.223-.042,44.447.127,22.223.156c7.408.093,14.816.147,22.224.273a.092.092,0,0,1,0,.184c-7.408.126-14.816.18-22.224.273l-22.223.156-44.447.127-22.223-.042c-7.408-.019-14.816-.012-22.223-.073l-22.223-.143c-7.408-.085-14.816-.135-22.223-.253a.137.137,0,0,1,0-.274Z" transform="translate(-1127.172 -845.969)" fill="#fff" style="mix-blend-mode: soft-light;isolation: isolate"/>
          <path id="Path_10" data-name="Path 10" d="M766.07,1783.281l34.021-.252,34.021-.144,68.042-.116,68.042.127,34.021.157,34.021.273a.092.092,0,0,1,0,.184l-34.021.273-34.021.157-68.042.127-68.042-.116-34.021-.144-34.021-.252a.137.137,0,0,1,0-.274Z" transform="translate(-765.934 -1648.591)" fill="#fff" style="mix-blend-mode: soft-light;isolation: isolate"/>
          <path id="Path_11" data-name="Path 11" d="M860.212,2237.02l31.3-.253,31.3-.143,62.6-.116,62.6.127,31.3.156,31.3.273a.092.092,0,0,1,0,.184l-31.3.273-31.3.156-62.6.127-62.6-.116-31.3-.143-31.3-.253a.137.137,0,0,1,0-.274Z" transform="translate(-849.198 -2049.902)" fill="#fff" style="mix-blend-mode: soft-light;isolation: isolate"/>
          <path id="Path_12" data-name="Path 12" d="M1388.409,2692.669H1210.623a.48.48,0,1,1,0-.96h177.786a.48.48,0,1,1,0,.96Z" transform="translate(-1158.816 -2452.506)" fill="#fff" style="mix-blend-mode: soft-light;isolation: isolate"/>
        </g>
      </g>
      <g id="Group_11" data-name="Group 11" transform="translate(123.683 11.894)">
        <g id="Group_8" data-name="Group 8" transform="translate(10.267 28.934)">
          <path id="Path_13" data-name="Path 13" d="M1622.09,1203.442a.58.58,0,0,1-.328-1.059q.8-.547,1.581-1.1a.58.58,0,1,1,.67.947q-.789.558-1.6,1.11A.578.578,0,0,1,1622.09,1203.442Z" transform="translate(-1621.51 -1155.787)" fill="#ffd79b"/>
          <path id="Path_14" data-name="Path 14" d="M1661.409,894.5a.58.58,0,0,1-.351-1.042c.972-.736,1.935-1.493,2.863-2.249a.58.58,0,0,1,.733.9c-.939.764-1.913,1.529-2.9,2.274A.578.578,0,0,1,1661.409,894.5Zm5.675-4.625a.58.58,0,0,1-.383-1.016c.919-.808,1.822-1.633,2.685-2.455a.58.58,0,0,1,.8.84c-.874.832-1.789,1.668-2.719,2.486A.577.577,0,0,1,1667.084,889.87Zm5.3-5.051a.58.58,0,0,1-.418-.982c.846-.879,1.674-1.778,2.462-2.674a.58.58,0,0,1,.872.766c-.8.909-1.639,1.821-2.5,2.712A.578.578,0,0,1,1672.381,884.818Zm4.829-5.5a.58.58,0,0,1-.453-.941c.756-.95,1.493-1.924,2.189-2.9a.58.58,0,0,1,.943.675c-.708.989-1.456,1.979-2.225,2.944A.578.578,0,0,1,1677.211,879.319Zm4.258-5.955a.58.58,0,0,1-.489-.892c.65-1.021,1.277-2.069,1.864-3.115a.58.58,0,0,1,1.012.568c-.6,1.065-1.236,2.132-1.9,3.17A.579.579,0,0,1,1681.469,873.363Zm3.579-6.386a.581.581,0,0,1-.521-.834c.528-1.085,1.029-2.2,1.489-3.306a.58.58,0,1,1,1.072.445c-.469,1.13-.979,2.264-1.518,3.369A.581.581,0,0,1,1685.048,866.977Zm2.8-6.759a.581.581,0,0,1-.548-.77c.392-1.134.756-2.3,1.081-3.46a.58.58,0,1,1,1.117.313c-.331,1.184-.7,2.371-1.1,3.526A.581.581,0,0,1,1687.852,860.217Z" transform="translate(-1656.285 -850.109)" fill="#ffd79b"/>
          <path id="Path_15" data-name="Path 15" d="M1907.33,811.406a.587.587,0,0,1-.123-.013.58.58,0,0,1-.444-.689c.134-.624.26-1.256.374-1.878a.58.58,0,1,1,1.141.209c-.116.635-.245,1.279-.382,1.914A.58.58,0,0,1,1907.33,811.406Z" transform="translate(-1873.791 -808.35)" fill="#ffd79b"/>
        </g>
        <g id="Group_9" data-name="Group 9" transform="translate(46.742 31.373)">
          <path id="Path_16" data-name="Path 16" d="M1939.135,831.992a.578.578,0,0,1-.407-.167q-.689-.678-1.374-1.375a.58.58,0,1,1,.827-.813q.678.69,1.361,1.362a.58.58,0,0,1-.407.993Z" transform="translate(-1937.187 -829.464)" fill="#ffd79b"/>
          <path id="Path_17" data-name="Path 17" d="M2014.592,884.759l-.056,0c-1.221-.116-2.455-.272-3.665-.461a.58.58,0,0,1,.18-1.146c1.188.186,2.4.338,3.6.453a.58.58,0,0,1-.055,1.157Zm-7.229-1.132a.593.593,0,0,1-.125-.013c-1.193-.261-2.4-.564-3.584-.9a.58.58,0,1,1,.316-1.116c1.163.328,2.346.625,3.517.882a.58.58,0,0,1-.124,1.147Zm-7.044-1.988a.58.58,0,0,1-.19-.032c-1.15-.4-2.312-.838-3.456-1.308a.58.58,0,1,1,.441-1.073c1.123.461,2.265.894,3.395,1.285a.58.58,0,0,1-.19,1.128Zm-6.776-2.78a.577.577,0,0,1-.249-.056c-1.1-.522-2.2-1.083-3.291-1.67a.58.58,0,1,1,.551-1.021c1.069.577,2.158,1.13,3.238,1.643a.58.58,0,0,1-.25,1.1Zm-6.442-3.474a.58.58,0,0,1-.3-.084c-1.037-.627-2.083-1.293-3.111-1.979a.58.58,0,0,1,.645-.965c1.012.677,2.044,1.333,3.066,1.951a.58.58,0,0,1-.3,1.077Zm-6.087-4.065a.578.578,0,0,1-.343-.112c-.978-.716-1.962-1.469-2.928-2.237a.58.58,0,1,1,.723-.908c.953.758,1.925,1.5,2.891,2.209a.58.58,0,0,1-.343,1.048Zm-5.73-4.557a.578.578,0,0,1-.378-.14c-.914-.785-1.839-1.608-2.749-2.448a.58.58,0,0,1,.786-.853c.9.83,1.815,1.645,2.719,2.421a.58.58,0,0,1-.378,1.02Z" transform="translate(-1967.952 -859.274)" fill="#ffd79b"/>
          <path id="Path_18" data-name="Path 18" d="M2369.989,1043.241h0c-.647,0-1.3-.015-1.951-.038a.58.58,0,0,1-.559-.6.573.573,0,0,1,.6-.56c.635.022,1.28.035,1.914.037a.58.58,0,0,1,0,1.16Z" transform="translate(-2317.758 -1017.481)" fill="#ffd79b"/>
        </g>
        <g id="Group_10" data-name="Group 10" transform="translate(97.55 54.109)">
          <path id="Path_19" data-name="Path 19" d="M2378.3,1029.143a.58.58,0,0,1-.525-.333q-.412-.874-.818-1.761a.58.58,0,1,1,1.054-.484q.4.881.813,1.75a.58.58,0,0,1-.524.828Z" transform="translate(-2376.907 -1026.227)" fill="#ffd79b"/>
          <path id="Path_20" data-name="Path 20" d="M2449.549,1125.333a.579.579,0,0,1-.22-.044c-1.208-.5-2.418-1.032-3.6-1.591a.58.58,0,0,1,.5-1.048c1.162.551,2.354,1.078,3.543,1.566a.58.58,0,0,1-.221,1.117Zm-7.055-3.341a.579.579,0,0,1-.274-.069c-1.144-.616-2.293-1.273-3.416-1.953a.58.58,0,1,1,.6-.992c1.106.67,2.238,1.318,3.365,1.924a.58.58,0,0,1-.275,1.091Zm-6.679-4.046a.576.576,0,0,1-.324-.1c-1.076-.727-2.154-1.494-3.2-2.28a.58.58,0,0,1,.7-.929c1.035.774,2.1,1.531,3.158,2.247a.58.58,0,0,1-.325,1.061Zm-6.252-4.674a.579.579,0,0,1-.368-.132c-1-.822-2-1.685-2.979-2.564a.58.58,0,0,1,.777-.862c.963.867,1.952,1.719,2.939,2.53a.58.58,0,0,1-.369,1.028Zm-5.8-5.219a.578.578,0,0,1-.406-.166c-.922-.9-1.848-1.846-2.75-2.8a.58.58,0,0,1,.844-.8c.892.947,1.807,1.879,2.718,2.771a.58.58,0,0,1-.406.995Zm-5.358-5.679a.578.578,0,0,1-.437-.2c-.85-.973-1.7-1.984-2.528-3a.58.58,0,0,1,.9-.732c.819,1.008,1.661,2.008,2.5,2.971a.58.58,0,0,1-.437.961Zm-4.925-6.059a.58.58,0,0,1-.463-.23c-.78-1.03-1.56-2.094-2.318-3.165a.58.58,0,1,1,.946-.671c.751,1.06,1.525,2.115,2.3,3.135a.58.58,0,0,1-.462.93Zm-4.516-6.37a.579.579,0,0,1-.483-.259c-.712-1.071-1.426-2.181-2.124-3.3a.58.58,0,1,1,.984-.615c.691,1.107,1.4,2.207,2.105,3.269a.58.58,0,0,1-.483.9Zm-4.138-6.622a.579.579,0,0,1-.5-.286c-.653-1.109-1.307-2.254-1.945-3.4a.58.58,0,1,1,1.014-.563c.633,1.141,1.282,2.277,1.93,3.378a.58.58,0,0,1-.5.874Zm-3.792-6.828a.579.579,0,0,1-.514-.311c-.6-1.146-1.2-2.32-1.781-3.49a.58.58,0,1,1,1.039-.516c.577,1.162,1.172,2.328,1.769,3.467a.58.58,0,0,1-.513.85Z" transform="translate(-2396.16 -1066.583)" fill="#ffd79b"/>
          <path id="Path_21" data-name="Path 21" d="M2868.1,1538.5a.58.58,0,0,1-.178-.028q-.928-.3-1.847-.622a.58.58,0,0,1,.385-1.094q.9.318,1.818.612a.58.58,0,0,1-.178,1.132Z" transform="translate(-2809.208 -1477.737)" fill="#ffd79b"/>
        </g>
        <path id="Path_22" data-name="Path 22" d="M1805.762,557.94a10.8,10.8,0,0,0-10.8,10.8c0,3.866,4.536,12.86,7.729,18.712a3.5,3.5,0,0,0,6.145,0c3.193-5.852,7.73-14.846,7.73-18.712A10.8,10.8,0,0,0,1805.762,557.94Zm0,16.6a5.8,5.8,0,1,1,5.8-5.8A5.8,5.8,0,0,1,1805.762,574.542Z" transform="translate(-1764.651 -557.94)" fill="#ffd79b"/>
        <path id="Path_23" data-name="Path 23" d="M2300.965,733.743a13.6,13.6,0,0,0-13.6,13.6c0,4.868,5.712,16.192,9.733,23.561a4.406,4.406,0,0,0,7.738,0c4.021-7.369,9.733-18.693,9.733-23.561A13.6,13.6,0,0,0,2300.965,733.743Zm0,20.9a7.3,7.3,0,1,1,7.3-7.3A7.3,7.3,0,0,1,2300.965,754.647Z" transform="translate(-2200.159 -713.43)" fill="#ffd79b"/>
        <path id="Path_24" data-name="Path 24" d="M1543.856,959.785a11.2,11.2,0,0,0-11.2,11.2c0,4.009,4.7,13.336,8.016,19.4a3.629,3.629,0,0,0,6.373,0c3.312-6.069,8.016-15.4,8.016-19.4A11.2,11.2,0,0,0,1543.856,959.785Zm0,17.217a6.015,6.015,0,1,1,6.014-6.015A6.015,6.015,0,0,1,1543.856,977Z" transform="translate(-1532.654 -913.353)" fill="#ffd79b"/>
        <path id="Path_25" data-name="Path 25" d="M2840.976,1347.881a11.2,11.2,0,0,0-11.2,11.2c0,4.009,4.7,13.336,8.016,19.4a3.629,3.629,0,0,0,6.373,0c3.312-6.069,8.016-15.4,8.016-19.4A11.2,11.2,0,0,0,2840.976,1347.881Zm0,17.217a6.015,6.015,0,1,1,6.015-6.015A6.015,6.015,0,0,1,2840.976,1365.1Z" transform="translate(-2679.897 -1256.606)" fill="#ffd79b"/>
      </g>
      <g id="Group_15" data-name="Group 15" transform="translate(22.868 98.928)">
        <rect id="Rectangle_2" data-name="Rectangle 2" width="139.82" height="66.441" rx="27.561" fill="#116d7e"/>
        <rect id="Rectangle_3" data-name="Rectangle 3" width="133.002" height="61.387" rx="27.561" transform="translate(3.154 2.187)" fill="#35b3ca"/>
        <g id="Group_12" data-name="Group 12" transform="translate(6.43 5.412)">
          <path id="Path_26" data-name="Path 26" d="M961.893,1422.049a25.96,25.96,0,0,0-9.234-37.422L940.4,1407.5Z" transform="translate(-914.447 -1381.552)" fill="#1a8598"/>
          <path id="Path_27" data-name="Path 27" d="M912.593,1361.093a26.048,26.048,0,0,0-17.5-2.547l5.234,25.423Z" transform="translate(-874.381 -1358.018)" fill="#17a3bc"/>
          <path id="Path_28" data-name="Path 28" d="M782.562,1362.588a25.937,25.937,0,0,0-14.7,8.81l19.936,16.613Z" transform="translate(-761.845 -1362.06)" fill="#33d4f2"/>
          <path id="Path_29" data-name="Path 29" d="M759.226,1582.617l-23.668,10.659a25.959,25.959,0,0,0,45.163,3.887Z" transform="translate(-733.275 -1556.665)" fill="#fff"/>
          <path id="Path_30" data-name="Path 30" d="M737.036,1438.836a25.951,25.951,0,0,0-4.027,6.636c9.188,3.6,23.963,9.977,23.963,9.977Z" transform="translate(-731.021 -1429.498)" fill="#a1effd"/>
          <path id="Path_31" data-name="Path 31" d="M717.788,1496.269a26.022,26.022,0,0,0,.294,20.636l23.668-10.659S726.976,1499.866,717.788,1496.269Z" transform="translate(-715.799 -1480.295)" fill="#bbf3fd"/>
        </g>
        <g id="Group_13" data-name="Group 13" transform="translate(64.805 15.004)" opacity="0.78">
          <path id="Path_32" data-name="Path 32" d="M1246.488,1441.029H1222.8a1.431,1.431,0,1,0,0,2.769h23.685a1.431,1.431,0,1,0,0-2.769Z" transform="translate(-1221.009 -1441.029)" fill="#fff"/>
          <path id="Path_33" data-name="Path 33" d="M1246.488,1494.075H1222.8a1.431,1.431,0,1,0,0,2.769h23.685a1.431,1.431,0,1,0,0-2.769Z" transform="translate(-1221.009 -1487.946)" fill="#fff"/>
          <path id="Path_34" data-name="Path 34" d="M1246.488,1706.26H1222.8a1.431,1.431,0,1,0,0,2.769h23.685a1.431,1.431,0,1,0,0-2.769Z" transform="translate(-1221.009 -1675.614)" fill="#fff"/>
          <path id="Path_35" data-name="Path 35" d="M1246.488,1653.214H1222.8a1.431,1.431,0,1,0,0,2.768h23.685a1.431,1.431,0,1,0,0-2.768Z" transform="translate(-1221.009 -1628.697)" fill="#fff"/>
          <path id="Path_36" data-name="Path 36" d="M1246.488,1600.167H1222.8a1.431,1.431,0,1,0,0,2.769h23.685a1.431,1.431,0,1,0,0-2.769Z" transform="translate(-1221.009 -1581.779)" fill="#fff"/>
        </g>
        <g id="Group_14" data-name="Group 14" transform="translate(103.567 15.134)" opacity="0.78">
          <path id="Path_37" data-name="Path 37" d="M1581.953,1442.153h-23.685a1.431,1.431,0,1,0,0,2.769h23.685a1.431,1.431,0,1,0,0-2.769Z" transform="translate(-1556.474 -1442.153)" fill="#fff"/>
          <path id="Path_38" data-name="Path 38" d="M1581.953,1495.2h-23.685a1.431,1.431,0,1,0,0,2.769h23.685a1.431,1.431,0,1,0,0-2.769Z" transform="translate(-1556.474 -1489.07)" fill="#fff"/>
          <path id="Path_39" data-name="Path 39" d="M1581.953,1707.384h-23.685a1.431,1.431,0,1,0,0,2.769h23.685a1.431,1.431,0,1,0,0-2.769Z" transform="translate(-1556.474 -1676.738)" fill="#fff"/>
          <path id="Path_40" data-name="Path 40" d="M1581.953,1654.338h-23.685a1.431,1.431,0,1,0,0,2.768h23.685a1.431,1.431,0,1,0,0-2.768Z" transform="translate(-1556.474 -1629.821)" fill="#fff"/>
          <path id="Path_41" data-name="Path 41" d="M1581.953,1601.292h-23.685a1.431,1.431,0,1,0,0,2.768h23.685a1.431,1.431,0,1,0,0-2.768Z" transform="translate(-1556.474 -1582.904)" fill="#fff"/>
        </g>
      </g>
      <g id="Group_20" data-name="Group 20" transform="translate(1.173 154.376)">
        <g id="Group_16" data-name="Group 16" transform="translate(123.424 53.124)">
          <path id="Path_42" data-name="Path 42" d="M1557.581,2608.035s-2.621-6.9-5.683-6.268a20.934,20.934,0,0,0-6.411,2.984l-4.918,6.651s13.807,5.439,18.662,2.322a106.245,106.245,0,0,0,31.911-.485,69.811,69.811,0,0,1-5.017-15.122C1577.106,2603.224,1567.391,2607.037,1557.581,2608.035Z" transform="translate(-1540.569 -2557.989)" fill="#feb4b3"/>
          <path id="Path_43" data-name="Path 43" d="M1981,2250.818s-20.191,25.431-46.157,40.129a69.8,69.8,0,0,0,5.017,15.122c13.47-2.21,29.059-7.485,42.276-19.207Z" transform="translate(-1889.289 -2250.818)" fill="#739af0"/>
        </g>
        <path id="Path_44" data-name="Path 44" d="M1024.608,2279.923l1.254,33.667a92.509,92.509,0,0,0,10.178,2.89c2.019-6.5,6.465-14.479,10.106-20.411C1032.77,2291.341,1024.608,2279.923,1024.608,2279.923Z" transform="translate(-960.801 -2223.436)" fill="#517cdd"/>
        <path id="Path_45" data-name="Path 45" d="M1178.891,2274.966c-18.348,19.81-33.2,20.976-45.242,16.719-3.641,5.932-8.086,13.91-10.106,20.411,49,10.8,60.536-34.242,60.536-34.242Z" transform="translate(-1048.305 -2219.052)" fill="#f48f8f"/>
        <path id="Path_46" data-name="Path 46" d="M1634.756,2238.969a6.721,6.721,0,0,1,6.025-1.556c3.912.713,7.394,2.072,9.831,0s3.294.709,3.294.709l-7.3,5.548Z" transform="translate(-1500.449 -2185.158)" fill="url(#linear-gradient)"/>
        <path id="Path_47" data-name="Path 47" d="M1596.978,2249.738s1.448-6.055,5.813-5.225,14.272,6.218,16.825,5.225,5.818-3.368,7.494-2.529l-2.951,3.668s7.585-4.376,8.891-1.687l-12.622,7.1S1601.963,2254.445,1596.978,2249.738Z" transform="translate(-1467.036 -2192.048)" fill="#f48f8f"/>
        <path id="Path_48" data-name="Path 48" d="M472.677,2326.686s-6.26-89.379,39.379-117.171c0,0,12.759-8.424,28.659,7.89s10.779,33.261-2.564,49.145-26.933,44.256-23.7,60.137Z" transform="translate(-472.387 -2159.24)" fill="#739af0"/>
        <path id="Path_49" data-name="Path 49" d="M898.349,2015.459c-.012,1.066-15.21,22.652-15.21,22.652s2.728,5.372,15.751,9.734l11.241-23.113Z" transform="translate(-835.678 -1989.53)" fill="#f48f8f"/>
        <path id="Path_50" data-name="Path 50" d="M963.046,2517.635s28.834,24.148,59.97,13.611a7.413,7.413,0,0,1,5.845.441l8.951,4.727a7.991,7.991,0,0,0,10.59-2.965,16.814,16.814,0,0,0,2.516-6.732l-17.515-7.091,1.291-2.147s-8.552-.725-10.79,5.4c0,0-16.289,6.775-43.758-23.439C980.147,2499.444,967.682,2510.043,963.046,2517.635Z" transform="translate(-906.352 -2417.592)" fill="#f48f8f"/>
        <path id="Path_51" data-name="Path 51" d="M809.016,2482.7a.636.636,0,0,1-.357-.109c-12.176-8.227-17.9-21.506-17.961-21.639a.638.638,0,0,1,1.175-.5c.055.13,5.646,13.071,17.5,21.08a.638.638,0,0,1-.358,1.167Z" transform="translate(-753.874 -2382.764)" fill="#517cdd"/>
        <path id="Path_52" data-name="Path 52" d="M861.987,2284.558a.637.637,0,0,1-.537-.292c-.037-.057-3.748-5.835-10.815-18.489-2.152-3.854-4.977-6.293-8.4-7.25-5.67-1.587-11.139,1.456-11.194,1.487a.638.638,0,0,1-.63-1.109c.241-.137,5.969-3.334,12.157-1.61,3.763,1.05,6.851,3.695,9.177,7.86,7.044,12.613,10.737,18.363,10.773,18.42a.638.638,0,0,1-.536.984Z" transform="translate(-788.762 -2202.971)" fill="#517cdd"/>
        <g id="Group_17" data-name="Group 17" transform="translate(43.246)">
          <path id="Path_53" data-name="Path 53" d="M952.313,1908.408s5.408,12.422,5.771,18.942,1.768,10.751-5.771,12.064-13.89-2.443-17.33-8.937c0,0-5.391-10.008-4.181-14.106S952.313,1908.408,952.313,1908.408Z" transform="translate(-920.923 -1894.848)" fill="#f48f8f"/>
          <path id="Path_54" data-name="Path 54" d="M863.294,1822.011l.429-.189a1.035,1.035,0,0,0,.506-1.421c-1.063-2.054-3.135-6.761-.458-7.859,3.45-1.415,17.118-4.2,20.066-9.052,2.834-4.661.323-10.677-3.451-12.389a.52.52,0,0,0-.68.222l-.314.6a.512.512,0,0,1-.945-.1h0a.51.51,0,0,0-.923-.132c-.906,1.451-3.354,3.8-9.9,5.011-9.3,1.716-15.449,5.48-15.6,11.907a.513.513,0,0,1-.793.423c-.687-.418-1.786-.615-3.254.62-2.554,2.148-1.509,7.719,4.09,12.3a.509.509,0,0,1-.024.82c-1.015.661-2.528,2.233,1.393,4.329,4.056,2.168,7.084,1.99,8.25,1.8a.51.51,0,0,0,.414-.616l-1.245-5.648a.512.512,0,0,1,.5-.623Z" transform="translate(-846.658 -1791.052)" fill="#0d5d6c"/>
          <path id="Path_55" data-name="Path 55" d="M940.664,2022.582s-2.063-7.935-5.621-5.71,1.846,8.891,4.706,9.188Z" transform="translate(-923.794 -1990.431)" fill="#f48f8f"/>
        </g>
        <path id="Path_56" data-name="Path 56" d="M1532.648,2734.362s7.327,7.167,8.741,6.124a25.793,25.793,0,0,0,3-3.221,3.145,3.145,0,0,0,.214-3.706l-1.728-2.667a5,5,0,0,0-7.457-1.086A9.053,9.053,0,0,0,1532.648,2734.362Z" transform="translate(-1410.139 -2620.266)" fill="#feb4b3"/>
        <path id="Path_57" data-name="Path 57" d="M2337.39,2334.712s-.9-33.518-19.622-66.77a53.294,53.294,0,0,1-6.113-34.3l2.051-13.249s25.7-8.695,54.177-.366c0,0,39.492,31.318,13.1,114.688Z" transform="translate(-2098.567 -2167.266)" fill="#739af0"/>
        <path id="Path_58" data-name="Path 58" d="M2372.171,2071.923l6.663,16.007a3.19,3.19,0,0,0,2.41,1.917c3.842.659,13.132,1.688,19.234-2.324a1.55,1.55,0,0,0,.415-2.18l-12.309-17.672Z" transform="translate(-2152.658 -2035.707)" fill="#feb4b3"/>
        <g id="Group_18" data-name="Group 18" transform="translate(234.842 90.478)">
          <path id="Path_59" data-name="Path 59" d="M2505.946,2610.9a1.479,1.479,0,0,0-.935,2.115l19.275,36.96a1.479,1.479,0,0,0,1.722.737l63.051-18.2a1.48,1.48,0,0,0,1.011-1.832l-10.861-37.6a1.479,1.479,0,0,0-1.8-1.02Z" transform="translate(-2504.843 -2589.935)" fill="#7d97f4"/>
          <path id="Path_60" data-name="Path 60" d="M2540.478,2590.717a1.549,1.549,0,0,0-1.094,2.041l15.429,41.913a1.548,1.548,0,0,0,1.883.953l62.86-18.149a1.548,1.548,0,0,0,1.084-1.815l-8.711-40.339a1.548,1.548,0,0,0-1.872-1.179Z" transform="translate(-2535.308 -2574.099)" fill="#bdd0fb"/>
          <path id="Path_61" data-name="Path 61" d="M2584.518,2607.949a1.914,1.914,0,0,0-1.577,2.324l10.48,45.246a1.914,1.914,0,0,0,2.4,1.407l61.908-17.875a1.914,1.914,0,0,0,1.323-2.316l-9.521-36.934a1.914,1.914,0,0,0-2.141-1.414Z" transform="translate(-2573.873 -2595.562)" fill="url(#linear-gradient-2)"/>
        </g>
        <path id="Path_62" data-name="Path 62" d="M2725.97,2339.172c4.805-36.3-23.166-64.206-23.166-64.206l-16.642,19.4c12.635,15.749,18.641,30.18,21.385,41.515C2711.185,2334.823,2719.946,2333.149,2725.97,2339.172Z" transform="translate(-2430.369 -2219.052)" fill="#739af0"/>
        <path id="Path_63" data-name="Path 63" d="M2704.29,2481.56a.425.425,0,0,1-.413-.325c-3.4-14.059-10.571-27.971-21.3-41.349a.425.425,0,0,1,.664-.532c10.811,13.476,18.033,27.5,21.466,41.681a.425.425,0,0,1-.313.513A.419.419,0,0,1,2704.29,2481.56Z" transform="translate(-2427.112 -2364.304)" fill="#517cdd"/>
        <path id="Path_64" data-name="Path 64" d="M2741.229,2794.15a66.681,66.681,0,0,1,1.894,22.148,2.922,2.922,0,0,1-2.7,2.619c-1.612.113-3.805.261-5.766.374-2.155.124-4.546-1.238-6.146-2.376a.962.962,0,0,0-1.417,1.216c1.193,2.336,4.223,4.414,6.311,5.636a1,1,0,0,1-.23,1.82l-8.929,2.531c14.672,13.823,24.359-1.643,24.359-1.643a69.976,69.976,0,0,0,11.049-29.036C2753.628,2791.417,2744.868,2793.091,2741.229,2794.15Z" transform="translate(-2464.052 -2677.32)" fill="#feb4b3"/>
        <g id="Group_19" data-name="Group 19" transform="translate(210.964 1.489)">
          <path id="Path_65" data-name="Path 65" d="M2341.409,1885.874c-.28.263-11.809,22.9-11.809,22.9l13.068,6.309,14.116-19.836S2346.094,1881.465,2341.409,1885.874Z" transform="translate(-2325.97 -1875.637)" fill="#feb4b3"/>
          <path id="Path_66" data-name="Path 66" d="M2323.058,1825.931l-6.518,10.865a2.029,2.029,0,0,1-.357.445c-.776.722-3.43,2.823-5.482-.037-1.749-2.437-3.39-4.653-5.149-5.567a2.083,2.083,0,0,0-2.812.926,77.731,77.731,0,0,0-4.461,10.581,2.075,2.075,0,0,0,1.207,2.544,57.8,57.8,0,0,0,12.517,3.651,2.084,2.084,0,0,0,1.971-.838c2-2.735,7.624-10.379,9.545-12.292,1.784-1.777,5.078-1.107,6.561-.681a2.1,2.1,0,0,0,1.665-.219c1.506-.907,4.133-3.165,1.729-6.988a2.087,2.087,0,0,1,.645-2.834c1.681-1.106,3.505-3.181,1.767-6.542a6.5,6.5,0,0,0-7.041-3.447,2.164,2.164,0,0,1-2.271-1.263,1.379,1.379,0,0,0-1.076-.847,2.023,2.023,0,0,1-1.637-2.376,5.339,5.339,0,0,0-2.981-6.117c-5.638-3.1-10.577,1.951-11.833,6.215s5.048,7.277,9.014,7.78c2.913.369,4.51,3.548,5.153,5.21A2.088,2.088,0,0,1,2323.058,1825.931Z" transform="translate(-2298.183 -1803.936)" fill="#0d5d6c"/>
          <path id="Path_67" data-name="Path 67" d="M2496.266,2063.612s2.507-7.336,5.716-7.067,5.735,3.467,1.758,7.061C2498.793,2068.077,2496.266,2063.612,2496.266,2063.612Z" transform="translate(-2473.378 -2027.351)" fill="#feb4b3"/>
        </g>
      </g>
      <g id="Group_21" data-name="Group 21" transform="translate(103.386 128.267)">
        <path id="Path_68" data-name="Path 68" d="M1370.753,1934.428l.965,30.008a9.764,9.764,0,0,0,9.722,9.428l71.86.424a7.044,7.044,0,0,0,7.023-6c1.124-7.578,2.555-21.137.943-33.864Z" transform="translate(-1369.164 -1891.753)" fill="#ff7f75"/>
        <path id="Path_69" data-name="Path 69" d="M1467.047,1970.931a.214.214,0,0,1-.008-.429,6.516,6.516,0,0,0,1.233-.165.215.215,0,0,1,.1.418,6.988,6.988,0,0,1-1.314.175Zm-3-.011h0l-1.287-.008a.214.214,0,0,1,0-.429h0l1.287.007a.214.214,0,0,1,0,.429Zm-4.289-.025h0l-1.286-.008a.214.214,0,0,1,0-.429h0l1.286.008a.214.214,0,0,1,0,.429Zm-4.288-.026h0l-1.287-.007a.215.215,0,0,1,0-.429h0l1.287.008a.214.214,0,0,1,0,.429Zm-4.289-.025h0l-1.287-.007a.214.214,0,0,1-.213-.216.226.226,0,0,1,.216-.213l1.287.008a.214.214,0,0,1,0,.429Zm-4.289-.025h0l-1.286-.007a.214.214,0,0,1,0-.429h0l1.286.008a.214.214,0,0,1,0,.429Zm-4.288-.026h0l-1.287-.008a.214.214,0,0,1,0-.429h0l1.287.008a.214.214,0,0,1,0,.429Zm-4.289-.025h0l-1.287-.008a.214.214,0,0,1,0-.429h0l1.286.007a.214.214,0,0,1,0,.429Zm-4.288-.025h0l-1.286-.007a.214.214,0,0,1,0-.429h0l1.287.008a.214.214,0,0,1,0,.429Zm-4.289-.026h0l-1.287-.007a.214.214,0,0,1,0-.429h0l1.287.007a.214.214,0,0,1,0,.429Zm-4.289-.025h0l-1.287-.007a.214.214,0,0,1,0-.429h0l1.287.008a.214.214,0,0,1,0,.429Zm-4.288-.025h0l-1.287-.007a.214.214,0,0,1,0-.429h0l1.287.008a.214.214,0,0,1,0,.429Zm-4.289-.026h0l-1.286-.008a.214.214,0,0,1,0-.429h0l1.287.008a.214.214,0,0,1,0,.429Zm-4.289-.025h0l-1.287-.008a.214.214,0,0,1,0-.429h0l1.286.007a.214.214,0,0,1,0,.429Zm-4.288-.025h0l-1.286-.007a.215.215,0,0,1-.213-.216.237.237,0,0,1,.216-.213l1.287.007a.214.214,0,0,1,0,.429Zm-4.289-.026h0l-1.287-.007a.214.214,0,0,1,0-.429h0l1.287.007a.214.214,0,0,1,0,.429Zm-4.289-.025h0l-1.286-.007a.214.214,0,0,1,0-.429h0l1.286.008a.214.214,0,0,1,0,.429Zm-4.238-.479a.208.208,0,0,1-.067-.011,9.453,9.453,0,0,1-1.217-.5.214.214,0,1,1,.19-.385,9.155,9.155,0,0,0,1.162.476.214.214,0,0,1-.067.418Zm75.521-.6a.214.214,0,0,1-.134-.382,6.527,6.527,0,0,0,.892-.866.214.214,0,1,1,.327.278,6.961,6.961,0,0,1-.951.923A.214.214,0,0,1,1471,1969.462Zm-79.143-1.62a.212.212,0,0,1-.151-.062,9.564,9.564,0,0,1-.869-.987.214.214,0,1,1,.34-.26,9.225,9.225,0,0,0,.83.943.214.214,0,0,1-.151.367Zm81.437-1.915a.218.218,0,0,1-.054-.007.214.214,0,0,1-.154-.261,6.484,6.484,0,0,0,.136-.674l.083-.569a.214.214,0,1,1,.424.061l-.084.571a6.917,6.917,0,0,1-.146.718A.214.214,0,0,1,1473.293,1965.927Zm-83.7-1.686a.214.214,0,0,1-.2-.145,9.341,9.341,0,0,1-.336-1.272.214.214,0,0,1,.421-.08,8.966,8.966,0,0,0,.32,1.214.215.215,0,0,1-.134.272A.221.221,0,0,1,1389.6,1964.24Zm84.32-2.556-.027,0a.214.214,0,0,1-.186-.239q.077-.623.153-1.276a.214.214,0,1,1,.426.05q-.076.654-.153,1.279A.214.214,0,0,1,1473.917,1961.684Zm-84.856-1.677a.214.214,0,0,1-.214-.208l-.042-1.286a.214.214,0,0,1,.207-.221.219.219,0,0,1,.221.208l.042,1.286a.214.214,0,0,1-.207.221Zm85.325-2.587h-.021a.214.214,0,0,1-.193-.234q.06-.63.117-1.28a.218.218,0,0,1,.232-.2.214.214,0,0,1,.195.232q-.057.651-.117,1.284A.214.214,0,0,1,1474.385,1957.421Zm-85.463-1.7a.215.215,0,0,1-.214-.208l-.041-1.286a.214.214,0,0,1,.207-.221.217.217,0,0,1,.221.208l.041,1.286a.214.214,0,0,1-.207.221Zm85.809-2.576h-.015a.215.215,0,0,1-.2-.228q.042-.634.079-1.282a.214.214,0,0,1,.428.024q-.036.649-.079,1.287A.215.215,0,0,1,1474.732,1953.146Zm-85.947-1.711a.214.214,0,0,1-.214-.208l-.041-1.286a.214.214,0,1,1,.428-.013l.041,1.286a.214.214,0,0,1-.207.221Zm86.162-2.573h-.007a.215.215,0,0,1-.207-.222q.022-.638.037-1.284a.23.23,0,0,1,.219-.209.215.215,0,0,1,.209.219q-.015.649-.038,1.288A.214.214,0,0,1,1474.947,1948.862Zm-86.3-1.713a.214.214,0,0,1-.214-.208l-.041-1.286a.214.214,0,0,1,.207-.221.225.225,0,0,1,.221.208l.041,1.286a.215.215,0,0,1-.207.221Zm86.372-2.575a.214.214,0,0,1-.214-.214q0-.64-.009-1.284a.215.215,0,0,1,.212-.217.226.226,0,0,1,.217.212q.008.647.009,1.289a.214.214,0,0,1-.214.215Zm-86.51-1.711a.214.214,0,0,1-.214-.208l-.042-1.286a.214.214,0,0,1,.207-.221.227.227,0,0,1,.221.208l.041,1.286a.214.214,0,0,1-.207.221Zm86.419-2.576a.214.214,0,0,1-.214-.206q-.027-.64-.062-1.282a.214.214,0,1,1,.428-.023q.036.644.062,1.288a.215.215,0,0,1-.205.223Zm-86.557-1.711a.214.214,0,0,1-.214-.208l-.041-1.286a.214.214,0,0,1,.207-.221.219.219,0,0,1,.221.208l.042,1.285a.214.214,0,0,1-.207.222Zm86.282-2.569a.214.214,0,0,1-.214-.2q-.057-.639-.123-1.277a.214.214,0,0,1,.427-.044q.067.641.124,1.284a.214.214,0,0,1-.194.232Zm-86.42-1.718a.215.215,0,0,1-.214-.208l-.041-1.286a.214.214,0,0,1,.207-.221.227.227,0,0,1,.221.208l.041,1.286a.214.214,0,0,1-.207.221Zm84.83-1.286h-1.287a.214.214,0,0,1,0-.429h1.287a.214.214,0,1,1,0,.429Zm-4.289,0h-1.287a.214.214,0,0,1,0-.429h1.287a.214.214,0,0,1,0,.429Zm-4.289,0H1463.2a.214.214,0,1,1,0-.429h1.287a.214.214,0,1,1,0,.429Zm-4.289,0h-1.287a.214.214,0,1,1,0-.429h1.287a.214.214,0,1,1,0,.429Zm-4.289,0h-1.287a.214.214,0,0,1,0-.429h1.287a.214.214,0,1,1,0,.429Zm-4.289,0h-1.287a.214.214,0,0,1,0-.429h1.287a.214.214,0,1,1,0,.429Zm-4.289,0h-1.287a.214.214,0,1,1,0-.429h1.287a.214.214,0,1,1,0,.429Zm-4.289,0h-1.287a.214.214,0,0,1,0-.429h1.287a.214.214,0,0,1,0,.429Zm-4.289,0h-1.287a.214.214,0,1,1,0-.429h1.287a.214.214,0,0,1,0,.429Zm-4.289,0h-1.287a.214.214,0,0,1,0-.429h1.287a.214.214,0,1,1,0,.429Zm-4.289,0h-1.287a.214.214,0,1,1,0-.429h1.287a.214.214,0,1,1,0,.429Zm-4.289,0H1424.6a.214.214,0,1,1,0-.429h1.287a.214.214,0,0,1,0,.429Zm-4.289,0h-1.287a.214.214,0,1,1,0-.429h1.287a.214.214,0,0,1,0,.429Zm-4.289,0h-1.287a.214.214,0,0,1,0-.429h1.287a.214.214,0,1,1,0,.429Zm-4.289,0h-1.286a.214.214,0,1,1,0-.429h1.286a.214.214,0,1,1,0,.429Zm-4.289,0h-1.287a.214.214,0,0,1,0-.429h1.287a.214.214,0,0,1,0,.429Zm-4.289,0h-1.287a.214.214,0,1,1,0-.429h1.287a.214.214,0,0,1,0,.429Zm-4.289,0h-1.287a.214.214,0,0,1,0-.429h1.287a.214.214,0,1,1,0,.429Zm-4.289,0h-1.286a.214.214,0,1,1,0-.429h1.286a.214.214,0,1,1,0,.429Zm-4.289,0h-1.286a.214.214,0,1,1,0-.429h1.286a.214.214,0,0,1,0,.429Z" transform="translate(-1384.398 -1890.113)" fill="#fff"/>
        <path id="Path_70" data-name="Path 70" d="M1553.015,1717.305l.216-2.314a1.779,1.779,0,0,1,1.349-1.039c2.239-.356,7.791-.983,10.464,1.015l.4,2.689Z" transform="translate(-1530.366 -1696.415)" fill="#ff7f75"/>
        <path id="Path_71" data-name="Path 71" d="M1593.511,1660.762a3.21,3.21,0,0,1-1.549,0,1.4,1.4,0,0,1-1.067-1.356v-7.247h3.688v7.241A1.4,1.4,0,0,1,1593.511,1660.762Z" transform="translate(-1563.868 -1642.098)" fill="#ff7f75"/>
        <path id="Path_72" data-name="Path 72" d="M1862.157,1717.305l.216-2.314a1.779,1.779,0,0,1,1.35-1.039c2.239-.356,7.791-.983,10.464,1.015l.4,2.689Z" transform="translate(-1803.788 -1696.415)" fill="#ff7f75"/>
        <path id="Path_73" data-name="Path 73" d="M1902.653,1654.917a3.21,3.21,0,0,1-1.549,0,1.4,1.4,0,0,1-1.068-1.355v-8.01h3.688v8A1.4,1.4,0,0,1,1902.653,1654.917Z" transform="translate(-1837.29 -1636.254)" fill="#ff7f75"/>
        <path id="Path_74" data-name="Path 74" d="M1572.982,1576.931l39.661-1.313a1.912,1.912,0,0,0,1.827-1.569,16.164,16.164,0,0,0,.123-5.027,4.575,4.575,0,0,0-4.434-3.872c-7.4-.176-26.234-.171-36.615,3.936a3.625,3.625,0,0,0-2.19,2.516,8.794,8.794,0,0,0-.095,4.027A1.707,1.707,0,0,0,1572.982,1576.931Z" transform="translate(-1546.331 -1565.094)" fill="#ff7f75"/>
        <path id="Path_75" data-name="Path 75" d="M1578.2,1592.26a.429.429,0,0,1-.426-.386,9.593,9.593,0,0,1,.245-3.081,3.563,3.563,0,0,1,2.426-2.466,43.856,43.856,0,0,1,9.946-1.858.429.429,0,0,1,.024.858,42.95,42.95,0,0,0-9.728,1.823,2.7,2.7,0,0,0-1.84,1.867,8.809,8.809,0,0,0-.219,2.77.429.429,0,0,1-.384.47Z" transform="translate(-1552.232 -1582.23)" fill="#fff" opacity="0.7"/>
        <path id="Path_76" data-name="Path 76" d="M1361.246,1736.485c12.813-.164,68.243-.746,84.344,1.2a3.278,3.278,0,0,1,2.818,2.539,108.26,108.26,0,0,1,2.639,24.2,2.87,2.87,0,0,1-2.35,2.737l-36.753,6.953h-13.055l-39.161-7.784a3.062,3.062,0,0,1-2.469-2.843c-.255-4.983-.652-16.674.7-24.2A3.389,3.389,0,0,1,1361.246,1736.485Z" transform="translate(-1356.998 -1716.496)" fill="#eb695f"/>
        <path id="Path_77" data-name="Path 77" d="M1421.809,1793.753a.208.208,0,0,1-.042,0l-1.262-.251a.214.214,0,1,1,.084-.421l1.251.249.029,0h1.287a.214.214,0,1,1,0,.429h-1.287l-.03,0Zm9.923,0h-1.287a.214.214,0,0,1,0-.429h1.287a.214.214,0,0,1,0,.429Zm-4.289,0h-1.287a.214.214,0,1,1,0-.429h1.287a.214.214,0,0,1,0,.429Zm7.282-.089a.214.214,0,0,1-.04-.425l1.264-.239a.214.214,0,0,1,.08.421l-1.264.239A.224.224,0,0,1,1434.726,1793.664Zm-17.123-.747a.208.208,0,0,1-.042,0l-1.262-.251a.214.214,0,1,1,.084-.421l1.262.251a.214.214,0,0,1-.042.425Zm21.337-.05a.215.215,0,0,1-.039-.425l1.264-.239a.214.214,0,1,1,.08.421l-1.264.239A.226.226,0,0,1,1438.94,1792.867Zm-25.543-.786a.218.218,0,0,1-.042,0l-1.262-.251a.214.214,0,1,1,.084-.421l1.262.251a.214.214,0,0,1-.042.425Zm29.757-.011a.214.214,0,0,1-.04-.425l1.264-.239a.214.214,0,0,1,.08.421l-1.264.239A.2.2,0,0,1,1443.154,1792.07Zm4.214-.8a.214.214,0,0,1-.04-.425l1.264-.239a.214.214,0,1,1,.08.421l-1.264.239A.214.214,0,0,1,1447.368,1791.273Zm-38.178-.028a.2.2,0,0,1-.042,0l-1.262-.251a.214.214,0,0,1,.084-.421l1.262.251a.214.214,0,0,1-.042.425Zm42.392-.769a.214.214,0,0,1-.04-.425l1.264-.239a.214.214,0,0,1,.08.421l-1.264.239A.21.21,0,0,1,1451.582,1790.476Zm-46.6-.067a.206.206,0,0,1-.042,0l-1.262-.25a.214.214,0,1,1,.083-.421l1.262.251a.214.214,0,0,1-.042.425Zm50.812-.73a.214.214,0,0,1-.039-.425l1.264-.239a.214.214,0,0,1,.08.421l-1.264.239A.221.221,0,0,1,1455.8,1789.678Zm-55.018-.106a.208.208,0,0,1-.042,0l-1.262-.251a.214.214,0,0,1,.084-.421l1.262.251a.214.214,0,0,1-.042.425Zm59.232-.691a.214.214,0,0,1-.04-.425l1.264-.239a.214.214,0,0,1,.08.421l-1.264.239A.224.224,0,0,1,1460.009,1788.881Zm-63.438-.145a.215.215,0,0,1-.042,0l-1.262-.251a.214.214,0,1,1,.084-.421l1.262.251a.214.214,0,0,1-.042.425Zm67.652-.653a.214.214,0,0,1-.04-.425l1.264-.239a.214.214,0,0,1,.079.421l-1.264.239A.223.223,0,0,1,1464.223,1788.084Zm-71.859-.183a.2.2,0,0,1-.042,0l-1.262-.251a.214.214,0,0,1,.084-.421l1.262.251a.214.214,0,0,1-.042.425Zm76.073-.614a.214.214,0,0,1-.039-.425l1.264-.239a.214.214,0,1,1,.079.421l-1.264.239A.227.227,0,0,1,1468.437,1787.287Zm-80.279-.222a.207.207,0,0,1-.042,0l-1.262-.251a.214.214,0,1,1,.084-.421l1.262.251a.214.214,0,0,1-.042.425Zm-4.206-.836a.218.218,0,0,1-.042,0l-1.09-.217-.026-.51a.214.214,0,0,1,.2-.224.2.2,0,0,1,.224.2l.009.175.762.152a.214.214,0,0,1-.042.425Zm86.55-1.526a.215.215,0,0,1-.214-.212q-.008-.643-.027-1.282a.215.215,0,0,1,.208-.221.223.223,0,0,1,.22.208q.019.643.027,1.29a.215.215,0,0,1-.212.217Zm-87.617-2a.214.214,0,0,1-.214-.207c-.014-.413-.027-.843-.039-1.287a.215.215,0,0,1,.208-.22.226.226,0,0,1,.22.208c.012.444.025.873.039,1.285a.215.215,0,0,1-.207.221Zm87.448-2.283a.215.215,0,0,1-.214-.2q-.042-.645-.092-1.281a.215.215,0,0,1,.428-.034q.05.639.092,1.287a.215.215,0,0,1-.2.228Zm-87.546-2a.214.214,0,0,1-.214-.212c0-.423-.008-.853-.01-1.288a.214.214,0,0,1,.214-.215h0a.214.214,0,0,1,.214.214q0,.651.01,1.285a.214.214,0,0,1-.212.217Zm87.175-2.27a.214.214,0,0,1-.213-.191q-.07-.647-.146-1.276a.215.215,0,0,1,.187-.239.212.212,0,0,1,.239.187q.076.632.146,1.281a.214.214,0,0,1-.19.236Zm-87.169-2.019h0a.215.215,0,0,1-.211-.218q.01-.642.026-1.289a.219.219,0,0,1,.22-.209.214.214,0,0,1,.209.22c-.011.429-.019.858-.026,1.285A.215.215,0,0,1,1382.792,1774.125Zm86.625-2.236a.214.214,0,0,1-.212-.183q-.1-.65-.194-1.27a.214.214,0,1,1,.423-.067q.1.622.195,1.275a.215.215,0,0,1-.181.243Zm-86.485-2.051h-.011a.214.214,0,0,1-.2-.225q.034-.648.076-1.287a.211.211,0,0,1,.228-.2.215.215,0,0,1,.2.228q-.042.636-.076,1.281A.215.215,0,0,1,1382.932,1769.837Zm85.786-2.182a.214.214,0,0,1-.211-.176q-.122-.664-.239-1.262a.214.214,0,1,1,.421-.082q.117.6.239,1.267a.215.215,0,0,1-.172.25A.252.252,0,0,1,1468.718,1767.655Zm-85.45-2.093h-.024a.215.215,0,0,1-.19-.237q.072-.655.157-1.283a.21.21,0,0,1,.241-.183.214.214,0,0,1,.184.241q-.084.622-.156,1.272A.215.215,0,0,1,1383.268,1765.562Zm84.418-1.94h-.025q-.6-.07-1.275-.137a.215.215,0,0,1-.193-.234.217.217,0,0,1,.234-.193q.684.068,1.283.138a.214.214,0,0,1-.025.427Zm-4.271-.386h-.016q-.618-.045-1.282-.087a.215.215,0,0,1,.027-.428q.665.042,1.285.087a.215.215,0,0,1-.015.428Zm-4.281-.256h-.011q-.627-.032-1.284-.062a.214.214,0,1,1,.02-.428q.658.03,1.286.062a.214.214,0,0,1-.011.429Zm-4.285-.188h-.008l-1.285-.047a.215.215,0,0,1-.207-.222.223.223,0,0,1,.222-.207l1.287.046a.215.215,0,0,1-.008.429Zm-4.287-.143h-.006l-1.286-.036a.215.215,0,0,1-.208-.22.208.208,0,0,1,.22-.208l1.287.036a.215.215,0,0,1-.006.429Zm-4.287-.111h-.005l-1.286-.029a.214.214,0,0,1,0-.429h0l1.287.028a.215.215,0,0,1,0,.429Zm-4.288-.086h0l-1.286-.022a.214.214,0,0,1,0-.429h0l1.287.022a.214.214,0,0,1,0,.429Zm-57.05,0a.214.214,0,0,1,0-.429l1.288-.016h0a.214.214,0,0,1,0,.429l-1.287.015Zm4.291-.049a.214.214,0,0,1,0-.429l1.287-.013h0a.214.214,0,0,1,0,.429l-1.287.013Zm48.47-.018h0l-1.286-.017a.214.214,0,0,1,0-.429h0l1.287.017a.214.214,0,0,1,0,.429Zm-44.18-.023a.214.214,0,0,1,0-.429l1.287-.011h0a.214.214,0,0,1,0,.429l-1.287.011Zm39.891-.027h0l-1.286-.012a.214.214,0,0,1,0-.429h0l1.287.012a.214.214,0,0,1,0,.429Zm-35.6-.008a.214.214,0,0,1,0-.429l1.287-.009h0a.214.214,0,0,1,0,.429l-1.287.009Zm31.313-.029h0l-1.286-.008a.214.214,0,0,1,0-.429h0l1.287.008a.214.214,0,0,1,0,.429Zm-27.022,0a.214.214,0,0,1,0-.429l1.287-.007h0a.214.214,0,0,1,0,.429l-1.287.007Zm4.29-.021a.214.214,0,0,1,0-.429l1.287-.005h0a.214.214,0,0,1,0,.429l-1.287,0Zm18.443,0h0l-1.287-.005a.214.214,0,0,1,0-.429h0l1.287.005a.214.214,0,0,1,0,.429Zm-14.154-.011a.214.214,0,0,1,0-.429l1.287,0a.214.214,0,1,1,0,.429l-1.287,0Zm9.865,0h0l-1.287,0a.214.214,0,0,1,0-.429h0l1.287,0a.214.214,0,0,1,0,.429Zm-5.575,0a.214.214,0,0,1,0-.429h1.283a.216.216,0,0,1,.216.214.212.212,0,0,1-.212.214h-1.287Z" transform="translate(-1379.608 -1739.094)" fill="#fff"/>
        <path id="Path_78" data-name="Path 78" d="M1701.556,1981.787h-11.438a2.955,2.955,0,0,1-2.939-2.6l-1.321-11.006a2.951,2.951,0,0,1,2.939-3.3h13.74a2.952,2.952,0,0,1,2.948,3.206l-.981,11.006A2.955,2.955,0,0,1,1701.556,1981.787Z" transform="translate(-1647.841 -1918.694)" fill="#b14c44"/>
        <path id="Path_79" data-name="Path 79" d="M1717.671,1994.99h-9.16a2.367,2.367,0,0,1-2.354-2.08l-1.058-8.814a2.363,2.363,0,0,1,2.354-2.639h11a2.364,2.364,0,0,1,2.361,2.568l-.786,8.815A2.366,2.366,0,0,1,1717.671,1994.99Z" transform="translate(-1664.862 -1933.348)" fill="#ff7f75"/>
      </g>
    </g>
  </g>
</svg>
