<svg xmlns="http://www.w3.org/2000/svg" xmlns:xlink="http://www.w3.org/1999/xlink" width="351.86" height="356.47" viewBox="0 0 351.86 356.47">
  <defs>
    <linearGradient id="linear-gradient" y1="0.5" x2="1" y2="0.5" gradientUnits="objectBoundingBox">
      <stop offset="0" stop-color="#6de0f6"/>
      <stop offset="0.159" stop-color="#67d7f4"/>
      <stop offset="0.414" stop-color="#59c0f0"/>
      <stop offset="0.729" stop-color="#429aea"/>
      <stop offset="1" stop-color="#2c75e4"/>
    </linearGradient>
    <linearGradient id="linear-gradient-2" x1="2.849" y1="10.477" x2="3.423" y2="9.615" gradientUnits="objectBoundingBox">
      <stop offset="0" stop-color="#267fe5"/>
      <stop offset="0.17" stop-color="#2c87e6"/>
      <stop offset="0.441" stop-color="#3d9eeb"/>
      <stop offset="0.777" stop-color="#58c4f2"/>
      <stop offset="1" stop-color="#6ee1f8"/>
    </linearGradient>
    <linearGradient id="linear-gradient-4" x1="3.392" y1="11.67" x2="3.967" y2="10.808" xlink:href="#linear-gradient-2"/>
    <linearGradient id="linear-gradient-6" x1="3.53" y1="10.98" x2="4.105" y2="10.118" xlink:href="#linear-gradient-2"/>
  </defs>
  <g id="Group_402" data-name="Group 402" transform="translate(-223.07 -2825.803)">
    <g id="Group_361" data-name="Group 361" transform="translate(223.575 2975.532)" opacity="0.8">
      <path id="Path_106" data-name="Path 106" d="M319.339,291.227,256.39,254.885c-4.476-2.584-3.914-7.1,1.254-10.081l60.44-34.894c5.167-2.984,12.985-3.308,17.461-.725l62.948,36.344c4.474,2.584,3.914,7.1-1.254,10.081L336.8,290.5C331.632,293.488,323.814,293.812,319.339,291.227Z" transform="translate(-151.722 -207.441)" fill="#0c0f38"/>
      <path id="Path_107" data-name="Path 107" d="M382.06,330.449,319.111,294.1c-4.476-2.583-3.914-7.1,1.254-10.081l60.44-34.894c5.167-2.982,12.985-3.308,17.461-.723l62.948,36.342c4.476,2.584,3.914,7.1-1.254,10.083l-60.438,34.894C394.353,332.707,386.535,333.033,382.06,330.449Z" transform="translate(-113.386 -183.469)" fill="#58ddf5" opacity="0.285"/>
      <path id="Path_108" data-name="Path 108" d="M256.25,327.235,193.3,290.893c-4.474-2.584-3.914-7.1,1.255-10.081L255,245.917c5.167-2.984,12.985-3.308,17.461-.723L335.4,281.536c4.476,2.584,3.914,7.1-1.254,10.081l-60.438,34.894C268.544,329.5,260.726,329.819,256.25,327.235Z" transform="translate(-190.281 -185.432)" fill="#58ddf5" opacity="0.28"/>
      <path id="Path_109" data-name="Path 109" d="M318.971,366.456l-62.947-36.342c-4.476-2.584-3.915-7.1,1.254-10.081l60.438-34.894c5.167-2.984,12.985-3.308,17.461-.723l62.948,36.342c4.476,2.584,3.914,7.1-1.253,10.081l-60.438,34.894C331.265,368.717,323.447,369.04,318.971,366.456Z" transform="translate(-151.945 -161.46)" fill="#58ddf5" opacity="0.28"/>
    </g>
    <g id="Group_362" data-name="Group 362" transform="translate(223.575 2826.305)">
      <g id="Group_17" data-name="Group 17" transform="translate(101.647 0)">
        <path id="Path_110" data-name="Path 110" d="M319.349,280.749,256.4,244.4c-4.476-2.584-3.915-7.1,1.254-10.081l60.438-34.894c5.167-2.984,12.985-3.308,17.461-.723L398.5,235.048c4.476,2.584,3.914,7.1-1.254,10.081l-60.438,34.894C331.643,283.008,323.825,283.331,319.349,280.749Z" transform="translate(-253.362 -64.619)" fill="#0c0f38"/>
        <g id="Group_14" data-name="Group 14" transform="translate(0 57.737)" opacity="0.5">
          <path id="Path_118" data-name="Path 118" d="M255.358,207.875h-.01V186.918h31.2l33.5-19.339c5.169-2.984,12.986-3.308,17.462-.725l34.751,20.064h29.248v-1.445H370.29L335.54,165.41c-4.476-2.584-12.294-2.261-17.461.723l-33.5,19.339h-31.2v20.959h.01c-.127,1.748.849,3.435,3,4.677l.354.2A4.392,4.392,0,0,1,255.358,207.875Z" transform="translate(-253.364 -142.708)" fill="#d4088c"/>
          <path id="Path_120" data-name="Path 120" d="M371.058,188.743,308.11,152.4a16.262,16.262,0,0,0-8.812-1.7,14.615,14.615,0,0,1,6.348,1.7l62.948,36.344c4.476,2.584,3.914,7.1-1.254,10.081L306.9,233.718a19.908,19.908,0,0,1-8.649,2.426,20.553,20.553,0,0,0,11.111-2.426l60.44-34.894C374.972,195.84,375.532,191.327,371.058,188.743Z" transform="translate(-225.934 -150.655)" fill="#6ee8fc"/>
          <path id="Path_121" data-name="Path 121" d="M320.078,221.845a12.052,12.052,0,0,1-5.913-1.361L267.3,193.427a4.394,4.394,0,0,1-2.518-3.725c0-1.727,1.258-3.445,3.451-4.711l45-25.979c3.991-2.3,10.062-2.544,13.537-.538l46.864,27.055a4.4,4.4,0,0,1,2.52,3.728c0,1.727-1.26,3.445-3.453,4.71l-45,25.979A15.669,15.669,0,0,1,320.078,221.845Zm-5.375-2.293c3.179,1.834,8.768,1.593,12.461-.538l45-25.979c1.853-1.068,2.915-2.446,2.915-3.778a3.38,3.38,0,0,0-1.982-2.8L326.229,159.4c-3.177-1.835-8.768-1.593-12.461.538l-45,25.979c-1.851,1.07-2.913,2.447-2.913,3.78a3.378,3.378,0,0,0,1.98,2.794Z" transform="translate(-246.393 -146.713)" fill="#480689"/>
          <path id="Path_122" data-name="Path 122" d="M322.163,234.444,259.214,198.1c-4.476-2.584-3.915-7.1,1.254-10.081l60.438-34.894a19.831,19.831,0,0,1,8.51-2.417,20.586,20.586,0,0,0-11.333,2.417l-60.44,34.894c-5.167,2.984-5.728,7.5-1.254,10.081l62.948,36.342a16.342,16.342,0,0,0,8.95,1.693A14.455,14.455,0,0,1,322.163,234.444Z" transform="translate(-253.368 -150.658)" fill="#0f505c"/>
        </g>
        <g id="Group_15" data-name="Group 15" transform="translate(0 28.868)">
          <path id="Path_123" data-name="Path 123" d="M401.509,167.556H370.29L335.54,147.493c-4.476-2.584-12.294-2.261-17.461.723l-33.5,19.339h-31.2v20.957h.01c-.127,1.75.849,3.437,3,4.679l62.948,36.342c4.476,2.584,12.294,2.261,17.461-.723l60.44-34.894c2.684-1.55,4.113-3.512,4.252-5.4h.023Z" transform="translate(-253.364 -124.79)" fill="#58ddf5" stroke="#0f505c" stroke-width="1"/>
          <path id="Path_124" data-name="Path 124" d="M255.358,189.958h-.01V169h31.2l33.5-19.341c5.169-2.984,12.986-3.308,17.462-.723L372.261,169h29.248v-1.445H370.29L335.54,147.491c-4.476-2.583-12.294-2.259-17.461.725l-33.5,19.339h-31.2v20.957h.01c-.127,1.75.849,3.437,3,4.679l.354.2A4.4,4.4,0,0,1,255.358,189.958Z" transform="translate(-253.364 -124.79)" fill="#d4088c"/>
          <path id="Path_125" data-name="Path 125" d="M319.339,216.527,256.39,180.185c-4.476-2.584-3.914-7.1,1.254-10.081l60.44-34.894c5.167-2.984,12.985-3.308,17.461-.725l62.948,36.344c4.474,2.583,3.914,7.1-1.254,10.081L336.8,215.8C331.632,218.788,323.814,219.112,319.339,216.527Z" transform="translate(-253.369 -132.74)" fill="#58ddf5"/>
          <path id="Path_126" data-name="Path 126" d="M371.058,170.827,308.11,134.482a16.262,16.262,0,0,0-8.812-1.7,14.639,14.639,0,0,1,6.348,1.7l62.948,36.344c4.476,2.583,3.914,7.1-1.254,10.081L306.9,215.8a19.952,19.952,0,0,1-8.649,2.426,20.553,20.553,0,0,0,11.111-2.426l60.44-34.894C374.972,177.924,375.532,173.409,371.058,170.827Z" transform="translate(-225.934 -132.738)" fill="#0f505c"/>
          <path id="Path_127" data-name="Path 127" d="M320.079,203.927a12.076,12.076,0,0,1-5.915-1.36L267.3,175.51a4.394,4.394,0,0,1-2.518-3.727c0-1.727,1.258-3.445,3.451-4.711l45-25.979c3.988-2.3,10.059-2.546,13.537-.538l46.864,27.059a4.394,4.394,0,0,1,2.52,3.725c0,1.727-1.26,3.445-3.453,4.711l-45,25.978A15.65,15.65,0,0,1,320.079,203.927Zm-5.377-2.291c3.179,1.832,8.768,1.592,12.461-.54l45-25.978c1.853-1.07,2.915-2.447,2.915-3.78a3.378,3.378,0,0,0-1.982-2.794l-46.864-27.059c-3.177-1.834-8.768-1.593-12.461.54L268.77,168c-1.851,1.07-2.913,2.447-2.913,3.78a3.378,3.378,0,0,0,1.98,2.8Z" transform="translate(-246.393 -128.795)" fill="#480689"/>
          <path id="Path_128" data-name="Path 128" d="M322.163,216.528l-62.948-36.344c-4.476-2.583-3.915-7.1,1.254-10.08l60.438-34.894a19.855,19.855,0,0,1,8.51-2.418,20.587,20.587,0,0,0-11.333,2.418L257.643,170.1c-5.167,2.982-5.728,7.5-1.254,10.08l62.948,36.344a16.342,16.342,0,0,0,8.95,1.693A14.455,14.455,0,0,1,322.163,216.528Z" transform="translate(-253.368 -132.74)" fill="#0f505c"/>
        </g>
        <g id="Group_16" data-name="Group 16">
          <path id="Path_129" data-name="Path 129" d="M401.509,149.639H370.29L335.54,129.575c-4.476-2.584-12.294-2.259-17.461.723l-33.5,19.341h-31.2V170.6h.01c-.127,1.748.849,3.437,3,4.677l62.948,36.344c4.476,2.584,12.294,2.259,17.461-.723L397.234,176c2.684-1.55,4.113-3.512,4.252-5.4h.023Z" transform="translate(-253.364 -106.873)" fill="#58ddf5" stroke="#0f505c" stroke-width="1"/>
          <path id="Path_130" data-name="Path 130" d="M255.358,172.041h-.01V151.083h31.2l33.5-19.339c5.169-2.984,12.986-3.308,17.462-.723l34.751,20.063h29.248v-1.444H370.29L335.54,129.575c-4.476-2.584-12.294-2.259-17.461.723l-33.5,19.341h-31.2V170.6h.01c-.127,1.748.849,3.437,3,4.677l.354.206A4.4,4.4,0,0,1,255.358,172.041Z" transform="translate(-253.364 -106.873)" fill="#0f505c"/>
          <path id="Path_131" data-name="Path 131" d="M319.339,198.611,256.39,162.267c-4.476-2.583-3.914-7.1,1.254-10.081l60.44-34.894c5.167-2.984,12.985-3.308,17.461-.723l62.948,36.342c4.474,2.584,3.914,7.1-1.254,10.081L336.8,197.886C331.632,200.87,323.814,201.193,319.339,198.611Z" transform="translate(-253.369 -114.823)" fill="#1c1c1c" stroke="#0f505c" stroke-width="1"/>
          <path id="Path_132" data-name="Path 132" d="M371.058,152.908,308.11,116.565a16.248,16.248,0,0,0-8.812-1.7,14.639,14.639,0,0,1,6.348,1.7l62.948,36.342c4.476,2.584,3.914,7.1-1.254,10.081L306.9,197.883a19.909,19.909,0,0,1-8.649,2.426,20.524,20.524,0,0,0,11.111-2.426l60.44-34.894C374.972,160.007,375.532,155.492,371.058,152.908Z" transform="translate(-225.934 -114.821)" fill="#6ee8fc"/>
          <path id="Path_133" data-name="Path 133" d="M320.078,186.01a12.07,12.07,0,0,1-5.913-1.36L267.3,157.591a4.389,4.389,0,0,1-2.518-3.723c0-1.729,1.258-3.446,3.451-4.713l45-25.978c3.988-2.3,10.06-2.546,13.537-.54l46.864,27.057a4.395,4.395,0,0,1,2.52,3.727c0,1.727-1.26,3.445-3.453,4.71l-45,25.979A15.651,15.651,0,0,1,320.078,186.01Zm-5.375-2.291c3.179,1.832,8.768,1.592,12.461-.54l45-25.979c1.853-1.068,2.915-2.446,2.915-3.778a3.38,3.38,0,0,0-1.982-2.8l-46.864-27.057c-3.177-1.837-8.768-1.593-12.461.54l-45,25.978c-1.851,1.07-2.913,2.447-2.913,3.78a3.374,3.374,0,0,0,1.98,2.794Z" transform="translate(-246.393 -110.877)" fill="url(#linear-gradient)"/>
          <path id="Path_134" data-name="Path 134" d="M322.163,198.611l-62.948-36.344c-4.476-2.583-3.915-7.1,1.254-10.081l60.438-34.894a19.876,19.876,0,0,1,8.51-2.417,20.6,20.6,0,0,0-11.333,2.417l-60.44,34.894c-5.167,2.984-5.728,7.5-1.254,10.081l62.948,36.344a16.328,16.328,0,0,0,8.95,1.692A14.454,14.454,0,0,1,322.163,198.611Z" transform="translate(-253.368 -114.823)" fill="#25bfec"/>
        </g>
      </g>
      <g id="Group_23" data-name="Group 23" transform="translate(202.704 63.193)">
        <g id="Group_18" data-name="Group 18" transform="translate(0 86.605)" opacity="0.846">
          <path id="Path_135" data-name="Path 135" d="M464.23,242.611H433.013l-34.752-20.063c-4.476-2.584-12.294-2.261-17.462.723l-33.5,19.339H316.1v20.957h.01c-.127,1.75.849,3.437,3,4.679l62.948,36.342c4.476,2.584,12.294,2.261,17.462-.723l60.438-34.894c2.684-1.55,4.113-3.512,4.252-5.4h.023Z" transform="translate(-316.085 -199.846)" fill="#58ddf5" stroke="#0f505c" stroke-width="1"/>
          <path id="Path_136" data-name="Path 136" d="M318.079,265.013h-.01V244.056h31.2l33.5-19.341c5.169-2.982,12.986-3.306,17.462-.723l34.751,20.064H464.23v-1.445H433.013l-34.752-20.063c-4.476-2.584-12.294-2.261-17.461.723l-33.5,19.339H316.1v20.957h.01c-.127,1.75.849,3.437,3,4.679l.354.2A4.392,4.392,0,0,1,318.079,265.013Z" transform="translate(-316.085 -199.846)" fill="#d4088c"/>
          <path id="Path_137" data-name="Path 137" d="M382.06,291.582,319.111,255.24c-4.476-2.584-3.914-7.1,1.254-10.081l60.44-34.894c5.167-2.984,12.985-3.308,17.461-.725l62.948,36.344c4.476,2.584,3.914,7.1-1.254,10.081l-60.438,34.894C394.353,293.843,386.535,294.167,382.06,291.582Z" transform="translate(-316.09 -207.796)" fill="#58ddf5" stroke="#0f505c" stroke-width="1"/>
          <path id="Path_138" data-name="Path 138" d="M433.779,245.881l-62.948-36.344a16.248,16.248,0,0,0-8.812-1.7,14.615,14.615,0,0,1,6.348,1.7l62.948,36.344c4.476,2.584,3.914,7.1-1.254,10.081l-60.438,34.894a19.929,19.929,0,0,1-8.649,2.427,20.562,20.562,0,0,0,11.112-2.427l60.438-34.894C437.693,252.978,438.255,248.465,433.779,245.881Z" transform="translate(-288.655 -207.794)" fill="#0f505c"/>
          <path id="Path_139" data-name="Path 139" d="M382.8,278.984a12.061,12.061,0,0,1-5.913-1.362l-46.864-27.057a4.392,4.392,0,0,1-2.52-3.725c0-1.729,1.26-3.445,3.453-4.711l45-25.979c3.986-2.3,10.06-2.547,13.537-.54l46.865,27.059a4.394,4.394,0,0,1,2.518,3.725c0,1.727-1.258,3.445-3.451,4.711l-45,25.979A15.7,15.7,0,0,1,382.8,278.984Zm.775-63.673a14.557,14.557,0,0,0-7.084,1.771l-45,25.979c-1.853,1.07-2.915,2.446-2.915,3.78a3.38,3.38,0,0,0,1.982,2.794l46.864,27.057c3.177,1.835,8.767,1.594,12.461-.538l45-25.979c1.851-1.07,2.913-2.447,2.913-3.78a3.376,3.376,0,0,0-1.98-2.794L388.95,216.541A10.979,10.979,0,0,0,383.574,215.31Z" transform="translate(-309.114 -203.851)" fill="#480689"/>
          <path id="Path_140" data-name="Path 140" d="M384.884,291.582,321.935,255.24c-4.476-2.584-3.915-7.1,1.254-10.081l60.438-34.894a19.831,19.831,0,0,1,8.51-2.417,20.572,20.572,0,0,0-11.333,2.417l-60.44,34.894c-5.167,2.984-5.728,7.5-1.254,10.081l62.948,36.342a16.341,16.341,0,0,0,8.95,1.693A14.456,14.456,0,0,1,384.884,291.582Z" transform="translate(-316.09 -207.796)" fill="#0f505c"/>
        </g>
        <g id="Group_19" data-name="Group 19" transform="translate(0 57.736)">
          <path id="Path_141" data-name="Path 141" d="M464.23,224.694H433.013l-34.752-20.064c-4.476-2.583-12.294-2.259-17.462.725l-33.5,19.339H316.1v20.957h.01c-.127,1.75.849,3.437,3,4.679l62.948,36.342c4.476,2.584,12.294,2.26,17.462-.723l60.438-34.894c2.684-1.55,4.113-3.512,4.252-5.4h.023Z" transform="translate(-316.085 -181.928)" fill="#58ddf5" stroke="#0f505c" stroke-width="1"/>
          <path id="Path_142" data-name="Path 142" d="M318.079,247.1h-.01V226.139h31.2l33.5-19.341c5.169-2.984,12.986-3.308,17.462-.723l34.751,20.064H464.23v-1.445H433.013l-34.752-20.064c-4.476-2.583-12.294-2.259-17.461.725l-33.5,19.339H316.1v20.957h.01c-.127,1.75.849,3.437,3,4.679l.354.2A4.4,4.4,0,0,1,318.079,247.1Z" transform="translate(-316.085 -181.928)" fill="#d4088c"/>
          <path id="Path_143" data-name="Path 143" d="M382.06,273.665l-62.948-36.344c-4.476-2.583-3.914-7.1,1.254-10.08l60.44-34.9c5.167-2.982,12.985-3.308,17.461-.723l62.948,36.342c4.476,2.584,3.914,7.1-1.254,10.083l-60.438,34.894C394.353,275.924,386.535,276.25,382.06,273.665Z" transform="translate(-316.09 -189.878)" fill="#58ddf5"/>
          <path id="Path_144" data-name="Path 144" d="M433.779,227.963,370.831,191.62a16.262,16.262,0,0,0-8.812-1.7,14.638,14.638,0,0,1,6.348,1.7l62.948,36.342c4.476,2.584,3.914,7.1-1.254,10.083L369.624,272.94a19.952,19.952,0,0,1-8.649,2.426,20.562,20.562,0,0,0,11.112-2.426l60.438-34.894C437.693,235.062,438.255,230.547,433.779,227.963Z" transform="translate(-288.655 -189.876)" fill="#0f505c"/>
          <path id="Path_145" data-name="Path 145" d="M382.8,261.065a12.065,12.065,0,0,1-5.913-1.36l-46.864-27.057a4.4,4.4,0,0,1-2.52-3.727c0-1.727,1.26-3.445,3.453-4.711l45-25.978c3.988-2.3,10.06-2.546,13.537-.54l46.865,27.057a4.394,4.394,0,0,1,2.518,3.727c0,1.727-1.258,3.445-3.451,4.711l-45,25.978A15.673,15.673,0,0,1,382.8,261.065Zm-5.375-2.291c3.18,1.834,8.77,1.59,12.461-.54l45-25.979c1.851-1.068,2.913-2.446,2.913-3.778a3.378,3.378,0,0,0-1.98-2.8L388.95,198.624c-3.179-1.834-8.767-1.592-12.461.54l-45,25.978c-1.853,1.07-2.915,2.447-2.915,3.78a3.378,3.378,0,0,0,1.982,2.794Z" transform="translate(-309.114 -185.933)" fill="#480689"/>
          <path id="Path_146" data-name="Path 146" d="M384.884,273.666l-62.948-36.344c-4.476-2.583-3.915-7.1,1.254-10.08l60.438-34.9a19.876,19.876,0,0,1,8.51-2.417,20.6,20.6,0,0,0-11.333,2.417l-60.44,34.9c-5.167,2.982-5.728,7.5-1.254,10.08l62.948,36.344a16.342,16.342,0,0,0,8.95,1.693A14.456,14.456,0,0,1,384.884,273.666Z" transform="translate(-316.09 -189.878)" fill="#0f505c"/>
        </g>
        <g id="Group_20" data-name="Group 20" transform="translate(0 28.868)">
          <path id="Path_147" data-name="Path 147" d="M464.23,206.777H433.013l-34.752-20.064c-4.476-2.584-12.294-2.259-17.462.723l-33.5,19.341H316.1v20.957h.01c-.127,1.748.849,3.437,3,4.677l62.948,36.344c4.476,2.584,12.294,2.259,17.462-.723l60.438-34.9c2.684-1.55,4.113-3.511,4.252-5.4h.023Z" transform="translate(-316.085 -164.011)" fill="#58ddf5" stroke="#0f505c" stroke-width="1"/>
          <path id="Path_148" data-name="Path 148" d="M318.079,229.179h-.01V208.221h31.2l33.5-19.339c5.169-2.984,12.986-3.308,17.462-.723l34.751,20.063H464.23v-1.444H433.013l-34.752-20.064c-4.476-2.584-12.294-2.259-17.461.723l-33.5,19.341H316.1v20.957h.01c-.127,1.748.849,3.437,3,4.677l.354.2A4.391,4.391,0,0,1,318.079,229.179Z" transform="translate(-316.085 -164.011)" fill="#943fbb"/>
          <path id="Path_149" data-name="Path 149" d="M382.06,255.749,319.111,219.4c-4.476-2.583-3.914-7.1,1.254-10.081l60.44-34.894c5.167-2.984,12.985-3.308,17.461-.723l62.948,36.342c4.476,2.584,3.914,7.1-1.254,10.081l-60.438,34.894C394.353,258.008,386.535,258.331,382.06,255.749Z" transform="translate(-316.09 -171.961)" fill="#58ddf5"/>
          <path id="Path_150" data-name="Path 150" d="M433.779,210.046,370.831,173.7a16.248,16.248,0,0,0-8.812-1.7,14.616,14.616,0,0,1,6.348,1.7l62.948,36.342c4.476,2.584,3.914,7.1-1.254,10.081l-60.438,34.894a19.909,19.909,0,0,1-8.649,2.426,20.533,20.533,0,0,0,11.112-2.426l60.438-34.894C437.693,217.143,438.255,212.63,433.779,210.046Z" transform="translate(-288.655 -171.959)" fill="#0f505c"/>
          <path id="Path_151" data-name="Path 151" d="M382.8,243.148a12.072,12.072,0,0,1-5.915-1.36l-46.864-27.057A4.395,4.395,0,0,1,327.5,211c0-1.729,1.26-3.446,3.453-4.711l45-25.979c3.986-2.3,10.06-2.546,13.537-.538l46.865,27.057a4.394,4.394,0,0,1,2.518,3.725c0,1.729-1.258,3.445-3.451,4.713l-45,25.978A15.654,15.654,0,0,1,382.8,243.148Zm-5.377-2.293c3.179,1.835,8.768,1.593,12.461-.538l45-25.979c1.851-1.07,2.913-2.447,2.913-3.78a3.378,3.378,0,0,0-1.98-2.794L388.95,180.708c-3.179-1.834-8.767-1.594-12.461.538l-45,25.979c-1.853,1.068-2.915,2.447-2.915,3.78a3.384,3.384,0,0,0,1.982,2.8Z" transform="translate(-309.114 -168.016)" fill="#480689"/>
          <path id="Path_152" data-name="Path 152" d="M384.884,255.749,321.935,219.4c-4.476-2.583-3.915-7.1,1.254-10.081l60.438-34.894a19.876,19.876,0,0,1,8.51-2.417,20.6,20.6,0,0,0-11.333,2.417l-60.44,34.894c-5.167,2.984-5.728,7.5-1.254,10.081l62.948,36.344a16.342,16.342,0,0,0,8.95,1.692A14.455,14.455,0,0,1,384.884,255.749Z" transform="translate(-316.09 -171.961)" fill="#0f505c"/>
        </g>
        <g id="Group_22" data-name="Group 22">
          <path id="Path_153" data-name="Path 153" d="M464.23,188.86H433.013L398.261,168.8c-4.476-2.584-12.294-2.261-17.462.723L347.3,188.86H316.1v20.957h.01c-.127,1.748.849,3.437,3,4.677l62.948,36.344c4.476,2.583,12.294,2.259,17.462-.725l60.438-34.894c2.684-1.55,4.113-3.512,4.252-5.4h.023Z" transform="translate(-316.085 -146.094)" fill="#58ddf5" stroke="#0f505c" stroke-width="1"/>
          <path id="Path_154" data-name="Path 154" d="M318.079,211.261h-.01V190.3h31.2l33.5-19.339c5.169-2.984,12.986-3.308,17.462-.725L434.982,190.3H464.23V188.86H433.013L398.261,168.8c-4.476-2.584-12.294-2.261-17.461.723L347.3,188.86H316.1v20.957h.01c-.127,1.748.849,3.437,3,4.677l.354.2A4.392,4.392,0,0,1,318.079,211.261Z" transform="translate(-316.085 -146.094)" fill="#0c8095"/>
          <path id="Path_155" data-name="Path 155" d="M382.06,237.83l-62.948-36.342c-4.476-2.584-3.914-7.1,1.254-10.081l60.44-34.894c5.167-2.984,12.985-3.308,17.461-.723l62.948,36.342c4.476,2.584,3.914,7.1-1.254,10.081l-60.438,34.894C394.353,240.091,386.535,240.414,382.06,237.83Z" transform="translate(-316.09 -154.044)" fill="url(#linear-gradient-2)"/>
          <path id="Path_156" data-name="Path 156" d="M433.779,192.129l-62.948-36.342a16.248,16.248,0,0,0-8.812-1.7,14.593,14.593,0,0,1,6.348,1.7l62.948,36.342c4.476,2.584,3.914,7.1-1.254,10.081L369.624,237.1a19.908,19.908,0,0,1-8.649,2.426,20.547,20.547,0,0,0,11.112-2.426l60.438-34.894C437.693,199.226,438.255,194.713,433.779,192.129Z" transform="translate(-288.655 -154.042)" fill="#6ee8fc"/>
          <path id="Path_157" data-name="Path 157" d="M382.8,225.231a12.065,12.065,0,0,1-5.913-1.36l-46.864-27.059a4.4,4.4,0,0,1-2.52-3.725c0-1.729,1.26-3.445,3.453-4.711l45-25.979c3.988-2.3,10.06-2.546,13.537-.538l46.865,27.057a4.394,4.394,0,0,1,2.518,3.725c0,1.727-1.258,3.445-3.451,4.711l-45,25.979A15.673,15.673,0,0,1,382.8,225.231Zm-5.375-2.293c3.177,1.835,8.767,1.593,12.461-.538l45-25.979c1.851-1.07,2.913-2.447,2.913-3.78a3.378,3.378,0,0,0-1.98-2.794L388.95,162.79c-3.179-1.835-8.767-1.593-12.461.538l-45,25.979c-1.853,1.068-2.915,2.447-2.915,3.78a3.38,3.38,0,0,0,1.982,2.794Z" transform="translate(-309.114 -150.099)" fill="url(#linear-gradient)"/>
          <path id="Path_158" data-name="Path 158" d="M384.884,237.83l-62.948-36.342c-4.476-2.584-3.915-7.1,1.254-10.081l60.438-34.894a19.853,19.853,0,0,1,8.51-2.417,20.586,20.586,0,0,0-11.333,2.417l-60.44,34.894c-5.167,2.984-5.728,7.5-1.254,10.081l62.948,36.342a16.328,16.328,0,0,0,8.95,1.693A14.432,14.432,0,0,1,384.884,237.83Z" transform="translate(-316.09 -154.044)" fill="#25bfec"/>
          <g id="Group_21" data-name="Group 21" transform="translate(84.346 59.679)">
            <path id="Path_159" data-name="Path 159" d="M369.32,226.861l53.247-30.8a2.112,2.112,0,0,0,.883-1.685v-2.52c0-.649-.395-.947-.883-.665l-53.247,30.8a2.115,2.115,0,0,0-.881,1.685v2.52C368.439,226.843,368.834,227.141,369.32,226.861Z" transform="translate(-368.439 -191.084)" fill="#0c8095"/>
            <path id="Path_160" data-name="Path 160" d="M421.4,195.4a2.115,2.115,0,0,0,.881-1.685v-2.357l.284-.163c.488-.282.883.016.883.665v2.52a2.112,2.112,0,0,1-.883,1.685l-53.247,30.8c-.487.282-.881-.016-.881-.665v-.163Z" transform="translate(-368.439 -191.084)" fill="#fff"/>
          </g>
        </g>
      </g>
      <g id="Group_29" data-name="Group 29" transform="translate(0 58.018)">
        <g id="Group_24" data-name="Group 24" transform="translate(0 86.605)">
          <path id="Path_161" data-name="Path 161" d="M338.421,239.4H307.2l-34.752-20.064c-4.476-2.584-12.294-2.259-17.461.725l-33.5,19.339h-31.2v20.957h.01c-.127,1.75.849,3.437,3,4.679l62.947,36.342c4.476,2.584,12.294,2.261,17.462-.723l60.438-34.894c2.684-1.55,4.113-3.512,4.252-5.4h.023Z" transform="translate(-190.277 -196.633)" fill="#58ddf5" stroke="#0f505c" stroke-width="1"/>
          <path id="Path_162" data-name="Path 162" d="M192.27,261.8h-.01V240.844h31.2l33.5-19.341c5.169-2.984,12.986-3.308,17.462-.723l34.751,20.064h29.248V239.4H307.2l-34.752-20.064c-4.476-2.584-12.294-2.259-17.461.725l-33.5,19.339h-31.2v20.957h.01c-.127,1.75.849,3.437,3,4.679l.354.2A4.4,4.4,0,0,1,192.27,261.8Z" transform="translate(-190.277 -196.633)" fill="#0f505c"/>
          <path id="Path_163" data-name="Path 163" d="M256.25,288.37,193.3,252.026c-4.474-2.583-3.914-7.1,1.255-10.081L255,207.051c5.167-2.982,12.985-3.308,17.461-.723L335.4,242.67c4.476,2.584,3.914,7.1-1.254,10.081l-60.438,34.9C268.544,290.629,260.726,290.955,256.25,288.37Z" transform="translate(-190.281 -204.583)" fill="#58ddf5"/>
          <path id="Path_164" data-name="Path 164" d="M307.97,242.668l-62.948-36.342a16.263,16.263,0,0,0-8.812-1.7,14.639,14.639,0,0,1,6.348,1.7l62.948,36.342c4.476,2.584,3.915,7.1-1.254,10.081l-60.438,34.9a19.916,19.916,0,0,1-8.649,2.425,20.547,20.547,0,0,0,11.113-2.425l60.438-34.9C311.884,249.767,312.446,245.252,307.97,242.668Z" transform="translate(-162.847 -204.581)" fill="#0f505c"/>
          <path id="Path_165" data-name="Path 165" d="M256.989,275.77a12.07,12.07,0,0,1-5.913-1.36l-46.865-27.059a4.388,4.388,0,0,1-2.517-3.724c0-1.73,1.257-3.446,3.45-4.713l45-25.979c3.991-2.3,10.064-2.544,13.537-.538l46.864,27.057a4.393,4.393,0,0,1,2.52,3.727c0,1.727-1.258,3.445-3.453,4.711L264.615,273.87A15.657,15.657,0,0,1,256.989,275.77Zm-5.375-2.291c3.181,1.834,8.771,1.592,12.463-.54l44.995-25.978c1.853-1.07,2.915-2.447,2.915-3.78a3.38,3.38,0,0,0-1.982-2.8l-46.864-27.057c-3.177-1.835-8.767-1.592-12.461.538l-45,25.979c-1.851,1.07-2.911,2.446-2.911,3.782a3.377,3.377,0,0,0,1.979,2.792Z" transform="translate(-183.306 -200.638)" fill="#480689"/>
          <path id="Path_166" data-name="Path 166" d="M259.075,288.371l-62.948-36.344c-4.476-2.583-3.914-7.1,1.254-10.081l60.438-34.894a19.875,19.875,0,0,1,8.512-2.417A20.6,20.6,0,0,0,255,207.051l-60.438,34.894c-5.169,2.984-5.729,7.5-1.255,10.081l62.948,36.344a16.341,16.341,0,0,0,8.95,1.693A14.478,14.478,0,0,1,259.075,288.371Z" transform="translate(-190.281 -204.583)" fill="#0f505c"/>
        </g>
        <g id="Group_25" data-name="Group 25" transform="translate(0 57.736)">
          <path id="Path_167" data-name="Path 167" d="M338.421,221.482H307.2l-34.752-20.064c-4.476-2.584-12.294-2.261-17.461.723l-33.5,19.341h-31.2v20.957h.01c-.127,1.748.849,3.437,3,4.677l62.947,36.344c4.476,2.584,12.294,2.259,17.462-.723l60.438-34.9c2.684-1.55,4.113-3.512,4.252-5.4h.023Z" transform="translate(-190.277 -178.716)" fill="#58ddf5" stroke="#0f505c" stroke-width="1"/>
          <path id="Path_168" data-name="Path 168" d="M192.27,243.883h-.01V222.926h31.2l33.5-19.339c5.169-2.984,12.986-3.308,17.462-.723l34.751,20.063h29.248v-1.444H307.2l-34.752-20.064c-4.476-2.584-12.294-2.261-17.461.723l-33.5,19.341h-31.2v20.957h.01c-.127,1.748.849,3.437,3,4.677l.354.2A4.392,4.392,0,0,1,192.27,243.883Z" transform="translate(-190.277 -178.716)" fill="#0f505c"/>
          <path id="Path_169" data-name="Path 169" d="M256.25,270.452,193.3,234.11c-4.474-2.584-3.914-7.1,1.255-10.081L255,189.134c5.167-2.984,12.985-3.308,17.461-.723L335.4,224.753c4.476,2.584,3.914,7.1-1.254,10.081l-60.438,34.894C268.544,272.713,260.726,273.036,256.25,270.452Z" transform="translate(-190.281 -186.666)" fill="#58ddf5" stroke="#0f505c" stroke-width="1"/>
          <path id="Path_170" data-name="Path 170" d="M307.97,224.751l-62.948-36.342a16.248,16.248,0,0,0-8.812-1.7,14.594,14.594,0,0,1,6.348,1.7l62.948,36.342c4.476,2.584,3.915,7.1-1.254,10.081l-60.438,34.894a19.9,19.9,0,0,1-8.649,2.426,20.533,20.533,0,0,0,11.113-2.426l60.438-34.894C311.884,231.848,312.446,227.335,307.97,224.751Z" transform="translate(-162.847 -186.664)" fill="#0f505c"/>
          <path id="Path_171" data-name="Path 171" d="M256.991,257.853a12.059,12.059,0,0,1-5.915-1.361l-46.865-27.057a4.392,4.392,0,0,1-2.517-3.725c0-1.727,1.257-3.445,3.45-4.711l45-25.979c3.991-2.3,10.064-2.544,13.537-.538l46.864,27.057a4.393,4.393,0,0,1,2.52,3.727c0,1.727-1.258,3.445-3.453,4.711l-44.995,25.978A15.674,15.674,0,0,1,256.991,257.853Zm.775-63.673a14.576,14.576,0,0,0-7.086,1.771l-45,25.979c-1.851,1.07-2.911,2.447-2.911,3.78a3.379,3.379,0,0,0,1.979,2.794l46.865,27.057c3.177,1.834,8.77,1.594,12.463-.538l44.995-25.978c1.853-1.07,2.915-2.447,2.915-3.78a3.38,3.38,0,0,0-1.982-2.8l-46.864-27.057A10.972,10.972,0,0,0,257.766,194.18Z" transform="translate(-183.306 -182.721)" fill="#480689"/>
          <path id="Path_172" data-name="Path 172" d="M259.075,270.452,196.126,234.11c-4.476-2.584-3.914-7.1,1.254-10.081l60.438-34.894a19.877,19.877,0,0,1,8.512-2.417A20.589,20.589,0,0,0,255,189.134l-60.438,34.894c-5.169,2.984-5.729,7.5-1.255,10.081l62.948,36.342a16.327,16.327,0,0,0,8.95,1.693A14.432,14.432,0,0,1,259.075,270.452Z" transform="translate(-190.281 -186.666)" fill="#0f505c"/>
        </g>
        <g id="Group_26" data-name="Group 26" transform="translate(0 28.868)">
          <path id="Path_173" data-name="Path 173" d="M338.421,203.564H307.2L272.452,183.5c-4.476-2.584-12.294-2.261-17.461.723l-33.5,19.339h-31.2v20.959h.01c-.127,1.748.849,3.437,3,4.677l62.947,36.342c4.476,2.584,12.294,2.261,17.462-.723l60.438-34.894c2.684-1.55,4.113-3.512,4.252-5.4h.023Z" transform="translate(-190.277 -160.799)" fill="#58ddf5" stroke="#0f505c" stroke-width="1"/>
          <path id="Path_174" data-name="Path 174" d="M192.27,225.966h-.01V205.009h31.2l33.5-19.339c5.169-2.984,12.986-3.308,17.462-.725l34.751,20.064h29.248v-1.445H307.2L272.452,183.5c-4.476-2.584-12.294-2.261-17.461.723l-33.5,19.339h-31.2v20.959h.01c-.127,1.748.849,3.437,3,4.677l.354.2A4.392,4.392,0,0,1,192.27,225.966Z" transform="translate(-190.277 -160.799)" fill="#0f505c"/>
          <path id="Path_175" data-name="Path 175" d="M256.25,252.535,193.3,216.193c-4.474-2.584-3.914-7.1,1.255-10.081L255,171.217c5.167-2.984,12.985-3.308,17.461-.723L335.4,206.836c4.476,2.584,3.914,7.1-1.254,10.081l-60.438,34.894C268.544,254.8,260.726,255.119,256.25,252.535Z" transform="translate(-190.281 -168.749)" fill="#58ddf5" stroke="#0f505c" stroke-width="1"/>
          <path id="Path_176" data-name="Path 176" d="M307.97,206.834l-62.948-36.342a16.248,16.248,0,0,0-8.812-1.7,14.594,14.594,0,0,1,6.348,1.7l62.948,36.342c4.476,2.584,3.915,7.1-1.254,10.081l-60.438,34.894a19.9,19.9,0,0,1-8.649,2.426,20.547,20.547,0,0,0,11.113-2.426l60.438-34.894C311.884,213.931,312.446,209.418,307.97,206.834Z" transform="translate(-162.847 -168.747)" fill="#0f505c"/>
          <path id="Path_177" data-name="Path 177" d="M256.989,239.935a12.056,12.056,0,0,1-5.913-1.36l-46.865-27.057a4.392,4.392,0,0,1-2.517-3.725c0-1.729,1.257-3.445,3.45-4.711l45-25.979c3.989-2.3,10.06-2.546,13.537-.54l46.864,27.059a4.4,4.4,0,0,1,2.52,3.725c0,1.729-1.258,3.446-3.453,4.711l-44.995,25.979A15.674,15.674,0,0,1,256.989,239.935Zm.777-63.672a14.563,14.563,0,0,0-7.086,1.771l-45,25.979c-1.851,1.07-2.911,2.446-2.911,3.78a3.376,3.376,0,0,0,1.979,2.794l46.865,27.057c3.179,1.835,8.768,1.592,12.463-.538l44.995-25.979c1.853-1.07,2.915-2.447,2.915-3.78A3.38,3.38,0,0,0,310,204.553L263.141,177.5A10.954,10.954,0,0,0,257.766,176.263Z" transform="translate(-183.306 -164.804)" fill="#480689"/>
          <path id="Path_178" data-name="Path 178" d="M259.075,252.535l-62.948-36.342c-4.476-2.584-3.914-7.1,1.254-10.081l60.438-34.894a19.853,19.853,0,0,1,8.512-2.417A20.588,20.588,0,0,0,255,171.217l-60.438,34.894c-5.169,2.984-5.729,7.5-1.255,10.081l62.948,36.342a16.328,16.328,0,0,0,8.95,1.693A14.455,14.455,0,0,1,259.075,252.535Z" transform="translate(-190.281 -168.749)" fill="#0f505c"/>
        </g>
        <g id="Group_28" data-name="Group 28">
          <path id="Path_179" data-name="Path 179" d="M338.421,185.647H307.2l-34.752-20.063c-4.476-2.584-12.294-2.261-17.461.723l-33.5,19.339h-31.2V206.6h.01c-.127,1.75.849,3.437,3,4.679l62.947,36.342c4.476,2.584,12.294,2.261,17.462-.723l60.438-34.894c2.684-1.55,4.113-3.512,4.252-5.4h.023Z" transform="translate(-190.277 -142.882)" fill="#58ddf5" stroke="#0f505c" stroke-width="1"/>
          <path id="Path_180" data-name="Path 180" d="M192.27,208.049h-.01V187.092h31.2l33.5-19.341c5.169-2.982,12.986-3.308,17.462-.723l34.751,20.064h29.248v-1.445H307.2l-34.752-20.063c-4.476-2.584-12.294-2.261-17.461.723l-33.5,19.339h-31.2V206.6h.01c-.127,1.75.849,3.437,3,4.679l.354.2A4.392,4.392,0,0,1,192.27,208.049Z" transform="translate(-190.277 -142.882)" fill="#0f505c"/>
          <path id="Path_181" data-name="Path 181" d="M256.25,234.618,193.3,198.276c-4.474-2.584-3.914-7.1,1.255-10.081L255,153.3c5.167-2.984,12.985-3.308,17.461-.725L335.4,188.919c4.476,2.583,3.914,7.1-1.254,10.081l-60.438,34.894C268.544,236.879,260.726,237.2,256.25,234.618Z" transform="translate(-190.281 -150.832)" fill="url(#linear-gradient-4)"/>
          <path id="Path_182" data-name="Path 182" d="M307.97,188.917l-62.948-36.344a16.248,16.248,0,0,0-8.812-1.7,14.616,14.616,0,0,1,6.348,1.7l62.948,36.344c4.476,2.583,3.915,7.1-1.254,10.081l-60.438,34.894a19.9,19.9,0,0,1-8.649,2.426,20.562,20.562,0,0,0,11.113-2.426L306.717,199C311.884,196.014,312.446,191.5,307.97,188.917Z" transform="translate(-162.847 -150.829)" fill="#6ee8fc"/>
          <path id="Path_183" data-name="Path 183" d="M256.989,222.018a12.052,12.052,0,0,1-5.913-1.36L204.211,193.6a4.392,4.392,0,0,1-2.517-3.725c0-1.729,1.257-3.446,3.45-4.713l45-25.978c3.991-2.3,10.064-2.546,13.537-.54L310.543,185.7a4.395,4.395,0,0,1,2.52,3.727c0,1.729-1.258,3.445-3.453,4.711L264.615,220.12A15.674,15.674,0,0,1,256.989,222.018Zm-5.375-2.291c3.179,1.834,8.768,1.594,12.463-.538l44.995-25.979c1.853-1.07,2.915-2.446,2.915-3.78A3.378,3.378,0,0,0,310,186.636l-46.864-27.059c-3.179-1.834-8.767-1.592-12.461.54l-45,25.979c-1.851,1.068-2.911,2.446-2.911,3.78a3.379,3.379,0,0,0,1.979,2.794Z" transform="translate(-183.306 -146.887)" fill="url(#linear-gradient)"/>
          <path id="Path_184" data-name="Path 184" d="M259.075,234.618l-62.948-36.342c-4.476-2.584-3.914-7.1,1.254-10.081L257.818,153.3a19.832,19.832,0,0,1,8.512-2.417A20.575,20.575,0,0,0,255,153.3l-60.438,34.894c-5.169,2.984-5.729,7.5-1.255,10.081l62.948,36.342a16.342,16.342,0,0,0,8.95,1.693A14.455,14.455,0,0,1,259.075,234.618Z" transform="translate(-190.281 -150.832)" fill="#25bfec"/>
          <g id="Group_27" data-name="Group 27" transform="translate(9.051 59.679)">
            <path id="Path_185" data-name="Path 185" d="M250.029,223.648l-53.249-30.8a2.115,2.115,0,0,1-.881-1.685v-2.52c0-.649.395-.947.881-.667l53.249,30.8a2.11,2.11,0,0,1,.881,1.685v2.52C250.911,223.63,250.516,223.93,250.029,223.648Z" transform="translate(-195.899 -187.872)" fill="#0c8095"/>
            <path id="Path_186" data-name="Path 186" d="M197.947,192.182a2.111,2.111,0,0,1-.881-1.684v-2.357l-.285-.164c-.487-.28-.881.018-.881.667v2.52a2.115,2.115,0,0,0,.881,1.685l53.249,30.8c.487.282.881-.018.881-.665v-.164Z" transform="translate(-195.899 -187.872)" fill="#fff"/>
          </g>
        </g>
      </g>
      <g id="Group_36" data-name="Group 36" transform="translate(101.057 121.21)">
        <g id="Group_30" data-name="Group 30" transform="translate(0 86.606)">
          <path id="Path_187" data-name="Path 187" d="M401.141,278.62H369.924l-34.752-20.064c-4.476-2.584-12.294-2.261-17.461.723l-33.5,19.341h-31.2v20.957h.011c-.129,1.748.848,3.437,3,4.677L318.967,340.6c4.476,2.583,12.293,2.259,17.462-.725l60.438-34.894c2.684-1.55,4.113-3.512,4.252-5.4h.023Z" transform="translate(-252.998 -235.854)" fill="#58ddf5" stroke="#0f505c" stroke-width="1"/>
          <path id="Path_188" data-name="Path 188" d="M254.99,301.023h-.01V280.064h31.2l33.5-19.339c5.169-2.984,12.986-3.308,17.462-.723l34.751,20.063h29.248V278.62H369.924l-34.752-20.064c-4.476-2.584-12.294-2.261-17.461.723l-33.5,19.341h-31.2v20.957h.011c-.127,1.748.848,3.437,3,4.677l.354.2A4.392,4.392,0,0,1,254.99,301.023Z" transform="translate(-252.998 -235.854)" fill="#0f505c"/>
          <path id="Path_189" data-name="Path 189" d="M318.971,327.592l-62.947-36.344c-4.476-2.584-3.915-7.1,1.254-10.081l60.438-34.894c5.167-2.984,12.985-3.308,17.461-.723l62.948,36.342c4.476,2.584,3.914,7.1-1.253,10.081l-60.438,34.894C331.265,329.851,323.447,330.174,318.971,327.592Z" transform="translate(-253.002 -243.804)" fill="#58ddf5" stroke="#0f505c" stroke-width="1"/>
          <path id="Path_190" data-name="Path 190" d="M370.691,281.889l-62.948-36.342a16.248,16.248,0,0,0-8.812-1.7,14.6,14.6,0,0,1,6.348,1.7l62.948,36.342c4.476,2.584,3.914,7.1-1.254,10.081l-60.438,34.894a19.9,19.9,0,0,1-8.649,2.426A20.548,20.548,0,0,0,309,326.864l60.438-34.894C374.6,288.986,375.167,284.473,370.691,281.889Z" transform="translate(-225.568 -243.802)" fill="#0f505c"/>
          <path id="Path_191" data-name="Path 191" d="M319.711,314.991a12.065,12.065,0,0,1-5.913-1.36l-46.864-27.059a4.392,4.392,0,0,1-2.52-3.725c0-1.727,1.26-3.445,3.453-4.713l45-25.976c3.986-2.3,10.059-2.549,13.537-.54l46.865,27.057a4.394,4.394,0,0,1,2.518,3.725c0,1.727-1.258,3.446-3.451,4.713l-45,25.978A15.669,15.669,0,0,1,319.711,314.991Zm-5.375-2.291c3.181,1.832,8.768,1.59,12.461-.54l45-25.978c1.851-1.07,2.913-2.449,2.913-3.781a3.378,3.378,0,0,0-1.98-2.794L325.862,252.55c-3.182-1.834-8.768-1.592-12.461.54l-45,25.978c-1.851,1.07-2.915,2.447-2.915,3.78a3.376,3.376,0,0,0,1.982,2.794Z" transform="translate(-246.028 -239.859)" fill="#480689"/>
          <path id="Path_192" data-name="Path 192" d="M321.8,327.592l-62.948-36.344c-4.476-2.584-3.914-7.1,1.253-10.081l60.438-34.894a19.854,19.854,0,0,1,8.512-2.417,20.589,20.589,0,0,0-11.335,2.417l-60.438,34.894c-5.169,2.984-5.729,7.5-1.254,10.081l62.947,36.344a16.345,16.345,0,0,0,8.952,1.692A14.455,14.455,0,0,1,321.8,327.592Z" transform="translate(-253.002 -243.804)" fill="#0f505c"/>
        </g>
        <g id="Group_31" data-name="Group 31" transform="translate(0 57.738)">
          <path id="Path_193" data-name="Path 193" d="M401.141,260.7H369.924l-34.752-20.063c-4.476-2.584-12.294-2.261-17.461.723l-33.5,19.339h-31.2V281.66h.011c-.129,1.748.848,3.435,3,4.677l62.947,36.342c4.476,2.584,12.293,2.261,17.462-.723l60.438-34.894c2.684-1.55,4.113-3.512,4.252-5.4h.023Z" transform="translate(-252.998 -217.937)" fill="#58ddf5" stroke="#0f505c" stroke-width="1"/>
          <path id="Path_194" data-name="Path 194" d="M254.99,283.1h-.01V262.147h31.2l33.5-19.339c5.169-2.984,12.986-3.308,17.462-.725l34.751,20.064h29.248V260.7H369.924l-34.752-20.063c-4.476-2.584-12.294-2.261-17.461.723l-33.5,19.339h-31.2V281.66h.011c-.127,1.748.848,3.435,3,4.677l.354.2A4.394,4.394,0,0,1,254.99,283.1Z" transform="translate(-252.998 -217.937)" fill="#0f505c"/>
          <path id="Path_195" data-name="Path 195" d="M318.971,309.673l-62.947-36.342c-4.476-2.584-3.915-7.1,1.254-10.081l60.438-34.894c5.167-2.984,12.985-3.308,17.461-.723l62.948,36.342c4.476,2.584,3.914,7.1-1.253,10.081L336.433,308.95C331.265,311.934,323.447,312.258,318.971,309.673Z" transform="translate(-253.002 -225.887)" fill="#58ddf5"/>
          <path id="Path_196" data-name="Path 196" d="M370.691,263.972,307.743,227.63a16.248,16.248,0,0,0-8.812-1.7,14.594,14.594,0,0,1,6.348,1.7l62.948,36.342c4.476,2.584,3.914,7.1-1.254,10.081l-60.438,34.894a19.9,19.9,0,0,1-8.649,2.427A20.548,20.548,0,0,0,309,308.947l60.438-34.894C374.6,271.069,375.167,266.556,370.691,263.972Z" transform="translate(-225.568 -225.885)" fill="#0f505c"/>
          <path id="Path_197" data-name="Path 197" d="M319.712,297.074a12.072,12.072,0,0,1-5.915-1.362l-46.864-27.057a4.392,4.392,0,0,1-2.52-3.725c0-1.727,1.26-3.445,3.453-4.711l45-25.979c3.989-2.3,10.067-2.544,13.537-.54l46.865,27.057a4.4,4.4,0,0,1,2.518,3.727c0,1.727-1.258,3.446-3.451,4.711l-45,25.979A15.667,15.667,0,0,1,319.712,297.074Zm.773-63.673a14.561,14.561,0,0,0-7.084,1.771l-45,25.979c-1.851,1.07-2.915,2.447-2.915,3.78a3.378,3.378,0,0,0,1.982,2.794l46.864,27.057c3.179,1.832,8.768,1.594,12.461-.538l45-25.979c1.851-1.068,2.913-2.447,2.913-3.78a3.378,3.378,0,0,0-1.98-2.794l-46.865-27.057A10.961,10.961,0,0,0,320.486,233.4Z" transform="translate(-246.028 -221.942)" fill="#480689"/>
          <path id="Path_198" data-name="Path 198" d="M321.8,309.673l-62.948-36.342c-4.476-2.584-3.914-7.1,1.253-10.081l60.438-34.894a19.854,19.854,0,0,1,8.512-2.417,20.589,20.589,0,0,0-11.335,2.417l-60.438,34.894c-5.169,2.984-5.729,7.5-1.254,10.081l62.947,36.342a16.33,16.33,0,0,0,8.952,1.693A14.456,14.456,0,0,1,321.8,309.673Z" transform="translate(-253.002 -225.887)" fill="#0f505c"/>
        </g>
        <g id="Group_32" data-name="Group 32" transform="translate(0 28.869)">
          <path id="Path_199" data-name="Path 199" d="M401.141,242.785H369.924l-34.752-20.063c-4.476-2.584-12.294-2.261-17.461.723l-33.5,19.339h-31.2v20.957h.011c-.129,1.75.848,3.437,3,4.679l62.947,36.342c4.476,2.584,12.293,2.26,17.462-.723l60.438-34.894c2.684-1.55,4.113-3.512,4.252-5.4h.023Z" transform="translate(-252.998 -200.02)" fill="#58ddf5" stroke="#0f505c" stroke-width="1"/>
          <path id="Path_200" data-name="Path 200" d="M254.99,265.187h-.01V244.23h31.2l33.5-19.341c5.169-2.982,12.986-3.308,17.462-.723l34.751,20.064h29.248v-1.445H369.924l-34.752-20.063c-4.476-2.584-12.294-2.261-17.461.723l-33.5,19.339h-31.2v20.957h.011c-.127,1.75.848,3.437,3,4.679l.354.2A4.4,4.4,0,0,1,254.99,265.187Z" transform="translate(-252.998 -200.02)" fill="#0f505c"/>
          <path id="Path_201" data-name="Path 201" d="M318.971,291.756l-62.947-36.342c-4.476-2.584-3.915-7.1,1.254-10.081l60.438-34.894c5.167-2.984,12.985-3.308,17.461-.725l62.948,36.344c4.476,2.583,3.914,7.1-1.253,10.081l-60.438,34.894C331.265,294.017,323.447,294.341,318.971,291.756Z" transform="translate(-253.002 -207.97)" fill="#58ddf5"/>
          <path id="Path_202" data-name="Path 202" d="M370.691,246.055l-62.948-36.344a16.247,16.247,0,0,0-8.812-1.7,14.615,14.615,0,0,1,6.348,1.7l62.948,36.344c4.476,2.583,3.914,7.1-1.254,10.081L306.536,291.03a19.939,19.939,0,0,1-8.649,2.426A20.562,20.562,0,0,0,309,291.03l60.438-34.894C374.6,253.152,375.167,248.638,370.691,246.055Z" transform="translate(-225.568 -207.967)" fill="#0f505c"/>
          <path id="Path_203" data-name="Path 203" d="M319.711,279.158A12.061,12.061,0,0,1,313.8,277.8L266.934,250.74a4.4,4.4,0,0,1-2.52-3.727c0-1.727,1.26-3.443,3.453-4.71l45-25.981c3.986-2.3,10.059-2.547,13.537-.538l46.865,27.057a4.4,4.4,0,0,1,2.518,3.727c0,1.727-1.258,3.445-3.451,4.711l-45,25.979A15.691,15.691,0,0,1,319.711,279.158Zm.775-63.673a14.561,14.561,0,0,0-7.084,1.771l-45,25.979c-1.851,1.07-2.915,2.446-2.915,3.778a3.38,3.38,0,0,0,1.982,2.8l46.864,27.057c3.179,1.835,8.767,1.594,12.461-.538l45-25.979c1.851-1.07,2.913-2.447,2.913-3.78a3.376,3.376,0,0,0-1.98-2.794l-46.865-27.059A10.979,10.979,0,0,0,320.486,215.485Z" transform="translate(-246.028 -204.025)" fill="#480689"/>
          <path id="Path_204" data-name="Path 204" d="M321.8,291.756l-62.948-36.342c-4.476-2.584-3.914-7.1,1.253-10.081l60.438-34.894a19.831,19.831,0,0,1,8.512-2.417,20.575,20.575,0,0,0-11.335,2.417l-60.438,34.894c-5.169,2.984-5.729,7.5-1.254,10.081l62.947,36.342a16.344,16.344,0,0,0,8.952,1.693A14.455,14.455,0,0,1,321.8,291.756Z" transform="translate(-253.002 -207.97)" fill="#0f505c"/>
        </g>
        <g id="Group_35" data-name="Group 35">
          <path id="Path_205" data-name="Path 205" d="M401.141,224.868H369.924L335.172,204.8c-4.476-2.584-12.294-2.259-17.461.725l-33.5,19.339h-31.2v20.957h.011c-.129,1.75.848,3.437,3,4.679l62.947,36.342c4.476,2.584,12.293,2.261,17.462-.723l60.438-34.894c2.684-1.55,4.113-3.512,4.252-5.4h.023Z" transform="translate(-252.998 -182.102)" fill="#58ddf5" stroke="#0f505c" stroke-width="1"/>
          <path id="Path_206" data-name="Path 206" d="M254.99,247.27h-.01V226.313h31.2l33.5-19.341c5.169-2.984,12.986-3.308,17.462-.723l34.751,20.064h29.248v-1.445H369.924L335.172,204.8c-4.476-2.584-12.294-2.259-17.461.725l-33.5,19.339h-31.2v20.957h.011c-.127,1.75.848,3.437,3,4.679l.354.2A4.4,4.4,0,0,1,254.99,247.27Z" transform="translate(-252.998 -182.102)" fill="#0f505c"/>
          <path id="Path_207" data-name="Path 207" d="M318.971,273.84,256.024,237.5c-4.476-2.583-3.915-7.1,1.254-10.081l60.438-34.894c5.167-2.984,12.985-3.308,17.461-.723l62.948,36.342c4.476,2.584,3.914,7.1-1.253,10.083l-60.438,34.892C331.265,276.1,323.447,276.422,318.971,273.84Z" transform="translate(-253.002 -190.052)" fill="url(#linear-gradient-6)"/>
          <path id="Path_208" data-name="Path 208" d="M370.691,228.137l-62.948-36.342a16.248,16.248,0,0,0-8.812-1.7,14.639,14.639,0,0,1,6.348,1.7l62.948,36.342c4.476,2.584,3.914,7.1-1.254,10.083l-60.438,34.892a19.9,19.9,0,0,1-8.649,2.426A20.533,20.533,0,0,0,309,273.112l60.438-34.892C374.6,235.236,375.167,230.721,370.691,228.137Z" transform="translate(-225.568 -190.05)" fill="#6ee8fc"/>
          <path id="Path_209" data-name="Path 209" d="M319.629,260.95a11.858,11.858,0,0,1-5.807-1.334l-46.864-27.059a4.2,4.2,0,0,1-2.412-3.541c0-1.648,1.22-3.3,3.345-4.526l45-25.979c3.931-2.269,9.911-2.51,13.325-.538l46.865,27.057a4.193,4.193,0,0,1,2.412,3.541c0,1.648-1.22,3.3-3.346,4.526l-45,25.979A15.47,15.47,0,0,1,319.629,260.95Zm.775-63.673a14.788,14.788,0,0,0-7.192,1.8l-44.995,25.979c-1.921,1.107-3.021,2.552-3.021,3.964a3.583,3.583,0,0,0,2.088,2.979l46.862,27.057c3.234,1.869,8.921,1.629,12.677-.54l45-25.978c1.921-1.107,3.021-2.552,3.021-3.964a3.584,3.584,0,0,0-2.088-2.981l-46.865-27.055A11.182,11.182,0,0,0,320.4,197.276Z" transform="translate(-245.946 -186.027)" fill="url(#linear-gradient)"/>
          <path id="Path_210" data-name="Path 210" d="M321.8,273.84,258.847,237.5c-4.476-2.583-3.914-7.1,1.253-10.081l60.438-34.894a19.876,19.876,0,0,1,8.512-2.417,20.6,20.6,0,0,0-11.335,2.417l-60.438,34.894c-5.169,2.984-5.729,7.5-1.254,10.081l62.947,36.344a16.33,16.33,0,0,0,8.952,1.692A14.432,14.432,0,0,1,321.8,273.84Z" transform="translate(-253.002 -190.052)" fill="#25bfec"/>
          <g id="Group_33" data-name="Group 33" transform="translate(84.345 59.679)">
            <path id="Path_211" data-name="Path 211" d="M306.232,262.869l53.247-30.8a2.106,2.106,0,0,0,.883-1.684v-2.52c0-.649-.395-.949-.883-.667L306.232,258a2.115,2.115,0,0,0-.881,1.685v2.52C305.351,262.851,305.746,263.149,306.232,262.869Z" transform="translate(-305.351 -227.092)" fill="#0c8095"/>
            <path id="Path_212" data-name="Path 212" d="M358.315,231.4a2.115,2.115,0,0,0,.881-1.685v-2.356l.284-.164c.488-.282.883.018.883.667v2.52a2.112,2.112,0,0,1-.883,1.685l-53.247,30.8c-.487.282-.881-.018-.881-.667v-.163Z" transform="translate(-305.351 -227.092)" fill="#fbf2ff"/>
          </g>
          <g id="Group_34" data-name="Group 34" transform="translate(9.174 59.679)">
            <path id="Path_213" data-name="Path 213" d="M312.826,262.869l-53.247-30.8a2.11,2.11,0,0,1-.883-1.684v-2.52c0-.649.4-.949.883-.667L312.826,258a2.115,2.115,0,0,1,.881,1.685v2.52C313.708,262.851,313.313,263.149,312.826,262.869Z" transform="translate(-258.696 -227.092)" fill="#0c8095"/>
            <path id="Path_214" data-name="Path 214" d="M260.744,231.4a2.115,2.115,0,0,1-.881-1.685v-2.356l-.284-.164c-.487-.282-.883.018-.883.667v2.52a2.116,2.116,0,0,0,.883,1.685l53.247,30.8c.487.282.881-.018.881-.667v-.163Z" transform="translate(-258.696 -227.092)" fill="#fff"/>
          </g>
        </g>
      </g>
      <g id="Group_37" data-name="Group 37" transform="translate(0 0)">
        <path id="Path_215" data-name="Path 215" d="M319.339,198.611,256.39,162.267c-4.476-2.583-3.914-7.1,1.254-10.081l60.44-34.894c5.167-2.984,12.985-3.308,17.461-.723l62.948,36.342c4.474,2.584,3.914,7.1-1.254,10.081L336.8,197.886C331.632,200.87,323.814,201.193,319.339,198.611Z" transform="translate(-151.722 -114.823)" fill="#58ddf5" stroke="#0f505c" stroke-width="1"/>
        <path id="Path_216" data-name="Path 216" d="M312.817,179.942,270.4,155.45c-3.016-1.74-2.639-4.782.844-6.793l40.728-23.514c3.482-2.011,8.75-2.23,11.767-.488l42.418,24.49c3.016,1.742,2.639,4.784-.844,6.794l-40.728,23.514C321.1,181.465,315.833,181.682,312.817,179.942Z" transform="translate(-142.558 -109.532)" fill="#065564" stroke="#0f505c" stroke-width="1"/>
        <path id="Path_217" data-name="Path 217" d="M382.06,237.83l-62.948-36.342c-4.476-2.584-3.914-7.1,1.254-10.081l60.44-34.894c5.167-2.984,12.985-3.308,17.461-.723l62.948,36.342c4.476,2.584,3.914,7.1-1.254,10.081l-60.438,34.894C394.353,240.091,386.535,240.414,382.06,237.83Z" transform="translate(-113.386 -90.851)" fill="#58ddf5" stroke="#0f505c" stroke-width="1"/>
        <path id="Path_218" data-name="Path 218" d="M256.25,234.618,193.3,198.276c-4.474-2.584-3.914-7.1,1.255-10.081L255,153.3c5.167-2.984,12.985-3.308,17.461-.725L335.4,188.919c4.476,2.583,3.914,7.1-1.254,10.081l-60.438,34.894C268.544,236.879,260.726,237.2,256.25,234.618Z" transform="translate(-190.281 -92.814)" fill="#58ddf5" stroke="#0f505c" stroke-width="1"/>
        <path id="Path_219" data-name="Path 219" d="M318.971,273.84,256.024,237.5c-4.476-2.583-3.915-7.1,1.254-10.081l60.438-34.894c5.167-2.984,12.985-3.308,17.461-.723l62.948,36.342c4.476,2.584,3.914,7.1-1.253,10.083l-60.438,34.892C331.265,276.1,323.447,276.422,318.971,273.84Z" transform="translate(-151.945 -68.842)" fill="#58ddf5" stroke="#0f505c" stroke-width="1"/>
        <path id="Path_220" data-name="Path 220" d="M310.867,250.64l-37.437-21.614c-2.662-1.537-2.328-4.221.744-6l35.946-20.752c3.073-1.774,7.723-1.967,10.384-.43l37.438,21.614c2.662,1.537,2.328,4.221-.746,6L321.253,250.21C318.179,251.984,313.529,252.178,310.867,250.64Z" transform="translate(-140.558 -62.268)" fill="#0c8095" stroke="#0a3c45" stroke-width="1"/>
      </g>
    </g>
  </g>
</svg>
