<svg xmlns="http://www.w3.org/2000/svg" xmlns:xlink="http://www.w3.org/1999/xlink" width="328.481" height="372.096" viewBox="0 0 328.481 372.096">
  <defs>
    <clipPath id="clip-path">
      <path id="Path_100" data-name="Path 100" d="M373,149.71,349.431,136.1c-1.675-.968-1.466-2.658.469-3.775l22.628-13.065a7.271,7.271,0,0,1,6.538-.271L402.636,132.6c1.675.967,1.464,2.658-.469,3.775l-22.628,13.065A7.271,7.271,0,0,1,373,149.71Z" transform="translate(-348.3 -118.34)" fill="none"/>
    </clipPath>
    <linearGradient id="linear-gradient" x1="0.5" y1="1" x2="0.5" gradientUnits="objectBoundingBox">
      <stop offset="0.011" stop-color="#25bfec"/>
      <stop offset="0.045" stop-color="#23b4e1"/>
      <stop offset="0.219" stop-color="#1e82af"/>
      <stop offset="0.39" stop-color="#1a5986"/>
      <stop offset="0.557" stop-color="#173a66"/>
      <stop offset="0.717" stop-color="#14234f"/>
      <stop offset="0.868" stop-color="#131541"/>
      <stop offset="1" stop-color="#13113d"/>
    </linearGradient>
    <linearGradient id="linear-gradient-2" x1="0.5" y1="1" x2="0.5" gradientUnits="objectBoundingBox">
      <stop offset="0.011" stop-color="#70e8fc"/>
      <stop offset="0.148" stop-color="#5ab5ce"/>
      <stop offset="0.303" stop-color="#4483a2"/>
      <stop offset="0.456" stop-color="#325a7e"/>
      <stop offset="0.605" stop-color="#243a61"/>
      <stop offset="0.747" stop-color="#1b234d"/>
      <stop offset="0.882" stop-color="#151541"/>
      <stop offset="1" stop-color="#13113d"/>
    </linearGradient>
    <clipPath id="clip-path-2">
      <path id="Path_138" data-name="Path 138" d="M316.2,184.993,292.63,171.386c-1.675-.968-1.466-2.658.47-3.775l22.628-13.065a7.271,7.271,0,0,1,6.538-.271l23.567,13.607c1.677.968,1.466,2.658-.469,3.775l-22.628,13.065A7.268,7.268,0,0,1,316.2,184.993Z" transform="translate(-291.499 -153.623)" fill="#6a059a"/>
    </clipPath>
    <linearGradient id="linear-gradient-3" x1="0.5" y1="1" x2="0.5" gradientUnits="objectBoundingBox">
      <stop offset="0" stop-color="#101010"/>
      <stop offset="0.011" stop-color="#25bfec"/>
      <stop offset="0.045" stop-color="#23b4e1"/>
      <stop offset="0.219" stop-color="#1e82af"/>
      <stop offset="0.39" stop-color="#1a5986"/>
      <stop offset="0.557" stop-color="#173a66"/>
      <stop offset="0.717" stop-color="#14234f"/>
      <stop offset="0.868" stop-color="#101010"/>
      <stop offset="1" stop-color="#13113d"/>
    </linearGradient>
    <linearGradient id="linear-gradient-4" x1="0.5" y1="1" x2="0.5" y2="-0.223" gradientUnits="objectBoundingBox">
      <stop offset="0" stop-color="#70e8fc"/>
      <stop offset="0.011" stop-color="#70e8fc"/>
      <stop offset="0.148" stop-color="#5ab5ce"/>
      <stop offset="0.303" stop-color="#4483a2"/>
      <stop offset="0.456" stop-color="#325a7e"/>
      <stop offset="0.605" stop-color="#243a61"/>
      <stop offset="0.747" stop-color="#101010"/>
      <stop offset="0.882" stop-color="#101010"/>
      <stop offset="1" stop-color="#101010"/>
    </linearGradient>
    <clipPath id="clip-path-3">
      <path id="Path_175" data-name="Path 175" d="M428.8,184.63l-23.567-13.607c-1.677-.968-1.466-2.658.469-3.776l22.628-13.064a7.271,7.271,0,0,1,6.538-.271l23.567,13.607c1.677.967,1.466,2.657-.469,3.775l-22.628,13.065A7.271,7.271,0,0,1,428.8,184.63Z" transform="translate(-404.1 -153.26)" fill="none"/>
    </clipPath>
    <clipPath id="clip-path-4">
      <path id="Path_214" data-name="Path 214" d="M372,219.913,348.43,206.306c-1.677-.968-1.466-2.658.468-3.775l22.63-13.065a7.268,7.268,0,0,1,6.537-.271L401.634,202.8c1.675.968,1.466,2.658-.469,3.775l-22.629,13.065A7.271,7.271,0,0,1,372,219.913Z" transform="translate(-347.298 -188.543)" fill="none"/>
    </clipPath>
  </defs>
  <g id="Group_388" data-name="Group 388" transform="translate(-242.759 -1523.952)">
    <g id="Group_430" data-name="Group 430" transform="translate(-5.127 1482.101)">
      <g id="Group_5" data-name="Group 5" transform="translate(260.378 223.042)" opacity="0.3">
        <g id="Group_4" data-name="Group 4">
          <path id="Path_13" data-name="Path 13" d="M409.29,266.414a8.359,8.359,0,0,1-4.085-1.032l-43.118-24.895a3.354,3.354,0,0,1-1.95-2.725,2.591,2.591,0,0,1,1.47-2.218l10.071-5.814a8,8,0,0,1,7.309.276L422.1,254.9a3.357,3.357,0,0,1,1.95,2.725,2.592,2.592,0,0,1-1.47,2.218l-10.071,5.815A6.545,6.545,0,0,1,409.29,266.414Zm-34.4-36.181a5.285,5.285,0,0,0-2.582.582l-10.071,5.814a1.437,1.437,0,0,0-.844,1.135c0,.548.495,1.163,1.323,1.641L405.829,264.3a6.865,6.865,0,0,0,6.059.277l10.071-5.814a1.438,1.438,0,0,0,.843-1.135c0-.549-.495-1.163-1.323-1.641l-43.116-24.895A7.193,7.193,0,0,0,374.886,230.233Z" transform="translate(-222.914 -160.589)" fill="#065564"/>
          <path id="Path_14" data-name="Path 14" d="M488.907,255.676a8.354,8.354,0,0,1-4.087-1.034l-21.425-12.369a3.357,3.357,0,0,1-1.95-2.725,2.591,2.591,0,0,1,1.47-2.218l6.607-3.815a8,8,0,0,1,7.309.277l21.425,12.371a3.354,3.354,0,0,1,1.95,2.725,2.591,2.591,0,0,1-1.47,2.218l-6.607,3.813A6.536,6.536,0,0,1,488.907,255.676Zm-16.18-21.658a5.278,5.278,0,0,0-2.579.582l-6.607,3.813a1.435,1.435,0,0,0-.843,1.135c0,.549.495,1.163,1.323,1.641l21.424,12.371a6.848,6.848,0,0,0,6.059.277l6.607-3.815a1.435,1.435,0,0,0,.843-1.134c0-.55-.495-1.163-1.323-1.642l-21.424-12.369A7.189,7.189,0,0,0,472.727,234.018Z" transform="translate(-219.778 -152.657)" fill="#065564"/>
          <path id="Path_15" data-name="Path 15" d="M355.054,347.279a6.288,6.288,0,0,1-3.17-.8l-103-61.4a2.4,2.4,0,0,1,0-4.429l183.83-109.571a6.724,6.724,0,0,1,6.343,0l41.6,24.8a2.4,2.4,0,0,1,0,4.43l-37.088,22.106a6.722,6.722,0,0,1-6.342,0l-18.975-11.31a5.737,5.737,0,0,0-5.256,0L350.68,248.256a1.294,1.294,0,0,0,0,2.483l100.24,59.748a5.746,5.746,0,0,0,5.255,0l105.2-62.706a1.295,1.295,0,0,0,0-2.484l-52.309-31.178a5.737,5.737,0,0,0-5.256,0l-60.634,36.14a1.295,1.295,0,0,0,0,2.484l26.532,15.814-.544.972-26.532-15.814a2.4,2.4,0,0,1,0-4.43l60.635-36.14a6.725,6.725,0,0,1,6.342,0l52.31,31.178a2.4,2.4,0,0,1,0,4.431l-105.2,62.705a6.724,6.724,0,0,1-6.343,0l-100.24-59.748a2.4,2.4,0,0,1,0-4.429l62.316-37.144a6.729,6.729,0,0,1,6.342,0L437.77,221.45a5.736,5.736,0,0,0,5.254,0l37.089-22.106a1.295,1.295,0,0,0,0-2.484l-41.605-24.8a5.739,5.739,0,0,0-5.255,0L249.423,281.633a1.294,1.294,0,0,0,0,2.483l103,61.4a5.745,5.745,0,0,0,5.256,0L383.374,330.2l.544.972-25.692,15.313A6.293,6.293,0,0,1,355.054,347.279Z" transform="translate(-247.406 -170.293)" fill="#58ddf5"/>
          <path id="Path_16" data-name="Path 16" d="M371.688,305.055l-.948-.548-71.685-41.388a2.642,2.642,0,0,1,0-4.932l9.77-5.64a7.958,7.958,0,0,1,7.292,0L385.1,292.378a2.642,2.642,0,0,1,0,4.932ZM312.471,252.92a6.2,6.2,0,0,0-3.021.711l-9.77,5.639a1.429,1.429,0,0,0,0,2.766l72.008,41.573,12.792-7.384a1.43,1.43,0,0,0,0-2.765l-68.99-39.83A6.187,6.187,0,0,0,312.471,252.92Z" transform="translate(-243.866 -153.017)" fill="#065564"/>
          <path id="Path_20" data-name="Path 20" d="M473.052,228.631a8.359,8.359,0,0,1-4.088-1.034l-5.646-3.26a3.352,3.352,0,0,1-1.95-2.724,2.592,2.592,0,0,1,1.471-2.218l6.606-3.815a8.007,8.007,0,0,1,7.309.277l5.647,3.26a3.357,3.357,0,0,1,1.95,2.725,2.591,2.591,0,0,1-1.47,2.218l-6.607,3.813A6.536,6.536,0,0,1,473.052,228.631Zm-.4-12.545a5.291,5.291,0,0,0-2.581.579l-6.607,3.815a1.439,1.439,0,0,0-.843,1.135c0,.548.495,1.162,1.323,1.641l5.646,3.26a6.843,6.843,0,0,0,6.059.277l6.607-3.813a1.44,1.44,0,0,0,.843-1.135c0-.55-.495-1.163-1.323-1.641l-5.647-3.261A7.189,7.189,0,0,0,472.652,216.086Z" transform="translate(-219.804 -158.642)" fill="#065564"/>
          <path id="Path_21" data-name="Path 21" d="M457.56,237.575a8.372,8.372,0,0,1-4.088-1.031l-5.646-3.261a3.354,3.354,0,0,1-1.95-2.725,2.593,2.593,0,0,1,1.47-2.218l6.607-3.815a8.015,8.015,0,0,1,7.309.277l5.646,3.26a3.356,3.356,0,0,1,1.95,2.725,2.591,2.591,0,0,1-1.47,2.218l-6.606,3.815A6.543,6.543,0,0,1,457.56,237.575Zm-.4-12.547a5.312,5.312,0,0,0-2.582.58l-6.606,3.816a1.437,1.437,0,0,0-.844,1.134c0,.55.495,1.164,1.324,1.642l5.646,3.26a6.856,6.856,0,0,0,6.059.276l6.606-3.813a1.439,1.439,0,0,0,.844-1.135c0-.549-.495-1.163-1.323-1.641l-5.647-3.26A7.175,7.175,0,0,0,457.16,225.028Z" transform="translate(-224.974 -155.656)" fill="#065564"/>
          <path id="Path_22" data-name="Path 22" d="M442.066,246.521a8.353,8.353,0,0,1-4.087-1.032l-5.646-3.26a3.354,3.354,0,0,1-1.95-2.726,2.59,2.59,0,0,1,1.468-2.217l6.607-3.816a8.006,8.006,0,0,1,7.31.277l5.646,3.261a3.354,3.354,0,0,1,1.95,2.726,2.589,2.589,0,0,1-1.47,2.217l-6.606,3.813A6.548,6.548,0,0,1,442.066,246.521Zm-.4-12.548a5.3,5.3,0,0,0-2.582.581l-6.607,3.815a1.436,1.436,0,0,0-.843,1.134c0,.55.495,1.164,1.323,1.642l5.647,3.261a6.86,6.86,0,0,0,6.059.276l6.606-3.815a1.437,1.437,0,0,0,.844-1.134c0-.548-.495-1.163-1.323-1.642l-5.647-3.26A7.175,7.175,0,0,0,441.668,233.973Z" transform="translate(-230.145 -152.672)" fill="#065564"/>
          <path id="Path_23" data-name="Path 23" d="M488.621,237.621a8.368,8.368,0,0,1-4.087-1.032l-5.647-3.261a3.357,3.357,0,0,1-1.95-2.725,2.592,2.592,0,0,1,1.471-2.218l6.606-3.813a8,8,0,0,1,7.31.276l5.646,3.26a3.356,3.356,0,0,1,1.95,2.726,2.591,2.591,0,0,1-1.471,2.217l-6.606,3.816A6.536,6.536,0,0,1,488.621,237.621Zm-.4-12.547a5.285,5.285,0,0,0-2.582.58l-6.606,3.815a1.439,1.439,0,0,0-.844,1.134c0,.551.495,1.163,1.323,1.642l5.647,3.26a6.854,6.854,0,0,0,6.058.277l6.607-3.815a1.435,1.435,0,0,0,.843-1.135c0-.548-.495-1.163-1.323-1.641L491.7,225.93A7.2,7.2,0,0,0,488.222,225.074Z" transform="translate(-214.608 -155.642)" fill="#065564"/>
          <path id="Path_24" data-name="Path 24" d="M457.637,255.508a8.355,8.355,0,0,1-4.088-1.032l-5.646-3.26a3.35,3.35,0,0,1-1.95-2.724,2.594,2.594,0,0,1,1.47-2.219l6.607-3.813a8,8,0,0,1,7.309.277l5.647,3.26a3.355,3.355,0,0,1,1.949,2.725,2.591,2.591,0,0,1-1.47,2.218l-6.606,3.813A6.554,6.554,0,0,1,457.637,255.508Zm-.4-12.547a5.3,5.3,0,0,0-2.582.582l-6.607,3.815a1.436,1.436,0,0,0-.842,1.135c0,.548.495,1.162,1.323,1.639l5.646,3.261a6.865,6.865,0,0,0,6.059.277l6.606-3.813a1.442,1.442,0,0,0,.843-1.135c0-.549-.494-1.163-1.322-1.642l-5.647-3.26A7.175,7.175,0,0,0,457.237,242.962Z" transform="translate(-224.949 -149.671)" fill="#065564"/>
        </g>
      </g>
      <g id="Group_6" data-name="Group 6" transform="translate(250.563 228.887)">
        <path id="Path_28" data-name="Path 28" d="M406.744,364.46a19.363,19.363,0,0,1-9.49-2.182L253.874,279.5c-2.567-1.482-3.981-3.565-3.981-5.865,0-2.728,2-5.448,5.5-7.465L395.734,185.14c6.418-3.7,16.176-4.1,21.758-.874L560.87,267.044c2.568,1.483,3.983,3.566,3.983,5.866,0,2.729-2,5.45-5.5,7.465L419.01,361.4A25.2,25.2,0,0,1,406.744,364.46Zm-8.823-3.337c5.212,3.008,14.375,2.615,20.422-.874l140.346-81.028c3.069-1.773,4.83-4.073,4.83-6.311,0-1.8-1.178-3.477-3.316-4.712L416.824,185.42c-5.212-3.009-14.374-2.616-20.424.874L256.056,267.322c-3.07,1.773-4.83,4.073-4.83,6.311,0,1.8,1.176,3.476,3.314,4.711Z" transform="translate(-249.893 -182.083)" fill="#58ddf5"/>
      </g>
      <g id="Group_7" data-name="Group 7" transform="translate(247.886 226.203)" opacity="0.3">
        <path id="Path_33" data-name="Path 33" d="M407.439,367.816a22.052,22.052,0,0,1-10.853-2.547l-143.38-82.78c-3.43-1.982-5.32-4.888-5.32-8.184,0-3.709,2.49-7.274,6.834-9.783l140.346-81.028c7.276-4.2,18.008-4.584,24.434-.875L562.878,265.4c3.432,1.981,5.32,4.888,5.322,8.184,0,3.709-2.491,7.276-6.836,9.784L421.018,364.395A27.776,27.776,0,0,1,407.439,367.816Zm-7.51-8.339c4.4,2.541,12.527,2.141,17.747-.874l140.346-81.028c2.577-1.487,3.49-3.081,3.49-3.992,0-1.091-1.239-1.969-1.977-2.394L416.157,188.41c-4.4-2.539-12.524-2.141-17.748.875L258.064,270.311c-2.578,1.488-3.492,3.081-3.492,3.993,0,1.088,1.239,1.966,1.978,2.393Z" transform="translate(-247.886 -180.071)" fill="#6ee8fc"/>
      </g>
      <g id="Group_92" data-name="Group 92" transform="translate(272.703 41.851)">
        <g id="Group_70" data-name="Group 70" transform="translate(75.76)">
          <g id="Group_68" data-name="Group 68" transform="translate(0 88.343)">
            <path id="Path_86" data-name="Path 86" d="M376.335,250.473l-43.694-25.227c-3.108-1.794-2.717-4.927.87-7l41.953-24.221c3.586-2.071,9.013-2.3,12.12-.5l43.7,25.227c3.106,1.794,2.717,4.927-.87,7L388.456,249.97C384.868,252.041,379.442,252.267,376.335,250.473Z" transform="translate(-320.876 -79.976)" fill="#58ddf5" opacity="0.3"/>
            <path id="Path_87" data-name="Path 87" d="M383.953,258.921a13.171,13.171,0,0,1-6.457-1.484l-51.472-29.717a4.751,4.751,0,0,1-2.729-4.027c0-1.87,1.367-3.733,3.753-5.111l49.42-28.533c4.361-2.514,11-2.782,14.8-.591l51.471,29.717a4.757,4.757,0,0,1,2.729,4.027c0,1.87-1.368,3.733-3.755,5.111l-49.42,28.532A17.123,17.123,0,0,1,383.953,258.921Zm-5.942-2.378c3.513,2.026,9.684,1.761,13.763-.591l49.418-28.533c2.058-1.19,3.238-2.726,3.238-4.217a3.782,3.782,0,0,0-2.213-3.133l-51.471-29.717c-3.513-2.027-9.687-1.759-13.763.591l-49.42,28.533c-2.058,1.19-3.238,2.726-3.238,4.217a3.785,3.785,0,0,0,2.213,3.133Z" transform="translate(-323.295 -81.425)" fill="#58ddf5"/>
            <path id="Path_88" data-name="Path 88" d="M433.375,134.132H411.7l-24.122-13.927c-3.106-1.794-8.533-1.568-12.12.5l-23.253,13.424H330.55v62.7h.007a3.514,3.514,0,0,0,2.082,3.246l43.694,25.228c3.108,1.794,8.533,1.569,12.121-.5l41.953-24.221c1.863-1.076,2.856-2.438,2.952-3.751h.016Z" transform="translate(-320.874 -104.447)" fill="#58ddf5"/>
            <path id="Path_89" data-name="Path 89" d="M430.407,180.354l-41.953,24.221c-3.588,2.071-9.014,2.3-12.121.5l-43.694-25.227a3.517,3.517,0,0,1-2.082-3.248h-.007v1h.007a3.514,3.514,0,0,0,2.082,3.246l43.694,25.228c3.108,1.794,8.533,1.569,12.121-.5l41.953-24.221c1.863-1.076,2.856-2.438,2.952-3.751h.016v-1h-.016C433.263,177.915,432.27,179.277,430.407,180.354Z" transform="translate(-320.874 -85.22)" fill="#18a7c3"/>
            <path id="Path_90" data-name="Path 90" d="M331.925,197.836h-.008v-62.7h21.659l23.253-13.424c3.588-2.071,9.014-2.3,12.121-.5l24.122,13.927h20.3v-1H411.7l-24.122-13.927c-3.106-1.794-8.533-1.568-12.12.5l-23.253,13.424H330.55v62.7h.007a3.514,3.514,0,0,0,2.082,3.246l.245.143A3.043,3.043,0,0,1,331.925,197.836Z" transform="translate(-320.874 -104.447)" fill="#18a7c3"/>
            <path id="Path_91" data-name="Path 91" d="M406.984,131.474V194.1h-.016a3.843,3.843,0,0,1-1.034,2.218,4.7,4.7,0,0,0,2.265-3.312h.016V130.456A6.4,6.4,0,0,0,406.984,131.474Z" transform="translate(-295.714 -100.621)" fill="#18a7c3"/>
            <path id="Path_92" data-name="Path 92" d="M376.335,166.247,332.641,141.02c-3.108-1.794-2.717-4.927.87-7L375.464,109.8c3.586-2.071,9.013-2.3,12.12-.5l43.7,25.228c3.106,1.794,2.717,4.927-.87,7l-41.953,24.222C384.868,167.816,379.442,168.041,376.335,166.247Z" transform="translate(-320.876 -108.087)" fill="#58ddf5"/>
            <path id="Path_93" data-name="Path 93" d="M418.717,134.525l-43.7-25.228a11.288,11.288,0,0,0-6.117-1.182,10.154,10.154,0,0,1,4.407,1.182l43.7,25.228c3.106,1.794,2.717,4.927-.87,7l-41.953,24.222a13.811,13.811,0,0,1-6,1.683,14.257,14.257,0,0,0,7.713-1.683l41.953-24.222C421.434,139.452,421.823,136.319,418.717,134.525Z" transform="translate(-308.314 -108.086)" fill="#18a7c3"/>
            <path id="Path_94" data-name="Path 94" d="M374.485,157.074l-32.53-18.782c-2.314-1.335-2.023-3.668.647-5.21l31.234-18.034c2.671-1.542,6.711-1.709,9.024-.373l32.53,18.782c2.313,1.335,2.023,3.668-.648,5.21L383.509,156.7C380.838,158.241,376.8,158.409,374.485,157.074Z" transform="translate(-317.589 -106.189)" fill="#18a7c3"/>
            <path id="Path_95" data-name="Path 95" d="M373,149.71,349.431,136.1c-1.675-.968-1.466-2.658.469-3.775l22.628-13.065a7.271,7.271,0,0,1,6.538-.271L402.636,132.6c1.675.967,1.464,2.658-.469,3.775l-22.628,13.065A7.271,7.271,0,0,1,373,149.71Z" transform="translate(-314.949 -104.665)" fill="#0f505c"/>
            <path id="Path_96" data-name="Path 96" d="M378.3,166.247,334.6,141.02c-3.106-1.794-2.717-4.927.871-7L377.423,109.8a13.806,13.806,0,0,1,5.909-1.678,14.287,14.287,0,0,0-7.868,1.678L333.51,134.022c-3.586,2.071-3.976,5.2-.87,7l43.694,25.227a11.333,11.333,0,0,0,6.214,1.175A10.006,10.006,0,0,1,378.3,166.247Z" transform="translate(-320.876 -108.087)" fill="#18a7c3"/>
            <g id="Group_65" data-name="Group 65" transform="translate(33.35 13.674)">
              <g id="Group_64" data-name="Group 64" clip-path="url(#clip-path)">
                <path id="Path_97" data-name="Path 97" d="M349.891,134.171,372.527,121.1a7.277,7.277,0,0,1,6.541-.271l23.577,13.612a2.492,2.492,0,0,1,.824.742,1.748,1.748,0,0,0-.824-2.582l-23.577-13.612a7.268,7.268,0,0,0-6.541.271l-22.636,13.069c-1.507.87-1.953,2.082-1.294,3.036A3.556,3.556,0,0,1,349.891,134.171Z" transform="translate(-348.3 -118.341)" fill="#bcf1fe"/>
                <path id="Path_98" data-name="Path 98" d="M349.89,135.929l22.636-13.069a7.268,7.268,0,0,1,6.541-.271L402.644,136.2a2.623,2.623,0,0,1,.69.576,1.761,1.761,0,0,0-.69-2.8l-23.577-13.612a7.277,7.277,0,0,0-6.541.271L349.89,133.71c-1.6.92-2,2.225-1.159,3.2A3.884,3.884,0,0,1,349.89,135.929Z" transform="translate(-348.299 -117.88)" fill="#88dfef"/>
                <path id="Path_99" data-name="Path 99" d="M348.961,138.814a4.17,4.17,0,0,1,.931-.73l22.636-13.069a7.268,7.268,0,0,1,6.541-.271l23.577,13.612a2.853,2.853,0,0,1,.461.336,1.787,1.787,0,0,0-.461-3.046l-23.577-13.612a7.268,7.268,0,0,0-6.541.271l-22.636,13.069C348.162,136.373,347.821,137.825,348.961,138.814Z" transform="translate(-348.301 -117.325)" fill="#50b7ce"/>
              </g>
            </g>
            <g id="Group_66" data-name="Group 66" transform="translate(72.599 51.905)">
              <path id="Path_101" data-name="Path 101" d="M381.277,195.583l-2.422,1.4c-.623.36-1.128-.021-1.128-.854V162.29a2.708,2.708,0,0,1,1.128-2.158l2.422-1.4c.624-.36,1.13.021,1.13.854v33.837A2.705,2.705,0,0,1,381.277,195.583Z" transform="translate(-377.727 -143.134)" fill="#18a7c3"/>
              <path id="Path_102" data-name="Path 102" d="M381.277,158.734l-.58.335V192.3a2.7,2.7,0,0,1-1.13,2.158l-1.841,1.063v.611c0,.832.505,1.214,1.128.854l2.422-1.4a2.7,2.7,0,0,0,1.13-2.158V159.588C382.407,158.755,381.9,158.374,381.277,158.734Z" transform="translate(-377.727 -143.134)" fill="#fff"/>
              <path id="Path_103" data-name="Path 103" d="M387.971,191.718l-2.422,1.4c-.623.36-1.128-.023-1.128-.855V158.425a2.71,2.71,0,0,1,1.128-2.158l2.422-1.4c.624-.36,1.13.023,1.13.854V189.56A2.7,2.7,0,0,1,387.971,191.718Z" transform="translate(-375.493 -144.424)" fill="#18a7c3"/>
              <path id="Path_104" data-name="Path 104" d="M394.665,187.853l-2.422,1.4c-.623.36-1.128-.023-1.128-.854V154.561a2.706,2.706,0,0,1,1.128-2.158l2.422-1.4c.624-.36,1.13.023,1.13.854v33.837A2.7,2.7,0,0,1,394.665,187.853Z" transform="translate(-373.259 -145.714)" fill="#18a7c3"/>
              <path id="Path_105" data-name="Path 105" d="M401.36,183.989l-2.422,1.4c-.623.36-1.13-.023-1.13-.854V150.7a2.707,2.707,0,0,1,1.13-2.158l2.422-1.4c.624-.359,1.13.023,1.13.855v33.837A2.705,2.705,0,0,1,401.36,183.989Z" transform="translate(-371.025 -147.004)" fill="#18a7c3"/>
              <path id="Path_106" data-name="Path 106" d="M387.971,154.869l-.58.335v33.228a2.707,2.707,0,0,1-1.13,2.158l-1.841,1.063v.61c0,.832.505,1.215,1.128.855l2.422-1.4a2.7,2.7,0,0,0,1.13-2.158V155.723C389.1,154.892,388.6,154.509,387.971,154.869Z" transform="translate(-375.493 -144.424)" fill="#fff"/>
              <path id="Path_107" data-name="Path 107" d="M394.665,151l-.58.335v33.228a2.705,2.705,0,0,1-1.13,2.158l-1.841,1.063v.611c0,.831.505,1.214,1.128.854l2.422-1.4a2.7,2.7,0,0,0,1.13-2.158V151.858C395.8,151.027,395.29,150.644,394.665,151Z" transform="translate(-373.259 -145.714)" fill="#fff"/>
              <path id="Path_108" data-name="Path 108" d="M401.36,147.139l-.58.336V180.7a2.7,2.7,0,0,1-1.13,2.158l-1.842,1.063v.611c0,.831.507,1.214,1.13.854l2.422-1.4a2.705,2.705,0,0,0,1.13-2.158V147.994C402.489,147.161,401.984,146.78,401.36,147.139Z" transform="translate(-371.025 -147.004)" fill="#fff"/>
            </g>
            <path id="Path_109" data-name="Path 109" d="M370.783,204.43a1.79,1.79,0,0,1-.89-.261L338.338,185.95a4.569,4.569,0,0,1-1.953-3.7V146.448a1.926,1.926,0,0,1,.795-1.751,1.5,1.5,0,0,1,1.529.095l31.555,18.218a4.579,4.579,0,0,1,1.953,3.7v35.806a1.923,1.923,0,0,1-.8,1.75A1.269,1.269,0,0,1,370.783,204.43Zm-32.961-59.16a.532.532,0,0,0-.269.071,1.25,1.25,0,0,0-.425,1.107v35.806a3.882,3.882,0,0,0,1.58,3.053l31.558,18.219a.807.807,0,0,0,.784.093,1.253,1.253,0,0,0,.424-1.107V166.706a3.891,3.891,0,0,0-1.581-3.054l-31.555-18.218A1.092,1.092,0,0,0,337.821,145.27Z" transform="translate(-318.926 -95.924)" fill="#18a7c3"/>
            <g id="Group_67" data-name="Group 67" transform="translate(20.559 54.669)">
              <path id="Path_110" data-name="Path 110" d="M341.781,151.946c0,.979-.687,1.376-1.535.887a3.4,3.4,0,0,1-1.536-2.661c0-.979.688-1.376,1.536-.886A3.393,3.393,0,0,1,341.781,151.946Z" transform="translate(-338.709 -149.076)" fill="#18a7c3"/>
              <path id="Path_111" data-name="Path 111" d="M341.781,155.682c0,.979-.687,1.376-1.535.887a3.4,3.4,0,0,1-1.536-2.661c0-.979.688-1.376,1.536-.887A3.393,3.393,0,0,1,341.781,155.682Z" transform="translate(-338.709 -147.829)" fill="#18a7c3"/>
              <path id="Path_112" data-name="Path 112" d="M341.781,159.418c0,.979-.687,1.376-1.535.886a3.394,3.394,0,0,1-1.536-2.66c0-.98.688-1.376,1.536-.887A3.393,3.393,0,0,1,341.781,159.418Z" transform="translate(-338.709 -146.583)" fill="#18a7c3"/>
              <path id="Path_113" data-name="Path 113" d="M341.015,159.695a3.391,3.391,0,0,1-1.536-2.661,1.536,1.536,0,0,1,.076-.48c-.5,0-.846.4-.846,1.088a3.394,3.394,0,0,0,1.536,2.66c.688.4,1.264.2,1.459-.405A1.359,1.359,0,0,1,341.015,159.695Z" transform="translate(-338.709 -146.581)" fill="#fff"/>
              <path id="Path_114" data-name="Path 114" d="M341.015,155.957a3.391,3.391,0,0,1-1.536-2.661,1.536,1.536,0,0,1,.076-.48c-.5,0-.846.4-.846,1.088a3.394,3.394,0,0,0,1.536,2.66c.688.4,1.264.2,1.459-.405A1.359,1.359,0,0,1,341.015,155.957Z" transform="translate(-338.709 -147.828)" fill="#fff"/>
              <path id="Path_115" data-name="Path 115" d="M341.015,152.219a3.391,3.391,0,0,1-1.536-2.661,1.529,1.529,0,0,1,.076-.48c-.5,0-.846.4-.846,1.088a3.394,3.394,0,0,0,1.536,2.66c.688.4,1.264.2,1.459-.405A1.359,1.359,0,0,1,341.015,152.219Z" transform="translate(-338.709 -149.076)" fill="#fff"/>
            </g>
            <path id="Path_116" data-name="Path 116" d="M360.44,177.808l-1.016-.587a1.371,1.371,0,0,1-.572-1.094v-4.883c0-.421.256-.615.572-.433l1.016.588a1.367,1.367,0,0,1,.572,1.092v4.884C361.013,177.8,360.757,177.989,360.44,177.808Z" transform="translate(-311.428 -87.175)" fill="#18a7c3"/>
          </g>
          <path id="Path_117" data-name="Path 117" d="M403.757,41.851H348.331V160.01l0,0a1.939,1.939,0,0,0,1.127,1.63l23.55,13.6a7.26,7.26,0,0,0,6.533-.271l22.612-13.055a2.772,2.772,0,0,0,1.59-2.018l.009-.005Z" transform="translate(-314.939 -41.851)" opacity="0.2" fill="url(#linear-gradient)" style="mix-blend-mode: lighten;isolation: isolate"/>
          <path id="Path_118" data-name="Path 118" d="M400.467,50.3H350.3V157.236h0a1.754,1.754,0,0,0,1.019,1.475l21.315,12.305a6.574,6.574,0,0,0,5.913-.244l20.464-11.816a2.511,2.511,0,0,0,1.44-1.827l.008,0Z" transform="translate(-314.281 -39.032)" opacity="0.25" fill="url(#linear-gradient-2)" style="mix-blend-mode: lighten;isolation: isolate"/>
          <g id="Group_69" data-name="Group 69" transform="translate(44.559 18.889)">
            <path id="Path_119" data-name="Path 119" d="M361.831,123.534a2.063,2.063,0,1,1-2.063-2.063A2.064,2.064,0,0,1,361.831,123.534Z" transform="translate(-357.704 -42.419)" fill="#1091aa"/>
            <circle id="Ellipse_5" data-name="Ellipse 5" cx="3.525" cy="3.525" r="3.525" transform="translate(15.432 72.003)" fill="#1091aa"/>
            <path id="Path_120" data-name="Path 120" d="M368.794,111.184a.906.906,0,1,1-.906-.906A.906.906,0,0,1,368.794,111.184Z" transform="translate(-353.273 -37.902)" fill="#1091aa"/>
            <circle id="Ellipse_6" data-name="Ellipse 6" cx="1.762" cy="1.762" r="1.762" transform="translate(28.241 53.822)" fill="#1091aa"/>
            <circle id="Ellipse_7" data-name="Ellipse 7" cx="1.246" cy="1.246" r="1.246" transform="translate(19.473 39.38)" fill="#1091aa"/>
            <path id="Path_121" data-name="Path 121" d="M363.621,79.883a2.258,2.258,0,1,1-2.258-2.257A2.258,2.258,0,0,1,363.621,79.883Z" transform="translate(-355.903 -48.8)" fill="#1091aa"/>
            <circle id="Ellipse_8" data-name="Ellipse 8" cx="1.258" cy="1.258" r="1.258" transform="translate(10.825 10.935)" fill="#1091aa"/>
            <circle id="Ellipse_9" data-name="Ellipse 9" cx="1.482" cy="1.482" r="1.482" transform="translate(20.111 19.093)" fill="#1091aa"/>
            <path id="Path_122" data-name="Path 122" d="M375.19,69.3a.716.716,0,1,1-.716-.716A.716.716,0,0,1,375.19,69.3Z" transform="translate(-351.012 -51.818)" fill="#1091aa"/>
            <path id="Path_123" data-name="Path 123" d="M382.847,58.083a2.071,2.071,0,1,1-2.07-2.07A2.071,2.071,0,0,1,382.847,58.083Z" transform="translate(-349.361 -56.013)" fill="#1091aa"/>
          </g>
        </g>
        <g id="Group_77" data-name="Group 77" transform="translate(0 47.059)">
          <g id="Group_75" data-name="Group 75" transform="translate(0 88.343)">
            <path id="Path_124" data-name="Path 124" d="M319.534,285.756l-43.7-25.227c-3.106-1.794-2.717-4.927.871-7l41.952-24.221c3.588-2.071,9.015-2.3,12.121-.5l43.7,25.227c3.106,1.794,2.717,4.927-.871,7l-41.952,24.221C328.067,287.324,322.64,287.55,319.534,285.756Z" transform="translate(-264.074 -115.26)" fill="#58ddf5" opacity="0.3"/>
            <path id="Path_125" data-name="Path 125" d="M327.152,294.2a13.173,13.173,0,0,1-6.458-1.484L269.223,263a4.756,4.756,0,0,1-2.73-4.027c0-1.87,1.368-3.733,3.755-5.111l49.42-28.532c4.36-2.518,11-2.784,14.794-.592l51.472,29.717a4.755,4.755,0,0,1,2.729,4.027c0,1.87-1.368,3.733-3.755,5.111l-49.42,28.533A17.144,17.144,0,0,1,327.152,294.2Zm-5.942-2.378c3.51,2.026,9.683,1.761,13.762-.591L384.393,262.7c2.058-1.188,3.237-2.726,3.237-4.217a3.785,3.785,0,0,0-2.213-3.133l-51.472-29.717c-3.512-2.025-9.683-1.761-13.762.592l-49.42,28.532c-2.058,1.19-3.238,2.726-3.237,4.217a3.778,3.778,0,0,0,2.211,3.133Z" transform="translate(-266.493 -116.708)" fill="#58ddf5"/>
            <path id="Path_126" data-name="Path 126" d="M376.572,169.416H354.9l-24.122-13.928c-3.106-1.793-8.533-1.568-12.121.5l-23.251,13.426H273.749v62.7h.007a3.515,3.515,0,0,0,2.081,3.248l43.7,25.227c3.106,1.794,8.533,1.568,12.121-.5L373.6,235.867c1.865-1.076,2.857-2.438,2.952-3.751h.016Z" transform="translate(-264.072 -139.73)" fill="#58ddf5"/>
            <path id="Path_127" data-name="Path 127" d="M373.6,215.637l-41.952,24.221c-3.588,2.071-9.015,2.3-12.121.5l-43.7-25.227a3.514,3.514,0,0,1-2.081-3.248h-.007v1h.007a3.515,3.515,0,0,0,2.081,3.248l43.7,25.227c3.106,1.794,8.533,1.568,12.121-.5L373.6,216.639c1.865-1.076,2.857-2.438,2.952-3.751h.016v-1h-.016C376.462,213.2,375.469,214.56,373.6,215.637Z" transform="translate(-264.072 -120.503)" fill="#18a7c3"/>
            <path id="Path_128" data-name="Path 128" d="M275.123,233.119h-.007v-62.7h21.659l23.253-13.424c3.586-2.071,9.014-2.3,12.12-.5l24.122,13.927h20.3v-1H354.9l-24.122-13.928c-3.106-1.793-8.533-1.568-12.121.5l-23.251,13.426H273.749v62.7h.007a3.515,3.515,0,0,0,2.081,3.248l.247.141A3.049,3.049,0,0,1,275.123,233.119Z" transform="translate(-264.072 -139.73)" fill="#18a7c3"/>
            <path id="Path_129" data-name="Path 129" d="M350.183,166.757v62.628h-.016a3.851,3.851,0,0,1-1.034,2.218,4.689,4.689,0,0,0,2.263-3.312h.016V165.739A6.439,6.439,0,0,0,350.183,166.757Z" transform="translate(-238.912 -135.905)" fill="#18a7c3"/>
            <path id="Path_130" data-name="Path 130" d="M319.534,201.53l-43.7-25.227c-3.106-1.794-2.717-4.927.871-7l41.952-24.221c3.588-2.071,9.015-2.3,12.121-.5l43.7,25.228c3.106,1.794,2.717,4.927-.871,7l-41.952,24.221C328.067,203.1,322.64,203.323,319.534,201.53Z" transform="translate(-264.074 -143.37)" fill="#58ddf5"/>
            <path id="Path_131" data-name="Path 131" d="M361.916,169.808l-43.7-25.228A11.291,11.291,0,0,0,312.1,143.4a10.153,10.153,0,0,1,4.407,1.182l43.7,25.228c3.106,1.794,2.717,4.927-.871,7l-41.952,24.221a13.842,13.842,0,0,1-6,1.685,14.272,14.272,0,0,0,7.714-1.685l41.952-24.221C364.633,174.735,365.023,171.6,361.916,169.808Z" transform="translate(-251.512 -143.369)" fill="#18a7c3"/>
            <path id="Path_132" data-name="Path 132" d="M317.684,192.357l-32.532-18.782c-2.313-1.335-2.022-3.668.648-5.21l31.234-18.032c2.67-1.542,6.71-1.71,9.024-.375l32.53,18.782c2.313,1.335,2.023,3.668-.648,5.21l-31.234,18.032C324.037,193.526,320,193.692,317.684,192.357Z" transform="translate(-260.786 -141.472)" fill="#18a7c3"/>
            <path id="Path_133" data-name="Path 133" d="M316.2,184.993,292.63,171.386c-1.675-.968-1.466-2.658.47-3.775l22.628-13.065a7.271,7.271,0,0,1,6.538-.271l23.567,13.607c1.677.968,1.466,2.658-.469,3.775l-22.628,13.065A7.268,7.268,0,0,1,316.2,184.993Z" transform="translate(-258.147 -139.949)" fill="#115061"/>
            <path id="Path_134" data-name="Path 134" d="M321.495,201.53,277.8,176.3c-3.106-1.794-2.717-4.927.87-7l41.953-24.221a13.805,13.805,0,0,1,5.909-1.678,14.3,14.3,0,0,0-7.869,1.678L276.71,169.3c-3.588,2.071-3.977,5.2-.871,7l43.7,25.227a11.331,11.331,0,0,0,6.213,1.176A10.025,10.025,0,0,1,321.495,201.53Z" transform="translate(-264.074 -143.37)" fill="#18a7c3"/>
            <g id="Group_72" data-name="Group 72" transform="translate(33.352 13.674)">
              <g id="Group_71" data-name="Group 71" clip-path="url(#clip-path-2)">
                <path id="Path_135" data-name="Path 135" d="M293.089,169.454l22.638-13.069a7.273,7.273,0,0,1,6.541-.272l23.577,13.612a2.475,2.475,0,0,1,.823.742,1.746,1.746,0,0,0-.823-2.582l-23.577-13.612a7.268,7.268,0,0,0-6.541.271l-22.638,13.069c-1.506.87-1.953,2.082-1.292,3.036A3.551,3.551,0,0,1,293.089,169.454Z" transform="translate(-291.499 -153.624)" fill="#bcf1ff"/>
                <path id="Path_136" data-name="Path 136" d="M293.088,171.212l22.638-13.069a7.273,7.273,0,0,1,6.541-.271l23.577,13.612a2.649,2.649,0,0,1,.69.576,1.761,1.761,0,0,0-.69-2.8l-23.577-13.612a7.273,7.273,0,0,0-6.541.272l-22.638,13.069c-1.594.92-2,2.225-1.159,3.2A3.9,3.9,0,0,1,293.088,171.212Z" transform="translate(-291.498 -153.163)" fill="#88dfef"/>
                <path id="Path_137" data-name="Path 137" d="M292.16,174.1a4.1,4.1,0,0,1,.93-.731L315.728,160.3a7.268,7.268,0,0,1,6.541-.271l23.577,13.612a2.924,2.924,0,0,1,.46.336,1.787,1.787,0,0,0-.46-3.046l-23.577-13.612a7.273,7.273,0,0,0-6.541.271L293.09,170.657C291.361,171.656,291.02,173.108,292.16,174.1Z" transform="translate(-291.5 -152.608)" fill="#42b2c6"/>
              </g>
            </g>
            <g id="Group_73" data-name="Group 73" transform="translate(72.599 51.906)">
              <path id="Path_139" data-name="Path 139" d="M324.477,230.866l-2.422,1.4c-.624.36-1.13-.021-1.13-.854V197.573a2.705,2.705,0,0,1,1.13-2.158l2.422-1.4c.624-.36,1.13.021,1.13.854v33.837A2.7,2.7,0,0,1,324.477,230.866Z" transform="translate(-320.925 -178.418)" fill="#18a7c3"/>
              <path id="Path_140" data-name="Path 140" d="M324.477,194.017l-.58.335V227.58a2.7,2.7,0,0,1-1.13,2.157l-1.842,1.063v.611c0,.832.505,1.214,1.13.854l2.422-1.4a2.7,2.7,0,0,0,1.13-2.158V194.871C325.606,194.038,325.1,193.657,324.477,194.017Z" transform="translate(-320.925 -178.418)" fill="#fff"/>
              <path id="Path_141" data-name="Path 141" d="M331.171,227l-2.422,1.4c-.624.36-1.13-.023-1.13-.854V193.708a2.7,2.7,0,0,1,1.13-2.157l2.422-1.4c.624-.36,1.13.023,1.13.854v33.837A2.7,2.7,0,0,1,331.171,227Z" transform="translate(-318.691 -179.708)" fill="#18a7c3"/>
              <path id="Path_142" data-name="Path 142" d="M337.865,223.136l-2.422,1.4c-.624.36-1.13-.023-1.13-.854V189.844a2.7,2.7,0,0,1,1.13-2.158l2.422-1.4c.624-.36,1.13.023,1.13.855v33.837A2.7,2.7,0,0,1,337.865,223.136Z" transform="translate(-316.457 -180.998)" fill="#18a7c3"/>
              <path id="Path_143" data-name="Path 143" d="M344.559,219.272l-2.422,1.4c-.624.36-1.13-.021-1.13-.854V185.979a2.7,2.7,0,0,1,1.13-2.158l2.422-1.4c.623-.36,1.13.021,1.13.854v33.837A2.709,2.709,0,0,1,344.559,219.272Z" transform="translate(-314.223 -182.287)" fill="#18a7c3"/>
              <path id="Path_144" data-name="Path 144" d="M331.171,190.152l-.58.335v33.228a2.705,2.705,0,0,1-1.13,2.158l-1.842,1.063v.611c0,.831.505,1.214,1.13.854l2.422-1.4a2.7,2.7,0,0,0,1.13-2.158V191.005C332.3,190.175,331.795,189.792,331.171,190.152Z" transform="translate(-318.691 -179.708)" fill="#fff"/>
              <path id="Path_145" data-name="Path 145" d="M337.865,186.287l-.58.336v33.226a2.7,2.7,0,0,1-1.13,2.158l-1.842,1.063v.611c0,.831.505,1.214,1.13.854l2.422-1.4a2.706,2.706,0,0,0,1.13-2.157V187.142C338.995,186.31,338.488,185.927,337.865,186.287Z" transform="translate(-316.457 -180.998)" fill="#fff"/>
              <path id="Path_146" data-name="Path 146" d="M344.559,182.423l-.58.335v33.226a2.707,2.707,0,0,1-1.13,2.158l-1.842,1.063v.611c0,.832.505,1.214,1.13.854l2.422-1.4a2.708,2.708,0,0,0,1.128-2.158V183.277C345.687,182.444,345.182,182.063,344.559,182.423Z" transform="translate(-314.223 -182.287)" fill="#fff"/>
            </g>
            <path id="Path_147" data-name="Path 147" d="M313.979,239.715a1.8,1.8,0,0,1-.887-.263l-31.557-18.219a4.573,4.573,0,0,1-1.951-3.7V181.731a1.92,1.92,0,0,1,.8-1.75,1.489,1.489,0,0,1,1.526.093l31.555,18.218a4.576,4.576,0,0,1,1.953,3.7V237.8a1.93,1.93,0,0,1-.795,1.75A1.263,1.263,0,0,1,313.979,239.715Zm-.517-.906a.8.8,0,0,0,.786.093,1.257,1.257,0,0,0,.425-1.107V201.99a3.89,3.89,0,0,0-1.582-3.054l-31.555-18.218a.809.809,0,0,0-.786-.093,1.253,1.253,0,0,0-.424,1.107v35.806a3.886,3.886,0,0,0,1.581,3.053Z" transform="translate(-262.124 -131.208)" fill="#18a7c3"/>
            <g id="Group_74" data-name="Group 74" transform="translate(20.56 54.669)">
              <path id="Path_148" data-name="Path 148" d="M284.98,187.229c0,.98-.688,1.376-1.536.887a3.393,3.393,0,0,1-1.535-2.659c0-.98.687-1.378,1.535-.887A3.394,3.394,0,0,1,284.98,187.229Z" transform="translate(-281.908 -184.359)" fill="#18a7c3"/>
              <path id="Path_149" data-name="Path 149" d="M284.98,190.965c0,.979-.688,1.376-1.536.887a3.394,3.394,0,0,1-1.535-2.661c0-.979.687-1.376,1.535-.887A3.4,3.4,0,0,1,284.98,190.965Z" transform="translate(-281.908 -183.113)" fill="#18a7c3"/>
              <path id="Path_150" data-name="Path 150" d="M284.98,194.7c0,.979-.688,1.376-1.536.887a3.4,3.4,0,0,1-1.535-2.661c0-.98.687-1.376,1.535-.887A3.4,3.4,0,0,1,284.98,194.7Z" transform="translate(-281.908 -181.866)" fill="#18a7c3"/>
              <path id="Path_151" data-name="Path 151" d="M284.213,194.978a3.393,3.393,0,0,1-1.535-2.66,1.545,1.545,0,0,1,.076-.481c-.5,0-.846.4-.846,1.088a3.4,3.4,0,0,0,1.535,2.661c.69.4,1.266.2,1.46-.407A1.364,1.364,0,0,1,284.213,194.978Z" transform="translate(-281.908 -181.864)" fill="#fff"/>
              <path id="Path_152" data-name="Path 152" d="M284.213,191.24a3.393,3.393,0,0,1-1.535-2.661,1.542,1.542,0,0,1,.076-.48c-.5,0-.846.4-.846,1.088a3.393,3.393,0,0,0,1.535,2.66c.69.4,1.266.2,1.46-.405A1.364,1.364,0,0,1,284.213,191.24Z" transform="translate(-281.908 -183.111)" fill="#fff"/>
              <path id="Path_153" data-name="Path 153" d="M284.213,187.5a3.394,3.394,0,0,1-1.535-2.661,1.536,1.536,0,0,1,.076-.48c-.5,0-.846.4-.846,1.088a3.393,3.393,0,0,0,1.535,2.66c.69.4,1.266.2,1.46-.405A1.364,1.364,0,0,1,284.213,187.5Z" transform="translate(-281.908 -184.359)" fill="#fff"/>
            </g>
            <path id="Path_154" data-name="Path 154" d="M303.638,213.091l-1.016-.587a1.371,1.371,0,0,1-.572-1.094v-4.883c0-.421.256-.615.572-.432l1.016.587a1.367,1.367,0,0,1,.572,1.092v4.884C304.211,213.08,303.955,213.274,303.638,213.091Z" transform="translate(-254.626 -122.459)" fill="#18a7c3"/>
          </g>
          <path id="Path_155" data-name="Path 155" d="M346.954,77.134H291.53v90.793l0,0c0,.469.372.917,1.127,1.252l23.551,10.447a9.234,9.234,0,0,0,6.533-.208l22.611-10.031c1-.445,1.538-1.008,1.591-1.551l.008,0Z" transform="translate(-258.137 -46.09)" opacity="0.2" fill="url(#linear-gradient-3)" style="mix-blend-mode: lighten;isolation: isolate"/>
          <path id="Path_156" data-name="Path 156" d="M343.664,85.581H293.5V192.519h0a1.759,1.759,0,0,0,1.02,1.475L315.841,206.3a6.571,6.571,0,0,0,5.911-.244l20.465-11.816a2.509,2.509,0,0,0,1.439-1.826l.008-.005Z" transform="translate(-257.478 -74.315)" opacity="0.15" fill="url(#linear-gradient-4)" style="mix-blend-mode: lighten;isolation: isolate"/>
          <g id="Group_76" data-name="Group 76" transform="translate(45.894 18.889)">
            <circle id="Ellipse_10" data-name="Ellipse 10" cx="2.063" cy="2.063" r="2.063" transform="translate(0 87.305)" fill="#1091aa"/>
            <circle id="Ellipse_11" data-name="Ellipse 11" cx="3.525" cy="3.525" r="3.525" transform="translate(14.098 72.004)" fill="#1091aa"/>
            <circle id="Ellipse_12" data-name="Ellipse 12" cx="0.905" cy="0.905" r="0.905" transform="translate(12.376 72.377)" fill="#1091aa"/>
            <circle id="Ellipse_13" data-name="Ellipse 13" cx="1.762" cy="1.762" r="1.762" transform="translate(26.907 53.822)" fill="#1091aa"/>
            <circle id="Ellipse_14" data-name="Ellipse 14" cx="1.246" cy="1.246" r="1.246" transform="translate(18.139 39.38)" fill="#1091aa"/>
            <circle id="Ellipse_15" data-name="Ellipse 15" cx="2.258" cy="2.258" r="2.258" transform="translate(1.868 28.826)" fill="#1091aa"/>
            <path id="Path_157" data-name="Path 157" d="M310.534,100.753a1.258,1.258,0,1,1-1.258-1.258A1.257,1.257,0,0,1,310.534,100.753Z" transform="translate(-298.527 -88.56)" fill="#1091aa"/>
            <path id="Path_158" data-name="Path 158" d="M317.945,107.093a1.482,1.482,0,1,1-1.482-1.482A1.481,1.481,0,0,1,317.945,107.093Z" transform="translate(-296.204 -86.518)" fill="#1091aa"/>
            <path id="Path_159" data-name="Path 159" d="M318.389,104.581a.716.716,0,1,1-.716-.716A.716.716,0,0,1,318.389,104.581Z" transform="translate(-295.544 -87.101)" fill="#1091aa"/>
            <path id="Path_160" data-name="Path 160" d="M326.046,93.367a2.071,2.071,0,1,1-2.071-2.071A2.071,2.071,0,0,1,326.046,93.367Z" transform="translate(-293.893 -91.296)" fill="#1091aa"/>
          </g>
        </g>
        <g id="Group_84" data-name="Group 84" transform="translate(150.183 46.575)">
          <g id="Group_82" data-name="Group 82" transform="translate(0 88.343)">
            <path id="Path_161" data-name="Path 161" d="M432.135,285.393l-43.7-25.227c-3.106-1.794-2.717-4.927.871-7l41.952-24.221c3.588-2.071,9.015-2.3,12.121-.5l43.7,25.227c3.106,1.794,2.717,4.927-.871,7L444.256,284.89C440.668,286.961,435.241,287.187,432.135,285.393Z" transform="translate(-376.676 -114.896)" fill="#58ddf5" opacity="0.3"/>
            <path id="Path_162" data-name="Path 162" d="M439.753,293.841a13.173,13.173,0,0,1-6.458-1.484l-51.471-29.717a4.754,4.754,0,0,1-2.729-4.028c0-1.869,1.367-3.732,3.753-5.108l49.42-28.534c4.361-2.517,11-2.782,14.794-.591l51.471,29.717a4.754,4.754,0,0,1,2.729,4.028c0,1.87-1.367,3.732-3.753,5.11l-49.42,28.532A17.122,17.122,0,0,1,439.753,293.841Zm-5.942-2.378c3.514,2.027,9.686,1.761,13.762-.592l49.42-28.532c2.058-1.188,3.238-2.725,3.238-4.216a3.78,3.78,0,0,0-2.213-3.134l-51.472-29.717c-3.51-2.027-9.686-1.761-13.762.591L383.364,254.4c-2.058,1.187-3.238,2.725-3.238,4.215a3.78,3.78,0,0,0,2.213,3.133Z" transform="translate(-379.095 -116.345)" fill="#58ddf5"/>
            <path id="Path_163" data-name="Path 163" d="M489.173,169.052H467.5l-24.122-13.927c-3.106-1.794-8.533-1.569-12.121.5l-23.251,13.424H386.35v62.7h.007A3.512,3.512,0,0,0,388.438,235l43.7,25.228c3.106,1.794,8.533,1.569,12.121-.5L486.206,235.5c1.865-1.076,2.856-2.438,2.952-3.751h.016Z" transform="translate(-376.674 -139.367)" fill="#58ddf5"/>
            <path id="Path_164" data-name="Path 164" d="M486.206,215.274l-41.952,24.221c-3.588,2.071-9.015,2.3-12.121.5l-43.7-25.227a3.515,3.515,0,0,1-2.081-3.248h-.007v1h.007a3.512,3.512,0,0,0,2.081,3.246L432.133,241c3.106,1.794,8.533,1.569,12.121-.5l41.952-24.221c1.865-1.076,2.856-2.438,2.952-3.751h.016v-1h-.016C489.061,212.835,488.07,214.2,486.206,215.274Z" transform="translate(-376.674 -120.14)" fill="#18a7c3"/>
            <path id="Path_165" data-name="Path 165" d="M387.724,232.756h-.007v-62.7h21.659l23.253-13.424c3.586-2.071,9.013-2.3,12.12-.5l24.122,13.927h20.3v-1H467.5l-24.122-13.927c-3.106-1.794-8.533-1.569-12.121.5l-23.251,13.424H386.35v62.7h.007A3.512,3.512,0,0,0,388.438,235l.247.143A3.049,3.049,0,0,1,387.724,232.756Z" transform="translate(-376.674 -139.367)" fill="#18a7c3"/>
            <path id="Path_166" data-name="Path 166" d="M462.784,166.394v62.628h-.017a3.84,3.84,0,0,1-1.032,2.218A4.69,4.69,0,0,0,464,227.928h.016V165.376A6.39,6.39,0,0,0,462.784,166.394Z" transform="translate(-351.514 -135.541)" fill="#18a7c3"/>
            <path id="Path_167" data-name="Path 167" d="M432.135,201.167l-43.7-25.227c-3.106-1.794-2.717-4.927.871-7l41.952-24.221c3.588-2.071,9.015-2.3,12.121-.5l43.7,25.228c3.106,1.794,2.717,4.926-.871,7l-41.952,24.222C440.668,202.736,435.241,202.961,432.135,201.167Z" transform="translate(-376.676 -143.007)" fill="#58ddf5"/>
            <path id="Path_168" data-name="Path 168" d="M474.517,169.445l-43.7-25.228a11.291,11.291,0,0,0-6.117-1.182,10.153,10.153,0,0,1,4.407,1.182l43.7,25.228c3.106,1.794,2.717,4.926-.871,7l-41.952,24.222a13.822,13.822,0,0,1-6,1.683,14.262,14.262,0,0,0,7.714-1.683l41.952-24.222C477.234,174.37,477.624,171.239,474.517,169.445Z" transform="translate(-364.114 -143.006)" fill="#18a7c3"/>
            <path id="Path_169" data-name="Path 169" d="M430.285,191.994l-32.532-18.782c-2.313-1.335-2.022-3.668.648-5.21l31.234-18.034c2.67-1.542,6.71-1.709,9.024-.373l32.53,18.782c2.313,1.335,2.023,3.668-.648,5.21L439.308,191.62C436.638,193.161,432.6,193.329,430.285,191.994Z" transform="translate(-373.389 -141.109)" fill="#18a7c3"/>
            <path id="Path_170" data-name="Path 170" d="M428.8,184.63l-23.567-13.607c-1.677-.968-1.466-2.658.469-3.776l22.628-13.064a7.271,7.271,0,0,1,6.538-.271l23.567,13.607c1.677.967,1.466,2.657-.469,3.775l-22.628,13.065A7.271,7.271,0,0,1,428.8,184.63Z" transform="translate(-370.75 -139.585)" fill="#0f505c"/>
            <path id="Path_171" data-name="Path 171" d="M434.1,201.167,390.4,175.94c-3.106-1.794-2.717-4.927.87-7l41.953-24.221a13.786,13.786,0,0,1,5.907-1.678,14.289,14.289,0,0,0-7.868,1.678l-41.952,24.221c-3.588,2.071-3.977,5.2-.871,7l43.7,25.227a11.331,11.331,0,0,0,6.213,1.175A10,10,0,0,1,434.1,201.167Z" transform="translate(-376.676 -143.007)" fill="#18a7c3"/>
            <g id="Group_79" data-name="Group 79" transform="translate(33.35 13.674)">
              <g id="Group_78" data-name="Group 78" clip-path="url(#clip-path-3)">
                <path id="Path_172" data-name="Path 172" d="M405.69,169.091l22.638-13.071a7.274,7.274,0,0,1,6.539-.271l23.578,13.612a2.475,2.475,0,0,1,.823.742,1.746,1.746,0,0,0-.823-2.582l-23.578-13.612a7.266,7.266,0,0,0-6.539.271L405.69,167.249c-1.506.87-1.953,2.082-1.292,3.036A3.552,3.552,0,0,1,405.69,169.091Z" transform="translate(-404.099 -153.261)" fill="#bcf1fe"/>
                <path id="Path_173" data-name="Path 173" d="M405.689,170.849l22.638-13.069a7.266,7.266,0,0,1,6.539-.271l23.578,13.612a2.623,2.623,0,0,1,.69.576,1.761,1.761,0,0,0-.69-2.8l-23.578-13.612a7.274,7.274,0,0,0-6.539.271L405.689,168.63c-1.594.92-2,2.225-1.159,3.2A3.9,3.9,0,0,1,405.689,170.849Z" transform="translate(-404.098 -152.8)" fill="#88dfef"/>
                <path id="Path_174" data-name="Path 174" d="M404.761,173.734a4.131,4.131,0,0,1,.93-.73l22.638-13.069a7.266,7.266,0,0,1,6.539-.271l23.578,13.612a2.845,2.845,0,0,1,.46.336,1.787,1.787,0,0,0-.46-3.046l-23.578-13.612a7.266,7.266,0,0,0-6.539.271l-22.638,13.069C403.962,171.293,403.621,172.745,404.761,173.734Z" transform="translate(-404.1 -152.245)" fill="#4bb4c9"/>
              </g>
            </g>
            <g id="Group_80" data-name="Group 80" transform="translate(72.598 51.905)">
              <g id="Group_431" data-name="Group 431">
                <path id="Path_176" data-name="Path 176" d="M437.078,230.5l-2.422,1.4c-.624.36-1.13-.021-1.13-.854V197.21a2.705,2.705,0,0,1,1.13-2.158l2.422-1.4c.624-.36,1.13.021,1.13.854v33.837A2.705,2.705,0,0,1,437.078,230.5Z" transform="translate(-433.526 -178.054)" fill="#18a7c3"/>
                <path id="Path_178" data-name="Path 178" d="M443.772,226.638l-2.422,1.4c-.624.36-1.13-.023-1.13-.855V193.345a2.7,2.7,0,0,1,1.13-2.157l2.422-1.4c.624-.36,1.13.023,1.13.854V224.48A2.7,2.7,0,0,1,443.772,226.638Z" transform="translate(-431.292 -179.344)" fill="#18a7c3"/>
                <path id="Path_179" data-name="Path 179" d="M450.466,222.773l-2.422,1.4c-.624.36-1.13-.023-1.13-.854V189.481a2.7,2.7,0,0,1,1.13-2.158l2.422-1.4c.623-.36,1.13.023,1.13.854v33.837A2.707,2.707,0,0,1,450.466,222.773Z" transform="translate(-429.058 -180.634)" fill="#18a7c3"/>
                <path id="Path_180" data-name="Path 180" d="M457.16,218.909l-2.422,1.4c-.624.36-1.13-.023-1.13-.854V185.616a2.7,2.7,0,0,1,1.13-2.158l2.422-1.4c.623-.36,1.13.023,1.13.855v33.837A2.709,2.709,0,0,1,457.16,218.909Z" transform="translate(-426.824 -181.923)" fill="#18a7c3"/>
              </g>
              <g id="Group_432" data-name="Group 432">
                <path id="Path_177" data-name="Path 177" d="M437.078,193.654l-.58.335v33.227a2.7,2.7,0,0,1-1.13,2.158l-1.842,1.063v.611c0,.832.505,1.214,1.13.854l2.422-1.4a2.705,2.705,0,0,0,1.13-2.158V194.508C438.208,193.675,437.7,193.294,437.078,193.654Z" transform="translate(-433.526 -178.054)" fill="#fff"/>
                <path id="Path_181" data-name="Path 181" d="M443.772,189.789l-.58.335v33.228a2.707,2.707,0,0,1-1.13,2.158l-1.842,1.063v.61c0,.832.505,1.215,1.13.855l2.422-1.4a2.707,2.707,0,0,0,1.13-2.158V190.643C444.9,189.812,444.395,189.429,443.772,189.789Z" transform="translate(-431.292 -179.344)" fill="#fff"/>
                <path id="Path_182" data-name="Path 182" d="M450.466,185.924l-.58.335v33.228a2.709,2.709,0,0,1-1.13,2.158l-1.842,1.063v.611c0,.831.505,1.214,1.13.854l2.422-1.4a2.707,2.707,0,0,0,1.13-2.158V186.777C451.6,185.947,451.089,185.564,450.466,185.924Z" transform="translate(-429.058 -180.634)" fill="#fff"/>
                <path id="Path_183" data-name="Path 183" d="M457.16,182.059l-.581.336v33.226a2.706,2.706,0,0,1-1.128,2.158l-1.842,1.063v.611c0,.831.505,1.214,1.13.854l2.422-1.4a2.707,2.707,0,0,0,1.128-2.158V182.914C458.288,182.082,457.783,181.7,457.16,182.059Z" transform="translate(-426.824 -181.923)" fill="#fff"/>
              </g>
            </g>
            <path id="Path_184" data-name="Path 184" d="M426.581,239.35a1.79,1.79,0,0,1-.89-.261L394.136,220.87a4.572,4.572,0,0,1-1.951-3.7V181.368a1.926,1.926,0,0,1,.795-1.751,1.5,1.5,0,0,1,1.528.095l31.554,18.218a4.578,4.578,0,0,1,1.954,3.7v35.806a1.922,1.922,0,0,1-.8,1.75A1.266,1.266,0,0,1,426.581,239.35Zm-32.96-59.16a.529.529,0,0,0-.269.071,1.25,1.25,0,0,0-.425,1.107v35.806a3.884,3.884,0,0,0,1.58,3.053l31.557,18.219a.815.815,0,0,0,.786.093,1.257,1.257,0,0,0,.424-1.107V201.626a3.888,3.888,0,0,0-1.582-3.054l-31.555-18.218A1.073,1.073,0,0,0,393.621,180.19Z" transform="translate(-374.726 -130.844)" fill="#18a7c3"/>
            <g id="Group_81" data-name="Group 81" transform="translate(20.559 54.669)">
              <g id="Group_437" data-name="Group 437">
                <path id="Path_185" data-name="Path 185" d="M397.581,186.866c0,.979-.688,1.376-1.536.887a3.393,3.393,0,0,1-1.535-2.661c0-.979.687-1.376,1.535-.887A3.4,3.4,0,0,1,397.581,186.866Z" transform="translate(-394.509 -183.996)" fill="#18a7c3"/>
                <path id="Path_186" data-name="Path 186" d="M397.581,190.6c0,.979-.688,1.376-1.536.887a3.4,3.4,0,0,1-1.535-2.661c0-.979.687-1.376,1.535-.887A3.4,3.4,0,0,1,397.581,190.6Z" transform="translate(-394.509 -182.749)" fill="#18a7c3"/>
                <path id="Path_187" data-name="Path 187" d="M397.581,194.338c0,.979-.688,1.376-1.536.886a3.393,3.393,0,0,1-1.535-2.66c0-.98.687-1.376,1.535-.887A3.4,3.4,0,0,1,397.581,194.338Z" transform="translate(-394.509 -181.502)" fill="#18a7c3"/>
              </g>
              <g id="Group_438" data-name="Group 438" transform="translate(0 0.003)">
                <path id="Path_188" data-name="Path 188" d="M396.814,194.615a3.4,3.4,0,0,1-1.536-2.661,1.541,1.541,0,0,1,.077-.48c-.5,0-.846.4-.846,1.088a3.393,3.393,0,0,0,1.535,2.66c.69.4,1.266.2,1.461-.405A1.364,1.364,0,0,1,396.814,194.615Z" transform="translate(-394.509 -181.503)" fill="#fff"/>
                <path id="Path_189" data-name="Path 189" d="M396.814,190.877a3.4,3.4,0,0,1-1.536-2.661,1.534,1.534,0,0,1,.077-.48c-.5,0-.846.4-.846,1.088a3.393,3.393,0,0,0,1.535,2.66c.69.4,1.266.2,1.461-.405A1.364,1.364,0,0,1,396.814,190.877Z" transform="translate(-394.509 -182.75)" fill="#fff"/>
                <path id="Path_190" data-name="Path 190" d="M396.814,187.139a3.4,3.4,0,0,1-1.536-2.661,1.528,1.528,0,0,1,.077-.48c-.5,0-.846.4-.846,1.088a3.393,3.393,0,0,0,1.535,2.66c.69.4,1.266.2,1.461-.405A1.364,1.364,0,0,1,396.814,187.139Z" transform="translate(-394.509 -183.998)" fill="#fff"/>
              </g>
            </g>
            <path id="Path_191" data-name="Path 191" d="M416.24,212.728l-1.016-.587a1.371,1.371,0,0,1-.572-1.094v-4.883c0-.421.256-.615.572-.432l1.016.587a1.367,1.367,0,0,1,.572,1.092V212.3C416.812,212.716,416.556,212.909,416.24,212.728Z" transform="translate(-367.228 -122.095)" fill="#18a7c3"/>
          </g>
          <path id="Path_192" data-name="Path 192" d="M459.555,76.771H404.131V194.93l0,0a1.942,1.942,0,0,0,1.127,1.63l23.551,13.6a7.26,7.26,0,0,0,6.533-.271l22.611-13.055a2.777,2.777,0,0,0,1.591-2.018l.008-.005Z" transform="translate(-370.739 -76.771)" opacity="0.2" fill="url(#linear-gradient)" style="mix-blend-mode: lighten;isolation: isolate"/>
          <path id="Path_193" data-name="Path 193" d="M456.265,85.218H406.1V192.156h0a1.759,1.759,0,0,0,1.02,1.475l21.315,12.305a6.571,6.571,0,0,0,5.911-.244l20.465-11.816a2.512,2.512,0,0,0,1.439-1.827l.008,0Z" transform="translate(-370.081 -73.952)" opacity="0.25" fill="url(#linear-gradient-2)" style="mix-blend-mode: lighten;isolation: isolate"/>
          <g id="Group_83" data-name="Group 83" transform="translate(45.892 18.889)">
            <path id="Path_194" data-name="Path 194" d="M417.63,158.454a2.063,2.063,0,1,1-2.063-2.063A2.063,2.063,0,0,1,417.63,158.454Z" transform="translate(-413.503 -78.422)" fill="#1091aa"/>
            <circle id="Ellipse_16" data-name="Ellipse 16" cx="3.525" cy="3.525" r="3.525" transform="translate(14.099 72.003)" fill="#1091aa"/>
            <path id="Path_195" data-name="Path 195" d="M424.593,146.1a.9.9,0,1,1-.906-.906A.906.906,0,0,1,424.593,146.1Z" transform="translate(-410.406 -72.822)" fill="#1091aa"/>
            <circle id="Ellipse_17" data-name="Ellipse 17" cx="1.762" cy="1.762" r="1.762" transform="translate(26.908 53.822)" fill="#1091aa"/>
            <circle id="Ellipse_18" data-name="Ellipse 18" cx="1.246" cy="1.246" r="1.246" transform="translate(18.14 39.38)" fill="#1091aa"/>
            <path id="Path_196" data-name="Path 196" d="M419.42,114.8a2.258,2.258,0,1,1-2.258-2.257A2.258,2.258,0,0,1,419.42,114.8Z" transform="translate(-413.035 -83.72)" fill="#1091aa"/>
            <path id="Path_197" data-name="Path 197" d="M423.135,100.39a1.258,1.258,0,1,1-1.258-1.259A1.257,1.257,0,0,1,423.135,100.39Z" transform="translate(-411.128 -88.197)" fill="#1091aa"/>
            <circle id="Ellipse_19" data-name="Ellipse 19" cx="1.482" cy="1.482" r="1.482" transform="translate(18.778 19.093)" fill="#1091aa"/>
            <path id="Path_198" data-name="Path 198" d="M430.99,104.218a.716.716,0,1,1-.716-.716A.717.717,0,0,1,430.99,104.218Z" transform="translate(-408.145 -86.738)" fill="#1091aa"/>
            <path id="Path_199" data-name="Path 199" d="M438.647,93a2.071,2.071,0,1,1-2.071-2.07A2.071,2.071,0,0,1,438.647,93Z" transform="translate(-406.493 -90.933)" fill="#1091aa"/>
          </g>
        </g>
        <g id="Group_91" data-name="Group 91" transform="translate(74.424 93.634)">
          <g id="Group_89" data-name="Group 89" transform="translate(0 88.343)">
            <path id="Path_200" data-name="Path 200" d="M375.334,320.676l-43.7-25.227c-3.106-1.794-2.717-4.927.871-7l41.952-24.221c3.588-2.071,9.014-2.3,12.121-.5l43.694,25.227c3.108,1.794,2.718,4.927-.87,7l-41.953,24.221C383.867,322.244,378.44,322.47,375.334,320.676Z" transform="translate(-319.874 -150.18)" fill="#58ddf5" opacity="0.3"/>
            <path id="Path_201" data-name="Path 201" d="M382.951,329.124a13.171,13.171,0,0,1-6.457-1.484l-51.472-29.717a4.751,4.751,0,0,1-2.729-4.027c0-1.87,1.367-3.733,3.753-5.111l49.421-28.532c4.361-2.517,11-2.782,14.794-.592l51.472,29.717a4.756,4.756,0,0,1,2.729,4.027c0,1.87-1.368,3.733-3.755,5.111l-49.421,28.533A17.136,17.136,0,0,1,382.951,329.124Zm-5.942-2.378c3.513,2.026,9.684,1.761,13.763-.591l49.42-28.533c2.057-1.188,3.237-2.726,3.237-4.217a3.784,3.784,0,0,0-2.211-3.133l-51.472-29.717c-3.513-2.026-9.684-1.761-13.762.591l-49.421,28.533c-2.058,1.19-3.238,2.726-3.238,4.217a3.781,3.781,0,0,0,2.214,3.133Z" transform="translate(-322.293 -151.628)" fill="#58ddf5"/>
            <path id="Path_202" data-name="Path 202" d="M432.373,204.336H410.7l-24.122-13.928c-3.108-1.793-8.533-1.568-12.121.5l-23.253,13.426H329.548v62.7h.008a3.513,3.513,0,0,0,2.081,3.248l43.7,25.227c3.106,1.794,8.533,1.569,12.12-.5L429.4,270.787c1.863-1.076,2.856-2.438,2.952-3.751h.016Z" transform="translate(-319.872 -174.65)" fill="#58ddf5"/>
            <path id="Path_203" data-name="Path 203" d="M429.4,250.557l-41.953,24.221c-3.586,2.071-9.014,2.3-12.12.5l-43.7-25.227a3.513,3.513,0,0,1-2.081-3.248h-.008v1h.008a3.513,3.513,0,0,0,2.081,3.248l43.7,25.227c3.106,1.794,8.533,1.569,12.12-.5L429.4,251.56c1.863-1.076,2.856-2.438,2.952-3.751h.016v-1h-.016C432.26,248.118,431.268,249.48,429.4,250.557Z" transform="translate(-319.872 -155.423)" fill="#18a7c3"/>
            <path id="Path_204" data-name="Path 204" d="M330.923,268.039h-.007v-62.7h21.659l23.251-13.424c3.588-2.071,9.015-2.3,12.121-.5l24.122,13.927h20.3v-1H410.7l-24.122-13.927c-3.108-1.793-8.533-1.568-12.121.5l-23.253,13.424H329.548v62.7h.008a3.513,3.513,0,0,0,2.081,3.248l.245.141A3.052,3.052,0,0,1,330.923,268.039Z" transform="translate(-319.872 -174.65)" fill="#18a7c3"/>
            <path id="Path_205" data-name="Path 205" d="M405.982,201.677V264.3h-.016a3.843,3.843,0,0,1-1.034,2.218,4.688,4.688,0,0,0,2.265-3.312h.016V200.659A6.448,6.448,0,0,0,405.982,201.677Z" transform="translate(-294.712 -170.825)" fill="#18a7c3"/>
            <path id="Path_206" data-name="Path 206" d="M375.334,236.45l-43.7-25.227c-3.106-1.794-2.717-4.927.871-7L374.462,180c3.588-2.071,9.014-2.3,12.121-.5l43.694,25.228c3.108,1.794,2.718,4.927-.87,7l-41.953,24.221C383.867,238.019,378.44,238.243,375.334,236.45Z" transform="translate(-319.874 -178.29)" fill="#58ddf5"/>
            <path id="Path_207" data-name="Path 207" d="M417.715,204.728,374.021,179.5a11.294,11.294,0,0,0-6.117-1.182,10.154,10.154,0,0,1,4.407,1.182l43.694,25.228c3.108,1.794,2.718,4.927-.87,7l-41.953,24.221a13.831,13.831,0,0,1-6,1.685,14.271,14.271,0,0,0,7.713-1.685l41.953-24.221C420.433,209.655,420.823,206.522,417.715,204.728Z" transform="translate(-307.312 -178.289)" fill="#18a7c3"/>
            <path id="Path_208" data-name="Path 208" d="M373.483,227.277,340.953,208.5c-2.313-1.335-2.023-3.668.648-5.21l31.234-18.032c2.67-1.542,6.71-1.71,9.023-.375l32.53,18.782c2.314,1.335,2.023,3.668-.647,5.21L382.507,226.9C379.836,228.446,375.8,228.612,373.483,227.277Z" transform="translate(-316.586 -176.392)" fill="#18a7c3"/>
            <path id="Path_209" data-name="Path 209" d="M372,219.913,348.43,206.306c-1.677-.968-1.466-2.658.468-3.775l22.63-13.065a7.268,7.268,0,0,1,6.537-.271L401.634,202.8c1.675.968,1.466,2.658-.469,3.775l-22.629,13.065A7.271,7.271,0,0,1,372,219.913Z" transform="translate(-313.947 -174.869)" fill="#15657c"/>
            <path id="Path_210" data-name="Path 210" d="M377.293,236.45,333.6,211.223c-3.108-1.794-2.718-4.927.87-7L376.422,180a13.8,13.8,0,0,1,5.907-1.678A14.3,14.3,0,0,0,374.462,180L332.51,204.225c-3.588,2.071-3.977,5.2-.871,7l43.7,25.227a11.328,11.328,0,0,0,6.213,1.176A10.026,10.026,0,0,1,377.293,236.45Z" transform="translate(-319.874 -178.29)" fill="#18a7c3"/>
            <g id="Group_86" data-name="Group 86" transform="translate(33.351 13.674)">
              <g id="Group_85" data-name="Group 85" clip-path="url(#clip-path-4)">
                <path id="Path_211" data-name="Path 211" d="M348.889,204.374,371.527,191.3a7.27,7.27,0,0,1,6.539-.272l23.577,13.612a2.493,2.493,0,0,1,.824.742,1.747,1.747,0,0,0-.824-2.582l-23.577-13.612a7.266,7.266,0,0,0-6.539.271l-22.638,13.069c-1.506.87-1.953,2.082-1.294,3.036A3.567,3.567,0,0,1,348.889,204.374Z" transform="translate(-347.298 -188.544)" fill="#bcf1fe"/>
                <path id="Path_212" data-name="Path 212" d="M348.888,206.132l22.638-13.069a7.27,7.27,0,0,1,6.539-.271L401.642,206.4a2.631,2.631,0,0,1,.691.576,1.761,1.761,0,0,0-.691-2.8l-23.577-13.612a7.27,7.27,0,0,0-6.539.272l-22.638,13.069c-1.6.92-2,2.225-1.159,3.2A3.883,3.883,0,0,1,348.888,206.132Z" transform="translate(-347.297 -188.083)" fill="#88dfef"/>
                <path id="Path_213" data-name="Path 213" d="M347.959,209.018a4.136,4.136,0,0,1,.931-.731l22.638-13.069a7.266,7.266,0,0,1,6.539-.271l23.577,13.612a2.941,2.941,0,0,1,.461.336,1.787,1.787,0,0,0-.461-3.046l-23.577-13.612a7.27,7.27,0,0,0-6.539.271L348.89,205.577C347.16,206.576,346.82,208.028,347.959,209.018Z" transform="translate(-347.299 -187.528)" fill="#47b4c9"/>
              </g>
            </g>
            <g id="Group_87" data-name="Group 87" transform="translate(72.599 51.906)">
              <g id="Group_435" data-name="Group 435">
                <path id="Path_215" data-name="Path 215" d="M380.277,265.786l-2.422,1.4c-.624.36-1.13-.021-1.13-.854V232.493a2.705,2.705,0,0,1,1.13-2.158l2.422-1.4c.623-.36,1.128.021,1.128.854v33.837A2.706,2.706,0,0,1,380.277,265.786Z" transform="translate(-376.725 -213.338)" fill="#18a7c3"/>
                <path id="Path_217" data-name="Path 217" d="M386.971,261.921l-2.422,1.4c-.624.36-1.13-.023-1.13-.854V228.628a2.7,2.7,0,0,1,1.13-2.157l2.422-1.4c.623-.36,1.128.023,1.128.854v33.837A2.706,2.706,0,0,1,386.971,261.921Z" transform="translate(-374.491 -214.628)" fill="#18a7c3"/>
                <path id="Path_218" data-name="Path 218" d="M393.665,258.056l-2.423,1.4c-.623.36-1.128-.023-1.128-.854V224.764a2.706,2.706,0,0,1,1.128-2.158l2.423-1.4c.623-.36,1.128.023,1.128.855V255.9A2.7,2.7,0,0,1,393.665,258.056Z" transform="translate(-372.257 -215.918)" fill="#18a7c3"/>
                <path id="Path_219" data-name="Path 219" d="M400.357,254.192l-2.422,1.4c-.623.36-1.128-.021-1.128-.854V220.9a2.706,2.706,0,0,1,1.128-2.158l2.422-1.4c.624-.36,1.13.021,1.13.854v33.837A2.7,2.7,0,0,1,400.357,254.192Z" transform="translate(-370.023 -217.207)" fill="#18a7c3"/>
              </g>
              <g id="Group_436" data-name="Group 436">
                <path id="Path_216" data-name="Path 216" d="M380.277,228.937l-.582.335V262.5a2.705,2.705,0,0,1-1.128,2.157l-1.842,1.063v.611c0,.832.505,1.214,1.13.854l2.422-1.4a2.706,2.706,0,0,0,1.128-2.158V229.791C381.405,228.958,380.9,228.577,380.277,228.937Z" transform="translate(-376.725 -213.338)" fill="#fff"/>
                <path id="Path_220" data-name="Path 220" d="M386.971,225.072l-.582.335v33.228a2.708,2.708,0,0,1-1.128,2.158l-1.842,1.063v.611c0,.831.505,1.214,1.128.854l2.423-1.4a2.706,2.706,0,0,0,1.128-2.158V225.925C388.1,225.095,387.594,224.712,386.971,225.072Z" transform="translate(-374.491 -214.628)" fill="#fff"/>
                <path id="Path_221" data-name="Path 221" d="M393.663,221.207l-.58.336V254.77a2.706,2.706,0,0,1-1.128,2.158l-1.842,1.063v.611c0,.831.505,1.214,1.128.854l2.422-1.4a2.7,2.7,0,0,0,1.13-2.157V222.062C394.793,221.23,394.288,220.847,393.663,221.207Z" transform="translate(-372.257 -215.918)" fill="#fff"/>
                <path id="Path_222" data-name="Path 222" d="M400.357,217.343l-.58.335V250.9a2.7,2.7,0,0,1-1.13,2.158l-1.841,1.063v.611c0,.832.505,1.214,1.128.854l2.422-1.4a2.7,2.7,0,0,0,1.13-2.158V218.2C401.487,217.364,400.982,216.983,400.357,217.343Z" transform="translate(-370.023 -217.207)" fill="#fff"/>
              </g>
            </g>
            <path id="Path_223" data-name="Path 223" d="M369.779,274.635a1.788,1.788,0,0,1-.888-.263l-31.555-18.219a4.567,4.567,0,0,1-1.953-3.7V216.651a1.925,1.925,0,0,1,.795-1.75,1.5,1.5,0,0,1,1.529.093l31.555,18.218a4.579,4.579,0,0,1,1.953,3.7v35.806a1.922,1.922,0,0,1-.8,1.75A1.25,1.25,0,0,1,369.779,274.635Zm-32.96-59.161a.532.532,0,0,0-.269.071,1.253,1.253,0,0,0-.425,1.107v35.806a3.882,3.882,0,0,0,1.581,3.053l31.558,18.219a.8.8,0,0,0,.784.093,1.257,1.257,0,0,0,.424-1.107V236.909a3.893,3.893,0,0,0-1.581-3.054l-31.555-18.218A1.092,1.092,0,0,0,336.819,215.473Z" transform="translate(-317.924 -166.128)" fill="#18a7c3"/>
            <g id="Group_88" data-name="Group 88" transform="translate(20.559 54.669)">
              <g id="Group_433" data-name="Group 433">
                <path id="Path_224" data-name="Path 224" d="M340.78,222.149c0,.98-.688,1.376-1.536.887a3.4,3.4,0,0,1-1.536-2.661c0-.979.688-1.376,1.536-.886A3.4,3.4,0,0,1,340.78,222.149Z" transform="translate(-337.707 -219.279)" fill="#18a7c3"/>
                <path id="Path_225" data-name="Path 225" d="M340.78,225.885c0,.979-.688,1.376-1.536.887a3.4,3.4,0,0,1-1.536-2.661c0-.979.688-1.376,1.536-.887A3.4,3.4,0,0,1,340.78,225.885Z" transform="translate(-337.707 -218.032)" fill="#18a7c3"/>
                <path id="Path_226" data-name="Path 226" d="M340.78,229.621c0,.979-.688,1.376-1.536.887a3.4,3.4,0,0,1-1.536-2.661c0-.98.688-1.376,1.536-.887A3.4,3.4,0,0,1,340.78,229.621Z" transform="translate(-337.707 -216.786)" fill="#18a7c3"/>
              </g>
              <g id="Group_434" data-name="Group 434" transform="translate(0 0.002)">
                <path id="Path_227" data-name="Path 227" d="M340.013,229.9a3.394,3.394,0,0,1-1.536-2.66,1.545,1.545,0,0,1,.076-.481c-.5,0-.846.4-.846,1.088a3.4,3.4,0,0,0,1.536,2.661c.69.4,1.266.2,1.46-.407A1.36,1.36,0,0,1,340.013,229.9Z" transform="translate(-337.707 -216.786)" fill="#fff"/>
                <path id="Path_228" data-name="Path 228" d="M340.013,226.16a3.394,3.394,0,0,1-1.536-2.659,1.545,1.545,0,0,1,.076-.482c-.5,0-.846.4-.846,1.088a3.394,3.394,0,0,0,1.536,2.659c.69.4,1.266.2,1.46-.405A1.36,1.36,0,0,1,340.013,226.16Z" transform="translate(-337.707 -218.033)" fill="#fff"/>
                <path id="Path_229" data-name="Path 229" d="M340.013,222.422a3.4,3.4,0,0,1-1.536-2.661,1.536,1.536,0,0,1,.076-.48c-.5,0-.846.4-.846,1.088a3.394,3.394,0,0,0,1.536,2.66c.69.4,1.266.2,1.46-.405A1.36,1.36,0,0,1,340.013,222.422Z" transform="translate(-337.707 -219.281)" fill="#fff"/>
              </g>
            </g>
            <path id="Path_230" data-name="Path 230" d="M359.438,248.011l-1.016-.587a1.371,1.371,0,0,1-.572-1.094v-4.883c0-.421.256-.615.572-.432l1.016.587a1.366,1.366,0,0,1,.572,1.092v4.884C360.011,248,359.755,248.194,359.438,248.011Z" transform="translate(-310.426 -157.379)" fill="#18a7c3"/>
          </g>
          <path id="Path_231" data-name="Path 231" d="M402.755,112.054H347.329V230.213l0,0a1.942,1.942,0,0,0,1.127,1.63l23.55,13.6a7.26,7.26,0,0,0,6.533-.271l22.613-13.055a2.772,2.772,0,0,0,1.59-2.018l.009-.005Z" transform="translate(-313.937 -112.054)" opacity="0.2" fill="url(#linear-gradient)" style="mix-blend-mode: lighten;isolation: isolate"/>
          <path id="Path_232" data-name="Path 232" d="M399.464,120.5H349.3V227.439h0a1.753,1.753,0,0,0,1.02,1.475l21.313,12.305a6.574,6.574,0,0,0,5.913-.244l20.464-11.816a2.512,2.512,0,0,0,1.44-1.826l.008-.005Z" transform="translate(-313.278 -109.235)" opacity="0.25" fill="url(#linear-gradient-2)" style="mix-blend-mode: lighten;isolation: isolate"/>
          <g id="Group_90" data-name="Group 90" transform="translate(47.762 6.885)">
            <circle id="Ellipse_20" data-name="Ellipse 20" cx="2.063" cy="2.063" r="2.063" transform="translate(0.195 88.993)" fill="#1091aa"/>
            <circle id="Ellipse_21" data-name="Ellipse 21" cx="3.525" cy="3.525" r="3.525" transform="translate(12.23 84.007)" fill="#1091aa"/>
            <circle id="Ellipse_22" data-name="Ellipse 22" cx="0.905" cy="0.905" r="0.905" transform="translate(10.508 84.381)" fill="#1091aa"/>
            <circle id="Ellipse_23" data-name="Ellipse 23" cx="1.762" cy="1.762" r="1.762" transform="translate(16.909 65.826)" fill="#1091aa"/>
            <circle id="Ellipse_24" data-name="Ellipse 24" cx="1.246" cy="1.246" r="1.246" transform="translate(16.271 51.384)" fill="#1091aa"/>
            <circle id="Ellipse_25" data-name="Ellipse 25" cx="2.258" cy="2.258" r="2.258" transform="translate(0 40.83)" fill="#1091aa"/>
            <circle id="Ellipse_26" data-name="Ellipse 26" cx="4.565" cy="4.565" r="4.565" transform="translate(10.149 22.533)" fill="#1091aa"/>
            <path id="Path_233" data-name="Path 233" d="M366.335,135.673a1.258,1.258,0,1,1-1.258-1.258A1.258,1.258,0,0,1,366.335,135.673Z" transform="translate(-356.196 -111.476)" fill="#1091aa"/>
            <path id="Path_234" data-name="Path 234" d="M373.745,142.013a1.482,1.482,0,1,1-1.482-1.482A1.482,1.482,0,0,1,373.745,142.013Z" transform="translate(-353.872 -109.435)" fill="#1091aa"/>
            <circle id="Ellipse_27" data-name="Ellipse 27" cx="0.716" cy="0.716" r="0.716" transform="translate(19.544 28.767)" fill="#1091aa"/>
            <path id="Path_235" data-name="Path 235" d="M381.847,128.287a2.071,2.071,0,1,1-2.071-2.071A2.07,2.07,0,0,1,381.847,128.287Z" transform="translate(-347.56 -126.216)" fill="#1091aa"/>
          </g>
        </g>
      </g>
    </g>
  </g>
</svg>
