<svg xmlns="http://www.w3.org/2000/svg" xmlns:xlink="http://www.w3.org/1999/xlink" width="2781.988" height="2772.293" viewBox="0 0 2781.988 2772.293">
  <defs>
    <linearGradient id="linear-gradient" x1="0.637" y1="-0.164" x2="0.351" y2="2.182" gradientUnits="objectBoundingBox">
      <stop offset="0" stop-color="#ff928e"/>
      <stop offset="1" stop-color="#fe7062"/>
    </linearGradient>
    <linearGradient id="linear-gradient-2" x1="6.211" y1="0.5" x2="7.211" y2="0.5" gradientUnits="objectBoundingBox">
      <stop offset="0" stop-color="#09005d"/>
      <stop offset="1" stop-color="#1a0f91"/>
    </linearGradient>
    <linearGradient id="linear-gradient-3" x1="10.73" y1="0.5" x2="11.73" y2="0.5" xlink:href="#linear-gradient-2"/>
  </defs>
  <g id="Illustration" transform="translate(-464.006 -455)">
    <g id="Group_26" data-name="Group 26">
      <path id="Path_1" data-name="Path 1" d="M2906.47,2806.815c-71.636,73.841-135.733,117.246-184.809,150.015C2243.039,3276.41,1694.242,3238.479,1525.087,3207c-272.912-50.8-501.608-140.808-699.542-319.632-449.764-406.344-427.888-1254.008-84.213-1779.1,40.749-62.261,383.9-570.922,932.206-642.6,13.411-1.753,23.417-2.751,32.181-3.679,84.821-8.981,610.441-56.379,1039.031,302.694,61.351,51.4,170.533,137.868,251.637,285.512C3286.655,1578.607,3332.216,2367.973,2906.47,2806.815Z" fill="#d2fdfd"/>
      <g id="Group_9" data-name="Group 9">
        <g id="Group_3" data-name="Group 3">
          <path id="Path_2" data-name="Path 2" d="M2882.252,1579.845c-.818-3.532-1.644-7.063-2.5-10.594-129.59-533.5-671.864-859.778-1211.2-728.769l237.213,976.56Z" fill="#55e2fa"/>
          <path id="Path_3" data-name="Path 3" d="M1902.858,1813.253l950.62,326.38c59.062-171.5,72.442-361.069,28.94-550.881-1.37-5.978-2.809-11.922-4.28-17.85Z" fill="#37cee8"/>
          <path id="Path_4" data-name="Path 4" d="M1905.747,1817.045,2098.94,2803.24c6.185-1.214,12.372-2.467,18.56-3.8,356.771-76.9,628.12-334.413,738.877-656.021Z" fill="#25c5e0"/>
          <path id="Path_5" data-name="Path 5" d="M1782.217,1735.628,1581.594,763.436c-453.632,93.612-772.178,479.341-800,920.354l995.084,58.243A5.336,5.336,0,0,0,1782.217,1735.628Z" fill="url(#linear-gradient)"/>
          <path id="Path_6" data-name="Path 6" d="M1906.362,1812.837,903.609,1779.51c-4.293,87.848,3.608,161.475,23.615,251.482,93.335,419.894,436.8,719.465,838.818,776.986Z" fill="#16a1b9"/>
          <path id="Path_7" data-name="Path 7" d="M1757.6,2811a1001.836,1001.836,0,0,0,342.658-7.493h0l-192.157-986.4Z" fill="#1aaec7"/>
        </g>
        <g id="Group_4" data-name="Group 4">
          <path id="Path_8" data-name="Path 8" d="M1547.459,2718.771a6.678,6.678,0,0,1-2.544-.506,981.272,981.272,0,0,1-362.773-260.078C1080.321,2341.6,1007.06,2199.918,970.271,2048.47c-3.3-13.579-6.337-27.357-9.034-40.949a6.673,6.673,0,0,1,13.09-2.6c2.662,13.412,5.659,27,8.91,40.4,36.288,149.372,108.542,289.1,208.956,404.088a967.844,967.844,0,0,0,357.817,256.52,6.674,6.674,0,0,1-2.551,12.841Z" fill="#fff"/>
        </g>
        <g id="Group_5" data-name="Group 5">
          <path id="Path_9" data-name="Path 9" d="M2272.947,2723.067a6.673,6.673,0,0,1-2.463-12.876c248.23-98.52,445.567-298.831,541.409-549.571a6.672,6.672,0,0,1,12.465,4.764C2727.187,2419.6,2527.1,2622.7,2275.4,2722.594A6.627,6.627,0,0,1,2272.947,2723.067Z" fill="#fff"/>
        </g>
        <g id="Group_6" data-name="Group 6">
          <path id="Path_10" data-name="Path 10" d="M2686.85,1243.748a6.655,6.655,0,0,1-5.33-2.652c-119.932-158.846-283.748-275.043-473.749-336.027a6.672,6.672,0,0,1,4.079-12.706c192.633,61.83,358.724,179.639,480.317,340.692a6.671,6.671,0,0,1-5.317,10.693Z" fill="#fff"/>
        </g>
        <g id="Group_7" data-name="Group 7" opacity="0.74">
          <path id="Path_11" data-name="Path 11" d="M1327.831,1679.139c-.143,0-.29-.005-.437-.015L816.841,1646.2l1.117-7.211c13.436-86.567,35.538-170.383,69.558-263.777a6.671,6.671,0,1,1,12.536,4.568c-32.765,89.957-54.369,170.9-67.765,254.045l495.968,31.988a6.672,6.672,0,0,1-.424,13.33Z" fill="#fff"/>
        </g>
        <g id="Group_8" data-name="Group 8" opacity="0.74">
          <path id="Path_12" data-name="Path 12" d="M1728.292,1704.939c-.238,0-.476-.008-.717-.025l-104.147-6.737a6.671,6.671,0,1,1,.86-13.315L1725,1691.376l-108.317-507.167a6.673,6.673,0,0,1,13.052-2.789l109.037,510.536a10.741,10.741,0,0,1-10.481,12.983Zm-2.571-10.193h0Z" fill="#fff"/>
        </g>
      </g>
      <g id="Group_11" data-name="Group 11">
        <g id="Group_10" data-name="Group 10">
          <path id="Path_13" data-name="Path 13" d="M1912.363,1604.009l-4.8-8.783,324.485-177.3L2533.6,1550.474l258.874-253.925.524-.311L3097.046,1116.8l5.089,8.621-303.527,179.13-262.835,257.815-303.24-133.293Z" fill="#4bb3c4"/>
        </g>
        <circle id="Ellipse_1" data-name="Ellipse 1" cx="34.891" cy="34.891" r="34.891" transform="translate(1866.46 1576.333) rotate(-16.845)" fill="#fcbc5e"/>
        <circle id="Ellipse_2" data-name="Ellipse 2" cx="34.891" cy="34.891" r="34.891" transform="translate(2188.788 1446.782) rotate(-73.155)" fill="#fcbc5e"/>
        <circle id="Ellipse_3" data-name="Ellipse 3" cx="34.891" cy="34.891" r="34.891" transform="translate(2486.661 1561.109) rotate(-58.282)" fill="#fcbc5e"/>
        <circle id="Ellipse_4" data-name="Ellipse 4" cx="34.891" cy="34.891" r="34.891" transform="translate(2752.34 1265.657)" fill="#fcbc5e"/>
        <circle id="Ellipse_5" data-name="Ellipse 5" cx="34.891" cy="34.891" r="34.891" transform="translate(3050.617 1115.079) rotate(-37.982)" fill="#fcbc5e"/>
      </g>
      <g id="Group_19" data-name="Group 19">
        <g id="Group_17" data-name="Group 17">
          <g id="Group_12" data-name="Group 12">
            <path id="Path_14" data-name="Path 14" d="M1024.453,3206.26c-32.378,2.8-88.571,7.345-132.872,9.294-26.63,1.172-41.961-1.435-50.79-4.97.015,1,.042,1.936.082,2.809a9.162,9.162,0,0,0,8.705,8.654,1556.46,1556.46,0,0,0,173.981.175,6.525,6.525,0,0,0,5.315-9.8A53.378,53.378,0,0,0,1024.453,3206.26Z" fill="#0c005d"/>
            <path id="Path_15" data-name="Path 15" d="M891.581,3215.554c44.3-1.949,100.494-6.5,132.872-9.294-31.833-39.056-132.872-65.379-132.872-65.379H863.045c-19.627,28.292-22.469,55.228-22.254,69.7C849.62,3214.119,864.951,3216.726,891.581,3215.554Z" fill="url(#linear-gradient-2)"/>
            <path id="Path_16" data-name="Path 16" d="M858.24,3094.294l2.67,52.844a12.068,12.068,0,0,0,10.3,11.351,46.953,46.953,0,0,0,21.436-1.776,14.278,14.278,0,0,0,9.6-10.977l9.228-51.442Z" fill="#f48f8f"/>
          </g>
          <g id="Group_14" data-name="Group 14">
            <g id="Group_13" data-name="Group 13">
              <path id="Path_17" data-name="Path 17" d="M487.59,3215.158c-14.041-1.959-20.394-9.252-23.057-17.05l-.053.21c-2.066,8.225,2.723,16.75,12.3,20.8,11.572,4.9,24.225,5.736,34.048,5.331,10.538-.434,20.212-4.795,25.528-11.775l.08-.1C525.855,3217.807,511.006,3218.424,487.59,3215.158Z" fill="#0c005d"/>
              <path id="Path_18" data-name="Path 18" d="M553.79,3093.955H530.257c-35.846-.733-58.356,74.874-65.724,104.153,2.663,7.8,9.016,15.091,23.057,17.05,23.416,3.266,38.265,2.649,48.843-2.585,19.366-25.484,28.967-62.808,33.583-84.591C575.265,3103.208,553.79,3093.955,553.79,3093.955Z" fill="url(#linear-gradient-3)"/>
            </g>
            <path id="Path_19" data-name="Path 19" d="M533.282,3044.907l-13.068,51.974a14.107,14.107,0,0,0,7.34,15.988c7.31,3.752,17.6,7.694,27.061,6.553a11.788,11.788,0,0,0,9.614-7.859l19.185-54.683Z" fill="#f48f8f"/>
          </g>
          <path id="Path_20" data-name="Path 20" d="M517.694,3059.93c16.259,14.422,69.141,16.325,69.141,16.325,190.492-457.2,268.416-522.149,268.416-522.149-27.505,172.567-4.435,554.61-4.435,554.61,31.435,13.871,71.962,0,71.962,0a2944.788,2944.788,0,0,1,97.275-723.139c-128.749-2.894-197.217-46.951-219.573-64.634C693.159,2493.967,517.694,3059.93,517.694,3059.93Z" fill="#71716f"/>
          <path id="Path_21" data-name="Path 21" d="M833.178,1795.164c-24.369,121.555-15.636,339.116-9.9,438.352,1.612,27.892-17.859,66.559-33.6,92.938a8.274,8.274,0,0,0,3.341,11.638c26.349,13.542,115.613,55.512,219.067,60.733a14.749,14.749,0,0,0,14.844-11.022c76.741-286.538,165.874-469.637,165.874-469.637C1094.4,1761.019,833.178,1795.164,833.178,1795.164Z" fill="#739af0"/>
          <path id="Path_22" data-name="Path 22" d="M868.249,2543.282a6.1,6.1,0,0,1-5.207-9.27c1.025-1.686,25.666-41.514,75.53-65.571a6.1,6.1,0,1,1,5.3,10.986c-46.485,22.431-70.176,60.548-70.412,60.93A6.1,6.1,0,0,1,868.249,2543.282Z" fill="#5a5a58"/>
          <g id="Group_15" data-name="Group 15">
            <path id="Path_23" data-name="Path 23" d="M680.321,2144.025c7.828,56.627,30.955,118.393,77.22,184l17.587-14.338s-20.3-82.371-8.76-175.854C737.828,2132.266,704.123,2138,680.321,2144.025Z" fill="#f48f8f"/>
            <path id="Path_24" data-name="Path 24" d="M860.4,1945.147l-27.219-149.983s-181.863,139.013-152.857,348.861c23.8-6.02,57.507-11.759,86.047-6.191C774.682,2070.492,799.517,1997.386,860.4,1945.147Z" fill="#739af0"/>
          </g>
          <g id="Group_16" data-name="Group 16">
            <path id="Path_25" data-name="Path 25" d="M1192.808,1918.166l-70.2,151.184c11.35,91.274,60.382,130.739,113.251,145.876a320.816,320.816,0,0,1,23.575-98.453C1191.884,2047.029,1192.808,1918.166,1192.808,1918.166Z" fill="#739af0"/>
            <path id="Path_26" data-name="Path 26" d="M1259.436,2116.773a320.816,320.816,0,0,0-23.575,98.453c141.051,54.727,178.369-51.408,178.369-51.408l-26.068-4.6C1329.294,2165.421,1288.172,2146.443,1259.436,2116.773Z" fill="#f48f8f"/>
          </g>
          <path id="Path_27" data-name="Path 27" d="M1128.132,1731.518,1094.243,1856.1a24.238,24.238,0,0,1-32.414,16.128c-14.533-5.81-32.972-13.741-48.846-22.311a32.659,32.659,0,0,1-11.519-46.936l70.459-105.059Z" fill="#f48f8f"/>
        </g>
        <path id="Path_28" data-name="Path 28" d="M1478.878,2080.45l-868.4,316.064a66.491,66.491,0,0,0-37.785,90.008l2.635,5.793a61.809,61.809,0,0,0,82.215,30.51l843.206-390.072Z" fill="#f89f1b"/>
        <ellipse id="Ellipse_6" data-name="Ellipse 6" cx="428.683" cy="420.95" rx="428.683" ry="420.95" transform="translate(1449.347 1469.379)" fill="none" opacity="0.23"/>
        <path id="Path_29" data-name="Path 29" d="M1878.03,1421.925c-263.445,0-477.009,209.712-477.009,468.4s213.564,468.4,477.009,468.4,477.009-209.711,477.009-468.4S2141.475,1421.925,1878.03,1421.925Zm0,868c-224.746,0-406.939-178.905-406.939-399.6s182.193-399.6,406.939-399.6,406.939,178.906,406.939,399.6S2102.777,2289.926,1878.03,2289.926Z" fill="#fcbc5e"/>
        <path id="Path_30" data-name="Path 30" d="M1437.288,1948.355a3.2,3.2,0,0,1-3.178-2.8c-1.424-11.163-2.416-22.46-2.967-33.585a3.207,3.207,0,0,1,3.043-3.356,3,3,0,0,1,3.365,3.043c.534,10.959,1.517,22.091,2.916,33.093a3.2,3.2,0,0,1-2.772,3.58A3.389,3.389,0,0,1,1437.288,1948.355Zm3.272-130.977a3.269,3.269,0,0,1-.568-.05,3.2,3.2,0,0,1-2.585-3.717,431.211,431.211,0,0,1,25.732-88.078l.008-.008c68.762-166.811,231.619-274.6,414.885-274.6a451.944,451.944,0,0,1,240.248,68.656,3.207,3.207,0,0,1-3.408,5.433,445.535,445.535,0,0,0-236.84-67.681c-180.664,0-341.19,106.236-408.961,270.644-.008.009-.008.013-.008.017a424.24,424.24,0,0,0-25.35,86.747A3.208,3.208,0,0,1,1440.56,1817.378Z" fill="#fff"/>
        <g id="Group_18" data-name="Group 18">
          <path id="Path_31" data-name="Path 31" d="M1202.276,1636.865c.308,2.139-28.267,142.169-28.267,142.169l-79.608-18.015,7.365-136.743S1197.108,1601.048,1202.276,1636.865Z" fill="#f48f8f"/>
          <path id="Path_32" data-name="Path 32" d="M1119.671,1654.747l-9.514,71.68a9.978,9.978,0,0,0,.01,2.745c.8,5.619,4.983,24.747,24.293,19.277,17.521-4.963,33.585-9.232,44.682-5.837a10.091,10.091,0,0,1,6.945,11.675c-2.6,12.722-8.987,41.281-18.323,65.247a10.072,10.072,0,0,1-12.231,5.956c-15.1-4.4-46.682-14.576-70.173-28.712a10.1,10.1,0,0,1-4.922-9.09c.763-18.095,2.879-73.1,1.1-88.522-1.672-14.473-19.434-23.143-27.151-26.252a9.924,9.924,0,0,1-5.525-5.546c-3.573-8.955-8.5-29.679,17.615-38.171a10.114,10.114,0,0,0,6.4-13.079c-3.868-10.768-5.5-27.2,14.7-36.256,20.535-9.2,35.871,1.744,44.152,10.64a10.105,10.105,0,0,0,12.875,1.521c2.365-1.495,5.412-1.985,9.093.309a9.949,9.949,0,0,0,14.089-4.27c4.919-10.094,14.94-20.906,35.044-17.463,35.673,6.109,39.713,45.64,30.3,68.805s-47.711,14.342-66.924,2.664c-14.609-8.879-33.558.428-41.8,5.4A10.019,10.019,0,0,0,1119.671,1654.747Z" fill="#0d5d6c"/>
          <path id="Path_33" data-name="Path 33" d="M1078.332,1725.3s14.665-41.068-.4-51.125-37.383-4.836-32.469,24.914C1051.572,1736.095,1078.332,1725.3,1078.332,1725.3Z" fill="#f48f8f"/>
        </g>
        <path id="Path_34" data-name="Path 34" d="M767.876,2311.192l82.1-6.691,35.553,32.774s-8.412,11.627-34.708,4.943S788.5,2333.9,788.5,2333.9s-36.3,16.366-36.745-14.256Z" fill="#f48f8f"/>
        <path id="Path_35" data-name="Path 35" d="M1403.774,2183.237c7.1,5.547,31.424-6.033,46.308-14.039a17.126,17.126,0,0,0,8.278-20.236c-3.582-11.3-9.551-25.876-16.905-27.715C1429.254,2118.2,1374.517,2160.38,1403.774,2183.237Z" fill="#f48f8f"/>
        <path id="Path_36" data-name="Path 36" d="M627.613,2510.676a3.269,3.269,0,0,1-1.051-.173c-33.919-11.731-41.81-31.771-42.454-46.518-.932-21.554,12.612-41.556,33.69-49.777l104.275-40.661a3.205,3.205,0,0,1,2.322,5.975l-104.274,40.657c-18.519,7.225-30.419,24.714-29.6,43.526.8,18.561,13.637,32.266,38.148,40.738a3.206,3.206,0,0,1-1.051,6.233Z" fill="#fff"/>
        <path id="Path_37" data-name="Path 37" d="M755.356,2367.207a3.205,3.205,0,0,1-1.161-6.192l13.518-5.267a3.205,3.205,0,0,1,2.323,5.975l-13.519,5.268A3.188,3.188,0,0,1,755.356,2367.207Z" fill="#fff"/>
      </g>
      <g id="Group_24" data-name="Group 24">
        <path id="Path_38" data-name="Path 38" d="M2879.893,3118.429s5.961,33.751,8.884,67.16a23.019,23.019,0,0,1-22.019,24.94c-44.492,1.853-139.662,5.457-173.812,3.933a7.489,7.489,0,0,1-6.59-10.26,16.763,16.763,0,0,1,8.576-9.034l157.2-72.25Z" fill="#0c005d"/>
        <path id="Path_39" data-name="Path 39" d="M2884.777,3098.6l-4.79,40.37s-27.538,12.819-46.344-1.616l11.4-44.988Z" fill="#f48f8f"/>
        <path id="Path_40" data-name="Path 40" d="M2881.177,2339.625c2.069,10.543,11.106,526.094-44,757.13a7.843,7.843,0,0,0,4.6,9.121,136.549,136.549,0,0,0,44.882,9.122,13.507,13.507,0,0,0,13.4-9.694c15.753-53.6,91.237-322.175,101.084-578.733,11-286.678,0-9.761,0-9.761l-6.454-177.206Z" fill="#5f5f5b"/>
        <path id="Path_41" data-name="Path 41" d="M3060.727,3136.037s9.49,17.039,18.678,62.314a14.044,14.044,0,0,1-12.357,16.819c-14.691,1.444-37.308,3.3-55.424,3.177a14,14,0,0,1-13.863-15.62c2.007-16.526,8.258-43.639,27.571-64.772Z" fill="#0c005d"/>
        <path id="Path_42" data-name="Path 42" d="M3069.062,3084.112l-11.192,61.05s-11.066,8.231-32.957,2.264l5.342-65.687Z" fill="#f48f8f"/>
        <path id="Path_43" data-name="Path 43" d="M3099.3,2355.446c45.071,272.009-9.777,672.292-28.275,750.638a12.219,12.219,0,0,1-9.865,9.277c-8.257,1.369-21.851,2.485-35.253-1.407a11.2,11.2,0,0,1-8.05-10.311c-2.482-63.34,1.985-452.184-40.011-605.857a34.915,34.915,0,0,0-13.465-19.258l-81.511-57.948-6.25-93.668Z" fill="#71716f"/>
        <g id="Group_20" data-name="Group 20">
          <path id="Path_44" data-name="Path 44" d="M2812.1,1840.042c135.07-2.232,284.1,35.465,284.1,35.465,40.262,234.926,7.04,505.9,7.04,505.9-104.568,27.423-222.527-16.765-222.527-16.765-17.38-98.194-98.469-374.542-98.469-374.542-66-8.191-120.361-27.231-165.132-52.4,34.15-39.585,50.249-89.955,57.242-119.73C2722.117,1832.8,2770.441,1840.73,2812.1,1840.042Z" fill="#739af0"/>
          <path id="Path_45" data-name="Path 45" d="M2413.128,1641.09c13.268-16.026,30.061-8.445,30.061-8.445,19.877,83.962,124.1,152.04,231.172,185.316-6.993,29.775-23.092,80.145-57.242,119.73C2439.422,1837.779,2413.128,1641.09,2413.128,1641.09Z" fill="#f48f8f"/>
        </g>
        <g id="Group_21" data-name="Group 21">
          <path id="Path_46" data-name="Path 46" d="M2416.348,1645.166c-1.388,4.413,14.69,11.134,24.156-6.918.331-8.652,5.592-45.716.422-52.763-27.533-37.538-80.914-84.593-80.914-84.593-9.022,8.9-1.589,17.647-1.589,17.647l25.9,26.977c-5.416,9.788-12.023,18.05-15.119,29.89a36.287,36.287,0,0,0,3.618,26.707c4.546,8.19,10.747,18.835,16.609,27.166C2400.524,1645.047,2416.348,1645.166,2416.348,1645.166Z" fill="#f48f8f"/>
          <path id="Path_47" data-name="Path 47" d="M2395.646,1563.019l23.6,20.005,7.41,19.918-21.041,23.341s-7.074-39.519-12.332-48.073S2390.749,1565.521,2395.646,1563.019Z" fill="#e87979"/>
        </g>
        <path id="Path_48" data-name="Path 48" d="M3044.4,2006.3l51.808-130.788s126.163,85.722,146.911,194.409c-23.838,1.756-67.217,7.956-109.676,29.4C3124.112,2047.991,3044.4,2006.3,3044.4,2006.3Z" fill="#739af0"/>
        <path id="Path_49" data-name="Path 49" d="M2934.147,2129.362s141.649,80.053,189.444,11.7c9.924-14.194,12.3-28.3,9.851-41.748,42.459-21.439,85.838-27.639,109.676-29.4,6.256,32.765,2.949,67.613-16.3,102.834-83.72,153.148-311.412-8.464-311.412-8.464Z" fill="#f48f8f"/>
        <g id="Group_22" data-name="Group 22">
          <path id="Path_50" data-name="Path 50" d="M2951.166,2230.638l-77.306-269.973a7.874,7.874,0,0,0-6.659-5.67c-14.006-1.634-54.593-6.222-101.453-10.185-56.445-4.775-122-8.644-161.165-5.353a7.9,7.9,0,0,0-6.457,11.368c22.274,45.064,113.9,228.375,159.78,288.426a7.925,7.925,0,0,0,6.375,3.129l179.365-1.669A7.9,7.9,0,0,0,2951.166,2230.638Z" fill="#ff8881"/>
          <path id="Path_51" data-name="Path 51" d="M2757.729,1921.4l-56.049-9.339a4.023,4.023,0,0,0-4.482,5.228l5.549,16.813a4.023,4.023,0,0,0,3.287,2.727l53.936,7.2a4.022,4.022,0,0,0,4.449-4.9l-3.434-14.678A4.023,4.023,0,0,0,2757.729,1921.4Z" fill="#e87871"/>
          <path id="Path_52" data-name="Path 52" d="M2799.7,1968.854l-4.617-24.051a5.561,5.561,0,0,0-4.9-4.483l-113.206-11.487a5.559,5.559,0,0,0-5.967,6.829l7.2,29.97a5.558,5.558,0,0,0,5.126,4.253l110.626,5.57A5.56,5.56,0,0,0,2799.7,1968.854Z" fill="#e87871"/>
          <path id="Path_53" data-name="Path 53" d="M2932.489,2165.412s10.769-44.281,6.425-59.991-12.761-35.91-40.814-31.421-61.147,16.307-61.147,16.307,1.672,20.463,22.993,13.861l-13.222,10.23s1.89,16.385,19.9,7.631l-12.3,13.568s7.735,13.457,20.985,4.826S2894.913,2170.744,2932.489,2165.412Z" fill="#f48f8f"/>
        </g>
        <path id="Path_54" data-name="Path 54" d="M2948.917,1730.386l42.978,124.287a4.478,4.478,0,0,1-2.042,5.393c-11.715,6.477-53.922,25.2-104.786-7.049a21.089,21.089,0,0,1-9.711-15.061l-13.917-107.57Z" fill="#f48f8f"/>
        <g id="Group_23" data-name="Group 23">
          <path id="Path_55" data-name="Path 55" d="M2855.4,1615.292s-47.193,88.836-41.143,124.722,64.538,33.309,115.612,4.164l35.691-95.924Z" fill="#f48f8f"/>
          <path id="Path_56" data-name="Path 56" d="M2927.616,1697.069a3.659,3.659,0,0,1-1.6-5.358c3.781-5.776,10.868-17.561,13.129-27.877,0,0,8.485-5.434-21.593-12.633s-74.931-18.374-84.358-43.975c-9.192-24.961,14.959-87.733,53.49-37.717a3.661,3.661,0,0,0,5.8.041c6.317-8.222,22.923-25.285,45.979-14.94,21.575,9.68,24,25.49,23.709,33.459a3.64,3.64,0,0,0,4.313,3.727c10.909-2.08,37.085-3.867,49.3,22.987,10.064,22.118,3.523,34.639-2.434,40.763a3.649,3.649,0,0,0,1.561,6.06c7.17,2.2,16.428,8.274,15.5,25.07-1.282,23.22-27.243,21.175-34.635,20.116a3.665,3.665,0,0,0-3.251,1.15c-6.338,7.013-34.893,36.794-65.8,40.384a3.694,3.694,0,0,1-3.874-4.88l13.375-38.878a3.678,3.678,0,0,0-1.988-4.56Z" fill="#0d5d6c"/>
          <path id="Path_57" data-name="Path 57" d="M2922.24,1702.588s33.6-23.054,36.057-3.639-30.259,28.121-46.463,20.883Z" fill="#f48f8f"/>
        </g>
      </g>
      <g id="Group_25" data-name="Group 25">
        <path id="Path_58" data-name="Path 58" d="M1301.818,1128.317l129.135,8.8a6.491,6.491,0,0,0,5-11.2l-123.834-91.7Z" fill="#55e2fa"/>
        <path id="Path_59" data-name="Path 59" d="M564.091,715.039l727.27-4.449c16.651-.1,30.174,12.236,30.047,27.415l-3.06,366.169c-.128,15.265-14.005,27.447-30.744,26.989l-719.4-19.708c-15.98-.438-28.744-12.275-28.949-26.847L534.446,742.6C534.233,727.505,547.535,715.141,564.091,715.039Z" fill="#55e2fa"/>
        <path id="Path_60" data-name="Path 60" d="M586.617,737.438l681.015-3.888c15.592-.089,28.255,10.691,28.136,23.953L1292.9,1077.43c-.119,13.337,11.292,32.1-4.382,31.7l-698.047-25.338c-14.964-.383-26.916-10.725-27.108-23.457l-4.508-298.82C558.658,748.329,571.114,737.526,586.617,737.438Z" fill="#fff" opacity="0.14"/>
        <path id="Path_61" data-name="Path 61" d="M1288.52,1109.129l-719.588-19.711a5.409,5.409,0,0,1-5.489-5.092L558.63,742.311a4.818,4.818,0,0,1,1.619-3.675,5.8,5.8,0,0,1,4.007-1.553l727.268-4.449a5.886,5.886,0,0,1,4.048,1.516,4.835,4.835,0,0,1,1.651,3.7L1294.162,1104A5.432,5.432,0,0,1,1288.52,1109.129ZM569.23,1084.15l719.378,19.7,2.823-366.055-727.139,4.564Z" fill="#fff" opacity="0.77"/>
        <path id="Path_62" data-name="Path 62" d="M606.042,820.194c0,12.955,7.545,23.457,16.852,23.457h618.571c9.307,0,16.852-10.5,16.852-23.457s-7.545-23.457-16.852-23.457H622.894C613.587,796.737,606.042,807.239,606.042,820.194Z" fill="#fff" opacity="0.77"/>
        <path id="Path_63" data-name="Path 63" d="M639.923,883.654h579.939c12.618,0,22.847,6.3,22.847,14.068s-10.229,14.068-22.847,14.068H639.923c-12.618,0-22.847-6.3-22.847-14.068S627.3,883.654,639.923,883.654Z" fill="#fff" opacity="0.77"/>
        <path id="Path_64" data-name="Path 64" d="M617.076,961.8c0,7.756,10.21,14.043,22.8,14.043h580.024c12.594,0,22.8-6.287,22.8-14.042V953.12c0-7.889-10.551-14.23-23.359-14.038l-580.024,8.68C626.951,947.948,617.076,954.178,617.076,961.8Z" fill="#fff" opacity="0.77"/>
        <path id="Path_65" data-name="Path 65" d="M642.21,1006.078h579.939c12.618,0,22.847,6.3,22.847,14.068s-10.229,14.068-22.847,14.068H642.21c-12.618,0-22.847-6.3-22.847-14.068S629.592,1006.078,642.21,1006.078Z" fill="#fff" opacity="0.77"/>
      </g>
    </g>
  </g>
</svg>
