<svg xmlns="http://www.w3.org/2000/svg" xmlns:xlink="http://www.w3.org/1999/xlink" width="806.555" height="810.327" viewBox="0 0 806.555 810.327">
  <defs>
    <linearGradient id="linear-gradient" x1="-88.234" y1="7.168" x2="-88.009" y2="6.258" gradientUnits="objectBoundingBox">
      <stop offset="0" stop-color="#febbba"/>
      <stop offset="1" stop-color="#ff928e"/>
    </linearGradient>
    <linearGradient id="linear-gradient-2" x1="-51.097" y1="5.185" x2="-49.888" y2="6.348" xlink:href="#linear-gradient"/>
    <linearGradient id="linear-gradient-3" x1="-144.097" y1="16.743" x2="-140.721" y2="21.062" xlink:href="#linear-gradient"/>
    <linearGradient id="linear-gradient-4" x1="18.694" y1="0.478" x2="19.689" y2="0.478" gradientUnits="objectBoundingBox">
      <stop offset="0" stop-color="#09005d"/>
      <stop offset="1" stop-color="#1a0f91"/>
    </linearGradient>
    <linearGradient id="linear-gradient-5" x1="16.675" y1="0.452" x2="12.778" y2="0.783" xlink:href="#linear-gradient"/>
    <linearGradient id="linear-gradient-6" x1="17.345" y1="0.477" x2="18.338" y2="0.477" xlink:href="#linear-gradient-4"/>
    <linearGradient id="linear-gradient-7" x1="1.929" y1="-0.013" x2="-0.172" y2="0.802" xlink:href="#linear-gradient"/>
  </defs>
  <g id="Illustration" transform="translate(-461.517 -455)">
    <g id="Group_17" data-name="Group 17" transform="translate(461.517 455)">
      <path id="Path_1" data-name="Path 1" d="M1174.581,1151.345c-16.562,17.436-32.232,28.68-44.614,37.564-145.538,104.425-317.749,73.986-354.349,66.552-54.046-10.977-158.516-32.2-234.046-121.017C427.3,1000.064,445.1,788.353,533.732,648.6c16.213-25.563,101.854-167.446,275.92-190.2,105.343-13.77,228.138,14,317.063,88.5C1313.376,703.289,1300.088,1019.216,1174.581,1151.345Z" transform="translate(-461.517 -455)" fill="#d2fdfd"/>
      <g id="Group_6" data-name="Group 6" transform="translate(17.896 35.457)">
        <g id="Group_3" data-name="Group 3" transform="translate(28.666)">
          <path id="Path_2" data-name="Path 2" d="M824.228,1077.649s2.58-108.488-47.388-137.524S631.863,892.935,628.3,737.157c-2.085-91.2-4.341-131.074-5.854-148.461a10.269,10.269,0,0,1,12.127-11c47.325,8.915,201.061,45.61,233.293,150.542C906.079,852.639,824.228,1077.649,824.228,1077.649Z" transform="translate(-622.408 -577.518)" fill="#29cae6"/>
          <path id="Path_3" data-name="Path 3" d="M782.689,726.69C834.636,773.02,894.7,855.015,926.722,937.01c4.11,13.513,16.131,42.251,21.352,93.31,4.663,42.584,2.345,87.583-3.309,117.369a3.47,3.47,0,0,1-4.057,2.762c-3.238-.614-2.807-4.1-2.778-3.987,6.457-50.891,3.777-114.234-11.018-171.388-18.9-70.178-61.062-138.218-104.669-195.926l-4.487-5.682c-33.785-43.388-40.9-43.707-37.739-46.732A1.976,1.976,0,0,1,782.689,726.69Z" transform="translate(-733.922 -683.166)" fill="#fff"/>
        </g>
        <g id="Group_4" data-name="Group 4" transform="translate(0 288.652)">
          <path id="Path_4" data-name="Path 4" d="M834.142,1994.986c6.76,3.315-64-85.669-86.169-225.426-10.445-65.857-10.582-148.37-48.1-180.168-31.223-26.464-137.469-9.756-172.233-3.407a5.213,5.213,0,0,0-2.425,9.121c16.671,14,52.334,47.025,61.626,80.308,12.248,43.869,53.955,71.772,91.294,79.324s58.109,14.88,76.3,74.593S814.932,1985.567,834.142,1994.986Z" transform="translate(-523.354 -1574.923)" fill="#56dcf4"/>
          <path id="Path_5" data-name="Path 5" d="M704.678,1677.191c44.353,1.858,91.963,22.09,116.123,60.042l2.281,3.622c5.267,8.492,35.116,68.857,51.694,118.9a1.19,1.19,0,0,1-.755,1.5,1.214,1.214,0,0,1-1.489-.712c-11.55-28.269-28.139-64.109-41.352-90.911-14.169-29.246-24.085-49.052-56.4-68.024-35.972-20.432-70.338-22.535-70.234-22.514a.955.955,0,0,1,.137-1.9Z" transform="translate(-651.496 -1647.594)" fill="#fff"/>
        </g>
        <g id="Group_5" data-name="Group 5" transform="translate(4.953 452.565)">
          <path id="Path_6" data-name="Path 6" d="M815.969,2409.163c4.012,2.115-22.6-43.686-24.64-84.038S780.184,2215.9,745.386,2174.7s-72.9-44.957-120.92-7.5c-40.013,31.211-64.973,46.962-79.611,49.89a5.531,5.531,0,0,0-3.71,8.065c9.389,17.289,35.932,57,80.5,54.207,56.849-3.566,125.745-40.522,146.745-9.693s18.3,48.079,18.947,62.689S789.419,2395.165,815.969,2409.163Z" transform="translate(-540.47 -2141.307)" fill="#46cde5"/>
          <path id="Path_7" data-name="Path 7" d="M885.615,2327.029c17.416-16.7,45.779-33.1,70.568-30.044,32.252,5.2,53.737,26.733,65.456,58.793,4.582,13.613,6.466,20.88,9.174,37.567a1.061,1.061,0,0,1-2.076.43c-1.971-7.838-3.923-16.045-6.844-24.533-17-54.762-53.288-62.138-54.7-63.259-2.744.271-19.375-12.18-58.839,9.056a175.093,175.093,0,0,0-21.277,13.64l-.037.028a1.1,1.1,0,0,1-1.425-1.678Z" transform="translate(-785.488 -2251.668)" fill="#fff"/>
        </g>
      </g>
      <g id="Group_10" data-name="Group 10" transform="translate(203.667 2.918)">
        <g id="Group_7" data-name="Group 7" transform="translate(0 135.584)">
          <path id="Path_8" data-name="Path 8" d="M1444.205,933.661l-213.57,21.579a7,7,0,0,0-5.474,3.67l-57.678,108.1a18.823,18.823,0,0,0-2.022,11.552L1238.8,1586.02a6.8,6.8,0,0,0,7.91,5.72l353.084-62.483a8.305,8.305,0,0,0,6.773-9.366l-71.235-492.936a25.069,25.069,0,0,0-6.658-13.7l-71.084-74.637A16.225,16.225,0,0,0,1444.205,933.661Z" transform="translate(-1165.267 -933.579)" fill="#f89f1b"/>
        </g>
        <g id="Group_8" data-name="Group 8" transform="translate(20.962 155.124)">
          <path id="Path_9" data-name="Path 9" d="M1313.793,1615.955a7.478,7.478,0,0,1-4.395-1.438,7.959,7.959,0,0,1-3.185-5.3L1237.9,1136.528a19.3,19.3,0,0,1,1.92-11.641l51.5-100.371a7.713,7.713,0,0,1,6.1-4.2l192.348-19.148a16.1,16.1,0,0,1,13.324,5.143l64.38,69.788a25.272,25.272,0,0,1,6.441,13.585l66.355,459.165a9.078,9.078,0,0,1-7.28,10.375l-317.88,56.611A7.475,7.475,0,0,1,1313.793,1615.955Zm176.124-613.3.148,1.489L1297.717,1023.3a4.733,4.733,0,0,0-3.734,2.587l-51.5,100.37a16.326,16.326,0,0,0-1.622,9.848l68.31,472.693a4.889,4.889,0,0,0,1.976,3.3,4.493,4.493,0,0,0,3.436.8l317.879-56.611a6.1,6.1,0,0,0,4.844-7l-66.355-459.164a22.3,22.3,0,0,0-5.679-11.985l-64.38-69.788a12.9,12.9,0,0,0-10.83-4.195Z" transform="translate(-1237.699 -1001.096)" fill="#fff"/>
        </g>
        <g id="Group_9" data-name="Group 9" transform="translate(117.009 315.809)">
          <path id="Path_10" data-name="Path 10" d="M1679.307,1878.524l-3.961-23.784c-24.959,3.136-50.457,1.369-69.145-3.355a13.947,13.947,0,0,1-10.31-14.987l2.353-23.16a14.057,14.057,0,0,1,17.312-12.209c18.485,4.365,40.773,6.543,63.777,2.712,23.881-3.977,40.341-15.039,37.578-31.635-2.494-14.975-17.738-21.587-52.411-24.963-49.514-5.065-86.953-20.046-93.9-61.736-6.27-37.644,16.47-70.965,62.949-86.609l-3.961-23.786a14.049,14.049,0,0,1,11.55-16.166l13.973-2.327a14.048,14.048,0,0,1,16.166,11.55l3.556,21.356c23.1-2.9,40.449-1.761,54.479.689a13.978,13.978,0,0,1,11.389,15.212l-2.144,21.414a14.011,14.011,0,0,1-16.689,12.372,146.273,146.273,0,0,0-53.448-.779c-28.334,4.719-34.473,17.8-32.72,28.328,2.157,12.952,20.64,19.025,59.36,24.225,55.248,7.022,80.744,25.238,87.283,64.5,6,36.023-15.32,72.853-65.781,89.578L1721,1871.58a14.049,14.049,0,0,1-11.55,16.166l-13.976,2.327A14.048,14.048,0,0,1,1679.307,1878.524Z" transform="translate(-1569.58 -1556.326)" fill="#fff"/>
        </g>
        <circle id="Ellipse_1" data-name="Ellipse 1" cx="35.571" cy="35.571" r="35.571" transform="translate(152.744 185.132)" fill="#00b3d3"/>
        <circle id="Ellipse_2" data-name="Ellipse 2" cx="29.012" cy="29.012" r="29.012" transform="translate(147.286 220.702) rotate(-45)" fill="#fff"/>
        <path id="Path_11" data-name="Path 11" d="M1540.443,694.072a29.272,29.272,0,0,1-.573-14.32l1.9-1.463c62.791-48.249,60.417-110.3,37.257-152.286-19.064-34.559-51.151-55.311-73.047-47.246-27.088,9.98-33.166,62.354-17.438,139.2L1476,619.226l.122.6c-23.649-115.547,5.968-145.012,25.727-152.292,27.762-10.229,65.448,12.425,87.661,52.694,25.56,46.336,28.358,114.685-40.444,167.554Z" transform="translate(-1379.937 -465.082)" fill="#00b3d3"/>
      </g>
      <g id="Group_16" data-name="Group 16" transform="translate(489.278 214.272)">
        <g id="Group_12" data-name="Group 12">
          <path id="Path_12" data-name="Path 12" d="M2516.458,1221.837s-13.077-32.041,36.247-25.581,37.336,25.081,41.234,39.633,24.591,31.042,82.175,53.493,40.511,83.661,14.646,103.977-39.97,6.813-45.986,41.877-30.014,63.542-59.955,33.818-63.973-64.873-54.456-110.963-1.26-37.37-19.84-58.514S2531.324,1257.966,2516.458,1221.837Z" transform="translate(-2403.197 -1195.395)" fill="#0d5d6c"/>
          <path id="Path_13" data-name="Path 13" d="M2311.92,1541.162c-7.831-7.944-15.45,11.148-17.483,15.933-5.135,12.082-10.473,22.925-21.311,31.2-6.7,5.122-15.766,8.406-24.249,5.945-30.555-8.864-30.7-33.407-31.384-51.791.708-5.214-2.419-10.383-6.208-12a12.262,12.262,0,0,1-6.083-6.424s-2.99,6.628.685,9.735a4.309,4.309,0,0,1,1.621,3.584c-.429-.072-.871-.137-1.333-.2-9.185-1.148.034,12,.034,12s-8.891,48.121,31.834,67.246c20.159,9.467,35.621,7.223,46.128,2.538a34.248,34.248,0,0,0,13.8-9.428,28.521,28.521,0,0,0,2.381-2.637l0-.152C2316.607,1586.055,2319.429,1548.779,2311.92,1541.162Z" transform="translate(-2187.65 -1428.924)" fill="#f48f8f"/>
          <path id="Path_14" data-name="Path 14" d="M2506.409,1567.42c8-2.4,31.3-6.829,53.469,13.625a13.725,13.725,0,0,1,3.955,13.676c-5.953,21.917-21.66,86.67-7.888,114.687,0,0-24.27,26.754-50.748,5.191,0,0-11.88-51.776-27.44-74.506-10.743-15.693,17.13-58.928,24.182-69.373A8.259,8.259,0,0,1,2506.409,1567.42Z" transform="translate(-2381.801 -1458.235)" fill="#739af0"/>
          <path id="Path_15" data-name="Path 15" d="M2620.19,1422.21s11.836,33.479,12.726,48.248a25.315,25.315,0,0,1-25.407-4.091s-1.293-33.44-3.162-39.428Z" transform="translate(-2473.485 -1356.569)" fill="url(#linear-gradient)"/>
          <path id="Path_16" data-name="Path 16" d="M2557.229,1263.875s-30.958,43.324-12.452,55.907,40.543-18.2,40.543-18.2,7.183-23.712-.328-31.756S2557.229,1263.875,2557.229,1263.875Z" transform="translate(-2426.964 -1243.882)" fill="url(#linear-gradient-2)"/>
          <path id="Path_17" data-name="Path 17" d="M2635.77,1237.217c-5.859-14.108-24.1-9.93-24.1-9.93s-14.222,3.37-16.215,9.8c-.9,2.9,3.1,5.7,8.324,7.927a38.222,38.222,0,0,1,22.5,27.871l.552,2.862S2641.628,1251.325,2635.77,1237.217Z" transform="translate(-2467.079 -1217.647)" fill="#0d5d6c"/>
          <path id="Path_18" data-name="Path 18" d="M2678.613,1364.256s12.05-13.955,16.842-4.857-10.846,15.927-16.26,11.461Z" transform="translate(-2526.258 -1309.747)" fill="url(#linear-gradient-3)"/>
          <path id="Path_19" data-name="Path 19" d="M2455.332,2456.87c.091,2.351-4.036,20.995-6.282,30.94a16.38,16.38,0,0,0,1.763,11.749l77.783,130.913a17.856,17.856,0,0,1,2.042,5.093c1.425,6.144,4.382,21.2,2.838,34.9l-4.024,8.357,17.4-3.952,3.786-46.734-4.927-3a23.417,23.417,0,0,1-9.468-11.084c-7.033-17.085-24.5-60.574-29-81.768-5.116-24.087-31.865-43.652-31.865-43.652l4.7-11.11Z" transform="translate(-2362.845 -2091.796)" fill="#f48f8f"/>
          <path id="Path_20" data-name="Path 20" d="M2751.759,3070.539s-9.4-14.9-10.5-20.7-4.184-16.042-9.978-12.958c0,0-2.73,28.173-1.789,39.181s-12.445,10.655-12.445,10.655a12.5,12.5,0,0,0-6.391,3.219,3.134,3.134,0,0,0,2.1,5.271,75.331,75.331,0,0,0,18.644-1.055,5.7,5.7,0,0,0,4.6-5.262l1.929-32.425,11.854,14.969Z" transform="translate(-2548.408 -2503.549)" fill="url(#linear-gradient-4)"/>
          <path id="Path_21" data-name="Path 21" d="M2592.569,2521.183s2.743,117.1,3.115,133.732-2.626,53.488-19.3,64.5l7.255,5.371s9.066-7.706,17.924-22.536c9.95-16.66,12.959-19.7,12.959-19.7l-3.3-6.762a14.867,14.867,0,0,1-1.205-9.535c3.6-17.438,15.617-75.438,18.9-87.928,3.87-14.745,4.146-34.434-9.319-50.916S2592.569,2521.183,2592.569,2521.183Z" transform="translate(-2453.615 -2135.256)" fill="url(#linear-gradient-5)"/>
          <path id="Path_22" data-name="Path 22" d="M2587.894,3127.15a1.022,1.022,0,0,0,1.03-.877c.555-3.9,2.865-19.555,4.755-23.608,2.165-4.642,9.238-24.177,0-25.835,0,0-22.975,33.565-27.385,38.091s-9.976,1.581-9.976,1.581a16.611,16.611,0,0,0-7.537,5.411,3.043,3.043,0,0,0,2.4,4.888l15.475.148a10.889,10.889,0,0,0,10.207-6.86c2.724-6.8,7.4-16.783,12.857-21.21l-2.834,27.134a1.031,1.031,0,0,0,1.016,1.138Z" transform="translate(-2433.544 -2532.338)" fill="url(#linear-gradient-6)"/>
          <path id="Path_23" data-name="Path 23" d="M2479.362,2018.784s3.487,11.115-1.87,29.422l-33.233,116.05a3.594,3.594,0,0,0,2.247,4.373c9.941,3.568,42.618,13.652,87.226,10.577a5.066,5.066,0,0,0,4.618-3.943c2.939-13.23,12.968-58.37,15.032-67.645,7.868-35.341,16.653-73.453-21.994-96.5C2513.578,2018.747,2496.966,2023.243,2479.362,2018.784Z" transform="translate(-2359.628 -1775.046)" fill="#71716f"/>
          <g id="Group_11" data-name="Group 11" transform="translate(4.954 46.292)">
            <path id="Path_24" data-name="Path 24" d="M2229.779,1448.854c1.076-2.368.807-5.471.565-7.925-.562-5.686-.516-11.356-.608-17.069-.239-14.8-.108-29.64-1.281-44.405-.253-3.187.087-6.383-.161-9.557-.631-8.054-5.355-10.431-13.213-12.112-6.647-1.421-13.894-3.378-20.762-1.918-2.705.575-5.308,2.054-5.646,4.878-1.364,11.4-1.024,86.1,12.735,88.157,4.646.694,9.258,1.508,13.877,2.339,3.284.592,7.675,1.838,10.982.726A5.641,5.641,0,0,0,2229.779,1448.854Z" transform="translate(-2182.686 -1355.352)" fill="#02839a"/>
            <path id="Path_25" data-name="Path 25" d="M2210.92,1448.854c1.076-2.368.807-5.471.565-7.925-.562-5.686-.516-11.356-.608-17.069-.239-14.8-.108-29.64-1.281-44.405-.253-3.187.087-6.383-.161-9.557-.631-8.054-5.355-10.431-13.214-12.112-6.647-1.421-13.894-3.378-20.762-1.918-2.705.575-5.308,2.054-5.646,4.878-1.364,11.4-1.024,86.1,12.735,88.157,4.647.694,9.258,1.508,13.877,2.339,3.284.592,7.675,1.838,10.983.726A5.641,5.641,0,0,0,2210.92,1448.854Z" transform="translate(-2169.285 -1355.352)" fill="#00b3d3"/>
          </g>
          <path id="Path_26" data-name="Path 26" d="M2159.079,1516.762s-2.5-1.7-4.549-11.831-4.089-16.274,0-20.976,10.426-4.906,10.426,0-1.062,13.944-.327,20.976S2163.627,1528.593,2159.079,1516.762Z" transform="translate(-2152.167 -1397.885)" fill="url(#linear-gradient-7)"/>
          <path id="Path_27" data-name="Path 27" d="M2719.094,1251.174a25.519,25.519,0,0,1,12.777,6.748,18.4,18.4,0,0,1,3.92,6.264l.581,1.778.333,1.838c.235,1.239.348,2.382.547,3.573a55.869,55.869,0,0,0,11.984,25.665,52.927,52.927,0,0,0,10.443,9.717,81.155,81.155,0,0,0,12.58,6.928q6.543,3.1,13.278,5.777a128.526,128.526,0,0,0,13.687,4.761c-9.49-2.015-18.593-5.547-27.486-9.393a72.445,72.445,0,0,1-12.914-6.855,54.254,54.254,0,0,1-10.847-9.893,55.884,55.884,0,0,1-11.962-26.508c-.165-1.2-.255-2.473-.441-3.618l-.258-1.742-.5-1.687a17.709,17.709,0,0,0-3.534-6.062A26.03,26.03,0,0,0,2719.094,1251.174Z" transform="translate(-2555.024 -1235.031)" fill="#fff"/>
          <path id="Path_28" data-name="Path 28" d="M3122.436,1602.009a62.173,62.173,0,0,1,8.509,19.153,56.465,56.465,0,0,1,1.427,21.039,49.645,49.645,0,0,1-7.382,19.752c-1.022,1.441-1.972,2.929-3.124,4.267-.561.679-1.09,1.383-1.675,2.04l-1.8,1.928c-1.171,1.311-2.557,2.408-3.82,3.616-1.316,1.154-2.723,2.2-4.09,3.285a71,71,0,0,0,13.438-15.8,56.327,56.327,0,0,0,4.423-9.31,51.171,51.171,0,0,0,2.408-10,57.95,57.95,0,0,0-1.026-20.526,70.315,70.315,0,0,0-2.967-9.952A67.459,67.459,0,0,0,3122.436,1602.009Z" transform="translate(-2833.145 -1484.334)" fill="#fff"/>
        </g>
        <g id="Group_15" data-name="Group 15" transform="translate(190.596 300.263)">
          <path id="Path_29" data-name="Path 29" d="M2884.6,2266.084a.788.788,0,0,1-.778-.666c-.04-.257-4.157-25.826-12.01-30.3a4.216,4.216,0,0,0-3.855-.283c-10.557,4.2-5.17,28.285-5.115,28.528a.788.788,0,0,1-1.537.352c-.239-1.045-5.729-25.649,6.071-30.345a5.772,5.772,0,0,1,5.214.378c8.509,4.846,12.618,30.341,12.788,31.424a.788.788,0,0,1-.656.9A.756.756,0,0,1,2884.6,2266.084Z" transform="translate(-2845.622 -2232.922)" fill="#02839a"/>
          <path id="Path_30" data-name="Path 30" d="M2860.668,2329.319l-40.763-3.767-9.074,5.032,7.776,9.73,37.232-3.792Z" transform="translate(-2810.808 -2298.745)" fill="#02839a"/>
          <path id="Path_31" data-name="Path 31" d="M2982.878,2436.049l13.978-8.033-33.651-89.446-8.077,5.453Z" transform="translate(-2913.345 -2307.994)" fill="#02839a"/>
          <path id="Path_32" data-name="Path 32" d="M2856.167,2284.043l-.061,0a.789.789,0,0,1-.725-.847c.021-.26,1.828-26.168-5.535-34.594a6.685,6.685,0,0,0-4.8-2.506,6.292,6.292,0,0,0-4.866,1.89c-7.937,7.394-8.4,33.061-8.406,33.319a.787.787,0,0,1-.788.776h-.011a.788.788,0,0,1-.777-.8c.015-1.082.484-26.6,8.908-34.449a7.975,7.975,0,0,1,6.027-2.311,8.3,8.3,0,0,1,5.9,3.042c7.914,9.058,5.941,35.488,5.92,35.754A.789.789,0,0,1,2856.167,2284.043Z" transform="translate(-2824.569 -2241.155)" fill="#02839a"/>
          <path id="Path_33" data-name="Path 33" d="M2810.751,2343.949l41.783,3.9,27.75,92.027-59.985,1.568Z" transform="translate(-2810.751 -2311.817)" fill="#00b3d3"/>
          <g id="Group_13" data-name="Group 13" transform="translate(51.332 49.308)">
            <path id="Path_34" data-name="Path 34" d="M3007.165,2480.607a.635.635,0,0,1-.141-.017.557.557,0,0,1-.4-.679l2.682-10.227-21.161-65.659a.556.556,0,0,1,1.059-.343l21.211,65.815a.569.569,0,0,1,.009.313l-2.724,10.383A.557.557,0,0,1,3007.165,2480.607Z" transform="translate(-2988.122 -2403.3)" fill="#fff"/>
          </g>
          <g id="Group_14" data-name="Group 14" transform="translate(74.71 115.635)">
            <path id="Path_35" data-name="Path 35" d="M3076.695,2637.054a.543.543,0,0,1-.239-.054l-7.234-3.458a.555.555,0,0,1-.263-.74.56.56,0,0,1,.74-.262l7.235,3.458a.555.555,0,0,1-.239,1.057Z" transform="translate(-3068.905 -2632.485)" fill="#fff"/>
          </g>
        </g>
        <path id="Path_36" data-name="Path 36" d="M2719.083,1661.41c-.429,3.292,29.068,35.341,37.743,75.552s5.757,67.06,5.757,67.06-8.813,6.572-5.645,11.234,2.332,7.834,6.382,8.739,9.072,2.179,8.459-5.816,8.931-9.6,7.346-14.437c-1.578-4.81,9.222-134.584-43.021-169.785q-.37-.25-.744-.492C2719.078,1643.711,2719.686,1656.777,2719.083,1661.41Z" transform="translate(-2555.013 -1506.687)" fill="#f48f8f"/>
      </g>
    </g>
  </g>
</svg>
