<svg xmlns="http://www.w3.org/2000/svg" xmlns:xlink="http://www.w3.org/1999/xlink" width="1366" height="900" viewBox="0 0 1366 900">
  <defs>
    <clipPath id="clip-path">
      <rect id="Rectangle_190" data-name="Rectangle 190" width="1366" height="900" fill="#fff"/>
    </clipPath>
    <clipPath id="clip-Web_1366_2">
      <rect width="1366" height="900"/>
    </clipPath>
  </defs>
  <g id="Web_1366_2" data-name="Web 1366 – 2" clip-path="url(#clip-Web_1366_2)">
    <rect width="1366" height="900" fill="#fff"/>
    <g id="Mask_Group_24" data-name="Mask Group 24" clip-path="url(#clip-path)">
      <g id="Group_583" data-name="Group 583" transform="translate(20.414 135)">
        <path id="Path_9023" data-name="Path 9023" d="M14861.522,779.551s5.853-5.2,10.751-7.366,7.4-2.649,10.3-4.763,4.948-4.589,6.512-5.843,3.339-2.607,3.339-2.607-.37-1.14,1.578-2.24-.643-.545,3.289-2.027,5.949-2.114,5.949-2.114a14.184,14.184,0,0,0,6.255-3.1c3.479-2.744,1.685-1.7,4.653-3.515s4.01-2.33,5.571-3.815-3.788-1.929,6.2-3.581,9.57-1.324,12.186-2.617.5-3.24,4.129-1.941,3.113.088,4.69,1.941-1.437-2.648,2.107,2.617,3.774,5.1,5.514,5.012,3.22,1.495,1.244,2.383-1.681,1.481-3.446,3.515-.245.154-3.312,3.1-3.529.77-5.439,4.141a61.337,61.337,0,0,0-3.786,9.435,5.19,5.19,0,0,0,0,3.169c.568,1.6,1.646,2.01,2.428,2.849s4.69,2.512,4.69,2.512.771-4.53,2.107,0,.925,1.853,2.063,6.1-1.151,3.224,1.248,6.158-.745,2.08,3.446,3.939a25.346,25.346,0,0,0,5.878,2.074s2.073-.795,0-3.919a25.233,25.233,0,0,1-2.845-5.426c-.7-1.5-1.622-4.069-1.622-4.069s-2.828-5.444,0-4.854,1.323-2.879,4.467,1.383a74.431,74.431,0,0,1,5.261,7.54c1.435,2.449,5.966,7.271,5.966,7.271s-3.738,3.167-3.739,4.3.219.556,10.756,1.577,12.323,0,12.323,0-8.079.252,5.606,0,20.864-7.25,24.981-3.8,6.911,3.8,6.911,3.8-.481.14,3.226,2.1-.531,2.177,7.666,3.31,13.554.342,14.8,0-.72-.331,2.487,0,4.3.214,4.784,1.317.943-.067,0,2.5-2.215,2.946-3.238,4.08-.562.466-1.546,2.519-1.21,1.784-2.487,2.8-3.122,2.843-3.122,2.843l-5.521,10.426s-.063-.137-2.091,1.787-3.474,1.6-4.063,2.906,1.166-3.821,0,2.4-.267-1.5-2.549,6.865-.675,8.323,0,12.574,1.122,3.9,2.549,7.894.482-1.1,1.727,5.5,2.712,8.049,4.428,9.368,1.417.519,3.047,2.812,5.6,3.541,5.6,3.541l135.687.655,3.53-1.007a12.612,12.612,0,0,1,3.279-1.655c1.94-.646.81.9,5.243-3.242s4.992-2.6,5.15-5.9-1.205-3.7,0-4.972a12.1,12.1,0,0,0,3.408-4.579c1.372-2.964,2.179-2.274,3.079-7.146s1.727-7.751,1.674-9.072a17.376,17.376,0,0,1,6.7-12.4c5.66-4.126,12.383-7.938,13.255-9.532a16.251,16.251,0,0,0,1.946-4.726c.432-1.94.026-6.281-1.946-7.855s1.723-.995-5.69-2.577-2.673-1.744-8.384-1.744h-11.986c-3.7,0-.706,1.29-5.208,0s-7.438-1.82-8.233-2.339,1.5-2.12-5.818-2.324-8.486.26-9.99,2.324-2.373,3.973-5.479,5.386-4.486,2.617-7.937,2.215-6.367.177-5.272-.941,6.519-7.433,6.519-7.433-.073.389,1.736-1.55,3.459-1.26,3.986-3.282-6.969-12.21-6.969-12.21h-2.924c-5.6,0-13.979-.471-14.646,0s.231,2.237-4.975,0-6.631-2.993-6.631-2.993l-3.352-3.2s1.476-1.9-7.463-2.031-13.844-1.023-15.3,0-4.975,2.177-6.091,2.031.212.272-2.314,0-1.289-2.207-4.451,0-3.059,1.425-3.921,3.2-.07,1.938-1.785,2.12-2.648,2.077-2.1,0,.5-1.648.982-3.855.1-2.8-.982-1.462a25.685,25.685,0,0,1-2.3,2.447s-7.128,2.681-9.007,3.744-1.484-.1-3.583,2.276-1.489,1.793-2.9,3.29-1.37,2.419-2.918,2.985a6.52,6.52,0,0,1-3.491,0s-2.476-.358-3.112,0-1.9.02-2.853,0a11.1,11.1,0,0,0-2.125,0c-2.725.063-.193-1.035-4.97,0a32.625,32.625,0,0,0-6.554,1.906,4.82,4.82,0,0,1-1.153-2.658,9.737,9.737,0,0,1,0-4.354c.226-1.135-.391-3.189,1.153-3.444s2.587.183,2.734-.874a8.772,8.772,0,0,0,0-2.12s-5.868-.716-8.315-.75a22.72,22.72,0,0,0-6.271.75c-1.458.432-5.394,4.556-3.121,0s4.687-5.492,5.117-6.195,4.275-5.854,4.275-5.854,2.689-1.946-.784-2.084-5.014-.936-5.487,0-.027,1.046-1.247,2.084-3.905,2.723-5.1,3.752-1.046,1.728-2.186,2.1-7.438,3-7.438,3l-8.389,5.317s-1.832,1.5-2.969,0a18.728,18.728,0,0,1-2.513-3.855c-.566-1.313.134-7.3,0-8.367s5.481-11.759,5.481-11.759,4.231-.951,5.753-2.068a45.756,45.756,0,0,1,5.349-2.773c1.2-.654,7.615-2.182,9.205-2.807s.527-1.329,6.049-1.746,5.711-.559,6.612-.9,2.071-2.682,3.244-3.842,1.032-1.643,4.368-2.592,8.643-2.838,10.394-2.838.228-1.144,3.562,0,3.629-.477,3.5,2.838-4.508,4.873,0,5.022,5.774.015,6.143-.813,0-4.21,0-4.21l.958-11.716L15104,718.543a27.051,27.051,0,0,0,2.314-3.245c1.234-2-.267-1.875,2.426-3.449s3.354-2.91,6.194-3.408,15.2-9.714,15.2-9.714h3.66l8.211-8.837h9.287a5.621,5.621,0,0,1,3.483-2.331c2.309-.432-1.25.2,3.7,0s7.668-2.159,10.47-3.151,4.952-1.439,5.723-1.959,6.217-1.162,0-1.162-4.869.365-6.969,0-5.272-3.661-5.272-3.661-8.338-.37-2.314-1.905,3.129-2.53,8.833-2.268,6.217.811,7.6.853,6.407-5.764,7.459-6.021,5.263-1.249,5.824-1.356-1.8,1.1,1.28,0,.946-.307,0,1.356-2.183,1.984-2.883,2.994a2.042,2.042,0,0,0,1.6,3.027,26.079,26.079,0,0,0,6.342,0c1.893-.334-2.311,1.038,2.552-.853s9.464-3.871,10.171-3.66,4.41-.1-1.234-2.864-5.185-5.411-5.185-5.411-3.842-3.76-5.547-3.76.5.471-4.9,0-7.818-.4-8.021-.939-3.152-1.534-4.024-3.05,3.827-2.725-2.013-1.943-10.461,5-11.111,4.993,1.8-1.153-2.078,0-5.7.353-6.3,0,2.68-1.071-2.336-1.151-3.858-2.568-4.85-1.9-1.024-.883-2.843,0-1.9,1.964-3.292,1.9-8.1,2.091-8.1,2.091,2.5.37-1.886,3.76-.264-2.411-5.041,5.411-3.883,7.212-7.993,10.7-7.665,4.646-8.1,5.731-.123-.2-1.634,1.052-2.472,1.672-3.665,1.672,14.277,1.011-4.74,0-15.5-2.269-20.578-1.672-8.662.766-9.471,0-3.711-1.951-1.188-4.026a48.033,48.033,0,0,0,5.378-4.662c2.194-2.256,5.638-6.864,7.712-7.436s-.62-1.105,5.892-1.356,4.522,1.363,10.394,0,6.285-1.063,7.866-1.814a25.308,25.308,0,0,0,4.035-1.868,22.216,22.216,0,0,1,3.146-1.73v-2.793a16.867,16.867,0,0,0-2.25-.967c-1.144-.38,3.165-.907-2.529-.939s-7.3-.031-8.405,0,2.023-.624-4.451,0-2.663-1.2-7.8.939-5.47.934-8.322,3.76-2.806,2.582-6.569,4.48-6.55,3.524-10.6,5.281-7.311,2.133-8.346,3.027a3.969,3.969,0,0,1-2.487,1.416c-1.561.376,3.8-.627-3.122.923s-20.941,9.757-22.567,9.437-6.721-.648-8.612,0-1.7-1.049-4.953,1.48a67.161,67.161,0,0,1-7.416,4.835s-1.248,2.254-7.161,3.284-7.922,1.25-7.922,1.25h-1.435l-12.323,3.551a12.35,12.35,0,0,0-5.913,3.245,54.933,54.933,0,0,1-4.843,4.716s2.121.1-2.227,2.037-5.261,2.922-5.261,2.922-3.661,1.526-6.627,3.125-4.913,2.92-4.913,2.92c-.881.44-6.245,1.719-6.245,1.719a15.381,15.381,0,0,1-4.076,1.32s-.642-2.643-6.506,0-12.977,6.195-12.977,6.195c-1.32.66-22.97,10.793-23.029,11.508s.087.022-1.475,1.975-9.086,6.038-9.086,6.038a40.918,40.918,0,0,0-5.67,5.966c-2.216,3.042-3.338,2.691-4.544,4.806s-.027.154-2.115,2.607-1.776.119-4.349,3.672-2.453,4.373-1.7,4.085a3.039,3.039,0,0,1,1.7,0l2.218-1.914s-3.873.606-3.917,1.914-1.371,2.586-2.937,4.036-1.16.915-2.315,1.947S14861.522,779.551,14861.522,779.551Z" transform="translate(-14853 -117)" fill="#edffff" stroke="#151515" stroke-linecap="round" stroke-linejoin="round" stroke-width="2"/>
        <path id="Path_9024" data-name="Path 9024" d="M15059.246,766.865s-.692.924,1.062,0,1.639-1.835,5.346-2.261.595.485,4.392,0a37.78,37.78,0,0,1,7.414,0c1.277-.03.595,2.64,1.239,2.261s.17,1.111,3.209,0,7.818-.223,8.464-2.261,1.109-2.072,1.109-2.807,1.711-2.76-1.109-2.65-.789-1.141-5.511,0-1.061.966-6.162,1.141-7.312-.129-8.653,0,5.572-1.514-2.888,0-9.422.43-10.412,2.651,0,2.71,0,2.71Z" transform="translate(-14853 -117)" fill="#edffff" stroke="#151515" stroke-linecap="round" stroke-linejoin="round" stroke-width="2"/>
        <path id="Path_9025" data-name="Path 9025" d="M15093.919,766.055s-.779.257,1.608,0a14.122,14.122,0,0,0,4.4-1.17,8.292,8.292,0,0,1,3.352-.83,14.353,14.353,0,0,0,2.96-.366c1.213-.274.849-.282,3.182-.919a20.521,20.521,0,0,0,2.972-.851c1.808-.646,2.289-.735,2.035-1.072s.3-.917-1.488-.917a30.871,30.871,0,0,0-4.287,0c-1.729.2-1.519-.42-3.927,0s-2.687-.159-4.8.917-1.776.444-3.364,1.477-1.771.86-1.947,1.365a6.836,6.836,0,0,1-.7,1.2A1.132,1.132,0,0,0,15093.919,766.055Z" transform="translate(-14853 -117)" fill="#edffff" stroke="#151515" stroke-linecap="round" stroke-linejoin="round" stroke-width="2"/>
        <path id="Path_9026" data-name="Path 9026" d="M15096.88,757.424a2.3,2.3,0,0,1,1.546,0c.558.331,2.973,0,2.973,0s.022-.739,0-1.594a2.578,2.578,0,0,0-.51-1.74c-.281-.244.62.051-.612-.514s-.6-1.221-1.851-1.014-2.721.714-2.746,1.528a10.826,10.826,0,0,0,.8,2.784Z" transform="translate(-14853 -117)" fill="#edffff" stroke="#151515" stroke-linecap="round" stroke-linejoin="round" stroke-width="2"/>
        <path id="Path_9027" data-name="Path 9027" d="M15120.96,760.824l1.536-.722h0c2.351-.916,5.123-.163,3.035-1.186s-2.639-1.217-3.035-1.1-1.554-.646-1.536,0-.17.7-.757,1.1S15120.96,760.824,15120.96,760.824Z" transform="translate(-14853 -117)" fill="#edffff" stroke="#151515" stroke-linecap="round" stroke-linejoin="round" stroke-width="2"/>
        <path id="Path_9028" data-name="Path 9028" d="M15008.174,686.955s1.2-.415,3.6-1.079,5.345-1.225,5.782-1.571a5.347,5.347,0,0,1,1.92-1.318c1.2-.478-2.051-.42,2.989-1.06s5.582.388,6.452,0,3.483-.526,4.6-1.1a36.767,36.767,0,0,0,4.093-2.109,11.615,11.615,0,0,1,4.222-2.284c1.955-.484,2.065-.01,3.529-.962a32.823,32.823,0,0,1,3.174-1.774l7.253-1.716,2.821-.8c.628-.178.32.316,1.943-.825s2.964-1.577,3.808-2.274,1.609-1.045.928-1.726-.488-2.029-2.313-1.764-2.831,1.134-4.365,1.764-2.011,1.02-4.036,1.726-3.585,1.9-5.309,2.274-4.395.075-6.56,1.625-1.474.4-3.648,1.716-2.518,2.229-3.344,1.774-2.783,0-2.783,0-1.913,1.512-.6-.833-1.529-2.835,3.38-3.457,4.657-.163,6.119-.825.491.166,3.529-1.41a51.566,51.566,0,0,1,8.25-3.184c3.226-1.105,9.658-2.239,9.363-3.15s-1.063-3-2.422-2.9-1.807-.927-4.765,1.237.951,1.091-4.595,2.979-6.136,2.079-10.546,3.333-7.456,2.053-8.9,2.446-1.523.483-2.031.644a9.513,9.513,0,0,0-1.871,1.625s.52-.262-.792.655a13.05,13.05,0,0,0-2.466,2c-.932.94-.526,1.007-2.128,1.795s-2.2.625-4.909,2.284-1.981.819-4.173,2.109-3.771,1.765-4.4,2.758,1.648.082-.814,1.356-2.923,2.009-2.923,2.009Z" transform="translate(-14853 -117)" fill="#edffff" stroke="#151515" stroke-linecap="round" stroke-linejoin="round" stroke-width="2"/>
        <path id="Path_9029" data-name="Path 9029" d="M15072.351,662.146s3.075-.3,3.948-.487.758.223,2.2-.8.87-1.661,2.866-2.005a12.609,12.609,0,0,0,3.977-.924c1.985-.8,2.747-.7,2.913-1.657s-.451-1.286,0-2.284,0-2.032,0-2.946.812-1.187,0-1.334-.561-1.081-3.562,0-2.772-.183-5.365,1.334-1.1.591-4.594,2.156-4.223,2.614-5.2,3.074-1.872,1.5-1.491,1.657.523-.28,2.074,0a7.261,7.261,0,0,0,2.918,0,14.187,14.187,0,0,0,3.271-.835c.477-.21,2.2-.822,2.2-.822a6.991,6.991,0,0,1-1.568,1.657c-.631.32-2.01.222-2.2.924s.882.295-1.047,1.192S15072.351,662.146,15072.351,662.146Z" transform="translate(-14853 -117)" fill="#edffff" stroke="#151515" stroke-linecap="round" stroke-linejoin="round" stroke-width="2"/>
        <path id="Path_9030" data-name="Path 9030" d="M15350.077,602.339a126.071,126.071,0,0,1-12.725,3.764,89.891,89.891,0,0,1-9.148,1.519c-2.174.259-.182-2.224-4.369,0s-4.175,2.421-7.926,3.581-1.009.345-6.759,2.067-1.876.234-7.5,2.131-7.74,1.813-10.722,3.329,1.371.309-8.965,4.018-14.941,4.708-16.106,5.5a26.213,26.213,0,0,1-3.147,2.093,12.252,12.252,0,0,1-6.771,2.287c-3.436.4,3.225-2.062-7.714,0s-12.915,4.032-13.021,0-1.146-5.507,0-6.8.877,1.224,2.675-3.085.088-3.035,0-4.018-1.983-.851-2.675-1.328.134-2.436-2.158-2a24.834,24.834,0,0,1-6.99,0c-1.035-.213,5.666-1.651-6.424,0a124.957,124.957,0,0,0-21.648,5.085c-1.253.281,7.165,2.25-5.35,2.261s-15.021,2.6-11.62,0,5.923-5.089,7.4-5.345,1.589-.142,7.844-2,.814,1.216,15.292-4.2,12.2-5.258,19.781-7.013-.983,2.893,11.632-1.852,13.7-5.164,17.526-6.337,4.768-2.279,12.933-3.293,3.453-.2,11.477-1.18,14.025-1.766,16.757-2.766-.542-.444,10.614-2.529,19.61-3.512,22.6-3.81-2.487,1.627,6.383,0,16.858-3.045,21.5-3.471,11.095-1.776,14.083-1.776,7.349.265,11.071,0,1.426.4,5.639,0,9.044-1.485,6.552,0-14.248,5.743-17.051,6.579-11.28,1.338-11.28,1.338.479-.683-1.546,0-3.345,1.141-3.345,1.141.97.611,3.345,2.529,1.579,3.375,0,3.946a5.842,5.842,0,0,1-3.345,0s-2.969-.572-4.123,0-4.378-.8-5.3,0-5.169.743-7.375,1.617-4.7,1.188-5.786,1.675a5.964,5.964,0,0,1-3.038,0s-2.233.34,0,2.221S15350.077,602.339,15350.077,602.339Z" transform="translate(-14853 -117)" fill="#edffff" stroke="#151515" stroke-linecap="round" stroke-linejoin="round" stroke-width="2"/>
        <path id="Path_9031" data-name="Path 9031" d="M15153.985,650.475s1.741-.042,3.361,0-3.879-.064,3,0,2.952,2.592,10.492,0,7.393-2.428,8.658-3.028,5.016-2.21,5.016-2.21,3.849-.832,0-1.453-4.41-.007-5.016-1.3-2.571-2.23,0-2.446,3.576,1.007,6.3,0,7.688-.515,9.569-1.529,7.13-.134,3.061-2.234-1.837-2.443-7.547-2.34-1.218-.06-7.716,0-6.1-.224-10.427,0-1.6-.428-8.9,0-10.871-1.621-10.871-1.621.09-.432,2.617-1.864a35.206,35.206,0,0,1,6.823-3.169c3.556-1.321,6.891-2.372,8.428-3.685s1-1.585,3.094-2.628,6.377-2.974,7.959-3.769.792-.686,2.621-1.71,6.59-1.869,11.951-2.953,3.826-.361,7.167-1.909,5.484-2,8.115-3.2,6.155-1.956,3.723-2.053-2.538-1.831-6.146,0-7.263,4.5-10.894,5.248-8.278.223-12.63,1.909-3.475,1.785-8.659,2.953-4.34-.365-9.319,1.71-8.366,1.954-14.85,4.953-6.483,3.379-8.673,4.077-7.764,2.05-9.786,2.8-.44-.665-4,1.424-3.539,3.555-5.167,3.485-.139-2-3.938,0-4.243.557-6.573,2.34-2.971.85-4.605,2.234-3.5.185-2.839,1.529,3.8,2.867,5.114,2.446,2.489.692,3.722,0a9.035,9.035,0,0,1,2.311-.918s-.826,1.134-6.032,2.218-11.526.845-12.3,1.453-.187-.851-1.844,2.21-1.836,2.523,0,3.028,2.349-.506,3.51,0,.4-.2,2.743,0a21.034,21.034,0,0,0,3.725,0c.932,0,.178-1.221,1.893-1.735s3.38,1.245,2.275,1.735-3.03.821-2.275,1.376a2.742,2.742,0,0,0,2.275.759c1.483.042-2.223,2.271,3.722,0s5.129.144,4.1,1.193-10.758,1.292-1.788,2.659,7.976-1.319,7.976-1.319V653.8a7.93,7.93,0,0,1,1.444-1.193c.679-.387.249.448,1.467-.759a15.678,15.678,0,0,1,3.558-2.306s-1.193-2.085,0-2.1a44.344,44.344,0,0,0,5.916-1.463s-1.494-1.213,1.238-2.2.483-.938,4.164-1.3,4.567-.918,4.567-.918a3.428,3.428,0,0,0,2.953.918c1.629-.4,2.433-1.409,4.674-.918s3.854.918,3.854.918-.172.053-.988,1.3a6.978,6.978,0,0,1-3.771,2.2c-.64.081-2.065,1.721-3.77,1.463s-1.178-1.414-2.953,0a11.619,11.619,0,0,1-3.684,2.1c-1.511.672-.132-.048-2.806.93s-3.3-.724-5.554,2.135-1.2,3.329-2.311,3.852,1.286,0,1.286,0,2.187-2.777,3.1-2.659-2.079-.8,2.356-1.193,4.643-.875,5.261-.759a2.665,2.665,0,0,0,2.353,0A44.222,44.222,0,0,1,15153.985,650.475Z" transform="translate(-14853 -117)" fill="#edffff" stroke="#151515" stroke-linecap="round" stroke-linejoin="round" stroke-width="2"/>
        <path id="Path_9032" data-name="Path 9032" d="M15352.692,613.049s-.98-.186.735,0,2.3-.146,5.6,0,3.622.681,8.08,0,6.525-.555,7.467-1.4-1.062-.815,2.239-1.448,5.014-.971,6.044-1.475,4.99-1.115,1.645-1.793-.234-1.3-4.867-.678-3.974.222-8.105,1.242-.86.49-6.116,1.229-3.092.694-6.386.77-4.657-.649-5.6,0a3.229,3.229,0,0,0-1.639,2.154C15351.652,612.543,15352.692,613.049,15352.692,613.049Z" transform="translate(-14853 -117)" fill="#edffff" stroke="#151515" stroke-linecap="round" stroke-linejoin="round" stroke-width="2"/>
        <path id="Path_9033" data-name="Path 9033" d="M15467.588,766.324a9.258,9.258,0,0,1,0,3.465c-.37,1.8-.665,1.811-.738,3.884s-.527,5.533,0,6.728-3.615-1.173,1.408,3.476,5.27,2.671,9.878,7.7,3.816,6.462,5.368,9.447-.395-3.249,2.006,3.637,1.891,14.751,1.16,15.919-2.434,1.5-3.166,3.726-1.989,3.491-2.432,4.929a2.558,2.558,0,0,0,0,2.091l-2.034,9.939c0,.158-1.037.688,1.15,3.459s1.205-1.869,3.315,4.478,3.166,9.4,3.166,9.4l1.511,1.957c.631,1.577,2.493,3.538,2.4,4.986s-.5-.046,0,3.418a30.307,30.307,0,0,0,1.1,5.317c.208.664.549,1.3,1.049,2.9s1.658,5.669,1.658,5.669l.9,2.146h92.1v-6.525s-2.052-1.165,5.635-4.188,10.445-3.253,9.083-8.735-3.12-11.517-3.12-11.517-4.214-2.3-1.553-4.828a14.481,14.481,0,0,1,4.673-3.287c.883-.464,12.073-4.634,13.029-4.65s1.517,1.907,3.17,0,3-1.532,5.274-4.9a14.15,14.15,0,0,0,2.463-5.038c.411-1.009-1.172,1.6,0-2.091s1.553-3.412,1.172-6.213.683-1.929-1.172-5.462-3.347-4.718-4.4-7.934-.79-3.139-1.533-4.965,0-7.939,0-7.939l5.932-12.843s-3.957,4.709,2.914,0,13.111-9.338,16.875-11.436,8.213-3.681,9.334-4.611,4.541-3.045,5.737-4.481-.017-2.12,3.381-5.443a22.144,22.144,0,0,0,5.08-7.747,28.475,28.475,0,0,0,2.03-4.737,14.954,14.954,0,0,0,0-3.664s-22.919,2.754-25.562,2.081-16.875-8.421-16.875-8.421-8.4-5.907-8.846-6.728,2.782-1.112-1.806-3.423-5.74-3.005-7.786-3.931-1.528.052-3.538-2.27-9.31-17.065-9.31-17.065-2.007-1.366-3.89-2.94-3.613-2.931-5.379-4.329-2.729-1.725-4.832-3.948-2.4-2.086-2.322-2.8,5.381-.943,6.22-.943.451-1.319,3.366,0,2.644.634,3.769,1.953a42.278,42.278,0,0,0,4.447,4.949c2.689,2.563,4.932,4.6,5.5,5.12s-2.036-.934.892,1.545,3.632,1.952,5.077,2.7,1.9-1.114,3.624,1.57,2.311,1.754,4.162,4.926,1.551,3.969,2.747,4.664,2.9.935,4.99,2.5.8.564,2.914,2.1-.8-7.253,3,2.27,3.4,9.136,3.872,10.094-1.224.925,2.331,1.633,34.408-4.374,34.408-4.374l27.421-7.353,7.677-9.07L15690.907,702l-13.626,2.872h-7.919l-17.063-15.881s-2.394-4.509,2.865-4.459,5.622,1.943,10.15,4.459,8.3,3.2,9.128,3.82a28.451,28.451,0,0,0,4.7,1.92c1.263.472,5.936,1.1,7.2,1.607s-.974,2.012,4.566,2.723,7.5,1.545,7.5,1.545a8.493,8.493,0,0,1,2.8,0,4.106,4.106,0,0,0,2,0s12.043,4.343,13.588,4.268,6.358,0,6.358,0h2.009c8.415-2.384,7.191-2.912,10.06-1.57s9.66,5.2,10.382,6.5a11.141,11.141,0,0,0,2.043,2.467l9.507,5.1s-3.164-1.347,1.1,1.635,1.088,3.406,5.875,2.947,5.635-.589,6.448,1.1a33.084,33.084,0,0,1,2.027,5.645c.171.957-.647,1.827,0,2.339s8.342,9.9,8.49,10.728.57,1.66,2.251,3.664,3.1-.4,5.845,5.347,4.3,7.072,4.945,7.749.854.059,2.929,1.716a13.728,13.728,0,0,0,4.062,2.267s2.435-.253,2.639-.736.68-4.282,1.068-5.283,1.038-2.465,1.42-3.826-.566-.223,0-1.887-.6-3.849,0-5.347a7.554,7.554,0,0,0,.6-2.534s-1.207.422,1.007-1.13a23.637,23.637,0,0,1,6.093-2.636c.474-.159-1.916.1,2.136-.733s12.176-5.06,12.176-5.06.225.285,1.649-.852,3.949-2.751,3.949-2.751-5.32-1.61,2.475-1.036,15.392,1.036,15.392,1.036-3.652-1.3.945,1.3,4.732,2.727,5.355,3.435,8.351,5.515,8.351,5.515.411-.458.956.951,2.064,3.882,2.425,5.342a3.721,3.721,0,0,1,0,2.259s7.08-.723,7.6,0,3.743.279,5.039.9,1.844-4,3.826,2,1.493,7.124,2.931,8.8,1.713,3.282,2.315,4.408,2.45,0,2.45,0,.646,3.433.678,4.267,0,2.879,0,2.879l4.277,8.29s-1.291-2.325,1.9,2.639,3.721,4.982,8.23,8.047,3.64,2.787,4.863,3.943a18.7,18.7,0,0,1,2.672,2.678c.779,1.071-1.161-.121,1.969,2.261s2.689,2.449,4.027,3.157a20.129,20.129,0,0,0,3.491,1.27l-2.812-6.688a12.473,12.473,0,0,0-2.095-2.678c-.8-.534-1.559-1.866-2.611-2.713s-4.475-3.357-5.578-4.338a11.171,11.171,0,0,1-1.725-2.046,11.024,11.024,0,0,0-3.1-2.894,28.592,28.592,0,0,1-2.974-1.746,5.687,5.687,0,0,1-2.318-1.873c-1.42-1.627-1.822-1.362-2.044-2.152s-.494,1.559-1.034-2.414-1.111-5.463-.863-5.622,1.173-3.417,1.9-3.5-5.38-3.292,2.748,0,9.167,2.9,9.408,3.5-.375.157.938,1.165,2.634,1.637,3.7,2.55,2.73,3.809,3.552,4.321-.978-1.257,2.095,1.395,1.547,2.339,3.683,2.631,7.68-.892,7.68-.892,3.337-2.741,3.927-3.133,1.2-.951,1.2-1.621-1.343-2.365-1.877-3.536a31.781,31.781,0,0,0-1.854-4.028,55.369,55.369,0,0,0-4.575-5.259c-.817-.752-1.352-1.8-2.565-2.267s-5.6-4.11-5.621-4.58-1.83-1.506-2.095-2.331-1.048-.312-1.386-1.893-1.556-5.006,3.48-5.157,30.757,2.26,34.646,2.259,17.806-4.609,14.554-10.142-9.521-14.758-9.521-14.758-2.288-1.287-3.041-1.616-1.962-.772-1.992-1.365-5.638-2.544-1.733-3.181,2.765-2.063.678-2.8a15.02,15.02,0,0,0-2.907-.88c-.7-.133-1.155.341-1.747,0a24.42,24.42,0,0,0-2.822-.8,13.1,13.1,0,0,1-1.852-1.231v-4.71s-.463.17,1.134,0,8.194,0,8.194,0,.658-1.775,1.983,0-1.983,1.03,2.642,2.842a24.937,24.937,0,0,0,7.832,1.868s-.422.456,1.561,2.028,2.165,2.169,4.371,4.523,2.365,3.553,3.773,3.7,1.86-.461,3.6.949.742.037,2.226,1.817,1.188,1.955,2.107,2.2a7.551,7.551,0,0,0,2.434,0s-.486-.885,1.534,0,2.451,0,2.451,0-.819-3.616-2.451-4.015-.958.444-2.7-.949-2.391-3.647-3.372-3.7-2.267.315-2.226-.842,0-2.111,0-2.111-2.365.506,1.491-.69,7.312-3.143,7.987-2.908-.3.443,1.273,0a4.276,4.276,0,0,1,4.255,1.231c.643.992-.23-.647,2.574.8s8.245-2.071,9.038-2.028,2.336-1.346,3-1.868,1.248-1.068,1.162-1.578-1.162-3.862-1.162-3.862V700.8l-3-4.29s-4.678-1.813-6.355-2.238-.921-.567-2.683-.86-.157,1.051-3.611-1.107a27.509,27.509,0,0,0-5.669-2.735c-.551-.31-2.516-.994-2.7-1.736s2.478-1.45,3.881-1.6-2.039.509,2.395,0,13.757-.623,14.746,0-5.371-.74,3,1.6,9.06,2.965,10.01,3.368,16,4.755,16.849,5.308a20.75,20.75,0,0,0,4.472,1.329c.839.184.015.343,3.324.735s1.815-.532,4.88,0,2.5.119,4.39.74a13.627,13.627,0,0,1,3.438,1.486c1.37.77,7.991,2.469,7.991,2.469a1.846,1.846,0,0,1,1.979,0,10.708,10.708,0,0,1,1.618,1.178,12.945,12.945,0,0,1-3.6,1.709c-1.724.412-1.2.793-4.1.889s-3.634-.411-4.953,0-2.895,0-2.372,1.264-.567-4.447,2.372,1.578,2.021,5.058,3.872,6.79a16.879,16.879,0,0,0,4.241,2.765s-6.849.189.943,0,8.4-1.137,8.4-1.137-.154-2.726-.717-2.953-.263-.175-2.12-2.368-7.736-3.385-1.967-3.1,3.905-1.27,6.436,0,5.615,2.674,6.472,3.1,1.665.8,1.665.8l16.8,5.659s-.673-1.8,1.879,0-1.315-2.217,3.353,1.2,7.377,5.424,7.14,4.131-5.182-5.334-5.182-5.334-5.436-2.018,0-1.137,16.676,7.372,17.207,7.978-.2-.933,1.581.691.855.939,4.252,2.646a19,19,0,0,0,4.811,1.913,2.033,2.033,0,0,0-1.066-1.913,24.2,24.2,0,0,1-3.744-3.337c-1.178-1.17,2.5.858-4.252-2.625s-6.729-4.216-7.416-4.216-9.761-3.346-10.488-4.089a9.742,9.742,0,0,0-1.781-1.57c-.9-.634-.891-.612-3.162-2.028s-4.729-4.366-6.732-4.71-5.484-2.361-7.089-2.6-6.219-1.276-7.775-2.482-3.414-2.651-3.414-2.651.044.454-1.667-.74-7.284-1.512-7.826-2.064-5.1-1.435-6.131-2.238.4-.859-2.651-1.967-2.028-.182-3.872-1.1-3.354-1.5-4.806-2.33-2-.523-5.383-2.64-6.992-3.944-6.992-3.944c-.162-.163-6.083-1.865-6.083-1.865l-2.1-1.539c-.488-.325-4.1-2.052-4.1-2.052-.326-.163-4.606-2.4-4.606-2.4-.325-.163,2.23.509-5.845-2.666s-9.386-3.3-9.386-3.3l-9.038-1.439-10.106-5.589c-.163-.163.332-.822-3.916-3.268s-3.178-1.772-5.975-3.447,3.306.843-5.645-3.646-10.857-4.441-11.616-4.574.678,1.925,1.628,2.262a37.055,37.055,0,0,1,4.74,2.311c.722.5.028,1.2,3.152,2.3s4.033,2.056,4.033,2.056.533,1.173-1.254,1.173.721.546-2.779,0-4.909-.689-5.54-1.173-5.444-1.37-5.444-1.37l-5.3-1.726s1.347-1.06-5.569-3.572-8.146-3.363-8.146-3.363c-.325-.325-.905-.078-2.779-.726s-3.656-1.222-3.656-1.222l-4.575-2.391-2.565-1.865s6.833.5-2.464,0-10.424-1.267-10.424-1.267a14.183,14.183,0,0,0-3.158-2.628c-2.191-1.465,3.114-1.135-4.656-2.641s-8.656-1.459-8.656-1.459h-1.326l-2.945-1.428c-.326-.163-2.016-1.014-2.016-1.014-.488-.488-.659-1.067-3.447-1.512s-3.518,0-3.518,0h-3.826c-4.327-2.33-7.194-4.069-7.194-4.069-.162-.163-3.867-2.115-3.867-2.115-1.3-.488-4-1.953-4-1.953h0c-10.551-3.365-11.026-3.728-11.026-3.728a45.831,45.831,0,0,0-3.636-2.8s-1.294-2.19-4.929-1.214a45.979,45.979,0,0,1-5.542,1.214l-9.052-2.807a8.22,8.22,0,0,0-4.558-2.032c-2.953-.356-1.642,1.061-3.63,0s-3.119-1.309-6.715-2.286a23.127,23.127,0,0,0-7.939-1.174c-2.671.1-2.906.029-5.4,0s2.012,1-4.261,0a60.181,60.181,0,0,0-9.131-.948l-3.165.948-17.777-1.914a12.078,12.078,0,0,0-2.966,0,15.421,15.421,0,0,0-3.482.966h0c-4.628.608-6.169,0-6.169,0l-6.639-3.134c-.651-.325,0,2.169,0,2.169a23.945,23.945,0,0,1-3.678.966,7.7,7.7,0,0,0-2.043,0l-6.558-1.946c-.488-.325-4.361-2.276-3.824-1.189s3.824,4.083,3.824,4.083.33-1.468-.837,1.174a12.931,12.931,0,0,0-1.221,4.317s-2.2,1.091-3.286.846-3.789,1.35-1.565-.846,1.351-2.211,1.565-2.789a3.383,3.383,0,0,0,0-1.529,16.757,16.757,0,0,1-1.565-1.174c-.034-.121-2.431-4.083-2.431-4.083a3.066,3.066,0,0,0-1.378-1.452c-.942-.424-1.8-.819-1.8-.819l-3.375.819h0a16.84,16.84,0,0,0-5.5-.819s-.833-1.048-2.829,0a42.379,42.379,0,0,0-3.778,2.271,2.952,2.952,0,0,0,1.7,1.189c1.2.329,0,1.946,0,1.946l-1.7.948h-3.379l-5.3-2.894-12.584-2.641a38.453,38.453,0,0,0-5.187,1.452c-1.294.614,9.989,1.278-3.344,1.189s-13.422.269-14.236,0,.745-1.052-2.731-1.189-1.07.2-5.314,0a87.483,87.483,0,0,0-9.459,0c-1.878.132-.442-.529-3.679,0s-3.18,1-7.667,1.189-4.027-.766-8.1,0-1.236,1.195-5.258.98.384-.31-4.7,0-5.642.374-7.526.966-.487.551-3.923.948-3.483,1.081-9.611,1.174-7.942.839-8.216,0-4.271-2.115-6.048-3.088-3.339-.174-3.538-.98-7.4-3.019,0-2.641,7.109-.378,9.586,0,3.42-.059,5.486,0-.321,1.288,5.313,0a51.892,51.892,0,0,0,7.027-1.89s.353.695-7.027,0-9.219-1.422-10.8-1.482-3.366,0-3.366,0-1.662-.58-3.9-1.22,4.947-1.247-6.511-2.289-14.4,0-14.4,0h-6.264s.413-3.919-6.322-3.278a41.054,41.054,0,0,1-10.2,0s-10.512,3.85-12.038,3.278-7.164-.648-8.719,0a3.067,3.067,0,0,1-2.642,0l-4.1,3.509a19.841,19.841,0,0,1-5.54,1.482,36.776,36.776,0,0,0-7.156,1.89,61.974,61.974,0,0,1-6.18,1.452c-1.594.159-3.555.036-4.051,1.189a5.237,5.237,0,0,0,0,2.894s-5.4,1.041-6.937,1.174,1.607-1.393-3.335,0-1.792.085-7.02,1.529a32.625,32.625,0,0,0-7.448,2.789v4.339s-2.165-1.277,1.427,0a21.466,21.466,0,0,0,6.021,1.336h2l3.437-1.336,6.126-1.359h2.05l8.878,6.269h13.3a10.546,10.546,0,0,0,3.338-1.82c1.049-1.055,2.966-3.089,2.966-3.089s-.289.228,0-1.359a16.94,16.94,0,0,1,2.226-4.412s-10.19-1.019,0-2.885,9.034-1.991,11.36-3.088a20.132,20.132,0,0,0,3.666-2.169s-2.335-1.236,0-1.452,2.2-1.73,4.225-.819a68.9,68.9,0,0,0,8.129,2.271s-2.225,2.791-3.981,3.134-2.164.248-3.051.948-.2-1.36-2.7,1.174-2.038,1.329-1.271,2.885.968,2.479,2.874,2.278.526-1.159,4.147-.846,1.821-.628,8.271,0,9.938,1.351,12.057.846,4.72-.846,4.72-.846l-2.259,2.98h-19.944a22,22,0,0,1-1.492,2.7c-.928,1.429,1.775.708-1.352,1.753s2.447.9-4.147,1.82-5.734,2.018-7.891,2.609-.637-1.234-3.33,0-7.693,1.43-8.03,1.682-5.768.94-6.838,1.164-14.988,0-14.988,0-4.93.354-5.2,0-2.515-.126-3.678,0a26.114,26.114,0,0,1-3.259,0v-2.846a2.124,2.124,0,0,0-2.02-2.609c-2.462-.143-6.334,0-6.334,0s4.018,3.115,1.917,4.291-9.6,2.005-11.366,2.867-3.187,1.607-3.187,1.607l-11.006,4.047h0s1.481.881-1.055,1.465-5.8,1.479-5.8,1.479,1.123-1.584-1.821,0-3.065,1.625-4.436,1.984,6.663-1.134-3.723,1.182-12.013,2.717-12.013,2.717l4.915,1.855s.05.567,1.635,2.01,1.874-.648,1.166,2.439-1.042,5.265-7.716,6.179-16.144,0-16.144,0l-3.418,1.151s2.532-1.334-1.379,0-4.857,1.7-4.857,1.7-2.428,2.02-2.564,3.3,1.222,2.96,0,3.906-7.985-1.169-2.854,1.891,7.731,3.553,7.731,3.553.831-.064,3.924,0,1.612.456,5.968,0,9.939-3.57,11.427-3.553,5.486,1.54,7.082,0-.414-.05,2.8-1.891,6.147-3.906,6.147-3.906,13.951-2.552,13.931-3.3a10.777,10.777,0,0,1,1.055-2.855s-2.437-1.7,0-2.078,7.489.38,8.605,0-3.67,1.947,2.4,0a97.371,97.371,0,0,0,10.635-4.1s-1.694-4.7,3.918,0,.514,4.243,6.437,6.179a79.961,79.961,0,0,0,10.987,2.855,21.437,21.437,0,0,0,6.18,0l5.646,1.761s1.52,2.745,1.511,3.572,2.653,1.227,2.8,0,4.175-2.632-1.691-5.333-11.808-4.18-13.3-4.933-1.7-1.536-3.312-2.244a10.072,10.072,0,0,1-3.176-2.966s-2.146-.425,3.176-1.33,11.1,4.186,13.988,4.3,2.873,1.769,7.051,2.244,2.558-1.624,6.741,2.078,6.094,2.025,8.719,4.616,1.993-.4,3.666,3.572,2.354,5.037,5.321,3.766,8.846-1.891,8.846-1.891l-5.795-5.447s-4.181-1.757,0-1.761-.122.248,5.795,0a48.274,48.274,0,0,0,10.729-1.7s-.739,1.836,1.521-1.151-3.462-6.563,2.282-7.289a35.493,35.493,0,0,0,7.2-1.33c1.282-.308,3.215-2.2,4.331-2.01a11.924,11.924,0,0,0,5.327,0c2.741-.569,1.963-1.7,4.188,0s6.22,4.449,6.22,4.449l3.366-1.109v-3.34s-5.337-.008,1.4,0,5.793.428,8.076,0a11.839,11.839,0,0,1,4.24,0s-8.735,1.217-2.916,3.34a67.9,67.9,0,0,0,10.95,2.966s-1.024.981,1.559,2.244,8.96,1.337,2.735,3.229-6.054,1.382-8.217,1.7-1.2-.757-4.111,0a17.16,17.16,0,0,1-8.229,0c-2.456-.576-2.669.908-4.087,0a21.106,21.106,0,0,0-3.831-1.7l-6.086-1.151-5.257,1.151s.084-.728-3.168,0-8.972,1.7-8.972,1.7,2.243-1.321-2.259,0a60.713,60.713,0,0,1-7.539,1.761s.206-1.127,0,1.541a4.662,4.662,0,0,0,1.275,3.906s-9.34-.209,5.109,1.891,15.311,2.1,16.648,2.1,1.659.145,5.415,0,7.658,0,10.211,0-2.077,7.293-2.947,8.158-1.521,4.933-3.366,4.992-4.222-.5-6.22,0-2.547-1.065-5.6,0,4.219-.493-6.3,0-7.916-.313-11.435,0a35.427,35.427,0,0,1-6.336,0s1.42,1.11-1.507,0a53.144,53.144,0,0,0-7.358-1.935s.895-.736-1.492-1.287-9.724,0-9.724,0,5.735-3.056-3.666,0-11.36,4.456-11.36,4.456.161.042-4.1,0-6.83-1.3-8.22-1.233-1.058.871-2.748,0,2.682-2.224-3.867-1.935-7.755-.289-9.38,0a21.117,21.117,0,0,1-4.439,0s.385,2.144-3.229-3.057-2.9-8.158-2.9-8.158-11.163-.091-12.886,0-12.111-1.126-14.192,0-3.222.208-5.687,1.454,4.06.511-2.99,1.261-5.658.629-13.621,1.673-12.708,1.542-15.249,1.769-.724-1.119-4.895,0-5.968,1.661-7.347,2-10.276,4.992-10.276,4.992-.139-1.136-2.5,1.233-2.827,9.2-2.827,9.2.522-.228-3.272,1.813h0c-14.037,5.918-18.6,10.707-18.6,10.707l-3.681,1.57-2.7,2.578c-1.3.78-5.1,3.552-5.1,3.552-.26.26-3,3.459-3,3.459v6.873l-1.412,7.353s1.623-.538,0,1.309-1.5,1.327-2.149,3.336-1.23-.786-1.312,2.66-1.947,3.037,1.312,4.713-3.367-2.976,4.8,2.454,9.629,5.1,9.561,6.941-2.191,5.59,0,6.948.2.626,6.075,3.022,6.218,2.568,7.984,2.7,8.471,1.2,10,1.216,2.989-1.267,6.823-1.216a48.224,48.224,0,0,0,10.276-1.211c2.3-.508-1.759-1.789,7.347-1.491a122.331,122.331,0,0,0,12.481,0h1.112l15.735-3.022s-5.535-.582,4.436,0,12.832,0,12.832,0l4.451,4.513s-4.355-.363,2.4,0S15467.588,766.324,15467.588,766.324Z" transform="translate(-14853 -117)" fill="#edffff" stroke="#151515" stroke-linecap="round" stroke-linejoin="round" stroke-width="2"/>
        <path id="Path_9034" data-name="Path 9034" d="M15675.079,828.685a6.208,6.208,0,0,1,1.292,3.141,14.237,14.237,0,0,1,0,4.068c-.2,2.4.6-2.425-1.292,3.949s-2.614,7.55-2.964,9.078,2.127-2.018,0,3.445-3.039,5.3-3.039,8.364a31.592,31.592,0,0,1,0,4.551c-.218,3.5-.361,3.913-1.072,5.163s-.568,1.836-1.822,2.909a6.239,6.239,0,0,1-2.764,1.375c-1,.38,1.263.51-3.26,1.133s-2.952.139-5.375,0-2.049,1.475-4.738-1.133-4.256-1.971-4.361-5.231-2.2-4.123,0-6.282a13.442,13.442,0,0,0,2.965-4.033,3.842,3.842,0,0,0,1.4-4.363,32.753,32.753,0,0,1-1.4-5.9c-.284-1.846-1.854-2.326,0-4.521s-.051-2.01,2.36-3.011,4.308-2.224,5.829-2.584a31.838,31.838,0,0,0,6.58-2.91c1.954-1.143.033-.738,2.764-2.761a21.277,21.277,0,0,0,4.473-4.448c.355-.449-.043-.722,1.461-1.356S15675.079,828.685,15675.079,828.685Z" transform="translate(-14853 -117)" fill="#edffff" stroke="#151515" stroke-linecap="round" stroke-linejoin="round" stroke-width="2"/>
        <path id="Path_9035" data-name="Path 9035" d="M15888.166,788.7a89,89,0,0,1,7.541,5.474c1.49,1.473,2.754,2.7,4.671,4.463s1.628,1,2.777,2.539,1.029,1.287,5.187,4.964a38.938,38.938,0,0,0,5.7,4.506,16.262,16.262,0,0,0,2.532,4.273,26.7,26.7,0,0,0,5.192,4.618,25.317,25.317,0,0,1,2.395,2.145c2.559,2.355,2.816,2.734,4.292,3.34s1.828.682,3.559,1.512a42.454,42.454,0,0,0,4.343,1.67s.493-.334,1.976,0,3.044-.408,3.11-1.67,0-2.924,0-2.924v-1.928s-2.173-1.474-3.11-2.145-.786-.788-3.522-1.788-6.354-2.829-6.354-2.829v-1.682a6.736,6.736,0,0,0-2.128-2.591c-1.313-.8-4.559-2.391-4.559-2.391l-1.362-2.115s-2.008.436-3.83-2.227.5-1.048-2.532-2.737-6.041-2.664-7.271-3.74-1.755-2.557-3.612-3.262-2.645-1.244-4.425-2.09a42.609,42.609,0,0,1-4.513-2.09C15893.213,789.3,15888.166,788.7,15888.166,788.7Z" transform="translate(-14853 -117)" fill="#edffff" stroke="#151515" stroke-linecap="round" stroke-linejoin="round" stroke-width="2"/>
        <path id="Path_9036" data-name="Path 9036" d="M16060.435,880.538s-.867-4.429-1.454,0,2.271,4.813,0,6.04.188,1.435-3.442,1.753-8.477-.539-9.7-1.753-.783-2.634-2.383-3.311,2.464-6.769-3.732-1.249-7.2,7.6-7.2,7.6v3.186h-1.536c-1.427-4.424-1.8-6.229-1.8-6.229s-1.481.872-1.412,1.753,0,4.476,0,4.476.128-.09-1.883,1.528-.338,1.509-3.4,2.324-2.333-1.964-5.639,0-3.22.795-9.146,2.9-5.692,1.781-8.162,2.734-2.663.206-3.57,1.46-2.888.976-1.6,3.137.4,1.343,2.86,4.9,4.737,5.917,5.522,7.465a2.266,2.266,0,0,1,0,2.482s-.936,1.332-3.215,0a45.2,45.2,0,0,0-5.168-2.482s3.091,4.494,5.168,7.325a75.346,75.346,0,0,0,5.133,5.9c1.767,2.064,1.648.515,3.029,4.119s1.665,3.48,2.927,6.377,1.427,4.2,2.608,7.07,3.713,2.3,3.61,5.736-13.232-.17,1.967,5.309,15.88,5.408,16.972,5.408,8.611-.572,10.043-1.357-2.021-1.981,5.159-1.981,7.614.677,9.439,0,3.311-2.532,6.4-2.07,10.98,0,10.98,0a39.189,39.189,0,0,0,6.585,2.07c2.383.352-4.36-4.1,6.272,1.981s12.237,5.884,13.112,7.338a9.018,9.018,0,0,1,1.291,3.315c.418,1.582,1.773,3.818,2.106,2.288s-3.018.963,0-2.288,7.926,0,7.926,0v5.755l3.438,1.835,3.862,1.285s-1.015,2.33,0,3.806a10.97,10.97,0,0,0,2.492,2.845c1.77,1.684,1.041-.059,2.958,2.66a19.055,19.055,0,0,0,3.2,3.853c1.144,1.142,2.161,1.478,3.435,3.941s.988,2.829,2.148,3.146-.574-.9,4.117,0,7.368,1.4,7.368,1.4-1.21-.592,1.513,1.582a20.033,20.033,0,0,0,4.26,2.8h5.445l1.39-2.8h6.849s-.905-3.7,0-6.127-1.4-8.422,0-10.454,1.384-3.332,1.809-4.757-.425-2.712,0-5.013.249-2.713,0-5.755.659-5.24,0-6.694-.484-2.112-1.809-5.939.439-6.009-1.918-7.379.056-.358-6.32-5.736-7.429-3.858-9.705-7.07-3.488-2.626-5.653-6.377-2.837-5.149-4.862-7.635-4.914-5.2-6.049-7.227-.614-1.776-3.763-4.728-1.993-2.6-4.408-5.219-1.058-3.085-2.492-4.9a12.251,12.251,0,0,1-2.236-4.6c-.481-1.48-1.066-.689-1.626-2.734s.536-1.483-3.438-5.222-5.25-4.714-5.25-4.714v-1.29s-3.156-1.555-2.676,1.29-.34,3.561,0,4.714-.32-.123,0,2.324,0,2.9,0,2.9a10.441,10.441,0,0,0,0,2.734c.223.975-.394-1.507,0,1.46s1.521,4.612,0,5.257-3.4,1.449-3.4,1.449h-2.393l-2.5-1.449-2.622-2.121s1.807-.882-1.56-3.137-4.6-3.693-5.578-4.194-2.159,1.866-4.734-1.646-2.294-2.873-2.045-5.105.869-3.628,0-4.476-7.245-6.314-7.245-6.314l-1.864-1.479a15.028,15.028,0,0,0-2.447-1.283,7.63,7.63,0,0,1-2.479-1.9s.051.2-1.485,0a15.628,15.628,0,0,0-3.258,0Z" transform="translate(-14853 -157)" fill="#edffff" stroke="#151515" stroke-linecap="round" stroke-linejoin="round" stroke-width="2"/>
        <path id="Path_9037" data-name="Path 9037" d="M16049.777,841.995s.166-1.82,1.826,0,3.267,3.231,3.267,3.231-1.489,1.166,0,2.219a7.73,7.73,0,0,1,2.278,2.91s0-1.457,2.007,0,1.7,1.241,3.388,1.757,8.293,3.059,9.4,4.36-.233.526,1.564,2.329a37.768,37.768,0,0,0,7.072,4.831c1.486.807,3.7-1.021,3.038,2.391s-.668,4.367,0,5.7,4.464,1.443,5.956,1.728,2.593-2.547,3.86,0,.091,1.232,2.252,3.318a13.8,13.8,0,0,0,4.67,2.92s1.965.031,3.578,0,11.108.315,12.32,0-3.691-6.329,1.639,0,5.137,5.715,6.929,7.276,2.037,2.377,3.559,3.1-1.108-6.478,0-4.779,2.6-.945-3.559-5.594-7.553-4.6-8.567-6.238,2.254-.911-3.583-3.5-8.93-2.631-11.06-3.923-3.553,1.377-5.926-2.391-3.769-4.831-3.769-4.831-1.3.457-3.745-2.329a33.345,33.345,0,0,0-4.555-4.36s.344.852-3.038,0a25.6,25.6,0,0,1-5.113-1.757s.055-2.293-1.959,0-2.084,2.844-3.206,1.757-1.157-.237-2.173-1.757a29.494,29.494,0,0,0-4.209-5.129c-1.965-1.9-4.113-4.1-4.763-4.757s-2.007,0-2.007,0h-5.545Z" transform="translate(-14853 -157)" fill="#edffff" stroke="#151515" stroke-linecap="round" stroke-linejoin="round" stroke-width="2"/>
        <path id="Path_9038" data-name="Path 9038" d="M15488.472,664.587a4.4,4.4,0,0,1,2.706,0c1.278.5,4.519,1.444,5.219,1.747s-.379-.11,1.433,0a22.012,22.012,0,0,0,3.012,0s-.043-.684,0-1.747,0-1.771,0-1.771a8.4,8.4,0,0,1-2.11,0,8.057,8.057,0,0,0-3.176,0c-1.863.273-1.308-.645-3.04,0a16.876,16.876,0,0,1-3.044.841Z" transform="translate(-14853 -117)" fill="#edffff" stroke="#151515" stroke-linecap="round" stroke-linejoin="round" stroke-width="2"/>
        <path id="Path_9039" data-name="Path 9039" d="M15470.252,654.47c.295.657,2.579-.5,3.257,0a1.125,1.125,0,0,0,1.447,0c.337-.179,0-1.157,0-1.157v-1.47h-1.447s-.214-.287-1.18,0S15469.957,653.814,15470.252,654.47Z" transform="translate(-14853 -117)" fill="#edffff" stroke="#151515" stroke-linecap="round" stroke-linejoin="round" stroke-width="2"/>
        <path id="Path_9040" data-name="Path 9040" d="M15447.685,661.4h.878a2.33,2.33,0,0,1,1.559-.909c.948-.06,3.029-.816,3.668-.816h1.379v-1.947s-.379.337-1.379,0a2.432,2.432,0,0,0-1.982,0c-.885.225.342-1.169-1.686,0s-3.323,1.947-3.323,1.947v.816Z" transform="translate(-14853 -117)" fill="#edffff" stroke="#151515" stroke-linecap="round" stroke-linejoin="round" stroke-width="2"/>
        <path id="Path_9041" data-name="Path 9041" d="M15439.583,664.515l1.034-.682.992-.506.489-.907s.538-.914,0-.939a7.126,7.126,0,0,0-2.516,0,9.284,9.284,0,0,0-2.086.939Z" transform="translate(-14853 -117)" fill="#edffff" stroke="#151515" stroke-linecap="round" stroke-linejoin="round" stroke-width="2"/>
        <path id="Path_9042" data-name="Path 9042" d="M15418.321,636.486l5.623-1.166h1.643s-.338.74,1.152,0,1.787-.544,3.492-.74a30.772,30.772,0,0,0,4-.847c.981-.225-2.513.477,1.624,0s3.23-3,3.23-3h1.372s-.06-1.533-1.372-1.747-2.978.92-3.23,0-1.624-1.477-1.624-1.477,1.015-.5,0-.775a10.1,10.1,0,0,1-1.852-.724s-.338-.238-.951-.674-1.2-.872-1.2-.872.394,1.014-1.348,0a11.339,11.339,0,0,1-2.145-1.442,4.226,4.226,0,0,1-1.152-1.1c-.26-.509.446-.726,0-1.316s-.654-1.152,0-1.661a2.837,2.837,0,0,0,1.152-1.362c.227-.593-1.152-1.051-1.152-1.051s-.158-1.005-.923,0-.354-.245-1.889,1.051-1.979.506-2.8,1.362.387,1.161-1.656,1.661-2.329.538-2.423,1.316.1.13,0,1.1a4.488,4.488,0,0,0,0,1.442c.051,1.035-.316.771,1.47,1.547s.9.544,2.609.724a11.5,11.5,0,0,0,2.8,0s.916-.592,0,.775-.59.888-1.854,1.477-.36,1.641-1.744,1.747a10.366,10.366,0,0,0-3.278,1.152s.693,1.752,0,1.847-.841.4-.73.847.189-.413.73.74S15418.321,636.486,15418.321,636.486Z" transform="translate(-14853 -117)" fill="#edffff" stroke="#151515" stroke-linecap="round" stroke-linejoin="round" stroke-width="2"/>
        <path id="Path_9043" data-name="Path 9043" d="M15400.035,634.971a6.127,6.127,0,0,1,1.339-1.156,12.451,12.451,0,0,1,2.31-.909c.5-.084,1.222.771,2.01,0a7.455,7.455,0,0,1,2.06-1.649c.716-.315.932.761,1.435,0a5.434,5.434,0,0,1,1.013-1.167s1.853-1.533,1.156-2.153a7.032,7.032,0,0,0-2.169-1.049s.652-.53-1.435-.959-1.031-.377-2.06,0a11.117,11.117,0,0,0-2.01.959c-1.394.712-.951.123-2.31,1.049s.444.3-1.339,1.163a13.522,13.522,0,0,1-2.361.99l-2.213,1.167a3.937,3.937,0,0,1,0,1.649c-.214.631.793,2.065.793,2.065h3.781Z" transform="translate(-14853 -117)" fill="#edffff" stroke="#151515" stroke-linecap="round" stroke-linejoin="round" stroke-width="2"/>
        <path id="Path_9044" data-name="Path 9044" d="M15407.85,623.3l1.8-.863s.713.878,0-.76-1.392-1.675-1.8-1.566-.436-.978-.982,0a17.335,17.335,0,0,1-.974,1.566Z" transform="translate(-14853 -117)" fill="#edffff" stroke="#151515" stroke-linecap="round" stroke-linejoin="round" stroke-width="2"/>
        <path id="Path_9045" data-name="Path 9045" d="M15431.732,614.391h2.75s.965,1.085,1,0,0-1.838,0-1.838.867-1.191-1-.936a6.122,6.122,0,0,0-2.75.936s-.185.278,0,1S15431.732,614.391,15431.732,614.391Z" transform="translate(-14853 -117)" fill="#edffff" stroke="#151515" stroke-linecap="round" stroke-linejoin="round" stroke-width="2"/>
        <path id="Path_9046" data-name="Path 9046" d="M15810.741,766.983c-.144.381.135.79,0,1.311s-.356,1.143,1.117,2.783,3.537,1.483,4.422,1.824,2.5-.3,2.94,0,.548.483.89,0a1.8,1.8,0,0,1,.852-.638s.611-.1,0-1.186-1.08-2.731-1.278-2.783a11.347,11.347,0,0,1-1.433-1.809c-.513-.688-.058-1.026-1.164-1.534s-.869-.569-1.931-.987a6.794,6.794,0,0,0-2.479-.518c-.567,0-.894-.255-1.321,0S15810.741,766.983,15810.741,766.983Z" transform="translate(-14853 -117)" fill="#edffff" stroke="#151515" stroke-linecap="round" stroke-linejoin="round" stroke-width="2"/>
        <path id="Path_9047" data-name="Path 9047" d="M15879.021,803.189s1.54-.935,2.4,0,1.074,1.067,1.592,1.226,2.612,1.535,2.06,0a4.807,4.807,0,0,0-2.8-2.772c-.792-.219.361-.274-.852-.674s-1.3-1.689-2.4-.8S15879.021,803.189,15879.021,803.189Z" transform="translate(-14853 -117)" fill="#edffff" stroke="#151515" stroke-linecap="round" stroke-linejoin="round" stroke-width="2"/>
        <path id="Path_9048" data-name="Path 9048" d="M15891,809.634s-.269-1.077,1.144,0,1.094-.008,2.492,1.616,1.483,2.217,1.483,2.217l.714.677h.816l1.366-.677s1.189-2.14,1.143-2.217a12.405,12.405,0,0,0-2.509-2.286c-.771-.326-.344-.612-1.53-.746s-.723.4-2.7,0A1.956,1.956,0,0,0,15891,809.634Z" transform="translate(-14853 -117)" fill="#edffff" stroke="#151515" stroke-linecap="round" stroke-linejoin="round" stroke-width="2"/>
        <path id="Path_9049" data-name="Path 9049" d="M15904.687,814.143v1.5a10.164,10.164,0,0,1,0,1.5,8.541,8.541,0,0,0,0,1.4,2.313,2.313,0,0,1,.961.891,16.369,16.369,0,0,1,.73,1.522v-5.313Z" transform="translate(-14853 -117)" fill="#edffff" stroke="#151515" stroke-linecap="round" stroke-linejoin="round" stroke-width="2"/>
        <path id="Path_9050" data-name="Path 9050" d="M15909.69,825.128s-2.158-.744-1.488.418a3.655,3.655,0,0,0,2.467,1.376v.971a9.364,9.364,0,0,0,1.934,1.042c.962.346,2.672-.238,2.29-1.042a17.066,17.066,0,0,0-1.136-1.89l-1.154-1.676-1.934-1.132h-.979l-.493-.793-1.39.351Z" transform="translate(-14853 -117)" fill="#edffff" stroke="#151515" stroke-linecap="round" stroke-linejoin="round" stroke-width="2"/>
        <path id="Path_9051" data-name="Path 9051" d="M15916.576,829.732a2.075,2.075,0,0,1,.775.276c.227.19.921.456,1.182.711s.309-.093.556.565.542,1.147.792,1.684-.082.575.882,1.438,1.376,1.237,1.376,1.237.057.19.431.437.177.691,1.411.357,1.492-1.092,1.37-1.505a7.811,7.811,0,0,0-.306-1.151,3.6,3.6,0,0,0-1.064-1.6c-.686-.624-1.166-1.368-1.634-1.46s-.025-.068-.855-.711-1.064-.913-1.377-1.108a3.4,3.4,0,0,0-1.025-.37C15918.946,828.519,15916.576,829.732,15916.576,829.732Z" transform="translate(-14853 -117)" fill="#edffff" stroke="#151515" stroke-linecap="round" stroke-linejoin="round" stroke-width="2"/>
        <path id="Path_9052" data-name="Path 9052" d="M15944.246,836.557s-1.348-.367,3.041,2.005,4.913,2.289,6.477,3.271,2.891.937,4.414,1.19a26.041,26.041,0,0,1,6.019,1.165c3.354,1.071,4.077,1.207,4.077,1.207s-2.1-3.09,3.264,0a28.265,28.265,0,0,0,10.351,3.552l-5.3-4.76s-.359,1.554-2.326,0-8.373-3.616-8.373-3.616.223-.4-1.689-.878-1.807-1.173-3.078-1.133-3.669-.895-5.561-1.164a13.228,13.228,0,0,1-3.067-.841c-1.9-.537-3.576-1.443-5.2-1.78a7.768,7.768,0,0,0-3.041,0l-3.093-.973Z" transform="translate(-14853 -117)" fill="#edffff" stroke="#151515" stroke-linecap="round" stroke-linejoin="round" stroke-width="2"/>
        <path id="Path_9053" data-name="Path 9053" d="M15951.486,814.143a19.48,19.48,0,0,0,4.04,6.452c3.232,3.7,4.164,3.8,5.675,5.336s.647,1.5,4.446,3.032a67.269,67.269,0,0,0,7.224,2.672c6.637,2.292,5.669,2.7,8.135,2.49a27.569,27.569,0,0,1,4.559,0l.954-.886s-2.1-1.772-2.2-3.334-.574-2.1,0-2.8a33.754,33.754,0,0,1,3.365-3.825c1.5-1.367,3.941-3.5,3.451-4.289a7.017,7.017,0,0,0-1.606-2.563c-1.615-1.874-2.115-1.291-3.013-2.288s-1.7-.823-2.2-1.578a7.782,7.782,0,0,1-1.15-1.774c-.552-1.179-1.7-3.129,0-2.589s4.516,1.41,4.516,1.41,1.528-3.22,0-4.289-.275-.486-3.365-1.969-1.672-1.563-3.315-1.9-.462-1.228-3.7,0a19.326,19.326,0,0,0-4.439,1.9c-4.064,2.011-3.748,1.018-5.076,1.969s-.593.586-3.183,1.714-3.866.354-4.9,1.166-.239.891-4.184,1.41a52.086,52.086,0,0,0-6.35,1.18Z" transform="translate(-14853 -117)" fill="#edffff" stroke="#151515" stroke-linecap="round" stroke-linejoin="round" stroke-width="2"/>
        <path id="Path_9054" data-name="Path 9054" d="M15981.888,768.435s.688.877,0,1.516-1.257-.15-.881,1.39-.055,1.581.881,2.834-.044.012,1.849,2.85a14.083,14.083,0,0,0,5.664,4.687c.795.343,1.485.12,2.162.861s2.87,1.574,5.542,3.907a27.794,27.794,0,0,0,5.8,3.782l.865.768a3.453,3.453,0,0,1,2.711,0,7.88,7.88,0,0,0,2.229.668,27.762,27.762,0,0,0-3.69-3.524c-.965-.5-2.564-1.475-3.239-1.694s-.62-.6-2.144-1.725-3.058-1.09-3.763-2.182a6.846,6.846,0,0,0-2.127-2.158,13.157,13.157,0,0,1-2.182-1.5,20.714,20.714,0,0,1-2.162-1.887c-1.705-1.655-2.354-2.346-1.633-2.85s.815-.649,1.633-.7,2.992.23,2.162-.97-.588-.008-1.137-1.166-2.451-.468-2.658-1.39-.283-.8-1.266-1.516a5.149,5.149,0,0,0-2.766-.87C15983.54,767.64,15981.888,768.435,15981.888,768.435Z" transform="translate(-14853 -117)" fill="#edffff" stroke="#151515" stroke-linecap="round" stroke-linejoin="round" stroke-width="2"/>
        <path id="Path_9055" data-name="Path 9055" d="M15999.7,803.277a9.439,9.439,0,0,0,2.974,0c.63-.306.194-1.091,1.657,0s2.537,1.031,3.359,1.62.978.149,1.567.989-.1.067,1.108,1.925a5.457,5.457,0,0,0,4.766,2.094c.934-.146-.414,1.937,1.628-.7s4.5-2.823,2.1-4.312-2.661-2.177-4.731-3.03-1.854-1.173-3.763-1.222,1.788.234-2.676,0a37.557,37.557,0,0,0-5.017,0c-1.793-.046-2.974,0-2.974,0Z" transform="translate(-14853 -117)" fill="#edffff" stroke="#151515" stroke-linecap="round" stroke-linejoin="round" stroke-width="2"/>
        <path id="Path_9056" data-name="Path 9056" d="M15999.7,824.849a1.97,1.97,0,0,0-1.148,1.914,14.01,14.01,0,0,1,0,4.173c-.333,2.211-.754.745,0,3.108s2.67,4.958,3.353,6.133-1.171.13,1.293,3.178,2.887,3.26,3.6,3.849,1.43-2.986,1.026-3.849-.286-1.975-1.694-3.178a11.817,11.817,0,0,1-1.814-1.782v-1.806a6.5,6.5,0,0,1,3.509,1.806,5.978,5.978,0,0,0,1.94,1.782s-.077-1.174,1.712,1.741a11.785,11.785,0,0,0,2.842,3.6c.507.506,1.9,1.686,1.9,1.686s.749,1.043.749-.874,1.14-4.074,0-4.413-1.084-1.741-2.646-2.723.344-.985-2.842-2.605-4.679-2.545-4.679-2.545a8.945,8.945,0,0,0-.668-1.322c-.468-.783-4.554-2.814.668-.936s6.062,2.258,6.062,2.258h2.536s1.529-2.085,0-2.258a15.172,15.172,0,0,1-3.919-.85c-.411-.278.949.037-1.712-.829s-5.128-1.678-5.449-1.842-.053,2.713-1.117,0-1.9-2.98,1.117-2.457,5.449.956,5.449.956.147-.33,1.712,0a14.178,14.178,0,0,0,3.919,0h.819l-3.355-2.792a24.666,24.666,0,0,1-4.286,0c-.9-.243-3.227.727-5.375,0A3.283,3.283,0,0,0,15999.7,824.849Z" transform="translate(-14853 -117)" fill="#edffff" stroke="#151515" stroke-linecap="round" stroke-linejoin="round" stroke-width="2"/>
        <path id="Path_9058" data-name="Path 9058" d="M15996.737,733.453s-3.917-1.516,0,1.36,3.915,2.953,4.872,4.236.935,1.629,2.051,2.148-.233,1.2,2.689,0a23.66,23.66,0,0,0,4.268-2.148s.755-1.162,3.579,0,2.017,2.072,5.235,2.148,10.461,0,10.461,0h4.959s-1.01-.683,0-2.148a11.865,11.865,0,0,0,1.356-4.236s.972.429,0-1.36.79-1.9-1.356-2.87a19.708,19.708,0,0,1-3.6-2.09s-3.471-4.2,0-3.1,4.954,0,4.954,0,.653,1.771,1.986,1.5-1.316-4.083-3.343-4.854-1.759-1.285-3.6-2.238-3.058-1.669-3.058-1.669l-2.47-1.775s1.189-.787,0,1.775a10.762,10.762,0,0,1-3.05,3.907s-2.489.672,0,1.89,3.05,1.466,3.05,1.466a9.1,9.1,0,0,0,0,3.1,3.932,3.932,0,0,1,0,2.09s-.46-1.04-3.05,0a15.075,15.075,0,0,1-5.579,1.464c-1.79.076-.54,0-2.9,0s-1.6,0-3.579,0-6.957,0-6.957,0l-2.051,1.406Z" transform="translate(-14853 -117)" fill="#edffff" stroke="#151515" stroke-linecap="round" stroke-linejoin="round" stroke-width="2"/>
        <path id="Path_9059" data-name="Path 9059" d="M16015.183,696.792a1.492,1.492,0,0,1,0,1.261,3.146,3.146,0,0,0,0,2.224,5.645,5.645,0,0,0,1,2.247c.338.474,1.167.712,1.762,1.314a4.786,4.786,0,0,1,1.1,1.566c.547.977.491.706,1.226,1.885a7.843,7.843,0,0,0,2,2.584,13.369,13.369,0,0,0,1.9,1.355s.338.005,1.016.908.7,1.148,1.249,1.961-.366.285.976,1.236a15.91,15.91,0,0,0,1.854,1.2l2.384.653-1.163-1.85s-1.28-1.229-1.221-1.236a14.847,14.847,0,0,0-.81-1.329v-.632h1.5l1.691.632c.423.158.63-.632.63-.632a34.377,34.377,0,0,0-3.823-2.263,5.539,5.539,0,0,1-2.02-1.031,13.556,13.556,0,0,1-2.265-2.191c-.937-.918-1.072-2.608-1.9-2.814s-1.832-1.4-2-1.314-.127.657-1.226-.686-1.938-2.3-1.938-2.3Z" transform="translate(-14853 -117)" fill="#edffff" stroke="#151515" stroke-linecap="round" stroke-linejoin="round" stroke-width="2"/>
      </g>
    </g>
    <g id="Planes" transform="translate(220.17 426.825) rotate(-17)">
      <g id="Group_40" data-name="Group 40" transform="translate(0 0)">
        <g id="Group_39" data-name="Group 39" transform="translate(4.499 0) rotate(8)">
          <path id="Path_67" data-name="Path 67" d="M24.076,11.93,0,.559,1.061,0,24,4.564l2.3-1.213a1.678,1.678,0,0,1,1.518.066c.412.26.4.652-.022.877l-1.412.744,7.91,1.651Z" transform="translate(5.918 1.768)" fill="#f89f1b"/>
          <path id="Path_68" data-name="Path 68" d="M24.076,11.93,0,.559,1.061,0,24,4.564l2.3-1.213a1.678,1.678,0,0,1,1.518.066c.412.26.4.652-.022.877l-1.412.744,7.91,1.651Z" transform="translate(5.918 1.768)" opacity="0.1"/>
          <path id="Path_69" data-name="Path 69" d="M36.728,7.687C47.576,2,56.356-1.229,59,.439s-3.7,6.423-14.5,12.148l-9.555,4.622c-9.568,4.3-19.4,8-19.4,8L16,31.827l-.954.5-4.3-4.768s-2.4,1.147-3.74.3.855-2.121.855-2.121L0,22.856l.954-.5,11.4.842s7.267-5.318,15.544-10.431Z" transform="translate(0 0)" fill="#f89f1b"/>
          <g id="Group_38" data-name="Group 38" transform="translate(32.862 10.11)">
            <path id="Path_70" data-name="Path 70" d="M13.594,2.817l-2.3,1.212L17.153,17.6l-1.06.559L0,4.622,9.555,0l1.131,2.619L12.1,1.874a1.681,1.681,0,0,1,1.517.066C14.028,2.2,14.019,2.593,13.594,2.817Z" transform="translate(2.09 2.477)" fill="#f89f1b"/>
            <path id="Path_71" data-name="Path 71" d="M15.684,5.294l-2.3,1.212L19.243,20.08l-1.06.559L0,5.373,10.545,0l2.231,5.1,1.412-.745a1.681,1.681,0,0,1,1.517.066C16.118,4.677,16.109,5.07,15.684,5.294Z" transform="translate(0 0)" opacity="0.1"/>
          </g>
        </g>
      </g>
    </g>
    <g id="Planes-2" data-name="Planes" transform="translate(1171.211 300.936)">
      <g id="Group_40-2" data-name="Group 40" transform="translate(0 0)">
        <g id="Group_39-2" data-name="Group 39" transform="translate(0)">
          <path id="Path_67-2" data-name="Path 67" d="M98.073,93.562l24.076,11.371-1.061.559-22.939-4.564-2.3,1.213a1.678,1.678,0,0,1-1.518-.066c-.412-.26-.4-.652.022-.877l1.412-.744L87.856,98.8Z" transform="translate(-68.462 -74.93)" fill="#f89f1b"/>
          <path id="Path_68-2" data-name="Path 68" d="M98.073,93.562l24.076,11.371-1.061.559-22.939-4.564-2.3,1.213a1.678,1.678,0,0,1-1.518-.066c-.412-.26-.4-.652.022-.877l1.412-.744L87.856,98.8Z" transform="translate(-68.462 -74.93)" opacity="0.1"/>
          <path id="Path_69-2" data-name="Path 69" d="M104.815,116.437c-10.849,5.69-19.629,8.916-22.277,7.248s3.7-6.423,14.5-12.148l9.555-4.622c9.568-4.3,19.4-8,19.4-8l-.446-6.617.954-.5,4.3,4.768s2.4-1.147,3.74-.3-.855,2.121-.855,2.121l7.86,2.889-.954.5-11.4-.842s-7.267,5.318-15.544,10.431Z" transform="translate(-81.938 -91.794)" fill="#f89f1b"/>
          <g id="Group_38-2" data-name="Group 38" transform="translate(7.5 1.581)">
            <path id="Path_70-2" data-name="Path 70" d="M120.449,119.726l2.3-1.212L116.89,104.94l1.06-.559,16.093,13.54-9.555,4.622-1.131-2.619-1.412.745a1.682,1.682,0,0,1-1.517-.066C120.015,120.343,120.024,119.95,120.449,119.726Z" transform="translate(-116.89 -104.381)" fill="#f89f1b"/>
            <path id="Path_71-2" data-name="Path 71" d="M118.359,117.249l2.3-1.212L114.8,102.463l1.06-.559,18.183,15.266L123.5,122.543l-2.231-5.1-1.412.745a1.682,1.682,0,0,1-1.517-.066C117.925,117.866,117.934,117.473,118.359,117.249Z" transform="translate(-114.8 -101.904)" opacity="0.1"/>
          </g>
        </g>
      </g>
    </g>
    <g id="Group_579" data-name="Group 579" transform="translate(-3901 -1155.533)">
      <g id="Locator" transform="translate(3707.662 1543.672)">
        <g id="Group_33" data-name="Group 33" transform="translate(325.674 240.356)">
          <g id="Group_32" data-name="Group 32">
            <g id="Group_29" data-name="Group 29">
              <path id="Path_61" data-name="Path 61" d="M373.772,247.31l-8.737-5.018,0,0c-4.169-2.79-9.96-2.671-16.363,1.026-12.7,7.333-23,25.951-23,41.585v3.558c0,15.634,21.019,32.623,21.019,32.623l8.595,4.862s-5.163-5.887-4.574-7.094c5.629-11.554,20.955-44.183,20.955-56.945v-3.558a27.778,27.778,0,0,0-.984-7.633l.985.569Zm-25.1,35.842c-6.35,3.667-11.5.695-11.5-6.638,3.419-.538,12.014-15.21,11.5-19.917,6.351-3.667,11.5-.694,11.5,6.639S355.022,279.487,348.671,283.153Z" transform="translate(-325.674 -240.356)" fill="#f89f1b"/>
            </g>
            <g id="Group_30" data-name="Group 30" opacity="0.2">
              <path id="Path_62" data-name="Path 62" d="M373.772,247.31l-8.737-5.018,0,0c-4.169-2.79-9.96-2.671-16.363,1.026-12.7,7.333-23,25.951-23,41.585v3.558c0,15.634,21.019,32.623,21.019,32.623l8.595,4.862s-5.163-5.887-4.574-7.094c5.629-11.554,20.955-44.183,20.955-56.945v-3.558a27.778,27.778,0,0,0-.984-7.633l.985.569Zm-25.1,35.842c-6.35,3.667-11.5.695-11.5-6.638,3.419-.538,12.014-15.21,11.5-19.917,6.351-3.667,11.5-.694,11.5,6.639S355.022,279.487,348.671,283.153Z" transform="translate(-325.674 -240.356)"/>
            </g>
            <g id="Group_31" data-name="Group 31" transform="translate(9.198 5.309)">
              <path id="Path_63" data-name="Path 63" d="M387.29,267.369c0-15.634-10.3-22.363-23-15.031s-23,25.951-23,41.585v3.558c0,12.039,13.637,26.008,19.909,31.8a3.1,3.1,0,0,0,4.889-.911c5.418-11.087,21.2-44.489,21.2-57.439Zm-23,24.8c-6.35,3.666-11.5.694-11.5-6.639s5.148-16.249,11.5-19.916,11.5-.694,11.5,6.639S370.644,288.505,364.293,292.172Z" transform="translate(-341.296 -249.372)" fill="#f89f1b"/>
            </g>
          </g>
        </g>
      </g>
      <ellipse id="Ellipse_2060" data-name="Ellipse 2060" cx="41" cy="9.5" rx="41" ry="9.5" transform="translate(4024.936 1878.978) rotate(-7)" fill="#00b3d3" opacity="0.2"/>
    </g>
    <g id="Group_588" data-name="Group 588" transform="translate(-3741 -1041.724)">
      <g id="Locator-2" data-name="Locator" transform="translate(3707.662 1543.672)">
        <g id="Group_33-2" data-name="Group 33" transform="translate(325.674 240.356)">
          <g id="Group_32-2" data-name="Group 32">
            <g id="Group_29-2" data-name="Group 29">
              <path id="Path_61-2" data-name="Path 61" d="M373.772,247.31l-8.737-5.018,0,0c-4.169-2.79-9.96-2.671-16.363,1.026-12.7,7.333-23,25.951-23,41.585v3.558c0,15.634,21.019,32.623,21.019,32.623l8.595,4.862s-5.163-5.887-4.574-7.094c5.629-11.554,20.955-44.183,20.955-56.945v-3.558a27.778,27.778,0,0,0-.984-7.633l.985.569Zm-25.1,35.842c-6.35,3.667-11.5.695-11.5-6.638,3.419-.538,12.014-15.21,11.5-19.917,6.351-3.667,11.5-.694,11.5,6.639S355.022,279.487,348.671,283.153Z" transform="translate(-325.674 -240.356)" fill="#f89f1b"/>
            </g>
            <g id="Group_30-2" data-name="Group 30" opacity="0.2">
              <path id="Path_62-2" data-name="Path 62" d="M373.772,247.31l-8.737-5.018,0,0c-4.169-2.79-9.96-2.671-16.363,1.026-12.7,7.333-23,25.951-23,41.585v3.558c0,15.634,21.019,32.623,21.019,32.623l8.595,4.862s-5.163-5.887-4.574-7.094c5.629-11.554,20.955-44.183,20.955-56.945v-3.558a27.778,27.778,0,0,0-.984-7.633l.985.569Zm-25.1,35.842c-6.35,3.667-11.5.695-11.5-6.638,3.419-.538,12.014-15.21,11.5-19.917,6.351-3.667,11.5-.694,11.5,6.639S355.022,279.487,348.671,283.153Z" transform="translate(-325.674 -240.356)"/>
            </g>
            <g id="Group_31-2" data-name="Group 31" transform="translate(9.198 5.309)">
              <path id="Path_63-2" data-name="Path 63" d="M387.29,267.369c0-15.634-10.3-22.363-23-15.031s-23,25.951-23,41.585v3.558c0,12.039,13.637,26.008,19.909,31.8a3.1,3.1,0,0,0,4.889-.911c5.418-11.087,21.2-44.489,21.2-57.439Zm-23,24.8c-6.35,3.666-11.5.694-11.5-6.639s5.148-16.249,11.5-19.916,11.5-.694,11.5,6.639S370.644,288.505,364.293,292.172Z" transform="translate(-341.296 -249.372)" fill="#f89f1b"/>
            </g>
          </g>
        </g>
      </g>
      <ellipse id="Ellipse_2060-2" data-name="Ellipse 2060" cx="41" cy="9.5" rx="41" ry="9.5" transform="translate(4024.936 1878.978) rotate(-7)" fill="#00b3d3" opacity="0.2"/>
    </g>
    <g id="Group_585" data-name="Group 585" transform="translate(395.936 534.495)">
      <g id="Locator-3" data-name="Locator" transform="translate(20.111 0)">
        <g id="Group_33-3" data-name="Group 33" transform="translate(0)">
          <g id="Group_32-3" data-name="Group 32">
            <g id="Group_29-3" data-name="Group 29" transform="translate(7.095)">
              <path id="Path_61-3" data-name="Path 61" d="M325.674,247.31l8.737-5.018,0,0c4.169-2.79,9.96-2.671,16.363,1.026,12.7,7.333,23,25.951,23,41.585v3.558c0,15.634-21.019,32.623-21.019,32.623l-8.595,4.862s5.163-5.887,4.574-7.094c-5.629-11.554-20.955-44.183-20.955-56.945v-3.558a27.778,27.778,0,0,1,.984-7.633l-.985.569Zm25.1,35.842c6.35,3.667,11.5.695,11.5-6.638-3.419-.538-12.014-15.21-11.5-19.917-6.351-3.667-11.5-.694-11.5,6.639S344.425,279.487,350.775,283.153Z" transform="translate(-325.674 -240.356)" fill="#f89f1b"/>
            </g>
            <g id="Group_30-3" data-name="Group 30" transform="translate(7.095)" opacity="0.2">
              <path id="Path_62-3" data-name="Path 62" d="M325.674,247.31l8.737-5.018,0,0c4.169-2.79,9.96-2.671,16.363,1.026,12.7,7.333,23,25.951,23,41.585v3.558c0,15.634-21.019,32.623-21.019,32.623l-8.595,4.862s5.163-5.887,4.574-7.094c-5.629-11.554-20.955-44.183-20.955-56.945v-3.558a27.778,27.778,0,0,1,.984-7.633l-.985.569Zm25.1,35.842c6.35,3.667,11.5.695,11.5-6.638-3.419-.538-12.014-15.21-11.5-19.917-6.351-3.667-11.5-.694-11.5,6.639S344.425,279.487,350.775,283.153Z" transform="translate(-325.674 -240.356)"/>
            </g>
            <g id="Group_31-3" data-name="Group 31" transform="translate(0 5.309)">
              <path id="Path_63-3" data-name="Path 63" d="M341.3,267.369c0-15.634,10.3-22.363,23-15.031s23,25.951,23,41.585v3.558c0,12.039-13.637,26.008-19.909,31.8a3.1,3.1,0,0,1-4.889-.911c-5.418-11.087-21.2-44.489-21.2-57.439Zm23,24.8c6.35,3.666,11.5.694,11.5-6.639s-5.148-16.249-11.5-19.916-11.5-.694-11.5,6.639S357.942,288.505,364.293,292.172Z" transform="translate(-341.296 -249.372)" fill="#f89f1b"/>
            </g>
          </g>
        </g>
      </g>
      <ellipse id="Ellipse_2060-3" data-name="Ellipse 2060" cx="41" cy="9.5" rx="41" ry="9.5" transform="translate(81.389 113.809) rotate(-173)" fill="#00b3d3" opacity="0.2"/>
    </g>
    <g id="Group_580" data-name="Group 580" transform="translate(-3457 -1123.107)">
      <g id="Locator-4" data-name="Locator" transform="translate(3707.662 1543.672)">
        <g id="Group_33-4" data-name="Group 33" transform="translate(325.674 240.356)">
          <g id="Group_32-4" data-name="Group 32">
            <g id="Group_29-4" data-name="Group 29">
              <path id="Path_61-4" data-name="Path 61" d="M373.772,247.31l-8.737-5.018,0,0c-4.169-2.79-9.96-2.671-16.363,1.026-12.7,7.333-23,25.951-23,41.585v3.558c0,15.634,21.019,32.623,21.019,32.623l8.595,4.862s-5.163-5.887-4.574-7.094c5.629-11.554,20.955-44.183,20.955-56.945v-3.558a27.778,27.778,0,0,0-.984-7.633l.985.569Zm-25.1,35.842c-6.35,3.667-11.5.695-11.5-6.638,3.419-.538,12.014-15.21,11.5-19.917,6.351-3.667,11.5-.694,11.5,6.639S355.022,279.487,348.671,283.153Z" transform="translate(-325.674 -240.356)" fill="#f89f1b"/>
            </g>
            <g id="Group_30-4" data-name="Group 30" opacity="0.2">
              <path id="Path_62-4" data-name="Path 62" d="M373.772,247.31l-8.737-5.018,0,0c-4.169-2.79-9.96-2.671-16.363,1.026-12.7,7.333-23,25.951-23,41.585v3.558c0,15.634,21.019,32.623,21.019,32.623l8.595,4.862s-5.163-5.887-4.574-7.094c5.629-11.554,20.955-44.183,20.955-56.945v-3.558a27.778,27.778,0,0,0-.984-7.633l.985.569Zm-25.1,35.842c-6.35,3.667-11.5.695-11.5-6.638,3.419-.538,12.014-15.21,11.5-19.917,6.351-3.667,11.5-.694,11.5,6.639S355.022,279.487,348.671,283.153Z" transform="translate(-325.674 -240.356)"/>
            </g>
            <g id="Group_31-4" data-name="Group 31" transform="translate(9.198 5.309)">
              <path id="Path_63-4" data-name="Path 63" d="M387.29,267.369c0-15.634-10.3-22.363-23-15.031s-23,25.951-23,41.585v3.558c0,12.039,13.637,26.008,19.909,31.8a3.1,3.1,0,0,0,4.889-.911c5.418-11.087,21.2-44.489,21.2-57.439Zm-23,24.8c-6.35,3.666-11.5.694-11.5-6.639s5.148-16.249,11.5-19.916,11.5-.694,11.5,6.639S370.644,288.505,364.293,292.172Z" transform="translate(-341.296 -249.372)" fill="#f89f1b"/>
            </g>
          </g>
        </g>
      </g>
      <ellipse id="Ellipse_2060-4" data-name="Ellipse 2060" cx="41" cy="9.5" rx="41" ry="9.5" transform="translate(4024.936 1878.978) rotate(-7)" fill="#00b3d3" opacity="0.2"/>
    </g>
    <g id="Group_587" data-name="Group 587" transform="translate(1149.936 774.729)">
      <g id="Locator-5" data-name="Locator" transform="translate(20.111 0)">
        <g id="Group_33-5" data-name="Group 33" transform="translate(0)">
          <g id="Group_32-5" data-name="Group 32">
            <g id="Group_29-5" data-name="Group 29" transform="translate(7.095)">
              <path id="Path_61-5" data-name="Path 61" d="M325.674,247.31l8.737-5.018,0,0c4.169-2.79,9.96-2.671,16.363,1.026,12.7,7.333,23,25.951,23,41.585v3.558c0,15.634-21.019,32.623-21.019,32.623l-8.595,4.862s5.163-5.887,4.574-7.094c-5.629-11.554-20.955-44.183-20.955-56.945v-3.558a27.778,27.778,0,0,1,.984-7.633l-.985.569Zm25.1,35.842c6.35,3.667,11.5.695,11.5-6.638-3.419-.538-12.014-15.21-11.5-19.917-6.351-3.667-11.5-.694-11.5,6.639S344.425,279.487,350.775,283.153Z" transform="translate(-325.674 -240.356)" fill="#f89f1b"/>
            </g>
            <g id="Group_30-5" data-name="Group 30" transform="translate(7.095)" opacity="0.2">
              <path id="Path_62-5" data-name="Path 62" d="M325.674,247.31l8.737-5.018,0,0c4.169-2.79,9.96-2.671,16.363,1.026,12.7,7.333,23,25.951,23,41.585v3.558c0,15.634-21.019,32.623-21.019,32.623l-8.595,4.862s5.163-5.887,4.574-7.094c-5.629-11.554-20.955-44.183-20.955-56.945v-3.558a27.778,27.778,0,0,1,.984-7.633l-.985.569Zm25.1,35.842c6.35,3.667,11.5.695,11.5-6.638-3.419-.538-12.014-15.21-11.5-19.917-6.351-3.667-11.5-.694-11.5,6.639S344.425,279.487,350.775,283.153Z" transform="translate(-325.674 -240.356)"/>
            </g>
            <g id="Group_31-5" data-name="Group 31" transform="translate(0 5.309)">
              <path id="Path_63-5" data-name="Path 63" d="M341.3,267.369c0-15.634,10.3-22.363,23-15.031s23,25.951,23,41.585v3.558c0,12.039-13.637,26.008-19.909,31.8a3.1,3.1,0,0,1-4.889-.911c-5.418-11.087-21.2-44.489-21.2-57.439Zm23,24.8c6.35,3.666,11.5.694,11.5-6.639s-5.148-16.249-11.5-19.916-11.5-.694-11.5,6.639S357.942,288.505,364.293,292.172Z" transform="translate(-341.296 -249.372)" fill="#f89f1b"/>
            </g>
          </g>
        </g>
      </g>
      <ellipse id="Ellipse_2060-5" data-name="Ellipse 2060" cx="41" cy="9.5" rx="41" ry="9.5" transform="translate(81.389 113.809) rotate(-173)" fill="#00b3d3" opacity="0.2"/>
    </g>
    <g id="Group_584" data-name="Group 584" transform="translate(-3471 -1165)">
      <g id="Locator-6" data-name="Locator" transform="translate(4515.227 1749.027)">
        <g id="Group_33-6" data-name="Group 33" transform="translate(0 0)">
          <g id="Group_32-6" data-name="Group 32">
            <g id="Group_29-6" data-name="Group 29" transform="translate(7.095)">
              <path id="Path_61-6" data-name="Path 61" d="M325.674,247.31l8.737-5.018,0,0c4.169-2.79,9.96-2.671,16.363,1.026,12.7,7.333,23,25.951,23,41.585v3.558c0,15.634-21.019,32.623-21.019,32.623l-8.595,4.862s5.163-5.887,4.574-7.094c-5.629-11.554-20.955-44.183-20.955-56.945v-3.558a27.778,27.778,0,0,1,.984-7.633l-.985.569Zm25.1,35.842c6.35,3.667,11.5.695,11.5-6.638-3.419-.538-12.014-15.21-11.5-19.917-6.351-3.667-11.5-.694-11.5,6.639S344.425,279.487,350.775,283.153Z" transform="translate(-325.674 -240.356)" fill="#f89f1b"/>
            </g>
            <g id="Group_30-6" data-name="Group 30" transform="translate(7.095)" opacity="0.2">
              <path id="Path_62-6" data-name="Path 62" d="M325.674,247.31l8.737-5.018,0,0c4.169-2.79,9.96-2.671,16.363,1.026,12.7,7.333,23,25.951,23,41.585v3.558c0,15.634-21.019,32.623-21.019,32.623l-8.595,4.862s5.163-5.887,4.574-7.094c-5.629-11.554-20.955-44.183-20.955-56.945v-3.558a27.778,27.778,0,0,1,.984-7.633l-.985.569Zm25.1,35.842c6.35,3.667,11.5.695,11.5-6.638-3.419-.538-12.014-15.21-11.5-19.917-6.351-3.667-11.5-.694-11.5,6.639S344.425,279.487,350.775,283.153Z" transform="translate(-325.674 -240.356)"/>
            </g>
            <g id="Group_31-6" data-name="Group 31" transform="translate(0 5.309)">
              <path id="Path_63-6" data-name="Path 63" d="M341.3,267.369c0-15.634,10.3-22.363,23-15.031s23,25.951,23,41.585v3.558c0,12.039-13.637,26.008-19.909,31.8a3.1,3.1,0,0,1-4.889-.911c-5.418-11.087-21.2-44.49-21.2-57.439Zm23,24.8c6.35,3.666,11.5.694,11.5-6.639s-5.148-16.249-11.5-19.916-11.5-.694-11.5,6.639S357.942,288.505,364.293,292.172Z" transform="translate(-341.296 -249.372)" fill="#f89f1b"/>
            </g>
          </g>
        </g>
      </g>
      <ellipse id="Ellipse_2061" data-name="Ellipse 2061" cx="41" cy="9.5" rx="41" ry="9.5" transform="translate(4582.359 1868.921) rotate(-173)" fill="#00b3d3" opacity="0.2"/>
    </g>
    <g id="Group_586" data-name="Group 586" transform="translate(-3700 -1208)">
      <g id="Locator-7" data-name="Locator" transform="translate(4515.227 1749.027)">
        <g id="Group_33-7" data-name="Group 33" transform="translate(0 0)">
          <g id="Group_32-7" data-name="Group 32">
            <g id="Group_29-7" data-name="Group 29" transform="translate(7.095)">
              <path id="Path_61-7" data-name="Path 61" d="M325.674,247.31l8.737-5.018,0,0c4.169-2.79,9.96-2.671,16.363,1.026,12.7,7.333,23,25.951,23,41.585v3.558c0,15.634-21.019,32.623-21.019,32.623l-8.595,4.862s5.163-5.887,4.574-7.094c-5.629-11.554-20.955-44.183-20.955-56.945v-3.558a27.778,27.778,0,0,1,.984-7.633l-.985.569Zm25.1,35.842c6.35,3.667,11.5.695,11.5-6.638-3.419-.538-12.014-15.21-11.5-19.917-6.351-3.667-11.5-.694-11.5,6.639S344.425,279.487,350.775,283.153Z" transform="translate(-325.674 -240.356)" fill="#f89f1b"/>
            </g>
            <g id="Group_30-7" data-name="Group 30" transform="translate(7.095)" opacity="0.2">
              <path id="Path_62-7" data-name="Path 62" d="M325.674,247.31l8.737-5.018,0,0c4.169-2.79,9.96-2.671,16.363,1.026,12.7,7.333,23,25.951,23,41.585v3.558c0,15.634-21.019,32.623-21.019,32.623l-8.595,4.862s5.163-5.887,4.574-7.094c-5.629-11.554-20.955-44.183-20.955-56.945v-3.558a27.778,27.778,0,0,1,.984-7.633l-.985.569Zm25.1,35.842c6.35,3.667,11.5.695,11.5-6.638-3.419-.538-12.014-15.21-11.5-19.917-6.351-3.667-11.5-.694-11.5,6.639S344.425,279.487,350.775,283.153Z" transform="translate(-325.674 -240.356)"/>
            </g>
            <g id="Group_31-7" data-name="Group 31" transform="translate(0 5.309)">
              <path id="Path_63-7" data-name="Path 63" d="M341.3,267.369c0-15.634,10.3-22.363,23-15.031s23,25.951,23,41.585v3.558c0,12.039-13.637,26.008-19.909,31.8a3.1,3.1,0,0,1-4.889-.911c-5.418-11.087-21.2-44.49-21.2-57.439Zm23,24.8c6.35,3.666,11.5.694,11.5-6.639s-5.148-16.249-11.5-19.916-11.5-.694-11.5,6.639S357.942,288.505,364.293,292.172Z" transform="translate(-341.296 -249.372)" fill="#f89f1b"/>
            </g>
          </g>
        </g>
      </g>
      <ellipse id="Ellipse_2061-2" data-name="Ellipse 2061" cx="41" cy="9.5" rx="41" ry="9.5" transform="translate(4582.359 1868.921) rotate(-173)" fill="#00b3d3" opacity="0.2"/>
    </g>
    <g id="Group_589" data-name="Group 589">
      <g id="Planes-3" data-name="Planes" transform="translate(178.341 216.679)">
        <g id="Group_40-3" data-name="Group 40" transform="translate(0 0)">
          <g id="Group_39-3" data-name="Group 39" transform="translate(4.499 0) rotate(8)">
            <path id="Path_67-3" data-name="Path 67" d="M24.076,11.93,0,.559,1.061,0,24,4.564l2.3-1.213a1.678,1.678,0,0,1,1.518.066c.412.26.4.652-.022.877l-1.412.744,7.91,1.651Z" transform="translate(5.918 1.768)" fill="#f89f1b"/>
            <path id="Path_68-3" data-name="Path 68" d="M24.076,11.93,0,.559,1.061,0,24,4.564l2.3-1.213a1.678,1.678,0,0,1,1.518.066c.412.26.4.652-.022.877l-1.412.744,7.91,1.651Z" transform="translate(5.918 1.768)" opacity="0.1"/>
            <path id="Path_69-3" data-name="Path 69" d="M36.728,7.687C47.576,2,56.356-1.229,59,.439s-3.7,6.423-14.5,12.148l-9.555,4.622c-9.568,4.3-19.4,8-19.4,8L16,31.827l-.954.5-4.3-4.768s-2.4,1.147-3.74.3.855-2.121.855-2.121L0,22.856l.954-.5,11.4.842s7.267-5.318,15.544-10.431Z" transform="translate(0 0)" fill="#f89f1b"/>
            <g id="Group_38-3" data-name="Group 38" transform="translate(32.862 10.11)">
              <path id="Path_70-3" data-name="Path 70" d="M13.594,2.817l-2.3,1.212L17.153,17.6l-1.06.559L0,4.622,9.555,0l1.131,2.619L12.1,1.874a1.681,1.681,0,0,1,1.517.066C14.028,2.2,14.019,2.593,13.594,2.817Z" transform="translate(2.09 2.477)" fill="#f89f1b"/>
              <path id="Path_71-3" data-name="Path 71" d="M15.684,5.294l-2.3,1.212L19.243,20.08l-1.06.559L0,5.373,10.545,0l2.231,5.1,1.412-.745a1.681,1.681,0,0,1,1.517.066C16.118,4.677,16.109,5.07,15.684,5.294Z" transform="translate(0 0)" opacity="0.1"/>
            </g>
          </g>
        </g>
      </g>
      <path id="Path_9060" data-name="Path 9060" d="M15031.341,366.965s-192.719,68.356-232.222,223.831" transform="translate(-14853 -117)" fill="none" stroke="#00b3d3" stroke-linecap="round" stroke-width="2" stroke-dasharray="6"/>
    </g>
    <g id="Group_590" data-name="Group 590" transform="translate(1049.925 54.665) rotate(22)">
      <g id="Planes-4" data-name="Planes" transform="translate(0 0)">
        <g id="Group_40-4" data-name="Group 40" transform="translate(0 0)">
          <g id="Group_39-4" data-name="Group 39" transform="translate(4.499 0) rotate(8)">
            <path id="Path_67-4" data-name="Path 67" d="M24.076,11.93,0,.559,1.061,0,24,4.564l2.3-1.213a1.678,1.678,0,0,1,1.518.066c.412.26.4.652-.022.877l-1.412.744,7.91,1.651Z" transform="translate(5.918 1.768)" fill="#f89f1b"/>
            <path id="Path_68-4" data-name="Path 68" d="M24.076,11.93,0,.559,1.061,0,24,4.564l2.3-1.213a1.678,1.678,0,0,1,1.518.066c.412.26.4.652-.022.877l-1.412.744,7.91,1.651Z" transform="translate(5.918 1.768)" opacity="0.1"/>
            <path id="Path_69-4" data-name="Path 69" d="M36.727,7.687C47.576,2,56.356-1.228,59,.44s-3.7,6.423-14.5,12.148l-9.555,4.622c-9.568,4.3-19.4,8-19.4,8L16,31.827l-.954.5-4.3-4.768s-2.4,1.147-3.74.3.855-2.121.855-2.121L0,22.856l.954-.5,11.4.842s7.267-5.318,15.544-10.431Z" transform="translate(0 0)" fill="#f89f1b"/>
            <g id="Group_38-4" data-name="Group 38" transform="translate(32.861 10.11)">
              <path id="Path_70-4" data-name="Path 70" d="M13.594,2.817l-2.3,1.212L17.153,17.6l-1.06.559L0,4.622,9.555,0l1.131,2.619L12.1,1.874a1.681,1.681,0,0,1,1.517.066C14.028,2.2,14.019,2.593,13.594,2.817Z" transform="translate(2.09 2.477)" fill="#f89f1b"/>
              <path id="Path_71-4" data-name="Path 71" d="M15.684,5.294l-2.3,1.212L19.243,20.08l-1.06.559L0,5.373,10.545,0l2.231,5.1,1.412-.745a1.681,1.681,0,0,1,1.517.066C16.118,4.677,16.109,5.07,15.684,5.294Z" transform="translate(0 0)" opacity="0.1"/>
            </g>
          </g>
        </g>
      </g>
    </g>
    <g id="Group_591" data-name="Group 591" transform="translate(160.934 437.402) rotate(158)">
      <g id="Planes-5" data-name="Planes" transform="translate(0 0)">
        <g id="Group_40-5" data-name="Group 40" transform="translate(0 0)">
          <g id="Group_39-5" data-name="Group 39" transform="translate(0 8.295) rotate(-8)">
            <path id="Path_67-5" data-name="Path 67" d="M24.076,0,0,11.371l1.061.559L24,7.366l2.3,1.213a1.678,1.678,0,0,0,1.518-.066c.412-.26.4-.652-.022-.877l-1.412-.744,7.91-1.651Z" transform="translate(5.918 18.632)" fill="#f89f1b"/>
            <path id="Path_68-5" data-name="Path 68" d="M24.076,0,0,11.371l1.061.559L24,7.366l2.3,1.213a1.678,1.678,0,0,0,1.518-.066c.412-.26.4-.652-.022-.877l-1.412-.744,7.91-1.651Z" transform="translate(5.918 18.632)" opacity="0.1"/>
            <path id="Path_69-5" data-name="Path 69" d="M36.727,24.643C47.576,30.333,56.356,33.559,59,31.891s-3.7-6.423-14.5-12.148l-9.555-4.622c-9.568-4.3-19.4-8-19.4-8L16,.5,15.042,0l-4.3,4.768s-2.4-1.147-3.74-.3.855,2.121.855,2.121L0,9.474l.954.5,11.4-.842s7.267,5.318,15.544,10.431Z" transform="translate(0 0)" fill="#f89f1b"/>
            <g id="Group_38-5" data-name="Group 38" transform="translate(32.861 1.581)">
              <path id="Path_70-5" data-name="Path 70" d="M13.594,15.345l-2.3-1.212L17.153.559,16.093,0,0,13.54l9.555,4.622,1.131-2.619,1.412.745a1.681,1.681,0,0,0,1.517-.066C14.028,15.962,14.019,15.569,13.594,15.345Z" transform="translate(2.09 0)" fill="#f89f1b"/>
              <path id="Path_71-5" data-name="Path 71" d="M15.684,15.345l-2.3-1.212L19.243.559,18.183,0,0,15.266l10.545,5.373,2.231-5.1,1.412.745a1.681,1.681,0,0,0,1.517-.066C16.118,15.962,16.109,15.569,15.684,15.345Z" transform="translate(0 0)" opacity="0.1"/>
            </g>
          </g>
        </g>
      </g>
    </g>
    <g id="Group_592" data-name="Group 592" transform="translate(1165.036 419.414) rotate(22)">
      <g id="Planes-6" data-name="Planes" transform="translate(0 0)">
        <g id="Group_40-6" data-name="Group 40" transform="translate(0 0)">
          <g id="Group_39-6" data-name="Group 39" transform="translate(4.499 0) rotate(8)">
            <path id="Path_67-6" data-name="Path 67" d="M24.076,11.93,0,.559,1.061,0,24,4.564l2.3-1.213a1.678,1.678,0,0,1,1.518.066c.412.26.4.652-.022.877l-1.412.744,7.91,1.651Z" transform="translate(5.918 1.768)" fill="#f89f1b"/>
            <path id="Path_68-6" data-name="Path 68" d="M24.076,11.93,0,.559,1.061,0,24,4.564l2.3-1.213a1.678,1.678,0,0,1,1.518.066c.412.26.4.652-.022.877l-1.412.744,7.91,1.651Z" transform="translate(5.918 1.768)" opacity="0.1"/>
            <path id="Path_69-6" data-name="Path 69" d="M36.727,7.687C47.576,2,56.356-1.229,59,.439s-3.7,6.423-14.5,12.148l-9.555,4.622c-9.568,4.3-19.4,8-19.4,8L16,31.827l-.954.5-4.3-4.768s-2.4,1.147-3.74.3.855-2.121.855-2.121L0,22.856l.954-.5,11.4.842s7.267-5.318,15.544-10.431Z" transform="translate(0 0)" fill="#f89f1b"/>
            <g id="Group_38-6" data-name="Group 38" transform="translate(32.861 10.11)">
              <path id="Path_70-6" data-name="Path 70" d="M13.594,2.817l-2.3,1.212L17.153,17.6l-1.06.559L0,4.622,9.555,0l1.131,2.619L12.1,1.874a1.681,1.681,0,0,1,1.517.066C14.028,2.2,14.019,2.593,13.594,2.817Z" transform="translate(2.09 2.477)" fill="#f89f1b"/>
              <path id="Path_71-6" data-name="Path 71" d="M15.684,5.294l-2.3,1.212L19.243,20.08l-1.06.559L0,5.373,10.545,0l2.231,5.1,1.412-.745a1.681,1.681,0,0,1,1.517.066C16.118,4.677,16.109,5.07,15.684,5.294Z" transform="translate(0 0)" opacity="0.1"/>
            </g>
          </g>
        </g>
      </g>
    </g>
    <path id="Path_9061" data-name="Path 9061" d="M16080.088,556.214s187.959-48.585,247.249-273.067" transform="translate(-14843.774 -257.529)" fill="none" stroke="#00b3d3" stroke-linecap="round" stroke-width="2" stroke-dasharray="6"/>
    <path id="Path_9062" data-name="Path 9062" d="M15413.886,615.9s-676.88-21.664-617.388,487.945" transform="translate(-11106.896 10925.049) rotate(-45)" fill="none" stroke="#00b3d3" stroke-linecap="round" stroke-width="2" stroke-dasharray="6"/>
    <path id="Path_9063" data-name="Path 9063" d="M16000,567s-262.65-40.468-445.4,157.162" transform="translate(-14853 -117)" fill="none" stroke="#00b3d3" stroke-linecap="round" stroke-width="2" stroke-dasharray="6"/>
  </g>
</svg>
