<svg xmlns="http://www.w3.org/2000/svg" width="906.385" height="729.949" viewBox="0 0 906.385 729.949">
  <g id="Illustration" transform="translate(-344.717 -412)">
    <g id="Group_23" data-name="Group 23" transform="translate(463.815 455)">
      <path id="Path_1" data-name="Path 1" d="M1160.536,972.234c-62.252,148.723-228.079,232.039-371.883,209.565-23.4-3.657-87.552-14.551-144.349-65.943-109.339-98.934-132.722-294.836-44.521-432.893C663.977,582.482,779.052,525.523,888.4,528.372c23.553.614,113.816,4.4,193.142,70.763a300.371,300.371,0,0,1,60.51,69.66C1196.432,755.086,1201.107,875.309,1160.536,972.234Z" transform="translate(-526.036 -510.611)" fill="#d2fdfd"/>
      <g id="Group_8" data-name="Group 8" transform="translate(-119.097 185.678)">
        <path id="Path_4" data-name="Path 4" d="M836.324,2627.725a13.053,13.053,0,0,0,13.021,13.009h704.14a13.053,13.053,0,0,0,13.021-13.009l5.859-404.65c0-7.155-8.429-21.123-23.878-20.073L860.323,2185.2a32.812,32.812,0,0,0-33.67,33.561Z" transform="translate(-779.2 -2185.186)" fill="#00b3d3"/>
        <path id="Path_5" data-name="Path 5" d="M863.879,2633.08A12.356,12.356,0,0,0,876.2,2645.4H1551.2a12.356,12.356,0,0,0,12.319-12.319l5.529-367.344c-.651-22.106-20.032-30.051-31.78-29.582L877.73,2218.458a23.062,23.062,0,0,0-23.66,23.6Z" transform="translate(-793.9 -2203.02)" fill="#d2fdfd"/>
        <g id="Group_4" data-name="Group 4" transform="translate(524.642 34.485)">
          <path id="Path_6" data-name="Path 6" d="M2365.71,2697.485h-.018a1.807,1.807,0,0,1-1.788-1.833l.437-29.791a1.805,1.805,0,0,1,1.8-1.779h.019a1.806,1.806,0,0,1,1.788,1.832l-.437,29.791A1.806,1.806,0,0,1,2365.71,2697.485Z" transform="translate(-2128.023 -2476.425)" fill="#fff"/>
          <path id="Path_7" data-name="Path 7" d="M2094.15,2407.585h-.027a1.806,1.806,0,0,1-1.779-1.833l1.675-114.1c-.031-6.778-2.089-12.19-6.115-16.047-7.516-7.2-19.449-6.834-19.952-6.811l-210.8-5.653a1.8,1.8,0,0,1-1.756-1.853,1.728,1.728,0,0,1,1.854-1.755l210.679,5.653c1.311-.077,14.016-.3,22.478,7.81,4.76,4.562,7.192,10.845,7.228,18.673l-1.676,114.136A1.805,1.805,0,0,1,2094.15,2407.585Z" transform="translate(-1855.392 -2259.528)" fill="#fff"/>
        </g>
        <rect id="Rectangle_2" data-name="Rectangle 2" width="830.153" height="35.554" rx="5.654" transform="translate(830.153 489.14) rotate(180)" fill="#0992ac"/>
        <path id="Path_8" data-name="Path 8" d="M1186.108,2668.03H926.213a17.351,17.351,0,0,1-17.35-17.35V2311.438a17.35,17.35,0,0,1,18.014-17.338l259.894,9.946a17.35,17.35,0,0,1,16.687,17.338v329.3A17.35,17.35,0,0,1,1186.108,2668.03Z" transform="translate(-823.281 -2243.572)" fill="#25cbe8" opacity="0.4"/>
        <g id="Group_5" data-name="Group 5" transform="translate(136.509 183.609)">
          <rect id="Rectangle_3" data-name="Rectangle 3" width="177.098" height="22.879" rx="5.333" fill="#d2fdfd"/>
          <rect id="Rectangle_4" data-name="Rectangle 4" width="177.098" height="22.879" rx="5.333" transform="translate(0.348 36.536)" fill="#d2fdfd"/>
          <rect id="Rectangle_5" data-name="Rectangle 5" width="177.098" height="22.879" rx="5.333" transform="translate(1.386 73.837)" fill="#d2fdfd"/>
          <rect id="Rectangle_6" data-name="Rectangle 6" width="177.098" height="22.879" rx="5.333" transform="translate(1.734 110.372)" fill="#d2fdfd"/>
        </g>
        <g id="Group_7" data-name="Group 7" transform="translate(417.657 149.126)">
          <rect id="Rectangle_7" data-name="Rectangle 7" width="254.615" height="22.879" rx="5.333" transform="translate(0 121.456)" fill="#8ce9f5"/>
          <rect id="Rectangle_8" data-name="Rectangle 8" width="254.615" height="22.879" rx="5.333" transform="translate(0.787 158.019)" fill="#8ce9f5"/>
          <rect id="Rectangle_9" data-name="Rectangle 9" width="150.873" height="22.879" rx="5.333" transform="translate(0.787 195.32)" fill="#8ce9f5"/>
          <g id="Group_6" data-name="Group 6" transform="translate(67.136)">
            <path id="Path_9" data-name="Path 9" d="M1888.141,2355.3h-3.878a3.486,3.486,0,0,1-3.487-3.487V2338.56a8.592,8.592,0,0,0-8.592-8.592h-24.031a8.592,8.592,0,0,0-8.593,8.592v13.256a3.486,3.486,0,0,1-3.487,3.487h-3.879a3.487,3.487,0,0,1-3.487-3.487V2338.56a19.444,19.444,0,0,1,19.444-19.444h24.031a19.444,19.444,0,0,1,19.444,19.444v13.256A3.487,3.487,0,0,1,1888.141,2355.3Z" transform="translate(-1820.114 -2319.116)" fill="#8ce9f5"/>
            <path id="Path_10" data-name="Path 10" d="M1883.015,2403.874h-65.561a7.274,7.274,0,0,0-7.274,7.274v50.315a7.275,7.275,0,0,0,7.274,7.275h65.561a7.275,7.275,0,0,0,7.274-7.275v-50.315A7.274,7.274,0,0,0,1883.015,2403.874Zm-23.4,48.63a2.7,2.7,0,0,1-2.62,3.325h-13.519a2.7,2.7,0,0,1-2.62-3.325l3.154-13.132a12.153,12.153,0,1,1,12.451,0Z" transform="translate(-1810.18 -2364.558)" fill="#8ce9f5"/>
          </g>
        </g>
      </g>
      <g id="Group_574" data-name="Group 574" transform="translate(263.974 -43)">
        <g id="Group_10" data-name="Group 10">
          <path id="Path_24" data-name="Path 24" d="M1795.748,1065.984H1396.133a29.213,29.213,0,0,1-29.213-29.213V776.561a29.213,29.213,0,0,1,27.587-29.167l415.035-23.133a29.212,29.212,0,0,1,30.795,30.754l-15.42,283.344A29.212,29.212,0,0,1,1795.748,1065.984Z" transform="translate(-1366.92 -724.215)" fill="#f89f1b"/>
          <g id="Group_9" data-name="Group 9" transform="translate(9.186 0)">
            <path id="Path_25" data-name="Path 25" d="M1631.628,908.971l218.443-181.924a29.038,29.038,0,0,0-14.172-2.785l-415.035,23.133a29.11,29.11,0,0,0-18.4,7.908l163.485,152.043C1583.7,923.851,1612.893,924.574,1631.628,908.971Z" transform="translate(-1402.463 -724.215)" fill="#e38800"/>
          </g>
        </g>
        <g id="Group_11" data-name="Group 11" transform="translate(18.994 30.972)" opacity="0.66">
          <path id="Path_26" data-name="Path 26" d="M1565.524,960.656a2.2,2.2,0,0,1-1.488-.577L1441.131,847.895a2.209,2.209,0,0,1,2.978-3.263l122.905,112.184a2.209,2.209,0,0,1-1.49,3.84Z" transform="translate(-1440.412 -844.055)" fill="#fff"/>
        </g>
        <g id="Group_12" data-name="Group 12" transform="translate(356.056 266.852)" opacity="0.66">
          <path id="Path_27" data-name="Path 27" d="M2761.049,1824.14q-5.006,0-10.449-.014l-3.784-.007a2.208,2.208,0,0,1,0-4.417h0l3.786.007c42.551.078,63.928.125,73.644-9.93,7.784-8.056,8.705-23.409,7.713-50.743a2.208,2.208,0,1,1,4.413-.16c1.323,36.427-1.976,46.756-8.95,53.972C2817.322,1823.309,2797.983,1824.14,2761.049,1824.14Z" transform="translate(-2744.611 -1756.747)" fill="#fff"/>
        </g>
      </g>
      <g id="Group_17" data-name="Group 17" transform="translate(-71.149 -43)">
        <g id="Group_12-2" data-name="Group 12">
          <g id="Group_9-2" data-name="Group 9" transform="translate(0 130.323)">
            <path id="Path_11" data-name="Path 11" d="M2365.7,1116.7a.8.8,0,0,1-.393-.1.81.81,0,0,1-.315-1.1q.784-1.41,1.52-2.838a.812.812,0,1,1,1.442.745q-.749,1.45-1.543,2.881A.811.811,0,0,1,2365.7,1116.7Z" transform="translate(-2163.566 -1084.145)" fill="#91b3fa"/>
            <path id="Path_12" data-name="Path 12" d="M1647.959,1125.571q-.719,0-1.437-.01a.811.811,0,0,1,.011-1.623h.011c2.1.029,4.218-.006,6.313-.1a.824.824,0,0,1,.847.774.812.812,0,0,1-.774.847C1651.282,1125.533,1649.609,1125.571,1647.959,1125.571Zm-11.743-.633a.846.846,0,0,1-.088,0c-2.12-.23-4.256-.524-6.349-.875a.812.812,0,0,1,.268-1.6c2.063.346,4.168.636,6.255.862a.811.811,0,0,1-.086,1.618Zm26.969-.435a.811.811,0,0,1-.113-1.615c2.077-.292,4.171-.651,6.225-1.064a.812.812,0,0,1,.32,1.591c-2.085.42-4.211.783-6.318,1.08A.814.814,0,0,1,1663.186,1124.5Zm-43.372-2.623a.813.813,0,0,1-.21-.028c-2.056-.549-4.122-1.167-6.141-1.834a.811.811,0,0,1,.51-1.541c1.989.658,4.024,1.266,6.049,1.807a.811.811,0,0,1-.208,1.6Zm59.669-.971a.811.811,0,0,1-.235-1.588c2.01-.609,4.024-1.285,5.988-2.009a.812.812,0,1,1,.561,1.523c-1.993.735-4.038,1.421-6.078,2.039A.814.814,0,0,1,1679.483,1120.91Zm-75.411-4.562a.81.81,0,0,1-.327-.069c-1.951-.86-3.9-1.788-5.785-2.757a.811.811,0,1,1,.742-1.444c1.86.955,3.776,1.868,5.7,2.715a.811.811,0,0,1-.328,1.554Zm90.961-1.5a.811.811,0,0,1-.353-1.543c1.888-.909,3.774-1.887,5.608-2.909a.812.812,0,0,1,.789,1.418c-1.861,1.036-3.776,2.03-5.693,2.953A.8.8,0,0,1,1695.032,1114.85Zm-105.657-6.393a.807.807,0,0,1-.437-.128c-1.792-1.149-3.571-2.366-5.29-3.617a.812.812,0,1,1,.956-1.312c1.692,1.232,3.445,2.43,5.211,3.563a.811.811,0,0,1-.439,1.494Zm120.086-1.994a.811.811,0,0,1-.462-1.479c1.727-1.191,3.441-2.448,5.094-3.738a.812.812,0,1,1,1,1.281c-1.679,1.308-3.418,2.584-5.17,3.794A.813.813,0,0,1,1709.461,1106.463Zm-133.388-8.066a.809.809,0,0,1-.538-.2c-1.588-1.405-3.161-2.881-4.673-4.385a.811.811,0,1,1,1.144-1.151c1.49,1.482,3.04,2.936,4.605,4.321a.811.811,0,0,1-.538,1.419Zm146.369-2.436a.811.811,0,0,1-.557-1.4c1.527-1.441,3.03-2.942,4.467-4.464a.812.812,0,1,1,1.18,1.114c-1.459,1.544-2.984,3.069-4.533,4.531A.813.813,0,0,1,1722.441,1095.962Zm-157.988-9.544a.811.811,0,0,1-.625-.293c-1.359-1.632-2.691-3.329-3.957-5.042a.812.812,0,1,1,1.306-.965c1.247,1.688,2.558,3.36,3.9,4.969a.811.811,0,0,1-.623,1.33Zm169.218-2.8a.811.811,0,0,1-.64-1.31c1.292-1.66,2.547-3.374,3.731-5.094a.811.811,0,0,1,1.338.919c-1.2,1.747-2.476,3.487-3.788,5.172A.811.811,0,0,1,1733.671,1083.622Zm-178.885-10.807a.81.81,0,0,1-.7-.394c-1.1-1.831-2.155-3.712-3.137-5.591a.812.812,0,1,1,1.439-.751c.967,1.85,2.006,3.7,3.089,5.507a.811.811,0,0,1-.695,1.229Zm-7.459-14.928a.812.812,0,0,1-.752-.506c-.8-1.977-1.554-4-2.235-6.008a.811.811,0,0,1,1.537-.52c.67,1.978,1.41,3.969,2.2,5.917a.811.811,0,0,1-.752,1.117Z" transform="translate(-1540.745 -1037.153)" fill="#f89f1b"/>
            <path id="Path_13" data-name="Path 13" d="M1531.064,1000.535a.811.811,0,0,1-.789-.626q-.373-1.593-.7-3.192a.811.811,0,1,1,1.589-.323q.321,1.576.69,3.145a.811.811,0,0,1-.6.975A.841.841,0,0,1,1531.064,1000.535Z" transform="translate(-1529.559 -995.744)" fill="#91b3fa"/>
          </g>
          <g id="Group_10-2" data-name="Group 10" transform="translate(14.451)">
            <path id="Path_14" data-name="Path 14" d="M1590.333,658.633a.812.812,0,0,1-.686-1.244q.869-1.379,1.782-2.738a.811.811,0,1,1,1.347.9q-.9,1.34-1.756,2.7A.81.81,0,0,1,1590.333,658.633Z" transform="translate(-1589.522 -606.26)" fill="#f89f1b"/>
            <path id="Path_15" data-name="Path 15" d="M1812.508,534.553a.812.812,0,0,1-.779-.583c-.62-2.115-1.314-4.238-2.064-6.31a.811.811,0,0,1,1.526-.551c.761,2.1,1.466,4.258,2.1,6.405a.811.811,0,0,1-.779,1.04Zm-6.287-16.377a.812.812,0,0,1-.732-.459c-.957-1.99-1.986-3.973-3.061-5.892a.812.812,0,1,1,1.417-.792c1.089,1.948,2.135,3.96,3.107,5.981a.811.811,0,0,1-.73,1.163Zm-8.861-15.142a.81.81,0,0,1-.666-.346c-1.262-1.8-2.6-3.593-3.973-5.319a.811.811,0,1,1,1.269-1.011c1.395,1.754,2.752,3.57,4.033,5.4a.812.812,0,0,1-.664,1.277Zm-172.67-7.081a.811.811,0,0,1-.624-1.329c1.424-1.715,2.925-3.414,4.46-5.051a.812.812,0,1,1,1.184,1.111c-1.514,1.613-2.992,3.287-4.395,4.976A.811.811,0,0,1,1624.69,495.953Zm161.488-6.438a.81.81,0,0,1-.583-.246c-1.529-1.576-3.132-3.13-4.765-4.619a.812.812,0,0,1,1.094-1.2c1.658,1.512,3.284,3.089,4.836,4.688a.811.811,0,0,1-.582,1.376ZM1636.941,483.4a.811.811,0,0,1-.534-1.422c1.688-1.475,3.441-2.914,5.21-4.28a.812.812,0,1,1,.992,1.285c-1.743,1.345-3.47,2.763-5.134,4.216A.808.808,0,0,1,1636.941,483.4Zm136.053-5.442a.811.811,0,0,1-.483-.16c-1.769-1.314-3.6-2.589-5.446-3.791a.811.811,0,1,1,.885-1.36c1.873,1.22,3.733,2.513,5.529,3.848a.811.811,0,0,1-.485,1.463Zm-121.954-5.007a.811.811,0,0,1-.429-1.5c1.9-1.181,3.859-2.321,5.83-3.385a.811.811,0,1,1,.772,1.428c-1.942,1.048-3.875,2.17-5.745,3.334A.8.8,0,0,1,1651.04,472.947Zm107.073-4.272a.8.8,0,0,1-.371-.09c-1.956-1.009-3.971-1.97-5.99-2.857a.811.811,0,1,1,.653-1.485c2.048.9,4.094,1.876,6.08,2.9a.811.811,0,0,1-.373,1.532Zm-91.474-3.761a.811.811,0,0,1-.312-1.561c2.061-.857,4.181-1.662,6.3-2.393a.811.811,0,0,1,.529,1.534c-2.089.72-4.177,1.513-6.208,2.358A.817.817,0,0,1,1666.639,464.913Zm75.286-2.986a.814.814,0,0,1-.25-.039c-2.094-.679-4.239-1.3-6.374-1.852a.812.812,0,1,1,.4-1.572c2.167.559,4.344,1.191,6.47,1.88a.811.811,0,0,1-.25,1.583Zm-58.594-2.41a.811.811,0,0,1-.185-1.6c2.182-.514,4.4-.966,6.6-1.342a.811.811,0,0,1,.274,1.6c-2.168.371-4.357.816-6.507,1.323A.828.828,0,0,1,1683.331,459.517Zm41.528-1.637a.8.8,0,0,1-.124-.01c-2.179-.334-4.4-.6-6.591-.8a.812.812,0,0,1,.147-1.616c2.227.2,4.478.478,6.689.817a.811.811,0,0,1-.122,1.613Zm-24.183-1a.811.811,0,0,1-.056-1.62c2.228-.157,4.493-.246,6.733-.265h.007a.811.811,0,0,1,.007,1.623c-2.208.019-4.44.106-6.634.26Z" transform="translate(-1615.599 -455)" fill="#f89f1b"/>
            <path id="Path_16" data-name="Path 16" d="M2415.072,827.23a.812.812,0,0,1-.8-.686q-.247-1.589-.543-3.173a.812.812,0,1,1,1.6-.3q.3,1.608.552,3.221a.812.812,0,0,1-.677.927A.87.87,0,0,1,2415.072,827.23Z" transform="translate(-2215.078 -733.863)" fill="#f89f1b"/>
          </g>
          <g id="Group_11-2" data-name="Group 11" transform="translate(22.53 25.927)">
            <path id="Path_17" data-name="Path 17" d="M1791.06,643.6a1.3,1.3,0,0,0-.78-1.3l-14.545-6.318a69.087,69.087,0,0,0-6.926-21.283l8.026-13.665a1.3,1.3,0,0,0-.133-1.507l-12.365-14.455a1.3,1.3,0,0,0-1.468-.365l-14.743,5.813a69.077,69.077,0,0,0-19.953-10.138l-3.99-15.349a1.3,1.3,0,0,0-1.159-.971l-18.964-1.478a1.3,1.3,0,0,0-1.3.78l-6.319,14.545a69.087,69.087,0,0,0-21.283,6.926l-13.665-8.027a1.3,1.3,0,0,0-1.507.133l-14.455,12.365a1.3,1.3,0,0,0-.365,1.468l5.813,14.743a69.077,69.077,0,0,0-10.138,19.953l-15.349,3.99a1.3,1.3,0,0,0-.971,1.16l-1.478,18.964a1.3,1.3,0,0,0,.78,1.3l14.545,6.319a69.076,69.076,0,0,0,6.925,21.283l-8.027,13.665a1.3,1.3,0,0,0,.133,1.507l12.365,14.455a1.3,1.3,0,0,0,1.468.365l14.743-5.813a69.075,69.075,0,0,0,19.953,10.138l3.99,15.348a1.3,1.3,0,0,0,1.16.971l18.964,1.478a1.3,1.3,0,0,0,1.3-.78l6.319-14.545a69.08,69.08,0,0,0,21.282-6.926l13.666,8.027a1.3,1.3,0,0,0,1.506-.134l14.455-12.365a1.3,1.3,0,0,0,.365-1.468l-5.813-14.743a69.088,69.088,0,0,0,10.138-19.953l15.348-3.99a1.3,1.3,0,0,0,.971-1.16Z" transform="translate(-1623.043 -562.58)" fill="#25cbe8"/>
            <path id="Path_18" data-name="Path 18" d="M1914.578,872.236a18.158,18.158,0,1,1,3.093-.264A18.342,18.342,0,0,1,1914.578,872.236Zm.071-33.789a15.859,15.859,0,0,0-2.677.229,15.675,15.675,0,1,0,11.7,2.655h0A15.559,15.559,0,0,0,1914.65,838.447Z" transform="translate(-1830.607 -770.115)" fill="#fff" opacity="0.7"/>
            <path id="Path_19" data-name="Path 19" d="M1821.628,809.9q-1.86,0-3.735-.146a47.123,47.123,0,0,1-43.46-46.9q0-1.861.146-3.737a47.116,47.116,0,0,1,82.777-26.967,47.371,47.371,0,0,1,5.679,8.267l-2.141,1.157a44.92,44.92,0,0,0-5.388-7.842,44.682,44.682,0,0,0-78.5,25.574q-.138,1.778-.138,3.543a44.689,44.689,0,0,0,87.049,14.156l2.309.773a47.149,47.149,0,0,1-44.6,32.118Z" transform="translate(-1737.947 -678.765)" fill="#fff" opacity="0.7"/>
          </g>
        </g>
        <g id="Group_16" data-name="Group 16" transform="translate(190.21 103.734)">
          <g id="Group_13" data-name="Group 13" transform="translate(0 66.896)">
            <path id="Path_20" data-name="Path 20" d="M2745.431,1227.279a.811.811,0,0,1-.7-1.225c.545-.921,1.067-1.861,1.549-2.8a.812.812,0,1,1,1.442.745c-.5.963-1.033,1.931-1.595,2.879A.81.81,0,0,1,2745.431,1227.279Z" transform="translate(-2641.992 -1208.4)" fill="#f89f1b"/>
            <path id="Path_21" data-name="Path 21" d="M2383.85,1250.412l-.064,0a57.314,57.314,0,0,1-6.571-.9.812.812,0,1,1,.313-1.593,55.412,55.412,0,0,0,6.384.879.811.811,0,0,1-.062,1.62Zm10.612-.172a.812.812,0,0,1-.09-1.618,55.412,55.412,0,0,0,6.351-1.089.811.811,0,1,1,.368,1.58,56.919,56.919,0,0,1-6.538,1.122A.9.9,0,0,1,2394.461,1250.241Zm-27.262-3.758a.82.82,0,0,1-.306-.059,56.731,56.731,0,0,1-5.987-2.854.811.811,0,1,1,.783-1.422,55.181,55.181,0,0,0,5.816,2.772.811.811,0,0,1-.306,1.563Zm43.771-.728a.812.812,0,0,1-.332-1.552,54.789,54.789,0,0,0,5.719-2.971.811.811,0,1,1,.832,1.393,56.416,56.416,0,0,1-5.889,3.06A.8.8,0,0,1,2410.971,1245.754Zm-58.431-8.077a.806.806,0,0,1-.519-.188,57.166,57.166,0,0,1-4.834-4.539.812.812,0,1,1,1.177-1.117,55.514,55.514,0,0,0,4.7,4.411.811.811,0,0,1-.521,1.434Zm72.789-1.223a.811.811,0,0,1-.54-1.417l.477-.43a55.858,55.858,0,0,0,4.079-4.129.811.811,0,0,1,1.212,1.078,57.266,57.266,0,0,1-4.2,4.251l-.49.441A.811.811,0,0,1,2425.329,1236.454Zm-84.1-11.607a.809.809,0,0,1-.684-.374,56.432,56.432,0,0,1-3.244-5.788.811.811,0,0,1,1.459-.708,55.047,55.047,0,0,0,3.15,5.622.811.811,0,0,1-.682,1.249Z" transform="translate(-2332.777 -1204.378)" fill="#f89f1b"/>
            <path id="Path_22" data-name="Path 22" d="M2320.339,1167.772a.811.811,0,0,1-.784-.6c-.28-1.055-.532-2.133-.75-3.2a.811.811,0,1,1,1.589-.323c.213,1.039.458,2.086.729,3.111a.812.812,0,0,1-.577.992A.829.829,0,0,1,2320.339,1167.772Z" transform="translate(-2318.789 -1162.992)" fill="#f89f1b"/>
          </g>
          <g id="Group_14" data-name="Group 14" transform="translate(7.423)">
            <path id="Path_23" data-name="Path 23" d="M2350.4,986.53a.812.812,0,0,1-.685-1.244c.582-.925,1.2-1.845,1.835-2.733a.811.811,0,1,1,1.32.943c-.616.863-1.216,1.756-1.783,2.655A.809.809,0,0,1,2350.4,986.53Z" transform="translate(-2349.588 -958.886)" fill="#91b3fa"/>
            <path id="Path_24-2" data-name="Path 24" d="M2476.207,920.956a.813.813,0,0,1-.747-.495,54.426,54.426,0,0,0-2.813-5.68.812.812,0,0,1,1.41-.8,56.488,56.488,0,0,1,2.9,5.85.812.812,0,0,1-.747,1.128Zm-8.853-14.315a.81.81,0,0,1-.618-.285q-.62-.73-1.272-1.444c-.99-1.085-2.035-2.143-3.106-3.144a.812.812,0,0,1,1.109-1.185c1.1,1.031,2.177,2.12,3.195,3.236q.671.734,1.31,1.485a.811.811,0,0,1-.618,1.337ZM2386.3,902.48a.811.811,0,0,1-.56-1.4q.493-.469,1-.931c1.268-1.157,2.6-2.269,3.967-3.3a.811.811,0,0,1,.981,1.292c-1.325,1.007-2.622,2.087-3.853,3.21q-.491.449-.97.907A.812.812,0,0,1,2386.3,902.48Zm68.353-6.881a.809.809,0,0,1-.433-.125,54.928,54.928,0,0,0-5.542-3.069.811.811,0,1,1,.7-1.463,56.607,56.607,0,0,1,5.708,3.16.811.811,0,0,1-.434,1.5Zm-54.585-2.8a.811.811,0,0,1-.362-1.538,56.758,56.758,0,0,1,6-2.562.811.811,0,0,1,.55,1.527,54.974,54.974,0,0,0-5.832,2.488A.808.808,0,0,1,2400.065,892.8Zm39.167-3.928a.825.825,0,0,1-.209-.027,55.338,55.338,0,0,0-6.21-1.271.81.81,0,0,1-.686-.919.8.8,0,0,1,.919-.686,56.954,56.954,0,0,1,6.394,1.308.812.812,0,0,1-.208,1.6Zm-23.135-1.187a.811.811,0,0,1-.126-1.612,57.111,57.111,0,0,1,6.494-.648.811.811,0,1,1,.068,1.621,55.463,55.463,0,0,0-6.309.629A.791.791,0,0,1,2416.1,887.682Z" transform="translate(-2376.835 -885.421)" fill="#f89f1b"/>
            <path id="Path_25-2" data-name="Path 25" d="M2773.074,1072.344a.812.812,0,0,1-.8-.686c-.163-1.048-.36-2.105-.583-3.142a.811.811,0,1,1,1.586-.342c.23,1.067.432,2.156.6,3.234a.812.812,0,0,1-.677.927A.873.873,0,0,1,2773.074,1072.344Z" transform="translate(-2669.947 -1023.643)" fill="#91b3fa"/>
          </g>
          <g id="Group_15" data-name="Group 15" transform="translate(11.967 13.665)">
            <path id="Path_26-2" data-name="Path 26" d="M2454.752,983.736a.669.669,0,0,0-.4-.666l-7.472-3.246a35.483,35.483,0,0,0-3.557-10.932l4.123-7.02a.669.669,0,0,0-.068-.774l-6.352-7.425a.669.669,0,0,0-.754-.187l-7.573,2.986a35.489,35.489,0,0,0-10.25-5.208l-2.05-7.884a.669.669,0,0,0-.6-.5l-9.742-.759a.669.669,0,0,0-.666.4l-3.246,7.471a35.484,35.484,0,0,0-10.933,3.558l-7.02-4.123a.67.67,0,0,0-.774.068L2380,955.848a.668.668,0,0,0-.187.754l2.986,7.573a35.482,35.482,0,0,0-5.208,10.25l-7.884,2.049a.669.669,0,0,0-.5.6l-.759,9.742a.67.67,0,0,0,.4.666l7.471,3.245a35.485,35.485,0,0,0,3.557,10.933l-4.123,7.02a.669.669,0,0,0,.069.774l6.352,7.425a.67.67,0,0,0,.754.188l7.573-2.986a35.477,35.477,0,0,0,10.25,5.208l2.049,7.884a.669.669,0,0,0,.6.5l9.742.759a.669.669,0,0,0,.666-.4l3.246-7.471a35.484,35.484,0,0,0,10.932-3.558l7.02,4.123a.669.669,0,0,0,.774-.068l7.425-6.352a.669.669,0,0,0,.188-.754l-2.987-7.573a35.49,35.49,0,0,0,5.208-10.25l7.884-2.049a.669.669,0,0,0,.5-.6Z" transform="translate(-2368.446 -942.119)" fill="#25cbe8"/>
            <path id="Path_27-2" data-name="Path 27" d="M2516.339,1099.91a9.923,9.923,0,1,1,1.69-.144A10,10,0,0,1,2516.339,1099.91Zm.031-17.353a7.453,7.453,0,1,0,4.3,1.369h0A7.417,7.417,0,0,0,2516.37,1082.557Z" transform="translate(-2473.205 -1046.859)" fill="#fff" opacity="0.7"/>
            <path id="Path_28" data-name="Path 28" d="M2468.634,1067.926q-.979,0-1.967-.077a24.795,24.795,0,1,1,20.768-40.837c.07.081.138.163.207.245a25,25,0,0,1,2.556,3.7c0,.005.006.01.009.015l.032.058.057.1.031.056c.033.059.064.118.1.177l-2.141,1.157a22.583,22.583,0,0,0-2.7-3.925h0a22.354,22.354,0,1,0,4.208,21.657l2.309.773a24.812,24.812,0,0,1-23.468,16.9Z" transform="translate(-2425.647 -999.974)" fill="#fff" opacity="0.7"/>
          </g>
        </g>
      </g>
      <g id="Group_20" data-name="Group 20" transform="translate(545.315 151.884)">
        <g id="Group_18" data-name="Group 18">
          <path id="Path_29" data-name="Path 29" d="M1881.142,1413.5a8.005,8.005,0,0,1,6.19-2.131c24.311,2.186,69.669-9.524,99.313-39.855,2.058-2.106,5.81-.916,8.17.847,32.968,24.64,87.618,29.743,106.589,30.786a8,8,0,0,1,7.513,7.169c17.252,166.63-91.239,227.011-113.741,237.669a8.024,8.024,0,0,1-7.666-.443c-112.146-69.854-107.349-160.7-108.9-228.007A8.016,8.016,0,0,1,1881.142,1413.5Z" transform="translate(-1878.608 -1370.395)" fill="#059db9"/>
          <path id="Path_30" data-name="Path 30" d="M2040.194,1693.477a2.675,2.675,0,0,1-1.438-.419c-42.994-27.484-71.016-60.341-85.667-100.449-13.085-35.822-13.725-72.3-14.291-104.48l-.077-4.291a2.626,2.626,0,0,1,.757-1.9,2.655,2.655,0,0,1,1.908-.8h0c26.626,0,66.59-11.757,95.9-38.022a2.656,2.656,0,0,1,3.241-.234c32.207,21.37,78.147,27.592,102.665,29.4a2.646,2.646,0,0,1,2.448,2.419c5.7,65.017-7.824,120-40.194,163.41-24.176,32.423-52.843,49.317-64.047,55.076h0A2.651,2.651,0,0,1,2040.194,1693.477Zm.711-1.262.249.485-.249-.485c11.136-5.724,39.631-22.517,63.671-54.757,32.2-43.193,45.656-97.92,39.982-162.662a1.56,1.56,0,0,0-1.441-1.426c-24.625-1.815-70.775-8.071-103.189-29.578a1.563,1.563,0,0,0-1.91.138c-29.526,26.457-69.8,38.3-96.607,38.3h0a1.583,1.583,0,0,0-1.152.472,1.538,1.538,0,0,0-.444,1.116l.077,4.291c.563,32.1,1.2,68.476,14.224,104.126,14.566,39.875,42.444,72.553,85.23,99.9A1.574,1.574,0,0,0,2040.9,1692.215Z" transform="translate(-1926.66 -1427.985)" fill="#fff" opacity="0.61"/>
        </g>
        <g id="Group_19" data-name="Group 19" transform="translate(77.54 76.583)">
          <path id="Path_31" data-name="Path 31" d="M2309.833,1697.817h-3.739a3.362,3.362,0,0,1-3.362-3.362v-12.78a8.283,8.283,0,0,0-8.283-8.283h-23.169a8.283,8.283,0,0,0-8.283,8.283v12.78a3.362,3.362,0,0,1-3.362,3.362h-3.739a3.362,3.362,0,0,1-3.362-3.362v-12.78a18.746,18.746,0,0,1,18.746-18.746h23.169a18.746,18.746,0,0,1,18.746,18.746v12.78A3.362,3.362,0,0,1,2309.833,1697.817Z" transform="translate(-2244.247 -1662.929)" fill="#a2f1ff"/>
          <path id="Path_32" data-name="Path 32" d="M2266.739,1919.172h-63.207a7.013,7.013,0,0,0-7.013,7.013v48.509a7.013,7.013,0,0,0,7.013,7.013h63.207a7.013,7.013,0,0,0,7.013-7.013v-48.509A7.013,7.013,0,0,0,2266.739,1919.172Zm-22.56,46.884a2.6,2.6,0,0,1-2.526,3.205h-13.034a2.6,2.6,0,0,1-2.526-3.206l3.042-12.66a11.716,11.716,0,1,1,12,0Z" transform="translate(-2196.519 -1881.267)" fill="#a2f1ff"/>
        </g>
      </g>
    </g>
    <g id="Group_575" data-name="Group 575" transform="translate(977.951 882.946)">
      <g id="Group_31" data-name="Group 31" transform="translate(0 60.639)">
        <path id="Path_81" data-name="Path 81" d="M2308.533,1556.192l-233.314,0c-32.529-37.383-31.181-82.892,13.2-124.22,7.966-7.416,21.879-15.4,33.107-18.081,20.7-4.937,44.17-6.073,44.353-6.173.068-.025,26.093-3.65,33.514-12.679,23.059-28.044,28.985-32.056,28.985-32.056,23.5-4.595,43.551-5.943,58.414,2.368,0,0,0,0,0,.009,13.77,7.71,23.091,23.721,26.579,53.141.662,5.563,1.116,11.606,1.351,18.164.851,23.877,5.537,45.115,8.319,63.1a0,0,0,0,1,0,0C2327.081,1525.816,2329.928,1545.627,2308.533,1556.192Z" transform="translate(-2052.719 -1359.316)" fill="#1aa2ba"/>
      </g>
      <path id="Path_82" data-name="Path 82" d="M2351.494,1395.178c-14.262,7.768-15.839,33.36-38.161,39.969s-60.212,6.008-81.7,29.322c-20.735,22.493-43.6-34.732-33.756-50.828,20.7-4.914,44.169-6.046,44.353-6.145.068-.026,31.834-.155,39.256-9.142,23.06-27.916,23.244-35.39,23.244-35.39,23.5-4.573,43.551-5.916,58.414,2.357,0,0,0,0,0,.008C2379.517,1382.246,2365.755,1387.41,2351.494,1395.178Z" transform="translate(-2129.065 -1298.677)" fill="#2bbdd8"/>
      <path id="Path_83" data-name="Path 83" d="M2495.155,1566.8c-32.732-40.857-99.973,14.842-117.374,13.27-16-1.446,31.2-57.29,89.725-65.6,23.659-3.358,17.992-27.808,17.981-28.563.662,5.538,1.116,11.554,1.349,18.082C2487.687,1527.759,2492.372,1548.9,2495.155,1566.8Z" transform="translate(-2224.83 -1366.361)" fill="#2bbdd8"/>
      <g id="Group_36" data-name="Group 36" transform="translate(33.779)">
        <g id="Group_35" data-name="Group 35">
          <path id="Path_84" data-name="Path 84" d="M2220.276,1684.513c-2.289,4.413-2.8,12.529-3.484,15.283s-12.675,12.108-13.706,11.64c-2.624-1.184-.117-5.755,1.485-9.1.066-.135.127-.269.189-.4,1.58-3.367.221-10.884,1.039-14.767s-3.117-14.331-3.117-14.331l6.626-8.37s4.657,8.861,7.989,10.474a8.153,8.153,0,0,1,1.624,1.035C2221.181,1677.839,2222.158,1680.883,2220.276,1684.513Z" transform="translate(-2166.283 -1461.83)" fill="#ffb27d"/>
          <path id="Path_85" data-name="Path 85" d="M2392.057,1229.078a28.034,28.034,0,0,0-16.979,7.843,36.182,36.182,0,0,0-8.181,11.219c-4.371,9.977-2.865,21.584-5.364,27.952s-4,7.477,0,10.362,4.669,5.63-.111,8.686-8.305,12.583,5.027,13.411,39.171-4.012,42.494-6.475,12.395-6.13,16.744-12.726c8.7-13.185,1.768-22.042-4.949-24.275C2410.507,1261.674,2414.268,1227.217,2392.057,1229.078Z" transform="translate(-2249.255 -1229.005)" fill="#0d5d6c"/>
          <path id="Path_86" data-name="Path 86" d="M2359.488,1347.847s-13.217,29.84-15.97,32.435-15.648,7.666-14.489,12.012,10.866,8.548,14.924,7.535,14.344-18.546,14.344-18.546Z" transform="translate(-2234.19 -1292.545)" fill="#739af0"/>
          <path id="Path_87" data-name="Path 87" d="M2331.425,1417.839s.714-5.132,13.24-6.788c6.952-.919,18.581-20.307,18.581-20.307l-11.629,30.57-11.27,4.873Z" transform="translate(-2235.51 -1315.48)" fill="#5a7de0"/>
          <path id="Path_88" data-name="Path 88" d="M2254.7,1468.542s-65.235-4.567-74.174,5.787c-7.091,8.215,5.822,97.959,5.822,97.959s17.753.517,19.151-4.184c0,0-3.313-43.57-.539-51.1s1.021-17.964,1.021-17.964,34.733,5.2,45.751,2.563S2254.7,1468.542,2254.7,1468.542Z" transform="translate(-2153.692 -1356.539)" fill="#45453c"/>
          <path id="Path_89" data-name="Path 89" d="M2156.008,1737.369c-4.592,1.893-10.223,7.763-12.519,9.427s-17.5,1.072-17.982.051c-1.29-2.7,4.026-4.621,7.4-6.176.05-.022.1-.048.148-.07l.011-.007c3.342-1.682,7.08-8.134,10.165-10.534,3.128-2.438,6.862-12.959,6.862-12.959l10.463-2.121s-2.154,9.776-.65,13.155a8.455,8.455,0,0,1,.36.966C2161.229,1732.239,2160.171,1735.65,2156.008,1737.369Z" transform="translate(-2125.309 -1488.835)" fill="#ffb27d"/>
          <path id="Path_90" data-name="Path 90" d="M2279.582,1476.544s-71.177,7.233-77.431,14.5-30.848,101.734-30.848,101.734,7.262,4.049,13.865.266c0,0,18.833-32.047,27.165-42.108s11.295-36.338,15.737-39.165c1.191-.759,43.068,3.952,58.429-7.836S2279.582,1476.544,2279.582,1476.544Z" transform="translate(-2149.9 -1361.354)" fill="#71716f"/>
          <path id="Path_91" data-name="Path 91" d="M2396.223,1398.509a82.005,82.005,0,0,1-5.942,9.762c-5.329,7.428-11.5,12.77-18.181,14.157-9.71,2.017-42.262-16.878-40.615-27.3.9-5.672,18.986-15.87,21.9-19.986s4.67-24.747,6.229-33.168c1.159-6.266,5.044-6.921,9.9-8.584,20.629-7.067,35.317.408,35.317.408C2414.27,1339.109,2409.024,1374.024,2396.223,1398.509Z" transform="translate(-2235.51 -1283.19)" fill="#739af0"/>
          <path id="Path_92" data-name="Path 92" d="M2440.11,1261.292a89.955,89.955,0,0,0,1.551-10.459c.317-3.857-5.542-16.431-14.64-15.911a19.281,19.281,0,0,0-7.679,3.76c-2.873,2.361-6.88,7.252-.773,19.058l1.676,4.024Z" transform="translate(-2280.393 -1232.16)" fill="#0d5d6c"/>
          <g id="Group_32" data-name="Group 32" transform="translate(127.192 8.173)">
            <path id="Path_93" data-name="Path 93" d="M2428.083,1314.507c.3,2.154,2.215,3.386,6.488,3.111,4.329-.278,10.467-2.9,9.957-4.9a59.275,59.275,0,0,1-3.158-16.293l-.787.22-13.222,3.714s.638,4.2.959,8.184C2428.593,1311.885,2427.934,1313.414,2428.083,1314.507Z" transform="translate(-2413.996 -1273.224)" fill="#f48f8f"/>
            <path id="Path_94" data-name="Path 94" d="M2427.362,1300.612s.638,4.2.959,8.184c7.5-.8,10.933-7.97,12.262-11.9Z" transform="translate(-2413.996 -1273.477)" fill="#e56e6e"/>
            <path id="Path_95" data-name="Path 95" d="M2413.6,1281.6s17.3-4.351,14.425-15.083-2.579-18.521-13.745-16.2-12.208,6.991-12.12,10.807S2409.03,1282.458,2413.6,1281.6Z" transform="translate(-2400.521 -1248.355)" fill="#f48f8f"/>
            <path id="Path_96" data-name="Path 96" d="M2411.2,1250.384s5.806,11.068,16.764,12.261c6.413.7,8.172,4.924,8.172,4.924s-1.923-12.08-5.146-19.468C2430.994,1248.1,2413.149,1243.436,2411.2,1250.384Z" transform="translate(-2405.357 -1246.568)" fill="#0d5d6c"/>
            <path id="Path_97" data-name="Path 97" d="M2406.467,1255.838s-3.789,3.866-4.957,6.591c-1.732,4.037,1.643,12.54,3.037,14.373,0,0-8.049-13.659-5.358-19.573C2402.042,1250.958,2406.467,1255.838,2406.467,1255.838Z" transform="translate(-2398.639 -1250.557)" fill="#0d5d6c"/>
          </g>
          <path id="Path_98" data-name="Path 98" d="M2275.795,1468.905s-3.445,3.648-3.864,3.844c-2.279,1.065-5.155.444-6.546.794s-1.15-.515-.126-1.218,3.55-.427,2.518-.683-6.6-1.3-8.7-.734c-3.319.889-5.938-.156-6.147-.495s7.58-4.145,9.8-4.017,8.622-.178,8.622-.178Z" transform="translate(-2193.541 -1355.833)" fill="#ffb27d"/>
          <path id="Path_99" data-name="Path 99" d="M2445.865,1352.217s2.069,50.741-3.9,57.855c-5.783,6.9-30.489,2.217-41.167-.1a3,3,0,0,0-2.382.687c-.833.749-1.2-5.079-1.2-5.079s32.226-4.716,34.391-5.328c3.111-.879.946-35.82.946-35.82Z" transform="translate(-2270.691 -1294.881)" fill="#f48f8f"/>
          <path id="Path_100" data-name="Path 100" d="M2387.757,1472.122s-2.888,2.927-3.988,4.42-8.777,4.2-8.951,3.4,3.437-3.237,3.763-4.145,4.262-5.475,6.66-5.994S2387.757,1472.122,2387.757,1472.122Z" transform="translate(-2258.708 -1357.718)" fill="#e56e6e"/>
          <path id="Path_101" data-name="Path 101" d="M2375.6,1466.887s-11.84,2.739-13.85,3.559-6.271,6.853-4.581,7.757c1.068.571,5.74-1.9,8.113-2.41s9.091.653,12.166-5.422C2377.8,1469.688,2375.6,1466.887,2375.6,1466.887Z" transform="translate(-2249.069 -1356.19)" fill="#f48f8f"/>
          <path id="Path_102" data-name="Path 102" d="M2156.008,1753.594c-4.592,1.892-10.223,7.763-12.519,9.427s-17.5,1.072-17.982.051c-1.29-2.7,4.026-4.621,7.4-6.176.05-.022.1-.047.148-.07l.011-.007.476-.156s6.557,2.34,12.007,0c4.253-1.823,10.556-8.588,14.716-11.338C2161.229,1748.463,2160.171,1751.875,2156.008,1753.594Z" transform="translate(-2125.309 -1505.06)" fill="#45453c"/>
          <path id="Path_103" data-name="Path 103" d="M2220.276,1697.736c-2.289,4.413-2.8,12.529-3.484,15.283s-12.675,12.108-13.706,11.639c-2.624-1.184-.117-5.755,1.485-9.1a7.447,7.447,0,0,0,3.662-1.362c3-2,8.083-9.537,8.538-13.987.371-3.625.138-8.821,2.151-11.011C2221.181,1691.062,2222.158,1694.106,2220.276,1697.736Z" transform="translate(-2166.283 -1475.053)" fill="#36362c"/>
          <g id="Group_34" data-name="Group 34" transform="translate(44.179 84.964)">
            <g id="Group_33" data-name="Group 33">
              <path id="Path_104" data-name="Path 104" d="M2287.334,1450.169h-51.574l-15.514-38.58h51.494Z" transform="translate(-2220.247 -1411.589)" fill="#bdd0fb"/>
              <path id="Path_105" data-name="Path 105" d="M2252.287,1491.265h68.1v1.5h-67.5Z" transform="translate(-2237.378 -1454.188)" fill="#bdd0fb"/>
            </g>
            <path id="Path_106" data-name="Path 106" d="M2281.449,1450.22a1.787,1.787,0,0,1,1.752-2.456,3.518,3.518,0,0,1,3.159,2.456,1.787,1.787,0,0,1-1.751,2.456A3.518,3.518,0,0,1,2281.449,1450.22Z" transform="translate(-2252.916 -1430.93)" fill="#fff"/>
          </g>
          <path id="Path_107" data-name="Path 107" d="M2440.275,1476.82a82.07,82.07,0,0,1-5.942,9.762c-16.529-.618-20.515-7.3-20.515-7.3Z" transform="translate(-2279.563 -1361.501)" fill="#5a7de0"/>
          <path id="Path_108" data-name="Path 108" d="M2415.477,1417.919s18.871-4.331,21.215-8.388,5.628-31.07,5.628-31.07l7.874,10.092L2448.6,1412.3s-8.982,8.886-9.563,8.563S2415.477,1417.919,2415.477,1417.919Z" transform="translate(-2280.449 -1308.913)" fill="#5a7de0"/>
          <path id="Path_109" data-name="Path 109" d="M2447.915,1337.758s4.471,2.249,6.2,5.4c3.279,6,6.783,52.441-2.54,60.115s-36.378,6.144-39.562.71c0,0-.221-5.094,1.607-7.832,0,0,24.358-3.218,25.445-4.752s-.788-34.441.363-37.43S2447.915,1337.758,2447.915,1337.758Z" transform="translate(-2278.593 -1287.151)" fill="#739af0"/>
        </g>
      </g>
      <path id="Path_110" data-name="Path 110" d="M2381.586,1477.463s-7.03,6.588-36.453,7.534c-23.006.74-47.238,10.014-58.559,25.944-3.157,4.442-5.338,11.761-6.174,16.689-1.536,9.055,55.84,23.132,56.762,21.818s37.791-32.988,37.791-32.988Z" transform="translate(-2174.434 -1361.845)" fill="#1aa2ba"/>
    </g>
  </g>
</svg>
