<svg xmlns="http://www.w3.org/2000/svg" xmlns:xlink="http://www.w3.org/1999/xlink" width="536" height="549" viewBox="0 0 536 549">
  <defs>
    <clipPath id="clip-path">
      <rect id="Rectangle_180" data-name="Rectangle 180" width="536" height="549" transform="translate(1762 1715)" fill="#fff" opacity="0.3"/>
    </clipPath>
    <clipPath id="clip-path-2">
      <path id="Path_100" data-name="Path 100" d="M384.743,164.624l-34.774-20.076c-2.472-1.429-2.163-3.922.693-5.569L384.048,119.7c2.855-1.647,7.175-1.826,9.646-.4l34.774,20.076c2.472,1.427,2.161,3.922-.693,5.569l-33.387,19.277C391.534,165.872,387.214,166.051,384.743,164.624Z" transform="translate(-348.3 -118.34)" fill="none"/>
    </clipPath>
    <clipPath id="clip-path-3">
      <path id="Path_138" data-name="Path 138" d="M327.942,199.907l-34.774-20.076c-2.472-1.429-2.163-3.922.693-5.569l33.387-19.277c2.855-1.647,7.173-1.826,9.646-.4l34.772,20.076c2.474,1.429,2.163,3.922-.693,5.569l-33.387,19.277C334.733,201.155,330.413,201.334,327.942,199.907Z" transform="translate(-291.499 -153.623)" fill="#6a059a"/>
    </clipPath>
    <clipPath id="clip-path-4">
      <path id="Path_175" data-name="Path 175" d="M440.541,199.544l-34.772-20.076c-2.474-1.429-2.163-3.922.693-5.571l33.387-19.275c2.855-1.647,7.173-1.826,9.646-.4L484.267,174.3c2.474,1.427,2.163,3.92-.693,5.569l-33.387,19.277C447.332,200.792,443.015,200.971,440.541,199.544Z" transform="translate(-404.099 -153.26)" fill="none"/>
    </clipPath>
    <clipPath id="clip-path-5">
      <path id="Path_214" data-name="Path 214" d="M383.74,234.827l-34.772-20.076c-2.474-1.429-2.163-3.922.691-5.569l33.389-19.277c2.853-1.647,7.173-1.826,9.644-.4l34.774,20.076c2.472,1.429,2.163,3.922-.693,5.569l-33.387,19.277C390.531,236.075,386.214,236.254,383.74,234.827Z" transform="translate(-347.298 -188.543)" fill="none"/>
    </clipPath>
  </defs>
  <g id="Mask_Group_22" data-name="Mask Group 22" transform="translate(-1762 -1715)" clip-path="url(#clip-path)">
    <g id="Group_576" data-name="Group 576">
      <circle id="Ellipse_2050" data-name="Ellipse 2050" cx="57.5" cy="57.5" r="57.5" transform="translate(1872 1848)" fill="#f89f1b"/>
      <circle id="Ellipse_2051" data-name="Ellipse 2051" cx="57.5" cy="57.5" r="57.5" transform="translate(1902 1998)" fill="#f89f1b"/>
      <circle id="Ellipse_2052" data-name="Ellipse 2052" cx="49.5" cy="49.5" r="49.5" transform="translate(2141 1998)" fill="#f89f1b"/>
      <g id="Ellipse_32" data-name="Ellipse 32" transform="translate(1992.994 1744) rotate(25)" fill="none" stroke="#18a7c3" stroke-width="2">
        <ellipse cx="128.298" cy="212.303" rx="128.298" ry="212.303" stroke="none"/>
        <ellipse cx="128.298" cy="212.303" rx="127.298" ry="211.303" fill="none"/>
      </g>
      <g id="Group_388" data-name="Group 388" transform="translate(1544.916 191.048)">
        <g id="Group_430" data-name="Group 430" transform="translate(242.759 1523.952)">
          <g id="Group_5" data-name="Group 5" transform="translate(18.431 267.334)" opacity="0.3">
            <g id="Group_4" data-name="Group 4" transform="translate(0)">
              <path id="Path_13" data-name="Path 13" d="M432.658,284.214a12.334,12.334,0,0,1-6.028-1.523l-63.617-36.73c-1.828-1.055-2.877-2.521-2.877-4.02a3.823,3.823,0,0,1,2.169-3.273l14.859-8.578c2.822-1.633,7.56-1.454,10.784.407l63.617,36.73c1.826,1.055,2.877,2.521,2.877,4.02a3.825,3.825,0,0,1-2.169,3.273l-14.859,8.58A9.656,9.656,0,0,1,432.658,284.214ZM381.9,230.832a7.8,7.8,0,0,0-3.81.858l-14.859,8.578a2.12,2.12,0,0,0-1.246,1.675c0,.809.73,1.716,1.952,2.421l63.617,36.728c2.613,1.509,6.706,1.694,8.94.409l14.859-8.578a2.122,2.122,0,0,0,1.244-1.675c0-.811-.73-1.716-1.952-2.42L387.028,232.1A10.613,10.613,0,0,0,381.9,230.832Z" transform="translate(-157.675 -128.077)" fill="#065564"/>
              <path id="Path_14" data-name="Path 14" d="M501.963,266.571a12.325,12.325,0,0,1-6.029-1.525L464.322,246.8c-1.828-1.057-2.877-2.523-2.877-4.02a3.822,3.822,0,0,1,2.169-3.273l9.749-5.628c2.822-1.633,7.559-1.454,10.784.409l31.612,18.252c1.828,1.055,2.877,2.521,2.877,4.02a3.823,3.823,0,0,1-2.169,3.272l-9.749,5.626A9.643,9.643,0,0,1,501.963,266.571Zm-23.872-31.954a7.787,7.787,0,0,0-3.806.858l-9.749,5.626a2.118,2.118,0,0,0-1.244,1.675c0,.811.73,1.716,1.952,2.42l31.61,18.252c2.617,1.511,6.71,1.7,8.94.409l9.749-5.628a2.118,2.118,0,0,0,1.244-1.673c0-.811-.73-1.716-1.952-2.422l-31.61-18.25A10.608,10.608,0,0,0,478.091,234.617Z" transform="translate(-104.884 -114.574)" fill="#065564"/>
              <path id="Path_15" data-name="Path 15" d="M406.233,431.422a9.278,9.278,0,0,1-4.678-1.173L249.58,339.664a3.542,3.542,0,0,1,0-6.534L520.807,171.466a9.921,9.921,0,0,1,9.358,0l61.383,36.588a3.542,3.542,0,0,1,0,6.536l-54.72,32.616a9.918,9.918,0,0,1-9.357,0l-28-16.687a8.465,8.465,0,0,0-7.755,0l-91.941,54.8a1.909,1.909,0,0,0,0,3.663l147.9,88.154a8.478,8.478,0,0,0,7.753,0L710.648,284.62a1.911,1.911,0,0,0,0-3.665l-77.177-46a8.465,8.465,0,0,0-7.755,0l-89.461,53.322a1.911,1.911,0,0,0,0,3.665L575.4,315.275l-.8,1.435-39.146-23.332a3.543,3.543,0,0,1,0-6.536l89.462-53.322a9.923,9.923,0,0,1,9.357,0l77.179,46a3.545,3.545,0,0,1,0,6.538L556.231,378.573a9.922,9.922,0,0,1-9.359,0l-147.9-88.154a3.541,3.541,0,0,1,0-6.534l91.942-54.8a9.928,9.928,0,0,1,9.357,0l28,16.689a8.463,8.463,0,0,0,7.751,0l54.722-32.616a1.911,1.911,0,0,0,0-3.665L529.362,172.9a8.467,8.467,0,0,0-7.753,0L250.382,334.566a1.909,1.909,0,0,0,0,3.663l151.974,90.585a8.476,8.476,0,0,0,7.755,0l37.9-22.594.8,1.435-37.907,22.594A9.285,9.285,0,0,1,406.233,431.422Z" transform="translate(-247.406 -170.293)" fill="#58ddf5"/>
              <path id="Path_16" data-name="Path 16" d="M407.026,330.439l-1.4-.809L299.86,268.566a3.9,3.9,0,0,1,0-7.277l14.415-8.322a11.741,11.741,0,0,1,10.758,0L426.82,311.735a3.9,3.9,0,0,1,0,7.277Zm-87.371-76.922a9.143,9.143,0,0,0-4.457,1.049l-14.414,8.32a2.109,2.109,0,0,0,0,4.081l106.242,61.338L425.9,317.412a2.109,2.109,0,0,0,0-4.079L324.11,254.567A9.129,9.129,0,0,0,319.655,253.518Z" transform="translate(-218.433 -106.118)" fill="#065564"/>
              <path id="Path_20" data-name="Path 20" d="M478.606,235.194a12.333,12.333,0,0,1-6.031-1.525l-8.33-4.809c-1.828-1.055-2.877-2.519-2.877-4.018a3.825,3.825,0,0,1,2.171-3.273l9.747-5.628c2.824-1.629,7.564-1.452,10.784.409l8.332,4.809c1.826,1.055,2.877,2.521,2.877,4.02a3.823,3.823,0,0,1-2.169,3.273l-9.749,5.626A9.643,9.643,0,0,1,478.606,235.194Zm-.59-18.51a7.806,7.806,0,0,0-3.808.854l-9.749,5.628a2.124,2.124,0,0,0-1.244,1.675c0,.809.73,1.714,1.952,2.42l8.33,4.809c2.617,1.511,6.708,1.7,8.94.409l9.749-5.626a2.125,2.125,0,0,0,1.244-1.675c0-.811-.73-1.716-1.952-2.42l-8.332-4.811A10.606,10.606,0,0,0,478.016,216.685Z" transform="translate(-104.958 -131.93)" fill="#065564"/>
              <path id="Path_21" data-name="Path 21" d="M463.114,244.138a12.352,12.352,0,0,1-6.031-1.521l-8.33-4.811c-1.828-1.055-2.877-2.521-2.877-4.02a3.826,3.826,0,0,1,2.169-3.273l9.749-5.628c2.824-1.627,7.562-1.45,10.784.409l8.33,4.809c1.828,1.055,2.877,2.523,2.877,4.02a3.823,3.823,0,0,1-2.169,3.273l-9.747,5.628A9.653,9.653,0,0,1,463.114,244.138Zm-.59-18.512a7.836,7.836,0,0,0-3.81.856l-9.747,5.63a2.12,2.12,0,0,0-1.246,1.673c0,.811.73,1.718,1.954,2.422l8.33,4.809c2.617,1.509,6.708,1.7,8.94.407l9.747-5.626a2.123,2.123,0,0,0,1.246-1.675c0-.811-.73-1.716-1.952-2.42l-8.332-4.809A10.586,10.586,0,0,0,462.524,225.626Z" transform="translate(-119.952 -123.272)" fill="#065564"/>
              <path id="Path_22" data-name="Path 22" d="M447.62,253.085a12.324,12.324,0,0,1-6.029-1.523l-8.33-4.809c-1.828-1.055-2.877-2.521-2.877-4.022a3.821,3.821,0,0,1,2.167-3.271l9.749-5.63c2.826-1.633,7.564-1.45,10.786.409l8.33,4.811c1.828,1.055,2.877,2.521,2.877,4.022a3.82,3.82,0,0,1-2.169,3.271l-9.747,5.626A9.661,9.661,0,0,1,447.62,253.085Zm-.588-18.514a7.815,7.815,0,0,0-3.81.858l-9.749,5.628a2.118,2.118,0,0,0-1.244,1.673c0,.811.73,1.718,1.952,2.422l8.332,4.811c2.615,1.507,6.708,1.7,8.94.407l9.747-5.628a2.12,2.12,0,0,0,1.246-1.673c0-.809-.73-1.716-1.952-2.422l-8.332-4.809A10.587,10.587,0,0,0,447.032,234.571Z" transform="translate(-134.946 -114.617)" fill="#065564"/>
              <path id="Path_23" data-name="Path 23" d="M494.175,244.184a12.346,12.346,0,0,1-6.029-1.523l-8.332-4.811c-1.826-1.055-2.877-2.521-2.877-4.02a3.825,3.825,0,0,1,2.171-3.273l9.747-5.626c2.822-1.633,7.56-1.454,10.786.407l8.33,4.809c1.828,1.055,2.877,2.523,2.877,4.022a3.822,3.822,0,0,1-2.171,3.271l-9.747,5.63A9.644,9.644,0,0,1,494.175,244.184Zm-.588-18.512a7.8,7.8,0,0,0-3.81.856l-9.747,5.628a2.123,2.123,0,0,0-1.246,1.673c0,.813.73,1.716,1.952,2.422l8.332,4.809c2.617,1.513,6.708,1.694,8.938.409l9.749-5.628A2.118,2.118,0,0,0,509,234.168c0-.809-.73-1.716-1.952-2.42l-8.33-4.811A10.627,10.627,0,0,0,493.587,225.673Z" transform="translate(-89.89 -123.231)" fill="#065564"/>
              <path id="Path_24" data-name="Path 24" d="M463.191,262.071a12.327,12.327,0,0,1-6.031-1.523l-8.33-4.809c-1.828-1.053-2.877-2.519-2.877-4.018a3.828,3.828,0,0,1,2.169-3.275l9.749-5.626c2.824-1.631,7.563-1.454,10.784.409l8.332,4.809c1.826,1.055,2.875,2.521,2.875,4.02a3.823,3.823,0,0,1-2.169,3.273l-9.747,5.626A9.67,9.67,0,0,1,463.191,262.071Zm-.59-18.512a7.82,7.82,0,0,0-3.81.858l-9.749,5.628a2.119,2.119,0,0,0-1.242,1.675c0,.809.73,1.714,1.952,2.418l8.33,4.811c2.615,1.509,6.708,1.694,8.94.409l9.747-5.626a2.128,2.128,0,0,0,1.244-1.675c0-.811-.728-1.716-1.95-2.422l-8.332-4.809A10.586,10.586,0,0,0,462.6,243.559Z" transform="translate(-119.878 -105.916)" fill="#065564"/>
            </g>
          </g>
          <g id="Group_6" data-name="Group 6" transform="translate(3.949 275.957)">
            <path id="Path_28" data-name="Path 28" d="M481.315,451.167c-5.246,0-10.26-1.061-14-3.219L255.767,325.811c-3.788-2.186-5.874-5.26-5.874-8.653,0-4.024,2.954-8.039,8.11-11.014L465.07,186.593c9.469-5.465,23.866-6.045,32.1-1.289L708.716,307.437c3.788,2.188,5.876,5.262,5.876,8.655,0,4.026-2.956,8.041-8.109,11.014L499.413,446.657A37.182,37.182,0,0,1,481.315,451.167ZM468.3,446.244c7.69,4.437,21.21,3.859,30.132-1.289L705.5,325.4c4.528-2.615,7.126-6.01,7.126-9.312,0-2.661-1.738-5.13-4.892-6.953L496.188,187.006c-7.69-4.44-21.208-3.859-30.134,1.289L258.986,307.846c-4.53,2.615-7.126,6.01-7.126,9.312,0,2.661,1.736,5.128,4.89,6.95Z" transform="translate(-249.893 -182.083)" fill="#58ddf5"/>
          </g>
          <g id="Group_7" data-name="Group 7" transform="translate(0 271.997)" opacity="0.3">
            <path id="Path_33" data-name="Path 33" d="M483.295,457.074c-5.939,0-11.648-1.24-16.012-3.759L255.736,331.18c-5.061-2.924-7.85-7.212-7.85-12.075,0-5.473,3.674-10.733,10.083-14.434L465.039,185.12c10.735-6.2,26.57-6.763,36.051-1.291L712.632,305.964c5.063,2.922,7.85,7.212,7.852,12.075,0,5.473-3.676,10.735-10.085,14.436L503.329,452.026A40.981,40.981,0,0,1,483.295,457.074Zm-11.081-12.3c6.492,3.749,18.482,3.158,26.184-1.289l207.07-119.551c3.8-2.194,5.15-4.546,5.15-5.89,0-1.61-1.828-2.9-2.916-3.532L496.157,192.374c-6.49-3.747-18.478-3.158-26.186,1.291L262.9,313.214c-3.8,2.2-5.152,4.546-5.152,5.892,0,1.606,1.828,2.9,2.918,3.53Z" transform="translate(-247.886 -180.071)" fill="#6ee8fc"/>
          </g>
          <g id="Group_92" data-name="Group 92" transform="translate(36.616 0)">
            <g id="Group_70" data-name="Group 70" transform="translate(111.778)">
              <g id="Group_68" data-name="Group 68" transform="translate(0 130.343)">
                <path id="Path_86" data-name="Path 86" d="M398.105,278.123,333.638,240.9c-4.585-2.647-4.008-7.269,1.283-10.325l61.9-35.736c5.292-3.056,13.3-3.389,17.882-.742l64.469,37.22c4.583,2.647,4.008,7.269-1.283,10.325l-61.9,35.736C410.7,280.437,402.69,280.77,398.105,278.123Z" transform="translate(-316.28 -26.569)" fill="#58ddf5" opacity="0.3"/>
                <path id="Path_87" data-name="Path 87" d="M412.791,292.651a19.433,19.433,0,0,1-9.526-2.19l-75.943-43.846c-2.6-1.5-4.026-3.607-4.026-5.941,0-2.759,2.017-5.508,5.538-7.541l72.915-42.1c6.435-3.709,16.229-4.105,21.83-.872l75.941,43.846c2.6,1.5,4.026,3.609,4.026,5.941,0,2.759-2.019,5.508-5.539,7.541l-72.915,42.1A25.264,25.264,0,0,1,412.791,292.651Zm-8.767-3.509c5.183,2.989,14.289,2.6,20.306-.872l72.913-42.1c3.036-1.755,4.778-4.022,4.778-6.222,0-1.765-1.161-3.406-3.265-4.622l-75.941-43.846c-5.183-2.991-14.293-2.6-20.306.872l-72.915,42.1c-3.036,1.755-4.778,4.022-4.778,6.222,0,1.765,1.161,3.406,3.265,4.622Z" transform="translate(-323.295 -30.769)" fill="#58ddf5"/>
                <path id="Path_88" data-name="Path 88" d="M482.261,141.329H450.287L414.7,120.781c-4.583-2.647-12.59-2.314-17.882.742l-34.308,19.806H330.551V233.84h.01c-.13,1.791.87,3.519,3.072,4.79L398.1,275.852c4.585,2.647,12.59,2.314,17.884-.742l61.9-35.736c2.749-1.588,4.213-3.6,4.355-5.534h.024Z" transform="translate(-316.274 -97.531)" fill="#58ddf5"/>
                <path id="Path_89" data-name="Path 89" d="M477.882,182.137l-61.9,35.736c-5.294,3.056-13.3,3.389-17.884.742l-64.467-37.22c-2.2-1.273-3.2-3-3.072-4.792h-.01v1.48h.01c-.13,1.791.87,3.519,3.072,4.79L398.1,220.095c4.585,2.647,12.59,2.314,17.884-.742l61.9-35.736c2.749-1.588,4.213-3.6,4.355-5.534h.024V176.6h-.024C482.1,178.539,480.631,180.549,477.882,182.137Z" transform="translate(-316.274 -41.774)" fill="#18a7c3"/>
                <path id="Path_90" data-name="Path 90" d="M332.579,235.32h-.012V142.809h31.956L398.831,123c5.294-3.056,13.3-3.389,17.884-.742l35.591,20.548h29.955v-1.48H450.287L414.7,120.781c-4.583-2.647-12.59-2.314-17.882.742l-34.308,19.806H330.551V233.84h.01c-.13,1.791.87,3.519,3.072,4.79l.362.211A4.49,4.49,0,0,1,332.579,235.32Z" transform="translate(-316.274 -97.531)" fill="#18a7c3"/>
                <path id="Path_91" data-name="Path 91" d="M407.483,131.957v92.4h-.024a5.67,5.67,0,0,1-1.525,3.273c2.094-1.468,3.218-3.2,3.341-4.886h.024v-92.29A9.441,9.441,0,0,0,407.483,131.957Z" transform="translate(-243.312 -86.437)" fill="#18a7c3"/>
                <path id="Path_92" data-name="Path 92" d="M398.105,193.9l-64.467-37.22c-4.585-2.647-4.008-7.269,1.283-10.325l61.9-35.736c5.292-3.056,13.3-3.389,17.882-.742L479.171,147.1c4.583,2.647,4.008,7.269-1.283,10.323l-61.9,35.738C410.7,196.213,402.69,196.544,398.105,193.9Z" transform="translate(-316.28 -108.087)" fill="#58ddf5"/>
                <path id="Path_93" data-name="Path 93" d="M442.743,147.092,378.274,109.87a16.655,16.655,0,0,0-9.025-1.744,14.981,14.981,0,0,1,6.5,1.744l64.469,37.222c4.583,2.647,4.008,7.269-1.283,10.323l-61.9,35.738a20.377,20.377,0,0,1-8.857,2.483,21.035,21.035,0,0,0,11.38-2.483l61.9-35.738C446.752,154.361,447.326,149.739,442.743,147.092Z" transform="translate(-279.852 -108.084)" fill="#18a7c3"/>
                <path id="Path_94" data-name="Path 94" d="M390.694,177.66l-48-27.711c-3.414-1.97-2.985-5.412.954-7.686l46.083-26.607c3.942-2.275,9.9-2.521,13.314-.551l48,27.711c3.412,1.97,2.985,5.412-.956,7.686l-46.081,26.605C400.066,179.382,394.106,179.63,390.694,177.66Z" transform="translate(-306.747 -102.583)" fill="#18a7c3"/>
                <path id="Path_95" data-name="Path 95" d="M384.743,164.624l-34.774-20.076c-2.472-1.429-2.163-3.922.693-5.569L384.048,119.7c2.855-1.647,7.175-1.826,9.646-.4l34.774,20.076c2.472,1.427,2.161,3.922-.693,5.569l-33.387,19.277C391.534,165.872,387.214,166.051,384.743,164.624Z" transform="translate(-299.094 -98.164)" fill="#0f505c"/>
                <path id="Path_96" data-name="Path 96" d="M401,193.9l-64.469-37.22c-4.583-2.647-4.009-7.269,1.285-10.325l61.9-35.736a20.369,20.369,0,0,1,8.718-2.476,21.079,21.079,0,0,0-11.608,2.476l-61.9,35.736c-5.292,3.056-5.866,7.679-1.283,10.325L398.1,193.9a16.721,16.721,0,0,0,9.168,1.734A14.763,14.763,0,0,1,401,193.9Z" transform="translate(-316.279 -108.087)" fill="#18a7c3"/>
                <g id="Group_65" data-name="Group 65" transform="translate(49.206 20.175)">
                  <g id="Group_64" data-name="Group 64" clip-path="url(#clip-path-2)">
                    <path id="Path_97" data-name="Path 97" d="M350.647,141.7l33.4-19.285c2.857-1.647,7.177-1.826,9.65-.4L428.481,142.1a3.676,3.676,0,0,1,1.216,1.094c.834-1.364.474-2.834-1.216-3.81L393.7,119.3c-2.474-1.429-6.793-1.25-9.65.4l-33.4,19.283c-2.224,1.283-2.881,3.072-1.909,4.479A5.247,5.247,0,0,1,350.647,141.7Z" transform="translate(-348.299 -118.344)" fill="#bcf1fe"/>
                    <path id="Path_98" data-name="Path 98" d="M350.644,143.638l33.4-19.283c2.857-1.649,7.177-1.828,9.65-.4l34.786,20.084a3.87,3.87,0,0,1,1.017.85c1.1-1.444.8-3.074-1.017-4.127l-34.786-20.084c-2.474-1.427-6.793-1.248-9.65.4l-33.4,19.285c-2.354,1.358-2.948,3.282-1.71,4.719A5.731,5.731,0,0,1,350.644,143.638Z" transform="translate(-348.296 -117.008)" fill="#88dfef"/>
                    <path id="Path_99" data-name="Path 99" d="M349.277,147.1a6.151,6.151,0,0,1,1.374-1.076l33.4-19.283c2.857-1.649,7.177-1.828,9.65-.4l34.786,20.084a4.206,4.206,0,0,1,.681.5c1.466-1.529,1.3-3.351-.681-4.495L393.7,122.344c-2.474-1.429-6.793-1.25-9.65.4l-33.4,19.283C348.1,143.5,347.594,145.644,349.277,147.1Z" transform="translate(-348.302 -115.397)" fill="#50b7ce"/>
                  </g>
                </g>
                <g id="Group_66" data-name="Group 66" transform="translate(107.114 76.583)">
                  <path id="Path_101" data-name="Path 101" d="M382.965,213.166l-3.574,2.062c-.919.531-1.665-.031-1.665-1.259V164.045a4,4,0,0,1,1.665-3.184l3.574-2.062c.921-.531,1.667.031,1.667,1.259v49.925A3.991,3.991,0,0,1,382.965,213.166Z" transform="translate(-377.727 -135.782)" fill="#18a7c3"/>
                  <path id="Path_102" data-name="Path 102" d="M382.965,158.8l-.856.494v49.023a3.988,3.988,0,0,1-1.667,3.184l-2.716,1.568v.9c0,1.228.746,1.791,1.665,1.259l3.574-2.062a3.988,3.988,0,0,0,1.667-3.184V160.058C384.632,158.83,383.886,158.267,382.965,158.8Z" transform="translate(-377.727 -135.782)" fill="#fff"/>
                  <path id="Path_103" data-name="Path 103" d="M389.659,209.3l-3.574,2.064c-.919.531-1.665-.033-1.665-1.261V160.18A4,4,0,0,1,386.086,157l3.574-2.062c.921-.531,1.667.033,1.667,1.259v49.924A3.988,3.988,0,0,1,389.659,209.3Z" transform="translate(-371.248 -139.523)" fill="#18a7c3"/>
                  <path id="Path_104" data-name="Path 104" d="M396.353,205.436,392.78,207.5c-.919.531-1.665-.033-1.665-1.259V156.317a3.992,3.992,0,0,1,1.665-3.184l3.574-2.064c.921-.531,1.667.033,1.667,1.259v49.924A3.988,3.988,0,0,1,396.353,205.436Z" transform="translate(-364.769 -143.264)" fill="#18a7c3"/>
                  <path id="Path_105" data-name="Path 105" d="M403.048,201.573l-3.574,2.062c-.919.531-1.667-.033-1.667-1.259V152.451a3.993,3.993,0,0,1,1.667-3.184l3.574-2.064c.921-.529,1.667.033,1.667,1.261v49.924A3.991,3.991,0,0,1,403.048,201.573Z" transform="translate(-358.291 -147.004)" fill="#18a7c3"/>
                  <path id="Path_106" data-name="Path 106" d="M389.659,154.933l-.856.494v49.025a3.994,3.994,0,0,1-1.667,3.184l-2.716,1.568v.9c0,1.228.746,1.793,1.665,1.261l3.574-2.064a3.988,3.988,0,0,0,1.667-3.184V156.193C391.326,154.967,390.58,154.4,389.659,154.933Z" transform="translate(-371.248 -139.523)" fill="#fff"/>
                  <path id="Path_107" data-name="Path 107" d="M396.353,151.068l-.856.494v49.025a3.991,3.991,0,0,1-1.667,3.184l-2.716,1.568v.9c0,1.226.746,1.791,1.665,1.259l3.574-2.064a3.988,3.988,0,0,0,1.667-3.184V152.328C398.02,151.1,397.274,150.537,396.353,151.068Z" transform="translate(-364.769 -143.264)" fill="#fff"/>
                  <path id="Path_108" data-name="Path 108" d="M403.048,147.2l-.856.5v49.023a3.988,3.988,0,0,1-1.667,3.184l-2.718,1.568v.9c0,1.226.748,1.791,1.667,1.259l3.574-2.062a3.991,3.991,0,0,0,1.667-3.184V148.464C404.715,147.236,403.969,146.674,403.048,147.2Z" transform="translate(-358.291 -147.004)" fill="#fff"/>
                </g>
                <path id="Path_109" data-name="Path 109" d="M387.136,232.909a2.641,2.641,0,0,1-1.313-.386l-46.557-26.881a6.742,6.742,0,0,1-2.881-5.453V147.36a2.842,2.842,0,0,1,1.173-2.584,2.213,2.213,0,0,1,2.255.14L386.37,171.8a6.757,6.757,0,0,1,2.881,5.455v52.829a2.837,2.837,0,0,1-1.175,2.582A1.873,1.873,0,0,1,387.136,232.909ZM338.5,145.623a.785.785,0,0,0-.4.1,1.844,1.844,0,0,0-.628,1.633v52.829a5.728,5.728,0,0,0,2.332,4.5l46.561,26.881a1.19,1.19,0,0,0,1.157.138,1.849,1.849,0,0,0,.626-1.633V177.25a5.74,5.74,0,0,0-2.332-4.506l-46.557-26.879A1.611,1.611,0,0,0,338.5,145.623Z" transform="translate(-310.626 -72.816)" fill="#18a7c3"/>
                <g id="Group_67" data-name="Group 67" transform="translate(30.333 80.661)">
                  <path id="Path_110" data-name="Path 110" d="M343.241,153.311c0,1.444-1.013,2.031-2.265,1.309a5.009,5.009,0,0,1-2.267-3.926c0-1.444,1.015-2.031,2.267-1.307A5.006,5.006,0,0,1,343.241,153.311Z" transform="translate(-338.709 -149.076)" fill="#18a7c3"/>
                  <path id="Path_111" data-name="Path 111" d="M343.241,157.047c0,1.444-1.013,2.031-2.265,1.309a5.009,5.009,0,0,1-2.267-3.926c0-1.444,1.015-2.031,2.267-1.309A5.007,5.007,0,0,1,343.241,157.047Z" transform="translate(-338.709 -145.461)" fill="#18a7c3"/>
                  <path id="Path_112" data-name="Path 112" d="M343.241,160.783c0,1.444-1.013,2.031-2.265,1.307a5.008,5.008,0,0,1-2.267-3.924c0-1.446,1.015-2.031,2.267-1.309A5.007,5.007,0,0,1,343.241,160.783Z" transform="translate(-338.709 -141.845)" fill="#18a7c3"/>
                  <path id="Path_113" data-name="Path 113" d="M342.111,161.188a5,5,0,0,1-2.267-3.926,2.266,2.266,0,0,1,.112-.708c-.738.006-1.247.586-1.247,1.606a5.008,5.008,0,0,0,2.267,3.924c1.015.588,1.866.3,2.153-.6A2.005,2.005,0,0,1,342.111,161.188Z" transform="translate(-338.709 -141.839)" fill="#fff"/>
                  <path id="Path_114" data-name="Path 114" d="M342.111,157.45a5,5,0,0,1-2.267-3.926,2.267,2.267,0,0,1,.112-.708c-.738.006-1.247.584-1.247,1.606a5.008,5.008,0,0,0,2.267,3.924c1.015.588,1.866.3,2.153-.6A2.006,2.006,0,0,1,342.111,157.45Z" transform="translate(-338.709 -145.457)" fill="#fff"/>
                  <path id="Path_115" data-name="Path 115" d="M342.111,153.712a5,5,0,0,1-2.267-3.926,2.257,2.257,0,0,1,.112-.708c-.738.006-1.247.584-1.247,1.606a5.008,5.008,0,0,0,2.267,3.924c1.015.586,1.866.3,2.153-.6A2.006,2.006,0,0,1,342.111,153.712Z" transform="translate(-338.709 -149.075)" fill="#fff"/>
                </g>
                <path id="Path_116" data-name="Path 116" d="M361.2,181.167l-1.5-.866a2.023,2.023,0,0,1-.844-1.614v-7.2c0-.622.378-.907.844-.64l1.5.868a2.016,2.016,0,0,1,.844,1.612v7.206C362.04,181.149,361.662,181.434,361.2,181.167Z" transform="translate(-288.881 -47.445)" fill="#18a7c3"/>
              </g>
              <g id="Group_69" data-name="Group 69" transform="translate(65.744 27.869)">
                <path id="Path_119" data-name="Path 119" d="M363.793,124.515a3.044,3.044,0,1,1-3.044-3.044A3.045,3.045,0,0,1,363.793,124.515Z" transform="translate(-357.704 -4.835)" fill="#1091aa"/>
                <circle id="Ellipse_5" data-name="Ellipse 5" cx="5.2" cy="5.2" r="5.2" transform="translate(22.769 106.235)" fill="#1091aa"/>
                <path id="Path_120" data-name="Path 120" d="M369.655,111.614a1.336,1.336,0,1,1-1.336-1.336A1.336,1.336,0,0,1,369.655,111.614Z" transform="translate(-346.755 -3.492)" fill="#1091aa"/>
                <circle id="Ellipse_6" data-name="Ellipse 6" cx="2.6" cy="2.6" r="2.6" transform="translate(41.667 79.41)" fill="#1091aa"/>
                <circle id="Ellipse_7" data-name="Ellipse 7" cx="1.839" cy="1.839" r="1.839" transform="translate(28.73 58.102)" fill="#1091aa"/>
                <path id="Path_121" data-name="Path 121" d="M365.768,80.956a3.332,3.332,0,1,1-3.332-3.33A3.332,3.332,0,0,1,365.768,80.956Z" transform="translate(-354.38 -35.095)" fill="#1091aa"/>
                <circle id="Ellipse_8" data-name="Ellipse 8" cx="1.856" cy="1.856" r="1.856" transform="translate(15.971 16.133)" fill="#1091aa"/>
                <circle id="Ellipse_9" data-name="Ellipse 9" cx="2.186" cy="2.186" r="2.186" transform="translate(29.672 28.17)" fill="#1091aa"/>
                <path id="Path_122" data-name="Path 122" d="M375.871,69.639a1.057,1.057,0,1,1-1.057-1.057A1.057,1.057,0,0,1,375.871,69.639Z" transform="translate(-340.198 -43.848)" fill="#1091aa"/>
                <path id="Path_123" data-name="Path 123" d="M384.816,59.067a3.055,3.055,0,1,1-3.054-3.054A3.055,3.055,0,0,1,384.816,59.067Z" transform="translate(-335.409 -56.013)" fill="#1091aa"/>
              </g>
            </g>
            <g id="Group_77" data-name="Group 77" transform="translate(0 86.054)">
              <g id="Group_75" data-name="Group 75" transform="translate(0 113.721)">
                <path id="Path_124" data-name="Path 124" d="M341.3,313.406l-64.469-37.22c-4.583-2.647-4.008-7.269,1.285-10.325l61.9-35.736c5.294-3.056,13.3-3.389,17.884-.742L422.37,266.6c4.583,2.647,4.009,7.269-1.285,10.325l-61.9,35.736C353.895,315.72,345.888,316.053,341.3,313.406Z" transform="translate(-259.477 -61.852)" fill="#58ddf5" opacity="0.3"/>
                <path id="Path_125" data-name="Path 125" d="M355.991,327.934a19.435,19.435,0,0,1-9.528-2.19L270.521,281.9c-2.6-1.5-4.026-3.607-4.028-5.941,0-2.759,2.019-5.508,5.54-7.541l72.915-42.1c6.433-3.715,16.225-4.107,21.828-.874l75.943,43.846c2.6,1.5,4.026,3.609,4.026,5.941,0,2.759-2.019,5.508-5.539,7.541l-72.915,42.1A25.294,25.294,0,0,1,355.991,327.934Zm-8.767-3.509c5.179,2.989,14.287,2.6,20.3-.872l72.917-42.1c3.036-1.753,4.776-4.022,4.776-6.222,0-1.765-1.161-3.406-3.265-4.622l-75.943-43.846c-5.181-2.987-14.287-2.6-20.3.874l-72.915,42.1c-3.036,1.755-4.778,4.022-4.776,6.222,0,1.765,1.157,3.406,3.263,4.622Z" transform="translate(-266.493 -66.053)" fill="#58ddf5"/>
                <path id="Path_126" data-name="Path 126" d="M425.458,176.614H393.486L357.9,156.063c-4.583-2.645-12.59-2.314-17.884.742l-34.306,19.808H273.75v92.509h.01c-.13,1.791.868,3.519,3.07,4.792l64.469,37.22c4.583,2.647,12.59,2.314,17.884-.742l61.9-35.736c2.751-1.588,4.215-3.6,4.355-5.534h.024Z" transform="translate(-259.471 -132.814)" fill="#58ddf5"/>
                <path id="Path_127" data-name="Path 127" d="M421.079,217.42l-61.9,35.736c-5.294,3.056-13.3,3.389-17.884.742l-64.469-37.22c-2.2-1.271-3.2-3-3.07-4.792h-.01v1.48h.01c-.13,1.791.868,3.519,3.07,4.792l64.469,37.22c4.583,2.647,12.59,2.314,17.884-.742l61.9-35.736c2.751-1.588,4.215-3.6,4.355-5.534h.024v-1.48h-.024C425.294,213.822,423.83,215.832,421.079,217.42Z" transform="translate(-259.471 -77.057)" fill="#18a7c3"/>
                <path id="Path_128" data-name="Path 128" d="M275.777,270.6h-.01V178.091h31.956l34.308-19.806c5.292-3.056,13.3-3.389,17.882-.742L395.5,178.091h29.955v-1.478H393.486L357.9,156.063c-4.583-2.645-12.59-2.314-17.884.742l-34.306,19.808H273.75v92.509h.01c-.13,1.791.868,3.519,3.07,4.792l.364.209A4.5,4.5,0,0,1,275.777,270.6Z" transform="translate(-259.471 -132.814)" fill="#18a7c3"/>
                <path id="Path_129" data-name="Path 129" d="M350.682,167.24v92.4h-.024a5.682,5.682,0,0,1-1.525,3.273c2.094-1.468,3.217-3.2,3.339-4.886h.024v-92.29A9.5,9.5,0,0,0,350.682,167.24Z" transform="translate(-186.509 -121.721)" fill="#18a7c3"/>
                <path id="Path_130" data-name="Path 130" d="M341.3,229.18l-64.469-37.22c-4.583-2.647-4.008-7.269,1.285-10.325l61.9-35.736c5.294-3.056,13.3-3.387,17.884-.742l64.469,37.222c4.583,2.647,4.009,7.269-1.285,10.325l-61.9,35.736C353.895,231.5,345.888,231.827,341.3,229.18Z" transform="translate(-259.477 -143.37)" fill="#58ddf5"/>
                <path id="Path_131" data-name="Path 131" d="M385.943,182.375l-64.469-37.222a16.659,16.659,0,0,0-9.025-1.744,14.98,14.98,0,0,1,6.5,1.744l64.469,37.222c4.583,2.647,4.009,7.269-1.285,10.325l-61.9,35.736a20.422,20.422,0,0,1-8.859,2.485,21.058,21.058,0,0,0,11.382-2.485l61.9-35.736C389.952,189.644,390.526,185.022,385.943,182.375Z" transform="translate(-223.05 -143.367)" fill="#18a7c3"/>
                <path id="Path_132" data-name="Path 132" d="M333.893,212.943l-48-27.711c-3.412-1.97-2.983-5.412.956-7.686l46.083-26.605c3.94-2.275,9.9-2.523,13.315-.553l48,27.711c3.412,1.97,2.985,5.412-.956,7.686L347.205,212.39C343.266,214.667,337.3,214.913,333.893,212.943Z" transform="translate(-249.944 -137.866)" fill="#18a7c3"/>
                <path id="Path_133" data-name="Path 133" d="M327.942,199.907l-34.774-20.076c-2.472-1.429-2.163-3.922.693-5.569l33.387-19.277c2.855-1.647,7.173-1.826,9.646-.4l34.772,20.076c2.474,1.429,2.163,3.922-.693,5.569l-33.387,19.277C334.733,201.155,330.413,201.334,327.942,199.907Z" transform="translate(-242.291 -133.448)" fill="#115061"/>
                <path id="Path_134" data-name="Path 134" d="M344.2,229.18l-64.469-37.22c-4.583-2.647-4.008-7.269,1.283-10.325l61.9-35.736a20.369,20.369,0,0,1,8.718-2.476,21.1,21.1,0,0,0-11.61,2.476l-61.9,35.736c-5.294,3.056-5.868,7.679-1.285,10.325L341.3,229.18a16.718,16.718,0,0,0,9.166,1.736A14.791,14.791,0,0,1,344.2,229.18Z" transform="translate(-259.477 -143.37)" fill="#18a7c3"/>
                <g id="Group_72" data-name="Group 72" transform="translate(49.208 20.175)">
                  <g id="Group_71" data-name="Group 71" clip-path="url(#clip-path-3)">
                    <path id="Path_135" data-name="Path 135" d="M293.844,176.982l33.4-19.283c2.855-1.649,7.177-1.828,9.65-.4l34.786,20.084a3.651,3.651,0,0,1,1.214,1.094c.836-1.364.476-2.834-1.214-3.81l-34.786-20.084c-2.474-1.429-6.8-1.25-9.65.4l-33.4,19.283c-2.222,1.283-2.881,3.072-1.907,4.479A5.239,5.239,0,0,1,293.844,176.982Z" transform="translate(-291.498 -153.627)" fill="#bcf1ff"/>
                    <path id="Path_136" data-name="Path 136" d="M293.841,178.921l33.4-19.283c2.855-1.647,7.177-1.828,9.65-.4l34.786,20.084a3.908,3.908,0,0,1,1.017.85c1.1-1.444.8-3.074-1.017-4.127l-34.786-20.084c-2.474-1.427-6.8-1.248-9.65.4l-33.4,19.283c-2.352,1.358-2.946,3.282-1.71,4.719A5.755,5.755,0,0,1,293.841,178.921Z" transform="translate(-291.495 -152.291)" fill="#88dfef"/>
                    <path id="Path_137" data-name="Path 137" d="M292.476,182.387a6.044,6.044,0,0,1,1.372-1.078l33.4-19.283c2.855-1.649,7.177-1.828,9.65-.4l34.786,20.084a4.312,4.312,0,0,1,.679.5c1.468-1.529,1.3-3.351-.679-4.495L336.9,157.627c-2.474-1.429-6.8-1.248-9.65.4l-33.4,19.283C291.3,178.784,290.793,180.926,292.476,182.387Z" transform="translate(-291.501 -150.68)" fill="#42b2c6"/>
                  </g>
                </g>
                <g id="Group_73" data-name="Group 73" transform="translate(107.114 76.583)">
                  <path id="Path_139" data-name="Path 139" d="M326.165,248.449l-3.574,2.062c-.921.531-1.667-.031-1.667-1.259V199.328a3.991,3.991,0,0,1,1.667-3.184l3.574-2.062c.921-.531,1.667.031,1.667,1.259v49.924A3.988,3.988,0,0,1,326.165,248.449Z" transform="translate(-320.925 -171.066)" fill="#18a7c3"/>
                  <path id="Path_140" data-name="Path 140" d="M326.165,194.081l-.856.494V243.6a3.987,3.987,0,0,1-1.667,3.182l-2.718,1.568v.9c0,1.228.746,1.791,1.667,1.259l3.574-2.062a3.988,3.988,0,0,0,1.667-3.184V195.341C327.832,194.113,327.086,193.55,326.165,194.081Z" transform="translate(-320.925 -171.066)" fill="#fff"/>
                  <path id="Path_141" data-name="Path 141" d="M332.859,244.584l-3.574,2.064c-.921.531-1.667-.033-1.667-1.259V195.463a3.987,3.987,0,0,1,1.667-3.182l3.574-2.064c.921-.531,1.667.033,1.667,1.259V241.4A3.988,3.988,0,0,1,332.859,244.584Z" transform="translate(-314.446 -174.807)" fill="#18a7c3"/>
                  <path id="Path_142" data-name="Path 142" d="M339.553,240.719l-3.574,2.064c-.921.531-1.667-.033-1.667-1.259V191.6a3.988,3.988,0,0,1,1.667-3.184l3.574-2.064c.921-.531,1.667.033,1.667,1.261v49.924A3.987,3.987,0,0,1,339.553,240.719Z" transform="translate(-307.967 -178.547)" fill="#18a7c3"/>
                  <path id="Path_143" data-name="Path 143" d="M346.247,236.855l-3.574,2.062c-.921.531-1.667-.031-1.667-1.259V187.734a3.988,3.988,0,0,1,1.667-3.184l3.574-2.062c.919-.531,1.667.031,1.667,1.259v49.924A4,4,0,0,1,346.247,236.855Z" transform="translate(-301.489 -182.287)" fill="#18a7c3"/>
                  <path id="Path_144" data-name="Path 144" d="M332.859,190.216l-.856.494v49.025a3.991,3.991,0,0,1-1.667,3.184l-2.718,1.568v.9c0,1.226.746,1.791,1.667,1.259l3.574-2.064a3.988,3.988,0,0,0,1.667-3.184V191.476C334.526,190.25,333.78,189.685,332.859,190.216Z" transform="translate(-314.446 -174.807)" fill="#fff"/>
                  <path id="Path_145" data-name="Path 145" d="M339.553,186.351l-.856.5V235.87a3.988,3.988,0,0,1-1.667,3.184l-2.718,1.568v.9c0,1.226.746,1.791,1.667,1.259l3.574-2.064a3.993,3.993,0,0,0,1.667-3.182V187.613C341.22,186.385,340.472,185.82,339.553,186.351Z" transform="translate(-307.967 -178.547)" fill="#fff"/>
                  <path id="Path_146" data-name="Path 146" d="M346.247,182.487l-.856.494V232a3.993,3.993,0,0,1-1.667,3.184l-2.718,1.568v.9c0,1.228.746,1.791,1.667,1.259l3.574-2.062a4,4,0,0,0,1.665-3.184V183.747C347.912,182.519,347.166,181.956,346.247,182.487Z" transform="translate(-301.489 -182.287)" fill="#fff"/>
                </g>
                <path id="Path_147" data-name="Path 147" d="M330.331,268.194a2.652,2.652,0,0,1-1.309-.388l-46.559-26.881a6.748,6.748,0,0,1-2.879-5.453V182.643a2.833,2.833,0,0,1,1.175-2.582,2.2,2.2,0,0,1,2.251.138l46.557,26.879a6.751,6.751,0,0,1,2.881,5.455v52.829a2.847,2.847,0,0,1-1.173,2.582A1.864,1.864,0,0,1,330.331,268.194Zm-.764-1.336a1.177,1.177,0,0,0,1.159.138,1.854,1.854,0,0,0,.628-1.633V212.533a5.74,5.74,0,0,0-2.334-4.506l-46.557-26.879a1.194,1.194,0,0,0-1.159-.138,1.849,1.849,0,0,0-.626,1.633v52.829a5.733,5.733,0,0,0,2.332,4.5Z" transform="translate(-253.823 -108.1)" fill="#18a7c3"/>
                <g id="Group_74" data-name="Group 74" transform="translate(30.334 80.66)">
                  <path id="Path_148" data-name="Path 148" d="M286.44,188.594c0,1.446-1.015,2.031-2.267,1.309a5.006,5.006,0,0,1-2.265-3.924c0-1.446,1.014-2.033,2.265-1.309A5.008,5.008,0,0,1,286.44,188.594Z" transform="translate(-281.908 -184.359)" fill="#18a7c3"/>
                  <path id="Path_149" data-name="Path 149" d="M286.44,192.33c0,1.444-1.015,2.031-2.267,1.309a5.007,5.007,0,0,1-2.265-3.926c0-1.444,1.014-2.031,2.265-1.309A5.012,5.012,0,0,1,286.44,192.33Z" transform="translate(-281.908 -180.744)" fill="#18a7c3"/>
                  <path id="Path_150" data-name="Path 150" d="M286.44,196.066c0,1.444-1.015,2.031-2.267,1.309a5.013,5.013,0,0,1-2.265-3.926c0-1.446,1.014-2.031,2.265-1.309A5.009,5.009,0,0,1,286.44,196.066Z" transform="translate(-281.908 -177.128)" fill="#18a7c3"/>
                  <path id="Path_151" data-name="Path 151" d="M285.308,196.471a5.006,5.006,0,0,1-2.265-3.924,2.277,2.277,0,0,1,.112-.71c-.738.006-1.248.586-1.248,1.606a5.013,5.013,0,0,0,2.265,3.926c1.017.586,1.868.3,2.155-.6A2.012,2.012,0,0,1,285.308,196.471Z" transform="translate(-281.908 -177.122)" fill="#fff"/>
                  <path id="Path_152" data-name="Path 152" d="M285.308,192.733a5.007,5.007,0,0,1-2.265-3.926,2.275,2.275,0,0,1,.112-.708c-.738.006-1.248.586-1.248,1.606a5.006,5.006,0,0,0,2.265,3.924c1.017.588,1.868.3,2.155-.6A2.012,2.012,0,0,1,285.308,192.733Z" transform="translate(-281.908 -180.74)" fill="#fff"/>
                  <path id="Path_153" data-name="Path 153" d="M285.308,189a5.007,5.007,0,0,1-2.265-3.926,2.265,2.265,0,0,1,.112-.708c-.738.006-1.248.584-1.248,1.606a5.007,5.007,0,0,0,2.265,3.924c1.017.588,1.868.3,2.155-.6A2.012,2.012,0,0,1,285.308,189Z" transform="translate(-281.908 -184.358)" fill="#fff"/>
                </g>
                <path id="Path_154" data-name="Path 154" d="M304.394,216.449l-1.5-.866a2.023,2.023,0,0,1-.844-1.614v-7.2c0-.622.378-.907.844-.638l1.5.866a2.016,2.016,0,0,1,.844,1.612v7.206C305.238,216.434,304.86,216.719,304.394,216.449Z" transform="translate(-232.079 -82.729)" fill="#18a7c3"/>
              </g>
              <g id="Group_76" data-name="Group 76" transform="translate(67.713 11.246)">
                <circle id="Ellipse_10" data-name="Ellipse 10" cx="3.044" cy="3.044" r="3.044" transform="translate(0 128.812)" fill="#1091aa"/>
                <circle id="Ellipse_11" data-name="Ellipse 11" cx="5.2" cy="5.2" r="5.2" transform="translate(20.801 106.236)" fill="#1091aa"/>
                <circle id="Ellipse_12" data-name="Ellipse 12" cx="1.336" cy="1.336" r="1.336" transform="translate(18.26 106.787)" fill="#1091aa"/>
                <circle id="Ellipse_13" data-name="Ellipse 13" cx="2.6" cy="2.6" r="2.6" transform="translate(39.7 79.41)" fill="#1091aa"/>
                <circle id="Ellipse_14" data-name="Ellipse 14" cx="1.839" cy="1.839" r="1.839" transform="translate(26.763 58.102)" fill="#1091aa"/>
                <circle id="Ellipse_15" data-name="Ellipse 15" cx="3.331" cy="3.331" r="3.331" transform="translate(2.757 42.531)" fill="#1091aa"/>
                <path id="Path_157" data-name="Path 157" d="M311.73,101.351a1.856,1.856,0,1,1-1.856-1.856A1.855,1.855,0,0,1,311.73,101.351Z" transform="translate(-294.015 -83.361)" fill="#1091aa"/>
                <path id="Path_158" data-name="Path 158" d="M319.354,107.8a2.186,2.186,0,1,1-2.186-2.186A2.185,2.185,0,0,1,319.354,107.8Z" transform="translate(-287.277 -77.441)" fill="#1091aa"/>
                <path id="Path_159" data-name="Path 159" d="M319.07,104.922a1.057,1.057,0,1,1-1.057-1.057A1.057,1.057,0,0,1,319.07,104.922Z" transform="translate(-285.364 -79.131)" fill="#1091aa"/>
                <path id="Path_160" data-name="Path 160" d="M328.015,94.352a3.055,3.055,0,1,1-3.056-3.056A3.055,3.055,0,0,1,328.015,94.352Z" transform="translate(-280.575 -91.296)" fill="#1091aa"/>
              </g>
            </g>
            <g id="Group_84" data-name="Group 84" transform="translate(221.584 68.717)">
              <g id="Group_82" data-name="Group 82" transform="translate(0 130.343)">
                <path id="Path_161" data-name="Path 161" d="M453.906,313.043l-64.469-37.22c-4.583-2.647-4.009-7.269,1.285-10.325l61.9-35.736c5.293-3.056,13.3-3.389,17.884-.742l64.469,37.22c4.583,2.647,4.008,7.269-1.285,10.325l-61.9,35.736C466.5,315.357,458.489,315.69,453.906,313.043Z" transform="translate(-372.08 -61.489)" fill="#58ddf5" opacity="0.3"/>
                <path id="Path_162" data-name="Path 162" d="M468.591,327.571a19.436,19.436,0,0,1-9.528-2.19l-75.941-43.846c-2.6-1.5-4.026-3.609-4.026-5.943,0-2.757,2.017-5.506,5.538-7.537l72.915-42.1c6.435-3.713,16.227-4.1,21.827-.872l75.941,43.846c2.6,1.5,4.026,3.609,4.026,5.943,0,2.759-2.017,5.506-5.537,7.539l-72.915,42.1A25.262,25.262,0,0,1,468.591,327.571Zm-8.767-3.509c5.185,2.991,14.291,2.6,20.3-.874l72.915-42.1c3.036-1.753,4.778-4.02,4.778-6.22,0-1.767-1.159-3.408-3.265-4.624L478.613,226.4c-5.179-2.991-14.29-2.6-20.3.872l-72.915,42.1c-3.036,1.751-4.778,4.02-4.778,6.218,0,1.765,1.159,3.406,3.265,4.622Z" transform="translate(-379.095 -65.689)" fill="#58ddf5"/>
                <path id="Path_163" data-name="Path 163" d="M538.058,176.249H506.087L470.5,155.7c-4.583-2.647-12.59-2.314-17.884.742l-34.306,19.806H386.351V268.76h.01c-.13,1.791.868,3.519,3.07,4.79L453.9,310.772c4.583,2.647,12.59,2.314,17.884-.742l61.9-35.736c2.751-1.588,4.213-3.6,4.355-5.534h.024Z" transform="translate(-372.074 -132.451)" fill="#58ddf5"/>
                <path id="Path_164" data-name="Path 164" d="M533.68,217.057l-61.9,35.736c-5.294,3.056-13.3,3.389-17.884.742l-64.469-37.22c-2.2-1.273-3.2-3-3.07-4.792h-.01V213h.01c-.13,1.791.868,3.519,3.07,4.79L453.9,255.015c4.583,2.647,12.59,2.314,17.884-.742l61.9-35.736c2.751-1.588,4.213-3.6,4.355-5.534h.024v-1.48h-.024C537.893,213.459,536.431,215.469,533.68,217.057Z" transform="translate(-372.074 -76.694)" fill="#18a7c3"/>
                <path id="Path_165" data-name="Path 165" d="M388.378,270.24h-.01V177.729h31.956l34.308-19.806c5.292-3.056,13.3-3.389,17.882-.742L508.1,177.729h29.955v-1.48H506.087L470.5,155.7c-4.583-2.647-12.59-2.314-17.884.742l-34.306,19.806H386.351V268.76h.01c-.13,1.791.868,3.519,3.07,4.79l.364.211A4.5,4.5,0,0,1,388.378,270.24Z" transform="translate(-372.074 -132.451)" fill="#18a7c3"/>
                <path id="Path_166" data-name="Path 166" d="M463.283,166.877v92.4h-.026a5.667,5.667,0,0,1-1.523,3.273c2.094-1.468,3.217-3.2,3.34-4.886h.024v-92.29A9.426,9.426,0,0,0,463.283,166.877Z" transform="translate(-299.112 -121.357)" fill="#18a7c3"/>
                <path id="Path_167" data-name="Path 167" d="M453.906,228.817,389.437,191.6c-4.583-2.647-4.009-7.269,1.285-10.325l61.9-35.736c5.293-3.056,13.3-3.389,17.884-.742l64.469,37.222c4.583,2.647,4.008,7.267-1.285,10.323l-61.9,35.738C466.5,231.133,458.489,231.464,453.906,228.817Z" transform="translate(-372.08 -143.007)" fill="#58ddf5"/>
                <path id="Path_168" data-name="Path 168" d="M498.544,182.012,434.075,144.79a16.659,16.659,0,0,0-9.025-1.743,14.98,14.98,0,0,1,6.5,1.743l64.469,37.222c4.583,2.647,4.009,7.267-1.285,10.323l-61.9,35.738a20.393,20.393,0,0,1-8.859,2.483,21.042,21.042,0,0,0,11.382-2.483l61.9-35.738C502.552,189.28,503.127,184.659,498.544,182.012Z" transform="translate(-335.653 -143.004)" fill="#18a7c3"/>
                <path id="Path_169" data-name="Path 169" d="M446.494,212.58l-48-27.711c-3.412-1.97-2.983-5.412.956-7.686l46.083-26.607c3.94-2.275,9.9-2.521,13.315-.551l48,27.711c3.412,1.97,2.985,5.412-.956,7.686l-46.083,26.605C455.867,214.3,449.906,214.55,446.494,212.58Z" transform="translate(-362.547 -137.503)" fill="#18a7c3"/>
                <path id="Path_170" data-name="Path 170" d="M440.541,199.544l-34.772-20.076c-2.474-1.429-2.163-3.922.693-5.571l33.387-19.275c2.855-1.647,7.173-1.826,9.646-.4L484.267,174.3c2.474,1.427,2.163,3.92-.693,5.569l-33.387,19.277C447.332,200.792,443.015,200.971,440.541,199.544Z" transform="translate(-354.894 -133.084)" fill="#0f505c"/>
                <path id="Path_171" data-name="Path 171" d="M456.8,228.817,392.33,191.6c-4.583-2.647-4.009-7.269,1.283-10.325l61.9-35.736a20.339,20.339,0,0,1,8.716-2.476,21.082,21.082,0,0,0-11.608,2.476l-61.9,35.736c-5.294,3.056-5.868,7.679-1.285,10.325l64.469,37.22a16.718,16.718,0,0,0,9.166,1.734A14.755,14.755,0,0,1,456.8,228.817Z" transform="translate(-372.08 -143.007)" fill="#18a7c3"/>
                <g id="Group_79" data-name="Group 79" transform="translate(49.205 20.175)">
                  <g id="Group_78" data-name="Group 78" clip-path="url(#clip-path-4)">
                    <path id="Path_172" data-name="Path 172" d="M406.445,176.62l33.4-19.285c2.855-1.647,7.177-1.826,9.648-.4l34.788,20.084a3.652,3.652,0,0,1,1.214,1.094c.836-1.364.476-2.834-1.214-3.81l-34.788-20.084c-2.472-1.429-6.793-1.25-9.648.4l-33.4,19.283c-2.222,1.283-2.881,3.072-1.907,4.479A5.241,5.241,0,0,1,406.445,176.62Z" transform="translate(-404.098 -153.264)" fill="#bcf1fe"/>
                    <path id="Path_173" data-name="Path 173" d="M406.442,178.558l33.4-19.283c2.855-1.649,7.177-1.828,9.648-.4l34.788,20.084a3.871,3.871,0,0,1,1.017.85c1.1-1.444.8-3.074-1.017-4.127L449.491,155.6c-2.472-1.427-6.793-1.248-9.648.4l-33.4,19.285c-2.352,1.358-2.946,3.282-1.71,4.719A5.754,5.754,0,0,1,406.442,178.558Z" transform="translate(-404.096 -151.928)" fill="#88dfef"/>
                    <path id="Path_174" data-name="Path 174" d="M405.077,182.022a6.1,6.1,0,0,1,1.372-1.076l33.4-19.283c2.855-1.649,7.177-1.828,9.648-.4l34.788,20.084a4.2,4.2,0,0,1,.679.5c1.468-1.529,1.3-3.351-.679-4.495L449.5,157.264c-2.472-1.429-6.793-1.25-9.648.4l-33.4,19.283C403.9,178.421,403.394,180.564,405.077,182.022Z" transform="translate(-404.102 -150.317)" fill="#4bb4c9"/>
                  </g>
                </g>
                <g id="Group_80" data-name="Group 80" transform="translate(107.112 76.582)">
                  <g id="Group_431" data-name="Group 431">
                    <path id="Path_176" data-name="Path 176" d="M438.766,248.086l-3.574,2.062c-.921.531-1.667-.031-1.667-1.259V198.965a3.991,3.991,0,0,1,1.667-3.184l3.574-2.062c.921-.531,1.667.032,1.667,1.259V244.9A3.991,3.991,0,0,1,438.766,248.086Z" transform="translate(-433.526 -170.701)" fill="#18a7c3"/>
                    <path id="Path_178" data-name="Path 178" d="M445.46,244.221l-3.574,2.064c-.921.531-1.667-.033-1.667-1.261V195.1a3.987,3.987,0,0,1,1.667-3.182l3.574-2.064c.921-.531,1.667.033,1.667,1.259v49.924A3.988,3.988,0,0,1,445.46,244.221Z" transform="translate(-427.047 -174.442)" fill="#18a7c3"/>
                    <path id="Path_179" data-name="Path 179" d="M452.154,240.356l-3.574,2.064c-.921.531-1.667-.033-1.667-1.259V191.237a3.988,3.988,0,0,1,1.667-3.184l3.574-2.064c.919-.531,1.667.033,1.667,1.259v49.924A3.993,3.993,0,0,1,452.154,240.356Z" transform="translate(-420.568 -178.183)" fill="#18a7c3"/>
                    <path id="Path_180" data-name="Path 180" d="M458.848,236.493l-3.574,2.062c-.921.531-1.667-.033-1.667-1.259V187.372a3.988,3.988,0,0,1,1.667-3.184l3.574-2.064c.919-.531,1.667.033,1.667,1.261v49.924A4,4,0,0,1,458.848,236.493Z" transform="translate(-414.09 -181.923)" fill="#18a7c3"/>
                  </g>
                  <g id="Group_432" data-name="Group 432">
                    <path id="Path_177" data-name="Path 177" d="M438.766,193.718l-.856.494v49.023a3.988,3.988,0,0,1-1.667,3.184l-2.718,1.568v.9c0,1.228.746,1.791,1.667,1.259l3.574-2.062a3.991,3.991,0,0,0,1.667-3.184V194.978C440.433,193.75,439.687,193.187,438.766,193.718Z" transform="translate(-433.526 -170.701)" fill="#fff"/>
                    <path id="Path_181" data-name="Path 181" d="M445.46,189.853l-.856.494v49.025a3.994,3.994,0,0,1-1.667,3.184l-2.718,1.568v.9c0,1.228.746,1.793,1.667,1.261l3.574-2.064a3.994,3.994,0,0,0,1.667-3.184V191.113C447.127,189.887,446.379,189.322,445.46,189.853Z" transform="translate(-427.047 -174.442)" fill="#fff"/>
                    <path id="Path_182" data-name="Path 182" d="M452.154,185.988l-.856.494v49.025a4,4,0,0,1-1.667,3.184l-2.718,1.568v.9c0,1.226.746,1.791,1.667,1.259l3.574-2.064a3.993,3.993,0,0,0,1.667-3.184V187.248C453.821,186.022,453.073,185.457,452.154,185.988Z" transform="translate(-420.568 -178.183)" fill="#fff"/>
                    <path id="Path_183" data-name="Path 183" d="M458.848,182.123l-.858.5v49.023a3.992,3.992,0,0,1-1.665,3.184l-2.718,1.568v.9c0,1.226.746,1.791,1.667,1.259l3.574-2.062a4,4,0,0,0,1.665-3.184V183.385C460.513,182.157,459.767,181.592,458.848,182.123Z" transform="translate(-414.09 -181.923)" fill="#fff"/>
                  </g>
                </g>
                <path id="Path_184" data-name="Path 184" d="M442.934,267.828a2.641,2.641,0,0,1-1.312-.386l-46.557-26.881a6.745,6.745,0,0,1-2.879-5.453V182.28a2.842,2.842,0,0,1,1.173-2.584,2.217,2.217,0,0,1,2.255.14l46.556,26.879a6.755,6.755,0,0,1,2.883,5.455V265a2.836,2.836,0,0,1-1.177,2.582A1.868,1.868,0,0,1,442.934,267.828ZM394.3,180.542a.781.781,0,0,0-.4.1,1.844,1.844,0,0,0-.628,1.633v52.829a5.731,5.731,0,0,0,2.332,4.5l46.56,26.881a1.2,1.2,0,0,0,1.159.138,1.854,1.854,0,0,0,.626-1.633V212.17a5.737,5.737,0,0,0-2.334-4.506l-46.557-26.879A1.582,1.582,0,0,0,394.3,180.542Z" transform="translate(-366.426 -107.736)" fill="#18a7c3"/>
                <g id="Group_81" data-name="Group 81" transform="translate(30.333 80.66)">
                  <g id="Group_437" data-name="Group 437">
                    <path id="Path_185" data-name="Path 185" d="M399.041,188.231c0,1.444-1.015,2.031-2.267,1.309a5.007,5.007,0,0,1-2.265-3.926c0-1.444,1.013-2.031,2.265-1.309A5.015,5.015,0,0,1,399.041,188.231Z" transform="translate(-394.509 -183.996)" fill="#18a7c3"/>
                    <path id="Path_186" data-name="Path 186" d="M399.041,191.967c0,1.444-1.015,2.031-2.267,1.309a5.01,5.01,0,0,1-2.265-3.926c0-1.444,1.013-2.031,2.265-1.309A5.009,5.009,0,0,1,399.041,191.967Z" transform="translate(-394.509 -180.38)" fill="#18a7c3"/>
                    <path id="Path_187" data-name="Path 187" d="M399.041,195.7c0,1.444-1.015,2.031-2.267,1.307a5.006,5.006,0,0,1-2.265-3.924c0-1.446,1.013-2.031,2.265-1.309A5.009,5.009,0,0,1,399.041,195.7Z" transform="translate(-394.509 -176.764)" fill="#18a7c3"/>
                  </g>
                  <g id="Group_438" data-name="Group 438" transform="translate(0 0.004)">
                    <path id="Path_188" data-name="Path 188" d="M397.909,196.108a5.009,5.009,0,0,1-2.267-3.926,2.274,2.274,0,0,1,.114-.708c-.738.006-1.248.586-1.248,1.606A5.006,5.006,0,0,0,396.774,197c1.017.588,1.867.3,2.155-.6A2.012,2.012,0,0,1,397.909,196.108Z" transform="translate(-394.509 -176.762)" fill="#fff"/>
                    <path id="Path_189" data-name="Path 189" d="M397.909,192.37a5.009,5.009,0,0,1-2.267-3.926,2.265,2.265,0,0,1,.114-.708c-.738.006-1.248.585-1.248,1.606a5.006,5.006,0,0,0,2.265,3.924c1.017.588,1.867.3,2.155-.6A2.012,2.012,0,0,1,397.909,192.37Z" transform="translate(-394.509 -180.38)" fill="#fff"/>
                    <path id="Path_190" data-name="Path 190" d="M397.909,188.632a5.009,5.009,0,0,1-2.267-3.926,2.254,2.254,0,0,1,.114-.708c-.738.006-1.248.584-1.248,1.606a5.006,5.006,0,0,0,2.265,3.924c1.017.586,1.867.3,2.155-.6A2.012,2.012,0,0,1,397.909,188.632Z" transform="translate(-394.509 -183.998)" fill="#fff"/>
                  </g>
                </g>
                <path id="Path_191" data-name="Path 191" d="M416.995,216.086l-1.5-.866a2.023,2.023,0,0,1-.844-1.614v-7.2c0-.622.378-.907.844-.638l1.5.866a2.017,2.017,0,0,1,.844,1.612v7.206C417.839,216.069,417.461,216.354,416.995,216.086Z" transform="translate(-344.682 -82.365)" fill="#18a7c3"/>
              </g>
              <g id="Group_83" data-name="Group 83" transform="translate(67.71 27.869)">
                <path id="Path_194" data-name="Path 194" d="M419.591,159.435a3.044,3.044,0,1,1-3.044-3.044A3.044,3.044,0,0,1,419.591,159.435Z" transform="translate(-413.503 -41.354)" fill="#1091aa"/>
                <circle id="Ellipse_16" data-name="Ellipse 16" cx="5.2" cy="5.2" r="5.2" transform="translate(20.802 106.235)" fill="#1091aa"/>
                <path id="Path_195" data-name="Path 195" d="M425.453,146.534a1.335,1.335,0,1,1-1.336-1.336A1.336,1.336,0,0,1,425.453,146.534Z" transform="translate(-404.521 -38.412)" fill="#1091aa"/>
                <circle id="Ellipse_17" data-name="Ellipse 17" cx="2.6" cy="2.6" r="2.6" transform="translate(39.7 79.41)" fill="#1091aa"/>
                <circle id="Ellipse_18" data-name="Ellipse 18" cx="1.839" cy="1.839" r="1.839" transform="translate(26.764 58.102)" fill="#1091aa"/>
                <path id="Path_196" data-name="Path 196" d="M421.567,115.876a3.332,3.332,0,1,1-3.332-3.33A3.332,3.332,0,0,1,421.567,115.876Z" transform="translate(-412.147 -70.015)" fill="#1091aa"/>
                <path id="Path_197" data-name="Path 197" d="M424.331,100.989a1.856,1.856,0,1,1-1.856-1.858A1.855,1.855,0,0,1,424.331,100.989Z" transform="translate(-406.615 -82.999)" fill="#1091aa"/>
                <circle id="Ellipse_19" data-name="Ellipse 19" cx="2.186" cy="2.186" r="2.186" transform="translate(27.705 28.17)" fill="#1091aa"/>
                <path id="Path_198" data-name="Path 198" d="M431.672,104.559a1.057,1.057,0,1,1-1.057-1.057A1.058,1.058,0,0,1,431.672,104.559Z" transform="translate(-397.964 -78.768)" fill="#1091aa"/>
                <path id="Path_199" data-name="Path 199" d="M440.616,93.987a3.055,3.055,0,1,1-3.056-3.054A3.055,3.055,0,0,1,440.616,93.987Z" transform="translate(-393.175 -90.933)" fill="#1091aa"/>
              </g>
            </g>
            <g id="Group_91" data-name="Group 91" transform="translate(109.806 138.149)">
              <g id="Group_89" data-name="Group 89" transform="translate(0 130.344)">
                <path id="Path_200" data-name="Path 200" d="M397.1,348.326l-64.469-37.22c-4.583-2.647-4.009-7.269,1.285-10.325l61.9-35.736c5.294-3.056,13.3-3.389,17.884-.742l64.467,37.22c4.585,2.647,4.01,7.269-1.283,10.325l-61.9,35.736C409.7,350.64,401.688,350.973,397.1,348.326Z" transform="translate(-315.277 -96.772)" fill="#58ddf5" opacity="0.3"/>
                <path id="Path_201" data-name="Path 201" d="M411.789,362.853a19.433,19.433,0,0,1-9.526-2.19l-75.943-43.846c-2.6-1.5-4.026-3.607-4.026-5.941,0-2.759,2.017-5.508,5.538-7.541l72.917-42.1c6.435-3.713,16.225-4.1,21.827-.874l75.943,43.846c2.6,1.5,4.026,3.609,4.026,5.941,0,2.759-2.019,5.508-5.54,7.541l-72.917,42.1A25.283,25.283,0,0,1,411.789,362.853Zm-8.767-3.509c5.183,2.989,14.289,2.6,20.306-.872l72.915-42.1c3.034-1.753,4.776-4.022,4.776-6.222,0-1.763-1.159-3.4-3.263-4.622l-75.943-43.846c-5.183-2.989-14.289-2.6-20.3.872l-72.917,42.1c-3.036,1.755-4.778,4.022-4.778,6.222,0,1.767,1.161,3.408,3.267,4.622Z" transform="translate(-322.293 -100.972)" fill="#58ddf5"/>
                <path id="Path_202" data-name="Path 202" d="M481.258,211.534H449.286L413.7,190.983c-4.585-2.645-12.59-2.314-17.884.742L361.5,211.534H329.548v92.509h.012c-.132,1.791.868,3.518,3.07,4.792l64.469,37.22c4.583,2.647,12.59,2.314,17.882-.742l61.9-35.736c2.749-1.588,4.213-3.6,4.355-5.534h.024Z" transform="translate(-315.271 -167.734)" fill="#58ddf5"/>
                <path id="Path_203" data-name="Path 203" d="M476.879,252.34l-61.9,35.736c-5.292,3.056-13.3,3.389-17.882.742L332.63,251.6c-2.2-1.273-3.2-3-3.07-4.792h-.012v1.48h.012c-.132,1.791.868,3.518,3.07,4.792L397.1,290.3c4.583,2.647,12.59,2.314,17.882-.742l61.9-35.736c2.749-1.588,4.213-3.6,4.355-5.534h.024v-1.48h-.024C481.093,248.742,479.628,250.752,476.879,252.34Z" transform="translate(-315.271 -111.977)" fill="#18a7c3"/>
                <path id="Path_204" data-name="Path 204" d="M331.577,305.522h-.01V213.011h31.956l34.306-19.806c5.294-3.056,13.3-3.389,17.884-.742L451.3,213.011h29.955v-1.48H449.286L413.7,190.983c-4.585-2.645-12.59-2.314-17.884.742L361.5,211.532H329.548v92.511h.012c-.132,1.791.868,3.518,3.07,4.792l.362.209A4.5,4.5,0,0,1,331.577,305.522Z" transform="translate(-315.271 -167.734)" fill="#18a7c3"/>
                <path id="Path_205" data-name="Path 205" d="M406.481,202.16v92.4h-.024a5.67,5.67,0,0,1-1.525,3.273c2.1-1.468,3.219-3.2,3.341-4.886h.024v-92.29A9.512,9.512,0,0,0,406.481,202.16Z" transform="translate(-242.31 -156.641)" fill="#18a7c3"/>
                <path id="Path_206" data-name="Path 206" d="M397.1,264.1l-64.469-37.22c-4.583-2.647-4.009-7.269,1.285-10.325l61.9-35.736c5.294-3.056,13.3-3.387,17.884-.742L478.168,217.3c4.585,2.647,4.01,7.269-1.283,10.325l-61.9,35.736C409.7,266.416,401.688,266.747,397.1,264.1Z" transform="translate(-315.277 -178.29)" fill="#58ddf5"/>
                <path id="Path_207" data-name="Path 207" d="M441.741,217.3l-64.467-37.222a16.663,16.663,0,0,0-9.025-1.743,14.981,14.981,0,0,1,6.5,1.743L439.218,217.3c4.585,2.647,4.011,7.269-1.283,10.325l-61.9,35.736a20.406,20.406,0,0,1-8.857,2.485,21.055,21.055,0,0,0,11.38-2.485l61.9-35.736C445.752,224.565,446.326,219.942,441.741,217.3Z" transform="translate(-278.85 -178.287)" fill="#18a7c3"/>
                <path id="Path_208" data-name="Path 208" d="M389.691,247.863l-48-27.711c-3.412-1.97-2.985-5.412.956-7.686l46.083-26.605c3.94-2.275,9.9-2.523,13.313-.553l48,27.711c3.414,1.97,2.985,5.412-.954,7.686L403.006,247.31C399.064,249.587,393.1,249.833,389.691,247.863Z" transform="translate(-305.744 -172.786)" fill="#18a7c3"/>
                <path id="Path_209" data-name="Path 209" d="M383.74,234.827l-34.772-20.076c-2.474-1.429-2.163-3.922.691-5.569l33.389-19.277c2.853-1.647,7.173-1.826,9.644-.4l34.774,20.076c2.472,1.429,2.163,3.922-.693,5.569l-33.387,19.277C390.531,236.075,386.214,236.254,383.74,234.827Z" transform="translate(-298.091 -168.368)" fill="#15657c"/>
                <path id="Path_210" data-name="Path 210" d="M400,264.1l-64.467-37.22c-4.585-2.647-4.011-7.269,1.283-10.325l61.9-35.736a20.36,20.36,0,0,1,8.716-2.476,21.1,21.1,0,0,0-11.608,2.476l-61.9,35.736c-5.294,3.056-5.868,7.679-1.285,10.325L397.1,264.1a16.714,16.714,0,0,0,9.166,1.736A14.793,14.793,0,0,1,400,264.1Z" transform="translate(-315.277 -178.29)" fill="#18a7c3"/>
                <g id="Group_86" data-name="Group 86" transform="translate(49.207 20.175)">
                  <g id="Group_85" data-name="Group 85" clip-path="url(#clip-path-5)">
                    <path id="Path_211" data-name="Path 211" d="M349.644,211.9l33.4-19.283c2.855-1.649,7.175-1.828,9.648-.4L427.479,212.3A3.679,3.679,0,0,1,428.7,213.4c.834-1.364.476-2.834-1.216-3.81L392.693,189.5c-2.474-1.429-6.793-1.25-9.648.4l-33.4,19.283c-2.222,1.283-2.881,3.072-1.909,4.479A5.263,5.263,0,0,1,349.644,211.9Z" transform="translate(-347.298 -188.547)" fill="#bcf1fe"/>
                    <path id="Path_212" data-name="Path 212" d="M349.642,213.841l33.4-19.283c2.855-1.647,7.175-1.828,9.648-.4l34.786,20.084a3.881,3.881,0,0,1,1.019.85c1.1-1.444.8-3.074-1.019-4.127l-34.786-20.084c-2.474-1.427-6.793-1.248-9.648.4l-33.4,19.283c-2.354,1.358-2.948,3.282-1.71,4.719A5.729,5.729,0,0,1,349.642,213.841Z" transform="translate(-347.295 -187.211)" fill="#88dfef"/>
                    <path id="Path_213" data-name="Path 213" d="M348.274,217.307a6.1,6.1,0,0,1,1.374-1.078l33.4-19.283c2.855-1.649,7.175-1.828,9.648-.4l34.786,20.084a4.342,4.342,0,0,1,.681.5c1.466-1.529,1.3-3.351-.681-4.495L392.7,192.547c-2.474-1.429-6.793-1.248-9.648.4l-33.4,19.283C347.1,213.7,346.594,215.846,348.274,217.307Z" transform="translate(-347.301 -185.6)" fill="#47b4c9"/>
                  </g>
                </g>
                <g id="Group_87" data-name="Group 87" transform="translate(107.114 76.583)">
                  <g id="Group_435" data-name="Group 435">
                    <path id="Path_215" data-name="Path 215" d="M381.965,283.369l-3.574,2.062c-.921.531-1.667-.032-1.667-1.259V234.248a3.991,3.991,0,0,1,1.667-3.184L381.965,229c.919-.531,1.665.031,1.665,1.259v49.924A3.992,3.992,0,0,1,381.965,283.369Z" transform="translate(-376.725 -205.986)" fill="#18a7c3"/>
                    <path id="Path_217" data-name="Path 217" d="M388.659,279.5l-3.574,2.064c-.921.531-1.667-.033-1.667-1.259V230.383a3.987,3.987,0,0,1,1.667-3.182l3.574-2.064c.919-.531,1.665.033,1.665,1.259V276.32A3.992,3.992,0,0,1,388.659,279.5Z" transform="translate(-370.246 -209.727)" fill="#18a7c3"/>
                    <path id="Path_218" data-name="Path 218" d="M395.353,275.639l-3.576,2.064c-.919.531-1.665-.034-1.665-1.259V226.52a3.992,3.992,0,0,1,1.665-3.184l3.576-2.064c.919-.531,1.665.033,1.665,1.261v49.925A3.988,3.988,0,0,1,395.353,275.639Z" transform="translate(-363.767 -213.467)" fill="#18a7c3"/>
                    <path id="Path_219" data-name="Path 219" d="M402.045,271.775l-3.574,2.062c-.919.531-1.665-.031-1.665-1.259V222.654a3.992,3.992,0,0,1,1.665-3.184l3.574-2.062c.921-.531,1.667.031,1.667,1.259v49.924A3.991,3.991,0,0,1,402.045,271.775Z" transform="translate(-357.289 -217.207)" fill="#18a7c3"/>
                  </g>
                  <g id="Group_436" data-name="Group 436">
                    <path id="Path_216" data-name="Path 216" d="M381.965,229l-.858.494v49.025a3.991,3.991,0,0,1-1.665,3.182l-2.718,1.568v.9c0,1.228.746,1.791,1.667,1.259l3.574-2.062a3.992,3.992,0,0,0,1.665-3.184V230.261C383.63,229.033,382.884,228.47,381.965,229Z" transform="translate(-376.725 -205.986)" fill="#fff"/>
                    <path id="Path_220" data-name="Path 220" d="M388.659,225.136l-.858.494v49.025a4,4,0,0,1-1.665,3.184l-2.718,1.568v.9c0,1.226.746,1.791,1.665,1.259l3.576-2.064a3.992,3.992,0,0,0,1.665-3.184V226.4C390.324,225.17,389.578,224.6,388.659,225.136Z" transform="translate(-370.246 -209.727)" fill="#fff"/>
                    <path id="Path_221" data-name="Path 221" d="M395.351,221.271l-.856.5V270.79a3.992,3.992,0,0,1-1.665,3.184l-2.718,1.568v.9c0,1.226.746,1.791,1.665,1.259l3.574-2.064a3.987,3.987,0,0,0,1.667-3.182V222.533C397.018,221.3,396.272,220.74,395.351,221.271Z" transform="translate(-363.767 -213.467)" fill="#fff"/>
                    <path id="Path_222" data-name="Path 222" d="M402.045,217.407l-.856.494v49.023a3.988,3.988,0,0,1-1.667,3.184l-2.716,1.568v.9c0,1.228.746,1.791,1.665,1.259l3.574-2.062a3.991,3.991,0,0,0,1.667-3.184V218.667C403.712,217.439,402.966,216.876,402.045,217.407Z" transform="translate(-357.289 -217.207)" fill="#fff"/>
                  </g>
                </g>
                <path id="Path_223" data-name="Path 223" d="M386.132,303.114a2.638,2.638,0,0,1-1.311-.388l-46.558-26.881a6.739,6.739,0,0,1-2.881-5.453V217.563a2.841,2.841,0,0,1,1.173-2.582,2.208,2.208,0,0,1,2.255.138L385.368,242a6.756,6.756,0,0,1,2.881,5.455v52.829a2.836,2.836,0,0,1-1.177,2.582A1.845,1.845,0,0,1,386.132,303.114ZM337.5,215.825a.785.785,0,0,0-.4.1,1.849,1.849,0,0,0-.628,1.633v52.829a5.728,5.728,0,0,0,2.332,4.5l46.561,26.881a1.178,1.178,0,0,0,1.157.138,1.854,1.854,0,0,0,.626-1.633V247.453a5.743,5.743,0,0,0-2.332-4.506l-46.558-26.879A1.611,1.611,0,0,0,337.5,215.825Z" transform="translate(-309.624 -143.02)" fill="#18a7c3"/>
                <g id="Group_88" data-name="Group 88" transform="translate(30.333 80.66)">
                  <g id="Group_433" data-name="Group 433">
                    <path id="Path_224" data-name="Path 224" d="M342.241,223.514c0,1.446-1.015,2.031-2.267,1.309a5.009,5.009,0,0,1-2.267-3.926c0-1.444,1.015-2.031,2.267-1.307A5.008,5.008,0,0,1,342.241,223.514Z" transform="translate(-337.707 -219.279)" fill="#18a7c3"/>
                    <path id="Path_225" data-name="Path 225" d="M342.241,227.25c0,1.444-1.015,2.031-2.267,1.309a5.009,5.009,0,0,1-2.267-3.926c0-1.444,1.015-2.031,2.267-1.309A5.012,5.012,0,0,1,342.241,227.25Z" transform="translate(-337.707 -215.664)" fill="#18a7c3"/>
                    <path id="Path_226" data-name="Path 226" d="M342.241,230.986c0,1.444-1.015,2.031-2.267,1.309a5.015,5.015,0,0,1-2.267-3.926c0-1.446,1.015-2.031,2.267-1.309A5.009,5.009,0,0,1,342.241,230.986Z" transform="translate(-337.707 -212.048)" fill="#18a7c3"/>
                  </g>
                  <g id="Group_434" data-name="Group 434" transform="translate(0 0.003)">
                    <path id="Path_227" data-name="Path 227" d="M341.109,231.391a5.008,5.008,0,0,1-2.267-3.924,2.278,2.278,0,0,1,.112-.71c-.736.006-1.248.586-1.248,1.606a5.015,5.015,0,0,0,2.267,3.926c1.017.586,1.867.3,2.155-.6A2.006,2.006,0,0,1,341.109,231.391Z" transform="translate(-337.707 -212.045)" fill="#fff"/>
                    <path id="Path_228" data-name="Path 228" d="M341.109,227.653a5.008,5.008,0,0,1-2.267-3.924,2.278,2.278,0,0,1,.112-.71c-.736.006-1.248.586-1.248,1.606a5.008,5.008,0,0,0,2.267,3.924c1.017.588,1.867.3,2.155-.6A2.006,2.006,0,0,1,341.109,227.653Z" transform="translate(-337.707 -215.663)" fill="#fff"/>
                    <path id="Path_229" data-name="Path 229" d="M341.109,223.915a5.009,5.009,0,0,1-2.267-3.926,2.265,2.265,0,0,1,.112-.708c-.736.006-1.248.585-1.248,1.606a5.008,5.008,0,0,0,2.267,3.924c1.017.588,1.867.3,2.155-.6A2.007,2.007,0,0,1,341.109,223.915Z" transform="translate(-337.707 -219.281)" fill="#fff"/>
                  </g>
                </g>
                <path id="Path_230" data-name="Path 230" d="M360.194,251.369l-1.5-.866a2.023,2.023,0,0,1-.844-1.614v-7.2c0-.622.378-.907.844-.638l1.5.866a2.016,2.016,0,0,1,.844,1.612v7.206C361.038,251.354,360.66,251.639,360.194,251.369Z" transform="translate(-287.879 -117.649)" fill="#18a7c3"/>
              </g>
              <g id="Group_90" data-name="Group 90" transform="translate(70.469 10.158)">
                <circle id="Ellipse_20" data-name="Ellipse 20" cx="3.044" cy="3.044" r="3.044" transform="translate(0.287 131.303)" fill="#1091aa"/>
                <circle id="Ellipse_21" data-name="Ellipse 21" cx="5.2" cy="5.2" r="5.2" transform="translate(18.044 123.946)" fill="#1091aa"/>
                <circle id="Ellipse_22" data-name="Ellipse 22" cx="1.336" cy="1.336" r="1.336" transform="translate(15.504 124.497)" fill="#1091aa"/>
                <circle id="Ellipse_23" data-name="Ellipse 23" cx="2.6" cy="2.6" r="2.6" transform="translate(24.948 97.121)" fill="#1091aa"/>
                <circle id="Ellipse_24" data-name="Ellipse 24" cx="1.839" cy="1.839" r="1.839" transform="translate(24.006 75.813)" fill="#1091aa"/>
                <circle id="Ellipse_25" data-name="Ellipse 25" cx="3.331" cy="3.331" r="3.331" transform="translate(0 60.241)" fill="#1091aa"/>
                <circle id="Ellipse_26" data-name="Ellipse 26" cx="6.736" cy="6.736" r="6.736" transform="translate(14.974 33.246)" fill="#1091aa"/>
                <path id="Path_233" data-name="Path 233" d="M367.531,136.271a1.857,1.857,0,1,1-1.856-1.856A1.856,1.856,0,0,1,367.531,136.271Z" transform="translate(-352.572 -100.57)" fill="#1091aa"/>
                <path id="Path_234" data-name="Path 234" d="M375.154,142.717a2.186,2.186,0,1,1-2.186-2.186A2.186,2.186,0,0,1,375.154,142.717Z" transform="translate(-345.833 -94.65)" fill="#1091aa"/>
                <circle id="Ellipse_27" data-name="Ellipse 27" cx="1.057" cy="1.057" r="1.057" transform="translate(28.836 42.444)" fill="#1091aa"/>
                <path id="Path_235" data-name="Path 235" d="M383.816,129.272a3.056,3.056,0,1,1-3.056-3.056A3.055,3.055,0,0,1,383.816,129.272Z" transform="translate(-333.229 -126.216)" fill="#1091aa"/>
              </g>
            </g>
          </g>
        </g>
      </g>
    </g>
  </g>
</svg>
