<svg xmlns="http://www.w3.org/2000/svg" xmlns:xlink="http://www.w3.org/1999/xlink" width="1447.478" height="1083.078" viewBox="0 0 1447.478 1083.078">
  <defs>
    <linearGradient id="linear-gradient" y1="0.5" x2="1" y2="0.5" gradientUnits="objectBoundingBox">
      <stop offset="0" stop-color="#dae3fe"/>
      <stop offset="1" stop-color="#e9effd"/>
    </linearGradient>
    <linearGradient id="linear-gradient-4" x1="0.936" y1="-0.078" x2="-0.19" y2="1.416" gradientUnits="objectBoundingBox">
      <stop offset="0" stop-color="#fe7062"/>
      <stop offset="1" stop-color="#ff928e"/>
    </linearGradient>
    <linearGradient id="linear-gradient-5" x1="1.214" y1="-0.449" x2="-0.632" y2="2.003" xlink:href="#linear-gradient-4"/>
    <linearGradient id="linear-gradient-6" x1="-0.569" y1="1.919" x2="-5.335" y2="8.247" gradientUnits="objectBoundingBox">
      <stop offset="0" stop-color="#e1473d"/>
      <stop offset="1" stop-color="#e9605a"/>
    </linearGradient>
    <linearGradient id="linear-gradient-19" x1="24.309" y1="27.689" x2="25.312" y2="27.689" gradientUnits="objectBoundingBox">
      <stop offset="0" stop-color="#53d8ff"/>
      <stop offset="1" stop-color="#3840f7"/>
    </linearGradient>
  </defs>
  <g id="Illustration" transform="translate(-278.064 -89.234)">
    <g id="Group_59" data-name="Group 59" transform="translate(143.166 89.234)">
      <path id="Path_1" data-name="Path 1" d="M1449.278,505.1c-81.914-44.433,57.237-174.181-62.573-255.732-189.342-128.879-350.351,21.677-405.733,86.9-102.289,120.475-120.06,248.816-403.786,58.246S188.374,544.277,274.121,637.4s42.656,94.853-11.015,256.763,156.167,276.506,338.416,175.711,157.126-111.226,398.637-5.868,416.393-21.082,568.822-135.258C1872.717,701.245,1531.191,549.534,1449.278,505.1Z" transform="translate(-110.187 -119.132)" fill="#d2fdfd"/>
      <g id="Group_6" data-name="Group 6" transform="translate(1312.439 712.164)">
        <g id="Group_1" data-name="Group 1" transform="translate(0 109.819)">
          <path id="Path_2" data-name="Path 2" d="M2246.563,1391.565a1.065,1.065,0,0,1-.679-1.886q1.632-1.346,3.213-2.741a1.065,1.065,0,1,1,1.408,1.6q-1.607,1.417-3.265,2.786A1.063,1.063,0,0,1,2246.563,1391.565Z" transform="translate(-2029.162 -1265.183)" fill="#f89f1b"/>
          <path id="Path_3" data-name="Path 3" d="M2085.736,1382.784a1.065,1.065,0,0,1-.035-2.13c2.715-.092,5.463-.273,8.173-.536a1.065,1.065,0,1,1,.207,2.12c-2.754.268-5.548.451-8.307.545Zm-13.413-.229-.074,0c-2.76-.189-5.547-.467-8.285-.828a1.064,1.064,0,0,1-.916-1.194,1.05,1.05,0,0,1,1.195-.917c2.694.355,5.438.629,8.152.814a1.065,1.065,0,0,1-.071,2.128Zm34.921-2.293a1.065,1.065,0,0,1-.209-2.109c2.657-.536,5.341-1.166,7.976-1.872a1.065,1.065,0,0,1,.551,2.058c-2.677.717-5.4,1.357-8.106,1.9A1.1,1.1,0,0,1,2107.243,1380.262Zm-56.337-.953a1.052,1.052,0,0,1-.246-.029c-2.685-.635-5.389-1.366-8.038-2.169a1.066,1.066,0,0,1,.62-2.039c2.605.792,5.266,1.51,7.908,2.136a1.065,1.065,0,0,1-.244,2.1Zm77.149-5.053a1.065,1.065,0,0,1-.379-2.061l.714-.273c2.3-.886,4.607-1.851,6.855-2.865a1.065,1.065,0,1,1,.875,1.942c-2.282,1.031-4.626,2.009-6.966,2.911l-.721.276A1.067,1.067,0,0,1,2128.055,1374.255Zm-97.746-1.64a1.06,1.06,0,0,1-.411-.083c-2.552-1.067-5.1-2.226-7.576-3.446a1.065,1.065,0,0,1,.942-1.911c2.435,1.2,4.943,2.342,7.456,3.392a1.066,1.066,0,0,1-.411,2.049Zm117.311-7.649a1.065,1.065,0,0,1-.534-1.987c2.354-1.364,4.695-2.819,6.955-4.325a1.065,1.065,0,1,1,1.182,1.773c-2.3,1.53-4.675,3.009-7.07,4.4A1.056,1.056,0,0,1,2147.62,1364.966Zm-136.544-2.3a1.055,1.055,0,0,1-.563-.163c-2.349-1.469-4.676-3.026-6.915-4.63a1.065,1.065,0,1,1,1.24-1.732c2.2,1.577,4.493,3.11,6.8,4.557a1.065,1.065,0,0,1-.566,1.968Zm-17.351-12.942a1.056,1.056,0,0,1-.7-.266c-2.074-1.828-4.115-3.745-6.064-5.7a1.065,1.065,0,1,1,1.506-1.506c1.919,1.92,3.926,3.806,5.966,5.605a1.065,1.065,0,0,1-.7,1.864Zm-14.993-15.6a1.064,1.064,0,0,1-.827-.393c-1.739-2.138-3.437-4.362-5.043-6.614a1.065,1.065,0,1,1,1.733-1.238c1.582,2.215,3.251,4.4,4.962,6.506a1.066,1.066,0,0,1-.825,1.738Zm-12.23-17.859a1.065,1.065,0,0,1-.927-.538c-1.367-2.4-2.676-4.874-3.893-7.355a1.065,1.065,0,0,1,1.914-.937c1.2,2.441,2.485,4.877,3.831,7.238a1.066,1.066,0,0,1-.925,1.592Zm-9.154-19.624a1.065,1.065,0,0,1-1-.7c-.966-2.6-1.859-5.258-2.655-7.891a1.065,1.065,0,0,1,2.039-.616c.783,2.591,1.662,5.2,2.613,7.766a1.066,1.066,0,0,1-1,1.436Zm-5.864-20.85a1.065,1.065,0,0,1-1.044-.862c-.526-2.7-.975-5.465-1.335-8.217a1.065,1.065,0,1,1,2.112-.277c.355,2.709.8,5.43,1.314,8.087a1.065,1.065,0,0,1-.842,1.249A1.023,1.023,0,0,1,1951.484,1275.79Zm-2.373-21.528a1.065,1.065,0,0,1-1.064-1.036q-.049-1.792-.048-3.581c0-1.587.029-3.184.086-4.745a1.064,1.064,0,0,1,1.063-1.026h.04a1.064,1.064,0,0,1,1.025,1.1c-.056,1.537-.084,3.107-.084,4.668q0,1.758.048,3.522a1.065,1.065,0,0,1-1.036,1.094Z" transform="translate(-1947.999 -1226.225)" fill="#f89f1b"/>
          <path id="Path_4" data-name="Path 4" d="M1950.8,1225.941a1.128,1.128,0,0,1-.148-.01,1.066,1.066,0,0,1-.908-1.2q.3-2.127.661-4.241a1.065,1.065,0,1,1,2.1.363q-.359,2.078-.65,4.172A1.065,1.065,0,0,1,1950.8,1225.941Z" transform="translate(-1948.471 -1219.604)" fill="#f89f1b"/>
        </g>
        <g id="Group_2" data-name="Group 2" transform="translate(53.473)">
          <path id="Path_5" data-name="Path 5" d="M2022.6,1105.479a1.065,1.065,0,0,1-.635-1.92q1.722-1.275,3.492-2.5a1.065,1.065,0,1,1,1.211,1.753q-1.741,1.2-3.436,2.457A1.059,1.059,0,0,1,2022.6,1105.479Z" transform="translate(-2021.534 -1077.393)" fill="#f89f1b"/>
          <path id="Path_6" data-name="Path 6" d="M2238.924,1212.9c-.028,0-.055,0-.084,0a1.065,1.065,0,0,1-.979-1.144c.22-2.86.346-5.768.376-8.643a1.066,1.066,0,0,1,1.065-1.054h.012a1.066,1.066,0,0,1,1.054,1.076c-.031,2.923-.159,5.879-.383,8.785A1.064,1.064,0,0,1,2238.924,1212.9Zm-.241-22.87a1.065,1.065,0,0,1-1.059-.961c-.28-2.853-.661-5.74-1.131-8.578a1.065,1.065,0,0,1,2.1-.348c.479,2.885.865,5.817,1.15,8.718a1.066,1.066,0,0,1-.956,1.164C2238.752,1190.029,2238.717,1190.03,2238.683,1190.03Zm-4.205-22.483a1.064,1.064,0,0,1-1.024-.78c-.77-2.76-1.644-5.537-2.6-8.256a1.065,1.065,0,1,1,2.01-.7c.968,2.762,1.855,5.584,2.637,8.388a1.066,1.066,0,0,1-.74,1.313A1.088,1.088,0,0,1,2234.478,1167.547Zm-8-21.429a1.065,1.065,0,0,1-.963-.609c-1.232-2.6-2.564-5.184-3.961-7.691a1.065,1.065,0,1,1,1.86-1.037c1.42,2.547,2.775,5.177,4.025,7.815a1.064,1.064,0,0,1-.961,1.521Zm-11.545-19.739a1.061,1.061,0,0,1-.87-.449c-1.661-2.344-3.421-4.66-5.229-6.884a1.065,1.065,0,1,1,1.651-1.344c1.839,2.261,3.627,4.615,5.315,7a1.065,1.065,0,0,1-.867,1.681Zm-14.786-17.425a1.061,1.061,0,0,1-.749-.308c-2.039-2.017-4.173-3.994-6.346-5.875a1.065,1.065,0,0,1,1.394-1.61c2.208,1.912,4.379,3.921,6.449,5.971a1.065,1.065,0,0,1-.748,1.822Zm-17.585-14.608a1.063,1.063,0,0,1-.606-.19c-2.362-1.638-4.807-3.218-7.266-4.695a1.065,1.065,0,1,1,1.1-1.827c2.5,1.5,4.984,3.106,7.385,4.771a1.066,1.066,0,0,1-.609,1.941Zm-138.6-7.57a1.065,1.065,0,0,1-.509-2c2.562-1.39,5.207-2.715,7.862-3.936a1.065,1.065,0,0,1,.89,1.934c-2.611,1.2-5.214,2.505-7.737,3.873A1.05,1.05,0,0,1,2043.966,1086.777Zm118.753-3.8a1.056,1.056,0,0,1-.447-.1c-2.606-1.207-5.285-2.344-7.966-3.379a1.065,1.065,0,0,1,.767-1.987c2.723,1.051,5.446,2.207,8.094,3.434a1.065,1.065,0,0,1-.449,2.031Zm-97.786-5.343a1.065,1.065,0,0,1-.341-2.075c2.77-.936,5.6-1.79,8.418-2.54a1.065,1.065,0,1,1,.547,2.059c-2.771.738-5.559,1.579-8.283,2.5A1.055,1.055,0,0,1,2064.933,1077.636Zm76.288-2.455a1.066,1.066,0,0,1-.277-.036c-2.774-.743-5.61-1.4-8.427-1.962a1.065,1.065,0,0,1,.415-2.09c2.863.568,5.745,1.239,8.564,1.995a1.065,1.065,0,0,1-.274,2.094Zm-54.069-2.972a1.065,1.065,0,0,1-.161-2.118c2.885-.444,5.823-.8,8.732-1.048a1.05,1.05,0,0,1,1.153.969,1.064,1.064,0,0,1-.969,1.153c-2.861.248-5.752.6-8.591,1.032A1.124,1.124,0,0,1,2087.151,1072.209Zm31.544-1.014c-.031,0-.063,0-.095,0-2.861-.254-5.769-.414-8.64-.477a1.065,1.065,0,0,1-1.042-1.088,1.08,1.08,0,0,1,1.088-1.042c2.919.065,5.875.227,8.781.485a1.065,1.065,0,0,1-.092,2.126Z" transform="translate(-2027.363 -1068.584)" fill="#f89f1b"/>
          <path id="Path_7" data-name="Path 7" d="M2308.343,1289.842a1.114,1.114,0,0,1-.231-.025,1.066,1.066,0,0,1-.81-1.27q.456-2.06.845-4.138a1.064,1.064,0,1,1,2.092.393q-.4,2.11-.857,4.205A1.066,1.066,0,0,1,2308.343,1289.842Z" transform="translate(-2099.49 -1127.228)" fill="#f89f1b"/>
        </g>
        <g id="Group_5" data-name="Group 5" transform="translate(32.378 33.689)">
          <g id="Group_3" data-name="Group 3">
            <path id="Path_8" data-name="Path 8" d="M2189.007,1248.527a1.587,1.587,0,0,0-.312-1.815l-13.7-13.595a84.111,84.111,0,0,0,1.552-27.2l15.143-11.951a1.585,1.585,0,0,0,.515-1.768l-7.635-21.859a1.588,1.588,0,0,0-1.5-1.063l-19.291.077a84.079,84.079,0,0,0-18.149-20.317l2.259-19.171a1.585,1.585,0,0,0-.886-1.614L2126.14,1118.2a1.586,1.586,0,0,0-1.815.312l-13.595,13.7a84.076,84.076,0,0,0-27.2-1.552l-11.951-15.143a1.584,1.584,0,0,0-1.768-.515l-21.859,7.635a1.586,1.586,0,0,0-1.063,1.5l.077,19.291a84.077,84.077,0,0,0-20.317,18.149l-19.171-2.259a1.587,1.587,0,0,0-1.614.886l-10.057,20.855a1.586,1.586,0,0,0,.311,1.815l13.7,13.595a84.083,84.083,0,0,0-1.552,27.2l-15.144,11.951a1.586,1.586,0,0,0-.515,1.768l7.635,21.859a1.586,1.586,0,0,0,1.5,1.063l19.291-.077a84.07,84.07,0,0,0,18.15,20.317l-2.259,19.171a1.587,1.587,0,0,0,.886,1.614l20.856,10.058a1.586,1.586,0,0,0,1.815-.312l13.595-13.7a84.084,84.084,0,0,0,27.2,1.552l11.951,15.144a1.585,1.585,0,0,0,1.768.514l21.858-7.635a1.586,1.586,0,0,0,1.063-1.5l-.077-19.291a84.1,84.1,0,0,0,20.318-18.149l19.17,2.259a1.587,1.587,0,0,0,1.615-.886Z" transform="translate(-1992.525 -1114.913)" fill="#25cbe8"/>
          </g>
          <g id="Group_4" data-name="Group 4" transform="translate(78.252 78.251)">
            <path id="Path_9" data-name="Path 9" d="M2121.8,1265.771a21.616,21.616,0,1,1,11.878-3.57A21.622,21.622,0,0,1,2121.8,1265.771Zm-.073-41.118a19.546,19.546,0,1,0,3.953.4A19.742,19.742,0,0,0,2121.726,1224.653Z" transform="translate(-2100.135 -1222.522)" fill="#d2fdfd"/>
          </g>
          <path id="Path_10" data-name="Path 10" d="M2107.938,1287.593a56.9,56.9,0,1,1,56.329-64.944q.073.515.137,1.031a1.166,1.166,0,0,1,.008.132,1.065,1.065,0,0,1-2.122.131,55.161,55.161,0,0,0-2.664-11.361,54.786,54.786,0,1,0-9.662,53.2,1.065,1.065,0,0,1,1.637,1.364,56.995,56.995,0,0,1-43.663,20.448Z" transform="translate(-2008.464 -1130.948)" fill="#d2fdfd"/>
        </g>
      </g>
      <g id="Group_13" data-name="Group 13" transform="translate(259.899 332.257)">
        <g id="Group_12" data-name="Group 12" transform="translate(49.132)">
          <path id="Path_19" data-name="Path 19" d="M1545.834,1133.979a17.338,17.338,0,0,1-17.3,17.28H593.218a17.339,17.339,0,0,1-17.3-17.28l-7.783-537.5c0-9.5,11.2-28.058,31.718-26.664l914.1-23.652a43.586,43.586,0,0,1,44.724,44.579Z" transform="translate(-568.138 -546.146)" fill="#0992ac"/>
          <path id="Path_20" data-name="Path 20" d="M1537.736,1125.092a16.411,16.411,0,0,1-16.364,16.363H624.75a16.412,16.412,0,0,1-16.364-16.363l-7.344-487.95c.865-29.364,26.609-39.917,42.215-39.294l876.08-23.5a30.634,30.634,0,0,1,31.427,31.348Z" transform="translate(-577.115 -553.836)" fill="#d2fdfd"/>
          <g id="Group_11" data-name="Group 11" transform="translate(36.077 46.975)">
            <path id="Path_21" data-name="Path 21" d="M623.786,995.568a1.236,1.236,0,0,1-1.235-1.217l-.581-39.572a1.236,1.236,0,0,1,1.217-1.254h.019a1.237,1.237,0,0,1,1.235,1.218l.581,39.572a1.236,1.236,0,0,1-1.217,1.254Z" transform="translate(-618.901 -704.262)" fill="#fff" opacity="0.37"/>
            <path id="Path_22" data-name="Path 22" d="M621.211,805.079a1.237,1.237,0,0,1-1.235-1.217L617.75,652.3c.046-10.1,3.155-18.162,9.242-24,11.081-10.618,28.416-10.077,29.156-10.054l279.777-7.508a1.236,1.236,0,0,1,.066,2.472l-279.848,7.508c-.782-.036-17.111-.531-27.442,9.367-5.585,5.351-8.438,12.819-8.481,22.2l2.226,151.536a1.236,1.236,0,0,1-1.217,1.254Z" transform="translate(-617.75 -610.745)" fill="#fff"/>
          </g>
          <path id="Path_23" data-name="Path 23" d="M664.787,1031.3c.939-33.665.589-331.779-1.725-357.525S708.784,643.2,782.535,640.3s696.012-14.369,712.034-15.453c36.013-2.438,43.468,42.5,39.865,140.044-2.707,73.287-7.193,194.015-9.257,249.534-.615,16.531-16.8,29.648-36.615,29.693-149.742.344-723.657,1.717-761.863,2.666C682.731,1047.876,664.415,1044.645,664.787,1031.3Z" transform="translate(-594.013 -567.591)" fill="#25cbe8" opacity="0.37"/>
        </g>
        <rect id="Rectangle_2" data-name="Rectangle 2" width="1102.706" height="47.227" rx="10.264" transform="translate(0 602.506)" fill="#0992ac"/>
      </g>
      <g id="Group_19" data-name="Group 19" transform="translate(134.898 94.812)">
        <g id="Group_14" data-name="Group 14">
          <rect id="Rectangle_3" data-name="Rectangle 3" width="421.127" height="437.734" rx="43.373" fill="#0992ac"/>
          <rect id="Rectangle_4" data-name="Rectangle 4" width="381.284" height="413.316" rx="43.373" transform="translate(20.286 12.826)" fill="#25cbe8"/>
        </g>
        <rect id="Rectangle_5" data-name="Rectangle 5" width="251.622" height="26.229" rx="13.114" transform="translate(33.107 24.428)" fill="#83e2f2"/>
        <g id="Group_15" data-name="Group 15" transform="translate(297.134 27.789)">
          <path id="Path_24" data-name="Path 24" d="M748.02,278.058c-5.919,0-10.734-4.537-10.734-10.113s4.815-10.113,10.734-10.113,10.733,4.537,10.733,10.113S753.938,278.058,748.02,278.058Zm0-17.414c-4.368,0-7.922,3.275-7.922,7.3s3.554,7.3,7.922,7.3,7.921-3.275,7.921-7.3S752.387,260.644,748.02,260.644Z" transform="translate(-737.286 -257.832)" fill="url(#linear-gradient)"/>
          <path id="Path_25" data-name="Path 25" d="M797.978,278.058c-5.919,0-10.733-4.537-10.733-10.113s4.815-10.113,10.733-10.113,10.733,4.537,10.733,10.113S803.9,278.058,797.978,278.058Zm0-17.414c-4.368,0-7.922,3.275-7.922,7.3s3.554,7.3,7.922,7.3,7.922-3.275,7.922-7.3S802.346,260.644,797.978,260.644Z" transform="translate(-750.916 -257.832)" fill="url(#linear-gradient)"/>
          <path id="Path_26" data-name="Path 26" d="M847.936,278.058c-5.919,0-10.733-4.537-10.733-10.113s4.815-10.113,10.733-10.113,10.734,4.537,10.734,10.113S853.855,278.058,847.936,278.058Zm0-17.414c-4.367,0-7.922,3.275-7.922,7.3s3.554,7.3,7.922,7.3,7.922-3.275,7.922-7.3S852.3,260.644,847.936,260.644Z" transform="translate(-764.545 -257.832)" fill="url(#linear-gradient)"/>
        </g>
        <path id="Path_27" data-name="Path 27" d="M615.178,275.038H391.856a5.518,5.518,0,1,1,0-11.036H615.178a5.518,5.518,0,1,1,0,11.036Z" transform="translate(-344.406 -231.726)" fill="#fff" opacity="0.43"/>
        <path id="Path_30" data-name="Path 30" d="M714.2,379.08H404.114a6.444,6.444,0,0,1,0-12.887H714.2a6.444,6.444,0,1,1,0,12.887Z" transform="translate(-347.498 -259.606)" fill="#d8fdfd" opacity="0.4"/>
        <path id="Path_31" data-name="Path 31" d="M681.754,344.079h-215.8a6.444,6.444,0,1,1,0-12.887h215.8a6.444,6.444,0,1,1,0,12.887Z" transform="translate(-364.369 -250.057)" fill="#d8fdfd" opacity="0.4"/>
        <g id="Group_18" data-name="Group 18" transform="translate(57.35 140.261)">
          <rect id="Rectangle_6" data-name="Rectangle 6" width="310.043" height="258.829" rx="15" fill="#d8fdfd" opacity="0.4"/>
          <g id="Group_17" data-name="Group 17" transform="translate(19.853 12.177)">
            <path id="Path_32" data-name="Path 32" d="M697.617,442.133H441.791a6.444,6.444,0,1,1,0-12.887H697.617a6.444,6.444,0,1,1,0,12.887Z" transform="translate(-434.98 -429.246)" fill="#9becf6"/>
            <path id="Path_33" data-name="Path 33" d="M697.3,475.966H441.47a6.444,6.444,0,0,1,0-12.887H697.3a6.444,6.444,0,1,1,0,12.887Z" transform="translate(-434.892 -438.476)" fill="#9becf6"/>
            <path id="Path_34" data-name="Path 34" d="M698.307,511.934H442.481a6.444,6.444,0,1,1,0-12.887H698.307a6.444,6.444,0,1,1,0,12.887Z" transform="translate(-435.168 -448.289)" fill="#9becf6"/>
            <path id="Path_35" data-name="Path 35" d="M697.986,545.767H442.16a6.444,6.444,0,1,1,0-12.887H697.986a6.444,6.444,0,1,1,0,12.887Z" transform="translate(-435.08 -457.519)" fill="#9becf6"/>
            <path id="Path_36" data-name="Path 36" d="M697.444,576.7H441.618a6.444,6.444,0,1,1,0-12.887H697.444a6.444,6.444,0,0,1,0,12.887Z" transform="translate(-434.933 -465.959)" fill="#9becf6"/>
            <path id="Path_37" data-name="Path 37" d="M697.123,610.533H441.3a6.444,6.444,0,0,1,0-12.887H697.123a6.444,6.444,0,0,1,0,12.887Z" transform="translate(-434.845 -475.189)" fill="#9becf6"/>
            <path id="Path_38" data-name="Path 38" d="M698.134,646.5H442.308a6.444,6.444,0,1,1,0-12.887H698.134a6.444,6.444,0,1,1,0,12.887Z" transform="translate(-435.121 -485.002)" fill="#9becf6"/>
            <path id="Path_39" data-name="Path 39" d="M697.813,680.334H441.987a6.444,6.444,0,0,1,0-12.887H697.813a6.444,6.444,0,0,1,0,12.887Z" transform="translate(-435.033 -494.232)" fill="#9becf6"/>
            <path id="Path_40" data-name="Path 40" d="M697.112,712.306H441.286a6.444,6.444,0,1,1,0-12.887H697.112a6.444,6.444,0,0,1,0,12.887Z" transform="translate(-434.842 -502.955)" fill="#9becf6"/>
            <path id="Path_41" data-name="Path 41" d="M698.123,748.274H442.3a6.444,6.444,0,1,1,0-12.887H698.123a6.444,6.444,0,0,1,0,12.887Z" transform="translate(-435.118 -512.767)" fill="#9becf6"/>
          </g>
        </g>
      </g>
      <g id="Group_25" data-name="Group 25" transform="translate(1058.548)">
        <g id="Group_23" data-name="Group 23" transform="translate(0 26.071)">
          <path id="Path_42" data-name="Path 42" d="M1830.612,536.462a1.757,1.757,0,0,1-.017-3.514c1.612-.015,3.249-.053,4.867-.111a1.757,1.757,0,1,1,.127,3.512c-1.649.06-3.318.1-4.961.114Zm-4.919-.02h-.031c-1.661-.03-3.332-.082-4.965-.156a1.757,1.757,0,1,1,.158-3.51c1.6.071,3.24.123,4.869.151a1.758,1.758,0,0,1-.031,3.515Zm14.744-.337a1.757,1.757,0,0,1-.11-3.511c1.61-.1,3.245-.229,4.858-.375a1.758,1.758,0,0,1,.317,3.5c-1.644.148-3.31.277-4.951.382Zm-24.571-.1c-.042,0-.084,0-.127,0-1.656-.119-3.322-.261-4.95-.423a1.757,1.757,0,1,1,.348-3.5c1.6.159,3.228.3,4.852.415a1.757,1.757,0,0,1-.124,3.509Zm34.367-.788a1.758,1.758,0,0,1-.205-3.5c1.626-.193,3.251-.408,4.83-.639a1.757,1.757,0,1,1,.508,3.477c-1.609.236-3.266.455-4.923.652A1.855,1.855,0,0,1,1850.234,535.215Zm-44.156-.181a1.772,1.772,0,0,1-.223-.014c-1.648-.209-3.3-.442-4.92-.694a1.757,1.757,0,1,1,.54-3.473c1.584.246,3.207.475,4.823.679a1.758,1.758,0,0,1-.22,3.5Zm53.891-1.243a1.757,1.757,0,0,1-.3-3.488c1.6-.279,3.207-.583,4.787-.9a1.757,1.757,0,0,1,.7,3.445c-1.611.327-3.253.637-4.881.921A1.747,1.747,0,0,1,1859.968,533.791Zm-63.612-.263a1.768,1.768,0,0,1-.319-.028c-1.616-.3-3.256-.62-4.874-.963a1.757,1.757,0,1,1,.728-3.437c1.586.335,3.194.652,4.778.943a1.757,1.757,0,0,1-.314,3.485Zm73.254-1.693a1.758,1.758,0,0,1-.4-3.47c1.57-.365,3.162-.757,4.73-1.166a1.757,1.757,0,0,1,.887,3.4c-1.6.417-3.221.817-4.823,1.189A1.747,1.747,0,0,1,1869.61,531.835Zm-82.879-.343a1.751,1.751,0,0,1-.412-.049c-1.606-.386-3.225-.8-4.813-1.229a1.757,1.757,0,1,1,.916-3.392c1.557.42,3.145.825,4.719,1.2a1.758,1.758,0,0,1-.41,3.466Zm92.4-2.143a1.758,1.758,0,0,1-.49-3.445c1.548-.45,3.115-.929,4.657-1.424a1.757,1.757,0,0,1,1.075,3.346c-1.574.5-3.172.994-4.751,1.453A1.74,1.74,0,0,1,1879.129,529.349Zm-101.9-.421a1.741,1.741,0,0,1-.505-.075c-1.582-.474-3.176-.976-4.74-1.493a1.758,1.758,0,0,1,1.1-3.338c1.532.507,3.095,1,4.646,1.464a1.758,1.758,0,0,1-.5,3.442Zm111.263-2.585a1.758,1.758,0,0,1-.582-3.416c1.52-.534,3.058-1.1,4.572-1.68a1.758,1.758,0,0,1,1.257,3.283c-1.544.59-3.112,1.166-4.663,1.713A1.758,1.758,0,0,1,1888.5,526.343Zm-120.622-.505a1.735,1.735,0,0,1-.6-.105c-1.564-.564-3.133-1.156-4.663-1.758a1.757,1.757,0,0,1,1.286-3.27c1.5.59,3.037,1.169,4.571,1.723a1.758,1.758,0,0,1-.6,3.411Zm129.794-3.007a1.758,1.758,0,0,1-.675-3.381c1.483-.616,2.983-1.262,4.459-1.923a1.757,1.757,0,1,1,1.435,3.208c-1.5.673-3.035,1.332-4.546,1.96A1.737,1.737,0,0,1,1897.668,522.831Zm-138.977-.6a1.756,1.756,0,0,1-.687-.14c-1.531-.651-3.064-1.328-4.557-2.012a1.757,1.757,0,0,1,1.464-3.194c1.463.67,2.966,1.334,4.467,1.972a1.757,1.757,0,0,1-.688,3.375Zm147.93-3.4a1.758,1.758,0,0,1-.763-3.341c1.456-.7,2.919-1.43,4.349-2.166a1.757,1.757,0,0,1,1.609,3.125c-1.458.751-2.95,1.494-4.435,2.208A1.746,1.746,0,0,1,1906.62,518.825Zm-156.9-.7a1.748,1.748,0,0,1-.774-.181c-1.5-.736-2.988-1.5-4.437-2.259a1.757,1.757,0,1,1,1.639-3.109c1.42.748,2.883,1.494,4.349,2.215a1.758,1.758,0,0,1-.777,3.335Zm165.62-3.792a1.757,1.757,0,0,1-.849-3.3c1.408-.774,2.83-1.582,4.226-2.4a1.757,1.757,0,1,1,1.778,3.032c-1.424.836-2.874,1.659-4.31,2.449A1.75,1.75,0,0,1,1915.345,514.331Zm-174.342-.8a1.75,1.75,0,0,1-.86-.226c-1.441-.81-2.889-1.651-4.3-2.5a1.758,1.758,0,0,1,1.8-3.016c1.387.83,2.806,1.654,4.22,2.45a1.757,1.757,0,0,1-.863,3.289Zm182.811-4.165a1.757,1.757,0,0,1-.932-3.248c1.364-.852,2.741-1.737,4.09-2.63a1.757,1.757,0,1,1,1.941,2.93c-1.377.913-2.78,1.814-4.171,2.683A1.751,1.751,0,0,1,1923.814,509.364Zm-191.263-.9a1.752,1.752,0,0,1-.943-.275c-1.38-.88-2.779-1.8-4.157-2.729a1.757,1.757,0,1,1,1.968-2.912c1.352.913,2.724,1.814,4.078,2.676a1.757,1.757,0,0,1-.945,3.24ZM1932,503.939a1.757,1.757,0,0,1-1.011-3.2c1.316-.923,2.643-1.883,3.942-2.85a1.757,1.757,0,0,1,2.1,2.819c-1.326.987-2.679,1.965-4.022,2.907A1.745,1.745,0,0,1,1932,503.939Zm-207.611-.99a1.749,1.749,0,0,1-1.022-.329c-1.341-.961-2.687-1.954-4-2.951a1.757,1.757,0,0,1,2.125-2.8c1.288.977,2.609,1.951,3.923,2.893a1.757,1.757,0,0,1-1.025,3.186Zm215.495-4.876a1.757,1.757,0,0,1-1.088-3.138c1.268-1,2.541-2.028,3.783-3.061a1.757,1.757,0,1,1,2.249,2.7c-1.267,1.055-2.565,2.106-3.859,3.124A1.752,1.752,0,0,1,1939.887,498.073ZM1716.549,497a1.748,1.748,0,0,1-1.1-.388c-1.276-1.024-2.565-2.088-3.831-3.163a1.757,1.757,0,1,1,2.273-2.68c1.243,1.054,2.508,2.1,3.759,3.1a1.758,1.758,0,0,1-1.1,3.128Zm230.893-5.214a1.758,1.758,0,0,1-1.161-3.077c1.216-1.068,2.431-2.167,3.613-3.264a1.757,1.757,0,0,1,2.392,2.574c-1.2,1.12-2.444,2.24-3.683,3.33A1.75,1.75,0,0,1,1947.442,491.784Zm-238.4-1.156a1.752,1.752,0,0,1-1.172-.449c-1.23-1.1-2.459-2.235-3.653-3.366a1.758,1.758,0,1,1,2.417-2.552c1.171,1.11,2.376,2.22,3.582,3.3a1.757,1.757,0,0,1-1.174,3.066Zm245.6-5.537a1.757,1.757,0,0,1-1.23-3.012c1.153-1.132,2.307-2.295,3.43-3.458a1.757,1.757,0,1,1,2.528,2.441c-1.145,1.186-2.321,2.372-3.5,3.526A1.752,1.752,0,0,1,1954.647,485.091ZM1701.9,483.864a1.751,1.751,0,0,1-1.243-.515c-1.161-1.161-2.326-2.358-3.463-3.559a1.757,1.757,0,1,1,2.551-2.416c1.115,1.177,2.259,2.352,3.4,3.49a1.758,1.758,0,0,1-1.243,3Zm259.575-5.851a1.757,1.757,0,0,1-1.3-2.943c1.083-1.185,2.173-2.41,3.239-3.64a1.757,1.757,0,1,1,2.657,2.3c-1.087,1.256-2.2,2.5-3.3,3.713A1.755,1.755,0,0,1,1961.479,478.013Zm-266.337-1.29a1.752,1.752,0,0,1-1.309-.585c-1.1-1.227-2.2-2.487-3.264-3.741a1.758,1.758,0,0,1,2.68-2.274c1.043,1.23,2.12,2.464,3.2,3.669a1.758,1.758,0,0,1-1.308,2.931Zm272.776-6.152a1.758,1.758,0,0,1-1.359-2.871c1.023-1.249,2.045-2.532,3.036-3.813a1.757,1.757,0,1,1,2.779,2.151c-1.011,1.307-2.053,2.615-3.1,3.888A1.755,1.755,0,0,1,1967.918,470.571Zm-279.137-1.345a1.752,1.752,0,0,1-1.371-.657c-1.028-1.281-2.056-2.6-3.054-3.912a1.758,1.758,0,0,1,2.8-2.126c.979,1.29,1.987,2.581,3,3.836a1.757,1.757,0,0,1-1.369,2.858Zm285.163-6.44a1.757,1.757,0,0,1-1.417-2.8c.951-1.3,1.9-2.637,2.824-3.973a1.757,1.757,0,1,1,2.893,2c-.94,1.363-1.91,2.726-2.88,4.053A1.755,1.755,0,0,1,1973.944,462.787Zm-291.1-1.388a1.755,1.755,0,0,1-1.43-.733c-.955-1.333-1.909-2.7-2.835-4.07a1.758,1.758,0,0,1,2.911-1.971c.908,1.343,1.843,2.685,2.78,3.992a1.758,1.758,0,0,1-1.427,2.781Zm296.7-6.717a1.757,1.757,0,0,1-1.471-2.715c.884-1.358,1.759-2.747,2.6-4.125a1.757,1.757,0,0,1,3,1.835c-.861,1.406-1.754,2.821-2.655,4.206A1.755,1.755,0,0,1,1979.538,454.682Zm-302.2-1.42a1.756,1.756,0,0,1-1.484-.813c-.888-1.393-1.765-2.813-2.608-4.218a1.757,1.757,0,1,1,3.015-1.806c.826,1.377,1.686,2.77,2.557,4.136a1.757,1.757,0,0,1-1.481,2.7Zm307.344-6.983a1.757,1.757,0,0,1-1.521-2.634c.8-1.4,1.6-2.832,2.374-4.262a1.758,1.758,0,0,1,3.094,1.668c-.787,1.459-1.6,2.921-2.422,4.347A1.757,1.757,0,0,1,1984.681,446.278Zm-312.392-1.438a1.757,1.757,0,0,1-1.533-.9c-.808-1.435-1.606-2.9-2.372-4.353a1.757,1.757,0,0,1,3.109-1.639c.751,1.425,1.534,2.861,2.326,4.268a1.758,1.758,0,0,1-1.53,2.619Zm317.069-7.235a1.758,1.758,0,0,1-1.568-2.549c.729-1.446,1.447-2.923,2.136-4.39a1.758,1.758,0,0,1,3.181,1.5c-.7,1.5-1.436,3-2.179,4.477A1.757,1.757,0,0,1,1989.358,437.6Zm-321.647-1.445a1.759,1.759,0,0,1-1.578-.981c-.727-1.476-1.443-2.982-2.128-4.474a1.757,1.757,0,1,1,3.194-1.466c.671,1.462,1.373,2.939,2.087,4.386a1.759,1.759,0,0,1-1.575,2.535Zm325.841-7.48a1.758,1.758,0,0,1-1.609-2.461c.647-1.484,1.284-3,1.892-4.5a1.757,1.757,0,0,1,3.258,1.317c-.62,1.534-1.27,3.079-1.93,4.591A1.758,1.758,0,0,1,1993.552,428.679Zm-329.935-1.434a1.758,1.758,0,0,1-1.617-1.069c-.645-1.513-1.277-3.054-1.878-4.581a1.757,1.757,0,1,1,3.27-1.288c.59,1.5,1.209,3.008,1.841,4.491a1.758,1.758,0,0,1-1.616,2.447Zm333.632-7.712a1.759,1.759,0,0,1-1.647-2.371c.569-1.527,1.121-3.075,1.641-4.6a1.757,1.757,0,0,1,3.327,1.134c-.531,1.558-1.094,3.139-1.674,4.7A1.758,1.758,0,0,1,1997.25,419.533Zm-337.233-1.425a1.758,1.758,0,0,1-1.652-1.16c-.564-1.555-1.111-3.133-1.628-4.693a1.758,1.758,0,0,1,3.336-1.107c.507,1.53,1.043,3.077,1.6,4.6a1.76,1.76,0,0,1-1.653,2.357Zm340.421-7.918a1.76,1.76,0,0,1-1.679-2.279c.477-1.538.942-3.109,1.38-4.671a1.757,1.757,0,1,1,3.384.948c-.447,1.594-.92,3.2-1.407,4.764A1.758,1.758,0,0,1,2000.437,410.19Zm-343.518-1.42a1.758,1.758,0,0,1-1.682-1.25c-.473-1.571-.934-3.179-1.368-4.776a1.758,1.758,0,1,1,3.392-.921c.425,1.566.876,3.142,1.34,4.682a1.758,1.758,0,0,1-1.683,2.265Zm346.175-8.053a1.734,1.734,0,0,1-.428-.053,1.757,1.757,0,0,1-1.278-2.131c.395-1.577.771-3.173,1.119-4.741a1.757,1.757,0,1,1,3.432.76c-.355,1.6-.739,3.227-1.142,4.835A1.758,1.758,0,0,1,2003.094,400.717Zm-348.753-1.441a1.759,1.759,0,0,1-1.707-1.345c-.388-1.6-.759-3.234-1.1-4.845a1.757,1.757,0,1,1,3.437-.732c.336,1.579.7,3.176,1.08,4.749a1.756,1.756,0,0,1-1.294,2.121A1.775,1.775,0,0,1,1654.341,399.277Zm350.882-8.165a1.822,1.822,0,0,1-.335-.031,1.757,1.757,0,0,1-1.392-2.059c.305-1.587.594-3.2.857-4.8a1.757,1.757,0,1,1,3.468.571c-.268,1.627-.562,3.272-.874,4.89A1.757,1.757,0,0,1,2005.223,391.112Zm-352.932-1.458a1.757,1.757,0,0,1-1.726-1.439c-.3-1.621-.58-3.269-.833-4.9a1.757,1.757,0,0,1,3.472-.542c.249,1.6.524,3.213.817,4.8a1.758,1.758,0,0,1-1.409,2.047A1.731,1.731,0,0,1,1652.291,389.654Zm354.53-8.248a1.679,1.679,0,0,1-.24-.017,1.757,1.757,0,0,1-1.5-1.978c.219-1.6.419-3.229.594-4.836a1.757,1.757,0,1,1,3.494.38c-.178,1.639-.382,3.3-.605,4.93A1.757,1.757,0,0,1,2006.821,381.406Zm-356.049-1.471a1.757,1.757,0,0,1-1.74-1.534c-.21-1.64-.4-3.3-.563-4.936a1.757,1.757,0,1,1,3.5-.35c.161,1.6.348,3.232.553,4.839a1.757,1.757,0,0,1-1.52,1.966A1.829,1.829,0,0,1,1650.773,379.935Zm357.112-8.309c-.048,0-.1,0-.145-.006a1.758,1.758,0,0,1-1.609-1.894c.131-1.608.241-3.243.329-4.861a1.757,1.757,0,0,1,3.509.19c-.089,1.649-.2,3.317-.334,4.956A1.757,1.757,0,0,1,2007.885,371.626Zm-358.094-1.479a1.757,1.757,0,0,1-1.751-1.63c-.119-1.634-.219-3.3-.295-4.957a1.757,1.757,0,0,1,3.511-.162c.074,1.625.172,3.261.289,4.864a1.757,1.757,0,0,1-1.625,1.88C1649.877,370.145,1649.834,370.147,1649.791,370.147Zm358.623-8.344h-.049a1.757,1.757,0,0,1-1.709-1.8c.043-1.61.065-3.249.065-4.871a1.727,1.727,0,0,0-.01-1.918c-.017-1.615-.057-3.252-.117-4.866a1.757,1.757,0,0,1,3.512-.132c.062,1.645.1,3.314.119,4.96a1.791,1.791,0,0,0,.01,1.955c0,1.653-.023,3.324-.067,4.966A1.757,1.757,0,0,1,2008.415,361.8Zm-359.073-1.484a1.756,1.756,0,0,1-1.756-1.724q-.033-1.73-.033-3.466,0-.752.006-1.5a1.758,1.758,0,1,1,3.515.029q-.007.735-.007,1.471,0,1.7.032,3.4a1.758,1.758,0,0,1-1.724,1.79Zm.081-9.837h-.063a1.757,1.757,0,0,1-1.694-1.818c.058-1.647.139-3.316.241-4.96a1.757,1.757,0,1,1,3.508.218c-.1,1.612-.18,3.249-.236,4.866A1.758,1.758,0,0,1,1649.423,350.481Zm358.676-5.358a1.758,1.758,0,0,1-1.752-1.644c-.1-1.619-.233-3.253-.38-4.857a1.757,1.757,0,1,1,3.5-.322c.151,1.635.281,3.3.388,4.953a1.757,1.757,0,0,1-1.64,1.867C2008.175,345.122,2008.137,345.123,2008.1,345.123Zm-358.064-4.461c-.052,0-.105,0-.158-.007a1.757,1.757,0,0,1-1.594-1.907c.147-1.641.319-3.3.51-4.941a1.757,1.757,0,1,1,3.49.409c-.187,1.606-.356,3.235-.5,4.844A1.758,1.758,0,0,1,1650.035,340.663Zm357.162-5.336a1.758,1.758,0,0,1-1.743-1.548c-.191-1.6-.408-3.227-.645-4.828a1.758,1.758,0,0,1,3.477-.513c.241,1.634.463,3.29.657,4.924a1.757,1.757,0,0,1-1.536,1.953A1.872,1.872,0,0,1,2007.2,335.327Zm-356.017-4.435a1.785,1.785,0,0,1-.255-.017,1.758,1.758,0,0,1-1.486-1.992c.236-1.626.5-3.277.78-4.906a1.758,1.758,0,0,1,3.464.6c-.276,1.6-.534,3.216-.765,4.81A1.758,1.758,0,0,1,1651.179,330.892Zm354.581-5.3a1.757,1.757,0,0,1-1.728-1.453c-.278-1.588-.585-3.2-.909-4.786a1.758,1.758,0,0,1,3.444-.7c.331,1.62.643,3.262.926,4.881a1.756,1.756,0,0,1-1.427,2.035A1.687,1.687,0,0,1,2005.76,325.595Zm-352.9-4.4a1.734,1.734,0,0,1-.349-.035,1.757,1.757,0,0,1-1.376-2.07c.325-1.61.678-3.244,1.049-4.855a1.757,1.757,0,1,1,3.425.788c-.364,1.58-.71,3.183-1.028,4.762A1.757,1.757,0,0,1,1652.858,321.2Zm350.936-5.243a1.758,1.758,0,0,1-1.71-1.359c-.367-1.574-.761-3.165-1.171-4.727a1.757,1.757,0,1,1,3.4-.892c.418,1.593.82,3.216,1.195,4.822a1.757,1.757,0,0,1-1.312,2.11A1.733,1.733,0,0,1,2003.793,315.957Zm-348.727-4.343a1.761,1.761,0,0,1-1.7-2.2c.414-1.594.857-3.205,1.315-4.791a1.757,1.757,0,0,1,3.376.976c-.449,1.555-.884,3.136-1.289,4.7A1.758,1.758,0,0,1,1655.066,311.613Zm346.231-5.171a1.759,1.759,0,0,1-1.686-1.265c-.454-1.553-.935-3.12-1.43-4.657a1.757,1.757,0,1,1,3.345-1.078c.505,1.568,1,3.165,1.459,4.748a1.76,1.76,0,0,1-1.688,2.251Zm-343.5-4.279a1.76,1.76,0,0,1-1.674-2.293c.5-1.575,1.035-3.165,1.583-4.727a1.758,1.758,0,1,1,3.317,1.162c-.537,1.532-1.059,3.092-1.552,4.635A1.758,1.758,0,0,1,1657.8,302.163Zm340.48-5.084a1.758,1.758,0,0,1-1.657-1.174c-.536-1.52-1.1-3.057-1.685-4.57a1.757,1.757,0,1,1,3.281-1.261c.593,1.542,1.171,3.111,1.718,4.661a1.76,1.76,0,0,1-1.657,2.343Zm-337.217-4.23a1.759,1.759,0,0,1-1.641-2.385c.588-1.539,1.206-3.1,1.84-4.63a1.757,1.757,0,1,1,3.248,1.344c-.621,1.5-1.229,3.03-1.8,4.54A1.759,1.759,0,0,1,1661.063,292.848Zm333.694-4.937a1.757,1.757,0,0,1-1.623-1.082c-.62-1.489-1.268-2.988-1.928-4.458a1.757,1.757,0,1,1,3.207-1.438c.672,1.5,1.334,3.027,1.965,4.545a1.759,1.759,0,0,1-1.622,2.433Zm-329.923-4.179a1.759,1.759,0,0,1-1.6-2.475c.674-1.51,1.378-3.03,2.093-4.518a1.757,1.757,0,1,1,3.168,1.521c-.7,1.459-1.391,2.949-2.052,4.43A1.757,1.757,0,0,1,1664.834,283.732Zm325.907-4.768a1.758,1.758,0,0,1-1.584-.995c-.7-1.453-1.43-2.915-2.17-4.346a1.757,1.757,0,0,1,3.123-1.613c.754,1.459,1.5,2.951,2.214,4.433a1.758,1.758,0,0,1-1.582,2.521Zm-321.64-4.121a1.759,1.759,0,0,1-1.561-2.562c.756-1.47,1.542-2.948,2.337-4.394a1.757,1.757,0,1,1,3.08,1.693c-.78,1.418-1.551,2.868-2.292,4.309A1.757,1.757,0,0,1,1669.1,274.843Zm317.136-4.6a1.759,1.759,0,0,1-1.541-.909c-.774-1.4-1.584-2.825-2.406-4.223a1.757,1.757,0,1,1,3.029-1.782c.839,1.426,1.665,2.875,2.454,4.308a1.757,1.757,0,0,1-1.537,2.606Zm-312.388-4.039a1.757,1.757,0,0,1-1.515-2.646c.833-1.422,1.7-2.853,2.574-4.256a1.757,1.757,0,1,1,2.982,1.859c-.857,1.376-1.707,2.781-2.524,4.175A1.757,1.757,0,0,1,1673.849,266.207Zm307.411-4.425a1.757,1.757,0,0,1-1.491-.825c-.859-1.373-1.746-2.749-2.635-4.088a1.757,1.757,0,0,1,2.928-1.944c.907,1.365,1.811,2.768,2.687,4.167a1.757,1.757,0,0,1-1.488,2.689Zm-302.2-3.934a1.757,1.757,0,0,1-1.464-2.727c.913-1.379,1.856-2.762,2.8-4.109a1.757,1.757,0,0,1,2.876,2.021c-.928,1.321-1.853,2.676-2.748,4.027A1.755,1.755,0,0,1,1679.062,257.848Zm296.764-4.25a1.756,1.756,0,0,1-1.438-.745c-.934-1.325-1.9-2.651-2.856-3.939a1.758,1.758,0,0,1,2.817-2.1c.979,1.314,1.96,2.666,2.912,4.016a1.758,1.758,0,0,1-1.435,2.77Zm-291.1-3.808a1.758,1.758,0,0,1-1.409-2.807c.985-1.324,2-2.651,3.022-3.947a1.757,1.757,0,0,1,2.761,2.175c-1,1.27-2,2.572-2.963,3.87A1.756,1.756,0,0,1,1684.722,249.79Zm285.228-4.068a1.755,1.755,0,0,1-1.381-.668c-1.007-1.276-2.039-2.548-3.067-3.78a1.757,1.757,0,1,1,2.7-2.251c1.048,1.256,2.1,2.552,3.127,3.853a1.757,1.757,0,0,1-1.378,2.846Zm-279.138-3.668a1.757,1.757,0,0,1-1.35-2.881c1.06-1.274,2.147-2.544,3.232-3.775a1.757,1.757,0,1,1,2.638,2.321c-1.062,1.208-2.129,2.453-3.168,3.7A1.754,1.754,0,0,1,1690.812,242.054Zm272.839-3.881a1.752,1.752,0,0,1-1.319-.595c-1.072-1.216-2.172-2.43-3.269-3.608a1.757,1.757,0,0,1,2.572-2.4c1.119,1.2,2.241,2.439,3.334,3.679a1.758,1.758,0,0,1-1.318,2.92Zm-266.339-3.507a1.757,1.757,0,0,1-1.286-2.954c1.128-1.214,2.282-2.422,3.431-3.592a1.757,1.757,0,0,1,2.507,2.462c-1.126,1.147-2.258,2.333-3.364,3.523A1.753,1.753,0,0,1,1697.312,234.666Zm259.636-3.69a1.749,1.749,0,0,1-1.253-.525c-1.129-1.148-2.294-2.3-3.462-3.426a1.758,1.758,0,0,1,2.438-2.532c1.192,1.147,2.379,2.323,3.53,3.493a1.757,1.757,0,0,1-1.254,2.989Zm-252.745-3.33a1.757,1.757,0,0,1-1.221-3.021c1.188-1.147,2.406-2.291,3.62-3.4a1.757,1.757,0,0,1,2.371,2.595c-1.19,1.089-2.385,2.21-3.55,3.333A1.75,1.75,0,0,1,1704.2,227.645Zm245.658-3.493a1.748,1.748,0,0,1-1.183-.459c-1.2-1.091-2.424-2.179-3.645-3.234a1.757,1.757,0,0,1,2.3-2.661c1.246,1.076,2.5,2.185,3.716,3.3a1.757,1.757,0,0,1-1.184,3.056Zm-238.4-3.141a1.757,1.757,0,0,1-1.15-3.086c1.248-1.08,2.526-2.155,3.8-3.2a1.757,1.757,0,1,1,2.226,2.72c-1.247,1.021-2.5,2.075-3.725,3.133A1.747,1.747,0,0,1,1711.463,221.011Zm230.948-3.29a1.749,1.749,0,0,1-1.109-.4c-1.261-1.029-2.545-2.049-3.818-3.032a1.757,1.757,0,1,1,2.148-2.781c1.3,1,2.607,2.041,3.892,3.091a1.758,1.758,0,0,1-1.113,3.119Zm-223.34-2.936a1.757,1.757,0,0,1-1.077-3.147c1.308-1.013,2.643-2.017,3.965-2.984a1.758,1.758,0,0,1,2.074,2.838c-1.3.948-2.6,1.931-3.888,2.925A1.75,1.75,0,0,1,1719.071,214.785Zm215.548-3.081a1.743,1.743,0,0,1-1.033-.337c-1.316-.959-2.655-1.907-3.979-2.82a1.757,1.757,0,1,1,1.993-2.894c1.35.929,2.715,1.9,4.056,2.874a1.757,1.757,0,0,1-1.036,3.178ZM1727,208.984a1.757,1.757,0,0,1-1-3.2c1.349-.932,2.735-1.86,4.12-2.761a1.757,1.757,0,1,1,1.917,2.945c-1.357.884-2.717,1.795-4.04,2.709A1.752,1.752,0,0,1,1727,208.984Zm199.5-2.864a1.742,1.742,0,0,1-.955-.284c-1.349-.876-2.738-1.75-4.127-2.6a1.757,1.757,0,1,1,1.831-3c1.417.865,2.834,1.757,4.21,2.651a1.757,1.757,0,0,1-.959,3.231Zm-191.271-2.493a1.757,1.757,0,0,1-.919-3.256c1.4-.854,2.829-1.706,4.263-2.531a1.757,1.757,0,1,1,1.754,3.045c-1.406.81-2.813,1.646-4.181,2.483A1.751,1.751,0,0,1,1735.236,203.628Zm182.862-2.643a1.752,1.752,0,0,1-.871-.232c-1.417-.812-2.853-1.609-4.267-2.369a1.757,1.757,0,1,1,1.664-3.1c1.442.775,2.905,1.587,4.349,2.415a1.757,1.757,0,0,1-.875,3.282Zm-174.353-2.254a1.758,1.758,0,0,1-.836-3.3c1.444-.78,2.922-1.551,4.393-2.294a1.757,1.757,0,1,1,1.584,3.137c-1.442.728-2.891,1.485-4.307,2.249A1.741,1.741,0,0,1,1743.745,198.732Zm165.671-2.409a1.75,1.75,0,0,1-.788-.188c-1.43-.719-2.907-1.436-4.391-2.132a1.757,1.757,0,1,1,1.491-3.183c1.514.71,3.021,1.441,4.479,2.175a1.758,1.758,0,0,1-.791,3.328ZM1752.5,194.311a1.757,1.757,0,0,1-.749-3.347c1.484-.7,3-1.387,4.508-2.048a1.757,1.757,0,1,1,1.411,3.219c-1.479.648-2.968,1.324-4.422,2.008A1.748,1.748,0,0,1,1752.5,194.311Zm147.983-2.172a1.747,1.747,0,0,1-.7-.147c-1.476-.643-2.992-1.277-4.506-1.886a1.758,1.758,0,0,1,1.313-3.261c1.544.622,3.089,1.269,4.594,1.925a1.757,1.757,0,0,1-.7,3.369Zm-139-1.759a1.758,1.758,0,0,1-.661-3.386c1.529-.62,3.086-1.225,4.629-1.8a1.757,1.757,0,0,1,1.23,3.292c-1.513.565-3.04,1.16-4.54,1.768A1.756,1.756,0,0,1,1761.488,190.38Zm129.848-1.926a1.754,1.754,0,0,1-.612-.111c-1.51-.56-3.059-1.11-4.6-1.635a1.758,1.758,0,0,1,1.131-3.328c1.577.536,3.157,1.1,4.7,1.669a1.758,1.758,0,0,1-.612,3.405ZM1770.7,186.938a1.758,1.758,0,0,1-.569-3.421c1.565-.536,3.154-1.056,4.722-1.545a1.757,1.757,0,0,1,1.047,3.355c-1.538.479-3.1.989-4.63,1.515A1.749,1.749,0,0,1,1770.7,186.938Zm111.288-1.659a1.741,1.741,0,0,1-.519-.079c-1.548-.478-3.12-.94-4.674-1.374a1.758,1.758,0,0,1,.945-3.386c1.584.442,3.188.914,4.766,1.4a1.758,1.758,0,0,1-.518,3.437Zm-101.9-1.269a1.758,1.758,0,0,1-.476-3.45c1.584-.446,3.2-.877,4.8-1.281a1.757,1.757,0,1,1,.86,3.408c-1.57.4-3.153.818-4.706,1.256A1.755,1.755,0,0,1,1780.095,184.01Zm92.421-1.374a1.736,1.736,0,0,1-.428-.054c-1.549-.387-3.144-.762-4.741-1.114a1.757,1.757,0,0,1,.756-3.432c1.628.359,3.256.742,4.838,1.138a1.757,1.757,0,0,1-.425,3.462Zm-82.882-1.03a1.758,1.758,0,0,1-.381-3.474c1.6-.357,3.24-.7,4.862-1.014a1.758,1.758,0,0,1,.672,3.45c-1.591.31-3.2.644-4.769,1A1.831,1.831,0,0,1,1789.633,181.605Zm73.276-1.089a1.727,1.727,0,0,1-.332-.032c-1.593-.305-3.205-.591-4.8-.852a1.757,1.757,0,0,1,.567-3.469c1.622.265,3.269.558,4.892.869a1.757,1.757,0,0,1-.329,3.483Zm-63.619-.789a1.757,1.757,0,0,1-.286-3.49c1.63-.271,3.283-.521,4.911-.746a1.757,1.757,0,1,1,.48,3.482c-1.6.22-3.217.466-4.816.731A1.705,1.705,0,0,1,1799.289,179.728Zm53.911-.8a1.775,1.775,0,0,1-.239-.015c-1.6-.217-3.224-.414-4.835-.588a1.757,1.757,0,1,1,.376-3.494c1.643.176,3.3.378,4.932.6a1.757,1.757,0,0,1-.234,3.5Zm-44.166-.545a1.757,1.757,0,0,1-.191-3.5c1.633-.18,3.3-.34,4.944-.476a1.757,1.757,0,1,1,.289,3.5c-1.616.134-3.247.291-4.848.468C1809.164,178.382,1809.1,178.386,1809.034,178.386Zm34.385-.507c-.047,0-.1,0-.143-.005-1.6-.129-3.233-.238-4.859-.324a1.757,1.757,0,1,1,.185-3.509c1.659.087,3.326.2,4.956.329a1.758,1.758,0,0,1-.139,3.509Zm-24.58-.3a1.757,1.757,0,0,1-.1-3.512c1.623-.089,3.292-.159,4.962-.207a1.758,1.758,0,0,1,.1,3.514c-1.638.047-3.277.115-4.869.2C1818.9,177.576,1818.871,177.577,1818.839,177.577Zm14.756-.216h-.047c-1.531-.039-3.1-.06-4.653-.06h-.22a1.757,1.757,0,0,1,0-3.514h.215c1.6,0,3.192.02,4.749.061a1.758,1.758,0,0,1-.044,3.514Z" transform="translate(-1612.14 -138.372)" fill="#f89f1b" opacity="0.57"/>
          <g id="Group_20" data-name="Group 20">
            <circle id="Ellipse_2" data-name="Ellipse 2" cx="153.269" cy="153.269" r="153.269" transform="translate(0 216.755) rotate(-45)" fill="url(#linear-gradient-4)"/>
            <path id="Path_43" data-name="Path 43" d="M1838.109,521.125A156.784,156.784,0,1,1,1948.971,475.2,155.755,155.755,0,0,1,1838.109,521.125Zm0-306.538c-82.575,0-149.754,67.18-149.754,149.754s67.179,149.754,149.754,149.754,149.754-67.179,149.754-149.754S1920.683,214.587,1838.109,214.587Z" transform="translate(-1621.354 -147.586)" fill="#fff" opacity="0.83"/>
          </g>
          <g id="Group_21" data-name="Group 21" transform="translate(84.611 84.611)">
            <circle id="Ellipse_3" data-name="Ellipse 3" cx="93.44" cy="93.44" r="93.44" transform="translate(0 132.144) rotate(-45)" fill="url(#linear-gradient-5)"/>
            <path id="Path_44" data-name="Path 44" d="M1860.555,483.741a96.954,96.954,0,1,1,96.954-96.954A97.065,97.065,0,0,1,1860.555,483.741Zm0-186.879a89.925,89.925,0,1,0,89.925,89.925A90.027,90.027,0,0,0,1860.555,296.862Z" transform="translate(-1728.411 -254.643)" fill="#fff" opacity="0.83"/>
          </g>
          <g id="Group_22" data-name="Group 22" transform="translate(173.136 173.136)">
            <circle id="Ellipse_4" data-name="Ellipse 4" cx="36.201" cy="36.201" r="36.201" transform="translate(0 70.423) rotate(-76.572)" fill="url(#linear-gradient-6)"/>
            <path id="Path_45" data-name="Path 45" d="M1882.029,447.978a39.716,39.716,0,1,1,39.716-39.716A39.762,39.762,0,0,1,1882.029,447.978Zm0-72.4a32.687,32.687,0,1,0,32.687,32.687A32.723,32.723,0,0,0,1882.029,375.575Z" transform="translate(-1838.411 -364.643)" fill="#fff" opacity="0.83"/>
          </g>
        </g>
        <g id="Group_24" data-name="Group 24" transform="translate(216.009)">
          <rect id="Rectangle_7" data-name="Rectangle 7" width="6.845" height="259.196" transform="matrix(-0.707, -0.707, 0.707, -0.707, 40.017, 212.673)" fill="#057186"/>
          <path id="Path_46" data-name="Path 46" d="M1934.508,358.835c2.777-2.777,15.867,10.314,13.091,13.09l-48.552,38.17a1.929,1.929,0,0,1-2.708-2.708Z" transform="translate(-1895.905 -162.682)" fill="#10b0cc"/>
          <path id="Path_47" data-name="Path 47" d="M2183.558,129.8l24.657,2.451-33.85,33.849a52.329,52.329,0,0,1-42.177,15.07Z" transform="translate(-1960.368 -100.3)" fill="#10b0cc"/>
          <path id="Path_48" data-name="Path 48" d="M2176.805,113.891l-2.451-24.657-33.849,33.849a52.328,52.328,0,0,0-15.07,42.178Z" transform="translate(-1958.455 -89.234)" fill="#10b0cc"/>
        </g>
      </g>
      <g id="Group_29" data-name="Group 29" transform="translate(154.748 589.731)">
        <path id="Path_49" data-name="Path 49" d="M555.635,748.955l-14.911,2.23a65.681,65.681,0,0,0-16.3-13.674l-.409-15.061a1.238,1.238,0,0,0-.867-1.148l-17.25-5.428a1.238,1.238,0,0,0-1.368.444l-8.961,12.113a65.679,65.679,0,0,0-21.2,1.874l-10.947-10.367a1.238,1.238,0,0,0-1.424-.2L445.964,728.1a1.24,1.24,0,0,0-.653,1.282l2.23,14.911a65.668,65.668,0,0,0-13.674,16.3L418.806,761a1.24,1.24,0,0,0-1.148.866l-5.428,17.251a1.238,1.238,0,0,0,.445,1.368l12.113,8.961a65.658,65.658,0,0,0,1.873,21.2l-10.367,10.947a1.239,1.239,0,0,0-.2,1.424l8.36,16.036a1.237,1.237,0,0,0,1.281.652l14.911-2.23a65.666,65.666,0,0,0,16.3,13.674l.409,15.062a1.239,1.239,0,0,0,.867,1.148l17.25,5.428a1.239,1.239,0,0,0,1.368-.445l8.961-12.113a65.659,65.659,0,0,0,21.2-1.873l10.947,10.367a1.238,1.238,0,0,0,1.425.2l16.036-8.359a1.239,1.239,0,0,0,.652-1.281l-2.23-14.911a65.686,65.686,0,0,0,13.674-16.3l15.062-.409a1.238,1.238,0,0,0,1.148-.866l5.428-17.25a1.239,1.239,0,0,0-.444-1.368l-12.113-8.961a65.677,65.677,0,0,0-1.874-21.2l10.367-10.947a1.239,1.239,0,0,0,.2-1.425l-8.36-16.036A1.237,1.237,0,0,0,555.635,748.955Z" transform="translate(-392.304 -695.909)" fill="#25cbe8"/>
        <g id="Group_26" data-name="Group 26" transform="translate(80.838 80.876)">
          <path id="Path_50" data-name="Path 50" d="M526.752,828.755a17.534,17.534,0,1,1,4.321-10.541A17.521,17.521,0,0,1,526.752,828.755Zm-24.168-21.144a14.609,14.609,0,1,0,1.281-1.29A14.886,14.886,0,0,0,502.584,807.612Z" transform="translate(-496.017 -799.66)" fill="#d2fdfd"/>
        </g>
        <g id="Group_27" data-name="Group 27" transform="translate(42.511 68.583)">
          <path id="Path_51" data-name="Path 51" d="M649.764,790.946a1.485,1.485,0,0,1-2.559-.635c-.45-1.883-.967-3.779-1.536-5.638a1.484,1.484,0,1,1,2.838-.87c.588,1.918,1.121,3.875,1.586,5.817A1.486,1.486,0,0,1,649.764,790.946Z" transform="translate(-498.5 -782.754)" fill="#f89f1b"/>
          <path id="Path_52" data-name="Path 52" d="M583.464,883.976a1.485,1.485,0,0,1-2.263-1.923,95.791,95.791,0,0,0,6.561-9.031,1.485,1.485,0,0,1,2.5,1.6,99.133,99.133,0,0,1-6.766,9.314Zm-12.958,13.066a1.473,1.473,0,0,1-.167.163,99.441,99.441,0,0,1-9.252,6.844,1.485,1.485,0,0,1-1.625-2.486,96.473,96.473,0,0,0,8.976-6.64,1.484,1.484,0,0,1,2.067,2.119Zm28.03-38.616a1.485,1.485,0,0,1-2.5-1.529,95.363,95.363,0,0,0,3.506-10.6,1.485,1.485,0,0,1,2.869.766,98.147,98.147,0,0,1-3.618,10.929A1.471,1.471,0,0,1,598.536,858.425ZM545.1,912.345a1.473,1.473,0,0,1-.553.393,97.463,97.463,0,0,1-10.89,3.725,1.484,1.484,0,0,1-.794-2.861,95.1,95.1,0,0,0,10.559-3.611,1.484,1.484,0,0,1,1.678,2.354Zm60.034-82.84a1.485,1.485,0,0,1-2.6-1.084c.032-.444.06-.886.086-1.332a96.734,96.734,0,0,0,.066-9.838,1.485,1.485,0,0,1,2.967-.132,99.794,99.794,0,0,1-.068,10.143q-.041.687-.089,1.371A1.48,1.48,0,0,1,605.133,829.5Zm-88.88,89.711a1.481,1.481,0,0,1-1,.5,99.637,99.637,0,0,1-11.506.244,1.485,1.485,0,0,1,.108-2.968,96.45,96.45,0,0,0,11.163-.237,1.486,1.486,0,0,1,1.233,2.46ZM486.67,917.06a1.484,1.484,0,0,1-1.449.469,97.994,97.994,0,0,1-11.052-3.226,1.485,1.485,0,0,1,1-2.8,95.122,95.122,0,0,0,10.715,3.128,1.485,1.485,0,0,1,.786,2.425Z" transform="translate(-451.46 -791.742)" fill="#f89f1b"/>
          <path id="Path_53" data-name="Path 53" d="M450.921,937.809a1.484,1.484,0,0,1-1.871.3c-1.715-1.015-3.426-2.1-5.088-3.229a1.485,1.485,0,0,1,1.666-2.458c1.613,1.093,3.273,2.147,4.935,3.133a1.483,1.483,0,0,1,.521,2.033A1.461,1.461,0,0,1,450.921,937.809Z" transform="translate(-443.31 -823.515)" fill="#f89f1b"/>
        </g>
        <g id="Group_28" data-name="Group 28">
          <path id="Path_54" data-name="Path 54" d="M389.921,850.133a1.484,1.484,0,0,1-2.566-.668c-.422-1.96-.786-3.956-1.084-5.931a1.485,1.485,0,0,1,2.936-.444c.289,1.916.642,3.85,1.051,5.75A1.482,1.482,0,0,1,389.921,850.133Z" transform="translate(-385.233 -730.287)" fill="#f89f1b"/>
          <path id="Path_55" data-name="Path 55" d="M521.46,698.267a1.485,1.485,0,0,1-1.685.392,95.091,95.091,0,0,0-10.371-3.607,1.485,1.485,0,0,1,.811-2.856,98.223,98.223,0,0,1,10.7,3.72,1.488,1.488,0,0,1,.548,2.352ZM493.122,691.3a1.482,1.482,0,0,1-1.25.5q-1.572-.142-3.157-.234c-2.6-.15-5.234-.195-7.823-.135a1.485,1.485,0,0,1-.068-2.969c2.668-.063,5.38-.015,8.062.14q1.635.095,3.252.24a1.485,1.485,0,0,1,.985,2.457ZM387.451,784.362a1.485,1.485,0,0,1-2.6-1.032q.038-1.06.1-2.125c.176-3.056.5-6.135.953-9.149a1.485,1.485,0,1,1,2.936.444c-.442,2.924-.753,5.911-.924,8.879q-.061,1.034-.1,2.059A1.472,1.472,0,0,1,387.451,784.362Zm76.541-91.32a1.478,1.478,0,0,1-.8.471,95.3,95.3,0,0,0-10.585,2.915,1.484,1.484,0,1,1-.953-2.811,97.98,97.98,0,0,1,10.916-3.006,1.485,1.485,0,0,1,1.426,2.432Zm-71.137,62.643a1.485,1.485,0,0,1-2.517-1.472,97.639,97.639,0,0,1,4.365-10.45,1.485,1.485,0,0,1,2.669,1.3,94.865,94.865,0,0,0-4.233,10.132A1.484,1.484,0,0,1,392.855,755.685Zm43.865-52.292a1.486,1.486,0,0,1-.386.313,95.886,95.886,0,0,0-9.235,5.941,1.485,1.485,0,0,1-1.747-2.4,98.827,98.827,0,0,1,9.522-6.126,1.485,1.485,0,0,1,1.846,2.272Zm-30.142,26.54a1.485,1.485,0,0,1-2.305-1.868c1.545-2.069,3.192-4.1,4.9-6.047l.018-.021q1.161-1.322,2.368-2.6a1.484,1.484,0,0,1,2.1-.061,1.5,1.5,0,0,1,.062,2.1c-.785.833-1.591,1.692-2.314,2.544-1.654,1.885-3.252,3.858-4.748,5.864C406.628,729.873,406.6,729.9,406.577,729.933Z" transform="translate(-384.85 -688.44)" fill="#f89f1b"/>
          <path id="Path_56" data-name="Path 56" d="M598.662,716.134a1.485,1.485,0,0,1-2,.209c-1.558-1.167-3.168-2.3-4.783-3.359A1.485,1.485,0,1,1,593.5,710.5c1.666,1.1,3.325,2.261,4.932,3.462a1.485,1.485,0,0,1,.3,2.078C598.713,716.074,598.688,716.1,598.662,716.134Z" transform="translate(-441.147 -694.392)" fill="#f89f1b"/>
        </g>
        <path id="Path_57" data-name="Path 57" d="M536.72,836.85A45.122,45.122,0,1,1,516.309,764.1q1.557.49,3.072,1.089a45.116,45.116,0,0,1,5.073,2.377q.333.181.662.368a1.559,1.559,0,0,1,.244.174,1.485,1.485,0,0,1-1.713,2.407,42.206,42.206,0,0,0-56.1,13.453,41.961,41.961,0,0,0-4.716,9.675c-.049.146-.1.294-.146.441s-.087.268-.129.4a42.153,42.153,0,1,0,81.216,2.868,1.485,1.485,0,1,1,2.888-.692,45.14,45.14,0,0,1-9.939,40.189Z" transform="translate(-404.708 -708.512)" fill="#d2fdfd"/>
      </g>
      <g id="Group_35" data-name="Group 35" transform="translate(319.066 189.707)">
        <g id="Group_30" data-name="Group 30" transform="translate(0)">
          <rect id="Rectangle_8" data-name="Rectangle 8" width="421.127" height="437.734" rx="43.373" fill="#279fb6"/>
          <rect id="Rectangle_9" data-name="Rectangle 9" width="381.284" height="413.316" rx="43.373" transform="translate(20.286 12.826)" fill="#25cbe8"/>
        </g>
        <rect id="Rectangle_10" data-name="Rectangle 10" width="251.622" height="26.229" rx="13.114" transform="translate(33.107 24.428)" fill="#83e2f2"/>
        <g id="Group_31" data-name="Group 31" transform="translate(297.135 27.789)">
          <path id="Path_58" data-name="Path 58" d="M1001.283,408.556c-5.919,0-10.733-4.537-10.733-10.113s4.815-10.113,10.733-10.113,10.733,4.537,10.733,10.113S1007.2,408.556,1001.283,408.556Zm0-17.414c-4.368,0-7.922,3.275-7.922,7.3s3.554,7.3,7.922,7.3,7.922-3.275,7.922-7.3S1005.651,391.142,1001.283,391.142Z" transform="translate(-990.55 -388.33)" fill="url(#linear-gradient)"/>
          <path id="Path_59" data-name="Path 59" d="M1051.241,408.556c-5.918,0-10.733-4.537-10.733-10.113s4.815-10.113,10.733-10.113,10.734,4.537,10.734,10.113S1057.16,408.556,1051.241,408.556Zm0-17.414c-4.368,0-7.922,3.275-7.922,7.3s3.554,7.3,7.922,7.3,7.922-3.275,7.922-7.3S1055.609,391.142,1051.241,391.142Z" transform="translate(-1004.18 -388.33)" fill="url(#linear-gradient)"/>
          <path id="Path_60" data-name="Path 60" d="M1101.2,408.556c-5.918,0-10.733-4.537-10.733-10.113s4.815-10.113,10.733-10.113,10.734,4.537,10.734,10.113S1107.118,408.556,1101.2,408.556Zm0-17.414c-4.367,0-7.921,3.275-7.921,7.3s3.554,7.3,7.921,7.3,7.922-3.275,7.922-7.3S1105.567,391.142,1101.2,391.142Z" transform="translate(-1017.809 -388.33)" fill="url(#linear-gradient)"/>
        </g>
        <path id="Path_61" data-name="Path 61" d="M868.442,405.536H645.119a5.518,5.518,0,0,1,0-11.036H868.442a5.518,5.518,0,0,1,0,11.036Z" transform="translate(-597.669 -362.224)" fill="#fff" opacity="0.43"/>
        <rect id="Rectangle_11" data-name="Rectangle 11" width="239.343" height="136.386" rx="15" transform="translate(40.91 274.672)" fill="#d8fdfd" opacity="0.4"/>
        <g id="Group_33" data-name="Group 33" transform="translate(54.571 286.961)">
          <path id="Path_64" data-name="Path 64" d="M870.12,757.624H663.687a6.444,6.444,0,0,1,0-12.887H870.12a6.444,6.444,0,0,1,0,12.887Z" transform="translate(-657.053 -744.737)" fill="#9becf6"/>
          <path id="Path_65" data-name="Path 65" d="M869.858,791.457H663.426a6.444,6.444,0,1,1,0-12.887H869.858a6.444,6.444,0,1,1,0,12.887Z" transform="translate(-656.982 -753.967)" fill="#9becf6"/>
          <path id="Path_66" data-name="Path 66" d="M870.683,827.425H664.251a6.444,6.444,0,0,1,0-12.887H870.683a6.444,6.444,0,0,1,0,12.887Z" transform="translate(-657.207 -763.78)" fill="#9becf6"/>
          <path id="Path_67" data-name="Path 67" d="M870.421,861.257H663.989a6.443,6.443,0,1,1,0-12.886H870.421a6.443,6.443,0,1,1,0,12.886Z" transform="translate(-657.136 -773.01)" fill="#9becf6"/>
          <path id="Path_68" data-name="Path 68" d="M869.979,892.19H663.546a6.444,6.444,0,0,1,0-12.887H869.979a6.444,6.444,0,0,1,0,12.887Z" transform="translate(-657.015 -781.449)" fill="#9becf6"/>
        </g>
        <rect id="Rectangle_12" data-name="Rectangle 12" width="100.84" height="136.778" rx="20.107" transform="translate(288.367 69.977)" fill="#d8fdfd" opacity="0.4"/>
        <rect id="Rectangle_13" data-name="Rectangle 13" width="100.84" height="192.191" rx="20.107" transform="translate(288.367 218.867)" fill="#bdd0fb"/>
        <path id="Path_69" data-name="Path 69" d="M867.292,711.241H662.127a6.444,6.444,0,1,1,0-12.887H867.292a6.444,6.444,0,1,1,0,12.887Z" transform="translate(-602.057 -445.121)" fill="#d8fdfd" opacity="0.4"/>
        <g id="Group_34" data-name="Group 34" transform="translate(50.112 69.977)">
          <rect id="Rectangle_14" data-name="Rectangle 14" width="221.567" height="172.208" rx="25.426" fill="#d8fdfd"/>
          <path id="Path_70" data-name="Path 70" d="M697.413,608.623H835.784a5.569,5.569,0,0,0,4.8-8.393L785.8,507.1a5.57,5.57,0,0,0-9.867.511l-26.451,57.958a5.57,5.57,0,0,1-8.83,1.793l-10.7-9.808a5.569,5.569,0,0,0-8.336.926l-28.781,41.39A5.569,5.569,0,0,0,697.413,608.623Z" transform="translate(-662.031 -462.173)" fill="#40d1eb"/>
          <circle id="Ellipse_6" data-name="Ellipse 6" cx="19.891" cy="19.891" r="19.891" transform="translate(145.883 31.354) rotate(-22.5)" fill="#40d1eb"/>
        </g>
      </g>
      <g id="Group_43" data-name="Group 43" transform="translate(497.611 332.402)">
        <g id="Group_36" data-name="Group 36">
          <rect id="Rectangle_15" data-name="Rectangle 15" width="421.127" height="437.734" rx="43.373" fill="#0992ac"/>
          <rect id="Rectangle_16" data-name="Rectangle 16" width="381.284" height="413.316" rx="43.373" transform="translate(20.286 12.826)" fill="#25cbe8"/>
        </g>
        <rect id="Rectangle_17" data-name="Rectangle 17" width="251.622" height="26.229" rx="13.114" transform="translate(33.107 24.428)" fill="#fff" opacity="0.43"/>
        <g id="Group_37" data-name="Group 37" transform="translate(297.134 27.79)">
          <path id="Path_71" data-name="Path 71" d="M1246.813,604.787c-5.918,0-10.734-4.537-10.734-10.113s4.815-10.113,10.734-10.113,10.733,4.537,10.733,10.113S1252.731,604.787,1246.813,604.787Zm0-17.414c-4.368,0-7.922,3.275-7.922,7.3s3.554,7.3,7.922,7.3,7.922-3.275,7.922-7.3S1251.18,587.372,1246.813,587.372Z" transform="translate(-1236.079 -584.561)" fill="url(#linear-gradient)"/>
          <path id="Path_72" data-name="Path 72" d="M1296.771,604.787c-5.918,0-10.733-4.537-10.733-10.113s4.815-10.113,10.733-10.113,10.733,4.537,10.733,10.113S1302.69,604.787,1296.771,604.787Zm0-17.414c-4.368,0-7.922,3.275-7.922,7.3s3.554,7.3,7.922,7.3,7.922-3.275,7.922-7.3S1301.139,587.372,1296.771,587.372Z" transform="translate(-1249.709 -584.561)" fill="url(#linear-gradient)"/>
          <path id="Path_73" data-name="Path 73" d="M1346.729,604.787c-5.918,0-10.733-4.537-10.733-10.113s4.815-10.113,10.733-10.113,10.734,4.537,10.734,10.113S1352.648,604.787,1346.729,604.787Zm0-17.414c-4.367,0-7.922,3.275-7.922,7.3s3.554,7.3,7.922,7.3,7.922-3.275,7.922-7.3S1351.1,587.372,1346.729,587.372Z" transform="translate(-1263.338 -584.561)" fill="url(#linear-gradient)"/>
        </g>
        <path id="Path_74" data-name="Path 74" d="M1113.971,601.767H890.649a5.518,5.518,0,0,1,0-11.036h223.322a5.518,5.518,0,1,1,0,11.036Z" transform="translate(-843.199 -558.455)" fill="#fff" opacity="0.43"/>
        <path id="Path_78" data-name="Path 78" d="M1201.4,711.241H925.213a6.444,6.444,0,1,1,0-12.887H1201.4a6.444,6.444,0,0,1,0,12.887Z" transform="translate(-852.376 -587.816)" fill="#d8fdfd" opacity="0.4"/>
        <path id="Path_79" data-name="Path 79" d="M1179.035,677.273h-215.8a6.444,6.444,0,0,1,0-12.887h215.8a6.444,6.444,0,0,1,0,12.887Z" transform="translate(-862.75 -578.549)" fill="#d8fdfd" opacity="0.4"/>
        <g id="Group_40" data-name="Group 40" transform="translate(40.479 140.261)">
          <rect id="Rectangle_18" data-name="Rectangle 18" width="163.154" height="258.829" rx="15" fill="#d8fdfd" opacity="0.4"/>
          <g id="Group_39" data-name="Group 39" transform="translate(8.339 12.177)">
            <path id="Path_80" data-name="Path 80" d="M1033.637,768.862H901.318a6.444,6.444,0,0,1,0-12.887h132.32a6.444,6.444,0,1,1,0,12.887Z" transform="translate(-894.675 -755.975)" fill="#d8fdfd" opacity="0.43"/>
            <path id="Path_81" data-name="Path 81" d="M1033.464,802.7H901.143a6.444,6.444,0,0,1,0-12.887h132.321a6.444,6.444,0,1,1,0,12.887Z" transform="translate(-894.628 -765.205)" fill="#d8fdfd" opacity="0.43"/>
            <path id="Path_82" data-name="Path 82" d="M1034.01,838.663H901.69a6.444,6.444,0,0,1,0-12.887h132.32a6.444,6.444,0,0,1,0,12.887Z" transform="translate(-894.777 -775.018)" fill="#d8fdfd" opacity="0.43"/>
            <path id="Path_83" data-name="Path 83" d="M1033.837,872.5H901.517a6.444,6.444,0,0,1,0-12.887h132.32a6.444,6.444,0,1,1,0,12.887Z" transform="translate(-894.73 -784.248)" fill="#d8fdfd" opacity="0.43"/>
            <path id="Path_84" data-name="Path 84" d="M1033.544,903.429H901.224a6.444,6.444,0,0,1,0-12.887h132.321a6.444,6.444,0,0,1,0,12.887Z" transform="translate(-894.65 -792.688)" fill="#d8fdfd" opacity="0.43"/>
            <path id="Path_85" data-name="Path 85" d="M1033.37,937.261H901.049a6.443,6.443,0,1,1,0-12.886H1033.37a6.443,6.443,0,1,1,0,12.886Z" transform="translate(-894.602 -801.918)" fill="#d8fdfd" opacity="0.43"/>
            <path id="Path_86" data-name="Path 86" d="M1033.916,973.23H901.6a6.444,6.444,0,0,1,0-12.888h132.32a6.444,6.444,0,0,1,0,12.888Z" transform="translate(-894.752 -811.73)" fill="#d8fdfd" opacity="0.43"/>
            <path id="Path_87" data-name="Path 87" d="M1033.743,1007.062H901.423a6.444,6.444,0,1,1,0-12.887h132.321a6.444,6.444,0,1,1,0,12.887Z" transform="translate(-894.704 -820.961)" fill="#d8fdfd" opacity="0.43"/>
            <path id="Path_88" data-name="Path 88" d="M1033.364,1039.035H901.045a6.444,6.444,0,1,1,0-12.887h132.32a6.444,6.444,0,1,1,0,12.887Z" transform="translate(-894.601 -829.684)" fill="#d8fdfd" opacity="0.43"/>
            <path id="Path_89" data-name="Path 89" d="M1033.91,1075H901.591a6.444,6.444,0,1,1,0-12.887h132.32a6.444,6.444,0,1,1,0,12.887Z" transform="translate(-894.75 -839.496)" fill="#d8fdfd" opacity="0.43"/>
          </g>
        </g>
        <g id="Group_42" data-name="Group 42" transform="translate(217.618 138.855)">
          <rect id="Rectangle_19" data-name="Rectangle 19" width="163.154" height="258.829" rx="15" fill="#d8fdfd" opacity="0.4"/>
          <g id="Group_41" data-name="Group 41" transform="translate(8.338 12.177)" opacity="0.995">
            <path id="Path_90" data-name="Path 90" d="M1277.234,766.929H1144.914a6.444,6.444,0,1,1,0-12.887h132.321a6.444,6.444,0,0,1,0,12.887Z" transform="translate(-1138.271 -754.042)" fill="#d2fdfd" opacity="0.43"/>
            <path id="Path_91" data-name="Path 91" d="M1277.06,800.762H1144.74a6.444,6.444,0,0,1,0-12.887h132.32a6.444,6.444,0,1,1,0,12.887Z" transform="translate(-1138.224 -763.272)" fill="#d2fdfd" opacity="0.43"/>
            <path id="Path_92" data-name="Path 92" d="M1277.607,836.73H1145.286a6.444,6.444,0,0,1,0-12.887h132.321a6.444,6.444,0,1,1,0,12.887Z" transform="translate(-1138.373 -773.085)" fill="#d2fdfd" opacity="0.43"/>
            <path id="Path_93" data-name="Path 93" d="M1277.433,870.562h-132.32a6.443,6.443,0,1,1,0-12.886h132.32a6.443,6.443,0,1,1,0,12.886Z" transform="translate(-1138.326 -782.315)" fill="#d2fdfd" opacity="0.43"/>
            <path id="Path_94" data-name="Path 94" d="M1277.14,901.5h-132.32a6.444,6.444,0,1,1,0-12.887h132.32a6.444,6.444,0,1,1,0,12.887Z" transform="translate(-1138.246 -790.754)" fill="#d2fdfd" opacity="0.43"/>
            <path id="Path_95" data-name="Path 95" d="M1276.967,935.328H1144.646a6.444,6.444,0,0,1,0-12.887h132.321a6.444,6.444,0,1,1,0,12.887Z" transform="translate(-1138.199 -799.985)" fill="#d2fdfd" opacity="0.43"/>
            <path id="Path_96" data-name="Path 96" d="M1277.513,971.3H1145.193a6.444,6.444,0,0,1,0-12.887h132.321a6.444,6.444,0,1,1,0,12.887Z" transform="translate(-1138.348 -809.797)" fill="#d2fdfd" opacity="0.43"/>
            <path id="Path_97" data-name="Path 97" d="M1277.34,1005.129H1145.02a6.444,6.444,0,1,1,0-12.887H1277.34a6.444,6.444,0,1,1,0,12.887Z" transform="translate(-1138.3 -819.028)" fill="#d2fdfd" opacity="0.43"/>
            <path id="Path_98" data-name="Path 98" d="M1276.961,1037.1H1144.641a6.444,6.444,0,0,1,0-12.887h132.321a6.444,6.444,0,0,1,0,12.887Z" transform="translate(-1138.197 -827.75)" fill="#d2fdfd" opacity="0.43"/>
            <path id="Path_99" data-name="Path 99" d="M1277.507,1073.069H1145.187a6.444,6.444,0,0,1,0-12.887h132.321a6.444,6.444,0,0,1,0,12.887Z" transform="translate(-1138.346 -837.563)" fill="#d2fdfd" opacity="0.43"/>
          </g>
        </g>
      </g>
      <g id="Group_49" data-name="Group 49" transform="translate(735.904 442.06)">
        <g id="Group_44" data-name="Group 44">
          <rect id="Rectangle_20" data-name="Rectangle 20" width="421.127" height="444.439" rx="43.373" fill="#0992ac"/>
          <rect id="Rectangle_21" data-name="Rectangle 21" width="381.284" height="419.647" rx="43.373" transform="translate(20.286 13.023)" fill="#25cbe8"/>
        </g>
        <g id="Group_48" data-name="Group 48" transform="translate(20.307 16.01)">
          <g id="Group_45" data-name="Group 45" transform="translate(28.02 69.432)">
            <rect id="Rectangle_22" data-name="Rectangle 22" width="221.567" height="172.208" rx="25.426" fill="#d2fdfd"/>
            <path id="Path_100" data-name="Path 100" d="M1268.185,976.918h138.371a5.569,5.569,0,0,0,4.8-8.393l-54.78-93.125a5.57,5.57,0,0,0-9.867.511l-26.451,57.958a5.569,5.569,0,0,1-8.829,1.792l-10.7-9.807a5.569,5.569,0,0,0-8.336.926l-28.78,41.39A5.569,5.569,0,0,0,1268.185,976.918Z" transform="translate(-1232.803 -830.468)" fill="#25cbe8"/>
            <circle id="Ellipse_7" data-name="Ellipse 7" cx="19.891" cy="19.891" r="19.891" transform="translate(145.883 31.354) rotate(-22.5)" fill="#40d1eb"/>
          </g>
          <rect id="Rectangle_23" data-name="Rectangle 23" width="251.622" height="26.229" rx="13.114" transform="translate(12.8 8.419)" fill="#d2fdfd" opacity="0.43"/>
          <g id="Group_46" data-name="Group 46" transform="translate(276.827 11.78)">
            <path id="Path_101" data-name="Path 101" d="M1574.508,755.585c-5.918,0-10.733-4.537-10.733-10.113s4.815-10.113,10.733-10.113,10.734,4.537,10.734,10.113S1580.427,755.585,1574.508,755.585Zm0-17.414c-4.367,0-7.922,3.275-7.922,7.3s3.555,7.3,7.922,7.3,7.922-3.275,7.922-7.3S1578.876,738.17,1574.508,738.17Z" transform="translate(-1563.775 -735.359)" fill="url(#linear-gradient)"/>
            <path id="Path_102" data-name="Path 102" d="M1624.467,755.585c-5.918,0-10.734-4.537-10.734-10.113s4.815-10.113,10.734-10.113,10.733,4.537,10.733,10.113S1630.385,755.585,1624.467,755.585Zm0-17.414c-4.368,0-7.922,3.275-7.922,7.3s3.554,7.3,7.922,7.3,7.921-3.275,7.921-7.3S1628.834,738.17,1624.467,738.17Z" transform="translate(-1577.404 -735.359)" fill="url(#linear-gradient)"/>
            <path id="Path_103" data-name="Path 103" d="M1674.425,755.585c-5.919,0-10.734-4.537-10.734-10.113s4.815-10.113,10.734-10.113,10.733,4.537,10.733,10.113S1680.343,755.585,1674.425,755.585Zm0-17.414c-4.368,0-7.922,3.275-7.922,7.3s3.554,7.3,7.922,7.3,7.921-3.275,7.921-7.3S1678.792,738.17,1674.425,738.17Z" transform="translate(-1591.034 -735.359)" fill="url(#linear-gradient)"/>
          </g>
          <path id="Path_104" data-name="Path 104" d="M1441.667,752.565H1218.344a5.518,5.518,0,0,1,0-11.036h223.323a5.518,5.518,0,0,1,0,11.036Z" transform="translate(-1191.202 -725.262)" fill="#fff" opacity="0.43"/>
          <path id="Path_107" data-name="Path 107" d="M1436.745,1088.4h-208.68a6.443,6.443,0,1,1,0-12.886h208.68a6.443,6.443,0,1,1,0,12.886Z" transform="translate(-1193.601 -816.379)" fill="#d2fdfd" opacity="0.4"/>
          <path id="Path_108" data-name="Path 108" d="M1436.48,1122.229H1227.8a6.443,6.443,0,0,1,0-12.887h208.68a6.443,6.443,0,1,1,0,12.887Z" transform="translate(-1193.529 -825.609)" fill="#d2fdfd" opacity="0.4"/>
          <rect id="Rectangle_24" data-name="Rectangle 24" width="221.567" height="94.193" rx="20.107" transform="translate(27.827 309.976)" fill="#d2fdfd" opacity="0.4"/>
          <rect id="Rectangle_25" data-name="Rectangle 25" width="106.035" height="113.314" rx="20.107" transform="translate(263.51 69.432)" fill="#fff" opacity="0.43"/>
          <rect id="Rectangle_26" data-name="Rectangle 26" width="106.035" height="113.314" rx="20.107" transform="translate(263.51 208.542)" fill="#fff" opacity="0.43"/>
          <rect id="Rectangle_27" data-name="Rectangle 27" width="106.035" height="73.808" rx="20.107" transform="translate(263.51 330.361)" fill="#fff" opacity="0.43"/>
          <path id="Path_109" data-name="Path 109" d="M1646.04,991.117h-95.122a5.457,5.457,0,0,1,0-10.913h95.122a5.457,5.457,0,1,1,0,10.913Z" transform="translate(-1281.952 -790.377)" fill="#fff" opacity="0.43"/>
        </g>
      </g>
      <g id="Group_56" data-name="Group 56" transform="translate(1007.236 577.725)">
        <g id="Group_50" data-name="Group 50">
          <rect id="Rectangle_28" data-name="Rectangle 28" width="421.127" height="444.439" rx="43.373" fill="#0992ac"/>
          <rect id="Rectangle_29" data-name="Rectangle 29" width="381.284" height="419.647" rx="43.373" transform="translate(20.286 13.023)" fill="#25cbe8"/>
        </g>
        <rect id="Rectangle_30" data-name="Rectangle 30" width="305.197" height="172.208" rx="25.426" transform="translate(60.277 85.442)" fill="#d2fdfd"/>
        <rect id="Rectangle_31" data-name="Rectangle 31" width="251.622" height="26.229" rx="13.114" transform="translate(33.107 24.428)" fill="#d2fdfd" opacity="0.4"/>
        <g id="Group_51" data-name="Group 51" transform="translate(297.134 27.79)">
          <path id="Path_110" data-name="Path 110" d="M1947.636,942.149c-5.918,0-10.733-4.537-10.733-10.113s4.815-10.113,10.733-10.113,10.734,4.537,10.734,10.113S1953.555,942.149,1947.636,942.149Zm0-17.415c-4.367,0-7.921,3.275-7.921,7.3s3.554,7.3,7.921,7.3,7.922-3.275,7.922-7.3S1952,924.734,1947.636,924.734Z" transform="translate(-1936.903 -921.923)" fill="url(#linear-gradient)"/>
          <path id="Path_111" data-name="Path 111" d="M1997.595,942.149c-5.918,0-10.734-4.537-10.734-10.113s4.815-10.113,10.734-10.113,10.733,4.537,10.733,10.113S2003.513,942.149,1997.595,942.149Zm0-17.415c-4.368,0-7.922,3.275-7.922,7.3s3.553,7.3,7.922,7.3,7.921-3.275,7.921-7.3S2001.962,924.734,1997.595,924.734Z" transform="translate(-1950.532 -921.923)" fill="url(#linear-gradient)"/>
          <path id="Path_112" data-name="Path 112" d="M2047.553,942.149c-5.919,0-10.734-4.537-10.734-10.113s4.815-10.113,10.734-10.113,10.733,4.537,10.733,10.113S2053.471,942.149,2047.553,942.149Zm0-17.415c-4.368,0-7.922,3.275-7.922,7.3s3.554,7.3,7.922,7.3,7.922-3.275,7.922-7.3S2051.92,924.734,2047.553,924.734Z" transform="translate(-1964.162 -921.923)" fill="url(#linear-gradient)"/>
        </g>
        <path id="Path_113" data-name="Path 113" d="M1814.795,939.129H1591.472a5.518,5.518,0,0,1,0-11.036h223.323a5.518,5.518,0,0,1,0,11.036Z" transform="translate(-1544.023 -895.817)" fill="#fff" opacity="0.43"/>
        <g id="Group_52" data-name="Group 52" transform="translate(20.307 19.69)">
          <path id="Path_115" data-name="Path 115" d="M1615.7,922.609A16.712,16.712,0,1,1,1593.554,915,16.56,16.56,0,0,1,1615.7,922.609Z" transform="translate(-1563.787 -911.481)" opacity="0.2" fill="url(#linear-gradient-19)"/>
        </g>
        <path id="Path_117" data-name="Path 117" d="M1914.3,1274.961H1604.214a6.444,6.444,0,0,1,0-12.887H1914.3a6.444,6.444,0,0,1,0,12.887Z" transform="translate(-1547.247 -986.933)" fill="#d2fdfd" opacity="0.4"/>
        <path id="Path_118" data-name="Path 118" d="M1913.916,1308.793H1603.828a6.443,6.443,0,1,1,0-12.886h310.088a6.443,6.443,0,1,1,0,12.886Z" transform="translate(-1547.141 -996.164)" fill="#d2fdfd" opacity="0.4"/>
        <rect id="Rectangle_32" data-name="Rectangle 32" width="221.567" height="94.193" rx="20.107" transform="translate(39.699 325.986)" fill="#d2fdfd" opacity="0.4"/>
        <rect id="Rectangle_33" data-name="Rectangle 33" width="106.035" height="94.193" rx="20.107" transform="translate(275.382 325.986)" fill="#d2fdfd" opacity="0.4"/>
        <g id="Group_55" data-name="Group 55" transform="translate(178.886 135.191)">
          <g id="Group_53" data-name="Group 53">
            <path id="Path_119" data-name="Path 119" d="M1847,1105.973a36.355,36.355,0,1,1-36.355-36.355A36.355,36.355,0,0,1,1847,1105.973Zm-2.2,0a34.152,34.152,0,1,0-34.152,34.152A34.152,34.152,0,0,0,1844.8,1105.973Z" transform="translate(-1774.291 -1069.618)" fill="#25cbe8"/>
          </g>
          <g id="Group_54" data-name="Group 54" transform="translate(23.297 17.938)">
            <path id="Path_120" data-name="Path 120" d="M1809.078,1131.438a1.888,1.888,0,0,1-1.885-1.837l-.863-32.191a3.041,3.041,0,0,1,4.327-2.835l31.8,14.873a3.039,3.039,0,0,1,.143,5.435l-28.07,14.964a1.887,1.887,0,1,1-1.776-3.33l26.772-14.272-29.389-13.745.83,31a1.887,1.887,0,0,1-1.836,1.938Z" transform="translate(-1806.328 -1094.286)" fill="#25cbe8"/>
          </g>
        </g>
      </g>
      <g id="Group_58" data-name="Group 58" transform="translate(381.487 254.341)">
        <path id="Path_121" data-name="Path 121" d="M1013.256,1055.823,678.071,1376.969a33.4,33.4,0,0,0,.857,49.027l2.384,2.129a31.049,31.049,0,0,0,43.972-2.624L1033.9,1075.437Z" transform="translate(-667.778 -607.28)" fill="#f89f1b"/>
        <ellipse id="Ellipse_9" data-name="Ellipse 9" cx="215.333" cy="211.449" rx="215.333" ry="211.449" transform="translate(208.156 173.627) rotate(-23.776)" fill="#fff" opacity="0.12"/>
        <path id="Path_122" data-name="Path 122" d="M1157.737,520.6c-121.1,53.35-176.805,193-124.419,311.915s193.027,172.07,314.129,118.721,176.806-193,124.419-311.916S1278.839,467.254,1157.737,520.6Zm175.775,399.006c-103.312,45.513-223.292.169-267.984-101.281s2.83-220.584,106.142-266.1,223.293-.167,267.985,101.281S1436.825,874.1,1333.512,919.609Z" transform="translate(-762.13 -455.604)" fill="#fcbc5e"/>
        <g id="Group_57" data-name="Group 57" transform="translate(267.056 59.636)">
          <path id="Path_123" data-name="Path 123" d="M1067.088,856.988a.866.866,0,0,1-.9-.4c-2.89-4.8-5.627-9.777-8.136-14.786a.863.863,0,1,1,1.543-.772c2.489,4.971,5.2,9.9,8.072,14.668a.863.863,0,0,1-.294,1.184A.836.836,0,0,1,1067.088,856.988Zm-25.02-60.869a.863.863,0,0,1-.995-.646,215.881,215.881,0,0,1-5.984-45.538,220.609,220.609,0,0,1,34.289-123.256,227.572,227.572,0,0,1,224.3-103.332.863.863,0,1,1-.248,1.708,224.53,224.53,0,0,0-122.988,16.908c-83.326,36.708-135.779,118.325-133.632,207.931a214.218,214.218,0,0,0,5.936,45.174.862.862,0,0,1-.635,1.041C1042.1,796.113,1042.083,796.116,1042.068,796.119Z" transform="translate(-1035.026 -521.007)" fill="#fff"/>
        </g>
        <path id="Path_124" data-name="Path 124" d="M712.35,1533.5a.778.778,0,0,1-.087.011c-14.093,1.161-23.582-3-28.2-12.374-4.652-9.431-2.536-21.022,5.265-28.844l39.7-39.8a.862.862,0,1,1,1.221,1.217l-39.7,39.8c-7.278,7.3-9.263,18.1-4.938,26.865,4.278,8.672,13.2,12.514,26.515,11.418a.863.863,0,0,1,.229,1.708Z" transform="translate(-671.552 -715.429)" fill="#fff"/>
        <path id="Path_125" data-name="Path 125" d="M764.3,1435.145a.862.862,0,0,1-.769-1.457l5.145-5.159a.862.862,0,1,1,1.221,1.217l-5.145,5.159A.843.843,0,0,1,764.3,1435.145Z" transform="translate(-693.832 -708.891)" fill="#fff"/>
      </g>
    </g>
  </g>
</svg>
