<svg xmlns="http://www.w3.org/2000/svg" xmlns:xlink="http://www.w3.org/1999/xlink" width="594" height="594" viewBox="0 0 594 594">
  <defs>
    <filter id="Ellipse_2061" x="0" y="0" width="594" height="594" filterUnits="userSpaceOnUse">
      <feOffset input="SourceAlpha"/>
      <feGaussianBlur stdDeviation="20" result="blur"/>
      <feFlood flood-color="#f89f1b" flood-opacity="0.2"/>
      <feComposite operator="in" in2="blur"/>
      <feComposite in="SourceGraphic"/>
    </filter>
  </defs>
  <g id="Group_598" data-name="Group 598" transform="translate(-783.378 -148.923)">
    <g transform="matrix(1, 0, 0, 1, 783.38, 148.92)" filter="url(#Ellipse_2061)">
      <circle id="Ellipse_2061-2" data-name="Ellipse 2061" cx="237" cy="237" r="237" transform="translate(60 60)" fill="#fff"/>
    </g>
    <path id="Union_2" data-name="Union 2" d="M-16158.6,3616.47l2.815-13.814a38.621,38.621,0,0,0-.812-4.035c-.271-.643-.828-1.278-1.521-2.918s-1.344-2.951-1.739-4,.9-.289-.816-2.168-2.6-3.487-3.527-3.371a8.9,8.9,0,0,1-4.076-.754c-1.8-.688-2.671-.239-3.013-1.257a36.661,36.661,0,0,0-3.046-4.6l-23.38-10.377s-1.3-.643-2.983,1.29-5.383,2.217-7.662,1.937-14.931-1.739-16.061-1.937-3.932-.7-5.188-.849a1.68,1.68,0,0,0-.841.111c-.52.19-.895.379-2.464-1.076a17.035,17.035,0,0,1-3.446-4.628l-1.059,3.6s-64.754.816-78.663-2.357-34.124-6.553-34.124-6.553-36-7.225-36.395-7.34-1.484-.4-1.484-.4l-1.381-.478-.82-8.069-.932-2.691-2.848-1.17s-9.883-12.838-10.18-15.513a10.88,10.88,0,0,1,0-3.693s.564,1.422,1.633-.6a34.883,34.883,0,0,0,1.975-4.979l-.982-2.881-4.932-7.295-1.852-1.146,3.021-2.568-2.361-2.485s-.264-2.271,2.361-4.3c2.258-1.752,2.682-2.664,2.754-2.885l298.865,65.707.01-.031.234.052-.016.029,7.091,1.559c-.2,5.573-.357,11.52-.357,11.52l-9.034,5.416s-10.9,4.278-11.23,4.554-3.878,7.134-3.878,7.134-3.054,7.348-3.429,7.459-12.257,4.121-12.257,4.121-2.242-.338-.425,3.417-4.117,7.117-4.117,7.117l-12.178,9.788Zm89.177-48.516a6.032,6.032,0,0,1,0-5.082,27.478,27.478,0,0,1,2.324-4.727l6.59-2.217v-3.079l-6.59,2.349v-4.764l-5.894,9.19-5.6,1.7c.047.1.072.162.072.162l-17.925-3.941c0-.01,0-.021,0-.032l-7.076-1.556,6.19-11.751,2.027-6.351,5.552-6.3,5.233-2.386,3.965-2.032s3.771,1.249,5.078,4.418-7.39,4.69-7.39,4.69l-2.036,3.124,6.087.8,2.081-3.021.412,8.267,2.758-3.1,3.412,5.16,4.843.672s2.341,4.574,7.591,0c2.288-1.994,3.235-2.888,3.575-3.263l4.49,3.263-5.638,7.06-3.347,1.463v2.531h-2.7l-1.772,2.609.7,5.8-2.329,3.243Zm-336.285-78.465s3.619.556,3.973-1.162.924-4.707.957-5.18,1.191-1.566,0-2.209-1.793-2.865-3.449-4.9-3.26-2.745-3.1-4.529.854-3.639,1.109-6.437.445-4.335,0-6.26a13.972,13.972,0,0,1-.422-4.566,19.493,19.493,0,0,0,.422-3.6,4,4,0,0,1,0-1.331c.045-.9,1.5-1.273,0-2.139s-.088-1.121-2.572-1.121-1.859-.1-3.508,0-3.279,1.727-3.742-.42-.795-2.951-.68-4.018.865-1.632.68-2.753-.68-4.628-.68-4.628a43.253,43.253,0,0,1-3.883-2.176c-.51-.461-1.037-.89-1.037-.89l20.316-25.366,23.929-32.6.783-1.1,5.988,9.9,1.331,2.2a2.281,2.281,0,0,1,1.385-3.174c3.573-1.521,6.146-2.324,6.146-2.324v2.929c.188-.516,1.277-1.4,6.5-1.433,4.5-.032,5.75-.026,6.039-.015l1.234-.694-4.2,5.3,11.193-3.767,1.962,9.627,1.929-.812,9.009,1.34h1.381l6.837,6.079h1.884l7.876,7.892-1.6,3.05,1.6,2.279,12.187.841,6.755,4.97-2.32,2.749,3.239,4.406a4.735,4.735,0,0,0,2.131-5.185c-.436-1.815-.782-3.057-1.015-3.833.321.375.937.231,2.1-2.127,2.176-4.406,3.4-6.508,3.4-6.508v3.6s1.822-1.059,5.49,1.088,6.746,4.344,6.746,4.344l10.777-.6.631-2.9h1.565s-2.67-3.14,0-3.12a5.407,5.407,0,0,1,4.5,2.279c.635.775.717,5.2.717,5.2l4.18,3.363.572-8.56,5.8-4.686-3.985-2.3.523-1.644-1.043-3.379-3.672,1.29-2.374-9.108,2.374-8.655,9.892,10.386-1.715,2.893h-1.277l1.277,6.573s4.611,5.139,7.229,4.587,2.853-2.254,3.087-4.587a18.63,18.63,0,0,1,.569-3.379l7.979,16.353,2.679-3.5s-1.851-2.922,0-4.884a14.514,14.514,0,0,1,3.969-2.943v-2.328s-1.834-3.277-1.355-5.889c.091-.5.147-.861.179-1.116.541.783,2.217,3.01,3.843,3.1,1.975.111,4.13,0,4.13,0l1.34,2.5-2.56,3,6.907,5.436-2.341,10.839-3.347-2.749-4.13-.614,4.13,4.051h-10.765l3.969,2.7-3.07,5.564-5.209-1.995-8.812-.771V3428l15.735,2.625-3.235,6.285-6.157,3.891v3.421l-14.763-6.714,1.715,6.009h5.514v3.165l2.073-1.6,4.529,2.386a8.411,8.411,0,0,1-5.411,4.035c-3.978,1.014,3.128,2.588-2.064,5.688s-2.947,2.143-2.947,2.143,1.459,5.213-2.547,8.374-.861,15.183-.861,15.183l3.408,5.354.59-2.992,3.23,2.992,2.073,6.845-.882,2.32,2.465,1.822,7.979-3.239,12.224,2.16,4.566,7.233,11.366,1.933,15.533-.915,2.2,15,5.716,6.718,6.5,3.017.891,5.11,6.61.9v-4.34l4.1,1.855-1.8-3.524,1.8-6.124-1.389-4.018-10.209-10.3s-2.674-.466.891-3.375,7.707-4.962,7.855-5.374a32.1,32.1,0,0,0,0-3.792l-.606-5.007,3.458-3.462-4.8-6.166-1.27-2.234-8.65-5.552s-1.921-11.329-1.765-13.233a3.926,3.926,0,0,0-1.619-3.165h-1.645l-6.269-13.819,2.955-2.559s11.379.371,12.862-.63a9.761,9.761,0,0,0,1.9-1.525l6.265,3.421,6.845,3.606,4.349-3.606,1.982,6.12-4.08,3.441,4.08-.977,3.6,5.465s3.05-1.558,2.012.35-2.012,1.583-2.012,1.583l1.117,4.435,6.5-2.774,2.11,5.341v-5.72l5.176,2.741-1.112-7.764,4.723,2.873-.4-7.831-4.892-2.745.568-9.232,7.826,9.924h4.888l-.366,6.269,2.159-2.914,1.162,4.513,1.917-3.536,2.979,3.536-1.01,2.885h7.427l.535,2.629-4.225,1.805,5.47,2.568,6.148.462s.28,4.7,4.628,4.36,5.927-2.5,5.927-2.5l4.6,1.29-2.972,5.341v7.356l4.938-10.522,5.519,1.063.733,2.1,2.213-2.8,3.339,1.714v6.207l6.289,1.381-2.288,8.75-5.391,4.451V3506.2l-11.247,5.9-11.988,4.991-6.981,3.136s-1.648,1.261-1.431,4.393,1.431,4.2,1.431,4.2l-4.348,7.427-1.971,3.124-2.893,2.942,1.541,5.16-2.761,8.436Zm351.431,55.287s.577-.386.138.1Zm-351.1-55.155,2.77.552s0,.018-.016.053Zm203.934-38.509c-.343-.6-1.648-.664-.746-1.517s1.574-1.331,2.613-2.3.828-1.48,1.475-1.657a5.872,5.872,0,0,1,1.847,0c-.886,1.418-1.6,2.934-2.345,3.956a4.821,4.821,0,0,1-1.468,1.517,1.859,1.859,0,0,1-.852.311A.571.571,0,0,1-16201.445,3451.112Zm-12.615-11.136c.622-2.312,0-5.024,0-6.668v-7.674s.54,1.373,1.071,2.629,1.479.47,2.357,0,.082-.915,1.4-.631,2.712,1.855,4.414,2.156,1.471.581,4.587,3.52c2.135,2.011,1.76,1.76,1.9,1.509.063-.115.231-.231.8-.128,1.8.322,2.011-.4,4.154-1.381s1.27,2.547,1.27,4.933-1.451.28-3.751,0-2.642-.19-4.372-2.283-2.395-1.27-2.395-1.27a39.209,39.209,0,0,0-2.192,5.288c-1.019,3.054-3.516,2.765-3.516,2.765l-6.978.742A18.881,18.881,0,0,0-16214.061,3439.976Zm54.059-8.325a5.424,5.424,0,0,1-1.479-.453c-.078-.066-.425.095-.759.256-.676.322-1.314.643.359-.865,2.506-2.259,3.936-2.312,2.51-2.687a12.625,12.625,0,0,0-3.388-.062,12.9,12.9,0,0,1-1.908.062,6.987,6.987,0,0,1-2.984-1.389c-.481-.561-.635-.338-1.1-1.331s-.928-2.823-1.579-2.452-.144,1-.605,1.183-1.937-.367-3.12-1.183-2.089-3.631-1.648-.515a10.146,10.146,0,0,0,1.331,4.3,37.817,37.817,0,0,0-5.407.5c-1.689.4-2.732.478-3.239.886a3.065,3.065,0,0,1-2.118.536c-.952-.025-.774-.433-.705-1.925s-.037-2.3,0-2.98-2.159-1.5,0-2.069,2.494-.186,4.867-.618,2.943-.6,3.771-1.063,1.229-.35,2.053-1.269,1-.511,1.1-1.113-1.706-2.761-2.744-3.26a1.057,1.057,0,0,0-.8-.083c-.326.087-.417.169-.557-1.055-.223-1.912-.548-2.906.523-3.487s1.851-.733,1.933-1.669-.721-2.86-.705-3.293.688-.317,0-1.253-2.241-2.028-2.909-2.893a19.683,19.683,0,0,1-1.187-1.574,14.048,14.048,0,0,0-1.377-1.591,14.151,14.151,0,0,0-2.229-2.044c-1.22-.973.589,0-1.731-1.393a5.588,5.588,0,0,0-4.162-.49,5.455,5.455,0,0,1-1.372.177c-.952-.124-1.929-2.044-1.929-2.044s1.978-.392-1.262-1.488a38.938,38.938,0,0,0-4.6-1.3c-1.484-.412-1.01-.631-3.137-1.834s-4.368-3.227-4.739-3.239-.738-.354-.651.659a5.26,5.26,0,0,0,.651,2.943,5.121,5.121,0,0,0,1.476,1.471s-3.066.4-3.615.461-3.152,1.006-4.071.841-1.212-.5-1.236,0-.948.775-1.826.787c-.3,0-.218-.095-.106-.189.214-.186.552-.375-1.5.189a32.825,32.825,0,0,1-5.852.985c-.4.078-.9-.709-1.3-1.772s0-1.735-1.224-1.3-2.63,2.028-3.141,2.089-2.151.882-2.691,0a7.015,7.015,0,0,0-1.372-2.089,15.316,15.316,0,0,1-1.76-2.032l10.888-2.382s1.468,2.139,1.616,1.645.511-6.347.511-6.347l-4.817-3.231,4.307,1.175-5.016-5.2s4.57-.367,4.318-.659a13.016,13.016,0,0,0-2.464-1.661,17.636,17.636,0,0,1,2.464-.416l-3.609-1.686,6.639-3.878,4.258,6.322.366,6.487h1.611l.854-5.168,6.306,3.895.915-.977-3.536-2.6,4.579-.322-4.987-1.319s-.115-1.978,1.022-2,5.955,0,5.955,0l-.915,5.8,4.624-3.474-.688,3.19a8.505,8.505,0,0,1,2.185,1.7c.347.639.338,1.595.726,1.962s.635.119,1.9-.363,2.407-.812,2.407-.812-4.431-1.751-1.22-2.485,4.385-2.551,4.483.284a30.2,30.2,0,0,0,.479,4.356c0,.334-1.71.255.561,1.075a16.012,16.012,0,0,0,4.294.9h1.142V3376.8a3.4,3.4,0,0,0,.7-.486c.342-.309-2.11-.837.853-.4s4.683.058,4.616.4-2.428,1.191-3.037,1.854-.919.68-.742.981a2.608,2.608,0,0,0,2.56.4c.754-.527,1.1-1.3,1.591-1.376s.655-.787,1.149,0a7.2,7.2,0,0,1,1.019,1.76c.091.449.416,1.018-1.3,1.851s-2.316,1.018-2.456,1.311-2.65,1.315,0,1.158a10.971,10.971,0,0,1,3.009,0s2.357,1.459,2.324,2.036-.152.536,1.455.906c.263.06.406.086.478.095.183.078.574.231,1.344.511,3.021,1.092,4.624,1.78,4.884,2.168s-.536.19.572.771a26.284,26.284,0,0,1,2.613,1.669,18.806,18.806,0,0,0,3.152,1.092c1.146.243,1.724.313,1.724.313h2.559a1.906,1.906,0,0,1,1.756.289,20.659,20.659,0,0,0,2.057,1.051c.065,0-.334.235,1.06.169s2.254-.115,2.254-.115c.783.066,2.016-1.129,2.016-1.129.26-.066-.264,1.949-.4,2.765s.388.111,0,1.731-.453,1.17-.4,2.164a15.057,15.057,0,0,0,1.615,4.253c.486.849,1.57.016.989,1.125s-1.1,1.319-1.8.783a3.094,3.094,0,0,0-2.016-.783,2.667,2.667,0,0,1-1.628-.4c-.354-.264-1.043-.54-1.327-.721s-.219-2.341-.358-2.918.721-2.172-.433-.927a10.876,10.876,0,0,0-1.624,2.164s-.96-.643-1.409-.865a4.923,4.923,0,0,0-1.769-.771c-.8-.095-.869-1.933-2.86-1.257a10.461,10.461,0,0,0-2.781,1.257c-1.039.56-2.192.861-.371,1.636s2.1.882,2.848,1.253a2.262,2.262,0,0,0,1.1.1c.421-.033.585-.066-.165.326-1.327.68-3.511.927-3.416,1.393s.466.363,1.739,2.028,2.452,2.374,2.766,2.378c.136,0,.264-.26.412-.519.177-.313.4-.626.725-.478a16.061,16.061,0,0,1,2.11,1.541s.045-.037.639.441,2.588,2.712,3.545,2.774a3.6,3.6,0,0,0,2.254-.762c.145-.206-.857-1.15.268-.775s2.638.045,2.56,1.137-.692,1.541.5,2.159,1.641.363,2.773.717,2.218,2.489,2.218,2.489h-3.421s-2.279-.334,0,.767,2.56,1.245,2.56,1.245l2.917,3.664s-8.461-2.143-9.165-2.089-.573.321-1.546,0-2.085-.964-2.621-.878a.787.787,0,0,1-.367-.049c-.279-.095-.416-.194-.424.927-.009.729-1.385.626-2.448.523-1.142-.111-1.916-.223-.243.7,3.227,1.785,6.454,2.193,7.649,3.074a18.186,18.186,0,0,0,4.075,2.147c2.02.882,2.362,1.1,3.034,2.11.229.344-2.165.458-5.428.458C-16150.315,3432.109-16159.828,3431.684-16160,3431.651Zm-129.466-18.253s.117.318.333,1.039A2.265,2.265,0,0,1-16289.468,3413.4Zm28.651-8.91,2.324-6.182,8,6.182-2.836,2.98Zm-43.908-.017a1.627,1.627,0,0,0,0-1.772c-.614-.865.144-.7,0-1.632s-1.476-1.7-3.578-2.39-3.75-3.322-3.75-3.322l-1.735-4.381s16.32.049,16.762,0l-4.739-4.208s-10.46.045-11.581,0,0-3.87,0-3.87l7.455-.606s1.941-1.484,1.167-1.323-6.19-1.517-7.328-2.679-1.669-.865-1.294-1.364.544-1.756,1.294-2.609a7.524,7.524,0,0,1,3.223-1.929c.458.054,8.68-3.132,8.68-3.132l-1.063,5.061,4.826-2.65s.585.19,2.2,2.069c1.06,1.232.479,1.167-.238,1.1a1.785,1.785,0,0,0-1.026.082c-.685.441.132,2.135,1.265,2.007s2.91-.515,3.8-4.538.47.449,1.331,2.531a7.772,7.772,0,0,1,.705,2.6c.247.828,1.01,1.644,1.892,3.445a36.669,36.669,0,0,0,2.077,3.557c.247.425.655-13.608.655-13.608s5.589,2.25,5.589,4.9.375,7.526.474,9.718.124,1.686.717,2.675,8.984,6.977,9.562,7.571-.251.375-.754.639-1.063.206-1.352.581-1.158,1.772-1.686,1.677-3.978,0-3.978,0l.709,4.022s-5.156,1.03-5.547,1-1.5-5.02-1.5-5.02-3.989,2.65-5.51,3.074-4.406,2.72-4.406,2.72Zm86.226-10.571s.313-.805.179.269C-16218.436,3394-16218.5,3393.9-16218.5,3393.9Zm47.6-6.619c-.257-.11-.1-.071,0-.033.049.017.082.036.04.036Zm-91.031-2.51-8.885-7.744s.433-.058.828-1.789,0-2.324,0-2.324,3.5,2.984,4.03,2.91a4.79,4.79,0,0,1,1.479,0,14.577,14.577,0,0,0,0-2.91,42.937,42.937,0,0,0-2.263-4.488l8.969.449-4.159,4.039,5.144,2.91s.066,6.178,0,6.45-2.6,0-2.6,0l-.52,2.5Zm25.156-1.467-.767-12.817s3.146-3.54,3.5-3.94a5.147,5.147,0,0,1,2.584-1.376c.869-.029,2.263.981,2.217,1.376s-1.244,3.017-1.244,3.017v4.987l6.479,8.754Zm-14.89-3.169-1.674-13.757h11.227l-3.2,7.851s-5.061-.363-4.756.42,1.979,2.493.49,4.344c-.842,1.048-1.4,1.275-1.724,1.275A.479.479,0,0,1-16251.659,3380.135Zm-75.16-6.408s-.82-2.72-1.277-2.918-2.7-.115-2.366-.495,11.264-9.157,11.264-9.157v-4.962l7.361,1.228,2.868,3.734a22.563,22.563,0,0,1,3.939,1.228,7.157,7.157,0,0,1,3.07,3.375s-5.176,2.25-6.215,3.342-8.572,4.027-8.89,4.624-1.129,2.6-1.129,2.6l-1.006,1.463-7.62.511Zm70.066-15.871s3.136-4.929,3.42-3.957,2.976,6.9,2.976,6.9Zm12.545.981c-1.385-.573-1.36-.6-2.35-1s-.84-.581-.795-2.91-.906-2.885-1.067-3.532-.52-.9,0-3.685,1.067,1.146,1.067,1.146l.795.614v2.469a11.29,11.29,0,0,1,1.719-.544,1.592,1.592,0,0,1,1.817.544s.635,2.036,1.435,2.238.618-.639.618-.639.791.346,3.915,0c1.566-.177,1.81-.091,1.884,0s-.021.173.865,0c1.769-.35,2.118-.849,4.043-2.143a6.3,6.3,0,0,1,2.749-1.261s4.405.754,5.008,1.261-.718,1.179-.718,1.179a3.767,3.767,0,0,0,1.9,2.353c1.532.742.366.157,0,1.022s-1.258.771-1.9,1.15-.832.235-2.436-.519-1.854-.631-1.854-.631a5.861,5.861,0,0,1-1.966,2.889,2.958,2.958,0,0,1-1.9.33,6.527,6.527,0,0,0-2.411.243c-2.226.639-1.966.177-2.729,0s-1.426-1.17-3.28-2.312-.585,1.113-1.793,2.312c-.373.373-.634.514-.858.514C-16242.941,3359.923-16243.257,3359.231-16244.208,3358.836Zm-50.49-.874c.306-.7,4.089-1.031,4.225-2.213.074-.684-.832-.548-1.789-.412a3.4,3.4,0,0,1-1.821-.025c-.919-.536,0-2.155-.614-2.567s-.659.536-1.929,1.4-1.318,1.1-2.716,1.166a3.864,3.864,0,0,1-2.571-1.166,6,6,0,0,0,2.571-1.747c1.364-1.443,2.213-1.109,2.716-1.463s.553-1.574,3.211-4.344,1.578,2.238,1.929,2.749a35.443,35.443,0,0,0,3.194,4c1.075,1.034.808,1.22,1.174,1.385a3.718,3.718,0,0,0,2.943-1.385c1.051-1.179-.751-1.887-1.093-3s1.093-2.534,2.848-4.777.351.61.351,1.513a17.4,17.4,0,0,0,.351,4.871c.527,2.155,3.861-.4,3.861-.4a24.17,24.17,0,0,1,0,3.775c-.161,2.283-.771,1.879-1.389,2a14.7,14.7,0,0,1-3.174,0,2.078,2.078,0,0,0-2.365,1.175c-.548.709-6.771,1.327-7.641,1.327C-16292.427,3359.817-16295,3358.655-16294.7,3357.963Zm29.175.173c-2.567-.54-.095-.392,0-1.1s.82-1.294,1.446-2.514,0-.68,0-.68a1.807,1.807,0,0,1-2.126.68c-1.435-.458-.85-.68-.85-.68s.523-2.46.85-1.921,1.6,1.15,1.521.618.082-.428,0-1.323a18.635,18.635,0,0,0-.841-2.98s1.521.779,2.625,1.484.623-.243,1.41-.7,0,.7,0,.7a11.584,11.584,0,0,1,1.483,2.819c.169.927.33,1.208.515,1.982s-.268,1.442-.515,2.514-.82,1.158-1.483,1.1a3.453,3.453,0,0,0-.857.111,6.39,6.39,0,0,1-1.223.118A9.433,9.433,0,0,1-16265.523,3358.136Zm-38.835-11.325v0Zm0-1.389s-2.972-.622-2.855-.9.486-.181,1.578-1.583,1.442-1.372,2.011-2.279,1.979-1.595,3.809-1.966a5.832,5.832,0,0,1,2.6,0c.928,0,2.72.964,3.75,1.133s.347.4,0,.833a10.44,10.44,0,0,1-1.1,1.4c-.594.573-3.062,2.551-3.528.882s-.247-1.409-.626-1.566-.594.581-1.1,1.158a8.286,8.286,0,0,0-1.076,1.595,10.65,10.65,0,0,1-3.466,2.687Zm61.342-1.566a17.511,17.511,0,0,0,2.679-1.294,1.953,1.953,0,0,0,.672-1.64l-2.457-2.807a7.735,7.735,0,0,1,3.606.923c1.916,1.006,2.2,1.372,2.535,1.006s.11-1.109,1.088-1.929a4.881,4.881,0,0,0,1.352-2.011,8.683,8.683,0,0,0,1.521,2.011c1.019,1.006-.618.206,1.525.923a9.447,9.447,0,0,0,3.589.47c.466-.008.948-.012,1.492.021,1.817.111,1.821-.111,2.04.515.078.235.3.07.486-.1.31-.272.54-.548-.062.977-.969,2.452-2.007,4.208-2.465,4.175a1.532,1.532,0,0,0-.594.169,1.839,1.839,0,0,1-1.838-.169c-1.232-.787-3.326-2.535-3.326-2.535a14.379,14.379,0,0,1-2.369,1.294c-1.945.9-2.308.944-2.885,1.24a1.485,1.485,0,0,1-.993.029,2.89,2.89,0,0,0-1.1-.029c-.392.07-.5-.021-.605-.111-.148-.128-.28-.26-1.216.111a15.846,15.846,0,0,1-2.679.824S-16244.063,3344.383-16243.017,3343.855Zm-42.681-4.253-1.838-1.072s.017-1.863.536-1.768a28.821,28.821,0,0,0,3.173,0c2.35,0,.371.458.482.919s.029.519-.482,1.921c-.17.469-.435.625-.712.625A2.084,2.084,0,0,1-16285.7,3339.6Zm26.253-2.8a8.427,8.427,0,0,1-1.245-2.547c-.671-1.912-.074-.808,0-2.122s1.015.144,2.325.717a15.481,15.481,0,0,1,2.423,1.405c.5.293.458,2.1.458,2.547,0,.238-.718.385-1.6.385A6.716,6.716,0,0,1-16259.444,3336.8Zm-6.524-.791c-1.442-.783-1.092-1.088-1.409-2.02-.177-.528-1.146-.33-1.945-.132-.614.152-1.129.3-1.112.132.037-.4,1.479-1.339,1.479-1.339l-3.413-1.08v-3.264a18.455,18.455,0,0,0,3.413,1.743c1.4.437,1.207,1.026,1.578,1.521s2.6,1.08,2.6,1.08a19.256,19.256,0,0,0,1.134,1.92c.383.5,0,2.23,0,2.23A5.5,5.5,0,0,1-16265.969,3336.013Zm33.741-1.4s-.227-.429-1.607-1.282-.568.82-.568.82a12.423,12.423,0,0,1-2.329,1.4c-1.545.746-.444,0-.444,0a30.719,30.719,0,0,0-1.7-2.65,4.328,4.328,0,0,0-1.187.433,7.139,7.139,0,0,1-2.007.82c-.6.012.482-1.813.561-2.485s-.008-.4.659-1.158.787-.486.787-.486a7.616,7.616,0,0,0,1.616.486c.894.161.96.536,1.273.528s1.393-.7,1.38-1.014-1.38-.845-1.38-.845l2.271-2.712s-3.66-.7-3.973-.841-6.458-5.943-6.458-5.943l5.688.9,4.743,1.817s-3.326-3.289-3.544-3.61,1.673-2.786,4.615-4.62-.173-.375-1.962-3.128-.771.062-1.38.754a4.451,4.451,0,0,0-.278,3.053c-.378.038-1.065.179-1.832.318-1.533.283-3.383.563-3.7.03-.021.174-.039.308-.039.308s-5.254.713-4.3-.569,1.513-2.052,1.513-2.052-3.491,1.459-4.855,1.286-.911-.47-1.385-.713-1.339-2.131-1.286-4.237,2.032-.107,3.742,0a7.327,7.327,0,0,0,2.762,0c1.7-.235-1.1-.676-1.624-3.079s1.162-.05,2.176.659,1.34.453,3.256.643,1.451-.041,1.509-.643-2.617-2.419-1.509-5.312c.7-1.822.61-1.554.932-1.286.189.157.52.313,1.236.054,1.938-.717,5.622-1.352,7.958-2.226s-.024,1.273.668,1.616,1.084-.556,1.554-.944a11.085,11.085,0,0,1,2.894-1.615,4.054,4.054,0,0,1,2.155,0s1.216-.017,0,5.3c-.824,3.594-.733,2.613-.936,1.636-.1-.47-.264-.936-.622-.9-1.117.1-3.866,2.3-2.172,1.463s1.574,0,1.574,0l.6,4.636s.507-.342,2.386-1.776.763-2.934,1.5,4.352c.491,4.826.33,3.536.17,2.246a10.409,10.409,0,0,0-.17-1.158c0,.453-.147,1.24-3.227,4.665-1.875,2.085-1.389,1.945-.767,1.809.4-.086.845-.177.767.326-.206,1.278.21,1.175,0,1.661s-2.217,1.624-3.664,2.741-.152.4,0,1.541c.1.8.6.787,1.184.783a3.277,3.277,0,0,1,.771.058c.849.2.82.321,2.6.8s.486.857.828,1.451.029,1.566-.828,2.32-.8.766-.895,1.2a20.21,20.21,0,0,1-.663,3.318c-.223.462-.3.458-.763.453a7.827,7.827,0,0,0-1.409.1Zm-18.937-.35c-.193-.437.536-.894.614-1.364s-.23-.54-2.782-1.373-.639-1.261,0-1.405,1.744-2.16,1.744-2.16-1.934.045-2.745,0a1.747,1.747,0,0,1-1.558-1.121c-.239-.569-.59-.589-.59-.589a6.02,6.02,0,0,0-1.491-3.478c-1.4-1.492-.536-.833,0-2.1.346-.824.576-.548.886-.276a.827.827,0,0,0,.605.276c.7-.066.577-.449-.915-2.518s.1-.565,0-1.945.8-1.117,1.5-1.484.9.94,1.558,1.484,1.2,1.2,1,1.525,2.3,1.517,3.475,2.938,1.026.227,1.8,0,.676.26,1.641,1.273.186.606.568,1.546.685.816,1.348,1.018.569.153,1.479,0,.883.062,1.394.47,0,.659,0,.659a7.663,7.663,0,0,1-.5,2.32c-.449,1.047.189.8,0,1.241s-1.858.919-1.858.919h-.516s-.223.927-.519,2.02-.421.161-.829,0a2.039,2.039,0,0,0-1.018,0s-.733,2.493-1.191,2.122c-.223-.181-.919-.082-1.595.012a8.416,8.416,0,0,1-1.091.12C-16250.966,3334.393-16251.122,3334.358-16251.165,3334.261Zm-33.938-1.29,3.33-1.4a7.517,7.517,0,0,1,.948,1.4c.064.165-.39.22-1.023.22C-16283.116,3333.191-16285.1,3332.971-16285.1,3332.971Zm47.648-18.126c.25-.025.365-.006.278.087a.177.177,0,0,1-.122.067C-16237.359,3315-16237.411,3314.943-16237.455,3314.845Z" transform="translate(17316.02 -3011.58)" fill="#f89f1b"/>
  </g>
</svg>
