<svg xmlns="http://www.w3.org/2000/svg" xmlns:xlink="http://www.w3.org/1999/xlink" width="536" height="549" viewBox="0 0 536 549">
  <defs>
    <clipPath id="clip-path">
      <rect id="Rectangle_180" data-name="Rectangle 180" width="536" height="549" transform="translate(2648 931)" fill="#fff" opacity="0.3"/>
    </clipPath>
    <radialGradient id="radial-gradient" cx="0.5" cy="0.5" r="0.707" gradientTransform="matrix(0.408, 0.707, -0.408, 0.707, 0.511, -0.254)" gradientUnits="objectBoundingBox">
      <stop offset="0" stop-color="#58ddf5"/>
      <stop offset="0.121" stop-color="#4bc9e0"/>
      <stop offset="0.284" stop-color="#45a6b7"/>
      <stop offset="0.445" stop-color="#3491a2"/>
      <stop offset="0.6" stop-color="#1d535d"/>
      <stop offset="0.748" stop-color="#0f262b"/>
      <stop offset="0.885" stop-color="#0c2024"/>
      <stop offset="1"/>
    </radialGradient>
    <radialGradient id="radial-gradient-2" cx="0.491" cy="0.516" r="0.831" gradientTransform="translate(0.207 16.48) scale(0.578 0.555)" gradientUnits="objectBoundingBox">
      <stop offset="0" stop-color="#3dd2ed"/>
      <stop offset="0.121" stop-color="#3fbbd1"/>
      <stop offset="0.284" stop-color="#288696"/>
      <stop offset="0.445" stop-color="#1f6b79"/>
      <stop offset="0.6" stop-color="#144c57"/>
      <stop offset="0.748" stop-color="#123d45"/>
      <stop offset="0.885" stop-color="#0b2a2f"/>
      <stop offset="1" stop-color="#0a3941"/>
    </radialGradient>
    <linearGradient id="linear-gradient" x1="0.5" y1="0.805" x2="0.5" gradientUnits="objectBoundingBox">
      <stop offset="0" stop-color="#fff" stop-opacity="0"/>
      <stop offset="0.115" stop-color="#fff"/>
      <stop offset="0.252" stop-color="#fff" stop-opacity="0"/>
      <stop offset="0.4" stop-color="#58ddf5" stop-opacity="0.078"/>
      <stop offset="0.555" stop-color="#40bcd1" stop-opacity="0.09"/>
      <stop offset="0.682" stop-color="#3fb7cc" stop-opacity="0.2"/>
      <stop offset="0.82" stop-color="#55daf2" stop-opacity="0.424"/>
      <stop offset="1" stop-color="#58ddf5" stop-opacity="0.557"/>
    </linearGradient>
    <linearGradient id="linear-gradient-3" x1="0.5" y1="0.805" x2="0.5" gradientUnits="objectBoundingBox">
      <stop offset="0" stop-color="#fff" stop-opacity="0"/>
      <stop offset="0.115" stop-color="#fff" stop-opacity="0"/>
      <stop offset="0.252" stop-color="#fff" stop-opacity="0"/>
      <stop offset="0.4" stop-color="#58ddf5" stop-opacity="0.078"/>
      <stop offset="0.555" stop-color="#40bcd1" stop-opacity="0.09"/>
      <stop offset="0.682" stop-color="#3fb7cc" stop-opacity="0.2"/>
      <stop offset="0.82" stop-color="#55daf2" stop-opacity="0.424"/>
      <stop offset="1" stop-color="#58ddf5" stop-opacity="0.557"/>
    </linearGradient>
  </defs>
  <g id="Mask_Group_23" data-name="Mask Group 23" transform="translate(-2648 -931)" clip-path="url(#clip-path)">
    <g id="Group_577" data-name="Group 577">
      <circle id="Ellipse_2056" data-name="Ellipse 2056" cx="59.5" cy="59.5" r="59.5" transform="translate(2964.744 1250)" fill="#f89f1b"/>
      <circle id="Ellipse_2058" data-name="Ellipse 2058" cx="59.5" cy="59.5" r="59.5" transform="translate(2704.744 1180)" fill="#f89f1b"/>
      <circle id="Ellipse_2057" data-name="Ellipse 2057" cx="33" cy="33" r="33" transform="translate(2931.244 1026.5)" fill="#f89f1b"/>
      <g id="Ellipse_2059" data-name="Ellipse 2059" transform="translate(2872.997 962) rotate(25)" fill="none" stroke="#18a7c3" stroke-width="2">
        <ellipse cx="128.298" cy="212.303" rx="128.298" ry="212.303" stroke="none"/>
        <ellipse cx="128.298" cy="212.303" rx="127.298" ry="211.303" fill="none"/>
      </g>
      <g id="Group_431" data-name="Group 431" transform="translate(2421.671 -566.722)">
        <g id="Group_431-2" data-name="Group 431" transform="translate(152.062 1518.206)">
          <g id="Group_439" data-name="Group 439" transform="translate(0)">
            <ellipse id="Ellipse_1" data-name="Ellipse 1" cx="342.267" cy="197.608" rx="342.267" ry="197.608" transform="translate(0 117.084)" opacity="0" fill="url(#radial-gradient)" style="mix-blend-mode: lighten;isolation: isolate"/>
            <g id="Group_4" data-name="Group 4" transform="translate(109.185 170.07)">
              <g id="Group_3" data-name="Group 3">
                <g id="Group_2" data-name="Group 2">
                  <g id="Group_1" data-name="Group 1">
                    <path id="Path_1" data-name="Path 1" d="M455.559,205.26l145.4,83.717c2.186,1.26,1.915,3.462-.606,4.922L291.68,472.605c-2.521,1.46-6.337,1.622-8.523.363l-145.4-83.717c-2.188-1.26-1.916-3.462.606-4.922L447.035,205.623C449.557,204.164,453.373,204,455.559,205.26Z" transform="translate(-136.275 -167.22)" fill="#58ddf5" opacity="0.3"/>
                    <path id="Path_2" data-name="Path 2" d="M136.276,354.723l.047,10.194.026-.014a2.533,2.533,0,0,0,1.449,2.052l145.4,83.717c2.186,1.26,6,1.1,8.523-.363L600.4,271.6a3.446,3.446,0,0,0,2.056-2.807l.025.014-.045-10.183-16.09,8.886L455.6,192.238c-2.186-1.258-6-1.1-8.525.363L151.509,363.719c.757-.831,1.3-1.445,1.306-1.49C152.825,362.079,136.276,354.723,136.276,354.723Z" transform="translate(-136.275 -172.047)" fill="#58ddf5"/>
                    <path id="Path_3" data-name="Path 3" d="M250.686,392.9l-.06-41.423-6.636-3.82.066,45.444A9.854,9.854,0,0,0,250.686,392.9Z" transform="translate(-96.343 -114.116)" fill="#18a7c3"/>
                    <path id="Path_4" data-name="Path 4" d="M455.559,178.126l145.4,83.717c2.186,1.26,1.915,3.464-.606,4.924L291.68,445.471c-2.521,1.46-6.337,1.623-8.523.363l-145.4-83.717c-2.188-1.258-1.916-3.462.606-4.922L447.035,178.489C449.557,177.03,453.373,176.868,455.559,178.126Z" transform="translate(-136.275 -177.279)" fill="#58ddf5"/>
                    <path id="Path_5" data-name="Path 5" d="M283.152,422.522,137.749,338.8a2.313,2.313,0,0,1-1.317-2.894,2.764,2.764,0,0,0,1.4,1.631l145.4,83.717c2.186,1.26,6,1.1,8.523-.363l308.676-178.7a4.173,4.173,0,0,0,1.923-2.029c.3,1.1-.38,2.351-2,3.29L291.675,422.158C289.154,423.618,285.338,423.781,283.152,422.522Z" transform="translate(-136.271 -153.966)" fill="#0f505c"/>
                    <path id="Path_6" data-name="Path 6" d="M426.581,184.775,579.9,273.051,302.538,433.628l-153.32-88.276Z" transform="translate(-131.477 -174.5)" fill="#18a7c3"/>
                    <path id="Path_7" data-name="Path 7" d="M426.581,184.775,579.9,273.051,302.538,433.628l-153.32-88.276Z" transform="translate(-131.477 -174.5)" fill="#18a7c3"/>
                    <path id="Path_8" data-name="Path 8" d="M426.581,184.775,579.9,273.051,302.538,433.628l-153.32-88.276Z" transform="translate(-131.477 -174.5)" opacity="0.5" fill="url(#radial-gradient-2)"/>
                    <path id="Path_9" data-name="Path 9" d="M192.366,332.314l27.783,15.942c.809.466,1.275.992.766,1.631a2.578,2.578,0,0,1-.729.6h0a4.691,4.691,0,0,1-4.22.18l-28.027-16.136c-.085-.049-.21-.07-.232-.155-.229-.887-.155-1.1,1-1.765l.385-.08A2.942,2.942,0,0,1,192.366,332.314Z" transform="translate(-117.247 -119.953)" fill="#18a7c3"/>
                    <path id="Path_10" data-name="Path 10" d="M187.819,334.481a2.561,2.561,0,0,1,.726-.6,4.692,4.692,0,0,1,4.219-.18l28.027,16.138a1.96,1.96,0,0,1,.226.165,1.14,1.14,0,0,0-.428-1.837l-28.027-16.138a4.688,4.688,0,0,0-4.219.18C187.2,332.873,187,333.843,187.819,334.481Z" transform="translate(-117.352 -120.065)" fill="#58ddf5"/>
                  </g>
                </g>
              </g>
            </g>
            <g id="Group_7" data-name="Group 7" transform="translate(209.461 320.643)">
              <g id="Group_6" data-name="Group 6">
                <g id="Group_5" data-name="Group 5">
                  <path id="Path_11" data-name="Path 11" d="M220.681,296.956l-10.054-5.805c-1.594-.92-1.594-2.412,0-3.334h0a6.385,6.385,0,0,1,5.773,0l10.054,5.805c1.594.921,1.594,2.414,0,3.334h0A6.377,6.377,0,0,1,220.681,296.956Z" transform="translate(-209.431 -287.128)" fill="#58ddf5" opacity="0.2"/>
                  <path id="Path_12" data-name="Path 12" d="M235.859,305.719,225.8,299.914c-1.594-.92-1.594-2.412,0-3.332h0a6.377,6.377,0,0,1,5.773,0l10.054,5.8c1.594.921,1.594,2.414,0,3.334h0A6.377,6.377,0,0,1,235.859,305.719Z" transform="translate(-203.804 -283.879)" fill="#58ddf5" opacity="0.6"/>
                  <path id="Path_13" data-name="Path 13" d="M251.037,314.482l-10.054-5.8c-1.594-.921-1.594-2.414,0-3.334h0a6.377,6.377,0,0,1,5.774,0l10.054,5.8c1.594.921,1.594,2.414,0,3.334h0A6.376,6.376,0,0,1,251.037,314.482Z" transform="translate(-198.177 -280.63)" fill="#58ddf5"/>
                  <path id="Path_14" data-name="Path 14" d="M266.215,323.245l-10.054-5.8c-1.594-.921-1.594-2.414,0-3.334h0a6.377,6.377,0,0,1,5.773,0l10.054,5.805c1.594.92,1.594,2.412,0,3.332h0A6.377,6.377,0,0,1,266.215,323.245Z" transform="translate(-192.55 -277.382)" fill="#58ddf5" opacity="0.6"/>
                  <path id="Path_15" data-name="Path 15" d="M281.394,332.009,271.34,326.2c-1.6-.921-1.6-2.414,0-3.334h0a6.377,6.377,0,0,1,5.773,0l10.054,5.805c1.594.92,1.594,2.412,0,3.334h0A6.385,6.385,0,0,1,281.394,332.009Z" transform="translate(-186.923 -274.133)" fill="#58ddf5" opacity="0.2"/>
                </g>
              </g>
            </g>
            <g id="Group_29" data-name="Group 29" transform="translate(173.638 50.146)">
              <g id="Group_8" data-name="Group 8" transform="translate(79.515 205.472)">
                <ellipse id="Ellipse_2" data-name="Ellipse 2" cx="84.761" cy="48.937" rx="84.761" ry="48.937" fill="#065564" opacity="0.2"/>
                <ellipse id="Ellipse_3" data-name="Ellipse 3" cx="48.085" cy="27.762" rx="48.085" ry="27.762" transform="translate(36.675 21.174)" fill="#037286"/>
              </g>
              <g id="Group_9" data-name="Group 9" transform="translate(0 33.641)" opacity="0.3">
                <path id="Path_16" data-name="Path 16" d="M382.751,155.963c1.053,5.959,5.472,20.932,23.7,31.29,25.953,11.986,43.93,27.739,49.953,45.33a40.763,40.763,0,0,0,1.567,3.789c.646-1.065.646-1.065.65-3.645V203.192c-.012-17.341-.984-21.164-2.216-26-6.023-17.591-24-33.346-49.953-45.33-20.7-6.684-25.716,12.729-23.7,24.1Z" transform="translate(-109.506 -108.341)" fill="#58ddf5"/>
                <path id="Path_17" data-name="Path 17" d="M250.577,126.518c27.478-7.971,59.983-12.459,94.677-12.173q6.865.056,13.595.356c30.464,2.783,41.3,34.955,22.932,49.031-8.431,6.46-18.592,6.393-22.932,6.364q-6.725-.3-13.595-.358c-34.694-.284-67.2,4.2-94.677,12.175-27.743,6.758-29.383-21.437-19.681-38.683,3.264-5.8,9.326-13.407,19.681-16.712Z" transform="translate(-167.648 -114.332)" fill="#58ddf5"/>
                <path id="Path_18" data-name="Path 18" d="M183.3,237.946c.757-8.781,1.354-15.715,10.294-27.819,18.845-27.808,15.04-60.127,4.629-58.634-1.678.241-3.423,2.049-4.629,3.239-6.327,8.245-9.923,17.111-10.267,26.36-.018.488-.027.973-.027,1.458v55.4Z" transform="translate(-183.297 -100.573)" fill="#58ddf5"/>
              </g>
              <g id="content" transform="translate(83.453 0)">
                <g id="Group_359" data-name="Group 359" transform="translate(0 0)">
                  <g id="Group_341" data-name="Group 341" transform="translate(1.062 5.043)">
                    <g id="Group_320" data-name="Group 320" transform="translate(0 62.169)">
                      <path id="Path_454" data-name="Path 454" d="M261.6,62.69l.009-.013s-21.008-8.145-29.267,7.069,10.046,28.38,10.046,28.38l0-.011c2.694,2.276,6.77,2.307,11.286-.465,7.808-4.791,13.937-16.1,13.693-25.251C267.227,67.1,264.977,63.7,261.6,62.69Z" transform="translate(-229.285 -59.616)" fill="#58ddf5"/>
                      <path id="Path_455" data-name="Path 455" d="M247.6,101.209a8.02,8.02,0,0,1-5.137-1.764l-.109-.076c-.19-.136-18.873-13.827-10.321-29.58s30.2-7.574,30.42-7.491l.152.06a7.664,7.664,0,0,1,.755.293l.109.042,0,.007c3.281,1.523,5.208,5.153,5.345,10.16.252,9.439-6.091,21.133-14.133,26.071A13.766,13.766,0,0,1,247.6,101.209Zm-4.947-4.02.851.7c2.488,2.1,6.2,1.9,10.2-.547,7.542-4.628,13.486-15.59,13.249-24.434-.127-4.684-1.988-7.906-5.106-8.844l-1.132-.337.029-.049c-4.246-1.342-20.325-5.432-27.072,7-6.792,12.512,5.595,23.8,8.963,26.547Z" transform="translate(-229.791 -60.103)" fill="#18a7c3"/>
                    </g>
                    <g id="Group_321" data-name="Group 321" transform="translate(59.961 226.903)">
                      <path id="Path_456" data-name="Path 456" d="M295.437,155.5h.013s-2.7-21.209-19.132-21.218S257.185,155.5,257.185,155.5h.011c-.681,3.274,1.139,6.689,5.492,9.2,7.529,4.349,19.73,4.349,27.259,0C294.3,162.185,296.12,158.77,295.437,155.5Z" transform="translate(-256.122 -133.347)" fill="#58ddf5"/>
                      <path id="Path_457" data-name="Path 457" d="M276.835,169.386a28.822,28.822,0,0,1-14.1-3.368c-4.494-2.593-6.66-6.229-5.975-10l.016-.125c.027-.219,3-22.031,20.045-22.031h.011c17.048.011,20.025,21.812,20.054,22.031l.022.172c.042.243.074.489.092.733l.02.145h-.007c.2,3.437-1.963,6.7-6.088,9.077A28.8,28.8,0,0,1,276.835,169.386ZM258.8,155.081h.045l-.223,1.119c-.623,3.006,1.213,6,5.043,8.208,7.259,4.188,19.069,4.192,26.33,0,3.833-2.211,5.671-5.2,5.048-8.208l-.235-1.119h.056c-.809-4.172-4.672-19.353-18.031-19.36h-.011C263.452,135.721,259.606,150.909,258.8,155.081Z" transform="translate(-256.638 -133.861)" fill="#18a7c3"/>
                    </g>
                    <g id="Group_322" data-name="Group 322" transform="translate(70.404 195.155)">
                      <path id="Path_458" data-name="Path 458" d="M261.731,120.154v32.582c-.031,1.329.829,2.662,2.582,3.674a13.783,13.783,0,0,0,12.476,0c1.722-.994,2.582-2.3,2.582-3.6h0V120.065Z" transform="translate(-260.799 -119.129)" fill="#58ddf5"/>
                      <path id="Path_459" data-name="Path 459" d="M271.066,159.361a13.624,13.624,0,0,1-6.7-1.628c-2.008-1.159-3.087-2.758-3.049-4.5V119.747l19.5-.1v33.68c0,1.709-1.083,3.272-3.049,4.407A13.633,13.633,0,0,1,271.066,159.361ZM263.177,121.6v31.659c-.025,1.056.726,2.066,2.117,2.87a12.79,12.79,0,0,0,11.543,0c1.367-.791,2.12-1.785,2.12-2.8V121.515Z" transform="translate(-261.313 -119.646)" fill="#18a7c3"/>
                    </g>
                    <g id="Group_325" data-name="Group 325" transform="translate(33.461 144.527)">
                      <g id="Group_323" data-name="Group 323" transform="translate(0.031 0.002)">
                        <path id="Path_460" data-name="Path 460" d="M245.542,127.047h-.025s6.5,50.333,45.5,50.284,45.326-50.445,45.326-50.445h-.029c1.606-7.777-2.727-15.875-13.07-21.825-17.888-10.283-46.858-10.231-64.708.118C248.218,111.163,243.912,119.277,245.542,127.047Z" transform="translate(-244.269 -96.481)" fill="#58ddf5"/>
                        <path id="Path_461" data-name="Path 461" d="M291.484,178.761c-39.318,0-46.308-50.583-46.373-51.092l-.054-.4c-1.516-8.375,3.388-16.512,13.533-22.395,18.084-10.477,47.526-10.531,65.637-.116,10.223,5.878,15.156,14.057,13.586,22.486l-.027.261c-.062.511-6.884,51.209-46.246,51.258ZM247.108,128.41c1.181,6.964,9.689,48.49,44.376,48.49h.054c34.648-.042,43.05-41.422,44.24-48.584h-.056l.205-1.119c1.588-7.708-3.013-15.3-12.628-20.827-17.6-10.122-46.21-10.073-63.776.112-9.593,5.561-14.169,13.168-12.55,20.874l.217,1.05Z" transform="translate(-244.787 -96.979)" fill="none" stroke="#18a7c3" stroke-width="1"/>
                      </g>
                      <g id="Group_324" data-name="Group 324" transform="translate(0 0)">
                        <path id="Path_462" data-name="Path 462" d="M323.3,105.121c17.868,10.316,17.868,27.043,0,37.357s-46.838,10.316-64.708,0-17.865-27.043,0-37.359S305.43,94.8,323.3,105.121Z" transform="translate(-244.258 -96.478)" fill="#58ddf5"/>
                        <path id="Path_463" data-name="Path 463" d="M291.459,151.622c-11.884,0-23.768-2.611-32.818-7.835-8.941-5.164-13.868-12.083-13.868-19.487s4.927-14.323,13.868-19.485c18.1-10.448,47.546-10.45,65.639,0h0c8.943,5.161,13.868,12.083,13.868,19.485s-4.925,14.323-13.868,19.487C315.23,149.008,303.345,151.622,291.459,151.622Zm0-52.81c-11.547,0-23.094,2.539-31.887,7.614-8.342,4.818-12.936,11.165-12.936,17.874s4.594,13.059,12.934,17.874c17.586,10.153,46.192,10.153,63.781,0,8.34-4.815,12.934-11.163,12.934-17.874s-4.594-13.057-12.934-17.874C314.557,101.351,303.01,98.812,291.459,98.812Z" transform="translate(-244.773 -96.978)" fill="#18a7c3"/>
                      </g>
                    </g>
                    <g id="Group_328" data-name="Group 328" transform="translate(4.55 34.273)">
                      <g id="Group_326" data-name="Group 326" transform="translate(0 21.13)">
                        <path id="Path_464" data-name="Path 464" d="M381.575,146.954a25.319,25.319,0,0,0-.643-5.577c-1.823-13.414-8.353-49.027-29.173-83.866L306.9,61.288l-44.852-3.777c-20.82,34.84-27.346,70.452-29.176,83.866C230,154.186,237.063,167.6,254.1,177.438c29.162,16.836,76.44,16.836,105.6,0,14.582-8.418,21.87-19.451,21.87-30.484Z" transform="translate(-231.306 -56.535)" fill="#58ddf5"/>
                        <path id="Path_465" data-name="Path 465" d="M307.426,191.5c-19.29,0-38.581-4.239-53.263-12.72-16.876-9.74-24.776-23.252-21.671-37.069,1.849-13.622,8.436-49.252,29.283-84.141l.3-.5L307.5,60.9l45.277-3.826.3.5c20.852,34.893,27.433,70.521,29.3,84.217a26.008,26.008,0,0,1,.652,5.7c0,11.86-7.931,22.973-22.337,31.288C346.006,187.262,326.718,191.5,307.426,191.5ZM263.074,59.026c-20.434,34.431-26.913,69.494-28.753,83.015-2.928,13.048,4.648,25.823,20.771,35.132,28.856,16.657,75.812,16.657,104.671,0,13.8-7.973,21.405-18.513,21.405-29.68a24.528,24.528,0,0,0-.621-5.374c-1.852-13.6-8.326-48.658-28.769-83.093L307.5,62.754Z" transform="translate(-231.828 -57.074)" fill="#18a7c3"/>
                      </g>
                      <g id="Group_327" data-name="Group 327" transform="translate(28.911)">
                        <path id="Path_466" data-name="Path 466" d="M323.3,55.755c17.868,10.319,17.868,27.043,0,37.361s-46.838,10.316-64.708,0-17.865-27.043,0-37.361S305.43,45.439,323.3,55.755Z" transform="translate(-244.258 -47.115)" fill="#58ddf5"/>
                        <path id="Path_467" data-name="Path 467" d="M291.459,102.254c-11.884,0-23.768-2.611-32.818-7.835-8.941-5.161-13.868-12.083-13.868-19.485S249.7,60.611,258.641,55.45C276.738,45,306.186,45,324.28,55.45h0c8.943,5.161,13.868,12.081,13.868,19.485s-4.925,14.323-13.868,19.485C315.23,99.643,303.345,102.254,291.459,102.254Zm0-52.808c-11.547,0-23.094,2.537-31.887,7.614-8.342,4.818-12.936,11.163-12.936,17.874s4.594,13.057,12.934,17.874c17.586,10.151,46.192,10.151,63.781,0,8.34-4.818,12.934-11.165,12.934-17.874S331.69,61.877,323.35,57.06C314.557,51.983,303.01,49.446,291.459,49.446Z" transform="translate(-244.773 -47.613)" fill="#18a7c3"/>
                      </g>
                    </g>
                    <g id="Group_329" data-name="Group 329" transform="translate(33.495)">
                      <path id="Path_468" data-name="Path 468" d="M336.312,83.049h.027s-6.414-50.344-45.415-50.364S245.51,83.049,245.51,83.049h.027c-1.617,7.772,2.7,15.88,13.032,21.845,17.87,10.316,46.84,10.316,64.708,0C333.611,98.929,337.931,90.822,336.312,83.049Z" transform="translate(-244.271 -31.754)" fill="#58ddf5"/>
                      <path id="Path_469" data-name="Path 469" d="M291.44,114.05c-11.884,0-23.771-2.613-32.818-7.835-10.207-5.894-15.123-14.08-13.544-22.5l.027-.266c.065-.511,6.975-51.177,46.311-51.177h.025c39.365.02,46.275,50.666,46.34,51.177l.047.377c1.514,8.387-3.4,16.525-13.566,22.393C315.211,111.437,303.327,114.05,291.44,114.05Zm-44.33-31.418h.06l-.2,1.121c-1.606,7.705,2.984,15.3,12.583,20.849,17.586,10.153,46.192,10.153,63.781,0,9.6-5.546,14.191-13.144,12.586-20.849l-.232-1.121h.083c-1.206-7.163-9.7-48.486-44.328-48.5h-.025C256.806,34.128,248.319,75.47,247.111,82.632Z" transform="translate(-244.788 -32.268)" fill="#18a7c3"/>
                    </g>
                    <g id="Group_330" data-name="Group 330" transform="translate(70.829 3.71)">
                      <ellipse id="Ellipse_1-2" data-name="Ellipse 1" cx="8.396" cy="4.848" rx="8.396" ry="4.848" transform="translate(0.932 0.94)" fill="#fff"/>
                      <path id="Path_470" data-name="Path 470" d="M270.831,45.5a13.027,13.027,0,0,1-6.4-1.554c-1.885-1.088-2.926-2.593-2.926-4.232s1.041-3.145,2.926-4.235a13.961,13.961,0,0,1,12.8,0h0c1.885,1.09,2.924,2.593,2.924,4.235s-1.039,3.145-2.924,4.232A13.053,13.053,0,0,1,270.831,45.5Zm0-9.693a11.233,11.233,0,0,0-5.474,1.284,3.31,3.31,0,0,0-1.992,2.622,3.316,3.316,0,0,0,1.992,2.622,12.314,12.314,0,0,0,10.946,0c1.284-.744,1.992-1.675,1.992-2.622a3.31,3.31,0,0,0-1.992-2.622h0A11.23,11.23,0,0,0,270.833,35.812Z" transform="translate(-261.504 -33.929)" fill="#2a9db2"/>
                    </g>
                    <g id="Group_331" data-name="Group 331" transform="translate(123.63 74.574)">
                      <path id="Path_471" data-name="Path 471" d="M302.007,110.206v.013s24.17-5.267,22.518-24.2-26.4-19.9-26.4-19.9v.016c-3.844-.456-7.6,1.988-10.051,7.259-4.25,9.117-3.011,23.183,2.763,31.42C294.177,109.574,298.3,111.322,302.007,110.206Z" transform="translate(-284.642 -65.14)" fill="#58ddf5"/>
                      <path id="Path_472" data-name="Path 472" d="M300.281,111.985c-3.469,0-6.9-2.135-9.7-6.124-5.936-8.467-7.21-22.976-2.843-32.347,2.508-5.387,6.434-8.237,10.783-7.815l.143,0c.257.011,25.58,1.222,27.286,20.749s-23,25.138-23.246,25.193l-.17.036a8.155,8.155,0,0,1-.873.192l-.085.018v0A8.775,8.775,0,0,1,300.281,111.985Zm-2.555-44.461c-3.281,0-6.274,2.426-8.3,6.776-4.114,8.833-2.91,22.513,2.682,30.493,2.975,4.248,6.665,6.079,10.133,5.039l1.2-.362v.06c4.655-1.322,22.02-7.328,20.659-22.915-1.378-15.808-20.043-18.549-24.537-18.978v.042l-1.039-.109A6.821,6.821,0,0,0,297.726,67.523Z" transform="translate(-285.145 -65.658)" fill="#18a7c3"/>
                    </g>
                    <g id="Group_332" data-name="Group 332" transform="translate(36.06 17.13)">
                      <path id="Path_473" data-name="Path 473" d="M266.557,57.65c-7.842-4.532-10.884-10.955-9.059-16.93a.274.274,0,0,0-.48-.25,73.133,73.133,0,0,0-10.305,21.584c-1.677,7.357,2.544,15.212,12.333,20.865,8.168,4.715,18.812,7.107,29.515,7.207a11.462,11.462,0,0,0,10.113-5.9l.1-.181a15.848,15.848,0,0,0-.529-16.331h0a9.9,9.9,0,0,0-8.322-4.6C281.477,63.188,273,61.368,266.557,57.65Z" transform="translate(-245.421 -39.424)" fill="#58ddf5"/>
                      <path id="Path_474" data-name="Path 474" d="M289.184,91.569h-.116c-11.319-.1-21.964-2.709-29.969-7.33-9.832-5.677-14.609-13.854-12.778-21.879a74.776,74.776,0,0,1,10.457-21.924,1.193,1.193,0,0,1,1.5-.373A1.208,1.208,0,0,1,258.9,41.5c-1.767,5.787,1.463,11.71,8.637,15.853h0c5.988,3.457,13.944,5.351,22.449,5.351.174,0,.346-.007.525,0a10.766,10.766,0,0,1,9.03,5.021,16.769,16.769,0,0,1,.561,17.287l-.1.179A12.371,12.371,0,0,1,289.184,91.569ZM256.575,44.032a75.452,75.452,0,0,0-8.456,18.8c-1.626,7.122,2.823,14.544,11.909,19.791,7.732,4.465,18.051,6.98,29.057,7.082a10.425,10.425,0,0,0,9.291-5.418l.1-.183a14.9,14.9,0,0,0-.5-15.368,9.02,9.02,0,0,0-7.469-4.172c-.192,0-.348,0-.52,0-8.824,0-17.113-1.983-23.378-5.6h0C259.859,55.07,256.281,49.649,256.575,44.032Z" transform="translate(-245.937 -39.938)" fill="#18a7c3"/>
                    </g>
                    <g id="Group_333" data-name="Group 333" transform="translate(36.06 17.13)">
                      <path id="Path_475" data-name="Path 475" d="M289.147,85.82c-10.7-.1-17.131-1.007-25.913-5.693-9.975-5.32-15.058-11.634-12.335-20.863A79.788,79.788,0,0,1,257,44.432a11.49,11.49,0,0,1,.5-3.712.274.274,0,0,0-.48-.25,73.186,73.186,0,0,0-10.305,21.584c-1.677,7.357,2.544,15.212,12.333,20.865,8.168,4.715,18.812,7.207,29.515,7.207,4.223,0,7.377-3.035,9.537-5.289a.2.2,0,0,0-.219-.313A27.8,27.8,0,0,1,289.147,85.82Z" transform="translate(-245.421 -39.424)" fill="#58ddf5"/>
                      <path id="Path_476" data-name="Path 476" d="M289.077,91.569c-11.141,0-21.79-2.6-29.977-7.33-9.832-5.677-14.609-13.856-12.778-21.879a74.863,74.863,0,0,1,10.457-21.924,1.193,1.193,0,0,1,1.5-.373A1.208,1.208,0,0,1,258.9,41.5a10.654,10.654,0,0,0-.458,3.415l.009.248-.121.221A79.154,79.154,0,0,0,252.3,60.044c-2.365,8.029,1.3,14.129,11.882,19.775,8.67,4.628,15.127,5.488,25.484,5.584h0a26.338,26.338,0,0,0,8.42-1.242,1.124,1.124,0,0,1,1.193,1.834C296.51,88.889,293.351,91.569,289.077,91.569ZM256.6,44a75.457,75.457,0,0,0-8.476,18.832c-1.621,7.122,2.823,14.544,11.909,19.791,7.909,4.567,18.225,7.082,29.048,7.082,2.638,0,4.851-1.307,6.83-3.035a30.91,30.91,0,0,1-6.254.59c-10.665-.1-17.327-.992-26.339-5.8-11.357-6.057-15.42-13.032-12.791-21.948a81.083,81.083,0,0,1,6.059-14.792Q256.575,44.358,256.6,44Z" transform="translate(-245.937 -39.938)" fill="#18a7c3"/>
                    </g>
                    <g id="Group_334" data-name="Group 334" transform="translate(44.168 33.806)">
                      <path id="Path_477" data-name="Path 477" d="M255.668,53.912c-.255,3.239-1.726,5.765-3.285,5.642s-2.615-2.85-2.361-6.086,1.726-5.765,3.288-5.642S255.927,50.675,255.668,53.912Z" transform="translate(-249.053 -46.89)" fill="#18a7c3"/>
                      <path id="Path_478" data-name="Path 478" d="M253.011,61c-.063,0-.125,0-.19-.007-2.14-.17-3.518-3.216-3.212-7.089s2.164-6.653,4.288-6.495,3.52,3.218,3.212,7.089a10.728,10.728,0,0,1-1.275,4.476A3.447,3.447,0,0,1,253.011,61Zm.7-11.737c-.759,0-2.019,1.867-2.251,4.789-.234,2.968.75,5.027,1.505,5.088.344.016.844-.4,1.255-1.1a8.944,8.944,0,0,0,1.03-3.685c.239-2.968-.748-5.028-1.505-5.088Z" transform="translate(-249.567 -47.404)" fill="#fff"/>
                    </g>
                    <g id="Group_335" data-name="Group 335" transform="translate(65.31 44.343)">
                      <path id="Path_479" data-name="Path 479" d="M272.762,59.3a6.656,6.656,0,1,1-6.609-6.761A6.684,6.684,0,0,1,272.762,59.3Z" transform="translate(-258.519 -51.609)" fill="#18a7c3"/>
                      <path id="Path_480" data-name="Path 480" d="M266.622,67.406h-.056a7.654,7.654,0,0,1-5.275-13.081,7.484,7.484,0,0,1,5.38-2.2A7.654,7.654,0,0,1,271.949,65.2,7.508,7.508,0,0,1,266.622,67.406Zm0-13.423a5.661,5.661,0,0,0-4.018,1.662,5.8,5.8,0,0,0,3.978,9.9,5.493,5.493,0,0,0,4.06-1.664,5.771,5.771,0,0,0,1.706-4.078l.929.009-.929-.009a5.76,5.76,0,0,0-5.686-5.82Z" transform="translate(-259.033 -52.122)" fill="#fff"/>
                    </g>
                    <g id="Group_336" data-name="Group 336" transform="translate(12.351 102.516)">
                      <path id="Path_481" data-name="Path 481" d="M313.428,108.418l-4.554-14.057a4.046,4.046,0,0,0-3.947-2.776A88.068,88.068,0,0,1,257.8,79.2a4.065,4.065,0,0,0-5.226.786l-5.559,6.443a35.782,35.782,0,0,0-7.583,14.3c-7.75,29.7-.907,42.181-.8,42.382a58.246,58.246,0,0,0,11.058,8.13c17.171,9.914,40.62,13.984,62.957,12.224,5.374-14.933,4.494-33.013,3.428-42.809A61.2,61.2,0,0,0,313.428,108.418Z" transform="translate(-234.806 -77.65)" fill="#58ddf5"/>
                      <path id="Path_482" data-name="Path 482" d="M302.823,165.322c-19.846,0-38.764-4.489-53.083-12.753a59.451,59.451,0,0,1-11.232-8.264l-.174-.223c-.288-.527-7.067-13.253.706-43.068a36.887,36.887,0,0,1,7.784-14.672l5.559-6.441a4.971,4.971,0,0,1,6.421-.969c6.126,3.8,22.846,12.594,46.626,12.239a5.038,5.038,0,0,1,4.847,3.422l4.554,14.055a62.65,62.65,0,0,1,2.687,12.425c1.048,9.626,1.99,28.037-3.48,43.224l-.2.565-.6.047C309.749,165.185,306.271,165.322,302.823,165.322ZM239.9,143.063a57.517,57.517,0,0,0,10.768,7.893c16.344,9.434,38.84,13.85,61.815,12.146,5.117-14.727,4.2-32.481,3.18-41.826a60.643,60.643,0,0,0-2.609-12.052L308.5,95.164a3.113,3.113,0,0,0-3-2.133h-.054c-24.266.351-41.368-8.628-47.633-12.519a3.127,3.127,0,0,0-4.034.6l-5.557,6.444a35.027,35.027,0,0,0-7.39,13.923C233.639,129.1,239.256,141.745,239.9,143.063Z" transform="translate(-235.321 -78.168)" fill="#18a7c3"/>
                    </g>
                    <g id="Group_337" data-name="Group 337" transform="translate(18.195 158.562)">
                      <path id="Path_483" data-name="Path 483" d="M242.5,106.647c0,1.642-.929,2.97-2.073,2.97s-2.075-1.329-2.075-2.97.929-2.968,2.075-2.968S242.5,105.008,242.5,106.647Z" transform="translate(-237.425 -102.748)" fill="#fff"/>
                      <path id="Path_484" data-name="Path 484" d="M240.942,111.063c-1.686,0-3-1.713-3-3.9s1.318-3.9,3-3.9,3,1.713,3,3.9S242.626,111.063,240.942,111.063Zm0-5.941c-.541,0-1.144.873-1.144,2.039s.6,2.041,1.144,2.041,1.144-.871,1.144-2.041S241.482,105.122,240.942,105.122Z" transform="translate(-237.938 -103.262)" fill="#2a9db2"/>
                    </g>
                    <g id="Group_338" data-name="Group 338" transform="translate(29.477 108.982)">
                      <path id="Path_485" data-name="Path 485" d="M247.481,85.229c-.766,1.45-2.2,2.2-3.192,1.666s-1.179-2.129-.406-3.58,2.2-2.193,3.194-1.666S248.254,83.779,247.481,85.229Z" transform="translate(-242.476 -80.55)" fill="#fff"/>
                      <path id="Path_486" data-name="Path 486" d="M245.5,88.507a2.392,2.392,0,0,1-1.139-.277,2.716,2.716,0,0,1-1.351-2.16,4.919,4.919,0,0,1,2.464-4.641,2.716,2.716,0,0,1,2.548-.089c1.47.782,1.818,2.906.793,4.838h0a4.651,4.651,0,0,1-1.905,1.963A3.048,3.048,0,0,1,245.5,88.507Zm1.385-5.584a1.277,1.277,0,0,0-.552.156,3.062,3.062,0,0,0-1.474,2.778.722.722,0,0,0,1.19.634,2.828,2.828,0,0,0,1.121-1.188c.547-1.03.442-2.075-.02-2.323A.584.584,0,0,0,246.889,82.923Z" transform="translate(-242.989 -81.063)" fill="#2a9db2"/>
                    </g>
                    <g id="Group_339" data-name="Group 339" transform="translate(78.86 176.137)">
                      <path id="Path_487" data-name="Path 487" d="M271.459,114.517a2.972,2.972,0,1,1-2.971-2.97A2.971,2.971,0,0,1,271.459,114.517Z" transform="translate(-264.587 -110.618)" fill="#fff"/>
                      <path id="Path_488" data-name="Path 488" d="M269,118.932a3.9,3.9,0,1,1,3.9-3.9A3.906,3.906,0,0,1,269,118.932Zm0-5.941a2.04,2.04,0,1,0,2.039,2.039A2.041,2.041,0,0,0,269,112.991Z" transform="translate(-265.1 -111.131)" fill="#2a9db2"/>
                    </g>
                    <g id="Group_340" data-name="Group 340" transform="translate(75.193 122.344)">
                      <path id="Path_489" data-name="Path 489" d="M269.816,90.435a2.971,2.971,0,1,1-2.971-2.973A2.97,2.97,0,0,1,269.816,90.435Z" transform="translate(-262.944 -86.533)" fill="#fff"/>
                      <path id="Path_490" data-name="Path 490" d="M267.36,94.847a3.9,3.9,0,1,1,3.9-3.9A3.907,3.907,0,0,1,267.36,94.847Zm0-5.941a2.04,2.04,0,1,0,2.041,2.039A2.043,2.043,0,0,0,267.36,88.906Z" transform="translate(-263.458 -87.046)" fill="#2a9db2"/>
                    </g>
                  </g>
                  <g id="Group_342" data-name="Group 342" transform="translate(131.624 100.345)">
                    <path id="Path_491" data-name="Path 491" d="M300.54,99.495c-12.329-6.086-12.3-23.806-12.291-24.557l1.86.016c0,.174-.02,17.307,11.257,22.875Z" transform="translate(-288.249 -74.938)" fill="#18a7c3"/>
                  </g>
                  <g id="Group_343" data-name="Group 343" transform="translate(131.627 85.367)">
                    <path id="Path_492" data-name="Path 492" d="M290.108,79.256l-1.858-.138c.022-.266.523-6.546,3.748-10.886l1.494,1.11C290.593,73.242,290.108,79.2,290.108,79.256Z" transform="translate(-288.25 -68.232)" fill="#18a7c3"/>
                  </g>
                  <g id="Group_344" data-name="Group 344" transform="translate(5.518 72.098)">
                    <path id="Path_493" data-name="Path 493" d="M231.91,78.095c-.069-.38-1.579-9.372,8.192-15.8l1.021,1.554c-8.753,5.762-7.4,13.836-7.384,13.917Z" transform="translate(-231.787 -62.291)" fill="#18a7c3"/>
                  </g>
                  <g id="Group_345" data-name="Group 345" transform="translate(67.18 16.315)">
                    <path id="Path_494" data-name="Path 494" d="M273.9,45.818c-11.594,0-14.386-7.538-14.506-7.882l1.753-.621c.112.313,2.9,7.674,15.317,6.517l.17,1.854C275.675,45.775,274.761,45.818,273.9,45.818Z" transform="translate(-259.395 -37.315)" fill="#18a7c3"/>
                  </g>
                  <g id="Group_346" data-name="Group 346" transform="translate(99.416 174.136)">
                    <path id="Path_495" data-name="Path 495" d="M274.058,121.014l-.23-1.847c.185-.025,18.694-2.41,33.178-11.19l.96,1.59C293.141,118.557,274.248,120.989,274.058,121.014Z" transform="translate(-273.828 -107.977)" fill="#18a7c3"/>
                  </g>
                  <g id="Group_347" data-name="Group 347" transform="translate(146.877 152.08)">
                    <path id="Path_496" data-name="Path 496" d="M296.2,107.393l-1.121-1.483c.031-.025,3.02-2.359,4.311-7.808l1.809.427C299.741,104.677,296.344,107.286,296.2,107.393Z" transform="translate(-295.078 -98.102)" fill="#18a7c3"/>
                  </g>
                  <g id="Group_348" data-name="Group 348" transform="translate(54.101 213.083)">
                    <path id="Path_497" data-name="Path 497" d="M278.592,138.738c-18.171-.429-24.78-11.927-25.053-12.416l1.626-.907c.06.112,6.412,11.058,23.469,11.462Z" transform="translate(-253.539 -125.415)" fill="#18a7c3"/>
                  </g>
                  <g id="Group_349" data-name="Group 349" transform="translate(65.067 255.505)">
                    <path id="Path_498" data-name="Path 498" d="M273.558,152.112a19.859,19.859,0,0,1-15.109-6.544l1.454-1.159c.226.281,5.666,6.879,16.119,5.7l.208,1.849A24.168,24.168,0,0,1,273.558,152.112Z" transform="translate(-258.449 -144.409)" fill="#18a7c3"/>
                  </g>
                  <g id="Group_350" data-name="Group 350" transform="translate(49.185 0.004)">
                    <path id="Path_499" data-name="Path 499" d="M252.656,44.235l-1.318-1.309a50.532,50.532,0,0,1,28.778-12.914l.2,1.849A49.509,49.509,0,0,0,252.656,44.235Z" transform="translate(-251.338 -30.012)" fill="#18a7c3"/>
                  </g>
                  <g id="Group_351" data-name="Group 351" transform="translate(103.474 209.511)">
                    <path id="Path_500" data-name="Path 500" d="M276.594,145.326l-.949-1.6c.121-.076,12.487-7.554,17.879-19.911l1.706.746C289.6,137.478,277.126,145.011,276.594,145.326Z" transform="translate(-275.645 -123.816)" fill="#18a7c3"/>
                  </g>
                  <g id="Group_354" data-name="Group 354" transform="translate(0 117.131)">
                    <path id="Path_503" data-name="Path 503" d="M231.159,114.348l-1.843-.286c.031-.2,3.158-20.17,7.015-31.608l1.764.594C234.29,94.334,231.188,114.149,231.159,114.348Z" transform="translate(-229.316 -82.454)" fill="#18a7c3"/>
                  </g>
                  <g id="Group_355" data-name="Group 355" transform="translate(83.105)" style="isolation: isolate">
                    <path id="Path_504" data-name="Path 504" d="M278.583,33.4c-3.62-1.324-11.971-1.532-12.058-1.532l.045-1.86c.353.009,8.742.214,12.655,1.646Z" transform="translate(-266.525 -30.01)" fill="#18a7c3"/>
                  </g>
                  <g id="Group_356" data-name="Group 356" transform="translate(93.941 230.175)">
                    <path id="Path_505" data-name="Path 505" d="M271.859,137.6l-.482-1.8a49.9,49.9,0,0,0,7.285-2.736l.793,1.684A50.259,50.259,0,0,1,271.859,137.6Z" transform="translate(-271.377 -133.068)" fill="#18a7c3"/>
                  </g>
                </g>
              </g>
              <g id="Group_28" data-name="Group 28" transform="translate(0 115.619)" opacity="0.5">
                <g id="Group_27" data-name="Group 27">
                  <path id="Path_40" data-name="Path 40" d="M203.589,245.771c-1.265,10.169-6.537,16.22-12.082,8.644-7.107-9.712-7.8-19.208-8.211-24.881v-55.4c0,8.667,2.877,17.029,8.211,24.883,11.717,19.381,13.107,38.505,12.082,46.75Z" transform="translate(-183.297 -174.138)" fill="#58ddf5"/>
                  <path id="Path_41" data-name="Path 41" d="M353.673,237.818q-6.559.177-13.237.123c-34.829-.285-67.1-5.34-94.028-13.816-26.9-7.187-28.526,20.961-19.138,38.347,6.686,12.379,15.732,15.77,19.138,17.046,26.931,8.477,59.2,13.532,94.028,13.817q6.674.055,13.237-.123c31.608-2.33,39.885-32.688,25.113-46.857-4.123-3.955-11.827-8.645-25.113-8.538Z" transform="translate(-168.922 -156.033)" fill="#58ddf5"/>
                  <path id="Path_42" data-name="Path 42" d="M460.024,208.45c-.154,23.955-1.56,28.315-3.339,33.835-7.4,17.469-26.606,32.9-53.483,44.427-23.531,6.943-30.03-17.508-20.46-35.637a47.038,47.038,0,0,1,20.46-19.756c26.877-11.528,46.078-26.959,53.483-44.427a28.943,28.943,0,0,1,2.033-3.752l.6-.078c.456,1.28.644,1.811.7,8.349V208.45Z" transform="translate(-110.933 -170.83)" fill="#58ddf5"/>
                </g>
              </g>
            </g>
            <path id="Path_8756" data-name="Path 8756" d="M454.035,215.983h0a2.83,2.83,0,0,1-2.831-2.831v-96.8a2.83,2.83,0,0,1,2.831-2.831h0a2.83,2.83,0,0,1,2.829,2.831v96.8A2.829,2.829,0,0,1,454.035,215.983Z" transform="translate(-236.169 -42.668)" fill="url(#linear-gradient)"/>
            <path id="Path_8760" data-name="Path 8760" d="M454.035,215.983h0a2.83,2.83,0,0,1-2.831-2.831v-96.8a2.83,2.83,0,0,1,2.831-2.831h0a2.83,2.83,0,0,1,2.829,2.831v96.8A2.829,2.829,0,0,1,454.035,215.983Z" transform="translate(-300.593 -60.92)" fill="url(#linear-gradient)"/>
            <path id="Path_8758" data-name="Path 8758" d="M454.035,215.983h0a2.83,2.83,0,0,1-2.831-2.831v-96.8a2.83,2.83,0,0,1,2.831-2.831h0a2.83,2.83,0,0,1,2.829,2.831v96.8A2.829,2.829,0,0,1,454.035,215.983Z" transform="translate(95.32 -30.844)" fill="url(#linear-gradient-3)"/>
            <path id="Path_8759" data-name="Path 8759" d="M454.035,215.983h0a2.83,2.83,0,0,1-2.831-2.831v-96.8a2.83,2.83,0,0,1,2.831-2.831h0a2.83,2.83,0,0,1,2.829,2.831v96.8A2.829,2.829,0,0,1,454.035,215.983Z" transform="translate(-14.338 -82.073)" fill="url(#linear-gradient-3)"/>
            <path id="Path_47" data-name="Path 47" d="M244.536,89.643a4.227,4.227,0,1,1-4.226-4.226A4.226,4.226,0,0,1,244.536,89.643Z" transform="translate(9.911 -41.264)" fill="#18a7c3"/>
            <path id="Path_48" data-name="Path 48" d="M364.554,54.915a5.836,5.836,0,1,1-8.253,0A5.835,5.835,0,0,1,364.554,54.915Z" transform="translate(53.844 -53.206)" fill="#18a7c3"/>
            <path id="Path_49" data-name="Path 49" d="M360.3,157.079a2.687,2.687,0,1,1-2.687-2.687A2.687,2.687,0,0,1,360.3,157.079Z" transform="translate(53.97 -56.815)" fill="#18a7c3" opacity="0.563"/>
            <path id="Path_50" data-name="Path 50" d="M217.015,255.864a2.687,2.687,0,1,1-2.687-2.687A2.687,2.687,0,0,1,217.015,255.864Z" transform="translate(0.85 20.929)" fill="#31a8be" opacity="0.5"/>
            <circle id="Ellipse_10" data-name="Ellipse 10" cx="1.402" cy="1.402" r="1.402" transform="translate(267.78 168.668)" fill="#fff" opacity="0.8"/>
          </g>
        </g>
      </g>
    </g>
  </g>
</svg>
