<svg xmlns="http://www.w3.org/2000/svg" width="662.301" height="410.836" viewBox="0 0 662.301 410.836">
  <g id="Group_597" data-name="Group 597" transform="translate(-682 -179.497)">
    <g id="Group_596" data-name="Group 596" transform="translate(343.082 -4661.922)" opacity="0.3">
      <g id="Group_593" data-name="Group 593" transform="translate(349.918 4852.418)">
        <path id="Path_9020" data-name="Path 9020" d="M16659.787,3239.655h-2.852l-4.184,6.952,1.736-13.068-9.809-1.968-9.475-8.877v10.845l-3.691,11.6,2.281,3.94-2.281,3.938-.592-3.938-1.834-.545.508,6.392,11.686,5.713-.506,2.356-11.687-5.754.508,5.754-8.17,8.629-9.437,25.121-6.436,7.355h-4.383l4.383,12.406-4.383,2.072,1.988,4.84-4.088,10.45-6.627,7.734,5.076,12.017-5.076,8.7-2.043,2.626,4.895,2.133,3.775,9.7-1.551,3.466,1.551,2.451,8.113-2.451,8.707,2.451h-10.338l1.631,5.321h-6.014l-2.1,14.67h4.088l4.025,18.913,4.8,2.936v15.661l3.9,3.567,5.535,2.491,17.154,10.629-3.375,5.957h9.475l-1.795,4.261,5.988,6.725-1.861,5.768h1.861v4.364l31.854,2.381-1.936,3.812,47.082,26.86,35.58,5.387,1.988-6.942,23.035,4.687,15.965,19.432,5.7,17.839,16.758,11.16,4.994-11.16,4.023-1.543,19.318,4.7,9.723,14.617,6.271,14.14,4.105,1.81v10.509l12.674,14.243h12.807l4.482,2.564,2.121-2.564-6.6-19.638h4.482v-6.925l-2.3-1.624h6.6l26.984-16.7h3.611v-2.424l-3.611-5.273,5.8-2.734v5.219l19.551-5.219v-4.7l4.633,7.43h12.721l-2.871-4.267h6.533l1.518,4.267h4.9l-2.3,2.485,5.1,2.789,4.029,2.424,2.959-5.212,2.059,2.789h4.609l-1.746-5.273,3.811,2.485,1.563,5.212,6-5.212h-4.361l-1.635-5.219h1.635v-4.7l-5.262,1.543,2.064-1.543-6.674,1.543-5.018-4.57,5.018-2.412,9.871,2.412,4.361-2.412,13.4-1.706v-9.152l4.234,9.152-4.234,4.117,13.457-6.661v4.25h7.211l-2.707-4.25h6.635v2.544h6.2l2.549-2.544,2.039,4.25h-2.039l4.105,6.981,13.977-4.57,1.973-4.117,4.076,1.706v2.412l5.73,1.129v1.9l4.971,3.163v4.267l3.414-1.175,2.682,3.66-.723,16.609,3.348,1.829v-2.866l2.721-.883v4.972l-2.721,2.989v2.745l2.721,4.638,6.23-1.167v3.939h-4.557l1.791,4.814,7.232-2.683,3.668,9.445,6.611,1.4v2.765l-2.33,2.167,3.18,1.28-2.146,3.181h5.887l5.527-3.181-1.152-5.426,2.389-5.615,2.133-1.98v-6.949l-15.816-29,2.33-1.845-6.611-6.247,2.094-1.684-6.535-15.7-.83-6.215s-1.947-3.088-1.869-3.751-.562-3.221,0-3.757.77-5.568,1.869-6.647,1.963-1.762,2.768-2.553a8.594,8.594,0,0,0,1.645-3.687,4.253,4.253,0,0,0,0-2.246c-.242-.554-2.57-1.243-3.582-1.429s-.83-3.843-.83-3.843l7.365,2.325,2.188-.86-5.141-3.75,6.291-.735,1.18.735,7.42-8.108v-2.869l3.635,1.938,3.131-8.868,5.438-7.276,3.121-2.5,3.7,1.628-.867-4.713,4.127,5.583v-7.479l3.48-3.055v-1.948h-3.48l3.48-3.748,11.838-2.815,1.822-3.731-1.822-.933-4.707,3.032-2.484-1.272-1.461-.827h5.068l1.447-2.428-8.7-.986,6.125-1.244v-2.319l4.707,3.563,2.637-2.592-3.43-2.894h4.953l1.271-3.545-1.271-4.176h-2.338l.814,4.882s-3.029.872-2.637,0,0-3.591,0-3.591l-8.652,2.885v-1.788l5.068-2.388v-1.729l3.584.712,1.822-.712-1.822-3.312,6.914,6.333-6.074-9.149v-4.731l-6.555,2.118-5.117-2.118-4.486-2.672h-3.26l3.26-2.145,11.734,4.816-5.068-6.062-4.123-2.824h5.584l-1.461-5.541h2.938l-2.937-4.564v-1.645l-3.186-6.294,1.006-3.483-1.943-2.852,4.123-3.585,1.461-3.331,2.484.727-1.008,2.6-2.937,4.275h1.461v5.645h-1.461l2.938,3.188-1.477,1.453,1.477,3.3,2.131,1.4,1.447-1.4,2.137,2.527v3.5l6.914-2.537,1.043-3.491,1.512,2.527v-8.7l-2.555-.987,1.043-2.792-2.525-1.469-6.225-9.768-1.344-1.178,5.545,1.178v2.127l3.506-6.913,2.555-14.155-5.309-.776,3.8-8.35v4.372l2.563,2.8s8.809-7.631,9.422-7.168-2.674,4.372-2.674,4.372l1.889-.737,12.072-8.73-6.9,1.834.748-2.531-13.367,7.606-1.189-1.813,7.785-5.1,10.309-4.591s4.705-2.335,5.611-2.839,1.283-4.156,1.283-4.156l2.543,1.643,4.012-4.937,2.383,3.294,6.381-3.294v-3.9l-3.723-2.933.8,4.71-3.459.9-2.383-1.642-1.031-2.25-1.482-1.716-2.867-1.013h-1.174l2.543-5.931-1.369-.7-1.174-2.2,2.543-3.959.715-2.521h.783l1.482-2.3-1.482-.691,2.514-4.1a8.96,8.96,0,0,1,0-2.013c.143-.194,1.25.365,2.383,1.042s1.148-3.134,1.148-3.134-.982-1.914,0-2.468,3.408,0,3.408,0V3293.52l3.656,2.488,4.1-.819s1,2.748,1.418,2.113,2.889-3.782,2.889-3.782l1.061-.88s-4.783-.685,0-2.495a30.465,30.465,0,0,0,6.107-2.779v-1.876l-6.107-9.144-7.574-.683-6.648-20.413-13.68-3.4v3.4l-3-2.44-6.152,16.947,1.328,8.767V3282l.98,1.613-3.057,1.88v2.594l-5.172,2.928v2.508l-37.461,11.176-11.854,16.95,2.135,1.829s-1.131,3.263,0,5.816-8.527,7.11-8.527,7.11h-7.035l-13.182,2.994v3.665l3.357,4.6-8.764,9.468-8.133,5.285h-3.082l-10.4,7.435-2.8-1.182-6.48,4.924h-3.078l3.078-2.965-5.893-.776,2.814-5.558v-7.161l3.078-1.268v-9.035l-4.129-11.635-3.754-1.567-4.3,2.775-.814-1.208v4.2l-4.365,2.374-1.617-1.394,1.617-5.183,2.4-1.567,1.961-8.668-3.141-6.82h1.18l-2.4-4.725-8.271-1.275-4.479-3.486-3.912,3.486,1.291,2.7-3.969,3.3v5.337l-2.668,1.483v-6.82l-8.289,8.445v8.61l-1.053,6.576,3.127,5.893,2.064,4.017-2.064,13.441-4.334,7.406-5.186,1.995-6.281-10.23v-6.113l-2.439-10.516,8.721-29.524-6.281,8.445-3.916,3.877,3.916-6.985.932-7.356,6.363-6.1,1.34,4.825,2.832-6.19,8.84-3.836,7.055,3.836,1.291-3.836h8.523l-5.9-7.437-7.377,1.167v-4.4l-15.262,4.4-1.34,4.372-6.363-2.863-6.045-1.509-4.131-2.689-3.191,2.689v-5.935l7.322-5.63-1.213-2.2-11.08,6.084v4.106l-8.941,2.406-4.652,2.676v2.863l-5.937-.811,2.248-3.562-2.248-1.167-14.182,4.221,1.92-5.744,6.785-3.246,1.219-4,17.406-10.429-15.174-.624-9.047.624-7.389-1.3v-3.737l-2.436-1.689-2.9,2.572-15.041-3.529-7.559-5.013-88.758-4.678-118.324-20.541-68.994-18.146,1.188,4.286-1.187,7.131Z" transform="translate(-16590.4 -3222.122)" fill="none" stroke="#f89f1b" stroke-linecap="round" stroke-linejoin="round" stroke-width="2"/>
      </g>
      <g id="Group_592" data-name="Group 592" transform="translate(349.918 5140.73)">
        <path id="Path_9021" data-name="Path 9021" d="M16744.438,3692.929l-4.215,59.776,6.631,2.641,4.514,5.527,7.244-1.368,15.8,15.448,4.453,11.875-4.453-1.293-4.885-8.841-10.916-12.875v3.025l-7.244,1.707-3.457-6.03-13.957-7.175-6.117-1.048-9.436-8.144-1.846,8.144-13.094,2.378,3.174-10.522h-3.174l-5.412,4.826v4.366l-12.943,10.073-17.9,5.415h-9.289l5.5-3.991,17.166-7.338,4.521-6.8-6.984,1.593-4.447-5.709-6.467,2.391,2.684-9.068-6.473-4.051,3.789-4.893-3.789-6.827,6.473-4.147,4.891,5.292v-5.292l10.324-2.733,1.014-7.242-5.535,1.024-6.91-3.946-1.359-5.226-2.424-4.156,13.516-2.313,1.7,6.47h3.66l-1.07-4.156-2.59-2.313v-4.473l-2.816-7.682,9.531-1.638,4.762-4.537,15.5-2.77,11.555,8.944Z" transform="translate(-16657.918 -3676.304)" fill="none" stroke="#f89f1b" stroke-linecap="round" stroke-linejoin="round" stroke-width="2"/>
      </g>
    </g>
    <g id="Group_594" data-name="Group 594" transform="translate(333.082 -4671.922)">
      <g id="Group_593-2" data-name="Group 593" transform="translate(349.918 4852.418)">
        <path id="Path_9020-2" data-name="Path 9020" d="M16659.787,3239.655h-2.852l-4.184,6.952,1.736-13.068-9.809-1.968-9.475-8.877v10.845l-3.691,11.6,2.281,3.94-2.281,3.938-.592-3.938-1.834-.545.508,6.392,11.686,5.713-.506,2.356-11.687-5.754.508,5.754-8.17,8.629-9.437,25.121-6.436,7.355h-4.383l4.383,12.406-4.383,2.072,1.988,4.84-4.088,10.45-6.627,7.734,5.076,12.017-5.076,8.7-2.043,2.626,4.895,2.133,3.775,9.7-1.551,3.466,1.551,2.451,8.113-2.451,8.707,2.451h-10.338l1.631,5.321h-6.014l-2.1,14.67h4.088l4.025,18.913,4.8,2.936v15.661l3.9,3.567,5.535,2.491,17.154,10.629-3.375,5.957h9.475l-1.795,4.261,5.988,6.725-1.861,5.768h1.861v4.364l31.854,2.381-1.936,3.812,47.082,26.86,35.58,5.387,1.988-6.942,23.035,4.687,15.965,19.432,5.7,17.839,16.758,11.16,4.994-11.16,4.023-1.543,19.318,4.7,9.723,14.617,6.271,14.14,4.105,1.81v10.509l12.674,14.243h12.807l4.482,2.564,2.121-2.564-6.6-19.638h4.482v-6.925l-2.3-1.624h6.6l26.984-16.7h3.611v-2.424l-3.611-5.273,5.8-2.734v5.219l19.551-5.219v-4.7l4.633,7.43h12.721l-2.871-4.267h6.533l1.518,4.267h4.9l-2.3,2.485,5.1,2.789,4.029,2.424,2.959-5.212,2.059,2.789h4.609l-1.746-5.273,3.811,2.485,1.563,5.212,6-5.212h-4.361l-1.635-5.219h1.635v-4.7l-5.262,1.543,2.064-1.543-6.674,1.543-5.018-4.57,5.018-2.412,9.871,2.412,4.361-2.412,13.4-1.706v-9.152l4.234,9.152-4.234,4.117,13.457-6.661v4.25h7.211l-2.707-4.25h6.635v2.544h6.2l2.549-2.544,2.039,4.25h-2.039l4.105,6.981,13.977-4.57,1.973-4.117,4.076,1.706v2.412l5.73,1.129v1.9l4.971,3.163v4.267l3.414-1.175,2.682,3.66-.723,16.609,3.348,1.829v-2.866l2.721-.883v4.972l-2.721,2.989v2.745l2.721,4.638,6.23-1.167v3.939h-4.557l1.791,4.814,7.232-2.683,3.668,9.445,6.611,1.4v2.765l-2.33,2.167,3.18,1.28-2.146,3.181h5.887l5.527-3.181-1.152-5.426,2.389-5.615,2.133-1.98v-6.949l-15.816-29,2.33-1.845-6.611-6.247,2.094-1.684-6.535-15.7-.83-6.215s-1.947-3.088-1.869-3.751-.562-3.221,0-3.757.77-5.568,1.869-6.647,1.963-1.762,2.768-2.553a8.594,8.594,0,0,0,1.645-3.687,4.253,4.253,0,0,0,0-2.246c-.242-.554-2.57-1.243-3.582-1.429s-.83-3.843-.83-3.843l7.365,2.325,2.188-.86-5.141-3.75,6.291-.735,1.18.735,7.42-8.108v-2.869l3.635,1.938,3.131-8.868,5.438-7.276,3.121-2.5,3.7,1.628-.867-4.713,4.127,5.583v-7.479l3.48-3.055v-1.948h-3.48l3.48-3.748,11.838-2.815,1.822-3.731-1.822-.933-4.707,3.032-2.484-1.272-1.461-.827h5.068l1.447-2.428-8.7-.986,6.125-1.244v-2.319l4.707,3.563,2.637-2.592-3.43-2.894h4.953l1.271-3.545-1.271-4.176h-2.338l.814,4.882s-3.029.872-2.637,0,0-3.591,0-3.591l-8.652,2.885v-1.788l5.068-2.388v-1.729l3.584.712,1.822-.712-1.822-3.312,6.914,6.333-6.074-9.149v-4.731l-6.555,2.118-5.117-2.118-4.486-2.672h-3.26l3.26-2.145,11.734,4.816-5.068-6.062-4.123-2.824h5.584l-1.461-5.541h2.938l-2.937-4.564v-1.645l-3.186-6.294,1.006-3.483-1.943-2.852,4.123-3.585,1.461-3.331,2.484.727-1.008,2.6-2.937,4.275h1.461v5.645h-1.461l2.938,3.188-1.477,1.453,1.477,3.3,2.131,1.4,1.447-1.4,2.137,2.527v3.5l6.914-2.537,1.043-3.491,1.512,2.527v-8.7l-2.555-.987,1.043-2.792-2.525-1.469-6.225-9.768-1.344-1.178,5.545,1.178v2.127l3.506-6.913,2.555-14.155-5.309-.776,3.8-8.35v4.372l2.563,2.8s8.809-7.631,9.422-7.168-2.674,4.372-2.674,4.372l1.889-.737,12.072-8.73-6.9,1.834.748-2.531-13.367,7.606-1.189-1.813,7.785-5.1,10.309-4.591s4.705-2.335,5.611-2.839,1.283-4.156,1.283-4.156l2.543,1.643,4.012-4.937,2.383,3.294,6.381-3.294v-3.9l-3.723-2.933.8,4.71-3.459.9-2.383-1.642-1.031-2.25-1.482-1.716-2.867-1.013h-1.174l2.543-5.931-1.369-.7-1.174-2.2,2.543-3.959.715-2.521h.783l1.482-2.3-1.482-.691,2.514-4.1a8.96,8.96,0,0,1,0-2.013c.143-.194,1.25.365,2.383,1.042s1.148-3.134,1.148-3.134-.982-1.914,0-2.468,3.408,0,3.408,0V3293.52l3.656,2.488,4.1-.819s1,2.748,1.418,2.113,2.889-3.782,2.889-3.782l1.061-.88s-4.783-.685,0-2.495a30.465,30.465,0,0,0,6.107-2.779v-1.876l-6.107-9.144-7.574-.683-6.648-20.413-13.68-3.4v3.4l-3-2.44-6.152,16.947,1.328,8.767V3282l.98,1.613-3.057,1.88v2.594l-5.172,2.928v2.508l-37.461,11.176-11.854,16.95,2.135,1.829s-1.131,3.263,0,5.816-8.527,7.11-8.527,7.11h-7.035l-13.182,2.994v3.665l3.357,4.6-8.764,9.468-8.133,5.285h-3.082l-10.4,7.435-2.8-1.182-6.48,4.924h-3.078l3.078-2.965-5.893-.776,2.814-5.558v-7.161l3.078-1.268v-9.035l-4.129-11.635-3.754-1.567-4.3,2.775-.814-1.208v4.2l-4.365,2.374-1.617-1.394,1.617-5.183,2.4-1.567,1.961-8.668-3.141-6.82h1.18l-2.4-4.725-8.271-1.275-4.479-3.486-3.912,3.486,1.291,2.7-3.969,3.3v5.337l-2.668,1.483v-6.82l-8.289,8.445v8.61l-1.053,6.576,3.127,5.893,2.064,4.017-2.064,13.441-4.334,7.406-5.186,1.995-6.281-10.23v-6.113l-2.439-10.516,8.721-29.524-6.281,8.445-3.916,3.877,3.916-6.985.932-7.356,6.363-6.1,1.34,4.825,2.832-6.19,8.84-3.836,7.055,3.836,1.291-3.836h8.523l-5.9-7.437-7.377,1.167v-4.4l-15.262,4.4-1.34,4.372-6.363-2.863-6.045-1.509-4.131-2.689-3.191,2.689v-5.935l7.322-5.63-1.213-2.2-11.08,6.084v4.106l-8.941,2.406-4.652,2.676v2.863l-5.937-.811,2.248-3.562-2.248-1.167-14.182,4.221,1.92-5.744,6.785-3.246,1.219-4,17.406-10.429-15.174-.624-9.047.624-7.389-1.3v-3.737l-2.436-1.689-2.9,2.572-15.041-3.529-7.559-5.013-88.758-4.678-118.324-20.541-68.994-18.146,1.188,4.286-1.187,7.131Z" transform="translate(-16590.4 -3222.122)" fill="none" stroke="#151515" stroke-linecap="round" stroke-linejoin="round" stroke-width="2"/>
      </g>
      <g id="Group_592-2" data-name="Group 592" transform="translate(349.918 5140.73)">
        <path id="Path_9021-2" data-name="Path 9021" d="M16744.438,3692.929l-4.215,59.776,6.631,2.641,4.514,5.527,7.244-1.368,15.8,15.448,4.453,11.875-4.453-1.293-4.885-8.841-10.916-12.875v3.025l-7.244,1.707-3.457-6.03-13.957-7.175-6.117-1.048-9.436-8.144-1.846,8.144-13.094,2.378,3.174-10.522h-3.174l-5.412,4.826v4.366l-12.943,10.073-17.9,5.415h-9.289l5.5-3.991,17.166-7.338,4.521-6.8-6.984,1.593-4.447-5.709-6.467,2.391,2.684-9.068-6.473-4.051,3.789-4.893-3.789-6.827,6.473-4.147,4.891,5.292v-5.292l10.324-2.733,1.014-7.242-5.535,1.024-6.91-3.946-1.359-5.226-2.424-4.156,13.516-2.313,1.7,6.47h3.66l-1.07-4.156-2.59-2.313v-4.473l-2.816-7.682,9.531-1.638,4.762-4.537,15.5-2.77,11.555,8.944Z" transform="translate(-16657.918 -3676.304)" fill="none" stroke="#151515" stroke-linecap="round" stroke-linejoin="round" stroke-width="2"/>
      </g>
    </g>
  </g>
</svg>
