<svg xmlns="http://www.w3.org/2000/svg" width="474" height="474" viewBox="0 0 474 474">
  <g id="uk" transform="translate(-843.378 -208.923)">
    <circle id="Ellipse_2061" data-name="Ellipse 2061" cx="237" cy="237" r="237" transform="translate(843.378 208.923)" fill="#fff"/>
    <g id="Group_595" data-name="Group 595" transform="translate(388.272 -3911.667)">
      <path id="Path_9024" data-name="Path 9024" d="M18351.311,2965.176s-2.461,4.894-5.123,5.667a30.462,30.462,0,0,0-4.117,1.462s-.219.5-1.2,0-3.121-.692-3.826,0-2.635,2.877-2.635,2.877l-1.633,4.166,4.268.908,1.793-2.694.922-1.406,4.221,1.406,3.213,3.887v2.049l1.893,1.126,4.012-2.527s.887-1.237.6-1.842a16.874,16.874,0,0,1-.6-2.694l1.691-1.406h1.551l3.814-3.85h2.867l1.969-5.979,1.928,1.116h6.246l2.842-2.267,4.668,1.15,1.3,2.282,1.8-2.845a2.854,2.854,0,0,0,2.883,3.521c3.607.33,4.557-1.139,5.641.9s2.609,3.918,4.51,3.853,3.039.123,3.357-2.327.445-1.558,2.367-3.1,3.33-1.673,1.633-3.433-1.713-2.417.619-3.308-1.834.328,0-3.138,2.773-5.745,2.773-5.745,2.5,2.314,4.268,0,3.23-2.769,7.387-3.3,3.844-3.145,7.219-1.811,7.648,4.625,8.783,5.107a19.635,19.635,0,0,1,3.184,2.181s-.051-2.627,2.924-2.181,8.359,2.232,9.715,2.181,5.871.455,4.574-2.181a16.8,16.8,0,0,0-2.693-4.055s2.184.977,6.422,0,8.271-1.748,8.875,0,4.428,4.055,4.428,4.055a5.242,5.242,0,0,0,4.6,2.181c3.328,0,2.576.7,4.18-2.181s1.969-3.442,2.674-3.3-4.8-4.582-4.8-4.582h2.125l.734-2.938,1.939,2.938h4.4s1.447.822,1.645-.766.828-3.293,1.939-2.172.77,1.074-.746,2.938,1.395,2.771,1.395,2.771.578-2.318,4.047-2.771,13.715-2.938,13.715-2.938l3.271.987,11.342,3.583h2.559l3.52-4.57s2.234.414,6.594-1.535,5.246-4.413,5.246-4.413l5.945,1.444s-.383-5.88,2.252-7.7,10.352-4.479,10.352-4.479,1.934-.153,1.141-3.838-1.377-5.539,0-7.5-.887-1.944-5.256-1.108-12,2.535-12,2.535,3.213-3.249,0-3.952a60.6,60.6,0,0,1-8.383-2.827c-1.309-.5-5.889,0-5.889,0s7.145-4.1,9.4-3.436,5.025-2.5,5.5-2.628,0-7.081,0-7.081.852-1.506-1.725,0-3.705.191-1.332-1.276,4.174-2.794,4.174-2.794,2.188.162,2.715,1.237,5.152-2.36,5.152-2.36l1.291-5.167h-6.443l-.943-2.685,8.488,1.287a48.816,48.816,0,0,0,5.256-5.031,45.125,45.125,0,0,1,3.658-3.955s-.41-5.329,0-5.978,2.3-6.36,2.3-6.36a30.651,30.651,0,0,0,.678-14.765c-1.6-8.363-17.385-14.384-17.385-14.384l-13.148-1.177h-5.246s-4.139-.834-4.666,4.556-4.451,4.907-6.229,4.395-2.125-3.508-3.932-3.688a8.4,8.4,0,0,0-2.518,0s-.939-.864.85-3.247a94.007,94.007,0,0,1,6.711-7.177l1.43-.981s.92-6.156-1.43-9.91-3.561-4.738-5.043-7.262-4.082-2.993-4.568-4.629-.457-.847,2.051-1.563,2.588-3.6,0-6.594-7.434-7.751-8.854-14.661,2.965-5.891,2.965-5.891-7.162-3.826-8.615-6.476-5.465-11.226-7.074-12.176-8.156-4.305-11.363-5.186-9.959-5.822-10.752-11.713-1.244-8.99-3.189-12.55-3.428-10.078-4.215-13.328-1.662-4.875-1.412-6.861-.359-7.136-4.129-8.481-3.9-4.73-5.736-5.236-.643.472-1.738-2.12-2.123-6.264-5.477-7.141-6.385-.447-9.379-3.658-7.3-4.337-8.551-2.808-.979,3.882-4.236,4.37-12.518-1.562-12.518-1.562,4.105-2.233,6.715-3.575,1.084-2.6,2.959-4.392,2.646-3.8,4.342-2.748,1.02,2.608,3.357,1.345a60.811,60.811,0,0,0,6.561-4.7,18.551,18.551,0,0,0-4.012-2.892c-1.6-.642-3.393.647-3.168-2.638a25.2,25.2,0,0,1,.619-4.64l2.549.641s5.609-3.432,6.842-8.35-1.018-5.417,2.75-7.648,5.83-9.585,5.83-9.585l3.1-8.257s-1.355-4.824.828-8.083,6.635-8.628,6.635-8.628.416-8.535-3.248-11.013a6.78,6.78,0,0,0-7.312,0s-1.852-1.924-4.047-.82a9.9,9.9,0,0,1-7.363.82c-2.941-.739-7.047-2.051-9.918-.82s-3.4,1.533-6.408,0-8.1-3.1-8.939-.606a2.265,2.265,0,0,1-3.2,1.426,8.939,8.939,0,0,0-3.52,1.393,20.364,20.364,0,0,1-6.525,2.224c-.451-.065-4.7,4.323-4.7,4.323s-3.8,1.094-.943-2.529a61.43,61.43,0,0,1,5.639-6.231l-4.7-.606,3.758-3.431,1.887,2.452s2.971-2.674,2.2-4.495-1.639-2.786-3.15-2.208-3.988.254-3.23-.965,3.23-1.157,3.23-1.157v-3.64s4.141-2.212,5.078-3.78,1.615-2.616,2.252-2.949,7.121-3.363,8.822-6.61,1.309-3.827,4.477-4.608,5.377-7.375,5.377-7.375l-2.408-2.719,3.445-6.421s-5.512.4-4.863-2.553-7.637,1.012-5.1,3.424-5.453,0-5.453,0-.711-1.069-3.428.861-7.994.691-8.2,0-4.295,3.923-9.453,3.653-.348-1.936-3.068-2.686-3.115,1.507-3.115,1.507l-3.977-3.335-.869.861-4.268-2.316-4.578,5.969,1.123,3.756v2.038l-1.123-.938s-2.24.714-.99,3.927,1.359,3.8-1.574,4.008a28.656,28.656,0,0,1-4.8,0,40.769,40.769,0,0,0,1.777,4.813,7.053,7.053,0,0,1,0,4.745l-3.184-2.458-.631,3.2,5.963,4.9-2.148,2.337-2.494-1.256-2.408,3.64-2.7-3.64h-1.822v2.758h-4.082l-.943,5.212,3.236,2.043v1.807l-2.293-.911-.943,2.535,2.223,2.82v2.814l-2.223-2.214s-2.936,2.82-2.564,4.643,1.088,1.974,1.359,4.29.209,3.376,2.727,1.941,3.5-.636,3.5-.636v2.024s-3.156-.212-4.082,2.07-1.3,2.061-2.895,2.368-2.994-1.316-2.709-2.368-1.836-2.07-1.836-2.07-5.084,1.85-4.3-6.317-.277-9.947-1.318-10.99-4.3-2.064-4.51,0,0,6.668,0,6.668l-2.629.59-3.236-4.208-.73,1.393v6.547l-2.4-3.732-1.939-.59v-2.224l1.234-2.213-1.234-.606V2589.9l-5.2.736h-3.82s-3.328,1.872-.955,4.038,4.365,2.608,3.357,5.028a5.553,5.553,0,0,0,0,4.391h-1.736v17.154l-4.793,4.112v1.269h3.172l4.775-5.381,1.264-2.563v-6.863l1.447-2.07-1.447-3.915v-1.743h5.17l.705,1.743,3.133,2.526,1.332-1.941h1.9v4.426l1.881,5.213,2.34.732v1.891l2.918-1.891h2.287v2.873l2.645-2.873,1.621,1.891-1.621,3.225v3.45l2.525-1.083,3.455-4.611,1.205-.982,1.521-1,1.715,2.946-3.236,1.851v3.527s-1.258-1.8-2.564.62-1.5,4.47-3,6.084,5.564,0,5.564,0l-1.951,2.639s-2.34-1.053-2.709,1.257-1.836,2.669-1.836,2.669l-1.9-1.208-3.717,1.208-2.918,2.64h4.236v2.435l-5.828,2.07-.748,3.2,3.92,1.6v1.465l-3.92-.791,3.92,3.625-1.58,3.64h-2.34s-2.635.945-1.881,2.941,4.221,1.139,4.221,1.139l1.58-1.139,11.5-1.19s3,.085,2.895-4.181-.943-4.044-.943-4.044l3.236-1.465,8.029-8.13s1.141-1.6,2.373-.593-1.684,1.85-1.684,1.85l-4.389,8.065,1.58,1.927-2.311,1.558-3.6,2.236.955,2.233s-3.254,1.441-3.248,3.682-.307,5.827-2.576,7.119-5.854,2.647-6.768,4.765-4.742,6.831-4.742,6.831l-.312-3.016-4.285,3.49-2.818-.475-3.213,2.709-.76,4.5v3.011l3.578-3.344,2.051-2.081,1.162.572-2.117,2.688,1.748,3.307-2.449,1.9,2.449,2.082,1.742-2.082h2.506l3.8-3.044v-5.425l5.361-7.808.752-1.976h3.219s-.006,7,0,6.833a10.67,10.67,0,0,1,1.176-1.367l-1.176,4.89,2.322,3-4.012,6.459v5.841l-1.529,3.744-1.771,2.767v3.2l4.088.42,3.711-2.19a32.785,32.785,0,0,1,0-4.6c.219-.219,1.834-6,1.834-6l1.107-6.648,3.08-.338-1.02,2.745s1.123,4.793,1.02,5a48.6,48.6,0,0,0,1.828,4.622,3.056,3.056,0,0,0,3.283,1.02c2.031-.647,2.217-1.91,2.217-1.91l-.428-4.5-1.789-1.749v-5.237s5.066-.921,5.418-.8,4.412,3.55,4.412,3.55l2.084,1.871,2.311,3.946.943,2.918-1.674,2.815-2.715,1.862-2.523,7.614-3.434,4.849-2.605,6.437-.914.92-1.3-.92-1.945,4.944,3.248,4.992s2.158,4.009,2.316,4.537,1.2,4.322,1.2,4.322l2.043.632.465-2.211-2.508-7.28,3.434-1.835,10.582,8.605s2.549,3.481,3.213-1.322,0-4.779,0-4.779l-1.793-1.284v-2.021l3.328,2.021,2.355.615,2.867,3.611,1.648-1.07s5.066.939,6.752-1.05,0-2.106,0-2.106l7.59-1.22.77-5.13h12.574l.967,2.469h-4.6v2.661h-2.885a29.854,29.854,0,0,0-1.5,4.376c-.348,1.676-2.246,3.511-2.721,4.229a29.549,29.549,0,0,0-1.83,3.776,34.2,34.2,0,0,0-1.471,4.362c-.086.676-1.506-1.35,0,1.521s5.766,10.1,6.883,13.049,1.939,4.906,1.939,4.906l2.143-2.853,1.482-.746s-.26,4.655-.764,5.014-1,.138-1.273.99-2.75.969,0,1.487,2.645,1.291,3.635.518,2.275-2.658,2.826-3-.041-1.5,1.156-1.415,2.172-2.04,3.631,0-.613,5.257-.613,5.257c.445,1.337-.18,4.4,0,4.877s-.932,1.089-1.441,1.235-3.318-.419-3.457.8.725,10.131.725,10.131l4.174.583-5.559,7.426a3.608,3.608,0,0,0,0,3.221c.828,1.872,2.316,4.175,2.541,5.4s-3.982-1.347-3.982-1.347l-4.127,3.414,4.572,4.4a12.766,12.766,0,0,1-2.043.859c.023-.149-5.564-5.256-5.564-5.256l-10.211,4.4-1.934-1.571-7.746,2.97-3.793.907,3.16-3.877h-4.984l-3.422-5.565-7.693.672v5.61l-3.086-1.467v3.179l5.252,3.485,4.416,5.54-5.037,6.789-5.65,2.846-2.078,3.893,2.078.849,4.105-1.839.578,2.472,1.588-2.472s1.984-2.189,2.98-2.4,4.99-.5,4.99-.5l1.7,1.231v3.51s1.91,2.268,2.061,2.619a29.485,29.485,0,0,1,0,3.725s-.967,1.019-.961,1.369.961,4.712.961,4.712l1.1,2.842-3.885,9.942-9.57,6.754-1.545,1.588-5.088-.908-4.934,5.642h-6.617l-1.766,3.046s-6.721,1.965-7.521,4.907,6.537,1.025,6.537,1.025,1.574,3.021-1.986,4.983,1.986,4.49,1.986,4.49l1.842,2.092s3.676,1.167,5.395.483a24.581,24.581,0,0,1,4.471-1.48c1.7-.358.908,1.48,2.594-1.1s.063-2.1,2-2.757,1-1.358,3.664-1.177,5.014-.647,5.09,0-.707.477,0,1.987.816,1.418,1.609,1.947.318.529,1.232.529h1.627s1.111-.277,0,.566a10.9,10.9,0,0,1-2.859,1.48,1.508,1.508,0,0,1-.7,0s.324.147,0,1.122-.2,1.079,0,1.418-4.678.013,1.459.663,6.67.249,7.422,0-.475.621,1.27-.663a20.267,20.267,0,0,1,3.49-1.989c.869-.5,4.557,7.049,4.557,7.049h1.592l3.416,4.683,11.434-.979,2.211-3.7s3.867-1.755,4.1-2.58-.256-1.652.6-1.817-3.057-.952,1.211-.663,3.658-.146,4.723.663,1.494,1.271,1.443,1.817-.973.8-1.443,1.595a4.634,4.634,0,0,1-1.3,1.786,7.459,7.459,0,0,1-2.182,1.761c-.834.36-1.367-1.089-3.057,1.143s-2.334.4-1.812,3.1a15.888,15.888,0,0,1,.521,3.333c0,.551.277,1.533,0,1.979s-.6.6-1.256,1.152.283.52-2.184,1.221-.908,1.3-4.277,1.022-3.855,0-3.855,0h-.639c-.156,0-6.523-4.326-12.307-3.4s-8.064-1.279-11.586,1.152-3.885,2.168-3.555,5.054a6.748,6.748,0,0,1-2.488,5.54c-.406.151-6.514-1.911-6.514-1.911l-1.338,11.676-7.832,8.223a7.012,7.012,0,0,1-4.766,3.66c-3.23.484-3.49,1.36-3.693,3.483a4.341,4.341,0,0,1-1.836,3.138Z" transform="translate(-17731.971 1594)" fill="#f89f1b" stroke="#151515" stroke-linecap="round" stroke-linejoin="round" stroke-width="2"/>
      <path id="Path_9025" data-name="Path 9025" d="M18337.5,2793.475a26.355,26.355,0,0,0,.523,5.759c.617,2.768,3.746,1.627,1.98,4.368s-1.531,4.586-4.738,4.866-2.844-1.074-4.441,2.632-1.758,7.282-4.258,6.391-4.57-3.516-7.895-3.264-2.187,3.6-4.418,2.132-1.738-.932-2.676-3.949.086-2.133-3.547-4.53-1.937-3.087-2.906-6.157a6.317,6.317,0,0,0-2.973-3.956l-6.309,5.835,1.2,4.278-2.6,2.048v2.482l-4.336.567-10.789-6.168-.766-2.125-7.281-6.917a7.521,7.521,0,0,1,4.1-6.964c4.414-2.138,8.109-3.643,8.109-3.643l-5.988-4.441s7.5-.054,9.336-2.373,4.273-4.357,4.3-9.209-1.488-8,1.8-6.111,6.121,3.775,6.879,2.841a4.864,4.864,0,0,0,.621-2.841s-1.988-2.837,8.742-4.192,15.379.551,15.379.551l3.324,1.183s1.5,2.617,0,4.52,3.078,1.765,2.957,3.11.16,7.585,2.441,8.879a10.811,10.811,0,0,1,3.207,2.544v5.539l3.531.824a16.907,16.907,0,0,1,2.891,5.491c.586,2.611,1.328,5.742.895,6.764s-3.531,3.045-3.785-1a30.577,30.577,0,0,1,0-5.759Z" transform="translate(-17724.998 1551.872)" fill="#f89f1b" stroke="#151515" stroke-linecap="round" stroke-linejoin="round" stroke-width="2"/>
    </g>
  </g>
</svg>
