<svg xmlns="http://www.w3.org/2000/svg" width="474" height="474" viewBox="0 0 474 474">
  <g id="hero-usa" transform="translate(-843.378 -208.923)">
    <circle id="Ellipse_2061" data-name="Ellipse 2061" cx="237" cy="237" r="237" transform="translate(843.378 208.923)" fill="#fff"/>
    <g id="usa" transform="translate(866.848 311.285)">
      <path id="Union_1" data-name="Union 1" d="M361.716,269.276l1.447-2.152-2.148-.861,1.577-1.466V262.93l-4.463-.948-2.477-6.375-4.884,1.814-1.211-3.25h3.077v-2.66l-4.2.788-1.837-3.134v-1.852l1.837-2.017V241.94l-1.837.595v1.935l-2.264-1.233.489-11.216-1.81-2.472-2.307.8v-2.883l-3.351-2.138v-1.277l-3.869-.764v-1.63l-2.752-1.151-1.335,2.781-9.436,3.086-2.772-4.716h1.379l-1.379-2.868-1.717,1.717h-4.183v-1.717H306.8l1.827,2.868h-4.865v-2.868l-9.087,4.5,2.858-2.781-2.858-6.176V220.5l-9.045,1.151-2.946,1.63-6.664-1.63-3.386,1.63,3.386,3.086,4.508-1.045-1.4,1.045,3.555-1.045V228.5h-1.1l1.1,3.521h2.946l-4.048,3.521-1.055-3.521-2.573-1.673,1.175,3.56h-3.11l-1.388-1.886-2,3.521-2.722-1.635-3.444-1.886,1.553-1.673h-3.307l-1.026-2.883h-4.412l1.939,2.883h-8.589l-3.13-5.02V228.5l-13.2,3.521V228.5l-3.918,1.848,2.438,3.56v1.635h-2.438l-18.22,11.274h-4.455l1.553,1.1v4.677h-3.027l4.458,13.257-1.431,1.732-3.027-1.732h-8.649l-8.55-9.615v-7.1l-2.776-1.224-4.231-9.547-6.568-9.867-13.041-3.173-2.717,1.045-3.37,7.535-11.314-7.535-3.851-12.043-10.78-13.122-15.549-3.163-1.345,4.687-24.024-3.637L59.683,180.955l1.307-2.573-21.5-1.606v-2.945H38.229l1.256-3.894L35.442,165.4l1.209-2.878H30.257l2.28-4.019-11.58-7.177-3.741-1.683-2.634-2.409V136.657l-3.246-1.983L8.619,121.906H5.861L7.28,112h4.057l-1.1-3.594h6.983l-5.88-1.654-5.475,1.654-1.049-1.654,1.049-2.341L3.313,97.863,0,96.422l1.378-1.77,3.43-5.876-3.43-8.111,4.479-5.223,2.758-7.057L7.28,65.12l2.954-1.4L7.28,55.345h2.954l4.349-4.967,6.375-16.962,5.514-5.823L26.127,23.7l7.892,3.889L34.358,26l-7.888-3.86-.343-4.314,1.238.368.4,2.66,1.54-2.66-1.54-2.66,2.491-7.826V.387l6.394,5.993,6.627,1.33L42.1,16.531l2.826-4.7h1.926l-.8-4.126.8-4.817L46.048,0,92.635,12.251,172.52,26.117l59.925,3.158,5.1,3.386L247.7,35.046l1.959-1.736,1.644,1.141v2.52l4.987.875,6.108-.421,10.25.421-11.754,7.042-.827,2.7-4.575,2.191-1.3,3.874,9.572-2.849,1.518.788L263.767,54l4.01.547v-1.93l3.138-1.809,6.042-1.625V46.412l7.477-4.106.817,1.485-4.943,3.8v4l2.157-1.814L285.25,51.6l4.087,1.02,4.294,1.93.9-2.95,10.3-2.97V51.6l4.983-.788,3.985,5.02h-5.755l-.87,2.592-4.765-2.592-5.967,2.592L294.536,62.6l-.9-3.255-4.294,4.116-.634,4.967-2.64,4.716,2.64-2.617,4.241-5.7-5.886,19.936,1.644,7.1v4.126l4.241,6.907,3.5-1.345,2.925-5,1.394-9.078-1.394-2.709-2.108-3.98.706-4.44V70.527l5.6-5.7v4.6l1.8-1v-3.6l2.679-2.225-.87-1.823,2.64-2.355,3.022,2.355,5.585.861,1.621,3.187h-.793l2.118,4.6-1.325,5.852-1.621,1.059-1.092,3.5,1.092.943,2.946-1.6V76.34l.552.817,2.9-1.877,2.536,1.059,2.785,7.855v6.1l-2.079.856v4.837l-1.9,3.753,3.981.522-2.079,2h2.079l4.377-3.323,1.9.8,7.018-5.02h2.079l5.5-3.569,5.914-6.389-2.268-3.11V79.179l8.9-2.022h4.749s6.525-3.076,5.76-4.8a6.178,6.178,0,0,1,0-3.927l-1.44-1.233,8-11.443,25.29-7.545v-1.7l3.492-1.973V42.784l2.071-1.272-.668-1.088V38.078l-.894-5.915,4.154-11.443,2.022,1.644V20.077l9.239,2.288,4.488,13.784,5.113.459,4.124,6.176v1.267a20.7,20.7,0,0,1-4.124,1.877c-3.231,1.219,0,1.683,0,1.683l-.716.595s-1.67,2.123-1.95,2.554-.957-1.427-.957-1.427l-2.772.551-2.466-1.678v7.545a4.544,4.544,0,0,0-2.3,0c-.663.372,0,1.664,0,1.664s-.01,2.573-.774,2.118-1.514-.837-1.611-.706a6.131,6.131,0,0,0,0,1.359l-1.7,2.771,1,.464-1,1.553h-.527l-.484,1.7-1.717,2.675.793,1.485.924.474-1.717,4h.793l1.935.682,1,1.161.7,1.519L423,79.784l2.337-.6L424.79,76l2.514,1.978v2.641L423,82.836l-1.611-2.22-2.707,3.332-1.717-1.112s-.252,2.467-.866,2.81-3.788,1.915-3.788,1.915l-6.959,3.1L400.09,94.1l.8,1.224,9.025-5.132L409.41,91.9l4.662-1.238-8.154,5.9-1.272.493s2.219-2.636,1.8-2.95-6.361,4.841-6.361,4.841l-1.732-1.891V94.1L395.8,99.74l3.585.522-1.723,9.557-2.37,4.667V113.05l-3.743-.793.909.793,4.2,6.6,1.7.992-.7,1.882,1.723.667v5.877l-1.022-1.707-.7,2.355-4.672,1.712v-2.36l-1.441-1.707-.972.948-1.443-.948-1-2.225,1-.982L387.146,122h.987v-3.811h-.987l1.983-2.887.678-1.756-1.674-.493-.987,2.249-2.785,2.423,1.315,1.925L384.994,122l2.152,4.251v1.108l1.983,3.081h-1.983l.987,3.744h-3.772l2.785,1.906,3.426,4.092-7.928-3.25-2.2,1.446h2.2l3.032,1.8,3.453,1.432,4.426-1.432v3.192l4.1,6.181-4.672-4.276,1.234,2.235-1.234.479-2.413-.479v1.166l-3.426,1.615v1.2l5.839-1.944a7.162,7.162,0,0,1,0,2.423c-.26.59,1.784,0,1.784,0l-.551-3.3H395.8l.86,2.82-.86,2.394h-3.343l2.317,1.954-1.784,1.751-3.177-2.409v1.567l-4.131.842,5.867.667-.972,1.635h-3.426l.987.561,1.674.856,3.177-2.046,1.234.629-1.234,2.52-7.991,1.9-2.35,2.53h2.35v1.316l-2.35,2.065v5.049l-2.786-3.773.585,3.182-2.5-1.1-2.1,1.688-3.672,4.914-2.114,5.983-2.457-1.306V186.8l-5.006,5.475-.8-.493-4.246.493,3.467,2.534-1.474.58-4.973-1.572s-.126,2.472.561,2.6,2.254.59,2.418.963a2.9,2.9,0,0,1,0,1.519,5.777,5.777,0,0,1-1.113,2.486c-.541.537-1.122,1-1.866,1.727s-.884,4.126-1.262,4.483.053,2.089,0,2.539a10.769,10.769,0,0,0,1.262,2.53l.561,4.2,4.412,10.6-1.412,1.137,4.463,4.218-1.577,1.243,10.68,19.583v4.691l-1.437,1.335-1.614,3.792.778,3.661-3.729,2.152ZM78.651,268.4l-3.3-5.968-7.371-8.691v2.041l-4.89,1.151-2.335-4.072-9.42-4.841-4.131-.706-6.369-5.5-1.249,5.5-8.841,1.606,2.148-7.1H30.745l-3.652,3.255v2.95l-8.738,6.8L6.266,258.476H0l3.713-2.694,11.59-4.958,3.052-4.59-4.718,1.079-3-3.855-4.375,1.611,1.815-6.123-4.367-2.733,2.553-3.3L3.713,228.3l4.367-2.8,3.3,3.574V225.5l6.97-1.843.687-4.89-3.739.692-4.662-2.665-.926-3.531-1.634-2.805,9.127-1.562,1.148,4.367h2.47l-.721-2.805L18.355,208.9v-3.018l-1.9-5.185,6.437-1.107,3.21-3.062,10.466-1.872,7.8,6.041,14.047,5.185-2.849,40.356,4.479,1.785,3.045,3.729,4.89-.924,10.67,10.432,3.005,8.014Z" transform="translate(0 0)" fill="#f89f1b" stroke="#151515" stroke-linecap="round" stroke-linejoin="round" stroke-width="2"/>
    </g>
  </g>
</svg>
