<svg xmlns="http://www.w3.org/2000/svg" width="474" height="474" viewBox="0 0 474 474">
  <g id="hero-india" transform="translate(-843.378 -208.923)">
    <circle id="Ellipse_2061" data-name="Ellipse 2061" cx="237" cy="237" r="237" transform="translate(843.378 208.923)" fill="#fff"/>
    <path id="Path_9028" data-name="Path 9028" d="M981.664,493.722l21.966-20.32,1.907-1.878v-1.553l6.431-5.985v-6.1l16.305-1.635h2.633l1.793-4.654,4.738-5.283s2.551-2.46,0-3.68-4.1-4.317-1.46-6.677,8.372-7.914,8.372-7.914h6.337v-3.115l2.285-1.576v-2.114l6.617,3.69,7.443-3.69a29.784,29.784,0,0,1-2.8-8.407c-1.08-5.43,0-6.53,0-6.53l-7.283-9.56,2.643-1.4-1.033-4.2-7.869-4.245s-5.288-3.037,0-6.29,10.967-5.969,10.967-5.969l-6.757-5.074s-2.027,2.411-3.34-2.382-.689-6.574,1.415-7.739,5.584,1.258,5.584,1.258l3.1-.9h1.681l1.363,3.22h4.663l2-1.3,1.885,11.974,4.859.939.947-.939,2.216,2.235,5.208-.377V374.19l13.308.814,3.713-2.295,3.751.991.433,3.953-.852,5.683-15.6,11.519,5.226,8.87s5.022,2.976,6.528-.767a8.816,8.816,0,0,0,0-6.777l5.807-3.146-1.113,6.881,6.792,13.635,1.654.625v4.7l3.895-2.427.428-2.9h2.525l-.67-2.5-2.662-2.991V402.96l3.333-2.094V389.2l10.941.919v-6.78l5.552-7.4.527-3.589-3.737-5.163,6.307-6.013.673-11.936,15.129-14.2,6.009.82,2.516,2.884s5.149.943,2.823-2.377a13.588,13.588,0,0,0-5.339-4.554l5.339-7.2s2.56-3.887-3.9-3.974-7.45.835-7.45.835l-1.251.622-1.952-2.869,1.952-5.943-5.45-6.042s-3.689-1.133-5.885,1.375-3.62,4.3-3.62,4.3l-7.7-3.568h-3.742l-5.907,8.005-4,4.117-2.446-1.643s-2.681,1.6-2.962,2.265-3.839,6-3.839,6l-6.555,7.759h-5.23l-8,5.494,10.427.48s4.409,5.812-2.431,8.09-15.82,2.754-15.82,2.754l-13.156.505s-11.435,1.522-12.948-3.945-.79-13.379-.79-13.379-9.918-1.013-9.633,7.22,6.7,16.414-3.941,16.729a120.58,120.58,0,0,1-20.872-1.423l-3.7,2.32-5.4-6.187s-8.775.685-11.712-3.1-8.181-4.8-8.181-4.8l-15.393,1.25-.683-3.3h-6.41l-7.956-2.942L953.107,331.9l-10.187-4.4-.764-8.237h3.325l.455-8.036,7.171-5.533-7.171-5.772H942.92l-3.845-5.9-4.324,1.094-5.518-7.361-2.925.555L925,279.05l-5.16-5.085V271.3l-3.191-1,.619-1.971L925,269.893l1.306,2.237H931.2l3.549-4.993-6.477-7.786.522-10.09L941.371,238.1l4.11-8.671-6.406-7.259H923.863l-5.7,3.992L912,227.633h-2.305l-27.553-24.062h-4.931v-2.225l-13.153,4.425-3.1,2.426v-2.426l-8.039,4.046-3.9,1.723v7.438h3.9l11.142,8.655v7.331l-6.814,5.84V246.1h1.642v13.256l5.963,2.543,3.375,4.232,4.044,1.011,4.944,4.993,2.7,1.834-2.7,4.055h-3.853s-3.426-.35-2.807,2.255-1.554,11.216-4.659,14.837a67.688,67.688,0,0,1-6.631,6.617l.906,4.44-5.165.387-4.555,4.242v4.965l-18.273,18.516-3.283.8-1.251,2.105h-6.281l-.567,1.3-3.087-.586-5.138-5.211-14.408,14.657V350.3h1.579v3.245h5.326l1.982,4.053-1.629,6.423L817.7,378.637l-.589,6.256s-3.648,4.937-4.549,4.993-3.293-3.969-3.293-3.969l-4.966.9-5.026,4.074L797,386.816l-12.623-.539L783.6,394.1l-8.647.787,6.581,4.889.849,4.368,11.831,6.335,4.554-4.064h8.271L801.28,412.3l-4.866.761-3.973,2.507-4.3.486-1.884-2.993-2.659,4.15,12.811,12.62,1.74,2.328,3.125,2.345,9.5,6.985h8.074L831.5,430.967l-1.468-9.719,4.382-2.957,1.3,8.513h4.56s-.955,3.5-3.681,3.574,0,4.13,0,4.13l3.681,1.863v10.372s-4.488,1.6-4.56,5.115a18.282,18.282,0,0,0,1.906,7.367l-1.906,2.917,2.64,3.238-2.64,4.249,1.906,2.073v10.832l2.654,3.365-1.325,2.152,1.325,5.163,2.21,2.321-.951,7.077,1.688.731-1.688,5.022,5.788,9.778,4.077,10.245s2.839,4.173,3.059,4.841,3.949,10.023,3.949,10.023v8.7l4.35,12.767s6.459,10.7,7.24,11.228,6.136,12.714,6.136,12.714l2.817,6.835,1.828,4.529.782,4.3,1.82,1.046-.653,7.813,2.989,1.647,1.63,8.628,5.877,6.722,6.174,2.986,2.974.693,1.28-2.149,5.209.769,1.189-3.883.884-7.4,2.517-3.554h7.041l2.584-1.507V608.7l6.643-8.677,2.533-2.371,1.271,1.245,2.514-3.827h2.551l-.895-10.264-3.065-2.087.9-9.346,6.3-6.2L945.236,562v-4.664l-.817-8.339L940.84,542l3.579-4.7-3.579-1.95V524.472l4.4-5.862,1.812-1.587,4.238,1.587,1.64,1.04,3.3-2.627.416-8.125,10.664.475,4.369-3.218v-6.668l7.948-5.764Z" transform="translate(120.741 37.321)" fill="#f89f1b" stroke="#151515" stroke-linecap="round" stroke-linejoin="round" stroke-width="2"/>
  </g>
</svg>
