<svg xmlns="http://www.w3.org/2000/svg" width="474" height="474" viewBox="0 0 474 474">
  <g id="hero-canada" transform="translate(-843.378 -208.923)">
    <circle id="Ellipse_2061" data-name="Ellipse 2061" cx="237" cy="237" r="237" transform="translate(843.378 208.923)" fill="#fff"/>
    <path id="Union_2" data-name="Union 2" d="M-15246.745-3522.808l3.283-16.142a46.239,46.239,0,0,0-.946-4.71c-.319-.752-.967-1.5-1.777-3.406s-1.565-3.452-2.031-4.674,1.054-.337-.945-2.531-3.028-4.077-4.118-3.935a10.389,10.389,0,0,1-4.76-.885c-2.1-.8-3.115-.278-3.515-1.463s-3.547-5.376-3.547-5.376l-27.285-12.124s-1.515-.748-3.475,1.509-6.279,2.59-8.942,2.261-17.421-2.029-18.736-2.261-4.586-.812-6.052-.994a1.931,1.931,0,0,0-.979.132c-.605.224-1.047.443-2.879-1.258a19.779,19.779,0,0,1-4.016-5.408l-1.24,4.209s-75.545.957-91.772-2.755-39.812-7.656-39.812-7.656-42.006-8.436-42.461-8.572-1.731-.469-1.731-.469l-1.607-.556-.96-9.425-1.089-3.142-3.319-1.368s-11.531-14.993-11.877-18.121a12.879,12.879,0,0,1,0-4.313s.66,1.659,1.9-.7a40.053,40.053,0,0,0,2.3-5.814l-1.138-3.36-5.758-8.527-2.159-1.336,3.527-3-2.755-2.9s2.738-7.711,2.767-8.979l0-.013h0a.439.439,0,0,0-.012-.115l.646.143h.065l-.711-.143c-.12-.374.775-.176,1.655.1,1.094-.117,2.369-.5,2.6-1.609.416-2.006,1.08-5.495,1.117-6.051s1.388-1.823,0-2.576-2.095-3.347-4.026-5.728-3.8-3.206-3.608-5.293.994-4.25,1.3-7.519.518-5.062,0-7.314a16.3,16.3,0,0,1-.492-5.331,23.674,23.674,0,0,0,.492-4.2,4.5,4.5,0,0,1,0-1.555c.048-1.053,1.737-1.486,0-2.5s-.1-1.309-3-1.309-2.171-.118-4.089,0-3.83,2.015-4.368-.492-.93-3.443-.8-4.692,1.011-1.906.8-3.215-.8-5.408-.8-5.408a50.323,50.323,0,0,1-4.53-2.545c-.592-.533-1.208-1.04-1.208-1.04l23.705-29.63,27.91-38.088.922-1.281,6.985,11.568,1.549,2.567a2.663,2.663,0,0,1,1.619-3.7c4.169-1.779,7.17-2.718,7.17-2.718v3.417c.222-.6,1.493-1.626,7.572-1.671,5.244-.036,6.708-.028,7.048-.016l1.443-.814-4.893,6.2,13.057-4.4,2.289,11.249,2.247-.953,10.514,1.564h1.607l7.979,7.1h2.2l9.188,9.216-1.861,3.566,1.861,2.658,14.219.985,7.879,5.805-2.705,3.21,3.774,5.148a5.531,5.531,0,0,0,2.491-6.055c-.51-2.121-.914-3.572-1.184-4.478.374.439,1.089.272,2.451-2.485,2.538-5.143,3.964-7.6,3.964-7.6v4.2s2.123-1.236,6.4,1.268,7.873,5.075,7.873,5.075l12.575-.7.733-3.393h1.831s-3.121-3.67,0-3.643a6.306,6.306,0,0,1,5.254,2.658c.744.908.834,6.074.834,6.074l4.878,3.926.668-10,6.763-5.472-4.644-2.686.609-1.92-1.222-3.948-4.28,1.5-2.772-10.634,2.772-10.119,11.537,12.134-2,3.379h-1.493l1.493,7.683s5.384,6,8.44,5.358,3.325-2.635,3.6-5.358a21.954,21.954,0,0,1,.66-3.948l9.308,19.1,3.129-4.09s-2.157-3.41,0-5.7a16.9,16.9,0,0,1,4.628-3.438v-2.722s-2.135-3.826-1.577-6.881c.108-.584.172-1,.21-1.3.63.914,2.583,3.517,4.482,3.622,2.3.128,4.818,0,4.818,0l1.561,2.919-2.986,3.511,8.057,6.352-2.729,12.658-3.9-3.21-4.818-.716,4.818,4.733h-12.562l4.628,3.146-3.578,6.5-6.077-2.325-10.282-.9v3.228l18.36,3.069-3.774,7.341-7.187,4.546v4l-17.224-7.848,2,7.022h6.439v3.7l2.413-1.87,5.286,2.786a9.814,9.814,0,0,1-6.315,4.71c-4.641,1.19,3.652,3.028-2.409,6.649s-3.438,2.5-3.438,2.5,1.7,6.087-2.973,9.781-1,17.738-1,17.738l3.977,6.251.688-3.493,3.776,3.493,2.413,8-1.029,2.708,2.873,2.129,9.308-3.785,14.265,2.526,5.328,8.445,13.263,2.262,18.118-1.072,2.565,17.519,6.667,7.852,7.587,3.52,1.037,5.973,7.715,1.044v-5.066l4.782,2.166-2.1-4.117,2.1-7.15-1.621-4.7-11.913-12.029s-3.121-.547,1.037-3.944,8.991-5.8,9.169-6.279a37.8,37.8,0,0,0,0-4.427l-.706-5.85,4.034-4.045-5.6-7.2-1.485-2.608-10.092-6.484s-2.241-13.237-2.055-15.458a4.6,4.6,0,0,0-1.894-3.7h-1.913l-7.319-16.142,3.453-2.991s13.276.434,15-.739a11.4,11.4,0,0,0,2.229-1.778l7.3,4,7.989,4.208,5.074-4.208,2.313,7.145-4.764,4.022,4.764-1.14,4.2,6.379s3.563-1.815,2.346.41-2.346,1.852-2.346,1.852l1.3,5.18,7.585-3.238,2.463,6.238v-6.68l6.038,3.2-1.3-9.069,5.51,3.356-.464-9.152-5.706-3.2.66-10.784,9.13,11.591h5.7l-.424,7.323,2.513-3.4,1.361,5.271,2.231-4.131,3.475,4.131-1.174,3.37h8.665l.625,3.069-4.932,2.112,6.384,3,7.173.538s.328,5.49,5.4,5.093,6.92-2.914,6.92-2.914l5.359,1.5-3.463,6.238v8.591l5.762-12.289,6.436,1.245.859,2.453,2.577-3.269,3.9,2v7.25l7.335,1.614-2.669,10.223-6.287,5.2v12.07l-13.121,6.9-13.99,5.827-8.143,3.662s-1.927,1.473-1.671,5.134,1.671,4.9,1.671,4.9l-5.078,8.677-2.295,3.648-3.379,3.438,1.8,6.029-3.232,9.885.268.059,7.241-13.761,2.367-7.415,6.471-7.364,6.112-2.787,4.622-2.375s4.4,1.454,5.925,5.162-8.62,5.48-8.62,5.48l-2.377,3.648,7.1.93,2.427-3.534.483,9.662,3.215-3.621,3.98,6.029,5.647.78s2.737,5.344,8.86,0c2.665-2.324,3.769-3.368,4.169-3.806l5.235,3.806-6.571,8.249-3.9,1.705v2.963h-3.154l-2.063,3.046.81,6.776-2.715,3.789-5.468-3.383a7.051,7.051,0,0,1,0-5.932,32.036,32.036,0,0,1,2.713-5.522l7.687-2.59v-3.6l-7.687,2.745v-5.563l-6.881,10.734-6.527,1.983c.056.116.084.188.084.188l-3.929-.865-16.991-3.578c-.231,6.464-.412,13.3-.412,13.3l-10.537,6.329s-12.721,4.993-13.1,5.317-4.525,8.335-4.525,8.335-3.561,8.581-4,8.709-14.3,4.816-14.3,4.816-2.613-.392-.492,3.99-4.8,8.317-4.8,8.317l-14.208,11.436ZM-15490.935-3791.45Zm365.9,184.9s.676-.454.16.115Zm-171.7-109.417c-.406-.7-1.928-.78-.876-1.774s1.837-1.55,3.053-2.686.966-1.728,1.722-1.938a6.88,6.88,0,0,1,2.148,0c-1.033,1.66-1.871,3.429-2.732,4.624a5.716,5.716,0,0,1-1.712,1.774,2.185,2.185,0,0,1-1,.363A.662.662,0,0,1-15296.734-3715.971Zm-14.725-13.014c.726-2.7,0-5.869,0-7.788v-8.965s.634,1.6,1.254,3.073,1.726.551,2.751,0,.1-1.072,1.635-.739,3.161,2.166,5.145,2.521,1.721.675,5.355,4.109c2.491,2.348,2.056,2.057,2.215,1.76.072-.132.272-.265.934-.146,2.1.379,2.35-.465,4.851-1.614s1.479,2.978,1.479,5.763-1.7.328-4.377,0-3.078-.223-5.1-2.668-2.791-1.482-2.791-1.482a45.613,45.613,0,0,0-2.564,6.174c-1.184,3.57-4.1,3.233-4.1,3.233l-8.143.866A21.731,21.731,0,0,0-15311.459-3728.985Zm63.068-9.721a6.487,6.487,0,0,1-1.725-.529c-.093-.078-.492.109-.884.3-.788.374-1.533.753.42-1.007,2.923-2.64,4.59-2.7,2.929-3.142a14.694,14.694,0,0,0-3.948-.068,15.224,15.224,0,0,1-2.231.068,8.136,8.136,0,0,1-3.48-1.624c-.563-.656-.738-.392-1.283-1.55s-1.086-3.3-1.84-2.868-.17,1.163-.712,1.387-2.253-.433-3.632-1.387-2.443-4.24-1.928-.6,1.554,5.02,1.554,5.02a44.344,44.344,0,0,0-6.308.589c-1.974.474-3.188.556-3.786,1.035a3.555,3.555,0,0,1-2.467.629c-1.106-.032-.9-.506-.826-2.253s-.04-2.686,0-3.483-2.513-1.751,0-2.412,2.913-.219,5.68-.72,3.435-.7,4.4-1.24,1.434-.415,2.395-1.486,1.166-.6,1.286-1.3-2-3.229-3.207-3.808a1.236,1.236,0,0,0-.939-.1c-.376.1-.486.2-.649-1.236-.261-2.235-.639-3.393.609-4.072s2.163-.857,2.259-1.951-.844-3.338-.821-3.844.8-.374,0-1.469-2.617-2.362-3.4-3.374-.643-.766-1.38-1.842a17.135,17.135,0,0,0-1.6-1.856,16.626,16.626,0,0,0-2.608-2.385c-1.422-1.14.691,0-2.02-1.633a6.508,6.508,0,0,0-4.858-.574,6.334,6.334,0,0,1-1.593.209c-1.111-.146-2.249-2.385-2.249-2.385s2.3-.46-1.476-1.741a45.2,45.2,0,0,0-5.366-1.519c-1.731-.483-1.18-.739-3.662-2.143s-5.09-3.771-5.523-3.785-.86-.415-.76.771-.046,2.248.76,3.438a5.866,5.866,0,0,0,1.723,1.719s-3.584.46-4.218.538-3.679,1.172-4.754.981-1.412-.589-1.439,0-1.112.9-2.132.92c-.346,0-.256-.109-.128-.219.252-.219.646-.438-1.753.219a37.9,37.9,0,0,1-6.827,1.149c-.468.1-1.046-.825-1.52-2.07s0-2.025-1.432-1.519-3.064,2.366-3.66,2.439-2.514,1.031-3.139,0a8.054,8.054,0,0,0-1.6-2.439,18.082,18.082,0,0,1-2.054-2.376l12.7-2.781s1.716,2.5,1.89,1.92.6-7.414.6-7.414l-5.62-3.771,5.024,1.368-5.852-6.069s5.327-.429,5.036-.771a15.325,15.325,0,0,0-2.877-1.943,21.24,21.24,0,0,1,2.877-.483l-4.209-1.97,7.743-4.528,4.964,7.383.432,7.578h1.882l.993-6.037,7.354,4.551,1.065-1.14-4.121-3.036,5.343-.374-5.816-1.541s-.136-2.308,1.188-2.331,6.951,0,6.951,0l-1.065,6.767,5.4-4.058-.807,3.73a10.045,10.045,0,0,1,2.55,1.984c.4.743.392,1.86.844,2.289s.741.141,2.221-.42,2.8-.948,2.8-.948-5.162-2.047-1.419-2.9,5.117-2.982,5.231.328a34.776,34.776,0,0,0,.562,5.094c0,.388-2,.3.65,1.254a18.676,18.676,0,0,0,5.01,1.054h1.329v-4.259a3.807,3.807,0,0,0,.82-.565c.4-.365-2.459-.98.993-.465s5.466.068,5.388.465-2.833,1.391-3.544,2.161-1.074.8-.864,1.149,2.1,1.081,2.983.461,1.287-1.518,1.856-1.61.766-.917,1.344,0a8.453,8.453,0,0,1,1.184,2.057c.11.524.487,1.19-1.516,2.161s-2.7,1.19-2.868,1.532-3.089,1.537,0,1.354a12.828,12.828,0,0,1,3.51,0s2.755,1.705,2.715,2.376-.182.629,1.693,1.063c.3.069.473.1.554.109.212.091.668.269,1.574.6,3.524,1.277,5.392,2.079,5.7,2.531s-.626.223.668.9a31.173,31.173,0,0,1,3.047,1.956,22.561,22.561,0,0,0,3.681,1.272c1.333.283,2.009.365,2.009.365h2.986a2.22,2.22,0,0,1,2.05.338,23.538,23.538,0,0,0,2.4,1.226c.074,0-.392.274,1.233.2s2.636-.133,2.636-.133c.909.073,2.349-1.322,2.349-1.322.3-.077-.31,2.276-.474,3.229s.449.128,0,2.024-.528,1.369-.464,2.527a17.665,17.665,0,0,0,1.879,4.965c.574.994,1.836.023,1.162,1.318s-1.284,1.537-2.1.917a3.6,3.6,0,0,0-2.349-.917,3.1,3.1,0,0,1-1.9-.475c-.414-.305-1.22-.625-1.552-.844s-.252-2.731-.416-3.406.844-2.535-.506-1.08a12.736,12.736,0,0,0-1.893,2.521s-1.122-.748-1.649-1a5.586,5.586,0,0,0-2.058-.9c-.937-.109-1.016-2.257-3.338-1.468a12.2,12.2,0,0,0-3.247,1.468c-1.208.652-2.555,1.008-.434,1.906s2.45,1.035,3.324,1.469a2.73,2.73,0,0,0,1.29.123c.491-.041.684-.077-.2.374-1.544.8-4.095,1.086-3.984,1.633s.546.424,2.031,2.367,2.858,2.776,3.225,2.781c.158,0,.3-.306.481-.607.208-.369.464-.734.848-.565a18.715,18.715,0,0,1,2.457,1.806s.057-.045.748.515,3.021,3.164,4.134,3.238a4.224,4.224,0,0,0,2.636-.89c.168-.241-1-1.344.312-.907s3.075.055,2.979,1.331-.806,1.8.592,2.522,1.913.424,3.235.834,2.587,2.909,2.587,2.909h-3.991s-2.654-.387,0,.9,2.987,1.455,2.987,1.455l3.4,4.282s-9.868-2.508-10.691-2.449-.67.383-1.806,0-2.437-1.122-3.059-1.021a.906.906,0,0,1-.43-.059c-.328-.109-.481-.224-.492,1.081-.014.857-1.621.734-2.858.616-1.329-.132-2.231-.26-.284.821,3.769,2.088,7.535,2.562,8.929,3.593a21.013,21.013,0,0,0,4.754,2.508c2.354,1.035,2.755,1.291,3.539,2.467.268.4-2.52.535-6.315.535C-15237.071-3738.171-15248.187-3738.67-15248.391-3738.706Zm-151.036-21.322s.134.372.386,1.213A2.621,2.621,0,0,1-15399.427-3760.028Zm33.42-10.41,2.715-7.218,9.326,7.218-3.311,3.484Zm-51.223-.018a1.909,1.909,0,0,0,0-2.071c-.72-1.012.167-.821,0-1.906s-1.722-1.988-4.177-2.79-4.372-3.881-4.372-3.881l-2.025-5.116s19.038.054,19.554,0l-5.527-4.916s-12.207.051-13.513,0,0-4.523,0-4.523l8.7-.706s2.264-1.733,1.362-1.551-7.224-1.764-8.549-3.128-1.949-1.008-1.512-1.587.638-2.056,1.512-3.05a8.725,8.725,0,0,1,3.756-2.253c.534.059,10.128-3.656,10.128-3.656l-1.241,5.909,5.634-3.1s.678.224,2.559,2.417c1.234,1.441.557,1.364-.283,1.286a2.088,2.088,0,0,0-1.191.1c-.8.515.153,2.495,1.475,2.348s3.4-.6,4.431-5.3.548.524,1.547,2.955a9.177,9.177,0,0,1,.83,3.046c.288.967,1.172,1.915,2.205,4.017a42.083,42.083,0,0,0,2.423,4.159c.286.5.764-15.9.764-15.9s6.521,2.631,6.521,5.727.438,8.792.552,11.354.146,1.965.838,3.123,10.483,8.148,11.153,8.842-.292.438-.88.748-1.243.241-1.575.679-1.352,2.07-1.971,1.961-4.637,0-4.637,0l.83,4.7s-6.018,1.2-6.472,1.167-1.759-5.864-1.759-5.864-4.654,3.1-6.43,3.593-5.138,3.174-5.138,3.174Zm100.6-12.348s.364-.942.21.313C-15316.559-3782.686-15316.633-3782.8-15316.633-3782.8Zm55.531-7.733c-.291-.126-.109-.083,0-.041.059.021.1.044.047.044A.417.417,0,0,1-15261.1-3790.538Zm-106.2-2.932-10.364-9.046s.506-.064.964-2.084,0-2.722,0-2.722,4.09,3.488,4.7,3.4a5.566,5.566,0,0,1,1.728,0,17.452,17.452,0,0,0,0-3.4,51.924,51.924,0,0,0-2.642-5.239l10.46.524-4.85,4.715,6,3.4s.078,7.218,0,7.533-3.038,0-3.038,0l-.606,2.918Zm29.352-1.714-.894-14.97s3.667-4.141,4.087-4.6a5.992,5.992,0,0,1,3.013-1.6c1.016-.032,2.641,1.145,2.587,1.6s-1.452,3.529-1.452,3.529v5.818l7.56,10.228Zm-17.375-3.7-1.949-16.069h13.1l-3.74,9.17s-5.9-.42-5.546.492,2.3,2.914.568,5.075c-.978,1.222-1.628,1.488-2.008,1.488A.562.562,0,0,1-15355.323-3798.887Zm-87.683-7.483s-.957-3.178-1.5-3.406-3.141-.137-2.755-.579,13.139-10.7,13.139-10.7v-5.8l8.585,1.437,3.353,4.359a26.162,26.162,0,0,1,4.594,1.436c2.31.985,3.581,3.939,3.581,3.939s-6.04,2.631-7.251,3.908-10,4.7-10.37,5.4-1.319,3.037-1.319,3.037l-1.172,1.714-8.889.6Zm81.741-18.545s3.656-5.755,3.988-4.615,3.475,8.062,3.475,8.062Zm14.636,1.149c-1.613-.67-1.585-.7-2.742-1.167s-.978-.684-.924-3.4-1.058-3.37-1.248-4.127-.6-1.048,0-4.3,1.248,1.341,1.248,1.341l.924.716v2.886a12.51,12.51,0,0,1,2.009-.638,1.848,1.848,0,0,1,2.117.638s.744,2.376,1.676,2.613.722-.748.722-.748.917.406,4.565,0c1.823-.206,2.109-.1,2.2,0s-.021.2,1.012,0c2.063-.406,2.473-.989,4.718-2.5a7.4,7.4,0,0,1,3.207-1.472s5.142.88,5.842,1.472-.838,1.377-.838,1.377a4.4,4.4,0,0,0,2.213,2.75c1.785.866.428.182,0,1.194s-1.467.9-2.213,1.341-.97.279-2.837-.606-2.167-.735-2.167-.735-.762,2.471-2.291,3.374a3.456,3.456,0,0,1-2.213.388,7.674,7.674,0,0,0-2.815.283c-2.6.743-2.295.205-3.183,0s-1.663-1.368-3.826-2.7-.684,1.3-2.091,2.7c-.435.435-.74.6-1,.6C-15345.151-3822.5-15345.519-3823.3-15346.629-3823.765Zm-58.908-1.021c.36-.812,4.774-1.2,4.929-2.585.086-.8-.97-.638-2.085-.483a3.91,3.91,0,0,1-2.128-.027c-1.065-.625,0-2.513-.716-3s-.764.62-2.249,1.637-1.533,1.281-3.164,1.359a4.51,4.51,0,0,1-3-1.359,7.065,7.065,0,0,0,3-2.043c1.589-1.687,2.576-1.295,3.164-1.71s.646-1.838,3.749-5.071,1.839,2.613,2.249,3.21a41.62,41.62,0,0,0,3.727,4.669c1.251,1.208.941,1.427,1.369,1.619s2.209-.237,3.435-1.619-.876-2.207-1.275-3.511,1.275-2.96,3.325-5.577.405.707.405,1.765a20.409,20.409,0,0,0,.41,5.691c.615,2.517,4.5-.474,4.5-.474a27.793,27.793,0,0,1,0,4.41c-.184,2.672-.894,2.2-1.617,2.339a16.835,16.835,0,0,1-3.7,0c-1.972-.1-2.128.547-2.766,1.377s-7.9,1.546-8.912,1.546C-15402.886-3822.621-15405.891-3823.975-15405.537-3824.787Zm34.043.205c-3-.634-.114-.46,0-1.281s.955-1.509,1.685-2.937,0-.793,0-.793a2.109,2.109,0,0,1-2.482.793c-1.67-.533-.987-.793-.987-.793s.611-2.877.987-2.243,1.873,1.34,1.777.72.1-.5,0-1.546a22.19,22.19,0,0,0-.979-3.479s1.771.907,3.061,1.733.724-.283,1.644-.825,0,.825,0,.825a13.554,13.554,0,0,1,1.735,3.292c.2,1.081.384,1.409.6,2.316s-.314,1.683-.6,2.937-.96,1.35-1.735,1.281a3.914,3.914,0,0,0-1.01.128,7.3,7.3,0,0,1-1.422.138A10.967,10.967,0,0,1-15371.494-3824.582Zm-45.308-13.232v0Zm0-1.624s-3.465-.725-3.333-1.053.563-.209,1.839-1.852,1.684-1.6,2.346-2.663,2.313-1.861,4.444-2.289,1.953,0,3.036,0,3.175,1.126,4.383,1.322.4.47,0,.967a11.7,11.7,0,0,1-1.286,1.632c-.7.675-3.578,2.982-4.12,1.03s-.288-1.641-.729-1.828-.691.679-1.283,1.354a9.944,9.944,0,0,0-1.258,1.865,12.392,12.392,0,0,1-4.038,3.137Zm71.561-1.829a20.775,20.775,0,0,0,3.129-1.509,2.287,2.287,0,0,0,.783-1.915l-2.862-3.283a8.979,8.979,0,0,1,4.2,1.081c2.237,1.171,2.563,1.6,2.961,1.171s.126-1.29,1.266-2.252a5.627,5.627,0,0,0,1.575-2.349,10.022,10.022,0,0,0,1.781,2.349c1.184,1.176-.724.242,1.775,1.081a11.148,11.148,0,0,0,4.194.547c.538-.009,1.1-.019,1.731.023,2.127.132,2.127-.128,2.381.6.1.274.352.077.569-.114.36-.319.628-.638-.071,1.145-1.132,2.859-2.342,4.911-2.879,4.875a1.828,1.828,0,0,0-.692.2,2.134,2.134,0,0,1-2.145-.2c-1.436-.921-3.877-2.959-3.877-2.959a17.21,17.21,0,0,1-2.769,1.509c-2.263,1.049-2.691,1.1-3.364,1.45a1.779,1.779,0,0,1-1.154.032,3.367,3.367,0,0,0-1.283-.032c-.456.077-.588-.023-.706-.128-.178-.155-.327-.31-1.417.128a18.691,18.691,0,0,1-3.129.962S-15346.461-3840.65-15345.241-3841.266Zm-49.788-4.965-2.15-1.259s.023-2.17.629-2.061a33.877,33.877,0,0,0,3.7,0c2.741,0,.432.534.56,1.072s.032.606-.56,2.248c-.2.545-.508.727-.832.727A2.428,2.428,0,0,1-15395.029-3846.231Zm30.626-3.27a9.79,9.79,0,0,1-1.453-2.978c-.782-2.23-.086-.944,0-2.481s1.186.169,2.711.839a17.723,17.723,0,0,1,2.826,1.641c.588.342.538,2.453.538,2.978,0,.276-.842.448-1.877.448A7.787,7.787,0,0,1-15364.4-3849.5Zm-7.611-.926c-1.685-.911-1.279-1.267-1.643-2.357-.21-.615-1.34-.383-2.271-.155-.716.177-1.317.356-1.3.155.044-.469,1.726-1.569,1.726-1.569l-3.98-1.258v-3.817a21.529,21.529,0,0,0,3.98,2.039c1.63.51,1.411,1.2,1.844,1.778s3.032,1.258,3.032,1.258a22.73,22.73,0,0,0,1.321,2.248c.446.579,0,2.6,0,2.6A6.486,6.486,0,0,1-15372.015-3850.427Zm39.366-1.636s-.264-.5-1.875-1.5-.666.962-.666.962a14.472,14.472,0,0,1-2.715,1.633c-1.807.871-.523,0-.523,0a34.887,34.887,0,0,0-1.985-3.1,5.035,5.035,0,0,0-1.379.5,8.354,8.354,0,0,1-2.342.962c-.7.013.56-2.12.652-2.9s-.011-.479.77-1.354.92-.57.92-.57a8.667,8.667,0,0,0,1.881.57c1.041.182,1.119.625,1.483.615s1.627-.816,1.613-1.186-1.613-.984-1.613-.984l2.65-3.174s-4.266-.812-4.636-.981-7.537-6.94-7.537-6.94l6.64,1.049,5.533,2.125s-3.88-3.844-4.134-4.222,1.953-3.251,5.388-5.394-.2-.438-2.291-3.653-.9.068-1.613.88a5.216,5.216,0,0,0-.322,3.569c-.441.045-1.245.208-2.141.371-1.785.329-3.94.655-4.3.036-.023.2-.046.356-.046.356s-6.134.835-5.016-.661,1.765-2.4,1.765-2.4-4.07,1.705-5.665,1.5-1.06-.552-1.615-.835-1.563-2.485-1.5-4.943,2.377-.128,4.366,0a8.811,8.811,0,0,0,3.225,0c1.981-.278-1.293-.794-1.895-3.6s1.353-.055,2.538.77,1.565.529,3.8.753,1.686-.051,1.76-.753-3.057-2.823-1.76-6.2c.815-2.13.712-1.815,1.086-1.5.218.187.6.369,1.443.064,2.257-.839,6.558-1.577,9.28-2.6s-.026,1.486.783,1.888,1.262-.647,1.808-1.1a12.992,12.992,0,0,1,3.381-1.887,4.753,4.753,0,0,1,2.513,0s1.417-.019,0,6.187c-.962,4.2-.855,3.055-1.094,1.915-.114-.547-.3-1.094-.724-1.053-1.306.114-4.512,2.686-2.537,1.71s1.842,0,1.842,0l.7,5.417s.592-.4,2.783-2.079.888-3.425,1.757,5.084c.57,5.631.384,4.126.2,2.622a12.146,12.146,0,0,0-.2-1.35c0,.529-.178,1.45-3.767,5.449-2.185,2.435-1.621,2.276-.9,2.115.464-.1.988-.205.9.379-.245,1.5.242,1.368,0,1.938s-2.585,1.9-4.276,3.2-.176.474,0,1.8c.124.93.708.921,1.386.917a3.479,3.479,0,0,1,.894.064c1,.237.96.378,3.041.939s.569,1,.966,1.7.036,1.823-.966,2.708-.93.894-1.044,1.4a23.569,23.569,0,0,1-.773,3.876c-.26.538-.35.533-.884.529a9.113,9.113,0,0,0-1.653.123Zm-22.1-.411c-.226-.511.626-1.044.716-1.592s-.269-.634-3.247-1.6-.743-1.473,0-1.641,2.035-2.521,2.035-2.521-2.253.055-3.2,0a2.044,2.044,0,0,1-1.817-1.309c-.278-.666-.687-.688-.687-.688a7.072,7.072,0,0,0-1.739-4.063c-1.636-1.746-.628-.975,0-2.453.4-.962.669-.643,1.033-.319a.969.969,0,0,0,.706.319c.815-.073.669-.524-1.07-2.941s.122-.661,0-2.271.938-1.3,1.758-1.738,1.047,1.1,1.817,1.738,1.407,1.4,1.165,1.778,2.688,1.774,4.057,3.434,1.2.264,2.1,0,.792.305,1.918,1.486.21.707.659,1.806.8.958,1.577,1.19.658.182,1.724,0,1.025.073,1.621.552,0,.77,0,.77a8.8,8.8,0,0,1-.581,2.709c-.524,1.217.224.939,0,1.45s-2.167,1.072-2.167,1.072h-.6s-.26,1.081-.611,2.362-.492.183-.966,0a2.339,2.339,0,0,0-1.189,0s-.85,2.909-1.388,2.476c-.26-.214-1.069-.1-1.863.019a10.443,10.443,0,0,1-1.271.135C-15354.512-3852.32-15354.7-3852.361-15354.745-3852.474Zm-39.592-1.5,3.884-1.633a8.8,8.8,0,0,1,1.107,1.633c.074.193-.455.258-1.2.258C-15392.021-3853.721-15394.337-3853.979-15394.337-3853.979Zm55.587-21.173c.29-.029.424-.007.322.1a.2.2,0,0,1-.14.077C-15338.64-3874.972-15338.7-3875.037-15338.75-3875.151Z" transform="translate(16405.01 4154.43)" fill="#f89f1b" stroke="#151515" stroke-linecap="round" stroke-linejoin="round" stroke-width="2"/>
  </g>
</svg>
