<svg xmlns="http://www.w3.org/2000/svg" width="1068.688" height="1023.488" viewBox="0 0 1068.688 1023.488">
  <g id="Illustration" transform="translate(-468.221 -455)">
    <g id="Group_36" data-name="Group 36" transform="translate(468.221 455)">
      <path id="Path_1" data-name="Path 1" d="M1366.361,1332.082c-20.861,21.961-40.6,36.124-56.193,47.313-183.313,131.529-400.221,93.189-446.32,83.826-68.074-13.826-199.659-40.552-294.793-152.427-143.93-169.258-121.518-435.919-9.876-611.946,20.421-32.2,128.291-210.906,347.535-239.566,132.684-17.344,287.351,17.637,399.357,111.476C1541.181,767.733,1524.443,1165.659,1366.361,1332.082Z" transform="translate(-468.221 -455)" fill="#d2fdfd"/>
      <g id="Group_13" data-name="Group 13" transform="translate(14.273 22.172)">
        <g id="Group_7" data-name="Group 7" transform="translate(0 49.196)">
          <g id="Group_3" data-name="Group 3">
            <path id="Path_2" data-name="Path 2" d="M508.279,1080.721a1.6,1.6,0,0,1-1.034-1.366c-.155-2.081-.269-4.2-.339-6.3a1.544,1.544,0,0,1,1.536-1.587c2.125-.048,1.55,2.073,1.97,7.7a1.541,1.541,0,0,1-1.467,1.649A1.617,1.617,0,0,1,508.279,1080.721Z" transform="translate(-506.906 -915.389)" fill="#55e2fa"/>
            <path id="Path_3" data-name="Path 3" d="M508.608,786.477c.389-3.991.945-8.015,1.651-11.96a1.559,1.559,0,0,1,1.839-1.24c2.352.456.818,1.781-.329,13.544a1.553,1.553,0,0,1-1.732,1.379A1.6,1.6,0,0,1,508.608,786.477Zm6.333-30.985c1.211-3.84,2.6-7.7,4.074-11.35a1.592,1.592,0,0,1,2.952,1.191c-1.47,3.635-2.807,7.364-3.991,11.123a1.593,1.593,0,0,1-3.035-.964ZM527.518,726.5c1.969-3.486,4.106-6.937,6.351-10.26a1.591,1.591,0,0,1,2.654,1.755c-2.2,3.255-4.294,6.637-6.223,10.051A1.592,1.592,0,0,1,527.518,726.5Zm18.555-23.57a1.545,1.545,0,0,1-.169-2.2c2.661-3.005,5.481-5.945,8.38-8.736,1.491-1.434,3.729.812,2.24,2.247-2.841,2.735-5.6,5.614-8.212,8.559A1.6,1.6,0,0,1,546.073,702.928Zm22.958-21.471a1.536,1.536,0,0,1,.29-2.185c3.239-2.4,6.616-4.706,10.035-6.848,1.761-1.1,3.495,1.537,1.735,2.641-3.351,2.1-6.66,4.356-9.834,6.71A1.615,1.615,0,0,1,569.031,681.457Zm27.857-15.578a1.606,1.606,0,0,1-.878-.8,1.532,1.532,0,0,1,.735-2.075c3.679-1.7,7.468-3.277,11.265-4.687a1.618,1.618,0,0,1,2.059.913,1.533,1.533,0,0,1-.9,2.01c-3.72,1.381-7.434,2.927-11.039,4.594A1.608,1.608,0,0,1,596.888,665.879Zm29.977-10.31a1.6,1.6,0,0,1-.991-1.1,1.535,1.535,0,0,1,1.15-1.879c3.957-.925,8-1.708,12.03-2.325a1.61,1.61,0,0,1,1.833,1.3,1.537,1.537,0,0,1-1.3,1.782c-3.943.605-7.909,1.372-11.786,2.279A1.611,1.611,0,0,1,626.865,655.568Zm30.54-5.477a1.544,1.544,0,0,1,1.52-1.6c4.076-.107,8.215-.056,12.3.152a1.56,1.56,0,1,1-.117,3.117c-4-.2-8.057-.253-12.051-.149A1.606,1.606,0,0,1,657.405,650.091ZM759.137,684c-9.511-7.263-11.65-7.146-10.345-9.115a1.594,1.594,0,0,1,2.195-.434c3.434,2.224,6.823,4.612,10.075,7.1A1.559,1.559,0,1,1,759.137,684Zm-69.856-31.834a1.558,1.558,0,0,1,1.826-1.257c4.024.715,8.077,1.594,12.046,2.615a1.557,1.557,0,1,1-.76,3.019c-3.889-1-7.862-1.862-11.8-2.563A1.59,1.59,0,0,1,689.281,652.167Zm42.881,15.259c-10.764-5.2-12.86-4.668-11.993-6.872a1.618,1.618,0,0,1,2.052-.867c3.823,1.5,7.628,3.163,11.307,4.94a1.557,1.557,0,1,1-1.366,2.8Z" transform="translate(-507.976 -648.435)" fill="#55e2fa"/>
            <path id="Path_4" data-name="Path 4" d="M1231.453,779.754c-3.647-3.9-5.91-5.215-4.393-6.7a1.6,1.6,0,0,1,2.245.021c3.933,3.876,5.906,5.422,4.392,6.789A1.81,1.81,0,0,1,1231.453,779.754Z" transform="translate(-961.057 -726.792)" fill="#55e2fa"/>
          </g>
          <g id="Group_4" data-name="Group 4" transform="translate(37.189 157.477)">
            <path id="Path_5" data-name="Path 5" d="M1353.13,1084.51a1.589,1.589,0,0,1-1.035-1.562c.11-2.051.179-4.127.2-6.171a1.548,1.548,0,0,1,1.607-1.518,1.606,1.606,0,0,1,1.569,1.6c-.026,2.086-.1,4.2-.208,6.3a1.551,1.551,0,0,1-1.669,1.452A1.619,1.619,0,0,1,1353.13,1084.51Z" transform="translate(-1077.45 -1075.258)" fill="#55e2fa"/>
            <path id="Path_6" data-name="Path 6" d="M703.039,1261.733c-4.086-1.671-8.149-3.531-12.076-5.53a1.565,1.565,0,0,1-.706-2.106c1.111-2.153,2.011-.134,13.964,4.757a1.572,1.572,0,0,1,.883,2.043A1.617,1.617,0,0,1,703.039,1261.733Zm19.308,4.924c.6-2.342,1.991-.553,14.63,1.682a1.588,1.588,0,0,1,1.309,1.813,1.559,1.559,0,0,1-1.824,1.26c-4.325-.765-8.686-1.721-12.962-2.843A1.584,1.584,0,0,1,722.347,1266.657Zm-49.9-21.5c-3.618-2.5-7.179-5.193-10.582-7.991a1.548,1.548,0,0,1-.219-2.2c1.57-1.855,1.993.305,12.6,7.647a1.555,1.555,0,0,1,.407,2.177A1.6,1.6,0,0,1,672.444,1245.157Zm84.92,28.472a1.591,1.591,0,0,1-1.037-1.521,1.548,1.548,0,0,1,1.629-1.5c4.314.174,8.678.17,12.972-.014a1.605,1.605,0,0,1,1.679,1.491,1.543,1.543,0,0,1-1.492,1.628c-4.383.188-8.838.192-13.241.014A1.637,1.637,0,0,1,757.363,1273.629Zm34.212-2.353a1.6,1.6,0,0,1-1.009-1.177,1.537,1.537,0,0,1,1.249-1.816c4.222-.759,8.464-1.707,12.609-2.817a1.616,1.616,0,0,1,1.965,1.1,1.534,1.534,0,0,1-1.087,1.915c-4.23,1.133-8.559,2.1-12.869,2.875A1.615,1.615,0,0,1,791.575,1271.276Zm32.748-9.684a1.606,1.606,0,0,1-.9-.847,1.532,1.532,0,0,1,.811-2.047c3.94-1.652,7.857-3.49,11.641-5.464a1.62,1.62,0,0,1,2.155.655,1.532,1.532,0,0,1-.633,2.108c-3.861,2.014-7.858,3.889-11.879,5.576A1.61,1.61,0,0,1,824.323,1261.592Zm29.716-16.5a1.611,1.611,0,0,1-.727-.548,1.535,1.535,0,0,1,.336-2.178c3.469-2.461,6.871-5.1,10.115-7.842a1.61,1.61,0,0,1,2.24.179,1.537,1.537,0,0,1-.148,2.2c-3.31,2.8-6.782,5.493-10.323,8A1.6,1.6,0,0,1,854.039,1245.089Zm24.758-22.828c-1.863-1.617.33-1.94,7.926-12.065a1.59,1.59,0,0,1,2.566,1.877c-2.591,3.454-5.367,6.841-8.252,10.065A1.6,1.6,0,0,1,878.8,1222.261Zm19.8-27.324c-2.175-1.178-.125-1.955,5-13.52a1.593,1.593,0,0,1,2.916,1.281c-1.748,3.947-3.686,7.86-5.762,11.633A1.587,1.587,0,0,1,898.6,1194.938Zm13.008-31.049a1.578,1.578,0,0,1-.978-1.9c1.167-4.081,2.169-8.244,2.978-12.373a1.562,1.562,0,0,1,1.859-1.211,1.59,1.59,0,0,1,1.26,1.846c-.826,4.214-1.848,8.461-3.039,12.624a1.567,1.567,0,0,1-1.957,1.053C911.685,1163.918,911.643,1163.9,911.6,1163.889Z" transform="translate(-641.514 -1121.397)" fill="#55e2fa"/>
            <path id="Path_7" data-name="Path 7" d="M612.333,1336.227c-3.756-4.055-5.649-5.683-4.071-6.978,1.641-1.348,2.561.742,6.4,4.9a1.539,1.539,0,0,1-.09,2.2A1.611,1.611,0,0,1,612.333,1336.227Z" transform="translate(-607.703 -1235.282)" fill="#55e2fa"/>
          </g>
          <g id="Group_6" data-name="Group 6" transform="translate(39.453 37.71)">
            <path id="Path_8" data-name="Path 8" d="M633.568,931.9l22.569-2.795a101.017,101.017,0,0,0,24.474,20.881c.88,21.761-.6,23.35,1.726,24.125l26.01,8.665a1.872,1.872,0,0,0,2.073-.614l13.7-17.683a100.636,100.636,0,0,0,32.064-2.047L772.6,978.214a1.909,1.909,0,0,0,2.15.345L799.1,966.7a1.8,1.8,0,0,0,1-1.881l-3.184-22.229a95.935,95.935,0,0,0,20.875-23.744l22.773-.085a1.834,1.834,0,0,0,1.746-1.247l8.422-25.439a1.843,1.843,0,0,0-.656-2.047l-18.2-13.733a96.28,96.28,0,0,0-2.567-31.553c15.109-15.856,17.233-15.869,16.128-18.011-12.613-23.439-11.894-25.434-14.365-25.129L808.5,804.4a101.016,101.016,0,0,0-24.473-20.881c-.88-21.748.6-23.349-1.726-24.125-25.989-8.165-26.61-9.953-28.083-8.051l-13.7,17.683a100.626,100.626,0,0,0-32.064,2.046c-16.161-14.909-16.373-17.2-18.568-16.127-23.885,12.161-25.693,11.341-25.349,13.742l3.184,22.229a95.925,95.925,0,0,0-20.875,23.744c-21.738.527-23.752-.991-24.519,1.332-7.88,25.315-9.735,26-7.767,27.486l18.2,13.734a96.327,96.327,0,0,0,2.567,31.552c-15.058,15.8-17.237,15.858-16.128,18.011C631.815,930.208,631.1,932.2,633.568,931.9Z" transform="translate(-613.84 -750.644)" fill="#55e2fa"/>
            <g id="Group_5" data-name="Group 5" transform="translate(91.822 89.901)">
              <path id="Path_9" data-name="Path 9" d="M862.772,1018.394a26.069,26.069,0,0,1,28.355-24c14.665,1.174,25.812,13.837,24.845,28.238a26.07,26.07,0,0,1-28.355,24h0C872.946,1045.464,861.8,1032.792,862.772,1018.394Zm25,25.905.014.005Zm3.039-45.234a21.384,21.384,0,0,0-23.287,19.708,22.062,22.062,0,0,0,20.4,23.192,21.41,21.41,0,0,0,23.287-19.709A22.064,22.064,0,0,0,890.813,999.065Z" transform="translate(-862.713 -994.311)" fill="#fff"/>
            </g>
            <path id="Path_10" data-name="Path 10" d="M795.687,1012.519h0a70.43,70.43,0,0,1-10.651-5.075,2.352,2.352,0,0,1-1.042-2.848,2.313,2.313,0,0,1,.176-.364,2.387,2.387,0,0,1,3.256-.8,65.923,65.923,0,0,0,12.371,5.6h0c32.526,10.835,67.493-5.536,79.229-36.6q.45-1.19.853-2.409c10.866-32.823-7.6-68.215-40.905-79.319-33.255-11.078-69.228,6.281-80.082,39.014-6.45,19.487-.813,32.563-1.57,34.569a2.4,2.4,0,0,1-4.557-.349,65.872,65.872,0,0,1,2.512-38.319c20.555-54.416,97.992-57.73,124.977-5.4a65.922,65.922,0,0,1,4.156,51.316q-.436,1.319-.923,2.611a65.7,65.7,0,0,1-33.01,36.015,68.773,68.773,0,0,1-52.148,3.31Q797,1013.015,795.687,1012.519Z" transform="translate(-700.411 -834.048)" fill="#fff"/>
          </g>
        </g>
        <g id="Group_12" data-name="Group 12" transform="translate(266.868)">
          <g id="Group_8" data-name="Group 8">
            <path id="Path_11" data-name="Path 11" d="M1231.054,777.345a.967.967,0,0,1-.627-.829c-.094-1.263-.164-2.549-.206-3.822a.937.937,0,0,1,.932-.963c1.289-.029.941,1.257,1.2,4.675a.935.935,0,0,1-.89,1A.983.983,0,0,1,1231.054,777.345Z" transform="translate(-1230.221 -677.045)" fill="#55e2fa"/>
            <path id="Path_12" data-name="Path 12" d="M1231.253,598.839c.236-2.421.573-4.863,1-7.256a.946.946,0,0,1,1.116-.752c1.427.277.5,1.081-.2,8.217a.941.941,0,0,1-1.05.836A.967.967,0,0,1,1231.253,598.839Zm3.842-18.8c.735-2.33,1.575-4.674,2.472-6.885a.966.966,0,0,1,1.791.723c-.892,2.205-1.7,4.467-2.421,6.748a.966.966,0,0,1-1.842-.585Zm7.63-17.589c1.195-2.115,2.491-4.209,3.853-6.224a.965.965,0,0,1,1.61,1.064c-1.335,1.975-2.6,4.027-3.775,6.1A.966.966,0,0,1,1242.725,562.452Zm11.257-14.3a.938.938,0,0,1-.1-1.337c1.614-1.823,3.325-3.606,5.084-5.3.9-.87,2.262.493,1.359,1.363-1.723,1.659-3.4,3.406-4.982,5.192A.972.972,0,0,1,1253.982,548.153Zm13.928-13.026a.932.932,0,0,1,.176-1.325c1.965-1.457,4.013-2.855,6.088-4.155a.959.959,0,0,1,1.053,1.6c-2.033,1.273-4.04,2.643-5.966,4.071A.98.98,0,0,1,1267.91,535.127Zm16.9-9.451a.972.972,0,0,1-.532-.483.929.929,0,0,1,.446-1.259c2.231-1.032,4.531-1.988,6.834-2.844a.982.982,0,0,1,1.249.554.93.93,0,0,1-.545,1.219c-2.257.838-4.51,1.776-6.7,2.787A.976.976,0,0,1,1284.809,525.677ZM1303,519.422a.972.972,0,0,1-.6-.665.932.932,0,0,1,.7-1.14c2.4-.561,4.856-1.036,7.3-1.411a.977.977,0,0,1,1.112.79.932.932,0,0,1-.787,1.081c-2.392.367-4.8.832-7.15,1.382A.978.978,0,0,1,1303,519.422Zm18.527-3.323a.937.937,0,0,1,.922-.972c2.473-.065,4.983-.034,7.462.092a.946.946,0,1,1-.071,1.891c-2.428-.124-4.888-.154-7.311-.09A.974.974,0,0,1,1321.523,516.1Zm61.717,20.572c-5.77-4.407-7.068-4.335-6.276-5.53a.967.967,0,0,1,1.331-.263c2.083,1.349,4.139,2.8,6.112,4.3A.946.946,0,1,1,1383.24,536.671Zm-42.379-19.313a.945.945,0,0,1,1.108-.763c2.441.434,4.9.967,7.308,1.586a.945.945,0,1,1-.461,1.832c-2.36-.607-4.769-1.13-7.162-1.555A.965.965,0,0,1,1340.861,517.358Zm26.014,9.257c-6.53-3.156-7.8-2.832-7.276-4.169a.982.982,0,0,1,1.245-.526c2.319.91,4.627,1.919,6.859,3a.945.945,0,1,1-.829,1.7Z" transform="translate(-1230.87 -515.094)" fill="#55e2fa"/>
            <path id="Path_13" data-name="Path 13" d="M1669.776,594.76c-2.212-2.363-3.585-3.164-2.665-4.065a.973.973,0,0,1,1.362.013c2.386,2.352,3.583,3.29,2.665,4.119A1.1,1.1,0,0,1,1669.776,594.76Z" transform="translate(-1505.737 -562.63)" fill="#55e2fa"/>
          </g>
          <g id="Group_9" data-name="Group 9" transform="translate(22.561 95.535)">
            <path id="Path_14" data-name="Path 14" d="M1743.592,779.645a.964.964,0,0,1-.628-.948c.067-1.244.109-2.5.124-3.743a.939.939,0,0,1,.975-.921.973.973,0,0,1,.952.973c-.016,1.266-.058,2.551-.126,3.82a.941.941,0,0,1-1.013.881A.974.974,0,0,1,1743.592,779.645Z" transform="translate(-1576.348 -774.032)" fill="#55e2fa"/>
            <path id="Path_15" data-name="Path 15" d="M1349.207,887.159c-2.478-1.014-4.943-2.143-7.326-3.355a.949.949,0,0,1-.428-1.277c.674-1.306,1.22-.082,8.471,2.886a.953.953,0,0,1,.535,1.239A.981.981,0,0,1,1349.207,887.159Zm11.714,2.987c.365-1.421,1.208-.335,8.875,1.02a.963.963,0,0,1,.794,1.1.945.945,0,0,1-1.107.764c-2.624-.463-5.27-1.044-7.863-1.724A.961.961,0,0,1,1360.921,890.146ZM1330.646,877.1c-2.2-1.519-4.356-3.151-6.42-4.848a.939.939,0,0,1-.132-1.335c.952-1.125,1.209.185,7.645,4.639a.943.943,0,0,1,.247,1.321A.969.969,0,0,1,1330.646,877.1Zm51.517,17.273a.965.965,0,0,1-.629-.923.939.939,0,0,1,.988-.907c2.617.106,5.265.1,7.869-.008a.973.973,0,0,1,1.018.9.935.935,0,0,1-.9.987c-2.659.114-5.362.117-8.033.009A1,1,0,0,1,1382.164,894.376Zm20.755-1.428a.972.972,0,0,1-.612-.714.933.933,0,0,1,.758-1.1c2.561-.461,5.135-1.036,7.649-1.709a.981.981,0,0,1,1.192.666.931.931,0,0,1-.66,1.162c-2.566.687-5.192,1.274-7.807,1.744A.976.976,0,0,1,1402.919,892.948Zm19.867-5.874a.976.976,0,0,1-.548-.514.929.929,0,0,1,.492-1.241c2.391-1,4.767-2.117,7.062-3.315a.983.983,0,0,1,1.307.4.93.93,0,0,1-.385,1.279c-2.343,1.222-4.767,2.359-7.207,3.383A.978.978,0,0,1,1422.786,887.073Zm18.027-10.012a.982.982,0,0,1-.441-.333.931.931,0,0,1,.2-1.321c2.1-1.493,4.168-3.094,6.136-4.758a.976.976,0,0,1,1.359.109.932.932,0,0,1-.09,1.334c-2.008,1.7-4.115,3.332-6.262,4.856A.973.973,0,0,1,1440.813,877.061Zm15.02-13.849c-1.13-.981.2-1.177,4.808-7.319a.965.965,0,0,1,1.557,1.139c-1.572,2.1-3.256,4.15-5.006,6.106A.973.973,0,0,1,1455.833,863.213Zm12.011-16.576c-1.319-.715-.076-1.186,3.031-8.2a.966.966,0,0,1,1.768.777c-1.06,2.394-2.236,4.768-3.5,7.057A.962.962,0,0,1,1467.844,846.636Zm7.891-18.836a.958.958,0,0,1-.593-1.152c.708-2.476,1.316-5,1.807-7.506a.948.948,0,0,1,1.128-.735.965.965,0,0,1,.764,1.12c-.5,2.557-1.121,5.133-1.844,7.659a.95.95,0,0,1-1.187.639C1475.784,827.818,1475.759,827.809,1475.735,827.8Z" transform="translate(-1311.883 -802.022)" fill="#55e2fa"/>
            <path id="Path_16" data-name="Path 16" d="M1294.179,932.351c-2.278-2.46-3.427-3.447-2.469-4.233,1-.818,1.553.45,3.885,2.97a.934.934,0,0,1-.055,1.337A.977.977,0,0,1,1294.179,932.351Z" transform="translate(-1291.371 -871.112)" fill="#55e2fa"/>
          </g>
          <g id="Group_11" data-name="Group 11" transform="translate(23.935 22.877)">
            <path id="Path_17" data-name="Path 17" d="M1307.062,687.061l13.691-1.7a61.277,61.277,0,0,0,14.847,12.667c.534,13.2-.364,14.166,1.047,14.636l15.779,5.256a1.135,1.135,0,0,0,1.257-.372l8.31-10.728a61.056,61.056,0,0,0,19.452-1.241l9.96,9.575a1.159,1.159,0,0,0,1.3.21l14.77-7.2a1.093,1.093,0,0,0,.608-1.141l-1.932-13.486a58.2,58.2,0,0,0,12.664-14.4l13.816-.051a1.113,1.113,0,0,0,1.059-.756l5.109-15.433a1.117,1.117,0,0,0-.4-1.242l-11.04-8.332a58.421,58.421,0,0,0-1.557-19.142c9.166-9.619,10.454-9.627,9.784-10.927-7.652-14.219-7.216-15.429-8.715-15.244l-13.691,1.7a61.277,61.277,0,0,0-14.847-12.668c-.534-13.194.365-14.165-1.047-14.636-15.767-4.953-16.143-6.038-17.037-4.884l-8.31,10.728a61.036,61.036,0,0,0-19.452,1.241c-9.8-9.045-9.933-10.433-11.265-9.784-14.49,7.378-15.587,6.88-15.378,8.337l1.932,13.485a58.188,58.188,0,0,0-12.663,14.4c-13.188.319-14.409-.6-14.875.808-4.78,15.357-5.906,15.773-4.712,16.674l11.04,8.332a58.429,58.429,0,0,0,1.557,19.142c-9.135,9.586-10.457,9.62-9.784,10.926C1306,686.035,1305.563,687.246,1307.062,687.061Z" transform="translate(-1295.094 -577.1)" fill="#55e2fa"/>
            <g id="Group_10" data-name="Group 10" transform="translate(55.705 54.54)">
              <path id="Path_18" data-name="Path 18" d="M1446.111,739.535a15.815,15.815,0,0,1,17.2-14.558,16.3,16.3,0,0,1,15.073,17.131,15.816,15.816,0,0,1-17.2,14.559h0A16.3,16.3,0,0,1,1446.111,739.535Zm15.167,15.715.009,0Zm1.844-27.442A12.972,12.972,0,0,0,1449,739.764a13.383,13.383,0,0,0,12.378,14.07,12.989,12.989,0,0,0,14.128-11.956A13.385,13.385,0,0,0,1463.122,727.808Z" transform="translate(-1446.076 -724.924)" fill="#fff"/>
            </g>
            <path id="Path_19" data-name="Path 19" d="M1405.413,735.971h0a42.766,42.766,0,0,1-6.462-3.079,1.4,1.4,0,0,1-.525-1.949,1.447,1.447,0,0,1,1.975-.487,40,40,0,0,0,7.505,3.4h0c19.732,6.573,40.946-3.359,48.065-22.207q.273-.722.518-1.461c6.592-19.913-4.613-41.383-24.816-48.119-20.174-6.721-42,3.81-48.583,23.668-3.913,11.822-.493,19.755-.953,20.972a1.456,1.456,0,0,1-2.764-.213,39.957,39.957,0,0,1,1.524-23.246c12.47-33.012,59.448-35.023,75.819-3.277a39.994,39.994,0,0,1,2.521,31.131q-.265.8-.561,1.584a39.854,39.854,0,0,1-20.026,21.849,41.719,41.719,0,0,1-31.636,2.008Q1406.209,736.272,1405.413,735.971Z" transform="translate(-1347.613 -627.699)" fill="#fff"/>
          </g>
        </g>
      </g>
      <g id="Group_20" data-name="Group 20" transform="translate(0.534 87.785)">
        <g id="Group_14" data-name="Group 14" transform="translate(202.39 572.99)">
          <path id="Path_20" data-name="Path 20" d="M1180.136,2245.957h-142.68c-10,0-19.232,7.288-19.232,12.343v309.727c0,5.055,9.233,10.031,19.232,10.031h142.68c10,0,21.574-4.976,21.574-10.031V2258.3C1201.709,2253.245,1190.136,2245.957,1180.136,2245.957Z" transform="translate(-1018.223 -2245.957)" fill="#55e2fa"/>
        </g>
        <g id="Group_15" data-name="Group 15" transform="translate(0 681.242)">
          <path id="Path_21" data-name="Path 21" d="M648.678,2544.682c0-2.616-9.016-5.319-19.016-5.319H488.6c-10,0-18.931,2.7-18.931,5.319v213.445c0,2.615,8.931,5.085,18.931,5.085H629.662c10,0,19.016-2.469,19.016-5.085Z" transform="translate(-469.667 -2539.363)" fill="#55e2fa"/>
        </g>
        <g id="Group_16" data-name="Group 16" transform="translate(809.377 168.497)">
          <path id="Path_22" data-name="Path 22" d="M2844.642,1160.9c0-6.426-10.755-11.273-20.755-11.273h-142.8c-10,0-17.691,4.848-17.691,11.273v711.788c0,6.425,7.691,13.532,17.691,13.532h142.8c10,0,20.755-7.107,20.755-13.532Z" transform="translate(-2663.393 -1149.625)" fill="#55e2fa"/>
        </g>
        <g id="Group_17" data-name="Group 17" transform="translate(409.633 436.974)">
          <path id="Path_23" data-name="Path 23" d="M1756.7,1886.411c0-4.733-8.624-9.11-18.624-9.11H1597.017c-10,0-17.086,4.377-17.086,9.11v449.912c0,4.733,7.086,9.1,17.086,9.1H1738.08c10,0,18.624-4.362,18.624-9.1Z" transform="translate(-1579.931 -1877.3)" fill="#55e2fa"/>
        </g>
        <g id="Group_18" data-name="Group 18" transform="translate(610.475 298.237)">
          <path id="Path_24" data-name="Path 24" d="M2301.066,1510.114c0-5.312-7.92-8.844-17.92-8.844H2142.082c-10,0-17.79,3.533-17.79,8.844v588.842c0,5.312,7.79,9.168,17.79,9.168h141.064c10,0,17.92-3.857,17.92-9.168Z" transform="translate(-2124.292 -1501.269)" fill="#55e2fa"/>
        </g>
        <g id="Group_19" data-name="Group 19" transform="translate(774.052)">
          <path id="Path_25" data-name="Path 25" d="M2569.208,864.7l114.185-168.078a8.2,8.2,0,0,1,13.628-.1L2814.74,864.6c4.05,5.783.089,13.913-6.778,13.913h-231.9C2569.245,878.513,2565.27,870.5,2569.208,864.7Z" transform="translate(-2567.648 -692.932)" fill="#55e2fa"/>
        </g>
      </g>
      <g id="Group_23" data-name="Group 23" transform="translate(748.691 481.871)">
        <g id="Group_22" data-name="Group 22">
          <circle id="Ellipse_1" data-name="Ellipse 1" cx="113.136" cy="113.136" r="113.136" transform="translate(0 159.998) rotate(-45)" fill="#bf770c"/>
          <circle id="Ellipse_2" data-name="Ellipse 2" cx="109.374" cy="109.374" r="109.374" transform="translate(5.32 159.998) rotate(-45)" fill="#f89f1b"/>
          <path id="Path_26" data-name="Path 26" d="M2682.383,1974.811a2.509,2.509,0,0,1-2.237-3.64,103.038,103.038,0,0,1,92.427-56.909,104.339,104.339,0,0,1,18.665,1.68,2.509,2.509,0,0,1-.9,4.937,99.3,99.3,0,0,0-17.765-1.6,98.047,98.047,0,0,0-87.948,54.152A2.508,2.508,0,0,1,2682.383,1974.811Z" transform="translate(-2612.575 -1857.737)" fill="#fff"/>
          <circle id="Ellipse_3" data-name="Ellipse 3" cx="92.571" cy="92.571" r="92.571" transform="translate(31.466 162.381) rotate(-45)" fill="#fff" opacity="0.78"/>
          <g id="Group_21" data-name="Group 21" transform="translate(121.609 96.866)">
            <path id="Path_27" data-name="Path 27" d="M2858.759,2157.937v-10.071a82.136,82.136,0,0,1-28.259-6.127,5.826,5.826,0,0,1-3.22-6.882l2.559-9.381a5.872,5.872,0,0,1,7.971-3.843,68.183,68.183,0,0,0,26.091,5.494c10.113,0,17.654-3.429,17.654-10.456,0-6.342-5.827-10.112-19.882-13.883-20.053-5.484-34.451-14.227-34.451-31.88,0-15.941,11.656-28.11,31.88-31.366V2029.47a5.868,5.868,0,0,1,5.868-5.868h5.917a5.868,5.868,0,0,1,5.868,5.868v9.043a74.881,74.881,0,0,1,22.4,4.022,5.839,5.839,0,0,1,3.649,7.049l-2.353,8.676a5.852,5.852,0,0,1-7.726,3.952,61.1,61.1,0,0,0-21.969-3.988c-12,0-15.426,4.97-15.426,9.427,0,5.485,7.2,9.255,22.8,14.055,22.282,6.684,31.537,15.939,31.537,32.565,0,15.254-11.312,28.966-33.25,32.395v11.271a5.868,5.868,0,0,1-5.869,5.868h-5.917A5.868,5.868,0,0,1,2858.759,2157.937Z" transform="translate(-2827.071 -2023.602)" fill="#f89f1b"/>
          </g>
        </g>
        <rect id="Rectangle_2" data-name="Rectangle 2" width="221.683" height="42.225" rx="3.634" transform="translate(49.157 304.936)" fill="#f89f1b"/>
        <rect id="Rectangle_3" data-name="Rectangle 3" width="221.683" height="42.225" rx="3.634" transform="translate(49.331 352.612)" fill="#f89f1b"/>
        <rect id="Rectangle_4" data-name="Rectangle 4" width="221.683" height="42.225" rx="3.634" transform="translate(49.505 400.287)" fill="#f89f1b"/>
        <rect id="Rectangle_5" data-name="Rectangle 5" width="221.683" height="42.225" rx="3.634" transform="translate(49.679 446.728)" fill="#f89f1b"/>
        <rect id="Rectangle_6" data-name="Rectangle 6" width="221.683" height="42.225" rx="3.634" transform="translate(49.853 493.169)" fill="#f89f1b"/>
      </g>
      <g id="Group_26" data-name="Group 26" transform="translate(508.534 532.014)">
        <g id="Group_25" data-name="Group 25">
          <circle id="Ellipse_4" data-name="Ellipse 4" cx="113.136" cy="113.136" r="113.136" transform="translate(0 159.998) rotate(-45)" fill="#bf770c"/>
          <circle id="Ellipse_5" data-name="Ellipse 5" cx="109.374" cy="109.374" r="109.374" transform="translate(5.32 159.998) rotate(-45)" fill="#f89f1b"/>
          <path id="Path_28" data-name="Path 28" d="M2031.464,2110.717a2.509,2.509,0,0,1-2.237-3.64,103.037,103.037,0,0,1,92.427-56.907,104.4,104.4,0,0,1,18.665,1.678,2.509,2.509,0,0,1-.9,4.938,99.321,99.321,0,0,0-17.766-1.6,98.047,98.047,0,0,0-87.948,54.151A2.506,2.506,0,0,1,2031.464,2110.717Z" transform="translate(-1961.656 -1993.645)" fill="#fff"/>
          <circle id="Ellipse_6" data-name="Ellipse 6" cx="92.571" cy="92.571" r="92.571" transform="translate(31.466 162.381) rotate(-45)" fill="#fff" opacity="0.78"/>
          <g id="Group_24" data-name="Group 24" transform="translate(121.609 96.866)">
            <path id="Path_29" data-name="Path 29" d="M2207.841,2293.843v-10.071a82.137,82.137,0,0,1-28.259-6.127,5.826,5.826,0,0,1-3.22-6.882l2.559-9.381a5.873,5.873,0,0,1,7.971-3.843,68.187,68.187,0,0,0,26.091,5.494c10.113,0,17.654-3.428,17.654-10.456,0-6.341-5.827-10.112-19.882-13.882-20.053-5.485-34.451-14.226-34.451-31.88,0-15.941,11.656-28.11,31.88-31.366v-10.073a5.868,5.868,0,0,1,5.868-5.868h5.917a5.868,5.868,0,0,1,5.868,5.868v9.043a74.883,74.883,0,0,1,22.4,4.022,5.839,5.839,0,0,1,3.649,7.049l-2.353,8.676a5.852,5.852,0,0,1-7.726,3.952,61.1,61.1,0,0,0-21.968-3.988c-12,0-15.426,4.97-15.426,9.427,0,5.485,7.2,9.255,22.8,14.055,22.282,6.684,31.537,15.939,31.537,32.565,0,15.254-11.312,28.966-33.25,32.395v11.271a5.868,5.868,0,0,1-5.869,5.868h-5.917A5.868,5.868,0,0,1,2207.841,2293.843Z" transform="translate(-2176.153 -2159.508)" fill="#f89f1b"/>
          </g>
        </g>
        <rect id="Rectangle_7" data-name="Rectangle 7" width="221.683" height="42.225" rx="3.634" transform="translate(49.157 300.001)" fill="#f89f1b"/>
        <rect id="Rectangle_8" data-name="Rectangle 8" width="221.683" height="42.225" rx="3.634" transform="translate(49.331 347.677)" fill="#f89f1b"/>
        <rect id="Rectangle_9" data-name="Rectangle 9" width="221.683" height="42.225" rx="3.634" transform="translate(49.505 395.352)" fill="#f89f1b"/>
        <rect id="Rectangle_10" data-name="Rectangle 10" width="221.683" height="42.225" rx="3.634" transform="translate(49.679 443.027)" fill="#f89f1b"/>
      </g>
      <g id="Group_27" data-name="Group 27" transform="translate(80.799 264.475)">
        <path id="Path_30" data-name="Path 30" d="M854.226,2920.674a1.847,1.847,0,0,1-1.411-.651q-1.61-1.893-3.187-3.808a1.85,1.85,0,1,1,2.858-2.351q1.556,1.89,3.148,3.76a1.851,1.851,0,0,1-1.409,3.05Z" transform="translate(-789.441 -2270.713)" fill="#f89f1b"/>
        <path id="Path_31" data-name="Path 31" d="M742.733,1810.332a1.844,1.844,0,0,1-1.468-.723c-2-2.61-3.982-5.277-5.877-7.93a1.85,1.85,0,1,1,3.01-2.153c1.872,2.619,3.825,5.252,5.8,7.828a1.851,1.851,0,0,1-1.466,2.978Zm-11.4-15.955a1.848,1.848,0,0,1-1.543-.828c-1.811-2.729-3.6-5.528-5.312-8.321a1.851,1.851,0,1,1,3.154-1.936c1.692,2.755,3.456,5.518,5.242,8.211a1.851,1.851,0,0,1-1.541,2.873Zm-10.254-16.716a1.85,1.85,0,0,1-1.613-.941c-1.622-2.874-3.2-5.8-4.7-8.687a1.851,1.851,0,0,1,3.289-1.7c1.472,2.85,3.03,5.732,4.631,8.567a1.851,1.851,0,0,1-1.611,2.761Zm-9-17.422a1.849,1.849,0,0,1-1.676-1.064c-1.4-2.977-2.754-6.011-4.029-9.018a1.85,1.85,0,0,1,3.407-1.444c1.257,2.964,2.593,5.955,3.971,8.889a1.851,1.851,0,0,1-1.673,2.638Zm-7.649-18.054a1.853,1.853,0,0,1-1.731-1.2c-1.166-3.084-2.279-6.215-3.311-9.308a1.851,1.851,0,0,1,3.511-1.171c1.016,3.047,2.113,6.132,3.263,9.17a1.853,1.853,0,0,1-1.731,2.506Zm-6.2-18.6a1.85,1.85,0,0,1-1.777-1.338c-.909-3.149-1.765-6.362-2.546-9.547a1.851,1.851,0,0,1,3.6-.881c.767,3.137,1.612,6.3,2.507,9.4a1.851,1.851,0,0,1-1.779,2.364Zm-4.659-19.043a1.852,1.852,0,0,1-1.812-1.487c-.649-3.232-1.234-6.5-1.738-9.729a1.851,1.851,0,0,1,3.657-.573c.5,3.172,1.072,6.393,1.711,9.573a1.851,1.851,0,0,1-1.451,2.179A1.873,1.873,0,0,1,693.563,1704.54Zm-3.035-19.367a1.849,1.849,0,0,1-1.836-1.645c-.359-3.205-.658-6.518-.887-9.844a1.85,1.85,0,1,1,3.692-.254c.227,3.274.519,6.533.872,9.686a1.85,1.85,0,0,1-1.633,2.045A1.9,1.9,0,0,1,690.528,1685.173Zm-1.354-19.559a1.85,1.85,0,0,1-1.848-1.8c-.072-2.5-.108-5.035-.108-7.544q0-1.162.01-2.328a1.9,1.9,0,0,1,1.865-1.836,1.851,1.851,0,0,1,1.836,1.865q-.009,1.152-.01,2.3c0,2.474.036,4.976.106,7.438a1.85,1.85,0,0,1-1.8,1.9Zm.165-19.61-.083,0a1.851,1.851,0,0,1-1.767-1.931c.144-3.263.348-6.578.606-9.853a1.85,1.85,0,1,1,3.689.29c-.253,3.232-.454,6.5-.6,9.726A1.85,1.85,0,0,1,689.338,1646Zm1.533-19.554a1.885,1.885,0,0,1-.208-.011,1.849,1.849,0,0,1-1.633-2.044c.36-3.231.782-6.524,1.253-9.787a1.85,1.85,0,1,1,3.663.527c-.464,3.225-.881,6.479-1.239,9.671A1.849,1.849,0,0,1,690.871,1626.451Zm2.8-19.413a1.885,1.885,0,0,1-.325-.029,1.852,1.852,0,0,1-1.5-2.145c.57-3.221,1.2-6.479,1.874-9.688a1.85,1.85,0,1,1,3.622.76c-.664,3.17-1.287,6.39-1.849,9.572A1.852,1.852,0,0,1,693.676,1607.038Zm4.02-19.182a1.855,1.855,0,0,1-1.8-2.288c.776-3.194,1.608-6.4,2.473-9.54a1.851,1.851,0,0,1,3.568.985c-.856,3.1-1.678,6.271-2.444,9.428A1.853,1.853,0,0,1,697.7,1587.856Zm5.217-18.889a1.852,1.852,0,0,1-1.767-2.4c.971-3.125,2.007-6.278,3.079-9.371a1.85,1.85,0,1,1,3.5,1.212c-1.059,3.056-2.082,6.17-3.041,9.257A1.853,1.853,0,0,1,702.913,1568.967Zm6.427-18.526a1.831,1.831,0,0,1-.664-.124,1.85,1.85,0,0,1-1.064-2.391c1.188-3.091,2.432-6.171,3.7-9.155a1.851,1.851,0,0,1,3.407,1.446c-1.249,2.945-2.478,5.985-3.651,9.037A1.852,1.852,0,0,1,709.34,1550.441ZM717,1532.38a1.852,1.852,0,0,1-1.676-2.633c1.39-2.982,2.849-5.969,4.336-8.879a1.851,1.851,0,0,1,3.3,1.684c-1.468,2.87-2.906,5.817-4.278,8.759A1.853,1.853,0,0,1,717,1532.38Zm162.9-9.452a33.816,33.816,0,0,1-5.312-.42,1.851,1.851,0,1,1,.583-3.655,30.714,30.714,0,0,0,9.21.049,1.85,1.85,0,1,1,.528,3.663A35.178,35.178,0,0,1,879.9,1522.928Zm14.149-3.022a1.851,1.851,0,0,1-.728-3.554,44.67,44.67,0,0,0,8.19-4.608,1.851,1.851,0,0,1,2.133,3.025,48.447,48.447,0,0,1-8.87,4.988A1.857,1.857,0,0,1,894.053,1519.906Zm-28.471-.351a1.851,1.851,0,0,1-.815-.19,41.462,41.462,0,0,1-8.531-5.654,1.851,1.851,0,1,1,2.4-2.82,37.737,37.737,0,0,0,7.765,5.151,1.851,1.851,0,0,1-.817,3.513Zm-139.642-4.647a1.851,1.851,0,0,1-1.613-2.755c1.611-2.876,3.293-5.746,5-8.532a1.85,1.85,0,1,1,3.154,1.935c-1.683,2.745-3.341,5.573-4.928,8.405A1.848,1.848,0,0,1,725.94,1514.908Zm184.108-6.138a1.851,1.851,0,0,1-1.313-3.154,62.492,62.492,0,0,0,6.159-7.253,1.85,1.85,0,1,1,2.993,2.177,66.233,66.233,0,0,1-6.525,7.683A1.844,1.844,0,0,1,910.048,1508.769Zm-59.416-1.655a1.85,1.85,0,0,1-1.441-.687c-1.182-1.463-2.348-3.042-3.466-4.691-.783-1.158-1.548-2.355-2.275-3.557a1.851,1.851,0,0,1,3.169-1.913c.693,1.148,1.423,2.29,2.171,3.4,1.059,1.563,2.162,3.057,3.281,4.44a1.851,1.851,0,0,1-1.439,3.014Zm-114.422-8.936a1.85,1.85,0,0,1-1.535-2.883c1.854-2.758,3.771-5.482,5.7-8.094a1.851,1.851,0,0,1,2.979,2.2c-1.9,2.569-3.781,5.248-5.605,7.962A1.849,1.849,0,0,1,736.21,1498.178Zm185.28-5.239a1.851,1.851,0,0,1-1.665-2.656,44.272,44.272,0,0,0,3.17-8.843,1.851,1.851,0,1,1,3.6.871,48.079,48.079,0,0,1-3.435,9.583A1.85,1.85,0,0,1,921.49,1492.939Zm-81.023-2.535a1.853,1.853,0,0,1-1.686-1.084,90.479,90.479,0,0,1-3.636-9.321,1.851,1.851,0,0,1,3.518-1.153,86.686,86.686,0,0,0,3.487,8.938,1.853,1.853,0,0,1-1.683,2.619Zm-92.6-8.02a1.851,1.851,0,0,1-1.436-3.016c2.083-2.572,4.243-5.11,6.418-7.543a1.85,1.85,0,1,1,2.759,2.466c-2.135,2.39-4.255,4.882-6.3,7.407A1.846,1.846,0,0,1,747.864,1482.384Zm178.195-8.362h-.039a1.85,1.85,0,0,1-1.813-1.887q.009-.436.01-.873a41.712,41.712,0,0,0-.86-8.459,1.851,1.851,0,0,1,3.624-.75,45.441,45.441,0,0,1,.937,9.21c0,.315,0,.631-.01.946A1.851,1.851,0,0,1,926.059,1474.022Zm-91.708-2.212a1.851,1.851,0,0,1-1.807-1.466,94.963,94.963,0,0,1-1.558-9.875,1.851,1.851,0,0,1,3.682-.383,91.176,91.176,0,0,0,1.5,9.488,1.852,1.852,0,0,1-1.812,2.236Zm-73.406-4.053a1.851,1.851,0,0,1-1.316-3.152c2.331-2.357,4.736-4.665,7.15-6.859a1.85,1.85,0,1,1,2.489,2.739c-2.364,2.15-4.721,4.413-7.007,6.723A1.843,1.843,0,0,1,760.945,1467.757ZM922.1,1454.99a1.849,1.849,0,0,1-1.678-1.069c-.563-1.205-1.193-2.4-1.874-3.543a49.986,49.986,0,0,0-3.007-4.495,1.851,1.851,0,1,1,2.961-2.221,54.244,54.244,0,0,1,3.229,4.826c.743,1.251,1.431,2.553,2.045,3.869a1.851,1.851,0,0,1-1.676,2.633Zm-146.637-.42a1.851,1.851,0,0,1-1.168-3.286c2.487-2.02,5.044-3.983,7.6-5.834l.257-.186a1.85,1.85,0,0,1,2.181,2.99l-.272.2c-2.5,1.807-5,3.728-7.432,5.7A1.845,1.845,0,0,1,775.459,1454.571Zm56.865-2.23h0a1.851,1.851,0,0,1-1.849-1.852,98.376,98.376,0,0,1,.519-9.976,1.851,1.851,0,0,1,3.682.38,94.8,94.8,0,0,0-.5,9.6A1.851,1.851,0,0,1,832.325,1452.341Zm-40.959-9.217a1.85,1.85,0,0,1-.989-3.415c2.807-1.774,5.686-3.465,8.554-5.028a1.851,1.851,0,1,1,1.771,3.25c-2.8,1.525-5.608,3.176-8.349,4.907A1.841,1.841,0,0,1,791.366,1443.124Zm119.083-3.757a1.845,1.845,0,0,1-1.255-.49,56.063,56.063,0,0,0-7.5-5.8,1.85,1.85,0,1,1,2.014-3.1,59.808,59.808,0,0,1,7.992,6.188,1.851,1.851,0,0,1-1.256,3.211Zm-101.874-5.616a1.851,1.851,0,0,1-.777-3.531c3.023-1.4,6.1-2.69,9.157-3.849a1.851,1.851,0,1,1,1.314,3.46c-2.972,1.128-5.974,2.389-8.918,3.749A1.836,1.836,0,0,1,808.575,1433.751Zm25.753-.883a1.892,1.892,0,0,1-.373-.038,1.852,1.852,0,0,1-1.442-2.185c.383-1.871.824-3.755,1.319-5.635-2.138.514-4.283,1.091-6.407,1.723a1.85,1.85,0,0,1-1.056-3.547c2.856-.85,5.751-1.6,8.619-2.244a1.851,1.851,0,0,1,3.528,1.119c-.943,3.09-1.744,6.229-2.377,9.327A1.852,1.852,0,0,1,834.328,1432.868ZM894.1,1428.7a1.852,1.852,0,0,1-.759-.164,70.52,70.52,0,0,0-8.953-3.309,1.851,1.851,0,0,1,1.05-3.549,74.278,74.278,0,0,1,9.423,3.484,1.851,1.851,0,0,1-.762,3.539Zm-18.732-5.6a1.863,1.863,0,0,1-.311-.026,89.321,89.321,0,0,0-9.54-1.078,1.851,1.851,0,0,1,.219-3.7,92.966,92.966,0,0,1,9.937,1.123,1.851,1.851,0,0,1-.306,3.675Zm-29.311-.378a1.851,1.851,0,0,1-.234-3.686c3.328-.428,6.669-.708,9.931-.833a1.851,1.851,0,0,1,.142,3.7c-3.153.12-6.383.392-9.6.806A1.885,1.885,0,0,1,846.054,1422.721Zm-6.022-8.584a1.851,1.851,0,0,1-1.713-2.548c1.234-3.032,2.625-6.079,4.139-9.057a1.85,1.85,0,1,1,3.3,1.676c-1.465,2.886-2.814,5.837-4.008,8.774A1.852,1.852,0,0,1,840.032,1414.136Zm8.848-17.475a1.851,1.851,0,0,1-1.579-2.814c1.69-2.773,3.531-5.562,5.471-8.29a1.851,1.851,0,0,1,3.017,2.145c-1.89,2.658-3.682,5.373-5.327,8.072A1.851,1.851,0,0,1,848.88,1396.662Zm11.4-15.918a1.85,1.85,0,0,1-1.4-3.054,93.325,93.325,0,0,1,6.884-7.224,1.851,1.851,0,1,1,2.538,2.694,89.535,89.535,0,0,0-6.611,6.937A1.85,1.85,0,0,1,860.276,1380.744Zm14.234-13.382a1.851,1.851,0,0,1-1.114-3.33,93.6,93.6,0,0,1,8.3-5.558,1.85,1.85,0,1,1,1.894,3.18,89.919,89.919,0,0,0-7.966,5.338A1.845,1.845,0,0,1,874.51,1367.361Zm16.782-10.039a1.851,1.851,0,0,1-.79-3.525c2.91-1.374,5.908-2.638,9.165-3.866a1.851,1.851,0,0,1,1.306,3.464c-3.164,1.192-6.072,2.418-8.893,3.749A1.837,1.837,0,0,1,891.292,1357.322Zm18.3-6.974a1.851,1.851,0,0,1-.547-3.619c2.819-.876,5.832-1.747,9.483-2.741a1.851,1.851,0,0,1,.973,3.572c-3.608.983-6.582,1.843-9.36,2.7A1.857,1.857,0,0,1,909.6,1350.348Zm18.9-5.242a1.851,1.851,0,0,1-.472-3.64c3.031-.8,6.268-1.672,9.4-2.6a1.851,1.851,0,0,1,1.046,3.55c-3.18.937-6.447,1.815-9.5,2.624A1.888,1.888,0,0,1,928.5,1345.107Zm18.763-5.686a1.851,1.851,0,0,1-.653-3.583,70.181,70.181,0,0,0,8.7-3.908,1.851,1.851,0,0,1,1.761,3.255,73.83,73.83,0,0,1-9.159,4.117A1.869,1.869,0,0,1,947.262,1339.421Zm17.028-9.475a1.851,1.851,0,0,1-1.2-3.263,36.47,36.47,0,0,0,6.282-6.83,1.85,1.85,0,1,1,3.019,2.14,40.668,40.668,0,0,1-6.909,7.514A1.845,1.845,0,0,1,964.29,1329.946Zm11.229-15.745a1.852,1.852,0,0,1-1.71-2.557c1.176-2.853,2.314-5.821,3.478-9.073a1.851,1.851,0,1,1,3.484,1.248c-1.184,3.307-2.342,6.328-3.541,9.236A1.851,1.851,0,0,1,975.519,1314.2Zm6.653-18.442a1.853,1.853,0,0,1-1.761-2.419c1-3.1,1.96-6.216,2.907-9.333a1.851,1.851,0,0,1,3.542,1.077c-.954,3.135-1.92,6.269-2.927,9.39A1.852,1.852,0,0,1,982.172,1295.758Zm5.755-18.749a1.852,1.852,0,0,1-1.772-2.389c.951-3.138,1.916-6.272,2.915-9.392a1.851,1.851,0,0,1,3.525,1.13c-1,3.1-1.952,6.217-2.9,9.337A1.852,1.852,0,0,1,987.927,1277.009Zm6.028-18.657a1.851,1.851,0,0,1-1.743-2.471c1.176-3.312,2.326-6.335,3.514-9.241a1.851,1.851,0,0,1,3.426,1.4c-1.167,2.852-2.3,5.822-3.454,9.078A1.85,1.85,0,0,1,993.955,1258.352Zm7.46-18.11a1.852,1.852,0,0,1-1.665-2.657c1.476-3.052,3.041-6.008,4.653-8.784a1.85,1.85,0,1,1,3.2,1.858c-1.564,2.7-3.086,5.568-4.52,8.537A1.851,1.851,0,0,1,1001.416,1240.242Zm9.854-16.921a1.851,1.851,0,0,1-1.515-2.912c1.911-2.729,3.957-5.384,6.08-7.894a1.851,1.851,0,0,1,2.827,2.391c-2.052,2.425-4.029,4.99-5.875,7.627A1.847,1.847,0,0,1,1011.27,1223.321Zm12.645-14.937a1.851,1.851,0,0,1-1.3-3.171c1.746-1.714,3.584-3.4,5.466-5.02q.967-.831,1.946-1.639a1.851,1.851,0,0,1,2.354,2.856q-.95.782-1.888,1.59c-1.82,1.564-3.6,3.2-5.286,4.853A1.846,1.846,0,0,1,1023.915,1208.383Zm15.088-12.5a1.851,1.851,0,0,1-1.066-3.364c2.722-1.915,5.535-3.731,8.361-5.4a1.85,1.85,0,0,1,1.879,3.188c-2.741,1.617-5.47,3.379-8.111,5.236A1.84,1.84,0,0,1,1039,1195.883Zm16.881-9.936a1.852,1.852,0,0,1-.8-3.519c3.01-1.446,6.092-2.765,9.162-3.92a1.85,1.85,0,1,1,1.3,3.464c-2.969,1.117-5.951,2.393-8.861,3.792A1.839,1.839,0,0,1,1055.883,1185.947Zm18.334-6.882a1.851,1.851,0,0,1-.488-3.636c3.224-.882,6.5-1.612,9.743-2.168a1.851,1.851,0,1,1,.626,3.648c-3.124.536-6.284,1.24-9.392,2.09A1.864,1.864,0,0,1,1074.217,1179.065Zm19.3-3.305a1.851,1.851,0,0,1-.125-3.7,96.319,96.319,0,0,1,9.991-.175,1.851,1.851,0,1,1-.128,3.7,92.608,92.608,0,0,0-9.609.169C1093.6,1175.759,1093.556,1175.76,1093.512,1175.76Z" transform="translate(-687.217 -1171.83)" fill="#f89f1b"/>
        <path id="Path_32" data-name="Path 32" d="M1843.969,1178.969a1.875,1.875,0,0,1-.367-.036c-1.58-.318-3.182-.6-4.76-.825a1.851,1.851,0,0,1,.532-3.663c1.645.239,3.312.528,4.958.859a1.851,1.851,0,0,1-.363,3.666Z" transform="translate(-1412.949 -1173.468)" fill="#f89f1b"/>
      </g>
      <g id="Group_30" data-name="Group 30" transform="translate(414.74 98.529)">
        <path id="Path_33" data-name="Path 33" d="M1714.429,1212.986s7.267,43.646-24.2,52.437-65.392,9.851-73,23.21c0,0,2.253-86.493,88.248-88.433Z" transform="translate(-1608.04 -1023.786)" fill="#7fe8fc"/>
        <path id="Path_34" data-name="Path 34" d="M1980.5,1206.953s21.689,37.639,13.945,50.163c-7.365,11.912-90.956,63.739-99.1,68.769a.811.811,0,0,1-1.087-.222h0a11.129,11.129,0,0,1-1.63-9.955c5.212-16.38,21.193-65.156,30.755-78.355C1934.938,1221.414,1980.5,1206.953,1980.5,1206.953Z" transform="translate(-1781.505 -1028.049)" fill="#25cbe8"/>
        <path id="Path_35" data-name="Path 35" d="M1971.449,1321.841a1,1,0,0,0,.789-.127c.456-.294,45.744-29.47,64.75-42.787a10.434,10.434,0,0,0,4.256-10.559,155.287,155.287,0,0,0-9.09-30.216,1,1,0,0,0-1.832.8,153.159,153.159,0,0,1,8.962,29.8,8.434,8.434,0,0,1-3.443,8.537c-18.974,13.3-64.23,42.451-64.684,42.744a1,1,0,0,0,.292,1.806Z" transform="translate(-1831.098 -1047.357)" fill="#fff"/>
        <path id="Path_36" data-name="Path 36" d="M1731.721,937.048s-29.318-32.056-43.6-28.463c-13.582,3.418-88.263,67.42-95.518,73.658a.811.811,0,0,0-.117,1.1h0a11.126,11.126,0,0,0,9,4.563c17.19-.013,68.515-.495,83.987-5.618C1704.157,976.106,1731.721,937.048,1731.721,937.048Z" transform="translate(-1592.326 -839.587)" fill="#25cbe8"/>
        <path id="Path_37" data-name="Path 37" d="M1675.885,972.078a1,1,0,0,0,.886-.2c.417-.346,41.894-34.665,60.306-48.729a8.44,8.44,0,0,1,9.179-.7,153.212,153.212,0,0,1,25.7,17.557,1,1,0,1,0,1.312-1.5,152.213,152.213,0,0,0-26.049-17.8,10.437,10.437,0,0,0-11.352.863c-18.444,14.088-59.95,48.434-60.367,48.777a1,1,0,0,0,.387,1.737Z" transform="translate(-1644.583 -846.599)" fill="#fff"/>
        <path id="Path_38" data-name="Path 38" d="M2042.662,834.68a224.41,224.41,0,0,1-49.228,49.844c-64.7,47.641-120.5,71.467-136.549,77.818a8.52,8.52,0,0,1-8.584-1.414,150.184,150.184,0,0,1-42.771-57.5,12.378,12.378,0,0,1,1.894-12.725c12.8-15.432,51.722-59.483,113.9-104.711a224.4,224.4,0,0,1,61.941-31.7C2015.767,779.856,2033.657,814.483,2042.662,834.68Z" transform="translate(-1726.254 -742.397)" fill="#00b3d3"/>
        <path id="Path_39" data-name="Path 39" d="M2288.927,733.947c44.047-14.523,81.8-12.245,94.376-10.883a4.185,4.185,0,0,1,3.658,5c-2.5,12.358-11.69,48.819-38.637,86.274C2339.319,794.139,2321.428,759.512,2288.927,733.947Z" transform="translate(-2031.915 -722.053)" fill="#25cbe8"/>
        <g id="Group_28" data-name="Group 28" transform="translate(196.763 50.291)">
          <path id="Path_40" data-name="Path 40" d="M2140.414,865.231c-16.8,12.292-19.717,36.869-6.524,54.9s37.5,22.675,54.3,10.383,19.716-36.869,6.524-54.895S2157.21,852.94,2140.414,865.231Z" transform="translate(-2125.629 -858.362)" fill="#fff"/>
          <path id="Path_41" data-name="Path 41" d="M2159.2,881.431c-13.383,9.794-15.711,29.378-5.2,43.741s29.882,18.068,43.265,8.273,15.71-29.378,5.2-43.741S2172.585,871.636,2159.2,881.431Z" transform="translate(-2139.38 -869.465)" fill="#028ca7"/>
          <path id="Path_42" data-name="Path 42" d="M2267.8,939.9a1,1,0,0,0,1.048-.369c6.387-8.543,6.261-20.775-.305-29.749a26.206,26.206,0,0,0-5.878-5.831,1,1,0,0,0-1.164,1.622,24.193,24.193,0,0,1,5.43,5.39c6.054,8.27,6.184,19.527.318,27.373a1,1,0,0,0,.2,1.4A.97.97,0,0,0,2267.8,939.9Z" transform="translate(-2211.107 -887.012)" fill="#fff"/>
        </g>
        <g id="Group_29" data-name="Group 29" transform="translate(148.77 108.427)">
          <path id="Path_43" data-name="Path 43" d="M2005.317,1020.47c-11.1,8.12-13.025,24.357-4.311,36.265s24.776,14.98,35.871,6.859,13.025-24.357,4.31-36.265S2016.413,1012.35,2005.317,1020.47Z" transform="translate(-1995.55 -1015.932)" fill="#fff"/>
          <path id="Path_44" data-name="Path 44" d="M2017.73,1031.172c-8.841,6.47-10.379,19.407-3.435,28.9s19.741,11.936,28.582,5.466,10.379-19.408,3.435-28.9S2026.571,1024.7,2017.73,1031.172Z" transform="translate(-2004.635 -1023.267)" fill="#028ca7"/>
          <path id="Path_45" data-name="Path 45" d="M2088.806,1069.547a1,1,0,0,0,1.048-.369,16.992,16.992,0,0,0-.2-20.055,17.557,17.557,0,0,0-3.961-3.929,1,1,0,1,0-1.162,1.622,15.6,15.6,0,0,1,3.511,3.486,14.981,14.981,0,0,1,.211,17.68,1,1,0,0,0,.2,1.4A.968.968,0,0,0,2088.806,1069.547Z" transform="translate(-2051.438 -1034.278)" fill="#fff"/>
        </g>
      </g>
      <g id="Group_35" data-name="Group 35" transform="translate(298.158 431.636)">
        <path id="Path_46" data-name="Path 46" d="M1613,3135.718s-2.055,11.631-3.062,23.144a7.933,7.933,0,0,0,7.588,8.595c15.332.638,48.129,1.88,59.9,1.355a2.581,2.581,0,0,0,2.271-3.536,5.776,5.776,0,0,0-2.955-3.113l-54.173-24.9Z" transform="translate(-1486.84 -2578.3)" fill="#0c005d"/>
        <path id="Path_47" data-name="Path 47" d="M1613.729,3113.521l1.651,13.912s9.49,4.417,15.97-.557l-3.93-15.5Z" transform="translate(-1489.25 -2562.938)" fill="#f48f8f"/>
        <path id="Path_48" data-name="Path 48" d="M1543.5,2408.284c-.713,3.633-3.828,181.3,15.164,260.913a2.7,2.7,0,0,1-1.585,3.144,47.053,47.053,0,0,1-15.466,3.144,4.655,4.655,0,0,1-4.617-3.341c-5.428-18.472-31.441-111.024-34.834-199.437-3.792-98.792,0-3.364,0-3.364l2.224-61.067Z" transform="translate(-1417.784 -2119.249)" fill="#676767"/>
        <path id="Path_49" data-name="Path 49" d="M1438.209,3152.164s-3.271,5.872-6.436,21.474a4.84,4.84,0,0,0,4.258,5.8c5.063.5,12.856,1.138,19.1,1.095a4.825,4.825,0,0,0,4.777-5.383c-.691-5.7-2.846-15.039-9.5-22.321Z" transform="translate(-1374.364 -2588.679)" fill="#0c005d"/>
        <path id="Path_50" data-name="Path 50" d="M1441.6,3102.267l3.857,21.038s3.813,2.837,11.357.781l-1.841-22.636Z" transform="translate(-1380.63 -2556.675)" fill="#f48f8f"/>
        <path id="Path_51" data-name="Path 51" d="M1403.135,2406.255c-15.532,93.736,3.369,231.678,9.744,258.676a4.21,4.21,0,0,0,3.4,3.2,28.265,28.265,0,0,0,12.148-.485,3.86,3.86,0,0,0,2.774-3.553c.855-21.827-.684-155.827,13.788-208.784a12.032,12.032,0,0,1,4.64-6.636l28.09-19.97,2.154-32.279Z" transform="translate(-1352.582 -2111.768)" fill="#71716f"/>
        <g id="Group_31" data-name="Group 31" transform="translate(44.753 44.786)">
          <path id="Path_52" data-name="Path 52" d="M1502.411,1928.659c-46.547-.769-97.905,12.222-97.905,12.222-13.874,80.957-2.426,174.336-2.426,174.336,36.036,9.45,76.685-5.777,76.685-5.777,5.989-33.838,33.934-129.07,33.934-129.07,22.742-2.823,41.477-9.384,56.906-18.059-11.769-13.641-17.316-31-19.726-41.26C1533.421,1926.164,1516.768,1928.9,1502.411,1928.659Z" transform="translate(-1397.641 -1856.571)" fill="#739af0"/>
          <path id="Path_53" data-name="Path 53" d="M1900.286,1749.814a8.906,8.906,0,0,0-10.36-2.91c-6.85,28.934-42.765,52.394-79.664,63.862,2.41,10.26,7.958,27.619,19.726,41.26C1891.224,1817.595,1900.286,1749.814,1900.286,1749.814Z" transform="translate(-1658.025 -1746.286)" fill="#f48f8f"/>
        </g>
        <g id="Group_32" data-name="Group 32" transform="translate(276.654)">
          <path id="Path_54" data-name="Path 54" d="M2035.432,1674.618c.478,1.521-5.062,3.837-8.324-2.384-.114-2.981-1.927-15.754-.146-18.183,9.488-12.936,27.884-29.151,27.884-29.151a4.377,4.377,0,0,1,.548,6.081l-8.924,9.3c1.866,3.373,4.143,6.22,5.21,10.3a12.5,12.5,0,0,1-1.247,9.2c-1.567,2.822-3.7,6.491-5.724,9.361A12.349,12.349,0,0,1,2035.432,1674.618Z" transform="translate(-2026.183 -1624.9)" fill="#f48f8f"/>
          <path id="Path_55" data-name="Path 55" d="M2052.313,1682.928l-8.132,6.894-2.553,6.864,7.251,8.043s2.438-13.619,4.25-16.567S2054,1683.79,2052.313,1682.928Z" transform="translate(-2035.929 -1661.519)" fill="#f48f8f"/>
        </g>
        <path id="Path_56" data-name="Path 56" d="M1347.51,2019.87l-17.854-45.071s-43.477,29.541-50.627,67c8.215.6,23.163,2.742,37.795,10.129C1320.04,2034.239,1347.51,2019.87,1347.51,2019.87Z" transform="translate(-1278.039 -1845.703)" fill="#739af0"/>
        <path id="Path_57" data-name="Path 57" d="M1383.809,2176.867s-48.814,27.587-65.284,4.031a18.515,18.515,0,0,1-3.4-14.387c-14.631-7.388-29.58-9.525-37.795-10.129a51.69,51.69,0,0,0,5.619,35.437c28.85,52.776,107.315-2.917,107.315-2.917Z" transform="translate(-1276.343 -1960.291)" fill="#f48f8f"/>
        <g id="Group_33" data-name="Group 33" transform="translate(101.494 141.674)">
          <path id="Path_58" data-name="Path 58" d="M1551.537,2134.151l26.641-93.035a2.712,2.712,0,0,1,2.294-1.953c4.827-.563,18.813-2.144,34.962-3.51,19.451-1.646,42.04-2.979,55.539-1.844a2.722,2.722,0,0,1,2.225,3.917c-7.676,15.53-39.25,78.7-55.062,99.394a2.729,2.729,0,0,1-2.2,1.078l-61.811-.575A2.722,2.722,0,0,1,1551.537,2134.151Z" transform="translate(-1551.43 -2024.349)" fill="#e9605a"/>
          <path id="Path_59" data-name="Path 59" d="M1728.388,2012.13l19.315-3.218a1.386,1.386,0,0,1,1.544,1.8l-1.912,5.794a1.387,1.387,0,0,1-1.133.94l-18.587,2.483a1.386,1.386,0,0,1-1.533-1.69l1.184-5.058A1.386,1.386,0,0,1,1728.388,2012.13Z" transform="translate(-1661.62 -2008.892)" fill="#b72721"/>
          <path id="Path_60" data-name="Path 60" d="M1693.135,2038.38l1.591-8.288a1.916,1.916,0,0,1,1.688-1.545l39.012-3.959a1.916,1.916,0,0,1,2.056,2.354L1735,2037.27a1.916,1.916,0,0,1-1.766,1.466l-38.123,1.919A1.916,1.916,0,0,1,1693.135,2038.38Z" transform="translate(-1640.831 -2018.791)" fill="#b72721"/>
          <path id="Path_61" data-name="Path 61" d="M1564.77,2191.323s-3.711-15.26-2.214-20.674,4.4-12.375,14.065-10.828a141.5,141.5,0,0,1,21.072,5.619s-.576,7.052-7.924,4.777l4.556,3.525s-.651,5.646-6.858,2.63l4.238,4.675s-2.665,4.637-7.232,1.663S1577.719,2193.16,1564.77,2191.323Z" transform="translate(-1558.226 -2103.997)" fill="#f48f8f"/>
        </g>
        <path id="Path_62" data-name="Path 62" d="M1528.341,1839.252l-14.81,42.83a1.543,1.543,0,0,0,.7,1.858c4.037,2.232,18.582,8.684,36.11-2.429a7.268,7.268,0,0,0,3.346-5.19l4.8-37.07Z" transform="translate(-1425.966 -1760.167)" fill="#f48f8f"/>
        <g id="Group_34" data-name="Group 34" transform="translate(74.267 17.164)">
          <path id="Path_63" data-name="Path 63" d="M1576.234,1731.752s16.263,30.614,14.178,42.98-22.24,11.479-39.841,1.435l-12.3-33.056Z" transform="translate(-1515.9 -1709.492)" fill="#f48f8f"/>
          <path id="Path_64" data-name="Path 64" d="M1513.084,1721.861a1.261,1.261,0,0,0,.551-1.847c-1.3-1.991-3.746-6.052-4.524-9.607,0,0-2.924-1.872,7.441-4.353s25.822-6.332,29.071-15.154c3.167-8.6-5.155-30.233-18.433-13a1.262,1.262,0,0,1-2,.014c-2.177-2.833-7.9-8.713-15.845-5.148-7.435,3.336-8.273,8.784-8.17,11.531a1.254,1.254,0,0,1-1.486,1.284c-3.759-.717-12.78-1.333-16.99,7.921-3.468,7.622-1.214,11.937.839,14.047a1.258,1.258,0,0,1-.538,2.089c-2.471.756-5.661,2.851-5.342,8.639.442,8,9.388,7.3,11.936,6.932a1.263,1.263,0,0,1,1.12.4c2.184,2.417,12.024,12.68,22.675,13.917a1.273,1.273,0,0,0,1.335-1.682l-4.609-13.4a1.268,1.268,0,0,1,.685-1.571Z" transform="translate(-1477.635 -1671.42)" fill="#0d5d6c"/>
          <path id="Path_65" data-name="Path 65" d="M1557.408,1806.56s-11.579-7.945-12.426-1.254,10.428,9.691,16.012,7.2Z" transform="translate(-1520.106 -1754.217)" fill="#f48f8f"/>
        </g>
      </g>
    </g>
  </g>
</svg>
