<svg xmlns="http://www.w3.org/2000/svg" width="474" height="474" viewBox="0 0 474 474">
  <g id="hero-germany" transform="translate(-843.378 -208.923)">
    <circle id="Ellipse_2061" data-name="Ellipse 2061" cx="237" cy="237" r="237" transform="translate(843.378 208.923)" fill="#fff"/>
    <g id="Group_595" data-name="Group 595" transform="translate(325.823 -3983.866)">
      <path id="Path_9029" data-name="Path 9029" d="M845.649,4618.345s-2.5,1.41,0,7.1,3.574,7.931,3.054,9.83-4.681,3.927-6,3.686-6.634-8.9-6.634-8.9l-6-1.559s-.775-.153-10.183,0-8.776-.272-11.866,1.559-7.883,4.4-12,5.212-6.007-.483-7.271,2.067,3.86,2.577-3.554,4.729-9.821,3.425-14.125,1.863-2.295-.208-7.664-4.975-3.192-6.565-7.45-5.9-3.687-5.691-6.119,2.212-2.606,13.609-5.961,11.911-7.256-1.78-8.7-5.114a23.057,23.057,0,0,0-2.56-4.729s8.8-.439,0-2.067-4.681.064-12.784-2.212-10.948-3-10.948-3,3.116-.039-4.972-3.132-9.184-3.481-9.184-3.481,6.18-6.651-6.466-2.348-10.759,4.1-12.121,7.4-3.682,6.053-6.175,6.771-5.487-1.586-15.313,0-11.458,1.376-10.331-2.212,2.391-5.906,3.075-9.613.979-3.562,2.4-8.693,4.834-4.757,4.86-10.069.184-9.63,0-13.212,1.632-3.631,2.534-7.432.974-3.6,3.529-7.279,2.142-.725,4.676-6.053a55.339,55.339,0,0,1,6.6-10.174s-8.021-4.9-9.485-5.6-1.53-.341-5.318-1.394-23.115-5.245-24.384-5.787-6.981-.5-10.948-5.192-5.278-5.281-8.694-10.151-6.909-1.594-4.865-9.037,2.748-9.753,2.748-9.753-.9,3.923-2.748,0-1.978-4.41-3.554-5.377-10.086-8.267-7.98-13.864,7.261-8.036,7.98-8.774.26,2.875,1.79-1.318,7.282-8.943,4.513-9.762-6.3-6.777-6.3-6.777-10.907-16.744-12.462-19.632,4.161-7.133,4.482-8.354,2.106-1.354,2.437-2.715,3.08-7.614,3.08-7.614,1.591,9.432,0-3.5-5.517-19.774-5.517-19.774a8.969,8.969,0,0,1-2.5-5.687c0-3.225-.862-5.088,2.5-5.089s5.64-1.529,11.534,0,2.748,3.525,10.412,0,8.087.276,8.811-7.921,2.065-11.683,2.065-11.683,3.717-1.928,3.218-4.757-.739-10.458-3.218-11.46-4.982-3.245-6.134-3.729a3.53,3.53,0,0,1-1.6-2.129l7.73-5.873h1.759l6.828-19.071s1.433-10.124,1.433-11.217,1.367-7.389,1.367-7.389l-8.169-4.147,8.169-17.6s5.65-3.831,10.611-2.121,8.827,1.479,10.922,2.121,2.953-3.569,4.8,2.029,4.732,6.714,4.681,8.468,1.672,2.982,4.049,2.6,5.16-2.6,5.16-2.6l2.035-5.325,3.4-5.172s.056.762,0-2.121,0-7.562,0-7.562h7.21c1.8,0,2.167-.121,5.527,0s3.631-2.354,6.451,0,2.458,0,5.869,3.055,3.748,4.743,5.094,4.507a12.681,12.681,0,0,1,3.146,0,5.647,5.647,0,0,0,2.993,2.121c2.244.8,5.716-.064,3.723-2.121s-3.626-1.367-6.716-4.507-1.876-2.685-5.318-5.534-8.791-6.384-8.791-6.384-.306,3.066-4.5,0-2.55-5.791-1.953-6.432,1.1-.254,1.953-1.367-1.953-5.94-1.953-5.94l1.953-8.979H690.619s4.294-8.686,5.828-8.686h4.865l-7.48-17.5-3.213-5.544s-7.256-5.22,3.213-2.579,18.3.961,20.769,2.579.994.8,5.318,2.679,7.348,3.109,9.362,2.865,8.424,0,8.424,0,1.254.291,2.59,4.757,3.294,2.093,1.336,5.9.235,3.953-1.336,5.169-5.415,2.607-2.59,3.986,7.6,3.592,7.6,3.592,2.081.841,3.248,0,10.254,3.937,12.656,4.765,10.4,0,10.4,0,2.733-7.342,4.89-4.765,2.743,7.173,2.743,7.173a28.8,28.8,0,0,1-2.743,6.442,24.26,24.26,0,0,1-3.585,4.086c-1.433,1.537-3.794,2.974-2.789,4.181s-1.285,3.59,2.789,3.618,5.476-.818,8.047,0-.082-1.77,5.349,0,8.577,1.36,8.577,1.36.627-.69,2.789-3.59-.495-2.607,3.926-4.2,1.229,0,12.463-5.453,18.449-8.851,18.449-8.851-5.227-3.927,4.161-4.765,15.915-.685,16.537,0-2.7,6.034,0,0,2.845-10.069,2.652-11.094a43.843,43.843,0,0,1,0-5.105s-2.9-.687,1.56,0,13.528,8.621,13.528,8.621-2.759-3.086,0,1.674,3.937,5.9,3.937,5.9-1.566,3.762-3.937,4.765-3.508.2-6.252,2.408-4.625,3.03-3.08,4.588.179-.973,3.08,1.854,14.38,2.553,14.38,2.553a19.246,19.246,0,0,1,3.217,1.533c1.764,1.041,2.04-1.557,2.9,1.367a7.517,7.517,0,0,0,3.1,4.2,1.942,1.942,0,0,0,0,2.229c.785,1.251,3.314,2.507,0,3.208s-2.137-1.112-4.421,1.283-1.581,6.017-1.581,6.017a3.7,3.7,0,0,1,1.581,1.41c.653,1.043,4.421,1.828,4.421,1.828a46.825,46.825,0,0,0,4.232,2.679c1.127.509,3.34,9.6,3.34,9.6s-.7,2.269,0,3.017,1.219,2.753,1.606,3.91,2.035,13.1,2.035,13.1-.331-1.7-3.641,6.392-2.371,8.285-3.34,9.454-4.232,6.769-4.232,6.769,1.759,3.762,4.232,5.176,3.773,3.7,4.946,4.127,3.529.362,4.523,3.032,1.693-.184,1.693,4.97-.719,3.026,0,7.311-1.958,2.977,0,6.448,2.1,3.382,3.08,6.187,1.683,1.255,1.5,4.595.541,5.007,0,7.088-.1-2.991-1.5,5.667-5.68,4.029,0,13.506,8.893,11.317,8.893,11.317-3.228-5.807,0,2.14,0,30.683,0,30.683-1.815-2.2-2.932,0-4.462,3.379-4.462,3.379l-1.5-3.379s-4.09-2.09-4.773-3.464a23.116,23.116,0,0,0-2.488-3.478s.377-3.392-2.035,0,.586,6.955-1.606,6.941-.107,1.114-7.572,3.379-15.007,3.456-17.347,6.135-13.712,9.188-13.712,9.188,2.519-2.64-4.028,2.767-5.757,4.554-7.965,5.857a64.269,64.269,0,0,1-6.517,3.156c-1.938.869-7.327-1.885-9.484,0s-3.07-.3-4.6,4.028-6.818,2.363-6.818,2.363.178-.938-1.974-2.363,0,11.293,0,11.293a3.447,3.447,0,0,0,1.974,2.754c1.912.973.658-1.725,4.018,2.223a27.282,27.282,0,0,1,4.8,9.177s.816-.718,0,1.435-2,5.785-2,5.785l14.084,19.6s2.626,5.06,4.778,6.741a18.879,18.879,0,0,0,3.789,2.472c2.606,1.547,5.063.94,5.915,2.543s2.565.65,5.665,4.236,2.116,1.592,5.3,5.02,14.645-1.872,11.942,9.457-3,13.991-5.171,14.21a65.9,65.9,0,0,1-6.772,0s-2.764-2.612-2.927,0-3.1,10.437-6.022,12.219a22.772,22.772,0,0,1-6.532,2.875c-3.269,1.115-4.273.63-6,1.916s-2.244-2.368-3.967,2.352-.821,4.109,0,7.025.4,1.813,1.571,3.893S845.649,4618.345,845.649,4618.345Z" fill="#f89f1b" stroke="#151515" stroke-linecap="round" stroke-linejoin="round" stroke-width="2"/>
    </g>
  </g>
</svg>
