<svg xmlns="http://www.w3.org/2000/svg" xmlns:xlink="http://www.w3.org/1999/xlink" width="1339.458" height="864.361" viewBox="0 0 1339.458 864.361">
  <defs>
    <linearGradient id="linear-gradient" x1="0.578" y1="0.615" x2="2.157" y2="2.92" gradientUnits="objectBoundingBox">
      <stop offset="0" stop-color="#fe7062"/>
      <stop offset="1" stop-color="#ff928e"/>
    </linearGradient>
    <linearGradient id="linear-gradient-2" x1="0.638" y1="0.669" x2="4.028" y2="4.796" xlink:href="#linear-gradient"/>
    <linearGradient id="linear-gradient-3" x1="-559.008" y1="-3.524" x2="-564.745" y2="3.756" gradientUnits="objectBoundingBox">
      <stop offset="0" stop-color="#cb236d"/>
      <stop offset="1" stop-color="#4c246d"/>
    </linearGradient>
    <linearGradient id="linear-gradient-4" x1="0.339" y1="0.003" x2="1.231" y2="2.76" xlink:href="#linear-gradient"/>
    <linearGradient id="linear-gradient-5" x1="0.429" y1="0.189" x2="1.009" y2="1.465" xlink:href="#linear-gradient"/>
    <linearGradient id="linear-gradient-6" x1="-190.047" y1="0.126" x2="-199.037" y2="0.874" gradientUnits="objectBoundingBox">
      <stop offset="0" stop-color="#09005d"/>
      <stop offset="1" stop-color="#1a0f91"/>
    </linearGradient>
    <linearGradient id="linear-gradient-7" x1="-0.376" y1="-0.332" x2="1.078" y2="1.25" gradientUnits="objectBoundingBox">
      <stop offset="0" stop-color="#e1473d"/>
      <stop offset="1" stop-color="#e9605a"/>
    </linearGradient>
    <linearGradient id="linear-gradient-8" x1="-17.723" y1="-0.366" x2="-3.765" y2="1.47" xlink:href="#linear-gradient-7"/>
    <linearGradient id="linear-gradient-9" x1="0.928" y1="0.662" x2="-4.933" y2="-0.46" xlink:href="#linear-gradient-6"/>
    <linearGradient id="linear-gradient-10" x1="0" y1="0.5" x2="1" y2="0.5" xlink:href="#linear-gradient-6"/>
  </defs>
  <g id="Illustration" transform="translate(-132.133 -115.975)">
    <g id="Group_72" data-name="Group 72" transform="translate(132.133 115.975)">
      <path id="Path_1" data-name="Path 1" d="M1115.368,193.105c78.661,91.834,359.073-55.41,356.2,113.9-3.362,198.251-271.652,256.58-184.779,395.918s-24.526,246.123-373.625,243.182S17.937,817.687,153.235,627.753s45.152-199.677,38.553-283.619,94.776-308.4,365.15-154.848S916.174-39.444,1115.368,193.105Z" transform="translate(-132.133 -115.975)" fill="#d2fdfd"/>
      <g id="Group_18" data-name="Group 18" transform="translate(199.902 121.706)">
        <path id="Path_8" data-name="Path 8" d="M1121.333,1159.98l-21.1,189.272h244.845l-31.891-189.272Z" transform="translate(-710.036 -645.321)" fill="#057a90"/>
        <path id="Path_9" data-name="Path 9" d="M460.088,363.976V797.458a65.759,65.759,0,0,0,64.064,65.74c158.328,4.083,712.085,13.982,862.8,11.761a48.387,48.387,0,0,0,47.638-47.009c2.906-100.7,7.626-342.862-9.841-455.286a49.793,49.793,0,0,0-47.61-42.146c-132.659-4.244-719.678-17.719-870.325-14.336A47.8,47.8,0,0,0,460.088,363.976Z" transform="translate(-460.088 -315.642)" fill="#0992ac"/>
        <path id="Path_10" data-name="Path 10" d="M504.711,372.655V784.492a38.1,38.1,0,0,0,37.531,38.1L1382.7,832.971a37.081,37.081,0,0,0,37.634-36.938l1.406-408.157a27.118,27.118,0,0,0-26.458-27.211L534.808,343.281A29.382,29.382,0,0,0,504.711,372.655Z" transform="translate(-477.511 -326.431)" fill="#d2fdfd"/>
        <path id="Path_12" data-name="Path 12" d="M1425.83,1162.84h-.023l-921.946-15.708a1.291,1.291,0,0,1,.022-2.581h.022l921.946,15.708a1.291,1.291,0,0,1-.021,2.581Z" transform="translate(-476.684 -639.297)" fill="#d2fdfd"/>
        <path id="Path_13" data-name="Path 13" d="M1348.986,1500.038H990.638c-9.735,0-17.046-6.93-15.164-14.375l4.6-18.185c1.383-5.469,7.4-9.484,14.546-9.707l345.46-10.78c7.466-.233,14.076,3.73,15.7,9.414l8.29,28.965C1366.225,1492.9,1358.879,1500.038,1348.986,1500.038Z" transform="translate(-661.209 -757.383)" fill="#0992ac"/>
        <path id="Path_14" data-name="Path 14" d="M1316.192,1471.175a1.291,1.291,0,0,1-.019-2.581l14.8-.215a1.306,1.306,0,0,1,1.31,1.271,1.291,1.291,0,0,1-1.272,1.309l-14.8.216Z" transform="translate(-793.857 -765.737)" fill="#d2fdfd"/>
        <path id="Path_15" data-name="Path 15" d="M996.6,1498.838a1.23,1.23,0,0,1-.205-.017,1.289,1.289,0,0,1-1.07-1.477l2.111-13.226a14.878,14.878,0,0,1,14.5-12.552l157.013-2.295a1.316,1.316,0,0,1,1.309,1.271,1.289,1.289,0,0,1-1.272,1.309l-157.013,2.3a12.3,12.3,0,0,0-11.987,10.377l-2.112,13.226A1.29,1.29,0,0,1,996.6,1498.838Z" transform="translate(-669.071 -766.085)" fill="#d2fdfd"/>
        <g id="Group_17" data-name="Group 17" transform="translate(58.399 74.27)">
          <rect id="Rectangle_2" data-name="Rectangle 2" width="498.432" height="39.08" rx="13.958" fill="#7be4f2"/>
          <rect id="Rectangle_3" data-name="Rectangle 3" width="493.306" height="226.793" rx="13.958" transform="translate(0 70.472)" fill="#7be4f2"/>
          <g id="Group_16" data-name="Group 16" transform="translate(516.37 22.423)">
            <rect id="Rectangle_4" data-name="Rectangle 4" width="333.783" height="34.596" rx="13.958" transform="translate(0 220.386)" fill="#7be4f2"/>
            <rect id="Rectangle_5" data-name="Rectangle 5" width="333.783" height="34.596" rx="13.958" transform="translate(0 278.046)" fill="#7be4f2"/>
            <rect id="Rectangle_6" data-name="Rectangle 6" width="333.783" height="34.596" rx="13.958" transform="translate(0 335.705)" fill="#7be4f2"/>
            <g id="Group_15" data-name="Group 15" transform="translate(0.641)">
              <g id="Group_7" data-name="Group 7" transform="translate(324.331 196.132)">
                <path id="Path_16" data-name="Path 16" d="M1941.471,802.36H1937.5a1.282,1.282,0,1,1,0-2.562h2.364v-2.431a1.282,1.282,0,1,1,2.563,0v3.969C1942.429,802.066,1942.2,802.36,1941.471,802.36Z" transform="translate(-1936.18 -796.044)" fill="#7be4f2"/>
              </g>
              <g id="Group_8" data-name="Group 8" transform="translate(8.178 199.885)">
                <path id="Path_17" data-name="Path 17" d="M1727.046,804.765h-7.937a1.282,1.282,0,1,1,0-2.562h7.937a1.282,1.282,0,1,1,0,2.563Zm-15.874,0h-7.937a1.282,1.282,0,1,1,0-2.562h7.937a1.282,1.282,0,1,1,0,2.563Zm-15.874,0h-7.937a1.282,1.282,0,1,1,0-2.562h7.937a1.282,1.282,0,1,1,0,2.563Zm-15.874,0h-7.937a1.282,1.282,0,1,1,0-2.562h7.937a1.282,1.282,0,1,1,0,2.563Zm-15.874,0h-7.937a1.282,1.282,0,1,1,0-2.562h7.937a1.282,1.282,0,1,1,0,2.563Zm-15.874,0h-7.937a1.282,1.282,0,1,1,0-2.562h7.937a1.282,1.282,0,1,1,0,2.563Zm-15.874,0h-7.937a1.282,1.282,0,1,1,0-2.562h7.937a1.282,1.282,0,1,1,0,2.563Zm-15.874,0h-7.937a1.282,1.282,0,1,1,0-2.562h7.937a1.282,1.282,0,1,1,0,2.563Zm-15.874,0h-7.937a1.282,1.282,0,1,1,0-2.562h7.937a1.282,1.282,0,1,1,0,2.563Zm-15.874,0h-7.937a1.282,1.282,0,1,1,0-2.562h7.937a1.282,1.282,0,1,1,0,2.563Zm-15.874,0h-7.937a1.282,1.282,0,1,1,0-2.562h7.937a1.282,1.282,0,1,1,0,2.563Zm-15.874,0H1544.5a1.282,1.282,0,1,1,0-2.562h7.937a1.282,1.282,0,1,1,0,2.563Zm-15.874,0h-7.937a1.282,1.282,0,1,1,0-2.562h7.937a1.282,1.282,0,1,1,0,2.563Zm-15.874,0h-7.937a1.282,1.282,0,1,1,0-2.562h7.937a1.282,1.282,0,1,1,0,2.563Zm-15.874,0h-7.937a1.282,1.282,0,1,1,0-2.562h7.937a1.282,1.282,0,1,1,0,2.563Zm-15.874,0H1481a1.282,1.282,0,1,1,0-2.562h7.937a1.282,1.282,0,1,1,0,2.563Zm-15.874,0h-7.937a1.282,1.282,0,1,1,0-2.562h7.937a1.282,1.282,0,1,1,0,2.563Zm-15.874,0h-7.937a1.282,1.282,0,1,1,0-2.562h7.937a1.282,1.282,0,1,1,0,2.563Zm-15.874,0h-7.937a1.282,1.282,0,1,1,0-2.562h7.937a1.282,1.282,0,1,1,0,2.563Zm-15.874,0h-6.614a1.282,1.282,0,1,1,0-2.562h6.614a1.282,1.282,0,1,1,0,2.563Z" transform="translate(-1417.508 -802.202)" fill="#7be4f2"/>
              </g>
              <g id="Group_9" data-name="Group 9" transform="translate(0 196.132)">
                <path id="Path_18" data-name="Path 18" d="M1409.624,802.36h-3.969c-.73,0-1.564-.294-1.564-1.025v-3.969a1.282,1.282,0,1,1,2.563,0V799.8h2.97a1.282,1.282,0,1,1,0,2.563Z" transform="translate(-1404.091 -796.044)" fill="#7be4f2"/>
              </g>
              <g id="Group_10" data-name="Group 10" transform="translate(0 8.292)">
                <path id="Path_19" data-name="Path 19" d="M1405.372,670.427a1.288,1.288,0,0,1-1.281-1.323v-7.937a1.282,1.282,0,1,1,2.563,0V669.1A1.288,1.288,0,0,1,1405.372,670.427Zm0-15.874a1.288,1.288,0,0,1-1.281-1.323v-7.937a1.282,1.282,0,1,1,2.563,0v7.937A1.288,1.288,0,0,1,1405.372,654.553Zm0-15.874a1.288,1.288,0,0,1-1.281-1.323V629.42a1.282,1.282,0,1,1,2.563,0v7.937A1.288,1.288,0,0,1,1405.372,638.68Zm0-15.874a1.288,1.288,0,0,1-1.281-1.323v-7.937a1.282,1.282,0,1,1,2.563,0v7.937A1.288,1.288,0,0,1,1405.372,622.806Zm0-15.874a1.288,1.288,0,0,1-1.281-1.323v-7.937a1.282,1.282,0,1,1,2.563,0v7.937A1.288,1.288,0,0,1,1405.372,606.932Zm0-15.874a1.288,1.288,0,0,1-1.281-1.323V581.8a1.282,1.282,0,1,1,2.563,0v7.937A1.288,1.288,0,0,1,1405.372,591.059Zm0-15.874a1.288,1.288,0,0,1-1.281-1.323v-7.937a1.282,1.282,0,1,1,2.563,0v7.937A1.288,1.288,0,0,1,1405.372,575.184Zm0-15.874a1.288,1.288,0,0,1-1.281-1.323v-7.937a1.282,1.282,0,1,1,2.563,0v7.937A1.288,1.288,0,0,1,1405.372,559.311Zm0-15.874a1.288,1.288,0,0,1-1.281-1.323v-7.937a1.282,1.282,0,1,1,2.563,0v7.937A1.288,1.288,0,0,1,1405.372,543.437Zm0-15.874a1.288,1.288,0,0,1-1.281-1.323V518.3a1.282,1.282,0,1,1,2.563,0v7.937A1.288,1.288,0,0,1,1405.372,527.563Zm0-15.874a1.288,1.288,0,0,1-1.281-1.323V502.43a1.282,1.282,0,1,1,2.563,0v7.937A1.288,1.288,0,0,1,1405.372,511.69Zm0-15.874a1.288,1.288,0,0,1-1.281-1.323V489.2a1.282,1.282,0,1,1,2.563,0v5.291A1.288,1.288,0,0,1,1405.372,495.816Z" transform="translate(-1404.091 -487.879)" fill="#7be4f2"/>
              </g>
              <g id="Group_11" data-name="Group 11">
                <path id="Path_20" data-name="Path 20" d="M1405.372,481.245a1.288,1.288,0,0,1-1.281-1.323v-3.968a1.892,1.892,0,0,1,1.564-1.678h3.969c.73,0,1.323.871,1.323,1.6s-.593,1.6-1.323,1.6h-2.97v2.443A1.288,1.288,0,0,1,1405.372,481.245Z" transform="translate(-1404.091 -474.275)" fill="#7be4f2"/>
              </g>
              <g id="Group_12" data-name="Group 12" transform="translate(12.147)">
                <path id="Path_21" data-name="Path 21" d="M1733.557,477.478h-6.614c-.73,0-1.323-.871-1.323-1.6s.593-1.6,1.323-1.6h6.614c.73,0,1.323.871,1.323,1.6S1734.287,477.478,1733.557,477.478Zm-14.551,0h-7.937c-.731,0-1.323-.871-1.323-1.6s.592-1.6,1.323-1.6h7.937c.73,0,1.323.871,1.323,1.6S1719.737,477.478,1719.006,477.478Zm-15.874,0H1695.2c-.731,0-1.323-.871-1.323-1.6s.592-1.6,1.323-1.6h7.937c.73,0,1.323.871,1.323,1.6S1703.863,477.478,1703.133,477.478Zm-15.874,0h-7.937c-.731,0-1.323-.871-1.323-1.6s.592-1.6,1.323-1.6h7.937c.73,0,1.323.871,1.323,1.6S1687.989,477.478,1687.259,477.478Zm-15.874,0h-7.937c-.73,0-1.323-.871-1.323-1.6s.593-1.6,1.323-1.6h7.938c.73,0,1.323.871,1.323,1.6S1672.115,477.478,1671.385,477.478Zm-15.875,0h-7.937c-.73,0-1.323-.871-1.323-1.6s.592-1.6,1.323-1.6h7.937c.731,0,1.323.871,1.323,1.6S1656.242,477.478,1655.511,477.478Zm-15.874,0H1631.7c-.73,0-1.323-.871-1.323-1.6s.592-1.6,1.323-1.6h7.937c.731,0,1.323.871,1.323,1.6S1640.368,477.478,1639.637,477.478Zm-15.874,0h-7.937c-.73,0-1.323-.871-1.323-1.6s.593-1.6,1.323-1.6h7.937c.731,0,1.323.871,1.323,1.6S1624.494,477.478,1623.763,477.478Zm-15.874,0h-7.937c-.73,0-1.323-.871-1.323-1.6s.592-1.6,1.323-1.6h7.937c.731,0,1.323.871,1.323,1.6S1608.621,477.478,1607.89,477.478Zm-15.874,0h-7.937c-.73,0-1.323-.871-1.323-1.6s.593-1.6,1.323-1.6h7.937c.73,0,1.323.871,1.323,1.6S1592.746,477.478,1592.016,477.478Zm-15.874,0h-7.937c-.731,0-1.323-.871-1.323-1.6s.592-1.6,1.323-1.6h7.937c.73,0,1.323.871,1.323,1.6S1576.873,477.478,1576.142,477.478Zm-15.874,0h-7.937c-.731,0-1.323-.871-1.323-1.6s.593-1.6,1.323-1.6h7.937c.73,0,1.323.871,1.323,1.6S1561,477.478,1560.269,477.478Zm-15.874,0h-7.937c-.731,0-1.323-.871-1.323-1.6s.592-1.6,1.323-1.6h7.937c.73,0,1.323.871,1.323,1.6S1545.125,477.478,1544.4,477.478Zm-15.874,0h-7.937c-.73,0-1.323-.871-1.323-1.6s.593-1.6,1.323-1.6h7.937c.731,0,1.323.871,1.323,1.6S1529.252,477.478,1528.521,477.478Zm-15.874,0h-7.937c-.73,0-1.323-.871-1.323-1.6s.593-1.6,1.323-1.6h7.937c.731,0,1.323.871,1.323,1.6S1513.378,477.478,1512.647,477.478Zm-15.874,0h-7.937c-.73,0-1.323-.871-1.323-1.6s.593-1.6,1.323-1.6h7.937c.731,0,1.323.871,1.323,1.6S1497.5,477.478,1496.773,477.478Zm-15.874,0h-7.937c-.73,0-1.323-.871-1.323-1.6s.592-1.6,1.323-1.6h7.937c.731,0,1.323.871,1.323,1.6S1481.631,477.478,1480.9,477.478Zm-15.874,0h-7.937c-.73,0-1.323-.871-1.323-1.6s.593-1.6,1.323-1.6h7.937c.731,0,1.323.871,1.323,1.6S1465.757,477.478,1465.026,477.478Zm-15.874,0h-7.937c-.731,0-1.323-.871-1.323-1.6s.592-1.6,1.323-1.6h7.937c.73,0,1.323.871,1.323,1.6S1449.883,477.478,1449.152,477.478Zm-15.874,0h-7.937c-.731,0-1.323-.871-1.323-1.6s.592-1.6,1.323-1.6h7.937c.73,0,1.323.871,1.323,1.6S1434.009,477.478,1433.279,477.478Z" transform="translate(-1424.019 -474.275)" fill="#7be4f2"/>
              </g>
              <g id="Group_13" data-name="Group 13" transform="translate(324.331)">
                <path id="Path_22" data-name="Path 22" d="M1941.148,481.245a1.288,1.288,0,0,1-1.281-1.323v-2.443H1937.5c-.73,0-1.323-.871-1.323-1.6s.592-1.6,1.323-1.6h3.969c.73,0,.958.947.958,1.678v3.968A1.289,1.289,0,0,1,1941.148,481.245Z" transform="translate(-1936.18 -474.275)" fill="#7be4f2"/>
              </g>
              <g id="Group_14" data-name="Group 14" transform="translate(328.017 12.26)">
                <path id="Path_23" data-name="Path 23" d="M1943.509,676.938a1.288,1.288,0,0,1-1.281-1.323v-5.291a1.282,1.282,0,1,1,2.563,0v5.291A1.289,1.289,0,0,1,1943.509,676.938Zm0-13.228a1.288,1.288,0,0,1-1.281-1.323V654.45a1.282,1.282,0,1,1,2.563,0v7.937A1.288,1.288,0,0,1,1943.509,663.709Zm0-15.874a1.288,1.288,0,0,1-1.281-1.323v-7.937a1.282,1.282,0,1,1,2.563,0v7.937A1.288,1.288,0,0,1,1943.509,647.836Zm0-15.874a1.288,1.288,0,0,1-1.281-1.323V622.7a1.282,1.282,0,1,1,2.563,0v7.937A1.288,1.288,0,0,1,1943.509,631.962Zm0-15.874a1.288,1.288,0,0,1-1.281-1.323v-7.937a1.282,1.282,0,1,1,2.563,0v7.937A1.289,1.289,0,0,1,1943.509,616.088Zm0-15.874a1.287,1.287,0,0,1-1.281-1.323v-7.937a1.282,1.282,0,1,1,2.563,0v7.937A1.288,1.288,0,0,1,1943.509,600.214Zm0-15.874a1.287,1.287,0,0,1-1.281-1.323v-7.937a1.282,1.282,0,1,1,2.563,0v7.937A1.288,1.288,0,0,1,1943.509,584.34Zm0-15.874a1.288,1.288,0,0,1-1.281-1.323v-7.937a1.282,1.282,0,1,1,2.563,0v7.937A1.288,1.288,0,0,1,1943.509,568.467Zm0-15.874a1.288,1.288,0,0,1-1.281-1.323v-7.937a1.282,1.282,0,1,1,2.563,0v7.937A1.288,1.288,0,0,1,1943.509,552.593Zm0-15.874a1.288,1.288,0,0,1-1.281-1.323V527.46a1.282,1.282,0,1,1,2.563,0V535.4A1.288,1.288,0,0,1,1943.509,536.719Zm0-15.874a1.288,1.288,0,0,1-1.281-1.323v-7.937a1.282,1.282,0,1,1,2.563,0v7.937A1.288,1.288,0,0,1,1943.509,520.846Zm0-15.874a1.288,1.288,0,0,1-1.281-1.323v-7.937a1.282,1.282,0,1,1,2.563,0v7.937A1.288,1.288,0,0,1,1943.509,504.972Z" transform="translate(-1942.228 -494.389)" fill="#7be4f2"/>
              </g>
            </g>
          </g>
          <rect id="Rectangle_7" data-name="Rectangle 7" width="493.306" height="82.645" rx="18.717" transform="translate(0 317.766)" fill="#7be4f2"/>
        </g>
      </g>
      <g id="Group_31" data-name="Group 31" transform="translate(567.739 540.009)">
        <g id="Group_30" data-name="Group 30">
          <path id="Rectangle_8" data-name="Rectangle 8" d="M11.672,0H258.045a11.672,11.672,0,0,1,11.672,11.672V213.2a11.672,11.672,0,0,1-11.672,11.672H11.671A11.671,11.671,0,0,1,0,213.2V11.672A11.672,11.672,0,0,1,11.672,0Z" fill="url(#linear-gradient)"/>
          <g id="Group_22" data-name="Group 22" transform="translate(14.011 35.686)" opacity="0.69">
            <rect id="Rectangle_9" data-name="Rectangle 9" width="242.448" height="176.063" rx="11.671" fill="#fff"/>
          </g>
          <g id="Group_29" data-name="Group 29" transform="translate(184.123 7.587)" opacity="0.8">
            <g id="Group_25" data-name="Group 25">
              <g id="Group_23" data-name="Group 23">
                <path id="Path_28" data-name="Path 28" d="M1376.221,1035.551a10.6,10.6,0,1,1,10.6-10.6A10.613,10.613,0,0,1,1376.221,1035.551Zm0-18.511a7.909,7.909,0,1,0,7.909,7.909A7.919,7.919,0,0,0,1376.221,1017.04Z" transform="translate(-1365.619 -1014.348)" fill="#fcf7f4"/>
              </g>
              <g id="Group_24" data-name="Group 24" transform="translate(26.204)">
                <path id="Path_29" data-name="Path 29" d="M1419.21,1035.551a10.6,10.6,0,1,1,10.6-10.6A10.613,10.613,0,0,1,1419.21,1035.551Zm0-18.511a7.909,7.909,0,1,0,7.909,7.909A7.919,7.919,0,0,0,1419.21,1017.04Z" transform="translate(-1408.608 -1014.348)" fill="#fcf7f4"/>
              </g>
            </g>
            <g id="Group_28" data-name="Group 28" transform="translate(26.275)">
              <g id="Group_26" data-name="Group 26">
                <path id="Path_30" data-name="Path 30" d="M1419.326,1035.551a10.6,10.6,0,1,1,10.6-10.6A10.613,10.613,0,0,1,1419.326,1035.551Zm0-18.511a7.909,7.909,0,1,0,7.909,7.909A7.918,7.918,0,0,0,1419.326,1017.04Z" transform="translate(-1408.725 -1014.348)" fill="#fcf7f4"/>
              </g>
              <g id="Group_27" data-name="Group 27" transform="translate(26.204)">
                <path id="Path_31" data-name="Path 31" d="M1462.315,1035.551a10.6,10.6,0,1,1,10.6-10.6A10.613,10.613,0,0,1,1462.315,1035.551Zm0-18.511a7.909,7.909,0,1,0,7.909,7.909A7.918,7.918,0,0,0,1462.315,1017.04Z" transform="translate(-1451.714 -1014.348)" fill="#fcf7f4"/>
              </g>
            </g>
          </g>
        </g>
        <circle id="Ellipse_1" data-name="Ellipse 1" cx="62.823" cy="62.823" r="62.823" transform="translate(46.545 120.685) rotate(-45)" fill="url(#linear-gradient-2)"/>
        <path id="Path_32" data-name="Path 32" d="M1294.259,1168.918l-.2-.145c-3.212-2.337-7.708-2.1-9.623.534l-3.569,4.44v-35.466c0-3.255-1.961-6.012-5.216-6.012h-.2a6.19,6.19,0,0,0-6.116,6.012v21.536h-1.281V1125.2a6.087,6.087,0,0,0-12.173,0v34.621h-.819c.068,0-.462-.581-.462-.957v-26.572c0-3.255-2.066-5.785-5.321-5.785h-.2c-3.255,0-6.652,2.53-6.652,5.785v26.572c0,.376.8.957.869.957h-2.15v-13.145c0-3.254-1.8-5.435-5.052-5.435h-.2c-3.255,0-6.28,2.18-6.28,5.435v49.847c0,11.586,9.778,20.316,21.363,20.316h9.59a20.692,20.692,0,0,0,20.85-18.378l15.188-20.709C1298.523,1175.118,1297.471,1171.255,1294.259,1168.918Z" transform="translate(-1128.393 -1047.703)" fill="#fff"/>
      </g>
      <g id="Group_38" data-name="Group 38" transform="translate(926.195 190.429)">
        <path id="Path_33" data-name="Path 33" d="M2008.763,1255.82c-9.118.42-17.943.156-23.835-.147,5.365-3.819,17.725-12.126,28.067-15.434l7.1-.425s2.406,3.659,3.264,12.032C2022.183,1253.313,2018.743,1255.361,2008.763,1255.82Z" transform="translate(-1781.767 -745.216)" fill="#0d0060"/>
        <path id="Path_34" data-name="Path 34" d="M1984.471,1263.433l.073-.052c5.892.3,14.717.567,23.835.147,9.98-.459,13.42-2.506,14.6-3.974.04.386.08.769.113,1.175a3.324,3.324,0,0,1-3.054,3.59c-7.467.564-25.98,1.843-34.908,1.375A1.246,1.246,0,0,1,1984.471,1263.433Z" transform="translate(-1781.383 -752.923)" fill="#0d0060"/>
        <path id="Path_35" data-name="Path 35" d="M2130.984,1253.645c.667-4.28,1.738-10.468,2.565-12.049,1.3-2.482,5.74,0,5.74,0a11.8,11.8,0,0,1,4.554,3.878c.915,1.545,3.446,5.942,5.16,8.926a2.006,2.006,0,0,1,.269,1.063l-17.789.622A3.554,3.554,0,0,1,2130.984,1253.645Z" transform="translate(-1838.779 -745.481)" fill="#0d0060"/>
        <path id="Path_36" data-name="Path 36" d="M2149.621,1265.052a2.027,2.027,0,0,1-1.971,1.969l-12.673.349a3.577,3.577,0,0,1-3.145-1.7Z" transform="translate(-1839.127 -755.07)" fill="#0d0060"/>
        <path id="Path_37" data-name="Path 37" d="M2128.782,1217.54c.154.513,2.452,11.657,3.459,16.547a2.793,2.793,0,0,0,2.874,2.232c.753-.038,1.629-.105,2.547-.224a3.371,3.371,0,0,0,2.933-3.214c.163-4.284.243-12.509-1.33-15.7C2137.094,1212.788,2128.782,1217.54,2128.782,1217.54Z" transform="translate(-1837.936 -735.652)" fill="#f48f8f"/>
        <path id="Path_38" data-name="Path 38" d="M2038.562,1221.926c-.986-.031.393,5.09-1.1,10.124a2.588,2.588,0,0,1-2.37,2.041c-.767.01-1.676,0-2.6-.079a2.859,2.859,0,0,1-2.633-2.576l-1.214-13.057Z" transform="translate(-1798.837 -736.847)" fill="#f48f8f"/>
        <path id="Path_39" data-name="Path 39" d="M1999.672,992.433c.44,2.142,15.972,92.735,16.914,139.613a1.6,1.6,0,0,0,1.373,1.554,31.36,31.36,0,0,0,9.535-.062,1.125,1.125,0,0,0,.927-1.032c.543-8.736,4.908-82.6-.438-117.366,0,0,44.162,92.944,50.856,118.572a1.348,1.348,0,0,0,1.379,1.009,33.385,33.385,0,0,0,8.948-1.59,2.338,2.338,0,0,0,1.474-2.748c-3.74-15.337-29.95-121.008-47.747-144.29Z" transform="translate(-1787.524 -646.149)" fill="#71716f"/>
        <path id="Path_40" data-name="Path 40" d="M2041.957,1030.08a.58.58,0,0,0,.415-.985l-5.913-6.047a.58.58,0,0,0-.829.811l5.914,6.047A.576.576,0,0,0,2041.957,1030.08Z" transform="translate(-1801.499 -660.51)" fill="url(#linear-gradient-3)"/>
        <path id="Path_41" data-name="Path 41" d="M1891.5,804.334a56.052,56.052,0,0,0,29.37.071c12.924-3.389,38.4-8.994,55.749-5.87l1.441,45.385-59.3,6.778-.533-12.051s-36.054-5.2-55.555-28.909a96.618,96.618,0,0,0,10.9-14.763A46.608,46.608,0,0,0,1891.5,804.334Z" transform="translate(-1734.029 -571.526)" fill="#739af0"/>
        <path id="Path_42" data-name="Path 42" d="M1844.39,735.66l4.573-2.008s-.227,22.842,16.794,37.38a96.612,96.612,0,0,1-10.9,14.763C1845.249,774.11,1839.658,757.931,1844.39,735.66Z" transform="translate(-1726.224 -547.581)" fill="#f48f8f"/>
        <path id="Path_43" data-name="Path 43" d="M1992.091,759.435s3.443,20.542,3.9,27c0,0-16.626,4.592-20.966,2.13l.544-24.849Z" transform="translate(-1777.902 -557.648)" fill="#f48f8f"/>
        <path id="Path_9020" data-name="Path 9020" d="M197.5,217.195s15.947-3.408,16.407-9.991-16.407,6.386-16.407,6.386Z" fill="#e68181"/>
        <g id="Group_33" data-name="Group 33" transform="translate(128.107 264.455)">
          <path id="Path_44" data-name="Path 44" d="M1871.685,863.876l198.878-1.628a9.955,9.955,0,0,1,10.021,10.031l-1.021,133.976a9.955,9.955,0,0,1-10.254,9.875l-196.251-7.211a9.956,9.956,0,0,1-9.655-9.823L1861.8,873.958A9.955,9.955,0,0,1,1871.685,863.876Z" transform="translate(-1861.797 -862.248)" fill="#f89f1b"/>
          <g id="Group_32" data-name="Group 32" transform="translate(8.712 8.711)">
            <path id="Path_45" data-name="Path 45" d="M2075.195,1013l-196.3-7.211h0a1.241,1.241,0,0,1-1.207-1.228l-1.606-125.135a1.246,1.246,0,0,1,1.235-1.26l198.877-1.628a1.212,1.212,0,0,1,.889.366,1.224,1.224,0,0,1,.362.888l-1.02,133.974A1.245,1.245,0,0,1,2075.195,1013Zm1.01-135.822-198.875,1.628a.606.606,0,0,0-.6.611l1.606,125.135a.6.6,0,0,0,.584.6h0l196.285,7.211a.6.6,0,0,0,.585-.6l1.021-133.974a.583.583,0,0,0-.176-.432A.577.577,0,0,0,2076.2,877.18Z" transform="translate(-1876.089 -876.539)" fill="#fff"/>
          </g>
        </g>
        <path id="Path_46" data-name="Path 46" d="M2025.733,825.309l14.555-24.494s30.431,26.07,39.634,62.326l-16.14,10.142C2057.16,861.452,2045.62,845.7,2025.733,825.309Z" transform="translate(-1797.7 -573.805)" fill="#739af0"/>
        <path id="Path_47" data-name="Path 47" d="M1857.372,705.7v9.172s-7.467,9.5-17.19,9.873c0,0-8.564-.563-8.274-6.906l13.7-2.617a65.631,65.631,0,0,0,7.356-2.567S1854.142,705.992,1857.372,705.7Z" transform="translate(-1722.016 -536.668)" fill="#f48f8f"/>
        <g id="Group_35" data-name="Group 35">
          <g id="Group_34" data-name="Group 34">
            <path id="Path_48" data-name="Path 48" d="M1658.355,446.03l208.323-17.615a7.347,7.347,0,0,1,7.948,6.809l11.17,160.035a7.34,7.34,0,0,1-6.987,7.85c-37.776,1.724-205.49,9.4-212.854,10.271-7.277.856-13.016-127.945-14.322-159.734A7.343,7.343,0,0,1,1658.355,446.03Z" transform="translate(-1651.627 -428.388)" fill="#fcb957"/>
            <path id="Path_49" data-name="Path 49" d="M1673.277,610.9l-.066-.256c-3.724-14.533-8.215-74.7-11.441-153.286a1.16,1.16,0,0,1,1.066-1.2l208.322-17.613a1.158,1.158,0,0,1,.861.279,1.144,1.144,0,0,1,.4.8l11.169,160.035a1.161,1.161,0,0,1-1.062,1.243h-.038c-30.024,1.369-181.2,8.283-208.947,9.986Zm197.98-171.724-.048,0-208.319,17.613a.521.521,0,0,0-.48.54c3.206,78.088,7.656,137.962,11.357,152.9,28.432-1.73,178.76-8.605,208.691-9.97l.031,0a.516.516,0,0,0,.46-.558L1871.78,439.661a.5.5,0,0,0-.18-.361A.509.509,0,0,0,1871.257,439.173Z" transform="translate(-1655.587 -432.35)" fill="#fff"/>
          </g>
          <path id="Path_50" data-name="Path 50" d="M1718.243,624.017,1854.9,613.7a5.516,5.516,0,0,0,4.114-8.647l-61.046-87.883a5.515,5.515,0,0,0-9.706,1.241l-21.8,59.212a5.516,5.516,0,0,1-8.587,2.429l-11.3-8.888a5.516,5.516,0,0,0-8.163,1.536l-25.337,43.023A5.516,5.516,0,0,0,1718.243,624.017Z" transform="translate(-1675.318 -462.127)" fill="#fff" opacity="0.889"/>
          <circle id="Ellipse_2" data-name="Ellipse 2" cx="19.701" cy="19.701" r="19.701" transform="matrix(0.661, -0.75, 0.75, 0.661, 142.133, 50.417)" fill="#fff" opacity="0.889"/>
        </g>
        <g id="Group_36" data-name="Group 36" transform="translate(192.466 296.363)">
          <path id="Path_51" data-name="Path 51" d="M2012.417,1004.665a45.035,45.035,0,1,1,45.035-45.035A45.086,45.086,0,0,1,2012.417,1004.665Zm0-82.523a37.488,37.488,0,1,0,37.488,37.488A37.531,37.531,0,0,0,2012.417,922.142Z" transform="translate(-1967.382 -914.595)" fill="#fff"/>
          <path id="Path_52" data-name="Path 52" d="M2018.12,993.328V960.951a4.464,4.464,0,0,1,6.741-3.839l27.282,16.189a4.463,4.463,0,0,1,0,7.677l-27.282,16.189A4.464,4.464,0,0,1,2018.12,993.328Z" transform="translate(-1987.193 -930.95)" fill="#fff" fill-rule="evenodd"/>
        </g>
        <path id="Path_53" data-name="Path 53" d="M2095.341,941.647c.566-2.6,1.829-13.048-8.669-30.775l16.736-9.733s6.982,27.65-.928,45.238l.012.026s1.832,23.22-3.476,25.372a11.824,11.824,0,0,1-4.881.931,3.389,3.389,0,0,1-3.252-3.233V951.632s-.542,5.073-3.124,3.9C2085.307,954.417,2091.411,943.381,2095.341,941.647Z" transform="translate(-1821.494 -612.978)" fill="#f48f8f"/>
        <g id="Group_37" data-name="Group 37" transform="translate(188.346 168.986)">
          <path id="Path_54" data-name="Path 54" d="M1968.369,728.372s-5.527,12.7-5.9,19.359-1.807,10.988,5.9,12.33,14.2-2.5,17.712-9.135c0,0,5.51-10.228,4.273-14.416S1968.369,728.372,1968.369,728.372Z" transform="translate(-1961.208 -714.506)" fill="#f48f8f"/>
          <path id="Path_55" data-name="Path 55" d="M1982.863,737.272h-.974s4.013-8.232.487-9.678-17.5-4.295-20.509-9.251c-2.906-4.778-.314-10.95,3.562-12.678a.519.519,0,0,1,.66.244l.321.608a.523.523,0,0,0,.965-.1h0a.521.521,0,0,1,.938-.143c.922,1.482,3.42,3.892,10.12,5.129,9.507,1.755,15.792,5.6,15.946,12.172a.524.524,0,0,0,.811.429c.7-.428,1.825-.628,3.326.633,2.611,2.195,1.542,7.889-4.18,12.573a.52.52,0,0,0,.025.839c1.037.675,2.583,2.282-1.424,4.424-4.1,2.191-6.525,1.952-7.44,1.718a.524.524,0,0,1-.4-.541l.36-5.823a.523.523,0,0,0-.522-.555Z" transform="translate(-1960.623 -705.623)" fill="#0d5d6c"/>
          <path id="Path_56" data-name="Path 56" d="M1996.717,755.547s2.108-8.11,5.744-5.836-1.887,9.087-4.81,9.39Z" transform="translate(-1974.716 -722.681)" fill="#f48f8f"/>
        </g>
      </g>
      <g id="Group_50" data-name="Group 50" transform="translate(45.504 476.959)">
        <g id="Group_48" data-name="Group 48">
          <g id="Group_47" data-name="Group 47">
            <rect id="Rectangle_10" data-name="Rectangle 10" width="308.797" height="257.544" rx="13.376" fill="url(#linear-gradient-4)"/>
            <g id="Group_39" data-name="Group 39" transform="translate(15.737 40.297)" opacity="0.77">
              <path id="Rectangle_11" data-name="Rectangle 11" d="M13.376,0h251.1a13.375,13.375,0,0,1,13.375,13.375V188.4a13.375,13.375,0,0,1-13.375,13.375H13.375A13.375,13.375,0,0,1,0,188.4V13.376A13.376,13.376,0,0,1,13.376,0Z" fill="#fff"/>
            </g>
            <g id="Group_46" data-name="Group 46" transform="translate(210.693 8.094)" opacity="0.77">
              <g id="Group_42" data-name="Group 42">
                <g id="Group_40" data-name="Group 40">
                  <path id="Path_57" data-name="Path 57" d="M554.244,828.218a12.15,12.15,0,1,1,12.15-12.15A12.163,12.163,0,0,1,554.244,828.218Zm0-21.214a9.064,9.064,0,1,0,9.064,9.064A9.074,9.074,0,0,0,554.244,807Z" transform="translate(-542.095 -803.919)" fill="#fcf7f4"/>
                </g>
                <g id="Group_41" data-name="Group 41" transform="translate(30.03)">
                  <path id="Path_58" data-name="Path 58" d="M603.512,828.218a12.15,12.15,0,1,1,12.149-12.15A12.163,12.163,0,0,1,603.512,828.218Zm0-21.214a9.064,9.064,0,1,0,9.064,9.064A9.075,9.075,0,0,0,603.512,807Z" transform="translate(-591.362 -803.919)" fill="#fcf7f4"/>
                </g>
              </g>
              <g id="Group_45" data-name="Group 45" transform="translate(30.112)">
                <g id="Group_43" data-name="Group 43">
                  <path id="Path_59" data-name="Path 59" d="M603.645,828.218a12.15,12.15,0,1,1,12.149-12.15A12.163,12.163,0,0,1,603.645,828.218Zm0-21.214a9.064,9.064,0,1,0,9.064,9.064A9.074,9.074,0,0,0,603.645,807Z" transform="translate(-591.496 -803.919)" fill="#fcf7f4"/>
                </g>
                <g id="Group_44" data-name="Group 44" transform="translate(30.03)">
                  <path id="Path_60" data-name="Path 60" d="M652.912,828.218a12.15,12.15,0,1,1,12.15-12.15A12.163,12.163,0,0,1,652.912,828.218Zm0-21.214a9.064,9.064,0,1,0,9.065,9.064A9.074,9.074,0,0,0,652.912,807Z" transform="translate(-640.763 -803.919)" fill="#fcf7f4"/>
                </g>
              </g>
            </g>
          </g>
        </g>
        <path id="Path_61" data-name="Path 61" d="M413.9,900.4s-21.939,15.188-56.816,11.25l3.938,87.755c1.855,19.853,19.205,37.031,37.9,43.957l14.974,5.546,14.763-5.546c18.7-6.925,35.837-24.1,37.693-43.957l4.078-87.755C435.552,915.59,413.9,900.4,413.9,900.4Z" transform="translate(-259.161 -833.498)" fill="url(#linear-gradient-5)"/>
        <g id="Group_49" data-name="Group 49" transform="translate(119.781 99.764)">
          <rect id="Rectangle_12" data-name="Rectangle 12" width="90.35" height="12.162" transform="matrix(0.671, -0.742, 0.742, 0.671, 0, 67.01)" fill="#fff"/>
          <rect id="Rectangle_13" data-name="Rectangle 13" width="12.162" height="90.35" transform="matrix(0.742, -0.671, 0.671, 0.742, 0, 8.158)" fill="#fff"/>
        </g>
      </g>
      <g id="Group_52" data-name="Group 52" transform="translate(1040.965 702.804)">
        <g id="Group_51" data-name="Group 51">
          <path id="Path_62" data-name="Path 62" d="M1850.828,1328.828h218.118v-43.657H1850.828C1855.5,1285.173,1855.5,1328.828,1850.828,1328.828Z" transform="translate(-1844.177 -1275.301)" fill="#22b7d3"/>
          <path id="Path_63" data-name="Path 63" d="M2064.686,1311.581V1291.6c0-7.043-4.31-12.752-9.627-12.752H1847.487a7.572,7.572,0,0,1-7.571-7.572h0a2.3,2.3,0,0,1,2.3-2.3h226.859c5.2,0,13.463,8.179,13.463,18.27v27.9c0,9.513-8.019,17.226-12.925,17.226h-226.2a3.494,3.494,0,0,1-3.493-3.494h0a6.378,6.378,0,0,1,6.377-6.378h210.146C2060.993,1322.5,2064.686,1317.614,2064.686,1311.581Z" transform="translate(-1839.916 -1268.978)" fill="#25cbe8"/>
        </g>
        <path id="Path_64" data-name="Path 64" d="M2067.326,1300.1H1862.81a.641.641,0,1,1,0-1.281h204.516a.641.641,0,1,1,0,1.281Z" transform="translate(-1848.605 -1280.629)" fill="#fff"/>
        <path id="Path_65" data-name="Path 65" d="M2067.326,1310.729H1862.81a.641.641,0,0,1,0-1.281h204.516a.641.641,0,0,1,0,1.281Z" transform="translate(-1848.605 -1284.78)" fill="#fff"/>
        <path id="Path_66" data-name="Path 66" d="M2067.326,1321.359H1862.81a.641.641,0,0,1,0-1.281h204.516a.641.641,0,0,1,0,1.281Z" transform="translate(-1848.605 -1288.931)" fill="#fff"/>
        <path id="Path_67" data-name="Path 67" d="M2067.326,1331.99H1862.81a.641.641,0,0,1,0-1.281h204.516a.641.641,0,0,1,0,1.281Z" transform="translate(-1848.605 -1293.081)" fill="#fff"/>
        <path id="Path_68" data-name="Path 68" d="M2067.326,1342.622H1862.81a.641.641,0,0,1,0-1.281h204.516a.641.641,0,0,1,0,1.281Z" transform="translate(-1848.605 -1297.233)" fill="#fff"/>
      </g>
      <g id="Group_53" data-name="Group 53" transform="translate(923.507 765.596)">
        <rect id="Rectangle_14" data-name="Rectangle 14" width="393.794" height="95.056" rx="36.335" fill="#0992ac"/>
        <rect id="Rectangle_15" data-name="Rectangle 15" width="46.262" height="73.206" rx="12.301" transform="translate(44.504 10.925)" fill="#d2fdfd" opacity="0.5"/>
        <rect id="Rectangle_16" data-name="Rectangle 16" width="17.358" height="73.206" rx="8.679" transform="translate(97.571 10.925)" fill="#d2fdfd" opacity="0.5"/>
      </g>
      <g id="Group_56" data-name="Group 56" transform="translate(111.37 4.666)">
        <g id="Group_54" data-name="Group 54" transform="translate(0 46.457)">
          <path id="Path_69" data-name="Path 69" d="M966.391,201.1l-3.726.639a.639.639,0,0,1-.216-1.259h0l3.728-.622a.63.63,0,0,1,.21,1.242Z" transform="translate(-567.5 -199.846)" fill="#fcb957"/>
          <path id="Path_70" data-name="Path 70" d="M946.048,204.7l-3.71.717a.666.666,0,0,1-.253-1.307h0l3.714-.7a.657.657,0,0,1,.246,1.291Z" transform="translate(-559.545 -201.233)" fill="#fcb957"/>
          <path id="Path_71" data-name="Path 71" d="M925.791,208.736l-3.694.8a.693.693,0,0,1-.292-1.356h0l3.7-.78a.685.685,0,0,1,.286,1.34Z" transform="translate(-551.623 -202.788)" fill="#fcb957"/>
          <path id="Path_72" data-name="Path 72" d="M905.626,213.2l-3.676.873a.721.721,0,0,1-.333-1.4h0l3.68-.856a.713.713,0,0,1,.326,1.387Z" transform="translate(-543.738 -204.51)" fill="#fcb957"/>
          <path id="Path_73" data-name="Path 73" d="M885.564,218.08l-3.657.95a.748.748,0,1,1-.376-1.449h0l3.661-.934a.74.74,0,0,1,.369,1.434Z" transform="translate(-535.893 -206.397)" fill="#fcb957"/>
          <path id="Path_74" data-name="Path 74" d="M865.61,223.38l-3.637,1.026a.776.776,0,0,1-.422-1.494h0L865.2,221.9a.768.768,0,0,1,.414,1.478Z" transform="translate(-528.09 -208.447)" fill="#fcb957"/>
          <path id="Path_75" data-name="Path 75" d="M845.773,229.095l-3.615,1.1a.8.8,0,0,1-.468-1.538h0l3.619-1.085a.8.8,0,0,1,.46,1.523Z" transform="translate(-520.333 -210.658)" fill="#fcb957"/>
          <path id="Path_76" data-name="Path 76" d="M826.06,235.219l-3.591,1.175a.831.831,0,0,1-.518-1.58h0l3.6-1.159a.823.823,0,0,1,.508,1.565Z" transform="translate(-512.625 -213.031)" fill="#fcb957"/>
          <path id="Path_77" data-name="Path 77" d="M806.478,241.746l-3.566,1.248a.858.858,0,1,1-.567-1.62l0,0,3.572-1.234a.851.851,0,0,1,.558,1.607Z" transform="translate(-504.968 -215.56)" fill="#fcb957"/>
          <path id="Path_78" data-name="Path 78" d="M787.036,248.676,783.5,250a.886.886,0,0,1-.621-1.66h0l3.546-1.307a.878.878,0,0,1,.611,1.647Z" transform="translate(-497.366 -218.248)" fill="#fcb957"/>
          <path id="Path_79" data-name="Path 79" d="M767.741,256l-3.512,1.394a.914.914,0,0,1-.674-1.7l0,0,3.518-1.378a.906.906,0,0,1,.664,1.685Z" transform="translate(-489.821 -221.09)" fill="#fcb957"/>
          <path id="Path_80" data-name="Path 80" d="M748.6,263.722l-3.483,1.465a.942.942,0,0,1-.73-1.736h0l3.49-1.451a.933.933,0,0,1,.72,1.723Z" transform="translate(-482.337 -224.086)" fill="#fcb957"/>
          <path id="Path_81" data-name="Path 81" d="M729.623,271.829l-3.453,1.536a.969.969,0,1,1-.788-1.771l0,0,3.46-1.521a.961.961,0,0,1,.777,1.758Z" transform="translate(-474.917 -227.234)" fill="#fcb957"/>
          <path id="Path_82" data-name="Path 82" d="M710.814,280.321l-3.421,1.606a1,1,0,0,1-.847-1.8l0,0,3.428-1.59a.988.988,0,0,1,.836,1.791Z" transform="translate(-467.563 -230.533)" fill="#fcb957"/>
          <path id="Path_83" data-name="Path 83" d="M692.182,289.193l-3.388,1.676a1.024,1.024,0,1,1-.908-1.837l0,0,3.4-1.66a1.016,1.016,0,0,1,.9,1.823Z" transform="translate(-460.279 -233.98)" fill="#fcb957"/>
          <path id="Path_84" data-name="Path 84" d="M673.735,298.442l-3.353,1.744a1.052,1.052,0,0,1-.971-1.867l0,0,3.361-1.729a1.044,1.044,0,0,1,.959,1.854Z" transform="translate(-453.066 -237.574)" fill="#fcb957"/>
          <path id="Path_85" data-name="Path 85" d="M655.481,308.063l-3.318,1.812a1.079,1.079,0,1,1-1.034-1.9l0,0,3.326-1.8a1.071,1.071,0,0,1,1.022,1.882Z" transform="translate(-445.93 -241.314)" fill="#fcb957"/>
          <path id="Path_86" data-name="Path 86" d="M637.427,318.052l-3.281,1.877a1.107,1.107,0,1,1-1.1-1.921l0,0,3.288-1.863a1.1,1.1,0,0,1,1.088,1.91Z" transform="translate(-438.871 -245.199)" fill="#fcb957"/>
          <path id="Path_87" data-name="Path 87" d="M619.586,328.4l-3.244,1.939a1.126,1.126,0,1,1-1.155-1.932h0l3.247-1.935a1.123,1.123,0,0,1,1.151,1.929Z" transform="translate(-431.901 -249.227)" fill="#fcb957"/>
          <path id="Path_88" data-name="Path 88" d="M601.958,339.109l-3.2,2.005a1.135,1.135,0,0,1-1.2-1.924h0l3.207-2a1.132,1.132,0,0,1,1.2,1.921Z" transform="translate(-425.02 -253.405)" fill="#fcb957"/>
          <path id="Path_89" data-name="Path 89" d="M584.552,350.172l-3.162,2.07a1.145,1.145,0,0,1-1.253-1.916h0l3.166-2.064a1.141,1.141,0,0,1,1.248,1.911Z" transform="translate(-418.227 -257.723)" fill="#fcb957"/>
          <path id="Path_90" data-name="Path 90" d="M567.377,361.588l-3.12,2.133a1.154,1.154,0,0,1-1.3-1.905h0l3.123-2.128a1.151,1.151,0,0,1,1.3,1.9Z" transform="translate(-411.524 -262.178)" fill="#fcb957"/>
          <path id="Path_91" data-name="Path 91" d="M550.439,373.349l-3.076,2.2a1.164,1.164,0,0,1-1.353-1.894h0l3.078-2.191a1.161,1.161,0,0,1,1.348,1.89Z" transform="translate(-404.915 -266.77)" fill="#fcb957"/>
          <path id="Path_92" data-name="Path 92" d="M533.747,385.454l-3.03,2.259a1.173,1.173,0,0,1-1.4-1.881h0l3.033-2.254a1.17,1.17,0,0,1,1.4,1.877Z" transform="translate(-398.402 -271.495)" fill="#fcb957"/>
          <path id="Path_93" data-name="Path 93" d="M517.308,397.9l-2.982,2.32a1.183,1.183,0,0,1-1.453-1.868h0l2.986-2.316a1.18,1.18,0,0,1,1.448,1.864Z" transform="translate(-391.988 -276.353)" fill="#fcb957"/>
          <path id="Path_94" data-name="Path 94" d="M501.129,410.679,498.2,413.06a1.192,1.192,0,0,1-1.5-1.852h0l2.938-2.376a1.189,1.189,0,0,1,1.5,1.848Z" transform="translate(-385.676 -281.342)" fill="#fcb957"/>
          <path id="Path_95" data-name="Path 95" d="M485.22,423.788l-2.884,2.441a1.2,1.2,0,1,1-1.552-1.834h0l2.888-2.436a1.2,1.2,0,0,1,1.548,1.83Z" transform="translate(-379.47 -286.461)" fill="#fcb957"/>
          <path id="Path_96" data-name="Path 96" d="M469.587,437.225l-2.833,2.5a1.211,1.211,0,1,1-1.6-1.816h0l2.837-2.5a1.208,1.208,0,0,1,1.6,1.813Z" transform="translate(-373.373 -291.707)" fill="#fcb957"/>
          <path id="Path_97" data-name="Path 97" d="M454.239,450.983l-2.78,2.558a1.221,1.221,0,1,1-1.654-1.8h0l2.784-2.555a1.218,1.218,0,0,1,1.648,1.793Z" transform="translate(-367.387 -297.079)" fill="#fcb957"/>
          <path id="Path_98" data-name="Path 98" d="M439.182,465.059l-2.726,2.616a1.23,1.23,0,0,1-1.7-1.775h0l2.73-2.613a1.228,1.228,0,0,1,1.7,1.773Z" transform="translate(-361.516 -302.575)" fill="#fcb957"/>
          <path id="Path_99" data-name="Path 99" d="M424.426,479.448l-2.67,2.673A1.24,1.24,0,1,1,420,480.369h0l2.674-2.669a1.237,1.237,0,0,1,1.749,1.749Z" transform="translate(-355.762 -308.194)" fill="#fcb957"/>
          <path id="Path_100" data-name="Path 100" d="M409.977,494.146l-2.613,2.73a1.249,1.249,0,0,1-1.8-1.728h0l2.617-2.726a1.247,1.247,0,0,1,1.8,1.726Z" transform="translate(-350.129 -313.935)" fill="#fcb957"/>
          <path id="Path_101" data-name="Path 101" d="M395.841,509.149l-2.552,2.783a1.259,1.259,0,0,1-1.861-1.7l0,0,2.562-2.784a1.256,1.256,0,1,1,1.847,1.7Z" transform="translate(-344.619 -319.793)" fill="#fcb957"/>
          <path id="Path_102" data-name="Path 102" d="M382.077,524.466l-2.473,2.857a1.268,1.268,0,1,1-1.918-1.66h0l2.477-2.854a1.265,1.265,0,0,1,1.912,1.658Z" transform="translate(-339.261 -325.779)" fill="#fcb957"/>
          <path id="Path_103" data-name="Path 103" d="M368.876,540.223l-2.348,2.961a1.278,1.278,0,1,1-2-1.588v0l2.353-2.957a1.275,1.275,0,0,1,2,1.586Z" transform="translate(-334.135 -331.942)" fill="#fcb957"/>
          <path id="Path_104" data-name="Path 104" d="M356.49,556.584l-2.174,3.09a1.287,1.287,0,1,1-2.107-1.48l0,0,2.178-3.087a1.285,1.285,0,0,1,2.1,1.479Z" transform="translate(-329.343 -338.347)" fill="#fcb957"/>
          <path id="Path_105" data-name="Path 105" d="M345.211,573.681l-1.941,3.241a1.3,1.3,0,1,1-2.225-1.332v0l1.946-3.239a1.294,1.294,0,0,1,2.219,1.332Z" transform="translate(-325.002 -345.048)" fill="#fcb957"/>
          <path id="Path_106" data-name="Path 106" d="M335.367,591.6l-1.644,3.4a1.306,1.306,0,1,1-2.352-1.137v0l1.649-3.4a1.3,1.3,0,0,1,2.346,1.136Z" transform="translate(-321.246 -352.08)" fill="#fcb957"/>
          <path id="Path_107" data-name="Path 107" d="M327.318,610.371l-1.271,3.559a1.316,1.316,0,0,1-2.478-.886v0l1.277-3.556a1.313,1.313,0,0,1,2.472.886Z" transform="translate(-318.22 -359.453)" fill="#fcb957"/>
          <path id="Path_108" data-name="Path 108" d="M321.5,629.935l-.831,3.686a1.325,1.325,0,0,1-2.586-.583v0l.837-3.685a1.322,1.322,0,0,1,2.58.584Z" transform="translate(-316.098 -367.148)" fill="#fcb957"/>
          <path id="Path_109" data-name="Path 109" d="M318.187,650.09l-.347,3.763a1.335,1.335,0,1,1-2.658-.244v0l.352-3.762a1.332,1.332,0,0,1,2.653.246Z" transform="translate(-314.974 -375.079)" fill="#fcb957"/>
          <path id="Path_110" data-name="Path 110" d="M317.525,670.52l.2,3.774a1.344,1.344,0,1,1-2.685.142v0l-.193-3.774a1.342,1.342,0,0,1,2.68-.14Z" transform="translate(-314.844 -383.128)" fill="#fcb957"/>
          <path id="Path_111" data-name="Path 111" d="M319.715,690.825l.811,3.691a1.354,1.354,0,0,1-2.645.582v0l-.805-3.692a1.351,1.351,0,0,1,2.639-.578Z" transform="translate(-315.703 -391.138)" fill="#fcb957"/>
          <path id="Path_112" data-name="Path 112" d="M325.308,710.424l1.469,3.482a1.363,1.363,0,1,1-2.512,1.061v0l-1.464-3.485a1.36,1.36,0,0,1,2.508-1.056Z" transform="translate(-317.909 -398.88)" fill="#fcb957"/>
          <path id="Path_113" data-name="Path 113" d="M334.472,728.607l2.119,3.127a1.373,1.373,0,1,1-2.272,1.54v0l-2.115-3.129a1.37,1.37,0,0,1,2.269-1.536Z" transform="translate(-321.53 -406.07)" fill="#fcb957"/>
          <path id="Path_114" data-name="Path 114" d="M347,744.654l2.672,2.667a1.382,1.382,0,1,1-1.953,1.957l0,0-2.668-2.672A1.38,1.38,0,0,1,347,744.654Z" transform="translate(-326.479 -412.413)" fill="#fcb957"/>
          <path id="Path_115" data-name="Path 115" d="M362.285,758.138l3.095,2.164a1.392,1.392,0,0,1-1.6,2.281l0,0-3.091-2.168a1.389,1.389,0,0,1,1.594-2.275Z" transform="translate(-332.515 -417.737)" fill="#fcb957"/>
          <path id="Path_116" data-name="Path 116" d="M379.633,768.889l3.395,1.659a1.4,1.4,0,0,1-1.231,2.518h0L378.4,771.4a1.4,1.4,0,0,1,1.229-2.512Z" transform="translate(-339.355 -421.978)" fill="#fcb957"/>
          <path id="Path_117" data-name="Path 117" d="M398.423,776.939l3.593,1.169a1.411,1.411,0,1,1-.873,2.683h0l-3.592-1.173a1.408,1.408,0,0,1,.873-2.677Z" transform="translate(-346.758 -425.149)" fill="#fcb957"/>
          <path id="Path_118" data-name="Path 118" d="M418.152,782.375l3.718.7a1.42,1.42,0,0,1-.524,2.792h0l-3.716-.7a1.417,1.417,0,0,1,.525-2.786Z" transform="translate(-354.526 -427.289)" fill="#fcb957"/>
          <path id="Path_119" data-name="Path 119" d="M438.425,785.277l3.771.235a1.43,1.43,0,1,1-.177,2.854h0l-3.771-.24a1.427,1.427,0,0,1,.18-2.848Z" transform="translate(-362.505 -428.431)" fill="#fcb957"/>
          <path id="Path_120" data-name="Path 120" d="M458.9,785.534l3.772-.228a1.439,1.439,0,0,1,.173,2.873h0l-3.772.222a1.436,1.436,0,0,1-.171-2.868Z" transform="translate(-370.563 -428.442)" fill="#fcb957"/>
          <path id="Path_121" data-name="Path 121" d="M479.257,783.1l1.858-.343,1.25-.236.578-.118a1.448,1.448,0,1,1,.58,2.838h0l-.578.118-1.3.243-1.858.341a1.446,1.446,0,0,1-.524-2.844Z" transform="translate(-378.578 -427.3)" fill="#fcb957"/>
          <path id="Path_122" data-name="Path 122" d="M499.239,778.3l3.62-1.081a1.458,1.458,0,0,1,.835,2.795h0l-3.622,1.076a1.455,1.455,0,0,1-.831-2.79Z" transform="translate(-386.437 -425.261)" fill="#fcb957"/>
          <path id="Path_123" data-name="Path 123" d="M518.7,771.571l3.505-1.409a1.468,1.468,0,1,1,1.095,2.724h0l-3.508,1.4a1.465,1.465,0,0,1-1.09-2.72Z" transform="translate(-394.08 -422.489)" fill="#fcb957"/>
          <path id="Path_124" data-name="Path 124" d="M537.516,763.178l3.379-1.689a1.477,1.477,0,1,1,1.321,2.642h0l-3.382,1.684a1.474,1.474,0,0,1-1.316-2.639Z" transform="translate(-401.469 -419.083)" fill="#fcb957"/>
          <path id="Path_125" data-name="Path 125" d="M555.661,753.375l3.254-1.922a1.487,1.487,0,0,1,1.512,2.56h0l-3.256,1.917a1.484,1.484,0,0,1-1.508-2.556Z" transform="translate(-408.588 -415.144)" fill="#fcb957"/>
          <path id="Path_126" data-name="Path 126" d="M573.141,742.408l3.133-2.111a1.5,1.5,0,1,1,1.673,2.481l0,0-3.137,2.107a1.494,1.494,0,0,1-1.667-2.479Z" transform="translate(-415.441 -410.769)" fill="#fcb957"/>
          <path id="Path_127" data-name="Path 127" d="M589.994,730.5l3.029-2.266a1.506,1.506,0,1,1,1.8,2.411l0,0-3.032,2.261a1.5,1.5,0,0,1-1.8-2.409Z" transform="translate(-422.043 -406.043)" fill="#fcb957"/>
          <path id="Path_128" data-name="Path 128" d="M606.312,717.838l2.933-2.382a1.515,1.515,0,1,1,1.912,2.352h0l-2.936,2.379a1.513,1.513,0,0,1-1.906-2.35Z" transform="translate(-428.431 -401.037)" fill="#fcb957"/>
          <path id="Path_129" data-name="Path 129" d="M622.158,704.594l2.857-2.474a1.525,1.525,0,0,1,2,2.306h0l-2.861,2.469a1.522,1.522,0,0,1-1.991-2.3Z" transform="translate(-434.632 -395.818)" fill="#fcb957"/>
          <path id="Path_130" data-name="Path 130" d="M637.634,690.908l2.792-2.538a1.535,1.535,0,0,1,2.065,2.271l0,0-2.805,2.54a1.531,1.531,0,1,1-2.056-2.27Z" transform="translate(-440.681 -390.438)" fill="#fcb957"/>
          <path id="Path_131" data-name="Path 131" d="M652.7,676.8l2.684-2.66a1.544,1.544,0,1,1,2.175,2.191l0,0-2.687,2.656a1.541,1.541,0,0,1-2.169-2.19Z" transform="translate(-446.585 -384.861)" fill="#fcb957"/>
          <path id="Path_132" data-name="Path 132" d="M666.914,661.837l2.459-2.869a1.553,1.553,0,0,1,2.36,2.021l0,0-2.463,2.865a1.551,1.551,0,0,1-2.354-2.019Z" transform="translate(-452.167 -378.902)" fill="#fcb957"/>
          <path id="Path_133" data-name="Path 133" d="M679.609,645.605l2.088-3.145a1.563,1.563,0,0,1,2.605,1.727l0,0-2.093,3.142a1.56,1.56,0,0,1-2.6-1.727Z" transform="translate(-457.167 -372.395)" fill="#fcb957"/>
          <path id="Path_134" data-name="Path 134" d="M689.948,627.83l.782-1.721.518-1.142.229-.545a1.572,1.572,0,1,1,2.9,1.218v0l-.23.544c-.152.334-.354.78-.556,1.224l-.784,1.72a1.569,1.569,0,0,1-2.857-1.3Z" transform="translate(-461.251 -365.249)" fill="#fcb957"/>
          <path id="Path_135" data-name="Path 135" d="M696.841,608.591l.765-3.7a1.582,1.582,0,1,1,3.1.64v0l-.771,3.7a1.579,1.579,0,0,1-3.092-.642Z" transform="translate(-463.985 -357.506)" fill="#fcb957"/>
          <path id="Path_136" data-name="Path 136" d="M699.322,588.435l-.1-3.777a1.591,1.591,0,0,1,3.182-.086v0l.094,3.777a1.588,1.588,0,0,1-3.176.082Z" transform="translate(-464.927 -349.46)" fill="#fcb957"/>
          <path id="Path_137" data-name="Path 137" d="M696.333,568.488l-1.111-3.612a1.6,1.6,0,0,1,3.059-.944v0l1.105,3.614a1.6,1.6,0,0,1-3.055.938Z" transform="translate(-463.338 -341.565)" fill="#fcb957"/>
          <path id="Path_138" data-name="Path 138" d="M687.641,550.442l-2.23-3.05a1.61,1.61,0,0,1,2.6-1.9l0,0,2.226,3.053a1.608,1.608,0,0,1-2.6,1.9Z" transform="translate(-459.413 -334.548)" fill="#fcb957"/>
          <path id="Path_139" data-name="Path 139" d="M673.378,536.49l-3.147-2.091A1.6,1.6,0,0,1,672,531.728l3.151,2.085a1.606,1.606,0,1,1-1.773,2.679Z" transform="translate(-453.328 -329.327)" fill="#fcb957"/>
          <path id="Path_140" data-name="Path 140" d="M655.155,528.249l-3.66-.934a1.592,1.592,0,0,1,.786-3.085l3.662.928a1.595,1.595,0,0,1-.783,3.092Z" transform="translate(-445.824 -326.485)" fill="#fcb957"/>
          <path id="Path_141" data-name="Path 141" d="M635.135,525.8l-3.778.053a1.581,1.581,0,0,1-.045-3.162l3.778-.058a1.584,1.584,0,1,1,.049,3.167Z" transform="translate(-437.803 -325.88)" fill="#fcb957"/>
          <path id="Path_142" data-name="Path 142" d="M614.952,527.556l-3.7.783a1.57,1.57,0,0,1-.652-3.071l3.7-.789a1.573,1.573,0,1,1,.656,3.076Z" transform="translate(-429.84 -326.588)" fill="#fcb957"/>
          <path id="Path_143" data-name="Path 143" d="M595.354,532.892l-3.536,1.333a1.559,1.559,0,0,1-1.1-2.916l3.533-1.34a1.562,1.562,0,0,1,1.107,2.922Z" transform="translate(-422.167 -328.705)" fill="#fcb957"/>
          <path id="Path_144" data-name="Path 144" d="M576.722,541l-3.33,1.786a1.547,1.547,0,0,1-1.465-2.726l3.327-1.792A1.551,1.551,0,1,1,576.724,541Z" transform="translate(-414.906 -331.914)" fill="#fcb957"/>
          <path id="Path_145" data-name="Path 145" d="M559.311,551.493l-1.526,1.074-1.53,1.111a1.537,1.537,0,0,1-1.807-2.486l1.528-1.113,1.563-1.105a1.54,1.54,0,0,1,1.777,2.516Z" transform="translate(-408.152 -336.055)" fill="#fcb957"/>
          <path id="Path_146" data-name="Path 146" d="M543.086,563.919l-2.889,2.435a1.525,1.525,0,0,1-1.968-2.331l2.885-2.44a1.529,1.529,0,1,1,1.974,2.335Z" transform="translate(-401.855 -340.948)" fill="#fcb957"/>
          <path id="Path_147" data-name="Path 147" d="M527.874,577.578l-2.7,2.645a1.514,1.514,0,0,1-2.123-2.16l2.691-2.65a1.518,1.518,0,0,1,2.13,2.163Z" transform="translate(-395.965 -346.319)" fill="#fcb957"/>
          <path id="Path_148" data-name="Path 148" d="M513.74,592.351l-2.492,2.839a1.5,1.5,0,0,1-2.261-1.981l2.488-2.844a1.506,1.506,0,0,1,2.267,1.984Z" transform="translate(-390.503 -352.127)" fill="#fcb957"/>
          <path id="Path_149" data-name="Path 149" d="M500.732,608.144l-2.28,3.013a1.492,1.492,0,0,1-2.381-1.8l2.274-3.017a1.5,1.5,0,0,1,2.389,1.8Z" transform="translate(-385.488 -358.333)" fill="#fcb957"/>
          <path id="Path_150" data-name="Path 150" d="M488.9,624.854l-2.058,3.171a1.481,1.481,0,0,1-2.486-1.61l2.053-3.175a1.484,1.484,0,0,1,2.493,1.612Z" transform="translate(-380.939 -364.898)" fill="#fcb957"/>
          <path id="Path_151" data-name="Path 151" d="M478.3,642.39l-1.827,3.31a1.47,1.47,0,0,1-2.575-1.418l1.821-3.313a1.473,1.473,0,1,1,2.582,1.42Z" transform="translate(-376.876 -371.787)" fill="#fcb957"/>
          <path id="Path_152" data-name="Path 152" d="M468.975,660.652l-1.587,3.432a1.459,1.459,0,0,1-2.649-1.223l1.581-3.435a1.462,1.462,0,0,1,2.656,1.223Z" transform="translate(-373.319 -378.961)" fill="#fcb957"/>
          <path id="Path_153" data-name="Path 153" d="M460.982,679.544l-1.344,3.534a1.426,1.426,0,0,1-2.669-1.007l1.325-3.541a1.436,1.436,0,1,1,2.69,1.006Z" transform="translate(-370.303 -386.388)" fill="#fcb957"/>
          <path id="Path_154" data-name="Path 154" d="M454.362,698.973l-1.086,3.621a1.393,1.393,0,0,1-2.67-.793l1.066-3.626a1.4,1.4,0,0,1,2.692.791Z" transform="translate(-367.831 -394.029)" fill="#fcb957"/>
          <path id="Path_155" data-name="Path 155" d="M449.172,718.84l-.818,3.689a1.359,1.359,0,0,1-2.655-.581l.8-3.693a1.369,1.369,0,1,1,2.676.578Z" transform="translate(-365.926 -401.841)" fill="#fcb957"/>
          <path id="Path_156" data-name="Path 156" d="M445.466,739.042l-.541,3.738a1.325,1.325,0,0,1-2.625-.372l.521-3.741a1.335,1.335,0,0,1,2.645.367Z" transform="translate(-364.606 -409.783)" fill="#fcb957"/>
          <path id="Path_157" data-name="Path 157" d="M443.293,759.479l-.254,3.769a1.292,1.292,0,0,1-2.579-.166l.233-3.771a1.3,1.3,0,0,1,2.6.16Z" transform="translate(-363.891 -417.816)" fill="#fcb957"/>
          <path id="Path_158" data-name="Path 158" d="M442.663,780.046l.041,3.781a1.259,1.259,0,0,1-2.517.034l-.062-3.781a1.269,1.269,0,0,1,2.537-.041Z" transform="translate(-363.761 -425.899)" fill="#fcb957"/>
          <path id="Path_159" data-name="Path 159" d="M443.49,800.62l.333,3.763a1.225,1.225,0,0,1-2.44.223l-.354-3.761a1.235,1.235,0,0,1,2.46-.231Z" transform="translate(-364.112 -433.983)" fill="#fcb957"/>
          <path id="Path_160" data-name="Path 160" d="M445.887,821.064l.616,3.726a1.192,1.192,0,0,1-2.35.394l-.636-3.722a1.2,1.2,0,0,1,2.369-.4Z" transform="translate(-365.079 -442.012)" fill="#fcb957"/>
          <path id="Path_161" data-name="Path 161" d="M449.806,841.275l.889,3.671a1.158,1.158,0,0,1-2.25.551l-.908-3.666a1.168,1.168,0,1,1,2.268-.563Z" transform="translate(-366.641 -449.948)" fill="#fcb957"/>
          <path id="Path_162" data-name="Path 162" d="M455.2,861.156l1.153,3.6a1.125,1.125,0,0,1-2.14.692l-1.173-3.593a1.135,1.135,0,0,1,2.158-.7Z" transform="translate(-368.781 -457.751)" fill="#fcb957"/>
          <path id="Path_163" data-name="Path 163" d="M462.008,880.623l1.4,3.511a1.068,1.068,0,0,1-1.98.8l-1.435-3.5a1.086,1.086,0,1,1,2.01-.824Z" transform="translate(-371.488 -465.394)" fill="#fcb957"/>
          <path id="Path_164" data-name="Path 164" d="M470.194,899.58l1.649,3.4a1.009,1.009,0,0,1-1.812.888l-1.681-3.387a1.026,1.026,0,1,1,1.838-.913Z" transform="translate(-374.74 -472.837)" fill="#fcb957"/>
          <path id="Path_165" data-name="Path 165" d="M479.709,917.916l1.887,3.277a.949.949,0,0,1-1.64.955l-1.918-3.259a.967.967,0,0,1,1.667-.98Z" transform="translate(-378.512 -480.033)" fill="#fcb957"/>
          <path id="Path_166" data-name="Path 166" d="M490.5,935.532l2.116,3.133a.889.889,0,0,1-1.47,1l-2.145-3.113a.907.907,0,0,1,1.494-1.03Z" transform="translate(-382.784 -486.944)" fill="#fcb957"/>
          <path id="Path_167" data-name="Path 167" d="M502.531,952.327l2.336,2.971a.83.83,0,0,1-1.3,1.032l-2.364-2.949a.848.848,0,1,1,1.323-1.061Z" transform="translate(-387.537 -493.532)" fill="#fcb957"/>
          <path id="Path_168" data-name="Path 168" d="M515.743,968.2,518.291,971a.77.77,0,0,1-1.133,1.044l-2.573-2.766a.788.788,0,0,1,1.154-1.074Z" transform="translate(-392.752 -499.758)" fill="#fcb957"/>
          <path id="Path_169" data-name="Path 169" d="M530.087,983.062l2.748,2.59a.711.711,0,0,1-.97,1.04l-2.773-2.566a.729.729,0,1,1,.989-1.07Z" transform="translate(-398.408 -505.581)" fill="#fcb957"/>
          <path id="Path_170" data-name="Path 170" d="M545.512,996.8l2.94,2.374a.651.651,0,0,1-.813,1.017l-2.962-2.345a.669.669,0,1,1,.831-1.049Z" transform="translate(-404.485 -510.964)" fill="#fcb957"/>
        </g>
        <g id="Group_55" data-name="Group 55" transform="translate(369.758)">
          <path id="Path_171" data-name="Path 171" d="M961.43,169.067l2.671,24.722L979.7,181.351Z" transform="translate(-937.067 -141.371)" fill="#f89f1b"/>
          <path id="Path_172" data-name="Path 172" d="M1055.46,125.125,995.023,190.9a6.292,6.292,0,0,1-9.063.213l-63.753-63.167a2.523,2.523,0,0,1,1.8-4.314Z" transform="translate(-921.461 -123.63)" fill="#fcb957"/>
          <path id="Path_173" data-name="Path 173" d="M961.443,152.285l109.629-26.2L971.7,162.512l.449,6.887Z" transform="translate(-937.072 -124.588)" fill="#f89f1b"/>
          <path id="Path_174" data-name="Path 174" d="M979.533,191.864l-13.722,8.477,7.594-14.494Z" transform="translate(-938.778 -147.923)" fill="#f89f1b"/>
        </g>
      </g>
      <g id="Group_67" data-name="Group 67" transform="translate(216.157 87.043)">
        <g id="Group_62" data-name="Group 62" transform="translate(144.299 278.918)">
          <path id="Path_175" data-name="Path 175" d="M859.849,1488.5s-1.365,7.725-2.034,15.374a5.269,5.269,0,0,0,5.041,5.709c10.184.424,31.97,1.249,39.787.9a1.714,1.714,0,0,0,1.509-2.349h0a3.837,3.837,0,0,0-1.963-2.068L866.2,1489.529Z" transform="translate(-775.93 -1017.851)" fill="#0d0060"/>
          <path id="Path_176" data-name="Path 176" d="M859.331,1480.14l1.1,9.241s6.3,2.935,10.609-.369l-2.611-10.3Z" transform="translate(-776.53 -1014.029)" fill="#f48f8f"/>
          <path id="Path_177" data-name="Path 177" d="M842.374,1196.019c-.474,2.413-2.542,120.43,10.073,173.317a1.794,1.794,0,0,1-1.053,2.088,31.258,31.258,0,0,1-10.274,2.088,3.091,3.091,0,0,1-3.067-2.219c-3.607-12.27-20.885-73.75-23.14-132.48-2.519-65.625,0-2.234,0-2.234l1.478-40.565Z" transform="translate(-758.75 -903.646)" fill="#71716f"/>
          <path id="Path_178" data-name="Path 178" d="M790.471,1495.114s-2.172,3.9-4.275,14.264a3.216,3.216,0,0,0,2.828,3.851c3.363.33,8.541.756,12.688.727a3.205,3.205,0,0,0,3.173-3.576c-.46-3.783-1.89-9.99-6.311-14.828Z" transform="translate(-747.948 -1020.432)" fill="#0d0060"/>
          <path id="Path_179" data-name="Path 179" d="M790.122,1475.266l2.562,13.975s2.533,1.884,7.545.519l-1.223-15.037Z" transform="translate(-749.507 -1012.471)" fill="#f48f8f"/>
          <path id="Path_180" data-name="Path 180" d="M776.223,1197.779c-10.317,62.267,2.238,153.9,6.473,171.832a2.8,2.8,0,0,0,2.258,2.123,18.78,18.78,0,0,0,8.07-.322,2.564,2.564,0,0,0,1.843-2.36c.568-14.5-.454-103.511,9.159-138.689a7.994,7.994,0,0,1,3.082-4.408l18.659-13.266,1.431-21.441Z" transform="translate(-742.529 -901.785)" fill="#71716f"/>
          <g id="Group_57" data-name="Group 57" transform="translate(29.842 130.125)">
            <path id="Path_181" data-name="Path 181" d="M842.043,1005.165c-30.92-.511-65.036,8.118-65.036,8.118-9.216,53.778-1.612,115.806-1.612,115.806,23.937,6.278,50.939-3.838,50.939-3.838,3.978-22.478,22.541-85.738,22.541-85.738a101.857,101.857,0,0,0,37.8-12c-7.817-9.062-11.5-20.592-13.1-27.408C862.641,1003.509,851.579,1005.323,842.043,1005.165Z" transform="translate(-772.447 -957.279)" fill="#739af0"/>
            <path id="Path_182" data-name="Path 182" d="M998.152,932.186a5.916,5.916,0,0,0-6.882-1.933c-4.55,19.22-28.407,34.8-52.918,42.422,1.6,6.816,5.286,18.346,13.1,27.408C992.133,977.211,998.152,932.186,998.152,932.186Z" transform="translate(-837.226 -929.842)" fill="#f48f8f"/>
          </g>
          <g id="Group_58" data-name="Group 58" transform="translate(183.886 100.375)">
            <path id="Path_183" data-name="Path 183" d="M1031.313,914.062c.318,1.01-3.363,2.548-5.53-1.584-.076-1.98-1.28-10.465-.1-12.079,6.3-8.593,18.522-19.364,18.522-19.364a2.908,2.908,0,0,1,.364,4.039l-5.928,6.175c1.24,2.241,2.752,4.132,3.461,6.842a8.308,8.308,0,0,1-.828,6.114c-1.04,1.875-2.46,4.312-3.8,6.219A8.2,8.2,0,0,1,1031.313,914.062Z" transform="translate(-1025.169 -881.036)" fill="#f48f8f"/>
            <path id="Path_184" data-name="Path 184" d="M1038.477,904.367l-5.4,4.579-1.7,4.56,4.817,5.343s1.619-9.046,2.823-11S1039.6,904.94,1038.477,904.367Z" transform="translate(-1027.594 -890.146)" fill="#e68181"/>
          </g>
          <path id="Path_185" data-name="Path 185" d="M770.245,1051.661l-11.859-29.939s-28.881,19.623-33.63,44.5a68.329,68.329,0,0,1,25.106,6.729C752,1061.206,770.245,1051.661,770.245,1051.661Z" transform="translate(-723.984 -835.593)" fill="#739af0"/>
          <path id="Path_186" data-name="Path 186" d="M770.79,1113.527s-14.076,7.437-19.168-2.508c-1.807-3.529-2.815-6.478-2.255-9.557a68.334,68.334,0,0,0-25.106-6.729c-1.432,7.5-1.23,15.807,3.733,23.54,14.847,23.134,47.088,3.249,47.088,3.249Z" transform="translate(-723.489 -864.1)" fill="#f48f8f"/>
          <path id="Path_187" data-name="Path 187" d="M828.9,967.222l-9.839,28.451a1.025,1.025,0,0,0,.468,1.234c2.682,1.483,12.344,5.769,23.987-1.613a4.825,4.825,0,0,0,2.223-3.448l3.186-24.624Z" transform="translate(-760.785 -814.313)" fill="#f48f8f"/>
          <g id="Group_59" data-name="Group 59" transform="translate(49.446 111.777)">
            <path id="Path_9019" data-name="Path 9019" d="M67.518,154.768l-1.542,4.626s14.11,5.769,21.657,1.406S67.518,154.768,67.518,154.768Z" transform="translate(-49.446 -111.776)" fill="#e68181"/>
            <path id="Path_188" data-name="Path 188" d="M854.208,924s10.8,20.336,9.419,28.55-14.773,7.625-26.466.953l-8.17-21.959Z" transform="translate(-814.13 -909.212)" fill="#f48f8f"/>
            <path id="Path_189" data-name="Path 189" d="M828.158,933.247a.838.838,0,0,0,.366-1.227,21.882,21.882,0,0,1-3.005-6.381s-1.943-1.244,4.943-2.891,17.152-4.206,19.311-10.067c2.1-5.714-3.424-20.083-12.245-8.634a.838.838,0,0,1-1.328.009c-1.446-1.882-5.248-5.788-10.526-3.42-4.938,2.216-5.495,5.835-5.427,7.659a.834.834,0,0,1-.987.853c-2.5-.477-8.489-.886-11.286,5.262-2.3,5.063-.806,7.929.557,9.331a.835.835,0,0,1-.358,1.387c-1.641.5-3.76,1.894-3.548,5.739.293,5.315,6.236,4.847,7.928,4.6a.838.838,0,0,1,.744.263c1.451,1.605,7.987,8.423,15.062,9.244a.845.845,0,0,0,.886-1.117l-3.061-8.9a.841.841,0,0,1,.455-1.043Z" transform="translate(-804.61 -899.74)" fill="#0d5d6c"/>
            <path id="Path_190" data-name="Path 190" d="M839.955,955.109s-7.692-5.277-8.254-.833,6.927,6.437,10.636,4.781Z" transform="translate(-815.176 -920.339)" fill="#f48f8f"/>
          </g>
          <g id="Group_60" data-name="Group 60" transform="translate(45.163 0)">
            <path id="Path_191" data-name="Path 191" d="M802.7,1022.35a5.116,5.116,0,0,0,5.114-5.039l4.44-295.755a5.117,5.117,0,0,0-10.232-.154l-4.439,295.755a5.119,5.119,0,0,0,5.039,5.193Z" transform="translate(-797.582 -716.362)" fill="url(#linear-gradient-6)"/>
          </g>
          <g id="Group_61" data-name="Group 61" transform="translate(35.783 242.831)">
            <path id="Path_192" data-name="Path 192" d="M783.9,1135.816s-2.466-10.137-1.471-13.733,2.921-8.22,9.343-7.193a94.006,94.006,0,0,1,14,3.733s-.382,4.684-5.263,3.173l3.027,2.342s-.433,3.75-4.556,1.747l2.815,3.106a3.281,3.281,0,0,1-4.8,1.1C793.957,1128.12,792.5,1137.037,783.9,1135.816Z" transform="translate(-782.194 -1114.745)" fill="#f48f8f"/>
          </g>
        </g>
        <g id="Group_66" data-name="Group 66">
          <g id="Group_64" data-name="Group 64">
            <g id="Group_63" data-name="Group 63">
              <circle id="Ellipse_3" data-name="Ellipse 3" cx="140.478" cy="140.478" r="140.478" transform="translate(0 198.667) rotate(-45)" fill="url(#linear-gradient-7)"/>
              <circle id="Ellipse_4" data-name="Ellipse 4" cx="115.045" cy="115.045" r="115.045" transform="translate(38.023 197.841) rotate(-45)" fill="#fff" opacity="0.77"/>
            </g>
          </g>
          <g id="Group_65" data-name="Group 65" transform="translate(110.968 152.025)">
            <path id="Path_193" data-name="Path 193" d="M736.156,599.816l-6.617-21.722H696.271l-6.617,21.722H668.806l32.208-91.632h23.657L757,599.816Zm-11.235-37.952q-9.177-29.524-10.331-33.394t-1.654-6.117q-2.061,7.99-11.8,39.51Z" transform="translate(-668.806 -508.184)" fill="#ce3a32"/>
            <path id="Path_194" data-name="Path 194" d="M908.059,553.553q0,22.534-12.828,34.517t-37.046,11.985H832.344V508.8h28.65q22.346,0,34.705,11.8T908.059,553.553Zm-20.1.5q0-29.4-25.966-29.4h-10.3v59.424H860Q887.958,584.076,887.96,554.052Z" transform="translate(-732.661 -508.424)" fill="#ce3a32"/>
          </g>
          <rect id="Rectangle_17" data-name="Rectangle 17" width="29.268" height="242.239" transform="matrix(0.773, -0.635, 0.635, 0.773, 108.033, 117.584)" fill="url(#linear-gradient-8)"/>
        </g>
      </g>
      <g id="Group_71" data-name="Group 71" transform="translate(162.652 692.279)">
        <g id="Group_70" data-name="Group 70">
          <path id="Path_195" data-name="Path 195" d="M489.3,1275.9c-.133.252-8.532,6.433-8.532,6.433s1.854,13.268,9.386,18.508c8.281,5.761,19.975-4.745,19.975-4.745s9.306,2.213,14.255-17.16c1.136-4.445-5.419-4.82-13.329-4C500.855,1275.992,489.3,1275.9,489.3,1275.9Z" transform="translate(-430.913 -1260.645)" fill="#0d5d6c"/>
          <path id="Path_196" data-name="Path 196" d="M459.963,1347.547a35.43,35.43,0,0,1,10.769-5.01c1.446-.394,9.257,1.876,14.085,1.765,6.627-.152,13.373-3.168,18.837-1.807,5.427,1.353,9.868,3.118,12.432,4.943,7.677,5.46,12.183,15.64,14.93,25.723a35.15,35.15,0,0,1-11.745,7.711l-1.209,49.015-28.983,14.829L456,1428.108l1.185-47.9s-10.5-4.892-11.276-6.671S450.695,1353.92,459.963,1347.547Z" transform="translate(-417.273 -1287.021)" fill="#739af0"/>
          <path id="Path_197" data-name="Path 197" d="M444.786,1393.3s-14.077,39.027,18.024,55.067c6.665-.886,4.1-11.955,4.1-11.955s-13.948-3.087-9.759-35.642C453.3,1397.593,444.786,1393.3,444.786,1393.3Z" transform="translate(-415.663 -1306.994)" fill="#f48f8f"/>
          <path id="Path_198" data-name="Path 198" d="M569.986,1393.3s9.686,40.739-18.024,55.067c-6.665-.886-4.1-11.955-4.1-11.955s11.241-5.536,9.759-35.642C561.477,1397.593,569.986,1393.3,569.986,1393.3Z" transform="translate(-456.92 -1306.994)" fill="#f48f8f"/>
          <rect id="Rectangle_18" data-name="Rectangle 18" width="63.557" height="42.922" rx="13.374" transform="translate(38.343 101.188)" fill="#bdd0fb"/>
          <g id="Group_68" data-name="Group 68" transform="translate(99.948 155.545)">
            <path id="Path_199" data-name="Path 199" d="M595.293,1508.362c-7.274-1.67-24.084-.772-24.084-.772l-.684,1.851-1.133,9.2s16.01,2.886,23.9,2.879a7.449,7.449,0,0,0,2.214-.331c.241-.216.476-.44.7-.683C599.553,1516.854,598.587,1511.483,595.293,1508.362Z" transform="translate(-565.464 -1507.072)" fill="#0d0060"/>
            <path id="Path_200" data-name="Path 200" d="M612.605,1509.193c-.228-.064-.469-.125-.721-.182,3.294,3.121,4.261,8.492.912,12.149-.222.243-.457.467-.7.683C618.018,1520,618.719,1510.913,612.605,1509.193Z" transform="translate(-582.055 -1507.721)" fill="url(#linear-gradient-9)"/>
            <path id="Path_201" data-name="Path 201" d="M563.862,1506.894l2.847.121a5.48,5.48,0,0,1,4,2.068,6.746,6.746,0,0,1,1.467,4.615,5.313,5.313,0,0,1-1.54,3.511,4.312,4.312,0,0,1-3.331,1.265l-4.356-.31Z" transform="translate(-562.948 -1506.894)" fill="#f48f8f"/>
          </g>
          <g id="Group_69" data-name="Group 69" transform="translate(0 155.299)">
            <path id="Path_202" data-name="Path 202" d="M405.385,1507.141c7.313-1.446,24.095-.032,24.095-.032l.637,1.872.9,9.235s-16.075,2.393-23.964,2.144a7.436,7.436,0,0,1-2.205-.4c-.235-.223-.464-.454-.681-.7C400.914,1515.5,402.015,1510.16,405.385,1507.141Z" transform="translate(-400.242 -1506.49)" fill="#0f036c"/>
            <path id="Path_203" data-name="Path 203" d="M403.395,1507.718c.229-.057.472-.11.725-.16-3.37,3.019-4.471,8.359-1.215,12.116.216.249.446.48.681.7C397.713,1518.355,397.239,1509.251,403.395,1507.718Z" transform="translate(-398.976 -1506.907)" fill="url(#linear-gradient-10)"/>
            <path id="Path_204" data-name="Path 204" d="M449.452,1506.9l-2.849.034a5.447,5.447,0,0,0-4.049,1.944,6.714,6.714,0,0,0-1.582,4.568,5.346,5.346,0,0,0,1.453,3.557,4.335,4.335,0,0,0,3.3,1.367l4.362-.176Z" transform="translate(-415.373 -1506.649)" fill="#f48f8f"/>
          </g>
          <path id="Path_205" data-name="Path 205" d="M551.042,1457.078c-3.3-7.592-11.366-8.824-18.233-5.274-.12.157-43.606,22.445-81.957,32.212a41.658,41.658,0,0,1,1.786,10.946q.033,1.231-.04,2.427c29.409-1.51,61.326-11.319,88.753-19.937C549.857,1474.708,554.7,1465.492,551.042,1457.078Z" transform="translate(-419.232 -1329.096)" fill="#5c5c54"/>
          <path id="Path_206" data-name="Path 206" d="M504.964,1494.874a25.293,25.293,0,0,1,2.475-11.849c.051-.168.111-.329.165-.494-2.19-.678-5.02-1.6-8.736-2.858a419.23,419.23,0,0,1-67.835-29.563c-7.7-4.208-16.461-1.388-18.926,7.727-2.2,8.137,2.633,15.083,9.969,17.524,21.948,7.3,10.52,5.274,17.688,7.582,19.251,5.953,43.206,11.375,65.247,12.856C504.994,1495.489,504.975,1495.181,504.964,1494.874Z" transform="translate(-403.894 -1328.432)" fill="#71716f"/>
          <path id="Path_207" data-name="Path 207" d="M486.68,1334.714a16.8,16.8,0,0,0,17.148,12.428c14.483-.263,15.774-12.47,15.774-12.47l-9.461-2.024-.791-10.542-14.231,1.055-.263,10.014Z" transform="translate(-433.221 -1279.197)" fill="#f48f8f"/>
          <path id="Path_9018" data-name="Path 9018" d="M61.747,48.786v3.575s9.484,4.3,14.464-.952S61.747,48.786,61.747,48.786Z" fill="#e68181"/>
          <path id="Path_208" data-name="Path 208" d="M499.688,1273.107s-16.308,31.59,3.037,39.255c13.645,5.406,22.2-20.978,19.649-28.124-3.946-11.05-6.544-9.738-6.544-9.738Z" transform="translate(-435.791 -1260.065)" fill="#f48f8f"/>
          <path id="Path_209" data-name="Path 209" d="M521.335,1261.878c8.056,2.214,1.171,19.688-10.959,15.556s-16.9-4.072-18.786-.741-2.3,15.159-6.4,9.313c-4.5-6.409-7-19.275-1.49-23.422,4.927-3.707,6.077-9.453,11.986-9.254,7.844.265,13.91-3.212,17.451-.7C517.2,1255.5,515.406,1260.249,521.335,1261.878Z" transform="translate(-430.827 -1251.711)" fill="#0d5d6c"/>
          <path id="Path_210" data-name="Path 210" d="M494.787,1296.219s-3.478-3.742-4.035.769,1.231,10.32,3.325,7.135S494.787,1296.219,494.787,1296.219Z" transform="translate(-434.771 -1268.52)" fill="#f48f8f"/>
        </g>
      </g>
    </g>
  </g>
</svg>
