<svg xmlns="http://www.w3.org/2000/svg" xmlns:xlink="http://www.w3.org/1999/xlink" width="599.254" height="594" viewBox="0 0 599.254 594">
  <defs>
    <filter id="Ellipse_2061" x="2.625" y="0" width="594" height="594" filterUnits="userSpaceOnUse">
      <feOffset input="SourceAlpha"/>
      <feGaussianBlur stdDeviation="20" result="blur"/>
      <feFlood flood-color="#f89f1b" flood-opacity="0.2"/>
      <feComposite operator="in" in2="blur"/>
      <feComposite in="SourceGraphic"/>
    </filter>
  </defs>
  <g id="Group_598" data-name="Group 598" transform="translate(-780.753 -148.923)">
    <g transform="matrix(1, 0, 0, 1, 780.75, 148.92)" filter="url(#Ellipse_2061)">
      <circle id="Ellipse_2061-2" data-name="Ellipse 2061" cx="237" cy="237" r="237" transform="translate(62.63 60)" fill="#fff"/>
    </g>
    <g id="Group_594" data-name="Group 594" transform="translate(780.753 262.162)">
      <path id="Union_1" data-name="Union 1" d="M493.693,367.525l1.975-2.937-2.932-1.175,2.152-2v-2.548L488.8,357.57l-3.381-8.7-6.666,2.475-1.652-4.436h4.2v-3.631l-5.736,1.076-2.508-4.278v-2.528l2.508-2.753v-4.581l-2.508.812v2.641l-3.09-1.683.668-15.308L468.16,313.3l-3.148,1.089v-3.934l-4.574-2.918V305.8l-5.281-1.043v-2.225l-3.756-1.571-1.822,3.8L436.7,308.965l-3.783-6.436H434.8l-1.883-3.915-2.344,2.344h-5.709v-2.344h-6.119l2.494,3.915H414.6v-3.915l-12.4,6.139,3.9-3.8-3.9-8.43v8.43l-12.346,1.571-4.021,2.225-9.1-2.225-4.621,2.225,4.621,4.212,6.152-1.426-1.908,1.426,4.852-1.426v4.33h-1.5l1.5,4.806h4.021l-5.525,4.806-1.439-4.806-3.512-2.284,1.6,4.859h-4.244l-1.895-2.574-2.727,4.806L368.4,319.25l-4.7-2.574,2.119-2.284H361.3l-1.4-3.934h-6.021l2.646,3.934H344.8l-4.271-6.852v4.33l-18.014,4.806V311.87l-5.348,2.522,3.328,4.859v2.231H317.17L292.3,336.869h-6.08l2.119,1.5v6.383h-4.131l6.084,18.094-1.953,2.363-4.131-2.363h-11.8l-11.67-13.123v-9.684l-3.789-1.67-5.775-13.031-8.965-13.467-17.8-4.33-3.709,1.426-4.6,10.285-15.441-10.285L195.4,292.528l-14.713-17.909L159.467,270.3l-1.836,6.4-32.789-4.964L81.459,246.979l1.783-3.512-29.35-2.192v-4.02H52.178l1.715-5.314-5.52-6.2,1.65-3.928H41.3l3.111-5.486-15.8-9.8-5.105-2.3-3.6-3.287v-14.43l-4.43-2.707-3.709-17.427H8l1.936-13.519h5.537l-1.506-4.9H23.5L15.473,145.7,8,147.961,6.568,145.7,8,142.508,4.521,133.57.006,131.6l1.881-2.416,4.682-8.021L1.887,110.1,8,102.966l3.764-9.631L9.936,88.879l4.031-1.914L9.936,75.538h4.031L19.9,68.759l8.7-23.151,7.525-7.948-.469-5.307L46.432,37.66l.463-2.172L36.129,30.221l-.469-5.888,1.689.5.547,3.631L40,24.834,37.9,21.2l3.4-10.681V.528l8.727,8.179,9.045,1.815L57.461,22.563l3.857-6.41h2.629l-1.1-5.631,1.1-6.575L62.85,0l63.584,16.721L235.467,35.647l81.789,4.311,6.963,4.621,13.857,3.254,2.674-2.37,2.244,1.558V50.46l6.807,1.195,8.336-.574,13.99.574-16.043,9.612-1.129,3.69-6.244,2.99-1.77,5.288,13.064-3.888,2.072,1.076L360.006,73.7l5.473.746V71.815l4.283-2.469,8.246-2.218V63.346l10.205-5.6,1.115,2.027-6.746,5.189v5.466l2.943-2.475,3.8,2.475,5.578,1.393,5.861,2.634L402,70.422l14.061-4.053v4.053l6.8-1.076L428.3,76.2h-7.855l-1.187,3.538-6.5-3.538-8.145,3.538L402,85.44,400.768,81l-5.861,5.618-.865,6.779-3.6,6.436,3.6-3.571,5.789-7.783-8.033,27.21,2.244,9.691v5.631l5.789,9.427,4.781-1.835,3.992-6.826,1.9-12.391-1.9-3.7-2.877-5.433.963-6.06V96.259l7.639-7.783v6.284l2.463-1.367V88.477l3.656-3.037-1.187-2.489,3.6-3.215,4.125,3.215,7.623,1.175,2.213,4.35h-1.082l2.891,6.284-1.809,7.987-2.213,1.446-1.49,4.773,1.49,1.287,4.021-2.185v-3.875l.754,1.116,3.959-2.561,3.461,1.446,3.8,10.72v8.324l-2.838,1.168v6.6l-2.6,5.123,5.434.713-2.838,2.733h2.838l5.975-4.535,2.588,1.089,9.578-6.852h2.838l7.5-4.872,8.072-8.72-3.1-4.245v-3.373l12.146-2.759h6.482s8.906-4.2,7.861-6.555,0-5.36,0-5.36l-1.965-1.683,10.918-15.619,34.518-10.3V63.478l4.766-2.693v-2.39l2.826-1.736-.912-1.485v-3.2L559.482,43.9l5.67-15.619,2.76,2.244V27.4l12.609,3.122,6.125,18.814,6.979.627,5.629,8.43v1.73a28.253,28.253,0,0,1-5.629,2.561c-4.41,1.663,0,2.3,0,2.3l-.977.812s-2.279,2.9-2.662,3.485-1.307-1.947-1.307-1.947l-3.783.753-3.365-2.291v10.3s-2.238-.515-3.143,0,0,2.271,0,2.271-.014,3.512-1.057,2.891-2.066-1.142-2.2-.964a8.367,8.367,0,0,0,0,1.855l-2.316,3.783,1.367.634-1.367,2.119H572.1L571.438,91l-2.344,3.65,1.082,2.027,1.262.647-2.344,5.466h1.082l2.641.931,1.367,1.584.949,2.073,2.2,1.512,3.189-.825-.74-4.344,3.432,2.7v3.6l-5.881,3.03-2.2-3.03-3.7,4.548-2.344-1.518s-.344,3.367-1.182,3.835-5.17,2.614-5.17,2.614l-9.5,4.231-7.176,4.693,1.1,1.67,12.318-7-.693,2.33,6.363-1.69-11.129,8.047-1.736.673s3.029-3.6,2.463-4.027-8.682,6.608-8.682,6.608l-2.363-2.581v-4.027l-3.5,7.7,4.893.713-2.352,13.044-3.234,6.37V154.3l-5.109-1.083,1.24,1.083,5.736,9,2.324,1.353-.957,2.568,2.352.911v8.021l-1.395-2.33-.957,3.215-6.377,2.337v-3.221l-1.967-2.33-1.326,1.294-1.969-1.294-1.359-3.037,1.359-1.34L528.4,166.51h1.348v-5.2H528.4l2.707-3.941.926-2.4-2.285-.673-1.348,3.07-3.8,3.307L526.4,163.3l-.932,3.208,2.938,5.8v1.512l2.707,4.2H528.4l1.348,5.109H524.6l3.8,2.6,4.676,5.585-10.82-4.436-3,1.974h3l4.139,2.462,4.713,1.954,6.041-1.954v4.357l5.6,8.437-6.377-5.836,1.684,3.05-1.684.654-3.293-.654v1.591l-4.676,2.2v1.644l7.969-2.654a9.774,9.774,0,0,1,0,3.307c-.355.805,2.436,0,2.436,0l-.752-4.5h2.152l1.174,3.849-1.174,3.268h-4.562l3.162,2.667-2.436,2.39-4.336-3.287v2.139L526.4,215.1l8.008.911-1.326,2.231H528.4l1.348.766,2.285,1.169,4.336-2.792,1.684.858-1.684,3.439-10.906,2.594-3.207,3.453h3.207v1.8l-3.207,2.819v6.892l-3.8-5.149.8,4.344-3.412-1.5-2.871,2.3-5.012,6.707-2.885,8.166-3.354-1.782v2.641l-6.832,7.473-1.09-.673-5.795.673,4.732,3.459-2.012.792-6.787-2.145s-.172,3.373.766,3.545,3.076.805,3.3,1.314a3.952,3.952,0,0,1,0,2.073,7.884,7.884,0,0,1-1.52,3.393c-.738.733-1.531,1.36-2.547,2.357s-1.207,5.631-1.723,6.119.072,2.852,0,3.466,1.723,3.453,1.723,3.453l.766,5.73,6.021,14.47-1.928,1.551,6.092,5.756-2.152,1.7,14.576,26.729v6.4l-1.961,1.822-2.2,5.175,1.063,5-5.09,2.938ZM107.348,366.33l-4.5-8.146L92.785,346.322v2.786l-6.674,1.571-3.187-5.558-12.857-6.608-5.639-.964-8.693-7.506-1.705,7.506L41.963,339.74l2.932-9.7H41.963l-4.984,4.443v4.027l-11.926,9.281-16.5,4.991H0l5.068-3.677,15.818-6.766,4.166-6.265-6.439,1.472-4.09-5.261-5.971,2.2,2.477-8.357L5.068,322.4l3.484-4.509L5.068,311.6l5.961-3.822,4.51,4.878v-4.878l9.514-2.515.938-6.674-5.1.944-6.363-3.637-1.264-4.819-2.23-3.829,12.457-2.132,1.566,5.961h3.371l-.984-3.829-2.387-2.132V281l-2.594-7.077,8.785-1.512,4.381-4.179,14.285-2.555,10.648,8.245L79.73,281l-3.889,55.081,6.113,2.436,4.156,5.09,6.674-1.261,14.563,14.239,4.1,10.938Z" transform="translate(0 0)" fill="#f89f1b"/>
    </g>
  </g>
</svg>
