<svg xmlns="http://www.w3.org/2000/svg" width="663.52" height="666.218" viewBox="0 0 663.52 666.218">
  <g id="Illustration" transform="translate(-456.361 -448.192)">
    <g id="Group_23" data-name="Group 23" transform="translate(455 448.192)">
      <path id="Path_1" data-name="Path 1" d="M1044.172,1019.985c-13.551,14.317-26.373,23.55-36.5,30.845-119.081,85.747-259.986,60.753-289.932,54.649-44.221-9.014-129.7-26.437-191.5-99.371-93.5-110.344-78.939-284.188-6.415-398.944,13.266-20.991,83.338-137.5,225.761-156.179,86.193-11.307,186.666,11.5,259.425,72.674C1157.736,652.071,1146.864,911.489,1044.172,1019.985Z" transform="translate(-459.372 -448.192)" fill="#d2fdfd"/>
      <g id="Group_5" data-name="Group 5" transform="translate(332.731 1.426)">
        <g id="Group_3" data-name="Group 3">
          <path id="Path_2" data-name="Path 2" d="M2056.322,455.14c-45.929,33.522-305.11,239.337-152.512,513.336,0,0,206.078-92.277,160.208-510.039A4.853,4.853,0,0,0,2056.322,455.14Z" transform="translate(-1856.222 -454.195)" fill="#90f2ff"/>
          <path id="Path_3" data-name="Path 3" d="M2147.691,685.192c-10.2,15.608-19.757,31.58-29.063,47.7q-13.912,24.2-26.743,48.988-12.862,24.761-24.5,50.116l-2.924,6.33-2.83,6.371-2.826,6.373q-1.427,3.181-2.775,6.395l-5.441,12.837-5.22,12.926c-1.775,4.3-3.378,8.657-5.045,12.994s-3.337,8.674-4.866,13.061l-4.681,13.129-4.4,13.223-1.1,3.306-1.029,3.328-2.042,6.662-2.042,6.662c-.7,2.216-1.266,4.469-1.9,6.7-1.235,4.478-2.515,8.945-3.711,13.433l-3.353,13.527-.838,3.382-.739,3.4-1.466,6.812-1.466,6.813c-.491,2.271-.846,4.568-1.275,6.851l-1.235,6.859-.617,3.43c-.21,1.142-.419,2.285-.565,3.438l-1.961,13.8a413.033,413.033,0,0,0-3.3,55.655,1.625,1.625,0,0,0,3.249-.037v-.028a410.14,410.14,0,0,1,3.044-55.225l1.891-13.725c.141-1.146.344-2.284.548-3.421l.6-3.413,1.2-6.827c.417-2.272.76-4.558,1.239-6.819l1.431-6.785,1.43-6.786.721-3.392.82-3.37,3.282-13.483c1.173-4.475,2.43-8.93,3.641-13.4.627-2.227,1.185-4.474,1.869-6.685l2.008-6.647,2.007-6.648,1.011-3.322,1.084-3.3,4.335-13.2,4.613-13.111c1.505-4.382,3.166-8.709,4.8-13.047s3.225-8.69,4.979-12.983l5.154-12.918,5.376-12.832q1.326-3.216,2.744-6.393l2.794-6.373,2.8-6.371,2.892-6.331q11.537-25.335,24.254-50.135t26.5-49.031c9.223-16.131,18.71-32.141,28.813-47.736l.007-.01a.67.67,0,0,0-.21-.935A.692.692,0,0,0,2147.691,685.192Z" transform="translate(-1964.1 -630.102)" fill="#fff" opacity="0.43"/>
        </g>
        <g id="Group_4" data-name="Group 4" transform="translate(24.237 7.449)" opacity="0.78">
          <path id="Path_4" data-name="Path 4" d="M1958.293,995.453s76.652-324.226,230.343-502.947c10.332-12.014,28.988-7.756,32.858,7.548C2247.37,602.389,2295.829,913.289,1958.293,995.453Z" transform="translate(-1958.293 -485.565)" fill="#6ccfe1"/>
          <path id="Path_5" data-name="Path 5" d="M2088.115,1310.834a.851.851,0,0,0,1.078,1.314c31.5-24.775,153.532-145.973,200.608-384.282a.585.585,0,0,0-1.134-.287C2272.927,982.9,2208.807,1186.982,2088.115,1310.834Z" transform="translate(-2057.079 -822.28)" fill="#fff"/>
        </g>
      </g>
      <g id="Group_8" data-name="Group 8" transform="translate(102.73 482.667)">
        <g id="Group_6" data-name="Group 6">
          <path id="Rectangle_2" data-name="Rectangle 2" d="M14.433,0H427.1a14.434,14.434,0,0,1,14.434,14.434V92.145A14.433,14.433,0,0,1,427.1,106.579H14.434A14.434,14.434,0,0,1,0,92.145V14.433A14.433,14.433,0,0,1,14.433,0Z" fill="#018ea7"/>
        </g>
      </g>
      <g id="Group_19" data-name="Group 19" transform="translate(21.405 3.505)">
        <path id="Path_41" data-name="Path 41" d="M1719.963,943.257h-49.45l22.212-480.3,3.069.337Z" transform="translate(-1403.286 -462.953)" fill="#0dadc9"/>
        <rect id="Rectangle_5" data-name="Rectangle 5" width="231.593" height="23.211" transform="translate(175.818 410.67)" fill="#0dadc9"/>
        <rect id="Rectangle_6" data-name="Rectangle 6" width="272.726" height="23.211" transform="translate(156.146 433.881)" fill="#018ea7"/>
        <rect id="Rectangle_7" data-name="Rectangle 7" width="313.858" height="23.211" transform="translate(134.685 457.092)" fill="#0dadc9"/>
        <rect id="Rectangle_8" data-name="Rectangle 8" width="366.853" height="9.202" transform="translate(117.499 56.948)" fill="#0dadc9"/>
        <path id="Path_42" data-name="Path 42" d="M584.521,839.638l-3.217-2.41,115.2-153.72,86.973,153.936-3.5,1.978-83.946-148.58Z" transform="translate(-572.717 -631.135)" fill="#0dadc9"/>
        <circle id="Ellipse_1" data-name="Ellipse 1" cx="12.203" cy="12.203" r="12.203" transform="translate(107.603 53.275) rotate(-22.5)" fill="#0dadc9"/>
        <path id="Path_43" data-name="Path 43" d="M2083.218,853.363l-3.218-2.41,115.2-153.72,86.972,153.936-3.5,1.978-83.945-148.58Z" transform="translate(-1715.537 -641.601)" fill="#0dadc9"/>
        <circle id="Ellipse_2" data-name="Ellipse 2" cx="35.301" cy="35.301" r="35.301" transform="translate(241.469 67.092) rotate(-45)" fill="#f89f1b"/>
        <circle id="Ellipse_3" data-name="Ellipse 3" cx="12.203" cy="12.203" r="12.203" transform="translate(464.261 48.384)" fill="#0dadc9"/>
        <g id="Group_22" data-name="Group 22" transform="translate(336.301 45.51)">
          <circle id="Ellipse_1-2" data-name="Ellipse 1" cx="82.314" cy="82.314" r="82.314" transform="translate(46.862 46.862)" fill="#bf770c"/>
          <circle id="Ellipse_2-2" data-name="Ellipse 2" cx="79.577" cy="79.577" r="79.577" transform="translate(49.599 49.599)" fill="#f89f1b"/>
          <path id="Path_26" data-name="Path 26" d="M2681.7,1958.315a1.826,1.826,0,0,1-1.628-2.648,74.967,74.967,0,0,1,67.247-41.405,75.915,75.915,0,0,1,13.58,1.222,1.826,1.826,0,0,1-.655,3.592,72.248,72.248,0,0,0-12.925-1.163,71.336,71.336,0,0,0-63.988,39.4A1.824,1.824,0,0,1,2681.7,1958.315Z" transform="translate(-2618.143 -1860.37)" fill="#fff"/>
          <circle id="Ellipse_3-2" data-name="Ellipse 3" cx="67.352" cy="67.352" r="67.352" transform="translate(63.559 63.558)" fill="#fff" opacity="0.78"/>
          <g id="Group_21" data-name="Group 21" transform="translate(101.245 83.243)">
            <path id="Path_27" data-name="Path 27" d="M2850.126,2121.339v-7.327a59.762,59.762,0,0,1-20.561-4.458,4.239,4.239,0,0,1-2.343-5.007l1.862-6.825a4.272,4.272,0,0,1,5.8-2.8,49.61,49.61,0,0,0,18.983,4c7.357,0,12.844-2.495,12.844-7.607,0-4.614-4.24-7.357-14.465-10.1-14.59-3.99-25.065-10.351-25.065-23.195,0-11.6,8.48-20.452,23.195-22.821v-7.329a4.269,4.269,0,0,1,4.27-4.269h4.306a4.269,4.269,0,0,1,4.269,4.269v6.58a54.479,54.479,0,0,1,16.3,2.927,4.248,4.248,0,0,1,2.655,5.129l-1.711,6.313a4.258,4.258,0,0,1-5.621,2.875,44.461,44.461,0,0,0-15.983-2.9c-8.729,0-11.223,3.616-11.223,6.858,0,3.99,5.237,6.734,16.585,10.226,16.212,4.863,22.946,11.6,22.946,23.693,0,11.1-8.23,21.075-24.192,23.569v8.2a4.269,4.269,0,0,1-4.27,4.27H2854.4A4.269,4.269,0,0,1,2850.126,2121.339Z" transform="translate(-2827.071 -2023.602)" fill="#f89f1b"/>
          </g>
        </g>
        <g id="Group_603" data-name="Group 603" transform="translate(-19.505 45.51)">
          <circle id="Ellipse_1-3" data-name="Ellipse 1" cx="82.314" cy="82.314" r="82.314" transform="translate(46.862 46.862)" fill="#bf770c"/>
          <circle id="Ellipse_2-3" data-name="Ellipse 2" cx="79.577" cy="79.577" r="79.577" transform="translate(49.599 49.599)" fill="#f89f1b"/>
          <path id="Path_26-2" data-name="Path 26" d="M2681.7,1958.315a1.826,1.826,0,0,1-1.628-2.648,74.967,74.967,0,0,1,67.247-41.405,75.915,75.915,0,0,1,13.58,1.222,1.826,1.826,0,0,1-.655,3.592,72.248,72.248,0,0,0-12.925-1.163,71.336,71.336,0,0,0-63.988,39.4A1.824,1.824,0,0,1,2681.7,1958.315Z" transform="translate(-2618.143 -1860.37)" fill="#fff"/>
          <circle id="Ellipse_3-3" data-name="Ellipse 3" cx="67.352" cy="67.352" r="67.352" transform="translate(63.559 63.558)" fill="#fff" opacity="0.78"/>
          <g id="Group_21-2" data-name="Group 21" transform="translate(101.245 83.243)">
            <path id="Path_27-2" data-name="Path 27" d="M2850.126,2121.339v-7.327a59.762,59.762,0,0,1-20.561-4.458,4.239,4.239,0,0,1-2.343-5.007l1.862-6.825a4.272,4.272,0,0,1,5.8-2.8,49.61,49.61,0,0,0,18.983,4c7.357,0,12.844-2.495,12.844-7.607,0-4.614-4.24-7.357-14.465-10.1-14.59-3.99-25.065-10.351-25.065-23.195,0-11.6,8.48-20.452,23.195-22.821v-7.329a4.269,4.269,0,0,1,4.27-4.269h4.306a4.269,4.269,0,0,1,4.269,4.269v6.58a54.479,54.479,0,0,1,16.3,2.927,4.248,4.248,0,0,1,2.655,5.129l-1.711,6.313a4.258,4.258,0,0,1-5.621,2.875,44.461,44.461,0,0,0-15.983-2.9c-8.729,0-11.223,3.616-11.223,6.858,0,3.99,5.237,6.734,16.585,10.226,16.212,4.863,22.946,11.6,22.946,23.693,0,11.1-8.23,21.075-24.192,23.569v8.2a4.269,4.269,0,0,1-4.27,4.27H2854.4A4.269,4.269,0,0,1,2850.126,2121.339Z" transform="translate(-2827.071 -2023.602)" fill="#f89f1b"/>
          </g>
        </g>
        <path id="Path_44" data-name="Path 44" d="M2186.182,1449.071a99.405,99.405,0,0,0,99.406-99.405h-198.81A99.4,99.4,0,0,0,2186.182,1449.071Z" transform="translate(-1720.704 -1139.109)" fill="#0dadc9"/>
        <rect id="Rectangle_9" data-name="Rectangle 9" width="216.768" height="15.138" rx="7.569" transform="translate(355.877 200.319)" fill="#0dadc9"/>
        <path id="Path_45" data-name="Path 45" d="M687.484,1435.346a99.405,99.405,0,0,0,99.406-99.4H588.079A99.405,99.405,0,0,0,687.484,1435.346Z" transform="translate(-577.884 -1128.643)" fill="#0dadc9"/>
        <rect id="Rectangle_10" data-name="Rectangle 10" width="216.768" height="15.138" rx="7.569" transform="translate(0 197.06)" fill="#0dadc9"/>
      </g>
      <g id="Group_20" data-name="Group 20" transform="translate(513.287 286.403)">
        <path id="Path_46" data-name="Path 46" d="M3008.663,3181.374a2.287,2.287,0,0,0-.061-.6c-2.977-11.8-15.148-17.85-15.148-17.85l-5.854.459c-3.366,10.4-5.536,15.48-5,18.321.015.08.039.155.06.233A138.9,138.9,0,0,0,3008.663,3181.374Z" transform="translate(-2895.628 -2804.695)" fill="#0a0c6a"/>
        <path id="Path_47" data-name="Path 47" d="M2983.122,3241.178a2.539,2.539,0,0,0,1.858,1.876c6.87,1.444,17.789.282,22.373-.318a2.131,2.131,0,0,0,1.768-2.124A138.926,138.926,0,0,1,2983.122,3241.178Z" transform="translate(-2896.087 -2863.934)" fill="#0a0c6a"/>
        <path id="Path_48" data-name="Path 48" d="M3015.774,3124.559l-2.563,12.34a2.017,2.017,0,0,1-1.724,1.66,17.106,17.106,0,0,1-3.971-.063,2.537,2.537,0,0,1-2.009-2.98l1.782-10.957Z" transform="translate(-2913.128 -2775.438)" fill="#f48f8f"/>
        <path id="Path_49" data-name="Path 49" d="M2690.817,3237.44c6.253-.175,9.487-.911,11.159-1.595,0,.622,0,1.255-.02,1.91a1.235,1.235,0,0,1-1.178,1.255l-34.331-.222a1.568,1.568,0,0,1-1.261-2.282C2669.687,3236.878,2681.151,3237.71,2690.817,3237.44Z" transform="translate(-2653.526 -2860.298)" fill="#0a0c6a"/>
        <path id="Path_50" data-name="Path 50" d="M2665.695,3184.613a1.615,1.615,0,0,1,.136-.259c3.032-4.236,10.754-12.672,26.013-16.331l7.32-.231s3.26,5.665,3.321,16.16c-1.672.684-4.906,1.42-11.159,1.595C2681.661,3185.817,2670.2,3184.985,2665.695,3184.613Z" transform="translate(-2654.035 -2808.405)" fill="#0a0c6a"/>
        <path id="Path_51" data-name="Path 51" d="M2781.9,3115.373c-.081.545-1.085,8.838-1.473,12.054a1.592,1.592,0,0,1-1.344,1.439,16.776,16.776,0,0,1-5.028-.077,2.166,2.166,0,0,1-1.641-2.173V3113.6Z" transform="translate(-2735.41 -2767.079)" fill="#f48f8f"/>
        <path id="Path_52" data-name="Path 52" d="M2827.647,2442.173s11.714,104.121,5.206,169.2c0,0-7.809,0-11.714-1.3,0,0-12.172-101.8-16.11-130.935a.979.979,0,0,0-1.931-.061c-4.858,24.509-23.941,120.618-26.209,129.694,0,0-6.508,2.6-11.714,0,0,0,10.412-139.261,18.221-163.99Z" transform="translate(-2729.893 -2255.09)" fill="#71716f"/>
        <path id="Path_53" data-name="Path 53" d="M2842.716,1923.411s-49.458-7.809-88.5,2.6l2.6,40.347s10.412,55.965,18.221,80.694c0,0,29.935,5.206,44.251-2.6,0,0,11.714-70.281,18.221-80.694C2837.51,1963.757,2844.017,1936.426,2842.716,1923.411Z" transform="translate(-2721.534 -1857.368)" fill="#739af0"/>
        <path id="Path_54" data-name="Path 54" d="M2922.9,1782.672l4.927,33.319s-13.765,6.323-23.4-.271l2.075-23.514Z" transform="translate(-2836.076 -1752.192)" fill="#f48f8f"/>
        <path id="Path_9068" data-name="Path 9068" d="M69.233,52.884S70.6,55.839,76.117,54.2,89.133,46.1,89.133,46.1l-1.295-9.2" fill="#e37979"/>
        <path id="Path_55" data-name="Path 55" d="M2852.707,1705.151c-.048.353,3.6,18.9,5.863,30.371a8.083,8.083,0,0,0,10.4,6.13l4.214-1.35a15.745,15.745,0,0,0,10.574-18.387l-4.547-20.615S2853.868,1696.586,2852.707,1705.151Z" transform="translate(-2796.639 -1689.155)" fill="#f48f8f"/>
        <path id="Path_56" data-name="Path 56" d="M2856.529,1664.787c.82-2.575.969-6.284-3.687-8.323-4.713-2.065-8.251.272-10.263,2.354a2.907,2.907,0,0,1-3.439.6,1.851,1.851,0,0,0-1.839.026,2.719,2.719,0,0,1-3.719-1.1c-1.234-2.329-3.646-4.7-8.284-3.865-8.507,1.531-9.392,10.98-7.1,16.493s11.423,3.329,15.988.5c3.353-2.077,7.708-.109,9.784,1.082a2.8,2.8,0,0,1,1.385,2.044l.829,5.863a26.633,26.633,0,0,0,4.793,3.671,5.7,5.7,0,0,0,3.566.729c.414-3.318,4.361-5.38,6.255-6.183a2.817,2.817,0,0,0,1.554-1.636c.805-2.219,1.638-6.8-4.1-8.758A2.8,2.8,0,0,1,2856.529,1664.787Z" transform="translate(-2769.499 -1654.313)" fill="#0d5d6c"/>
        <path id="Path_57" data-name="Path 57" d="M2972.992,1766.667s-3.586-9.778-.008-12.21,8.918-1.231,7.8,5.884C2979.4,1769.192,2972.992,1766.667,2972.992,1766.667Z" transform="translate(-2887.145 -1729.803)" fill="#f48f8f"/>
        <path id="Path_58" data-name="Path 58" d="M3083.037,1932.439s76.789,83.3-13.666,115.183v-6.507s33.84-28.634,7.809-67.678C3077.18,1973.437,3080.434,1936.343,3083.037,1932.439Z" transform="translate(-2961.855 -1866.396)" fill="#739af0"/>
        <path id="Path_59" data-name="Path 59" d="M2995.579,2374.42s-11.714-7.809-16.92-5.207-5.206,6.508-5.206,6.508,2.6,5.206,6.508,3.9,13.015,1.3,16.919,0C2996.88,2379.626,2998.182,2374.42,2995.579,2374.42Z" transform="translate(-2888.713 -2199.05)" fill="#f48f8f"/>
        <path id="Path_60" data-name="Path 60" d="M2649.271,1943.4s-80.042,80.694,10.413,112.581v-6.507s-33.84-28.633-7.809-67.678C2651.875,1981.795,2654.477,1949.908,2649.271,1943.4Z" transform="translate(-2616.592 -1874.754)" fill="#739af0"/>
        <path id="Path_61" data-name="Path 61" d="M2795.577,2374.42s11.714-7.809,16.92-5.207,5.206,6.508,5.206,6.508-2.6,5.206-6.508,3.9-13.015,1.3-16.92,0C2794.276,2379.626,2792.975,2374.42,2795.577,2374.42Z" transform="translate(-2751.835 -2199.05)" fill="#f48f8f"/>
        <path id="Path_62" data-name="Path 62" d="M2825.608,1682.933a.3.3,0,0,1-.25-.132c-4.053-5.978,2.16-12.264,2.223-12.326a.3.3,0,0,1,.425.428c-.059.059-5.92,6-2.149,11.56a.3.3,0,0,1-.25.471Z" transform="translate(-2774.739 -1666.57)" fill="#fff"/>
      </g>
      <g id="Group_35" data-name="Group 35" transform="translate(36.073 290.442)">
        <path id="Path_46-2" data-name="Path 46" d="M1611.873,3135.718s-1.3,7.385-1.944,14.694a5.037,5.037,0,0,0,4.818,5.457c9.735.405,30.557,1.194,38.029.86a1.639,1.639,0,0,0,1.442-2.245,3.667,3.667,0,0,0-1.876-1.977l-34.4-15.809Z" transform="translate(-1531.771 -2781.805)" fill="#0c005d"/>
        <path id="Path_47-2" data-name="Path 47" d="M1613.729,3112.737l1.048,8.833s6.025,2.8,10.14-.354l-2.5-9.843Z" transform="translate(-1534.696 -2763.163)" fill="#f48f8f"/>
        <path id="Path_48-2" data-name="Path 48" d="M1527.8,2408.281c-.453,2.307-2.43,115.108,9.628,165.658a1.717,1.717,0,0,1-1.006,2,29.878,29.878,0,0,1-9.82,2,2.956,2.956,0,0,1-2.932-2.121c-3.447-11.728-19.962-70.491-22.117-126.625-2.407-62.725,0-2.136,0-2.136l1.412-38.772Z" transform="translate(-1447.974 -2224.768)" fill="#676767"/>
        <path id="Path_49-2" data-name="Path 49" d="M1435.823,3152.164s-2.077,3.728-4.087,13.634a3.073,3.073,0,0,0,2.7,3.68c3.214.316,8.163.722,12.127.7a3.064,3.064,0,0,0,3.033-3.418c-.439-3.616-1.807-9.548-6.032-14.172Z" transform="translate(-1395.287 -2794.399)" fill="#0c005d"/>
        <path id="Path_50-2" data-name="Path 50" d="M1441.6,3101.968l2.449,13.358s2.421,1.8,7.211.5l-1.169-14.372Z" transform="translate(-1402.89 -2755.563)" fill="#f48f8f"/>
        <path id="Path_51-2" data-name="Path 51" d="M1400.951,2402.665c-9.861,59.515,2.139,147.1,6.187,164.238a2.673,2.673,0,0,0,2.158,2.03,17.946,17.946,0,0,0,7.713-.308,2.45,2.45,0,0,0,1.761-2.256c.543-13.858-.434-98.937,8.754-132.56a7.641,7.641,0,0,1,2.946-4.214l17.835-12.679,1.367-20.494Z" transform="translate(-1368.855 -2215.691)" fill="#71716f"/>
        <g id="Group_31" data-name="Group 31" transform="translate(28.414 28.435)">
          <path id="Path_52-2" data-name="Path 52" d="M1464.161,1925.881c-29.553-.488-62.161,7.76-62.161,7.76-8.809,51.4-1.54,110.688-1.54,110.688,22.879,6,48.688-3.668,48.688-3.668,3.8-21.484,21.545-81.949,21.545-81.949a97.357,97.357,0,0,0,36.13-11.466c-7.472-8.661-10.994-19.682-12.525-26.2C1483.85,1924.3,1473.276,1926.032,1464.161,1925.881Z" transform="translate(-1397.641 -1880.111)" fill="#739af0"/>
          <path id="Path_53-2" data-name="Path 53" d="M1867.419,1748.526a5.655,5.655,0,0,0-6.578-1.848c-4.349,18.371-27.152,33.266-50.58,40.547,1.53,6.515,5.052,17.536,12.525,26.2C1861.666,1791.561,1867.419,1748.526,1867.419,1748.526Z" transform="translate(-1713.604 -1746.287)" fill="#f48f8f"/>
        </g>
        <g id="Group_32" data-name="Group 32" transform="translate(175.652)">
          <path id="Path_54-2" data-name="Path 54" d="M2032.055,1656.466c.3.966-3.214,2.436-5.285-1.513-.073-1.893-1.224-10-.093-11.545,6.024-8.213,17.7-18.508,17.7-18.508a2.779,2.779,0,0,1,.348,3.861l-5.666,5.9c1.185,2.142,2.631,3.95,3.308,6.54a7.94,7.94,0,0,1-.791,5.844c-.995,1.792-2.352,4.121-3.634,5.944A7.841,7.841,0,0,1,2032.055,1656.466Z" transform="translate(-2026.183 -1624.9)" fill="#f48f8f"/>
          <path id="Path_55-2" data-name="Path 55" d="M2048.412,1682.928l-5.163,4.377-1.621,4.358,4.6,5.107s1.548-8.647,2.7-10.518S2049.484,1683.475,2048.412,1682.928Z" transform="translate(-2038.01 -1669.335)" fill="#f48f8f"/>
        </g>
        <path id="Path_56-2" data-name="Path 56" d="M1322.509,2003.415l-11.335-28.616s-27.6,18.756-32.144,42.536a65.322,65.322,0,0,1,24,6.431C1305.068,2012.538,1322.509,2003.415,1322.509,2003.415Z" transform="translate(-1278.401 -1892.834)" fill="#739af0"/>
        <path id="Path_57-2" data-name="Path 57" d="M1344.575,2169.388s-30.993,17.516-41.45,2.56a11.756,11.756,0,0,1-2.156-9.135,65.324,65.324,0,0,0-24-6.431,32.819,32.819,0,0,0,3.568,22.5c18.318,33.509,68.136-1.852,68.136-1.852Z" transform="translate(-1276.343 -2031.881)" fill="#f48f8f"/>
        <g id="Group_33" data-name="Group 33" transform="translate(64.44 89.951)">
          <path id="Path_58-2" data-name="Path 58" d="M1551.5,2097.363l16.915-59.069a1.722,1.722,0,0,1,1.457-1.24c3.065-.358,11.945-1.362,22.2-2.229,12.35-1.045,26.692-1.891,35.262-1.171a1.728,1.728,0,0,1,1.413,2.487c-4.874,9.86-24.921,49.968-34.96,63.107a1.732,1.732,0,0,1-1.395.685l-39.245-.365A1.729,1.729,0,0,1,1551.5,2097.363Z" transform="translate(-1551.43 -2027.648)" fill="#e9605a"/>
          <path id="Path_59-2" data-name="Path 59" d="M1727.532,2010.948l12.263-2.043a.88.88,0,0,1,.981,1.144l-1.214,3.679a.88.88,0,0,1-.719.6l-11.8,1.576a.88.88,0,0,1-.973-1.073l.751-3.212A.88.88,0,0,1,1727.532,2010.948Z" transform="translate(-1685.141 -2008.892)" fill="#b72721"/>
          <path id="Path_60-2" data-name="Path 60" d="M1693.122,2033.341l1.01-5.262a1.216,1.216,0,0,1,1.072-.981l24.77-2.514a1.216,1.216,0,0,1,1.306,1.494l-1.575,6.557a1.217,1.217,0,0,1-1.122.931l-24.2,1.219A1.217,1.217,0,0,1,1693.122,2033.341Z" transform="translate(-1659.913 -2020.904)" fill="#b72721"/>
          <path id="Path_61-2" data-name="Path 61" d="M1563.831,2179.742s-2.356-9.688-1.406-13.126,2.792-7.857,8.93-6.875a89.839,89.839,0,0,1,13.379,3.568s-.366,4.478-5.031,3.033l2.893,2.239s-.413,3.585-4.354,1.67l2.691,2.968a3.136,3.136,0,0,1-4.591,1.056C1573.442,2172.386,1572.053,2180.908,1563.831,2179.742Z" transform="translate(-1559.677 -2124.298)" fill="#f48f8f"/>
        </g>
        <path id="Path_62-2" data-name="Path 62" d="M1522.9,1839.252l-9.4,27.193a.98.98,0,0,0,.447,1.18c2.563,1.417,11.8,5.514,22.927-1.542a4.615,4.615,0,0,0,2.125-3.3l3.045-23.536Z" transform="translate(-1457.903 -1789.04)" fill="#f48f8f"/>
        <g id="Group_34" data-name="Group 34" transform="translate(47.153 10.897)">
          <path id="Path_63" data-name="Path 63" d="M1562.375,1731.752s10.326,19.437,9,27.289-14.121,7.288-25.3.911l-7.809-20.988Z" transform="translate(-1524.067 -1717.619)" fill="#f48f8f"/>
          <path id="Path_64" data-name="Path 64" d="M1500.142,1703.446a.8.8,0,0,0,.35-1.172,20.909,20.909,0,0,1-2.873-6.1s-1.856-1.189,4.724-2.764,16.395-4.02,18.458-9.622c2.011-5.461-3.273-19.2-11.7-8.252a.8.8,0,0,1-1.27.009c-1.382-1.8-5.015-5.532-10.06-3.269-4.721,2.118-5.252,5.577-5.187,7.321a.8.8,0,0,1-.943.815c-2.387-.455-8.114-.846-10.788,5.029-2.2,4.839-.771,7.579.532,8.919a.8.8,0,0,1-.342,1.326c-1.569.48-3.594,1.81-3.391,5.485.28,5.08,5.96,4.633,7.578,4.4a.8.8,0,0,1,.711.252c1.387,1.535,7.634,8.051,14.4,8.836a.808.808,0,0,0,.848-1.068l-2.926-8.507a.8.8,0,0,1,.435-1Z" transform="translate(-1477.635 -1671.42)" fill="#0d5d6c"/>
          <path id="Path_65" data-name="Path 65" d="M1552.855,1805.123s-7.352-5.044-7.889-.8,6.621,6.153,10.166,4.569Z" transform="translate(-1529.171 -1771.89)" fill="#f48f8f"/>
        </g>
      </g>
    </g>
  </g>
</svg>
