<svg xmlns="http://www.w3.org/2000/svg" width="474" height="474" viewBox="0 0 474 474">
  <g id="hero-germany" transform="translate(-843.378 -208.923)">
    <circle id="Ellipse_2061" data-name="Ellipse 2061" cx="237" cy="237" r="237" transform="translate(843.378 208.923)" fill="#fff"/>
    <g id="Group_595" data-name="Group 595" transform="translate(359.858 -3938.285)">
      <path id="Path_9029" data-name="Path 9029" d="M792.54,4533.283s-1.979,1.115,0,5.613,2.826,6.27,2.415,7.771-3.7,3.1-4.745,2.914-5.245-7.035-5.245-7.035l-4.745-1.232s-.613-.121-8.051,0-6.938-.216-9.381,1.232-6.233,3.477-9.49,4.121-4.749-.382-5.749,1.635,3.052,2.037-2.81,3.739-7.765,2.708-11.167,1.473-1.814-.164-6.059-3.933-2.524-5.191-5.89-4.663-2.915-4.5-4.838,1.749-2.06,10.76-4.713,9.417-5.737-1.407-6.882-4.043a18.226,18.226,0,0,0-2.024-3.739s6.954-.348,0-1.635-3.7.051-10.107-1.749-8.656-2.372-8.656-2.372,2.463-.031-3.931-2.476-7.261-2.752-7.261-2.752,4.886-5.258-5.112-1.856-8.507,3.242-9.583,5.853-2.911,4.785-4.882,5.353-4.338-1.254-12.107,0-9.059,1.088-8.168-1.749,1.891-4.669,2.431-7.6.774-2.816,1.895-6.873,3.822-3.761,3.842-7.961.145-7.613,0-10.445,1.29-2.871,2-5.875.77-2.848,2.79-5.755,1.693-.573,3.7-4.785a43.754,43.754,0,0,1,5.217-8.044s-6.342-3.87-7.5-4.429-1.209-.27-4.2-1.1-18.275-4.146-19.279-4.575-5.519-.4-8.656-4.105-4.173-4.175-6.874-8.025-5.463-1.261-3.846-7.146,2.173-7.711,2.173-7.711-.71,3.1-2.173,0-1.564-3.486-2.81-4.251-7.974-6.536-6.309-10.961,5.741-6.354,6.309-6.937.206,2.273,1.415-1.042,5.757-7.071,3.568-7.718-4.983-5.358-4.983-5.358-8.623-13.238-9.853-15.521,3.29-5.64,3.544-6.605,1.665-1.07,1.927-2.146,2.435-6.02,2.435-6.02,1.258,7.457,0-2.767-4.362-15.634-4.362-15.634a7.093,7.093,0,0,1-1.979-4.5c0-2.549-.681-4.022,1.979-4.023s4.459-1.209,9.119,0,2.173,2.788,8.232,0,6.394.219,6.966-6.262,1.633-9.236,1.633-9.236,2.939-1.524,2.544-3.761-.585-8.268-2.544-9.06-3.939-2.566-4.85-2.948a2.792,2.792,0,0,1-1.262-1.684l6.112-4.643H623.1l5.4-15.078s1.133-8,1.133-8.868,1.08-5.842,1.08-5.842l-6.458-3.279,6.458-13.912s4.467-3.029,8.39-1.677,6.979,1.169,8.635,1.677,2.334-2.822,3.8,1.6,3.741,5.308,3.7,6.695,1.322,2.358,3.2,2.057a11.1,11.1,0,0,0,4.08-2.057l1.609-4.21,2.685-4.089s.044.6,0-1.677,0-5.978,0-5.978h5.7c1.425,0,1.713-.1,4.37,0s2.871-1.861,5.1,0,1.943,0,4.64,2.415,2.963,3.75,4.028,3.563a10.039,10.039,0,0,1,2.487,0,4.467,4.467,0,0,0,2.367,1.677c1.774.636,4.519-.051,2.943-1.677s-2.867-1.081-5.31-3.563-1.484-2.123-4.2-4.376-6.95-5.047-6.95-5.047-.242,2.424-3.556,0-2.016-4.578-1.544-5.085.871-.2,1.544-1.081-1.544-4.7-1.544-4.7l1.544-7.1H669.97s3.395-6.867,4.608-6.867h3.846L672.51,4219.1l-2.54-4.383s-5.737-4.127,2.54-2.039,14.465.76,16.42,2.039.786.632,4.2,2.118,5.81,2.458,7.4,2.265,6.66,0,6.66,0,.992.23,2.048,3.761,2.6,1.655,1.056,4.665.185,3.125-1.056,4.086-4.281,2.062-2.048,3.152,6.011,2.839,6.011,2.839,1.645.665,2.568,0,8.107,3.112,10.006,3.768,8.224,0,8.224,0,2.161-5.8,3.866-3.768,2.169,5.671,2.169,5.671a22.77,22.77,0,0,1-2.169,5.093,19.157,19.157,0,0,1-2.834,3.23c-1.133,1.215-3,2.351-2.205,3.306s-1.016,2.838,2.205,2.86,4.33-.647,6.362,0-.065-1.4,4.229,0a17.076,17.076,0,0,0,6.781,1.075s.5-.545,2.205-2.838-.391-2.062,3.1-3.322.972,0,9.853-4.312,14.586-7,14.586-7-4.132-3.1,3.29-3.768,12.582-.541,13.074,0-2.137,4.771,0,0,2.25-7.961,2.1-8.771a34.666,34.666,0,0,1,0-4.037s-2.29-.542,1.234,0,10.7,6.816,10.7,6.816-2.181-2.439,0,1.323a25.57,25.57,0,0,0,3.112,4.668s-1.238,2.975-3.112,3.768-2.774.156-4.943,1.9-3.657,2.4-2.435,3.627.141-.77,2.435,1.466,11.369,2.019,11.369,2.019a15.2,15.2,0,0,1,2.544,1.212c1.395.823,1.613-1.23,2.294,1.081a5.943,5.943,0,0,0,2.451,3.322,1.536,1.536,0,0,0,0,1.763c.621.989,2.62,1.982,0,2.536s-1.689-.879-3.5,1.015a5.894,5.894,0,0,0-1.25,4.757,2.932,2.932,0,0,1,1.25,1.115c.516.824,3.5,1.445,3.5,1.445a37.042,37.042,0,0,0,3.346,2.118c.891.4,2.641,7.591,2.641,7.591s-.556,1.793,0,2.385a10.564,10.564,0,0,1,1.27,3.092c.306.915,1.609,10.354,1.609,10.354s-.262-1.343-2.879,5.053-1.875,6.551-2.641,7.475-3.346,5.352-3.346,5.352,1.391,2.974,3.346,4.092,2.983,2.923,3.911,3.263,2.79.287,3.576,2.4,1.338-.145,1.338,3.93-.568,2.393,0,5.78-1.548,2.353,0,5.1,1.657,2.674,2.435,4.891,1.331.992,1.185,3.632.427,3.959,0,5.6-.081-2.365-1.185,4.48-4.491,3.186,0,10.678,7.031,8.947,7.031,8.947-2.552-4.591,0,1.692,0,24.258,0,24.258-1.435-1.738-2.318,0-3.528,2.671-3.528,2.671l-1.185-2.671s-3.233-1.652-3.773-2.738a18.281,18.281,0,0,0-1.967-2.75s.3-2.681-1.609,0,.464,5.5-1.27,5.488-.085.881-5.987,2.671-11.865,2.732-13.715,4.85-10.841,7.264-10.841,7.264,1.992-2.087-3.185,2.187-4.552,3.6-6.3,4.631a50.882,50.882,0,0,1-5.152,2.5c-1.532.687-5.793-1.49-7.5,0s-2.427-.241-3.636,3.185-5.39,1.868-5.39,1.868.141-.742-1.56-1.868,0,8.929,0,8.929a2.725,2.725,0,0,0,1.56,2.177c1.512.77.52-1.363,3.177,1.758a21.566,21.566,0,0,1,3.8,7.255s.645-.567,0,1.134-1.584,4.574-1.584,4.574l11.135,15.5s2.076,4,3.778,5.33a14.923,14.923,0,0,0,3,1.954c2.06,1.223,4,.744,4.677,2.01s2.028.515,4.479,3.35,1.673,1.259,4.193,3.969,11.578-1.48,9.442,7.477-2.374,11.062-4.088,11.235a52.13,52.13,0,0,1-5.354,0s-2.185-2.065-2.314,0-2.451,8.251-4.761,9.661a18,18,0,0,1-5.164,2.272c-2.584.882-3.378.5-4.745,1.515s-1.774-1.873-3.136,1.859-.649,3.249,0,5.555a7.257,7.257,0,0,0,1.242,3.078A29.161,29.161,0,0,0,792.54,4533.283Z" transform="translate(0 0)" fill="#f89f1b" stroke="#151515" stroke-linecap="round" stroke-linejoin="round" stroke-width="2"/>
    </g>
  </g>
</svg>
