<svg xmlns="http://www.w3.org/2000/svg" xmlns:xlink="http://www.w3.org/1999/xlink" width="1147.382" height="762.912" viewBox="0 0 1147.382 762.912">
  <defs>
    <linearGradient id="linear-gradient" y1="0.5" x2="1" y2="0.5" gradientUnits="objectBoundingBox">
      <stop offset="0" stop-color="#dae3fe"/>
      <stop offset="1" stop-color="#e9effd"/>
    </linearGradient>
    <clipPath id="clip-path">
      <path id="Path_35" data-name="Path 35" d="M1314.94,562.206,1563.263,355.4a5.667,5.667,0,0,0-3.093-9.992c-1.746-.173-3.53-162.843-5.342-162.742l-487.4,27.166c-5.809.324-11.212,164.711-15.876,167.546a5.639,5.639,0,0,0-.828,8.931L1237.809,560.3C1258.652,579.68,1292.939,580.529,1314.94,562.206Z" transform="translate(-1048.906 -182.663)" fill="none"/>
    </clipPath>
    <linearGradient id="linear-gradient-3" x1="0.773" y1="-0.252" x2="0.322" y2="0.991" gradientUnits="objectBoundingBox">
      <stop offset="0" stop-color="#fe7062"/>
      <stop offset="1" stop-color="#ff928e"/>
    </linearGradient>
    <linearGradient id="linear-gradient-4" x1="1.364" y1="-1.819" x2="-0.374" y2="2.758" xlink:href="#linear-gradient-3"/>
    <linearGradient id="linear-gradient-5" x1="1.14" y1="-3.292" x2="0.238" y2="2.007" xlink:href="#linear-gradient-3"/>
    <linearGradient id="linear-gradient-6" x1="119.833" y1="0.85" x2="120.066" y2="0.282" gradientUnits="objectBoundingBox">
      <stop offset="0" stop-color="#ff928e"/>
      <stop offset="1" stop-color="#feb3b1"/>
    </linearGradient>
    <linearGradient id="linear-gradient-7" x1="-56.959" y1="0.5" x2="-55.959" y2="0.5" gradientUnits="objectBoundingBox">
      <stop offset="0" stop-color="#cb236d"/>
      <stop offset="1" stop-color="#4c246d"/>
    </linearGradient>
    <linearGradient id="linear-gradient-8" x1="801.627" y1="40.08" x2="795.789" y2="42.369" xlink:href="#linear-gradient-6"/>
    <linearGradient id="linear-gradient-9" x1="0.323" y1="-0.081" x2="0.798" y2="1.658" gradientUnits="objectBoundingBox">
      <stop offset="0" stop-color="#09005d"/>
      <stop offset="1" stop-color="#1a0f91"/>
    </linearGradient>
    <linearGradient id="linear-gradient-10" x1="0.274" y1="-0.121" x2="0.707" y2="0.812" gradientUnits="objectBoundingBox">
      <stop offset="0" stop-color="#e1473d"/>
      <stop offset="1" stop-color="#e9605a"/>
    </linearGradient>
    <linearGradient id="linear-gradient-11" x1="0.271" y1="0.057" x2="1.058" y2="1.152" xlink:href="#linear-gradient-3"/>
    <linearGradient id="linear-gradient-12" x1="0.382" y1="1.695" x2="-0.049" y2="5.914" xlink:href="#linear-gradient-10"/>
    <linearGradient id="linear-gradient-13" x1="0.474" y1="0.802" x2="0.119" y2="4.58" xlink:href="#linear-gradient-10"/>
    <linearGradient id="linear-gradient-14" x1="0.707" y1="0.407" x2="-0.328" y2="1.168" gradientUnits="objectBoundingBox">
      <stop offset="0" stop-color="#a22b25"/>
      <stop offset="1" stop-color="#c0423c"/>
    </linearGradient>
  </defs>
  <g id="Illustration" transform="translate(-198.792 -137)">
    <g id="Group_47" data-name="Group 47" transform="translate(131 137)">
      <path id="Path_1" data-name="Path 1" d="M601.62,237.929S490.9,142.3,404.036,175.2s-45.456,118.676-99.709,145.835-98.3-12.4-153.348,70.011,17.143,141.489,55.1,190.169c40.236,51.6,73.74,71.846,7.184,104.008S127.972,846.7,241.611,876.812s451.772,30.383,516.634,31.9S1076.2,915.1,1199,784.928s82.844-174.518,16.012-224.416-32.413-132.248,0-218.363S1173.334,169.177,1054.436,204.3,747.657,329.6,601.62,237.929Z" transform="translate(-63.216 -151.122)" fill="#d2fdfd"/>
      <g id="Group_3" data-name="Group 3" transform="translate(449.688 24.803)">
        <path id="Path_6" data-name="Path 6" d="M968.589,182.95c26.192,23.659,172.992,167.566,62.7,329.578,0,0-121.032-69.861-67.623-327.976A2.986,2.986,0,0,1,968.589,182.95Z" transform="translate(-950.054 -182.176)" fill="#25cbe8"/>
        <path id="Path_7" data-name="Path 7" d="M995.723,246.167c9.519,20.471,18.389,41.207,26.869,62.115,8.458,20.915,16.451,42.024,23.791,63.372,7.322,21.351,14.032,42.936,19.552,64.866q4.191,16.432,7.17,33.177a285.8,285.8,0,0,1,4.106,33.8,2.159,2.159,0,0,1-4.311.236V503.7a281.814,281.814,0,0,0-3.742-33.327q-2.78-16.583-6.81-32.969c-5.284-21.843-11.77-43.41-18.875-64.765-7.122-21.353-14.9-42.493-23.156-63.449-8.271-20.944-16.948-41.752-26.249-62.249l0-.011a.914.914,0,0,1,1.661-.764Z" transform="translate(-969.863 -210.795)" fill="#d2fdfd"/>
      </g>
      <g id="Group_4" data-name="Group 4" transform="translate(523.872 22.835)">
        <path id="Path_8" data-name="Path 8" d="M1136.055,179.689c15.4,23.794,99.384,165.92-19.829,268.682,0,0-79.374-79.334,15.674-268.463A2.4,2.4,0,0,1,1136.055,179.689Z" transform="translate(-1085.172 -178.592)" fill="#25cbe8"/>
        <path id="Path_9" data-name="Path 9" d="M1173.941,231.566c3.152,17.86,5.746,35.785,8,53.767,2.237,17.982,4.073,36.02,5.353,54.11s2.007,36.233,1.754,54.406q-.147,13.627-1.3,27.254a229.825,229.825,0,0,1-3.814,27.124,2.159,2.159,0,1,1-4.226-.883l0-.013,0-.021a225.79,225.79,0,0,0,4.043-26.576q1.3-13.422,1.6-26.96c.458-18.028-.071-36.1-1.126-54.133s-2.693-36.051-4.72-54.019c-2.045-17.963-4.432-35.909-7.369-53.738v-.012a.914.914,0,0,1,1.8-.307Z" transform="translate(-1124.385 -202.141)" fill="#d2fdfd"/>
      </g>
      <g id="Group_5" data-name="Group 5" transform="translate(966.269 237.914)">
        <path id="Path_10" data-name="Path 10" d="M2060.45,572.992a3.356,3.356,0,0,0-6.506-.237c-9.246,32.437-36.154,116.732-77.208,161.353-66.844,72.652-111.618,190.892-69.25,252.405C1907.486,986.512,2139,944.91,2060.45,572.992Z" transform="translate(-1890.945 -570.333)" fill="#25cbe8"/>
        <path id="Path_11" data-name="Path 11" d="M2079.674,659.05c-.087,1.05-.244,1.923-.372,2.863l-.437,2.767-.935,5.518c-.648,3.674-1.35,7.336-2.054,11q-2.149,10.979-4.547,21.907c-3.206,14.569-6.8,29.05-10.615,43.473-3.8,14.43-7.988,28.755-12.48,42.986s-9.215,28.393-14.387,42.4a718.815,718.815,0,0,1-35.795,82.073c-1.676,3.337-3.545,6.575-5.307,9.867l-2.681,4.918c-.914,1.628-1.871,3.233-2.8,4.85-1.9,3.218-3.717,6.479-5.674,9.66l-5.926,9.509a389.375,389.375,0,0,1-26.387,36.178.54.54,0,0,1-.843-.673l0-.006a431.075,431.075,0,0,0,25.336-36.689l5.756-9.548c1.9-3.193,3.664-6.467,5.5-9.7.9-1.622,1.833-3.232,2.719-4.866l2.595-4.934c1.705-3.3,3.515-6.549,5.134-9.9,6.746-13.247,12.951-26.766,18.85-40.413s11.224-27.543,16.462-41.463c10.362-27.891,19.244-56.319,27.312-84.969q6.007-21.5,11.181-43.231,2.609-10.856,4.994-21.766,1.174-5.458,2.287-10.928l1.086-5.473.512-2.74c.154-.9.333-1.862.435-2.666l.015-.12a.535.535,0,0,1,1.064.111Z" transform="translate(-1916.819 -610.08)" fill="url(#linear-gradient)"/>
      </g>
      <g id="Group_6" data-name="Group 6" transform="translate(940.731 394.853)">
        <path id="Path_12" data-name="Path 12" d="M1844.43,1206.783s1.565-55.429,57.795-111.136c52.171-51.687,180.355-171.206,210.182-237.684a2.98,2.98,0,0,1,5.709,1.188c.1,34.623-6.462,121.358-66.916,207.189C1973.243,1177.026,1844.43,1206.783,1844.43,1206.783Z" transform="translate(-1844.43 -856.177)" fill="#25cbe8"/>
        <path id="Path_13" data-name="Path 13" d="M2104.125,971.989a126.119,126.119,0,0,1-5.293,22.344l-.864,2.745-.965,2.709-1.935,5.422-2.159,5.336c-.736,1.772-1.4,3.579-2.242,5.3a262.278,262.278,0,0,1-22.352,40.25c-2.024,3.273-4.378,6.314-6.616,9.438-2.287,3.087-4.437,6.283-6.911,9.225l-7.222,8.989c-1.171,1.527-2.5,2.918-3.77,4.359l-3.844,4.3-3.844,4.3-1.929,2.142-2.024,2.05-8.1,8.2c-1.36,1.354-2.679,2.761-4.072,4.073l-4.173,3.943-8.346,7.885c-11.22,10.415-22.514,20.754-34.064,30.8-5.736,5.066-11.551,10.038-17.34,15.04l-17.53,14.8c-11.694,9.846-23.39,19.678-34.75,29.851-2.878,2.506-5.622,5.143-8.413,7.738-1.413,1.281-2.731,2.651-4.083,3.99s-2.714,2.672-4.02,4.053c-2.55,2.815-5.211,5.546-7.56,8.531-2.518,2.859-4.649,6-6.885,9.079l-.018.024a.54.54,0,0,1-.9-.6,134.341,134.341,0,0,1,13.962-18.325c1.278-1.434,2.623-2.8,3.932-4.207s2.616-2.814,4-4.144c2.73-2.692,5.419-5.435,8.232-8.035,11.146-10.528,22.762-20.5,34.265-30.565l17.261-15.086c5.74-5.04,11.51-10.046,17.194-15.143q17.132-15.208,33.874-30.833l8.317-7.87,4.159-3.935c1.388-1.31,2.7-2.677,4.055-4.014l8.069-8.061,2.018-2.015,1.922-2.106,3.83-4.224a338.2,338.2,0,0,0,28.538-35.532c2.129-3.148,4.318-6.26,6.4-9.439l5.981-9.714c1.927-3.277,3.729-6.627,5.6-9.939.962-1.644,1.773-3.365,2.634-5.061l2.558-5.1c1.671-3.419,3.168-6.919,4.769-10.377l2.143-5.294,1.071-2.65.971-2.686c.628-1.8,1.313-3.58,1.9-5.394l1.7-5.459a112.757,112.757,0,0,0,2.732-11.109.067.067,0,0,1,.074-.059A.07.07,0,0,1,2104.125,971.989Z" transform="translate(-1856.784 -908.37)" fill="url(#linear-gradient)"/>
      </g>
      <g id="Group_10" data-name="Group 10" transform="translate(154.658 237.125)">
        <g id="Group_9" data-name="Group 9" transform="translate(40.84)">
          <path id="Path_14" data-name="Path 14" d="M1299.758,1057.516a14.412,14.412,0,0,1-14.377,14.363H507.923a14.412,14.412,0,0,1-14.377-14.363l-6.469-446.784c0-7.9,9.307-23.322,26.365-22.163l759.817-19.66a36.23,36.23,0,0,1,37.176,37.055Z" transform="translate(-487.077 -568.896)" fill="#00b3d3"/>
          <path id="Path_15" data-name="Path 15" d="M1301.9,1057.729a13.642,13.642,0,0,1-13.6,13.6H543.008a13.642,13.642,0,0,1-13.6-13.6l-6.1-405.594c.719-24.407,22.118-33.18,35.089-32.662l728.216-19.537a25.463,25.463,0,0,1,26.124,26.057Z" transform="translate(-503.413 -582.89)" fill="#25cbe8"/>
          <g id="Group_7" data-name="Group 7" transform="translate(29.935 38.995)">
            <path id="Path_16" data-name="Path 16" d="M547.808,1052.348a1.079,1.079,0,0,1-1.079-1.063l-.483-32.893a1.079,1.079,0,0,1,1.063-1.1,1.124,1.124,0,0,1,1.095,1.063l.484,32.893a1.08,1.08,0,0,1-1.063,1.095Z" transform="translate(-543.695 -810.105)" fill="#d2fdfd"/>
            <path id="Path_17" data-name="Path 17" d="M544.529,801.56a1.079,1.079,0,0,1-1.079-1.063l-1.85-125.98c.038-8.408,2.628-15.124,7.7-19.982,9.227-8.841,23.665-8.393,24.273-8.372l232.554-6.241a1.079,1.079,0,1,1,.058,2.158L573.567,648.32c-.647-.02-14.2-.441-22.776,7.772-4.632,4.438-7,10.633-7.033,18.413l1.85,125.959a1.08,1.08,0,0,1-1.063,1.1Z" transform="translate(-541.6 -639.921)" fill="#d2fdfd"/>
          </g>
          <g id="Group_8" data-name="Group 8" transform="translate(57.328 47.513)">
            <path id="Path_18" data-name="Path 18" d="M592.993,1060.261c.78-33.523.489-330.376-1.434-356.013s38.005-30.447,99.308-33.332,578.539-14.308,591.857-15.388c29.935-2.427,36.131,42.317,33.136,139.452-2.25,72.978-5.979,193.2-7.695,248.48a30.508,30.508,0,0,1-30.435,29.568c-124.468.342-601.518,1.709-633.276,2.655C607.909,1076.771,592.684,1073.553,592.993,1060.261Z" transform="translate(-591.493 -655.435)" fill="#d2fdfd"/>
          </g>
        </g>
        <rect id="Rectangle_2" data-name="Rectangle 2" width="916.592" height="39.256" rx="7.505" transform="translate(0 486.53)" fill="#0992ac"/>
      </g>
      <g id="Group_17" data-name="Group 17" transform="translate(490.087)">
        <g id="Group_11" data-name="Group 11" transform="translate(9.286)">
          <path id="Path_19" data-name="Path 19" d="M1297.85,150.069l-257.3,212.715a34.106,34.106,0,0,0,16.63,3.331l487.495-25.4a34.19,34.19,0,0,0,21.643-9.208L1374.974,152.258C1354.2,132.8,1319.917,131.825,1297.85,150.069Z" transform="translate(-1040.549 -137)" fill="#e38800"/>
        </g>
        <path id="Path_20" data-name="Path 20" d="M1527.233,880.131H1057.942a34.306,34.306,0,0,1-34.306-34.306V540.246a34.306,34.306,0,0,1,32.4-34.253l487.4-27.167a34.306,34.306,0,0,1,36.165,36.117L1561.488,847.69A34.306,34.306,0,0,1,1527.233,880.131Z" transform="translate(-1023.636 -291.128)" fill="#f89f1b"/>
        <g id="Group_12" data-name="Group 12" transform="translate(10.787 187.644)">
          <path id="Path_21" data-name="Path 21" d="M1312.4,695.741,1568.935,482.1a34.1,34.1,0,0,0-16.642-3.271l-487.4,27.167a34.185,34.185,0,0,0-21.609,9.286l191.989,178.552C1256.116,713.216,1290.4,714.064,1312.4,695.741Z" transform="translate(-1043.284 -478.772)" fill="#d07c00"/>
        </g>
        <g id="Group_16" data-name="Group 16" transform="translate(13.874 25.071)">
          <g id="Group_15" data-name="Group 15" clip-path="url(#clip-path)">
            <path id="Path_22" data-name="Path 22" d="M1551.937,639H1227.779V270.721a26.6,26.6,0,0,1,25.065-26.551l270.967-15.615a26.6,26.6,0,0,1,28.125,26.551Z" transform="translate(-1129.572 -203.339)" fill="#25cbe8"/>
            <path id="Path_23" data-name="Path 23" d="M1549.955,662.074H1247.982V319a24.776,24.776,0,0,1,23.35-24.734l252.423-14.547a24.775,24.775,0,0,1,26.2,24.734Z" transform="translate(-1138.683 -226.413)" fill="#d2fdfd"/>
            <g id="Group_13" data-name="Group 13" transform="translate(191.129 108.219)">
              <circle id="Ellipse_1" data-name="Ellipse 1" cx="64.504" cy="64.504" r="64.504" transform="matrix(0.063, -0.998, 0.998, 0.063, 0, 128.751)" fill="url(#linear-gradient-3)"/>
              <path id="Path_24" data-name="Path 24" d="M1412.5,492.726l-.057,0a1.079,1.079,0,0,1-1.022-1.134,60.91,60.91,0,0,1,.882-7.615,1.079,1.079,0,0,1,2.124.384,58.787,58.787,0,0,0-.851,7.344A1.079,1.079,0,0,1,1412.5,492.726Z" transform="translate(-1403.516 -426.363)" fill="#fff" opacity="0.67"/>
              <path id="Path_25" data-name="Path 25" d="M1423.921,428.922a1.08,1.08,0,0,1-.963-1.566,60.368,60.368,0,0,1,54.152-33.342,61.115,61.115,0,0,1,10.936.984,1.079,1.079,0,1,1-.387,2.124,58.982,58.982,0,0,0-10.549-.949,58.222,58.222,0,0,0-52.225,32.156A1.078,1.078,0,0,1,1423.921,428.922Z" transform="translate(-1408.668 -386.194)" fill="#fff" opacity="0.67"/>
              <circle id="Ellipse_2" data-name="Ellipse 2" cx="54.594" cy="54.594" r="54.594" transform="translate(12.497 18.159) rotate(-2.972)" fill="#fff" opacity="0.67"/>
              <path id="Path_26" data-name="Path 26" d="M1527.194,456.438c0,9.244-7.494,19.224-16.738,19.224s-16.738-9.98-16.738-19.224,7.494-15.8,16.738-15.8S1527.194,447.194,1527.194,456.438Z" transform="translate(-1440.63 -407.219)" fill="url(#linear-gradient-4)"/>
              <path id="Path_27" data-name="Path 27" d="M1476.853,544.407h40.861a9.89,9.89,0,0,0,9.42-6.877l2.2-6.872a9.88,9.88,0,0,0-5.969-12.293c-16.629-6.08-33.823-5.3-51.437.561a9.848,9.848,0,0,0-6.312,11.939l1.693,6.241A9.89,9.89,0,0,0,1476.853,544.407Z" transform="translate(-1427.799 -440.373)" fill="url(#linear-gradient-5)"/>
            </g>
            <path id="Path_28" data-name="Path 28" d="M1329.851,668.772v2.943a15.241,15.241,0,0,0,16.069,15.218l190.164-10.346a15.241,15.241,0,0,0,14.4-15.731l-.326-9.681a15.24,15.24,0,0,0-16.6-14.666l-189.839,17.085A15.24,15.24,0,0,0,1329.851,668.772Z" transform="translate(-1175.603 -387.303)" fill="#fff"/>
            <path id="Path_29" data-name="Path 29" d="M1340.589,773.917h0A15.24,15.24,0,0,0,1355.7,789.94l168.063,1.245a15.241,15.241,0,0,0,15.353-15.2l.041-14.164a15.24,15.24,0,0,0-16.408-15.24l-168.1,12.919A15.241,15.241,0,0,0,1340.589,773.917Z" transform="translate(-1180.436 -436.952)" fill="#fff"/>
            <g id="Group_14" data-name="Group 14" transform="translate(180.2 266.307)">
              <path id="Path_30" data-name="Path 30" d="M1393.151,681.906l-4.69,7.836.009.119,8.248-1.812.3,4.051-8.416-.452.009.119,5.831,6.754-3.318,2.4-3.933-8.093-.11.008-2.963,8.666-3.307-1.911,4.7-7.657-.009-.12-8.086,1.74-.3-4.051,8.2.528-.009-.119-5.73-6.882,3.212-2.335,4.039,8.025.11-.008,2.747-8.59Z" transform="translate(-1377.119 -673.309)" fill="#25cbe8"/>
              <path id="Path_31" data-name="Path 31" d="M1434.878,678.8l-4.69,7.837.009.119,8.247-1.812.3,4.051-8.416-.452.009.12,5.831,6.753-3.318,2.4-3.933-8.093-.11.008-2.963,8.665-3.306-1.911,4.7-7.657-.009-.119-8.086,1.74-.3-4.051,8.2.528-.009-.12-5.73-6.881,3.212-2.335,4.039,8.025.11-.008,2.747-8.59Z" transform="translate(-1395.936 -671.909)" fill="#25cbe8"/>
              <path id="Path_32" data-name="Path 32" d="M1476.605,675.7l-4.69,7.836.009.119,8.247-1.812.3,4.051-8.416-.452.009.119,5.831,6.753-3.318,2.4-3.933-8.093-.11.008-2.963,8.666-3.306-1.911,4.7-7.657-.009-.119-8.086,1.74-.3-4.051,8.2.528-.009-.119-5.73-6.882,3.212-2.335,4.039,8.025.11-.008,2.747-8.59Z" transform="translate(-1414.754 -670.509)" fill="#25cbe8"/>
              <path id="Path_33" data-name="Path 33" d="M1518.333,672.592l-4.69,7.836.009.12,8.248-1.812.3,4.051-8.416-.452.009.12,5.831,6.753-3.318,2.4-3.933-8.093-.11.008-2.964,8.666-3.306-1.911,4.7-7.657-.009-.12-8.086,1.74-.3-4.051,8.2.528-.009-.119-5.73-6.881,3.213-2.335,4.038,8.025.11-.008,2.747-8.59Z" transform="translate(-1433.572 -669.109)" fill="#25cbe8"/>
              <path id="Path_34" data-name="Path 34" d="M1560.06,669.488l-4.69,7.836.009.119,8.248-1.812.3,4.051-8.416-.452.009.119,5.831,6.753-3.318,2.4-3.933-8.093-.11.008-2.963,8.666-3.306-1.911,4.7-7.657-.009-.119-8.086,1.74-.3-4.051,8.2.528-.009-.119-5.73-6.882,3.212-2.335,4.039,8.025.11-.008,2.747-8.59Z" transform="translate(-1452.389 -667.709)" fill="#25cbe8"/>
              <rect id="Rectangle_3" data-name="Rectangle 3" width="16.648" height="4.162" transform="translate(116.233 15.786) rotate(-4.255)" fill="#25cbe8"/>
            </g>
          </g>
        </g>
      </g>
      <g id="Group_27" data-name="Group 27" transform="translate(163.97 449.7)">
        <g id="Group_18" data-name="Group 18" transform="translate(0 195.526)">
          <path id="Path_36" data-name="Path 36" d="M442.953,1340.273c-2.092,3.1-10.406,73.18-11.707,99.064a3.061,3.061,0,0,0,3.065,3.21h0a3.067,3.067,0,0,0,3.031-2.595l15.207-97.451Z" transform="translate(-430.369 -1324.862)" fill="#7d97f4"/>
          <path id="Path_37" data-name="Path 37" d="M566.44,1340.273c2.092,3.1,10.406,73.18,11.707,99.064a3.061,3.061,0,0,1-3.065,3.21h0a3.068,3.068,0,0,1-3.031-2.595L556.845,1342.5Z" transform="translate(-487.012 -1324.862)" fill="#7d97f4"/>
          <path id="Path_38" data-name="Path 38" d="M429.659,1322.145l-.007.764c-.051,5.5,4.687,10.008,10.617,10.109l70.29,1.2c5.846.1,10.718-4.125,11-9.538l.037-.7c.3-5.645-4.5-10.4-10.594-10.51l-70.32-1.26C434.666,1312.1,429.71,1316.565,429.659,1322.145Z" transform="translate(-429.652 -1312.204)" fill="#e9605a"/>
        </g>
        <g id="Group_22" data-name="Group 22" transform="translate(9.55)">
          <g id="Group_19" data-name="Group 19" transform="translate(106.578 294.688)">
            <path id="Path_39" data-name="Path 39" d="M661.89,1514.386c-12.495,0-18.023-1.072-20.5-2.05a4.741,4.741,0,0,0,4.618,3.672h44.2a2.15,2.15,0,0,0,2.073-2.715C687.25,1513.7,676.548,1514.386,661.89,1514.386Z" transform="translate(-641.269 -1501.619)" fill="#0c005d"/>
            <path id="Path_40" data-name="Path 40" d="M692.185,1504.49a2.1,2.1,0,0,0-.362-.752c-3.368-4.3-10.131-11.05-19.333-10.921-13.479.19-18.178,1.652-28.653.083l-2.471,8.19a4.7,4.7,0,0,0-.075,2.443c2.472.978,8,2.05,20.5,2.05C676.444,1505.583,687.146,1504.9,692.185,1504.49Z" transform="translate(-641.165 -1492.816)" fill="#0c005d"/>
          </g>
          <path id="Path_41" data-name="Path 41" d="M649.066,1476.892l-3.033,10.316s6.72,3.059,12.63.6l1.161-8.938Z" transform="translate(-536.783 -1190.946)" fill="#f48f8f"/>
          <g id="Group_20" data-name="Group 20" transform="translate(182.002 279.776)">
            <path id="Path_42" data-name="Path 42" d="M804.254,1487.9c-9.74,7.826-14.718,10.458-17.254,11.248a4.735,4.735,0,0,0,5.888-.043l34.458-27.687a2.142,2.142,0,0,0-.077-3.4C823.595,1471.485,815.68,1478.722,804.254,1487.9Z" transform="translate(-782.356 -1466.719)" fill="#0c005d"/>
            <path id="Path_43" data-name="Path 43" d="M823.455,1466.951a2.065,2.065,0,0,0-.751-.357c-5.3-1.227-14.786-2.228-21.878,3.636-10.389,8.59-13.141,12.668-22.285,18.01l3.179,7.9a4.656,4.656,0,0,0,1.465,1.943c2.536-.79,7.514-3.421,17.254-11.247C811.866,1477.657,819.78,1470.421,823.455,1466.951Z" transform="translate(-778.541 -1465.655)" fill="#0c005d"/>
          </g>
          <path id="Path_44" data-name="Path 44" d="M521.545,1262.818s74.808,6.108,90.154,13.332-12.523,108.476-12.523,108.476-4.178,2.01-13.474-.88c0,0,9.533-74.719,2.439-90.921l-81-13.248Z" transform="translate(-474.148 -1094.406)" fill="#45453c"/>
          <path id="Path_45" data-name="Path 45" d="M765,1477.261c.695.633,7.433,14.223,7.433,14.223s7.5-1.623,9.031-6.37l-6.75-12.266Z" transform="translate(-590.434 -1189.123)" fill="#f48f8f"/>
          <path id="Path_46" data-name="Path 46" d="M449.387,1261.679a37.877,37.877,0,0,0-2.338,13.661,20.509,20.509,0,0,0,19.572,20.065l88.435,4.033a4.242,4.242,0,0,1,3.916,3.188c2.078,8.038,12.236,32.722,61.889,81.977a4,4,0,0,0,4.952.54l7.068-4.465a1.629,1.629,0,0,0,.535-2.2l-51.491-87.929a19.928,19.928,0,0,0-12.108-8.98L494.443,1262.3Z" transform="translate(-447.047 -1093.892)" fill="#71716f"/>
          <path id="Path_47" data-name="Path 47" d="M594.332,1011.506s-9.474,16.75-19.133,24.865l19.965,11.139s4.5-17.732,14.777-22.926Z" transform="translate(-504.839 -981.073)" fill="url(#linear-gradient-6)"/>
          <path id="Path_48" data-name="Path 48" d="M448.385,1167.6s23.874,5.818,46.662,0c0,0,31.887-42.866,44.224-54.532,0,0,19.677,31.051,63.477,35.452l2.443-5.458s-34.869-16.073-45.6-40.771-15.046-35.231-24.811-41.675c-6.083-4.013-9.724-6.755-11.606-8.252a3.123,3.123,0,0,0-3.576-.227C509.228,1058.455,460.463,1091.854,448.385,1167.6Z" transform="translate(-447.65 -999.191)" fill="#739af0"/>
          <path id="Path_49" data-name="Path 49" d="M590.073,1121.508a94.666,94.666,0,0,0,11.8,20.917Z" transform="translate(-511.547 -1030.68)" fill="url(#linear-gradient-7)"/>
          <path id="Path_50" data-name="Path 50" d="M724.74,1208.857l4.93-1.314,14.968-3.466a6.941,6.941,0,0,1,5.261.887l12.87,8.1-35.542-.06Z" transform="translate(-572.277 -1067.835)" fill="#f48f8f"/>
          <g id="Group_21" data-name="Group 21" transform="translate(86.101 15.595)">
            <path id="Path_51" data-name="Path 51" d="M639.416,989s-.934,17.836-4.343,25.741-4.243,13.722-13.909,10.832-14.946-11.058-15.181-20.744c0,0-.468-14.978,3.372-19.1S639.416,989,639.416,989Z" transform="translate(-604.814 -984.48)" fill="#f48f8f"/>
            <path id="Path_52" data-name="Path 52" d="M610.4,1008.822s2.237-10.574-3.269-10.045-3.056,11.574.143,13.608Z" transform="translate(-603.869 -990.919)" fill="url(#linear-gradient-8)"/>
          </g>
          <path id="Path_53" data-name="Path 53" d="M625.651,985.742a3.738,3.738,0,0,0,4.153-3.591c.346-8.423-1.352-25.212-20.246-26.033-25.273-1.1-30.1,19.413-24.39,27.837,4.9,7.226-.191,19.167-1.738,22.419a3.6,3.6,0,0,0-.322,2.1c.409,2.652,2.519,8.8,13.189,11.4a3.756,3.756,0,0,0,4.259-2l1.815-3.717a3.739,3.739,0,0,1,4.877-1.78c2.918,1.29,7.362,2.62,11.247,1.139,4.476-1.706,6.716-9.973,7.668-14.868a3.739,3.739,0,0,0-2.93-4.375l-6.284-1.283a3.745,3.745,0,0,1-3-3.669h0a3.747,3.747,0,0,1,3.608-3.743A56.931,56.931,0,0,1,625.651,985.742Z" transform="translate(-508.364 -956.076)" fill="url(#linear-gradient-9)"/>
        </g>
        <g id="Group_25" data-name="Group 25" transform="translate(145.053 76.024)">
          <g id="Group_23" data-name="Group 23" transform="translate(0 69.317)">
            <path id="Path_54" data-name="Path 54" d="M697.078,1227.655c.058,0,.116,0,.175,0l75.93-.076a3.392,3.392,0,1,0-.008-6.784l-75.93.076a3.392,3.392,0,0,0-.166,6.781Z" transform="translate(-693.85 -1220.798)" fill="#bdd0fb"/>
          </g>
          <g id="Group_24" data-name="Group 24" transform="translate(76.396)">
            <path id="Path_55" data-name="Path 55" d="M865.338,1096.36c-.027.051-.053.1-.077.156L833.313,1165.4a3.392,3.392,0,1,0,6.155,2.853l31.948-68.881a3.392,3.392,0,0,0-6.078-3.01Z" transform="translate(-832.996 -1094.545)" fill="#bdd0fb"/>
          </g>
        </g>
        <g id="Group_26" data-name="Group 26" transform="translate(127.795 148.318)">
          <path id="Path_56" data-name="Path 56" d="M728.26,1240.228c-.332,1.374-32.014,120.2-40.047,150.322a5.446,5.446,0,0,0,5.213,6.881h0a5.411,5.411,0,0,0,5.237-4.14L733.833,1250.7Z" transform="translate(-673.964 -1232.537)" fill="#7d97f4"/>
          <path id="Path_57" data-name="Path 57" d="M788.331,1240.228c.332,1.374,32.014,120.2,40.047,150.322a5.446,5.446,0,0,1-5.213,6.881h0a5.411,5.411,0,0,1-5.237-4.14L782.758,1250.7Z" transform="translate(-716.686 -1232.537)" fill="#7d97f4"/>
          <path id="Path_58" data-name="Path 58" d="M779.106,1233.152H759.374V1249a4.1,4.1,0,0,0,4.074,4.124h2.707v35.593a3.1,3.1,0,0,0,3.084,3.121h0a3.1,3.1,0,0,0,3.084-3.121v-35.593H773.7a5.441,5.441,0,0,0,5.408-5.473Z" transform="translate(-706.141 -1229.346)" fill="#7d97f4"/>
          <path id="Path_59" data-name="Path 59" d="M667.132,1226.219H777.309a3.384,3.384,0,0,1,3.27,2.563l1.538,6.032a3.408,3.408,0,0,1-3.289,4.271l-113.054-.658a3.409,3.409,0,0,1-3.255-4.252l1.338-5.375A3.385,3.385,0,0,1,667.132,1226.219Z" transform="translate(-662.416 -1226.219)" fill="#7d97f4"/>
        </g>
      </g>
      <g id="Group_28" data-name="Group 28" transform="translate(333.283 341.904)">
        <path id="Path_60" data-name="Path 60" d="M774.444,984.156a1.611,1.611,0,0,1-1.036-.377q-1.269-1.06-2.494-2.162a1.619,1.619,0,1,1,2.165-2.407q1.181,1.062,2.4,2.085a1.619,1.619,0,0,1-1.039,2.862Zm-7.84-7.414a1.616,1.616,0,0,1-1.183-.513q-1.128-1.206-2.21-2.448a1.619,1.619,0,0,1,2.442-2.126q1.044,1.2,2.132,2.361a1.619,1.619,0,0,1-1.182,2.725Zm-6.888-8.3a1.616,1.616,0,0,1-1.305-.66q-.976-1.328-1.9-2.687a1.619,1.619,0,1,1,2.674-1.827q.9,1.313,1.839,2.6a1.619,1.619,0,0,1-1.3,2.578Zm-5.881-9.04a1.619,1.619,0,0,1-1.406-.814q-.819-1.426-1.59-2.88a1.619,1.619,0,1,1,2.86-1.518q.746,1.407,1.538,2.787a1.62,1.62,0,0,1-1.4,2.425Zm-4.856-9.63a1.62,1.62,0,0,1-1.483-.969q-.661-1.5-1.275-3.029a1.619,1.619,0,0,1,3-1.21q.6,1.478,1.236,2.936a1.621,1.621,0,0,1-1.481,2.271Zm-3.828-10.084a1.62,1.62,0,0,1-1.54-1.122q-.5-1.561-.964-3.139a1.619,1.619,0,0,1,3.11-.9q.445,1.532.935,3.048a1.62,1.62,0,0,1-1.541,2.118Zm-2.812-10.412a1.619,1.619,0,0,1-1.58-1.273q-.351-1.6-.657-3.216a1.619,1.619,0,1,1,3.181-.6q.3,1.569.638,3.126a1.619,1.619,0,0,1-1.235,1.928A1.647,1.647,0,0,1,742.338,929.273Zm-1.81-10.635a1.619,1.619,0,0,1-1.6-1.422q-.2-1.627-.354-3.262a1.619,1.619,0,0,1,3.223-.306q.152,1.59.345,3.174a1.619,1.619,0,0,1-1.609,1.816Zm-.82-10.757a1.62,1.62,0,0,1-1.617-1.569q-.049-1.641-.055-3.283a1.619,1.619,0,0,1,1.614-1.624h0a1.619,1.619,0,0,1,1.619,1.614q0,1.6.054,3.193a1.62,1.62,0,0,1-1.569,1.668Zm.162-10.789c-.033,0-.066,0-.1,0a1.618,1.618,0,0,1-1.518-1.714q.1-1.638.242-3.273a1.619,1.619,0,1,1,3.226.284q-.139,1.59-.236,3.184A1.619,1.619,0,0,1,739.87,897.093Zm1.139-10.73a1.554,1.554,0,0,1-.246-.019,1.618,1.618,0,0,1-1.357-1.844q.247-1.624.54-3.239a1.619,1.619,0,1,1,3.186.578q-.284,1.571-.525,3.149A1.618,1.618,0,0,1,741.009,886.363Zm2.12-10.578a1.642,1.642,0,0,1-.393-.048,1.621,1.621,0,0,1-1.179-1.963q.4-1.594.841-3.175a1.619,1.619,0,1,1,3.118.873q-.431,1.537-.817,3.086A1.62,1.62,0,0,1,743.129,875.785Zm3.11-10.331a1.62,1.62,0,0,1-1.526-2.16q.549-1.55,1.145-3.081a1.619,1.619,0,1,1,3.017,1.173q-.577,1.486-1.111,2.99A1.62,1.62,0,0,1,746.239,865.453Zm4.08-9.989a1.621,1.621,0,0,1-1.47-2.3q.688-1.491,1.413-2.963a1.619,1.619,0,0,1,2.9,1.43q-.706,1.435-1.377,2.888A1.62,1.62,0,0,1,750.318,855.464Zm4.929-9.6a1.62,1.62,0,0,1-1.406-2.419q.81-1.426,1.654-2.831a1.619,1.619,0,0,1,2.775,1.668q-.824,1.37-1.614,2.762A1.618,1.618,0,0,1,755.248,845.863Zm5.707-9.157a1.619,1.619,0,0,1-1.336-2.53q.921-1.354,1.874-2.685a1.619,1.619,0,1,1,2.633,1.885q-.931,1.3-1.832,2.623A1.616,1.616,0,0,1,760.955,836.706Zm6.414-8.675a1.619,1.619,0,0,1-1.263-2.631q1.023-1.277,2.074-2.531a1.619,1.619,0,0,1,2.481,2.081q-1.029,1.226-2.028,2.474A1.616,1.616,0,0,1,767.369,828.031Zm7.052-8.164a1.619,1.619,0,0,1-1.185-2.721q1.113-1.2,2.254-2.371a1.619,1.619,0,1,1,2.323,2.255q-1.115,1.15-2.2,2.321A1.614,1.614,0,0,1,774.422,819.867Zm7.623-7.634a1.619,1.619,0,0,1-1.106-2.8q1.195-1.116,2.412-2.207a1.619,1.619,0,0,1,2.161,2.411q-1.193,1.07-2.363,2.161A1.613,1.613,0,0,1,782.045,812.233Zm8.131-7.09a1.619,1.619,0,0,1-1.023-2.874q1.266-1.031,2.553-2.039a1.619,1.619,0,1,1,2,2.55q-1.262.989-2.5,2A1.612,1.612,0,0,1,790.176,805.143Zm8.581-6.54a1.619,1.619,0,0,1-.94-2.938q1.33-.947,2.679-1.87a1.619,1.619,0,1,1,1.829,2.672q-1.323.906-2.629,1.836A1.614,1.614,0,0,1,798.757,798.6Zm8.981-5.982a1.619,1.619,0,0,1-.857-2.994q1.387-.862,2.791-1.7a1.619,1.619,0,1,1,1.658,2.781q-1.377.822-2.739,1.669A1.615,1.615,0,0,1,807.738,792.622Zm9.332-5.417a1.619,1.619,0,0,1-.771-3.043q1.437-.777,2.888-1.529a1.619,1.619,0,1,1,1.49,2.875q-1.426.739-2.837,1.5A1.619,1.619,0,0,1,817.071,787.205Zm9.644-4.846a1.619,1.619,0,0,1-.685-3.087q1.482-.69,2.976-1.353a1.619,1.619,0,0,1,1.314,2.959q-1.467.652-2.923,1.33A1.621,1.621,0,0,1,826.715,782.359Zm9.917-4.265a1.62,1.62,0,0,1-.6-3.126q1.521-.6,3.052-1.175a1.619,1.619,0,0,1,1.137,3.031q-1.5.565-3,1.155A1.621,1.621,0,0,1,836.632,778.094Zm10.151-3.672a1.619,1.619,0,0,1-.507-3.157q1.55-.512,3.108-1a1.619,1.619,0,0,1,.965,3.092q-1.533.478-3.059.981A1.6,1.6,0,0,1,846.783,774.421Zm10.334-3.11a1.619,1.619,0,0,1-.425-3.182q1.574-.429,3.154-.835a1.619,1.619,0,0,1,.8,3.137q-1.556.4-3.107.822A1.613,1.613,0,0,1,857.117,771.311Zm10.479-2.579a1.619,1.619,0,0,1-.346-3.2q1.592-.351,3.189-.678a1.619,1.619,0,1,1,.65,3.172q-1.575.323-3.144.668A1.619,1.619,0,0,1,867.6,768.732Zm108.827-1.819a1.666,1.666,0,0,1-.227-.016l-1.472-.206a1.619,1.619,0,0,1,.443-3.207l1.479.207a1.619,1.619,0,0,1-.223,3.222Zm-98.236-.25a1.619,1.619,0,0,1-.271-3.215q1.606-.274,3.217-.528a1.619,1.619,0,0,1,.5,3.2q-1.589.249-3.174.52A1.617,1.617,0,0,1,878.187,766.662Zm89.268-.927a1.69,1.69,0,0,1-.2-.012q-1.6-.193-3.2-.374a1.619,1.619,0,1,1,.363-3.218q1.615.183,3.228.378a1.619,1.619,0,0,1-.192,3.226Zm-78.593-.654a1.619,1.619,0,0,1-.2-3.226q1.616-.2,3.237-.386a1.619,1.619,0,1,1,.361,3.218q-1.6.18-3.193.381A1.7,1.7,0,0,1,888.862,765.081Zm67.861-.5c-.052,0-.1,0-.154-.007q-1.6-.152-3.211-.289a1.619,1.619,0,1,1,.276-3.226q1.62.139,3.238.292a1.619,1.619,0,0,1-.149,3.231Zm-57.128-.622a1.619,1.619,0,0,1-.134-3.232q1.623-.136,3.248-.252a1.619,1.619,0,1,1,.231,3.229q-1.6.114-3.207.249C899.686,763.957,899.641,763.959,899.6,763.959Zm46.368-.239c-.036,0-.071,0-.107,0q-1.609-.105-3.218-.2a1.619,1.619,0,1,1,.183-3.233q1.624.091,3.246.2a1.619,1.619,0,0,1-.1,3.234Zm-35.6-.45a1.619,1.619,0,0,1-.071-3.237q1.625-.072,3.252-.127a1.6,1.6,0,0,1,1.673,1.564,1.619,1.619,0,0,1-1.564,1.672q-1.609.054-3.217.126Zm24.82-.093h-.057q-1.611-.056-3.222-.1a1.619,1.619,0,0,1-1.577-1.659,1.6,1.6,0,0,1,1.66-1.577q1.626.041,3.251.1a1.619,1.619,0,0,1-.055,3.237Zm-14.031-.191a1.619,1.619,0,0,1-.013-3.238q1.323-.012,2.645-.011h.611a1.619,1.619,0,0,1,0,3.238h-.607q-1.309,0-2.618.011Z" transform="translate(-738.035 -759.737)" fill="#e9605a"/>
      </g>
      <g id="Group_29" data-name="Group 29" transform="translate(373.872 365.355)">
        <path id="Path_61" data-name="Path 61" d="M822.986,991.441a1.617,1.617,0,0,1-1.356-.731c-.6-.919-1.19-1.873-1.746-2.839a1.619,1.619,0,1,1,2.806-1.616c.525.911,1.079,1.812,1.647,2.679a1.619,1.619,0,0,1-1.352,2.507Zm-5.005-9.544a1.62,1.62,0,0,1-1.5-1.01c-.413-1.017-.8-2.066-1.165-3.118a1.619,1.619,0,1,1,3.064-1.048c.34.994.71,1.986,1.1,2.947a1.62,1.62,0,0,1-1.5,2.229Zm-3.112-10.32a1.62,1.62,0,0,1-1.584-1.3c-.219-1.072-.415-2.172-.58-3.271a1.619,1.619,0,0,1,3.2-.484c.158,1.044.343,2.089.551,3.106a1.619,1.619,0,0,1-1.262,1.911A1.645,1.645,0,0,1,814.869,971.577Zm412.469-5.354h-.018q-1.631-.018-3.263-.061a1.619,1.619,0,1,1,.087-3.237q1.605.043,3.211.06a1.619,1.619,0,0,1-.017,3.238Zm7.553-.073a1.619,1.619,0,0,1-.047-3.238q1.6-.047,3.208-.122a1.619,1.619,0,1,1,.151,3.235q-1.631.076-3.264.125Zm-18.336-.337c-.036,0-.071,0-.108,0q-1.629-.107-3.256-.24a1.619,1.619,0,1,1,.265-3.227q1.6.132,3.2.237a1.619,1.619,0,0,1-.1,3.234Zm29.111-.3a1.619,1.619,0,0,1-.141-3.232q1.6-.142,3.195-.313a1.619,1.619,0,0,1,.345,3.22q-1.625.175-3.254.319C1245.762,965.513,1245.714,965.514,1245.666,965.514Zm-39.857-.7a1.673,1.673,0,0,1-.2-.011q-1.621-.2-3.237-.417a1.619,1.619,0,0,1,.439-3.208q1.59.217,3.184.41a1.619,1.619,0,0,1-.192,3.227Zm50.574-.58a1.619,1.619,0,0,1-.24-3.219q1.588-.24,3.167-.512a1.619,1.619,0,1,1,.549,3.192q-1.612.277-3.231.521A1.6,1.6,0,0,1,1256.384,964.231Zm-61.249-.995a1.671,1.671,0,0,1-.279-.024q-1.605-.279-3.206-.577a1.619,1.619,0,0,1,.6-3.183q1.579.3,3.164.569a1.62,1.62,0,0,1-.275,3.215ZM1267,962.27a1.619,1.619,0,0,1-.346-3.2q1.569-.344,3.127-.719a1.619,1.619,0,0,1,.758,3.148q-1.59.383-3.19.734A1.622,1.622,0,0,1,1267,962.27Zm-82.453-1.105a1.641,1.641,0,0,1-.347-.038q-1.59-.347-3.176-.713a1.619,1.619,0,1,1,.728-3.155q1.567.361,3.139.7a1.619,1.619,0,0,1-.344,3.2Zm-370.927-.294A1.619,1.619,0,0,1,812,959.3q-.039-1.165-.039-2.333,0-.49.007-.981a1.65,1.65,0,0,1,1.643-1.595,1.619,1.619,0,0,1,1.594,1.643q-.007.468-.007.933,0,1.114.037,2.225a1.618,1.618,0,0,1-1.564,1.672Zm463.841-1.276a1.619,1.619,0,0,1-.456-3.173q1.538-.452,3.065-.937a1.619,1.619,0,0,1,.982,3.085q-1.56.5-3.133.959A1.627,1.627,0,0,1,1277.459,959.594Zm-103.408-.939a1.594,1.594,0,0,1-.408-.053q-1.575-.409-3.146-.836a1.619,1.619,0,1,1,.849-3.124q1.553.422,3.111.827a1.619,1.619,0,0,1-.406,3.186ZM1287.7,956.17a1.619,1.619,0,0,1-.572-3.134q1.5-.566,2.983-1.164a1.619,1.619,0,1,1,1.212,3q-1.518.614-3.053,1.193A1.615,1.615,0,0,1,1287.7,956.17Zm-124.04-.419a1.636,1.636,0,0,1-.463-.068q-1.559-.466-3.113-.947a1.619,1.619,0,1,1,.956-3.094q1.54.476,3.083.938a1.619,1.619,0,0,1-.463,3.17Zm-10.291-3.254a1.609,1.609,0,0,1-.512-.084q-1.542-.514-3.082-1.042a1.619,1.619,0,0,1,1.051-3.063q1.526.523,3.055,1.034a1.619,1.619,0,0,1-.512,3.155Zm144.273-.531a1.619,1.619,0,0,1-.691-3.084q1.447-.682,2.876-1.4a1.619,1.619,0,0,1,1.453,2.893q-1.464.735-2.948,1.435A1.618,1.618,0,0,1,1297.639,951.966ZM814.1,950.1a1.562,1.562,0,0,1-.194-.012,1.619,1.619,0,0,1-1.415-1.8c.13-1.088.287-2.19.466-3.274a1.619,1.619,0,1,1,3.195.525q-.257,1.565-.445,3.134A1.62,1.62,0,0,1,814.1,950.1Zm329.076-1.163a1.616,1.616,0,0,1-.555-.1q-1.526-.557-3.05-1.126a1.619,1.619,0,1,1,1.133-3.033q1.513.564,3.027,1.118a1.619,1.619,0,0,1-.555,3.14Zm164.022-1.98a1.62,1.62,0,0,1-.814-3.02q1.381-.8,2.74-1.64a1.619,1.619,0,1,1,1.7,2.756q-1.4.861-2.815,1.684A1.608,1.608,0,0,1,1307.2,946.957Zm-174.117-1.844a1.613,1.613,0,0,1-.591-.112q-1.513-.594-3.021-1.2a1.619,1.619,0,0,1,1.2-3.007q1.5.6,3,1.189a1.619,1.619,0,0,1-.592,3.127Zm183.194-3.984a1.619,1.619,0,0,1-.938-2.94q1.3-.922,2.578-1.879a1.619,1.619,0,1,1,1.944,2.59q-1.311.985-2.65,1.932A1.609,1.609,0,0,1,1316.273,941.129Zm-193.2-.06a1.61,1.61,0,0,1-.62-.125q-1.5-.623-3-1.253a1.619,1.619,0,1,1,1.257-2.984q1.489.628,2.981,1.247a1.619,1.619,0,0,1-.622,3.115Zm-306.929-1.556a1.621,1.621,0,0,1-1.565-2.037q.425-1.593.915-3.172a1.619,1.619,0,1,1,3.092.96q-.47,1.516-.879,3.048A1.619,1.619,0,0,1,816.141,939.513Zm296.995-2.669a1.616,1.616,0,0,1-.646-.135l-2.971-1.3a1.619,1.619,0,1,1,1.3-2.965l2.963,1.3a1.619,1.619,0,0,1-.647,3.1Zm211.634-2.353a1.619,1.619,0,0,1-1.056-2.846q1.2-1.036,2.382-2.111a1.619,1.619,0,0,1,2.183,2.391q-1.212,1.107-2.454,2.175A1.613,1.613,0,0,1,1324.769,934.491Zm-221.506-2.014a1.612,1.612,0,0,1-.663-.143L1099.644,931a1.619,1.619,0,0,1,1.335-2.949l2.948,1.33a1.62,1.62,0,0,1-.665,3.1ZM819.612,929.3a1.619,1.619,0,0,1-1.494-2.241q.633-1.524,1.329-3.023a1.619,1.619,0,0,1,2.937,1.362q-.668,1.44-1.277,2.9A1.619,1.619,0,0,1,819.612,929.3Zm273.827-1.3a1.61,1.61,0,0,1-.675-.149l-2.943-1.357a1.619,1.619,0,1,1,1.358-2.939l2.938,1.355a1.62,1.62,0,0,1-.678,3.091Zm239.145-.942a1.619,1.619,0,0,1-1.178-2.73q1.09-1.155,2.139-2.351a1.619,1.619,0,0,1,2.434,2.135q-1.086,1.239-2.218,2.438A1.613,1.613,0,0,1,1332.583,927.065Zm-248.938-3.6a1.613,1.613,0,0,1-.683-.152l-2.935-1.369a1.619,1.619,0,0,1,1.37-2.935l2.934,1.369a1.619,1.619,0,0,1-.685,3.087ZM824.4,919.639a1.62,1.62,0,0,1-1.4-2.433q.83-1.429,1.716-2.823a1.619,1.619,0,1,1,2.733,1.737q-.851,1.338-1.648,2.712A1.62,1.62,0,0,1,824.4,919.639Zm249.466-.739a1.614,1.614,0,0,1-.685-.153l-2.931-1.37a1.619,1.619,0,1,1,1.37-2.933l2.932,1.371a1.619,1.619,0,0,1-.687,3.086Zm265.631-.11a1.619,1.619,0,0,1-1.3-2.583q.946-1.277,1.85-2.589a1.619,1.619,0,1,1,2.667,1.837q-.935,1.357-1.915,2.679A1.615,1.615,0,0,1,1339.5,918.79Zm-275.409-4.452a1.6,1.6,0,0,1-.681-.151l-2.936-1.361a1.619,1.619,0,1,1,1.359-2.938l2.942,1.363a1.619,1.619,0,0,1-.684,3.088Zm-233.658-3.643a1.619,1.619,0,0,1-1.278-2.612q1.016-1.307,2.083-2.568a1.619,1.619,0,0,1,2.472,2.092q-1.024,1.209-2,2.462A1.617,1.617,0,0,1,830.431,910.694Zm223.853-.873a1.618,1.618,0,0,1-.672-.147q-1.471-.671-2.945-1.338a1.619,1.619,0,0,1,1.335-2.95q1.479.669,2.955,1.343a1.619,1.619,0,0,1-.674,3.093Zm291.134-.049a1.619,1.619,0,0,1-1.4-2.431q.8-1.377,1.552-2.781a1.619,1.619,0,1,1,2.852,1.532q-.777,1.449-1.6,2.872A1.618,1.618,0,0,1,1345.418,909.773Zm-300.981-4.382a1.615,1.615,0,0,1-.655-.14q-1.477-.655-2.958-1.3a1.619,1.619,0,0,1,1.3-2.965q1.486.651,2.969,1.309a1.619,1.619,0,0,1-.657,3.1Zm-206.8-2.725a1.619,1.619,0,0,1-1.125-2.784q.561-.541,1.132-1.071.643-.595,1.294-1.175a1.619,1.619,0,0,1,2.154,2.417q-.628.56-1.248,1.134-.547.506-1.083,1.025A1.613,1.613,0,0,1,837.633,902.665Zm196.906-1.583a1.616,1.616,0,0,1-.635-.131q-1.485-.634-2.974-1.259a1.619,1.619,0,0,1,1.256-2.985q1.5.629,2.989,1.267a1.619,1.619,0,0,1-.636,3.109Zm315.776-.921a1.619,1.619,0,0,1-1.479-2.276q.647-1.457,1.248-2.933a1.619,1.619,0,0,1,3,1.22q-.62,1.524-1.287,3.026A1.62,1.62,0,0,1,1350.315,900.162Zm-325.74-3.228a1.625,1.625,0,0,1-.609-.12q-1.494-.608-2.993-1.2a1.619,1.619,0,0,1,1.2-3.008q1.509.6,3.014,1.213a1.62,1.62,0,0,1-.611,3.12Zm-178.719-1.256a1.619,1.619,0,0,1-.974-2.913q1.318-.992,2.667-1.935a1.619,1.619,0,1,1,1.855,2.654q-1.3.91-2.576,1.868A1.614,1.614,0,0,1,845.856,895.678Zm168.677-2.7a1.613,1.613,0,0,1-.577-.106q-1.507-.575-3.017-1.138a1.619,1.619,0,1,1,1.131-3.033q1.521.567,3.04,1.146a1.619,1.619,0,0,1-.578,3.132Zm339.639-2.9a1.621,1.621,0,0,1-1.541-2.119q.492-1.516.935-3.047a1.619,1.619,0,0,1,3.11.9q-.458,1.579-.966,3.145A1.619,1.619,0,0,1,1354.173,890.085Zm-499.34-.391a1.619,1.619,0,0,1-.823-3.014q1.417-.835,2.859-1.624a1.619,1.619,0,0,1,1.554,2.841q-1.4.764-2.77,1.573A1.611,1.611,0,0,1,854.833,889.694Zm149.572-.432a1.613,1.613,0,0,1-.537-.092q-1.521-.535-3.044-1.059a1.619,1.619,0,1,1,1.051-3.063q1.536.527,3.069,1.067a1.619,1.619,0,0,1-.538,3.146Zm-10.227-3.441a1.621,1.621,0,0,1-.495-.078q-1.533-.491-3.071-.967a1.619,1.619,0,1,1,.958-3.094q1.552.481,3.1.978a1.619,1.619,0,0,1-.494,3.161Zm-129.778-1.1a1.619,1.619,0,0,1-.674-3.092q1.492-.683,3.008-1.32a1.619,1.619,0,1,1,1.257,2.984q-1.47.619-2.918,1.281A1.62,1.62,0,0,1,864.4,884.716ZM983.851,882.7a1.612,1.612,0,0,1-.444-.062q-1.548-.441-3.1-.864a1.619,1.619,0,1,1,.852-3.124q1.569.427,3.134.873a1.619,1.619,0,0,1-.442,3.177Zm-109.438-1.984a1.619,1.619,0,0,1-.531-3.149q1.548-.538,3.114-1.033a1.619,1.619,0,0,1,.977,3.087q-1.524.482-3.03,1A1.617,1.617,0,0,1,874.413,880.713Zm99.008-.775a1.613,1.613,0,0,1-.386-.047q-1.562-.381-3.13-.744a1.619,1.619,0,0,1,.731-3.155q1.585.368,3.167.754a1.619,1.619,0,0,1-.383,3.192Zm383.541-.277a1.621,1.621,0,0,1-1.585-1.956q.331-1.562.614-3.13a1.619,1.619,0,0,1,3.187.574q-.291,1.618-.633,3.228A1.62,1.62,0,0,1,1356.962,879.661Zm-472.215-2.03a1.619,1.619,0,0,1-.4-3.189q1.587-.4,3.185-.764a1.619,1.619,0,0,1,.716,3.158q-1.559.353-3.108.745A1.613,1.613,0,0,1,884.747,877.63Zm78.143-.04a1.649,1.649,0,0,1-.321-.032q-1.577-.318-3.157-.614a1.619,1.619,0,1,1,.6-3.182q1.6.3,3.2.621a1.619,1.619,0,0,1-.318,3.207ZM952.267,875.7a1.612,1.612,0,0,1-.249-.019q-1.59-.246-3.181-.469a1.619,1.619,0,0,1,.449-3.206q1.615.226,3.226.475a1.619,1.619,0,0,1-.245,3.219Zm-56.964-.292a1.619,1.619,0,0,1-.27-3.215q1.612-.275,3.231-.515a1.619,1.619,0,1,1,.474,3.2q-1.585.235-3.162.5A1.606,1.606,0,0,1,895.3,875.405Zm46.262-1.1a1.5,1.5,0,0,1-.171-.009q-1.6-.167-3.2-.31a1.619,1.619,0,0,1,.288-3.226q1.626.146,3.25.316a1.619,1.619,0,0,1-.167,3.229ZM906,873.979a1.619,1.619,0,0,1-.154-3.231q1.627-.158,3.259-.283a1.619,1.619,0,1,1,.248,3.228q-1.6.123-3.194.278C906.1,873.977,906.05,873.979,906,873.979Zm24.8-.52-.085,0q-1.6-.083-3.205-.137a1.619,1.619,0,0,1,.109-3.236q1.636.054,3.264.139a1.619,1.619,0,0,1-.082,3.236Zm-14.03-.16a1.619,1.619,0,0,1-.047-3.238q1.635-.048,3.27-.065a1.619,1.619,0,0,1,.035,3.238q-1.6.017-3.208.065Zm441.874-4.3c-.056,0-.113,0-.169-.008a1.62,1.62,0,0,1-1.443-1.778q.166-1.587.278-3.175a1.619,1.619,0,0,1,3.229.229q-.116,1.64-.286,3.28A1.62,1.62,0,0,1,1358.646,869Zm.521-10.778a1.619,1.619,0,0,1-1.619-1.607q-.012-1.6-.077-3.184a1.619,1.619,0,1,1,3.234-.133q.068,1.643.08,3.293a1.619,1.619,0,0,1-1.607,1.631Zm-.7-10.766a1.618,1.618,0,0,1-1.6-1.418q-.2-1.58-.452-3.149a1.619,1.619,0,1,1,3.2-.518q.264,1.625.469,3.264a1.619,1.619,0,0,1-1.4,1.808A1.723,1.723,0,0,1,1358.463,847.456Zm-2-10.6a1.62,1.62,0,0,1-1.568-1.218q-.394-1.539-.849-3.058a1.619,1.619,0,1,1,3.1-.927q.473,1.58.883,3.182a1.622,1.622,0,0,1-1.569,2.022Zm-3.375-10.243a1.619,1.619,0,0,1-1.5-1.007q-.6-1.467-1.261-2.908a1.619,1.619,0,1,1,2.943-1.35q.689,1.5,1.315,3.033a1.62,1.62,0,0,1-1.5,2.232Zm-4.792-9.658a1.617,1.617,0,0,1-1.394-.793c-.534-.9-1.1-1.8-1.675-2.683a1.619,1.619,0,1,1,2.708-1.776c.6.921,1.193,1.866,1.751,2.808a1.619,1.619,0,0,1-1.391,2.445Zm-6.195-8.822a1.614,1.614,0,0,1-1.25-.588c-.672-.813-1.367-1.616-2.068-2.386a1.619,1.619,0,1,1,2.4-2.179c.735.808,1.464,1.65,2.169,2.5a1.619,1.619,0,0,1-1.248,2.65Z" transform="translate(-811.963 -802.452)" fill="#e9605a"/>
      </g>
      <g id="Group_32" data-name="Group 32" transform="translate(213.729 111.3)">
        <g id="Group_30" data-name="Group 30">
          <path id="Path_62" data-name="Path 62" d="M749.318,403.992a21.786,21.786,0,0,0-12.406-18.255l-92.45-43.908a21.811,21.811,0,0,0-18.713,0L533.3,385.737a21.785,21.785,0,0,0-12.406,18.255c-8.672,134.045,77.276,182.885,105.451,195.223a21.833,21.833,0,0,0,17.524,0C672.043,586.877,757.99,538.037,749.318,403.992Z" transform="translate(-520.282 -339.72)" fill="url(#linear-gradient-10)"/>
          <path id="Path_63" data-name="Path 63" d="M676.858,366.7a1.981,1.981,0,0,1-.852-3.771l21.844-10.375a1.981,1.981,0,0,1,1.7,3.579L677.706,366.5A1.967,1.967,0,0,1,676.858,366.7Z" transform="translate(-589.998 -345.419)" fill="#fff" opacity="0.67"/>
          <path id="Path_64" data-name="Path 64" d="M532.528,450.85a1.981,1.981,0,0,1-1.979-1.914c-.294-8.737-.14-17.849.458-27.081a16.229,16.229,0,0,1,9.242-13.592l62.192-29.537a1.981,1.981,0,1,1,1.7,3.579l-62.192,29.537a12.264,12.264,0,0,0-6.989,10.269c-.588,9.1-.74,18.085-.451,26.692a1.981,1.981,0,0,1-1.913,2.047Z" transform="translate(-524.847 -357.224)" fill="#fff" opacity="0.67"/>
          <path id="Path_65" data-name="Path 65" d="M745.543,428.355a5.445,5.445,0,0,0-3.1-4.64l-86.425-41.047a5.438,5.438,0,0,0-4.664,0L564.93,423.714a5.444,5.444,0,0,0-3.1,4.64c-2.556,50,8.994,91.724,34.352,124.06a153.315,153.315,0,0,0,55.2,44.029,5.452,5.452,0,0,0,4.6,0,153.31,153.31,0,0,0,55.2-44.029C736.548,520.078,748.1,478.357,745.543,428.355Z" transform="translate(-538.862 -358.851)" fill="url(#linear-gradient-11)"/>
        </g>
        <g id="Group_31" data-name="Group 31" transform="translate(96.815 57.027)" opacity="0.87">
          <path id="Path_66" data-name="Path 66" d="M714.421,582.155c-10.519,0-17.8-7.889-17.8-18.408,0-10.923,7.485-18.407,18.206-18.407s17.8,7.484,18,18.407c0,10.519-7.08,18.408-18,18.408Zm-11.685-58.447-3.116-64.157a15.223,15.223,0,0,1,15.206-15.962h0a15.224,15.224,0,0,1,15.206,15.962l-3.116,64.157a12.1,12.1,0,0,1-12.09,11.517h0A12.1,12.1,0,0,1,702.736,523.708Z" transform="translate(-696.619 -443.589)" fill="#fff"/>
        </g>
      </g>
      <g id="Group_44" data-name="Group 44" transform="translate(518.695 418.408)">
        <path id="Path_85" data-name="Path 85" d="M1102.652,976.126h-9.539a.484.484,0,0,1-.484-.484V934.685a33.048,33.048,0,0,1,29.061-32.807l21.057-2.559a32.588,32.588,0,0,1,30.859,14.011,33.74,33.74,0,0,1,5.634,19.059v16.538a.483.483,0,0,1-.484.484h-9.539a.483.483,0,0,1-.484-.484v-16.8a22.851,22.851,0,0,0-2.58-10.859,22.091,22.091,0,0,0-22.139-11.524l-21.057,2.559a22.541,22.541,0,0,0-19.822,22.377v40.957A.483.483,0,0,1,1102.652,976.126Z" transform="translate(-1083.357 -899.081)" fill="url(#linear-gradient-12)"/>
        <path id="Path_86" data-name="Path 86" d="M1081.907,1018.088l92.1-5.1a6.526,6.526,0,0,1,6.888,6.516v72.963a6.527,6.527,0,0,1-6.526,6.527h-89.888a6.526,6.526,0,0,1-6.523-6.314l-2.213-67.861A6.527,6.527,0,0,1,1081.907,1018.088Z" transform="translate(-1075.742 -950.444)" fill="url(#linear-gradient-13)"/>
        <path id="Path_87" data-name="Path 87" d="M1173.936,1092.648l-5.574-16.027a5.368,5.368,0,0,1,1.219-5.533,15.176,15.176,0,1,0-20.357,1.133,5.409,5.409,0,0,1,1.757,5.977l-5.026,14.451a5.408,5.408,0,0,0,5.108,7.185h17.766A5.408,5.408,0,0,0,1173.936,1092.648Z" transform="translate(-1106.344 -965.001)" fill="url(#linear-gradient-14)"/>
      </g>
      <g id="Group_45" data-name="Group 45" transform="translate(561.96 617.895)">
        <path id="Path_88" data-name="Path 88" d="M1339.665,1263.4l-175.825-.979a9.229,9.229,0,0,0-7.964,13.979l.883,1.47a9.229,9.229,0,0,0,7.913,4.479h174.942a9.229,9.229,0,0,0,9.229-9.229v-.491A9.229,9.229,0,0,0,1339.665,1263.4Z" transform="translate(-1154.545 -1262.424)" fill="#25cbe8"/>
        <path id="Path_89" data-name="Path 89" d="M1536.453,1273.811v.286a9.229,9.229,0,0,0,9.229,9.229h39.031a9.23,9.23,0,0,0,8.917-6.846h0a9.229,9.229,0,0,0-8.849-11.611l-39.031-.286A9.229,9.229,0,0,0,1536.453,1273.811Z" transform="translate(-1326.772 -1263.397)" fill="#25cbe8"/>
      </g>
      <g id="Group_46" data-name="Group 46" transform="translate(561.96 651.025)">
        <path id="Path_90" data-name="Path 90" d="M1297.37,1323.744l-133.53-.979a9.23,9.23,0,0,0-7.964,13.98l.883,1.47a9.229,9.229,0,0,0,7.913,4.478h132.648a9.229,9.229,0,0,0,9.229-9.229v-.491A9.229,9.229,0,0,0,1297.37,1323.744Z" transform="translate(-1154.545 -1322.765)" fill="#25cbe8"/>
        <path id="Path_91" data-name="Path 91" d="M1459.419,1334.151v.286a9.229,9.229,0,0,0,9.229,9.229h39.031a9.229,9.229,0,0,0,8.916-6.847h0a9.229,9.229,0,0,0-8.848-11.611l-39.031-.286A9.229,9.229,0,0,0,1459.419,1334.151Z" transform="translate(-1292.033 -1323.738)" fill="#25cbe8"/>
      </g>
    </g>
  </g>
</svg>
