<svg xmlns="http://www.w3.org/2000/svg" width="474.928" height="441.605" viewBox="0 0 474.928 441.605">
  <g id="OBJECTS" transform="translate(-42.62 -54.486)">
    <g id="Group_1" data-name="Group 1" transform="translate(42.62 100.431)">
      <path id="Path_1" data-name="Path 1" d="M469.193,458.191H52.4a9.778,9.778,0,0,1-9.778-9.778h0a9.779,9.779,0,0,1,9.778-9.778H469.193a9.779,9.779,0,0,1,9.778,9.778h0A9.778,9.778,0,0,1,469.193,458.191Z" transform="translate(-42.62 -62.531)" fill="#ebfbfe"/>
      <path id="Path_2" data-name="Path 2" d="M471.9,300.218c-.177-.105-.355-.211-.534-.314-12.646-7.362-27.549-10.2-41.919-13.742-13.346-3.293-28.335-7.718-38.586-17.447C378.4,256.892,380.14,240.6,384.933,225.8c5.029-15.539,9.776-31.185,7.551-47.686a92.177,92.177,0,0,0-24.446-51.05c-20.869-21.886-53.2-33.489-84.173-30.205-41.566,4.406-75.7,33.06-101.614,64.1-17,20.368-27.043,43.5-46.438,62.839C116.64,242.912,95.1,260.141,78.963,281.8c-21.482,28.837-31.94,65.61-24.968,100.261s32.443,66.272,67.325,78.779c22.216,7.966,46.58,8.129,70.339,8.192,49.347.129,98.762.255,147.95-3.487,32.372-2.463,65.174-6.752,94.666-19.609s55.6-35.428,65.268-64.742C509.15,352.076,499.154,316.467,471.9,300.218Z" transform="translate(-41.709 -96.305)" fill="#ebfbfe"/>
      <path id="Path_3" data-name="Path 3" d="M76.253,220.463a16.472,16.472,0,0,0-4.239-7.272l-3.336-2.576a16.4,16.4,0,0,0-8.317-2.25h-.815a12.413,12.413,0,0,0-6.349,1.419,12.341,12.341,0,0,0-5.3,3.407,12.354,12.354,0,0,0-3.408,5.3,12.41,12.41,0,0,0-1.419,6.349q.295,2.19.589,4.38a16.459,16.459,0,0,0,4.239,7.273l3.334,2.576a16.413,16.413,0,0,0,8.318,2.25h.815a12.413,12.413,0,0,0,6.349-1.419,12.358,12.358,0,0,0,5.3-3.407,12.354,12.354,0,0,0,3.408-5.3,12.413,12.413,0,0,0,1.419-6.349Q76.547,222.655,76.253,220.463Z" transform="translate(-42.577 -85.25)" fill="#3ddffc" opacity="0.309"/>
      <circle id="Ellipse_1" data-name="Ellipse 1" cx="35.609" cy="35.609" r="35.609" transform="translate(403.709 82.934)" fill="#b6f3fe"/>
    </g>
    <g id="Group_11" data-name="Group 11" transform="translate(50.471 54.486)">
      <g id="Group_4" data-name="Group 4" transform="translate(279.183)" opacity="0.375">
        <g id="Group_3" data-name="Group 3">
          <g id="Group_2" data-name="Group 2">
            <path id="Path_4" data-name="Path 4" d="M322.933,54.734a23.747,23.747,0,0,0-4.429,1.33,3.574,3.574,0,0,1,.255.328,3.951,3.951,0,0,1-6.7,4.19,3.755,3.755,0,0,1-.2-.405,24.114,24.114,0,0,0-3.185,3.375,3.644,3.644,0,0,1,.41.167,3.951,3.951,0,0,1-3.707,6.979,3.87,3.87,0,0,1-.416-.279,23.712,23.712,0,0,0-1.082,4.55,4.011,4.011,0,0,1,.49-.067,3.953,3.953,0,1,1-.281,7.861,23.829,23.829,0,0,0,1.346,4.525,4.045,4.045,0,0,1,.444-.344,3.952,3.952,0,1,1,3.644,6.969,24.043,24.043,0,0,0,3.455,3.264,3.778,3.778,0,0,1,.227-.557,3.951,3.951,0,1,1,6.979,3.706,3.887,3.887,0,0,1-.359.538,23.727,23.727,0,0,0,4.648,1.09,3.951,3.951,0,1,1,7.77-.247,23.8,23.8,0,0,0,4.57-1.387,3.945,3.945,0,1,1,6.316-4.685,3.826,3.826,0,0,1,.278.564,24.05,24.05,0,0,0,3.241-3.478,3.887,3.887,0,0,1-.543-.222,3.952,3.952,0,1,1,4.191-6.653,23.752,23.752,0,0,0,1.053-4.6,3.943,3.943,0,1,1-.809-7.825,3.888,3.888,0,0,1,.521.034,23.692,23.692,0,0,0-1.371-4.473,3.848,3.848,0,0,1-.378.293,3.951,3.951,0,1,1-4.19-6.7,3.747,3.747,0,0,1,.422-.208,24.006,24.006,0,0,0-3.4-3.165,3.941,3.941,0,1,1-7.14-3.309,4.2,4.2,0,0,1,.243-.365,23.707,23.707,0,0,0-4.5-1.043,3.955,3.955,0,1,1-7.814.248Zm4.165,9.757a13.739,13.739,0,1,1-13.243,14.216A13.74,13.74,0,0,1,327.1,64.491Z" transform="translate(-303.879 -54.486)" fill="#3ddffc"/>
          </g>
        </g>
      </g>
      <g id="Group_6" data-name="Group 6" transform="translate(0 60.123)">
        <ellipse id="Ellipse_2" data-name="Ellipse 2" cx="44.479" cy="40.816" rx="44.479" ry="40.816" fill="#3ddffc"/>
        <g id="Group_5" data-name="Group 5" transform="translate(6.684 14.371)">
          <path id="Path_5" data-name="Path 5" d="M92.589,147.931,57.9,136.827a31.222,31.222,0,0,0-2.05,11.1c0,18.494,16.584,33.712,36.739,33.712a39.26,39.26,0,0,0,18.9-4.8Z" transform="translate(-55.85 -120.857)" fill="#0c97b1"/>
          <path id="Path_6" data-name="Path 6" d="M91.023,146.361l19.145,28.773a35.212,35.212,0,0,0,12.895-12.276,31.577,31.577,0,0,0,4.7-16.5Z" transform="translate(-52.38 -119.916)" fill="#23c7e5"/>
          <path id="Path_7" data-name="Path 7" d="M91.214,147.112l36.736-.466a31.4,31.4,0,0,0-3.2-13.3,33.98,33.98,0,0,0-8.674-11.054Z" transform="translate(-52.361 -122.291)" fill="#fefeff"/>
        </g>
      </g>
      <g id="Group_7" data-name="Group 7" transform="translate(130.565 23.779)">
        <rect id="Rectangle_1" data-name="Rectangle 1" width="13.3" height="31.971" transform="translate(7.128 37.238)" fill="#3ddffc"/>
        <rect id="Rectangle_2" data-name="Rectangle 2" width="13.3" height="47.616" transform="translate(27.689 21.592)" fill="#3ddffc"/>
        <rect id="Rectangle_3" data-name="Rectangle 3" width="13.3" height="69.208" transform="translate(48.251)" fill="#3ddffc"/>
        <rect id="Rectangle_4" data-name="Rectangle 4" width="13.3" height="38.939" transform="translate(68.813 30.269)" fill="#3ddffc"/>
        <path id="Path_8" data-name="Path 8" d="M168.607,76.738v68.247h90.9" transform="translate(-168.607 -76.07)" fill="none" stroke="#3ddffc" stroke-miterlimit="10" stroke-width="0.876"/>
      </g>
      <g id="Group_10" data-name="Group 10" transform="translate(297.385 44.503)">
        <g id="Group_9" data-name="Group 9">
          <g id="Group_8" data-name="Group 8">
            <path id="Path_9" data-name="Path 9" d="M357.908,95.483A46.639,46.639,0,0,0,349.2,98.1a7.647,7.647,0,0,1,.5.645,7.775,7.775,0,1,1-13.565,7.443,47.332,47.332,0,0,0-6.262,6.635,7.533,7.533,0,0,1,.8.328,7.768,7.768,0,0,1-7.286,13.721,7.614,7.614,0,0,1-.821-.548,46.69,46.69,0,0,0-2.126,8.946,7.767,7.767,0,1,1,.41,15.323,46.79,46.79,0,0,0,2.646,8.9,7.753,7.753,0,1,1,9.112,12.5,7.615,7.615,0,0,1-1.074.531,47.4,47.4,0,0,0,6.793,6.417,7.689,7.689,0,0,1,.448-1.1,7.768,7.768,0,1,1,13.721,7.287,7.891,7.891,0,0,1-.706,1.059,46.692,46.692,0,0,0,9.14,2.142,7.767,7.767,0,1,1,15.276-.486,46.81,46.81,0,0,0,8.987-2.727,7.77,7.77,0,1,1,12.965-8.1,47.356,47.356,0,0,0,6.372-6.838,7.771,7.771,0,1,1,7.174-13.52,46.659,46.659,0,0,0,2.069-9.046,7.752,7.752,0,1,1-1.59-15.383,7.528,7.528,0,0,1,1.024.066,46.726,46.726,0,0,0-2.7-8.794,7.577,7.577,0,0,1-.744.577,7.775,7.775,0,1,1-7.409-13.581,47.186,47.186,0,0,0-6.678-6.224,7.326,7.326,0,0,1-.319.781,7.768,7.768,0,0,1-13.721-7.286,7.674,7.674,0,0,1,.478-.717,46.728,46.728,0,0,0-8.852-2.051,7.4,7.4,0,0,1,.107.784,7.767,7.767,0,0,1-15.525.55A7.412,7.412,0,0,1,357.908,95.483Zm8.026,14.542a31.656,31.656,0,1,1-30.516,32.757A31.657,31.657,0,0,1,365.934,110.025Z" transform="translate(-320.446 -94.993)" fill="#3ddffc" opacity="0.375"/>
          </g>
        </g>
      </g>
    </g>
    <g id="Group_44" data-name="Group 44" transform="translate(124.116 115.489)">
      <g id="Group_23" data-name="Group 23" transform="translate(166.861)">
        <g id="Group_12" data-name="Group 12" transform="translate(20.934 2.066)">
          <path id="Path_10" data-name="Path 10" d="M315.526,133.806c-.955-.7-2.141-1.288-2.509-2.412-.594-1.811,1.346-3.694.867-5.538-.4-1.549-2.241-2.175-3.824-2.412s-3.4-.455-4.3-1.775c-.753-1.1-.576-2.554-.751-3.874a7.1,7.1,0,0,0-4.981-5.755c-2.751-.78-5.146,1.713-7.441,2.715a7.909,7.909,0,0,0-4.6,5.931,18.935,18.935,0,0,0,.412,7.85,56.271,56.271,0,0,1,1.508,7.768,22.829,22.829,0,0,1-1.243,8.288c-.544,1.877-.67,4.518.34,6.248,1,1.707,3.013,2.5,4.912,3.051a26.83,26.83,0,0,0,11.366,1.066,15.305,15.305,0,0,0,9.414-4.981,12.342,12.342,0,0,0,3.744-5.159C319.85,140.993,318.814,136.211,315.526,133.806Z" transform="translate(-287.729 -111.892)" fill="#0d5d6c"/>
          <path id="Path_11" data-name="Path 11" d="M296.028,120.028a6.241,6.241,0,0,1-.577,4.812c-.272.472-.7.956-1.248.917-.626-.044-.976-.731-1.173-1.326A21.446,21.446,0,0,1,292,119.357c-.083-1.057.114-2.965,1.616-2.6C294.782,117.041,295.73,119.009,296.028,120.028Z" transform="translate(-287.309 -111.416)" fill="#ff6ea1"/>
        </g>
        <path id="Path_12" data-name="Path 12" d="M298.324,143.8c-1.107,3.858-7.382,5.722-10.993,1.273-.443-.546-.855-1.121-1.252-1.7-3.895.765-9.687,2.461-12.287,5.621a9.9,9.9,0,0,0-1.624,3.587,143.168,143.168,0,0,0-3.375,14.041,3.181,3.181,0,0,0-.015,1.63,3.63,3.63,0,0,0,1.347,1.479c5.381,4.243,6.8,11.093,8.566,17.286,2.687,9.4,3.926,22.4,6.613,31.8,8.8.677,45.482-7.644,49.9-11.51-6.328-11.394-11.45-31.953-13.457-46.256-.85-6.061-3.229-11.834-5.547-17.507-.543-1.329-1.034-4.4-2.039-5.255-1.338-1.146-14.12.79-15.475.835q.074,1.132.1,2.265A7.763,7.763,0,0,1,298.324,143.8Z" transform="translate(-268.675 -107.256)" fill="#739af0"/>
        <g id="Group_17" data-name="Group 17" transform="translate(14.847 20.886)">
          <g id="Group_14" data-name="Group 14">
            <g id="Group_13" data-name="Group 13">
              <path id="Path_13" data-name="Path 13" d="M283.918,138.466a16.955,16.955,0,0,0-1.73-3.8,10.858,10.858,0,0,0,6.02-2.047,18.525,18.525,0,0,0,2.423-2.133c.268-.274.676-.97,1.105-1.47-.579.676.848,4.484,1.134,5.26a13.985,13.985,0,0,0,2.6,4.533c1.156,1.281,1.913,1.5,2.116,3.311a13.305,13.305,0,0,1-.839,5.81,5.543,5.543,0,0,1-2.005,2.887,5.122,5.122,0,0,1-4.039.358c-2.275-.6-5.4-2.492-6.21-4.869-.426-1.246.052-1.883.166-3.16A12.351,12.351,0,0,0,283.918,138.466Z" transform="translate(-282.188 -129.021)" fill="#f48f8f"/>
            </g>
          </g>
          <g id="Group_16" data-name="Group 16">
            <g id="Group_15" data-name="Group 15">
              <path id="Path_14" data-name="Path 14" d="M284.685,142.529c0-.129,0-.256-.011-.386a17.651,17.651,0,0,0-2.486-7.473,10.858,10.858,0,0,0,6.02-2.047,18.525,18.525,0,0,0,2.423-2.133c.268-.274.676-.97,1.105-1.47.065.706.163,1.405.289,2.094A14.768,14.768,0,0,1,284.685,142.529Z" transform="translate(-282.188 -129.021)" fill="#e56e6e"/>
            </g>
          </g>
        </g>
        <g id="Group_22" data-name="Group 22" transform="translate(2.271)">
          <path id="Path_15" data-name="Path 15" d="M271.322,127.507a16.854,16.854,0,0,0,5.78,9.054,7.031,7.031,0,0,0,2.591,1.429,3.3,3.3,0,0,0,2.836-.481c1.11-.879,1.3-2.462,1.378-3.874a32.525,32.525,0,0,0-.253-7.92,12.566,12.566,0,0,0-3.555-6.955c-1.591-1.471-5.957-3.606-7.876-1.579C270.134,119.386,270.674,124.872,271.322,127.507Z" transform="translate(-270.742 -109.385)" fill="#0d5d6c"/>
          <g id="Group_19" data-name="Group 19" transform="translate(2.8 8.623)">
            <g id="Group_18" data-name="Group 18">
              <path id="Path_16" data-name="Path 16" d="M273.34,121.132c.375-2.488,3.19-.642,5.475-1.7,1.987-.918,3.49-1.713,5.733-1.555a8.2,8.2,0,0,1,5.374,2.383c.376.4.721.8,1.04,1.205a28.509,28.509,0,0,1,2.315,4.585l.023.109a15.463,15.463,0,0,1-2.063,8.81,8.072,8.072,0,0,1-7.005,4.231,6.9,6.9,0,0,1-4.458-1.731,15.314,15.314,0,0,1-3.277-4.33C275.153,130.715,272.928,123.873,273.34,121.132Z" transform="translate(-273.29 -117.86)" fill="#f48f8f"/>
            </g>
          </g>
          <path id="Path_17" data-name="Path 17" d="M284.38,126.581c-2.714-.643-5.517-1.034-8.011-2.268a9,9,0,0,1-4.313-4.275c-.835-1.926-.259-3.273.842-4.938a11.962,11.962,0,0,1,6.845-4.849c2.758-.726,6.211.344,8.856,1.265a10.787,10.787,0,0,1,4.835,3.144c2.154,2.6,2.888,7.087,2.718,10.377a17.7,17.7,0,0,1-.831,4c-.312,1.1-.87,2.339-2.146,2.5-.873.109-2.625-2.384-3.518-2.941a16.345,16.345,0,0,0-4.595-1.846C284.836,126.691,284.608,126.635,284.38,126.581Z" transform="translate(-270.651 -110.011)" fill="#0d5d6c"/>
          <g id="Group_21" data-name="Group 21" transform="translate(17.159 14.106)">
            <path id="Path_24" data-name="Path 24" d="M292.195,125.477a2.925,2.925,0,1,1-3.207-2.612A2.926,2.926,0,0,1,292.195,125.477Z" transform="translate(-286.36 -122.85)" fill="#f48f8f"/>
            <path id="Path_25" data-name="Path 25" d="M289.537,124.325a1.257,1.257,0,0,0-1.17,1.792.859.859,0,0,1,1.5.555" transform="translate(-286.173 -122.704)" fill="none" stroke="#485070" stroke-linecap="round" stroke-linejoin="round" stroke-width="0.75"/>
          </g>
        </g>
      </g>
      <g id="Group_24" data-name="Group 24" transform="translate(0 206.829)">
        <rect id="Rectangle_5" data-name="Rectangle 5" width="250.97" height="149.243" rx="8.74" transform="translate(18.578)" fill="#0c97b1" stroke="#006679" stroke-miterlimit="10" stroke-width="0.75"/>
        <path id="Path_26" data-name="Path 26" d="M404.923,434.281H116.8a11.979,11.979,0,0,0,11.979,11.979H392.944A11.98,11.98,0,0,0,404.923,434.281Z" transform="translate(-116.798 -284.848)" fill="#0c97b1" stroke="#006679" stroke-miterlimit="10" stroke-width="0.75"/>
        <rect id="Rectangle_6" data-name="Rectangle 6" width="238.923" height="138.697" rx="6.83" transform="translate(24.601 5.861)" fill="#27c7e3"/>
      </g>
      <path id="Path_27" data-name="Path 27" d="M251.3,300.987a1.86,1.86,0,1,1-1.86-1.86A1.86,1.86,0,0,1,251.3,300.987Z" transform="translate(-103.895 -91.353)" fill="#333"/>
      <g id="Group_38" data-name="Group 38" transform="translate(49.236 71.922)">
        <g id="Group_25" data-name="Group 25">
          <rect id="Rectangle_7" data-name="Rectangle 7" width="278.661" height="189.654" transform="translate(0 278.661) rotate(-90)" fill="#a3e4f0"/>
        </g>
        <g id="Group_34" data-name="Group 34" transform="translate(29.082 204.864)">
          <g id="Group_33" data-name="Group 33" transform="translate(14.789 8.269)">
            <g id="Group_26" data-name="Group 26" transform="translate(2.163 2.681)">
              <path id="Path_28" data-name="Path 28" d="M269.721,412.642,244.485,381.2l-21.947,28.122-19.025-20.557,2.487-2.3L222.318,404.1l22.129-28.355,24.578,30.622,14.265-29.127,30.116-5.326.591,3.337-28.42,5.025Z" transform="translate(-203.513 -371.909)" fill="#e6edff"/>
            </g>
            <g id="Group_27" data-name="Group 27" transform="translate(108)">
              <path id="Path_29" data-name="Path 29" d="M308.546,373.818a4.35,4.35,0,1,0-4.351,4.35A4.35,4.35,0,0,0,308.546,373.818Z" transform="translate(-299.846 -369.468)" fill="#ff6ea1"/>
            </g>
            <g id="Group_28" data-name="Group 28" transform="translate(63.855 35.925)">
              <path id="Path_30" data-name="Path 30" d="M268.364,406.517a4.35,4.35,0,1,0-4.35,4.35A4.349,4.349,0,0,0,268.364,406.517Z" transform="translate(-259.665 -402.167)" fill="#628aec"/>
            </g>
            <g id="Group_29" data-name="Group 29" transform="translate(78.227 5.176)">
              <path id="Path_31" data-name="Path 31" d="M281.445,378.529a4.35,4.35,0,1,0-4.35,4.35A4.349,4.349,0,0,0,281.445,378.529Z" transform="translate(-272.746 -374.179)" fill="#ffb861"/>
            </g>
            <g id="Group_30" data-name="Group 30" transform="translate(38.6 5.175)">
              <circle id="Ellipse_3" data-name="Ellipse 3" cx="4.35" cy="4.35" r="4.35" fill="#ffb861"/>
            </g>
            <g id="Group_31" data-name="Group 31" transform="translate(17.247 32.613)">
              <circle id="Ellipse_4" data-name="Ellipse 4" cx="4.35" cy="4.35" r="4.35" fill="#ff6ea1"/>
            </g>
            <g id="Group_32" data-name="Group 32" transform="translate(0 14.862)">
              <path id="Path_32" data-name="Path 32" d="M210.243,387.346a4.35,4.35,0,1,0-4.35,4.35A4.351,4.351,0,0,0,210.243,387.346Z" transform="translate(-201.544 -382.995)" fill="#3fd4c7"/>
            </g>
          </g>
          <path id="Path_33" data-name="Path 33" d="M188.083,361.942v59.317H320.448" transform="translate(-188.083 -361.942)" fill="none" stroke="#485070" stroke-miterlimit="10" stroke-width="0.75"/>
        </g>
        <g id="Group_37" data-name="Group 37" transform="translate(26.793 19.852)">
          <g id="Group_35" data-name="Group 35" transform="translate(0.932 27.164)">
            <rect id="Rectangle_8" data-name="Rectangle 8" width="20.202" height="46.926" transform="translate(11.889 63.16)" fill="#ffb861"/>
            <rect id="Rectangle_9" data-name="Rectangle 9" width="20.202" height="69.891" transform="translate(43.119 40.195)" fill="#ff6ea1"/>
            <path id="Path_34" data-name="Path 34" d="M194.239,267.98a186.2,186.2,0,0,0,65.349-49.712" transform="translate(-186.118 -218.268)" fill="none" stroke="#485070" stroke-linecap="round" stroke-miterlimit="10" stroke-width="0.75"/>
            <rect id="Rectangle_10" data-name="Rectangle 10" width="20.202" height="101.583" transform="translate(74.35 8.503)" fill="#3fd4c7"/>
            <rect id="Rectangle_11" data-name="Rectangle 11" width="20.202" height="57.154" transform="translate(105.581 52.931)" fill="#628aec"/>
            <path id="Path_35" data-name="Path 35" d="M186.847,227.73v99.843H321.822" transform="translate(-186.847 -217.334)" fill="none" stroke="#485070" stroke-miterlimit="10" stroke-width="0.75"/>
          </g>
          <g id="Group_36" data-name="Group 36">
            <rect id="Rectangle_12" data-name="Rectangle 12" width="135.54" height="6.826" transform="translate(0.161 147.041)" fill="#e6edff"/>
            <rect id="Rectangle_13" data-name="Rectangle 13" width="81.453" height="6.826" transform="translate(27.044 11.922)" fill="#e6edff"/>
            <rect id="Rectangle_14" data-name="Rectangle 14" width="135.54" height="6.826" fill="#e6edff"/>
            <rect id="Rectangle_15" data-name="Rectangle 15" width="135.54" height="6.826" transform="translate(0.161 159.555)" fill="#e6edff"/>
            <rect id="Rectangle_16" data-name="Rectangle 16" width="135.54" height="6.826" transform="translate(0.161 172.068)" fill="#e6edff"/>
          </g>
        </g>
      </g>
      <g id="Group_43" data-name="Group 43" transform="translate(150.492 30.356)">
        <g id="Group_40" data-name="Group 40" transform="translate(16.199)">
          <g id="Group_39" data-name="Group 39" transform="translate(33.666)">
            <path id="Path_36" data-name="Path 36" d="M305.4,138.616c-1.58.372-3.148.814-4.706,1.254a1.832,1.832,0,0,0-.741.334,1.77,1.77,0,0,0-.461,1.009,20.355,20.355,0,0,0,3.566,15.526c.967,1.207,2.113,2.257,3.159,3.395,1.031,1.122,2.406,2.134,3.331,3.312,1.076,1.37,1.53,3.593,2.029,5.234a51.1,51.1,0,0,1,2.108,11.6c.167,2.609.29,5.578,2.293,7.261,1.983,1.667,5.13,1.242,7.178-.346s3.208-4.05,4.082-6.49a51.983,51.983,0,0,0,3.181-19.893c-.3-6.14-2.179-13.538-6.146-18.395-2.655-3.252-7.03-4.7-11.228-4.768A31.264,31.264,0,0,0,305.4,138.616Z" transform="translate(-299.163 -137.641)" fill="#739af0"/>
            <path id="Path_37" data-name="Path 37" d="M308.26,174.141l4.374-23.664" transform="translate(-298.266 -136.374)" fill="none" stroke="#485070" stroke-miterlimit="10" stroke-width="0.75"/>
            <path id="Path_38" data-name="Path 38" d="M309.647,151.827l1.513,3.865" transform="translate(-298.129 -136.241)" fill="none" stroke="#485070" stroke-miterlimit="10" stroke-width="0.75"/>
          </g>
          <path id="Path_39" data-name="Path 39" d="M283.984,189.043a5.484,5.484,0,0,1,1.747-.324c5.328-.115,10.535-.667,15.912-1.207,3.6-.361,7.2-.569,10.79-.621,2.894-.041,6.244.589,9.062-.208,2.982-.843,5.011-1.678,6.5-4.146a38.6,38.6,0,0,0,1.952-3.651,3.717,3.717,0,0,0,.505-2.238c-.232-1.083-1.429-1.742-2.6-2.174-2.5-.918-4.044-2.349-6.913-2.642a29.5,29.5,0,0,0-8.919.7c-5.715,1.2-11.435,1.7-17.045,3.364a150.584,150.584,0,0,0-18.388,7.2,19.224,19.224,0,0,0-6.045,3.654c-2.434,2.506-2.7,6.237-.622,8.578a2.873,2.873,0,0,0,2.579,1.089c1.051-.188,1.755-1.569.872-1.98C279.143,196.658,279.3,190.726,283.984,189.043Z" transform="translate(-268.52 -134.278)" fill="#f48f8f"/>
        </g>
        <g id="Group_42" data-name="Group 42" transform="translate(0 9.181)">
          <g id="Group_41" data-name="Group 41">
            <path id="Path_40" data-name="Path 40" d="M266.193,188.352l.04-.353q-.132.325-.265.65Z" transform="translate(-252.573 -141.854)" fill="#ff6ea1"/>
            <path id="Path_41" data-name="Path 41" d="M282.361,147.881a3.8,3.8,0,0,0-1.468-1.528c-1.862-1.089-5.776.586-7.452,1.508a10.879,10.879,0,0,0-1.05.649,27.242,27.242,0,0,0-5.339,4.723c-.536.588-1.061,1.187-1.58,1.786-7.751,8.95-12.757,18.809-11.5,30.794.268,2.565.78,5.333,2.692,7.067a6.825,6.825,0,0,0,5.747,1.475,10.325,10.325,0,0,0,5.085-2.7l-.056.49.286-.7c3.056-2.965,3.772-7.069,4.512-11.061l.005-.027,7.287-17.888C280.687,159.616,284.435,151.781,282.361,147.881Z" transform="translate(-253.776 -145.997)" fill="#739af0"/>
          </g>
          <path id="Path_42" data-name="Path 42" d="M269.926,233.114c3.344-5.464-2.752-6.368-3.638-11.248a5.245,5.245,0,0,1-.018-1.78c.849-5.32,1.226-10.571,1.645-15.993q.422-5.443,1.321-10.818c.405-2.418,1.344-5.093,1.458-7.607-.059-.8-.149-1.6-.28-2.386a8.333,8.333,0,0,0-5.018-4.1,9.58,9.58,0,0,0-8.786,1.75,23.924,23.924,0,0,0-1.627,2.921,30.36,30.36,0,0,0-.652,8.013c.2,5.842-.327,11.6.376,17.393a141.14,141.14,0,0,0,4.094,19.217,17.9,17.9,0,0,0,2.674,6.481,6.659,6.659,0,0,0,8.745,1.706,3.051,3.051,0,0,0,1.592-2.429C271.81,233.162,270.51,232.288,269.926,233.114Z" transform="translate(-253.724 -142.764)" fill="#f48f8f"/>
          <path id="Path_43" data-name="Path 43" d="M268.949,184.845a62.366,62.366,0,0,1,8.346-20.208" transform="translate(-252.279 -144.158)" fill="none" stroke="#485070" stroke-miterlimit="10" stroke-width="0.75"/>
          <path id="Path_44" data-name="Path 44" d="M273.991,168.8l2.861-1.844" transform="translate(-251.782 -143.93)" fill="none" stroke="#485070" stroke-miterlimit="10" stroke-width="0.75"/>
        </g>
      </g>
    </g>
    <g id="Group_65" data-name="Group 65" transform="translate(51.8 272.42)">
      <path id="Path_45" data-name="Path 45" d="M121.31,294.916c4.089,4.675,5.767,10.977,7.157,16.879l5.389,22.886a27.342,27.342,0,0,1,.9,5.436,39.907,39.907,0,0,1-1.456,9.548c-.89,3.649-3.073,3.423-6.323,3.1-5.138-.51-12.13-2.065-15.6-6.256-1.649-1.993-2.18-4.655-2.654-7.2q-.981-5.244-1.96-10.487c-2.671-14.284-5.339-29.016-2.318-43.228A27.107,27.107,0,0,1,121.31,294.916Z" transform="translate(-45.832 -249.619)" fill="#739af0"/>
      <path id="Path_46" data-name="Path 46" d="M128.088,335.379c2.272,1.078,4.447,2.465,6.635,3.783,3.474,2.091,7.1,3.562,10.658,5.5a10.573,10.573,0,0,0,3.148,1.293c1.9.336,3.915-.38,5.832-.123,2.563.344,4.748,2.629,5.678,5.65,1.566,5.088-2.1,3.194-4.528,2.749l-5.68-1.043a169.064,169.064,0,0,0-22.213-2.417c-4.143-.215-11.444-.119-14.543-3.895-1.505-1.835-3.173-9.84-1.19-11.826a3.058,3.058,0,0,1,1.273-.689,19.286,19.286,0,0,1,11.9-.185A22.832,22.832,0,0,1,128.088,335.379Z" transform="translate(-45.056 -244.91)" fill="#f48f8f"/>
      <g id="Group_51" data-name="Group 51" transform="translate(0 59.868)">
        <path id="Path_47" data-name="Path 47" d="M131.013,389.54H58.343a4.319,4.319,0,0,1-4.319-4.32h0a4.32,4.32,0,0,1,4.319-4.32h72.67a4.32,4.32,0,0,1,4.32,4.32h0A4.319,4.319,0,0,1,131.013,389.54Z" transform="translate(-50.675 -300.084)" fill="#57cfe5"/>
        <rect id="Rectangle_17" data-name="Rectangle 17" width="39.423" height="70.75" rx="6.335" transform="translate(70.75) rotate(90)" fill="#57cfe5"/>
        <g id="Group_45" data-name="Group 45" transform="translate(9.057 33.013)">
          <rect id="Rectangle_18" data-name="Rectangle 18" width="4.395" height="52.45" fill="#57cfe5"/>
        </g>
        <g id="Group_46" data-name="Group 46" transform="translate(56.463 33.013)">
          <rect id="Rectangle_19" data-name="Rectangle 19" width="4.395" height="52.45" fill="#57cfe5"/>
        </g>
        <g id="Group_47" data-name="Group 47" transform="translate(39.529 87.283)">
          <rect id="Rectangle_20" data-name="Rectangle 20" width="4.395" height="63.71" fill="#57cfe5"/>
        </g>
        <g id="Group_48" data-name="Group 48" transform="translate(6.497 87.283)">
          <rect id="Rectangle_21" data-name="Rectangle 21" width="4.395" height="63.71" fill="#57cfe5"/>
        </g>
        <g id="Group_49" data-name="Group 49" transform="translate(76.94 87.283)">
          <rect id="Rectangle_22" data-name="Rectangle 22" width="4.395" height="63.71" fill="#485070"/>
        </g>
        <g id="Group_50" data-name="Group 50" transform="translate(54.391 87.283)">
          <rect id="Rectangle_23" data-name="Rectangle 23" width="4.395" height="63.71" fill="#57cfe5"/>
        </g>
      </g>
      <g id="Group_53" data-name="Group 53" transform="translate(37.047 104.952)">
        <path id="Path_48" data-name="Path 48" d="M166.821,407.139c-2.492.523-4.2.649-7.147,1.063-4.28.6-8.575,1.1-12.881,1.476,1.123,7.744,2.145,14.554,2.4,15.924,1.125,5.931.5,20.8,3.152,26.435,3.222.4,6.012-.131,9.025-.377C162.976,436.793,164.29,421.874,166.821,407.139Z" transform="translate(-78.568 -342.58)" fill="#f48f8f"/>
        <path id="Path_49" data-name="Path 49" d="M150.5,425.983a18.678,18.678,0,0,0,.277,3.637c3.408,3.6,8.514,5.452,13.425,5.694a23.1,23.1,0,0,0,8.267-1.154q.473-8.7,1.034-17.4c.482-7.547.873-15.09,1.812-22.6a108.921,108.921,0,0,0,.111-20.288c-1.924-7.372-6.82-9.385-6.82-9.385s-13.691-5.417-24.175-7.719c-12.869-2.825-25.95-4.921-38.894-7.741-6.222-1.355-16.628-1.1-19.841,5.7-3.716,7.869,3.693,18.329,9.659,22.873,6.173,4.7,13.793,7.079,21.373,8.732a138.885,138.885,0,0,0,32.708,3.145C149.084,389.48,150.483,423.263,150.5,425.983Z" transform="translate(-84.695 -348.378)" fill="#71716f"/>
        <path id="Path_50" data-name="Path 50" d="M149.418,389.541c.02-.021.043-.038.064-.059-2.392-2.375-4.65-4.89-7.04-7.263-3.56-3.532-7.017-7.174-10.552-10.733-7.024-7.069-14.084-14.1-20.955-21.321q-2.7-.55-5.4-1.135c-6.222-1.355-16.628-1.1-19.841,5.7-3.716,7.869,3.693,18.329,9.659,22.873,6.173,4.7,13.793,7.079,21.373,8.732a138.885,138.885,0,0,0,32.708,3.145C149.428,389.479,149.424,389.515,149.418,389.541Z" transform="translate(-84.695 -348.378)" fill="#45453c"/>
        <path id="Path_51" data-name="Path 51" d="M143.7,388.745c.012-3.439.479-7.639.49-11.078" transform="translate(-78.874 -345.488)" fill="none" stroke="#485070" stroke-miterlimit="10" stroke-width="0.398"/>
        <path id="Path_52" data-name="Path 52" d="M154.531,360.7c-9.206-2.961-17.6-5.7-31.117-7.526" transform="translate(-80.875 -347.905)" fill="none" stroke="#485070" stroke-miterlimit="10" stroke-width="0.75"/>
        <g id="Group_52" data-name="Group 52" transform="translate(71.72 99.958)">
          <path id="Rectangle_24" data-name="Rectangle 24" d="M0,0H29.466a0,0,0,0,1,0,0V3.189a0,0,0,0,1,0,0H.961A.961.961,0,0,1,0,2.228V0A0,0,0,0,1,0,0Z" transform="translate(0.482 13.716)" fill="#b3b3b3"/>
          <path id="Path_53" data-name="Path 53" d="M179.508,453.65a3.109,3.109,0,0,0,.278-.468c.714-1.57-.123-3.463-1.492-4.578a13.226,13.226,0,0,0-4.888-2.116,81.691,81.691,0,0,0-11.073-2.55c-1-.137-11.734-1.12-11.686-1.6l-.5,8.115a8.529,8.529,0,0,0-.012,3.2Z" transform="translate(-149.974 -439.066)" fill="#485070"/>
          <path id="Path_54" data-name="Path 54" d="M155.182,440.394a5.1,5.1,0,0,1,5.932-.163,6.34,6.34,0,0,1,2.616,5.5,1.5,1.5,0,0,1-.38,1.081,1.669,1.669,0,0,1-1.117.285l-5.077.06c-1.056.012-2.4.258-3.137-.692C152.722,444.788,153.925,441.651,155.182,440.394Z" transform="translate(-149.631 -439.36)" fill="#485070"/>
          <path id="Path_55" data-name="Path 55" d="M165.4,444.5a2.333,2.333,0,0,0-2.361,1.468" transform="translate(-148.686 -438.854)" fill="none" stroke="#b3b3b3" stroke-linecap="round" stroke-miterlimit="10" stroke-width="0.75"/>
          <path id="Path_56" data-name="Path 56" d="M165.744,446.975a3.029,3.029,0,0,1,2.5-1.428" transform="translate(-148.419 -438.749)" fill="none" stroke="#b3b3b3" stroke-linecap="round" stroke-miterlimit="10" stroke-width="0.75"/>
          <path id="Path_57" data-name="Path 57" d="M169.135,447.309a1.718,1.718,0,0,1,1.557-1.063" transform="translate(-148.084 -438.681)" fill="none" stroke="#b3b3b3" stroke-linecap="round" stroke-miterlimit="10" stroke-width="0.75"/>
        </g>
      </g>
      <g id="Group_55" data-name="Group 55" transform="translate(26.302 102.817)">
        <path id="Path_58" data-name="Path 58" d="M121.6,403.625q-5.658.8-11.349,1.321c2.866,14.1,4.188,28.457,6.527,42.646,3.219-.012,6.155-.693,9.577-.617.652-4.3,1.963-29.81,3.982-44.774A71.956,71.956,0,0,1,121.6,403.625Z" transform="translate(-71.43 -340.932)" fill="#f48f8f"/>
        <path id="Path_59" data-name="Path 59" d="M114.3,429.195c.78,3.176,1.689,5.123,4.817,6.366a18.1,18.1,0,0,0,8.582,1.205,14.36,14.36,0,0,0,7.082-3.279s4.038-60.2-.986-67.911c-6.146-9.439-19.6-11.374-30.083-13.676-9.184-2.016-18.475-3.664-27.748-5.465-2.261,8.584-.627,18.676,2.653,26.593l.051.122a18.231,18.231,0,0,0,15.279,11,137.781,137.781,0,0,0,14.77.461C108.654,384.606,111.508,417.826,114.3,429.195Z" transform="translate(-74.915 -346.434)" fill="#71716f"/>
        <path id="Path_60" data-name="Path 60" d="M105.755,384.134c.011-3.438.479-7.638.49-11.077" transform="translate(-71.873 -343.807)" fill="none" stroke="#485070" stroke-miterlimit="10" stroke-width="0.398"/>
        <g id="Group_54" data-name="Group 54" transform="translate(44.097 101.633)">
          <path id="Rectangle_25" data-name="Rectangle 25" d="M0,0H29.466a0,0,0,0,1,0,0V3.189a0,0,0,0,1,0,0H.961A.961.961,0,0,1,0,2.228V0A0,0,0,0,1,0,0Z" transform="translate(0.482 13.716)" fill="#b3b3b3"/>
          <path id="Path_61" data-name="Path 61" d="M144.587,453.23a3.005,3.005,0,0,0,.277-.467c.714-1.571-.123-3.464-1.492-4.579a13.254,13.254,0,0,0-4.888-2.116,81.616,81.616,0,0,0-11.073-2.55c-1-.137-11.733-1.12-11.686-1.6q-.247,4.057-.5,8.115a8.483,8.483,0,0,0-.012,3.2Z" transform="translate(-115.053 -438.647)" fill="#485070"/>
          <path id="Path_62" data-name="Path 62" d="M120.26,439.974a5.094,5.094,0,0,1,5.932-.161,6.331,6.331,0,0,1,2.616,5.5,1.5,1.5,0,0,1-.379,1.081,1.674,1.674,0,0,1-1.118.285l-5.077.06c-1.056.013-2.4.258-3.137-.692C117.8,444.368,119,441.231,120.26,439.974Z" transform="translate(-114.709 -438.94)" fill="#485070"/>
          <path id="Path_63" data-name="Path 63" d="M130.476,444.083a2.332,2.332,0,0,0-2.361,1.468" transform="translate(-113.764 -438.434)" fill="none" stroke="#b3b3b3" stroke-linecap="round" stroke-miterlimit="10" stroke-width="0.75"/>
          <path id="Path_64" data-name="Path 64" d="M130.822,446.556a3.031,3.031,0,0,1,2.5-1.429" transform="translate(-113.497 -438.33)" fill="none" stroke="#b3b3b3" stroke-linecap="round" stroke-miterlimit="10" stroke-width="0.75"/>
          <path id="Path_65" data-name="Path 65" d="M134.214,446.889a1.716,1.716,0,0,1,1.557-1.064" transform="translate(-113.162 -438.261)" fill="none" stroke="#b3b3b3" stroke-linecap="round" stroke-miterlimit="10" stroke-width="0.75"/>
        </g>
      </g>
      <g id="Group_56" data-name="Group 56" transform="translate(21.361 34.756)">
        <path id="Path_66" data-name="Path 66" d="M75.17,364.177q.389,2.078.779,4.154c4.78-2.514,10.5-1.987,15.9-2a73.246,73.246,0,0,0,34.063-8.509,45.834,45.834,0,0,1-1.272-8.726c-.016-3.01-1.26-5.925-1.26-8.943-.2-4.076-.04-8.161.16-12.232.38-7.714.9-15.516-.538-23.1A33.915,33.915,0,0,0,117.233,291c-1.373-1.861-3.276-4.273-5.385-5.343-2.234-1.135-5.586-.755-8.1-.978a21.489,21.489,0,0,0-5.52-.012,18.464,18.464,0,0,0-6.255,2.638c-10.4,6.241-11.668,16.306-14.8,27.14-1.564,5.411-4.016,10.534-5.586,15.944a30.729,30.729,0,0,0-1.162,9.314c.069,2.842,1.161,5.376,1.685,8.169Q73.641,356.022,75.17,364.177Z" transform="translate(-70.418 -284.485)" fill="#739af0"/>
        <path id="Path_67" data-name="Path 67" d="M101.531,293.732a10.016,10.016,0,0,0,7.009,2.346,4.39,4.39,0,0,0,2.468-.775,2.116,2.116,0,0,0,.79-2.32" transform="translate(-67.348 -283.647)" fill="none" stroke="#485070" stroke-linecap="round" stroke-miterlimit="10" stroke-width="0.398"/>
        <path id="Path_68" data-name="Path 68" d="M99.355,314.32a25.216,25.216,0,0,0,15.4,16.208" transform="translate(-67.563 -281.542)" fill="none" stroke="#485070" stroke-linecap="round" stroke-miterlimit="10" stroke-width="0.398"/>
        <path id="Path_69" data-name="Path 69" d="M105.492,319.545a11.688,11.688,0,0,0,7.594,4.084" transform="translate(-66.957 -281.026)" fill="none" stroke="#485070" stroke-linecap="round" stroke-miterlimit="10" stroke-width="0.398"/>
        <path id="Path_70" data-name="Path 70" d="M93.4,319.135a54,54,0,0,0,13.826,22.373" transform="translate(-68.151 -281.067)" fill="none" stroke="#485070" stroke-linecap="round" stroke-miterlimit="10" stroke-width="0.398"/>
        <path id="Path_71" data-name="Path 71" d="M115.194,293.288c2.988,5.143,3.028,8.069,3.7,12.606a96.323,96.323,0,0,1,1.028,15.339c-.113,8.6-2.013,16.485-.091,25.019" transform="translate(-66 -283.617)" fill="none" stroke="#485070" stroke-miterlimit="10" stroke-width="0.398"/>
      </g>
      <g id="Group_58" data-name="Group 58" transform="translate(49.095 23.205)">
        <g id="Group_57" data-name="Group 57">
          <path id="Path_72" data-name="Path 72" d="M110.865,284.106a18.191,18.191,0,0,1,1.856-4.073,11.644,11.644,0,0,1-6.458-2.2,19.766,19.766,0,0,1-2.6-2.287c-.289-.294-.726-1.042-1.187-1.579-.478,5.174-2.4,10.038-6.816,12.993a17.187,17.187,0,0,0,6.664,6.32c2.3,1.335,8.033,3.912,8.161-.748.042-1.526-.564-2.935-.433-4.484A18.228,18.228,0,0,1,110.865,284.106Z" transform="translate(-95.662 -273.971)" fill="#f48f8f"/>
        </g>
      </g>
      <g id="Group_60" data-name="Group 60" transform="translate(55.601 23.205)">
        <g id="Group_59" data-name="Group 59">
          <path id="Path_73" data-name="Path 73" d="M109.458,288.464c0-.137,0-.274.012-.413a18.951,18.951,0,0,1,2.666-8.018,11.644,11.644,0,0,1-6.458-2.2,19.765,19.765,0,0,1-2.6-2.287c-.289-.294-.726-1.042-1.187-1.579-.07.759-.176,1.508-.311,2.248A15.841,15.841,0,0,0,109.458,288.464Z" transform="translate(-101.583 -273.971)" fill="#e56e6e"/>
        </g>
      </g>
      <path id="Path_74" data-name="Path 74" d="M79.188,294.916c-4.089,4.675-5.766,10.977-7.156,16.879l-5.389,22.886c-.623,2.642-1.622,6.258-1.036,8.956a11.633,11.633,0,0,0,5.3,7.182c2.715,1.629,6.848,2.373,9.83.989,2.921-1.358,6.263-2.738,8.384-5.3,1.649-1.993,2.179-4.655,2.654-7.2q.981-5.244,1.96-10.487c2.67-14.284,5.338-29.016,2.318-43.228A27.109,27.109,0,0,0,79.188,294.916Z" transform="translate(-49.549 -249.619)" fill="#739af0"/>
      <path id="Path_75" data-name="Path 75" d="M94.326,306.987c-5.942,1.547-5.409,9.149-5.947,13.838a137.707,137.707,0,0,1-3.95,20.519" transform="translate(-47.675 -247.509)" fill="none" stroke="#485070" stroke-miterlimit="10" stroke-width="0.398"/>
      <path id="Path_76" data-name="Path 76" d="M89.377,311.018a11.34,11.34,0,0,1,3.608-5.3" transform="translate(-47.187 -247.634)" fill="none" stroke="#485070" stroke-miterlimit="10" stroke-width="0.398"/>
      <path id="Path_77" data-name="Path 77" d="M88.138,336.532c3.186.7,6.312,1.715,9.44,2.661,4.966,1.5,10,2.369,15.041,3.711a17.766,17.766,0,0,0,4.372.768c2.55.024,5.013-1.007,7.562-1.063a10.282,10.282,0,0,1,8.594,4.659c3.119,4.768-2.052,3.492-5.307,3.443l-7.614-.111A293.771,293.771,0,0,0,90.8,351.8c-5.437.457-14.918,1.732-19.754-1.494-2.35-1.568-6.225-9.2-4.067-11.479a4.087,4.087,0,0,1,1.51-.886,32.566,32.566,0,0,1,15.45-2.105A38.866,38.866,0,0,1,88.138,336.532Z" transform="translate(-49.458 -244.68)" fill="#f48f8f"/>
      <path id="Path_78" data-name="Path 78" d="M152.482,339.872H152.3" transform="translate(-40.979 -244.265)" fill="#dc8b77"/>
      <g id="Group_61" data-name="Group 61" transform="translate(55.047 84.132)">
        <rect id="Rectangle_26" data-name="Rectangle 26" width="68.586" height="3.117" rx="1.212" transform="translate(0 32.603)" fill="#1d9eb5"/>
        <path id="Path_79" data-name="Path 79" d="M175.079,365.148h-58.61l5.1-33.678a2.38,2.38,0,0,1,2.324-2.042h53.964a2.284,2.284,0,0,1,2.228,2.669Z" transform="translate(-99.56 -329.427)" fill="#1db0cb"/>
        <circle id="Ellipse_5" data-name="Ellipse 5" cx="3.895" cy="3.895" r="3.895" transform="translate(47.159 13.275)" fill="#fff"/>
      </g>
      <g id="Group_63" data-name="Group 63" transform="translate(55.156 9.528)">
        <g id="Group_62" data-name="Group 62">
          <path id="Path_80" data-name="Path 80" d="M121.934,263.9c-.671-2.615-3.475-.335-6.028-1.214-2.221-.764-3.912-1.447-6.289-1.034a8.8,8.8,0,0,0-5.476,3.13c-.358.463-.681.931-.978,1.4a30.542,30.542,0,0,0-1.972,5.146l-.013.118a16.594,16.594,0,0,0,3.164,9.179,8.658,8.658,0,0,0,7.939,3.752,7.406,7.406,0,0,0,4.57-2.335,16.463,16.463,0,0,0,3.026-4.979C121.044,274.322,122.672,266.777,121.934,263.9Z" transform="translate(-101.178 -261.523)" fill="#f48f8f"/>
        </g>
      </g>
      <path id="Path_81" data-name="Path 81" d="M109.862,267.317c.025-.115.045-.246.076-.394q.344-1.635.688-3.271c2.758,2.06,5.75,5,9.32,6.181a6.789,6.789,0,0,0,7.455-2.351,8.082,8.082,0,0,0,.772-1.3,9.926,9.926,0,0,1,.477-1.152,2.491,2.491,0,0,1-3.1-.679,10.33,10.33,0,0,1-1.557-3.084,14.259,14.259,0,0,0-4.979-6.335,11.417,11.417,0,0,0-7.735-2.015,9.807,9.807,0,0,0-4.713,1.891,8.469,8.469,0,0,0-1.8,1.8c-.229.32-1.2,2.07-.806,2.408a1.977,1.977,0,0,0-2.24-.062,4.612,4.612,0,0,0-1.555,1.782,15.29,15.29,0,0,0-1.77,9.819,19.053,19.053,0,0,0,1.323,4.181c.453,1.135,1.185,2.4,2.563,2.431,1.9.042,1.693-3.152,2.234-4.8.212-.646.165-1.457.937-1.65s2.042,1.287,2.644.073a2.246,2.246,0,0,0,.014-1.437,1.937,1.937,0,0,1,.091-1.424c.025-.04,1.009,0,1.157-.048A.669.669,0,0,0,109.862,267.317Z" transform="translate(-46.315 -252.85)" fill="#0d5d6c"/>
      <path id="Path_82" data-name="Path 82" d="M104.661,253.969a7.106,7.106,0,0,0-.773,7.048" transform="translate(-45.814 -252.74)" fill="none" stroke="#485070" stroke-linecap="round" stroke-miterlimit="10" stroke-width="0.75"/>
      <path id="Path_83" data-name="Path 83" d="M99.76,257.894a3.108,3.108,0,0,1,3.882.613" transform="translate(-46.162 -252.394)" fill="none" stroke="#485070" stroke-linecap="round" stroke-miterlimit="10" stroke-width="0.75"/>
      <g id="Group_64" data-name="Group 64" transform="translate(54.939 16.124)">
        <path id="Path_89" data-name="Path 89" d="M100.981,270.664a3.138,3.138,0,1,0,3.138-3.138A3.138,3.138,0,0,0,100.981,270.664Z" transform="translate(-100.981 -267.526)" fill="#f48f8f"/>
        <path id="Path_90" data-name="Path 90" d="M103.29,269.161a1.347,1.347,0,0,1,1.444,1.784.921.921,0,0,0-1.539.756" transform="translate(-100.763 -267.366)" fill="none" stroke="#485070" stroke-linecap="round" stroke-linejoin="round" stroke-width="0.75"/>
      </g>
    </g>
    <g id="Group_81" data-name="Group 81" transform="translate(371.144 202.151)">
      <g id="Group_69" data-name="Group 69" transform="translate(11.91 99.761)">
        <g id="Group_66" data-name="Group 66" transform="translate(44.078 1.668)">
          <path id="Path_91" data-name="Path 91" d="M423.686,433.877c-.09-.4-11.31,1.566-12.551,1.76l-.135.116c-3.88,3.3-8.8,5.092-13.616,6.835a4.609,4.609,0,0,0-2.033,1.16c-2.185,2.565,2.454,3.668,4.1,3.806a31.094,31.094,0,0,0,7.972-.777c5.4-.95,10.917-.643,16.266-1.963a.945.945,0,0,0,.565-.291.963.963,0,0,0,.135-.493A33.2,33.2,0,0,0,423.686,433.877Z" transform="translate(-392.388 -266.155)" fill="#45453c"/>
          <path id="Path_92" data-name="Path 92" d="M399.338,370.041c2.708,27,7.65,54.715,10.744,81.693,6.328.545,8.619.13,14.765-.911,4.028-29.347,5.734-43.51,2.1-73.279-.374-3.055-.052-28.364-.16-31.614-.644-19.35,1.941-41.437-9.68-57.776-2.935-4.127-7.743-7.293-12.631-6.911a11.407,11.407,0,0,0-8.388,5.016c-6,8.149-2.654,30.289-1.586,39.954C395.917,339.028,398.047,357.171,399.338,370.041Z" transform="translate(-392.603 -281.211)" fill="#71716f"/>
          <path id="Path_93" data-name="Path 93" d="M401.243,386.84c1.1-4.682,2.438-9.313,3.759-13.938,4.622-16.179,6.532-32.807,8.842-49.435a76.253,76.253,0,0,0,1.029-11.88c-.074-4.039-.6-8.1-.927-12.128a105.344,105.344,0,0,0-2.276-16.362,12.3,12.3,0,0,0-7.194-1.855,11.4,11.4,0,0,0-8.388,5.016c-6,8.149-2.654,30.289-1.586,39.954,1.416,12.815,3.547,30.958,4.837,43.828C399.89,375.552,400.539,381.167,401.243,386.84Z" transform="translate(-392.603 -281.211)" fill="#45453c"/>
        </g>
        <g id="Group_67" data-name="Group 67" transform="translate(0 5.404)">
          <path id="Path_94" data-name="Path 94" d="M384.6,437.293a2.4,2.4,0,0,0-.333.021,43.561,43.561,0,0,1-10.836-.057,2.857,2.857,0,0,0-2.5.519,32.4,32.4,0,0,1-10.959,4.186c-2.225.411-4.622.642-6.388,2.056-.826.661-1.472,1.89-.842,2.74a2.2,2.2,0,0,0,.866.625c3.375,1.586,8.466.969,12.093.768,5.856-.325,11.657.029,17.432-1.146a1.494,1.494,0,0,0,.668-.259,1.564,1.564,0,0,0,.431-.9A44.282,44.282,0,0,0,385.1,441c.075-.643.435-2.964-.008-3.508A.634.634,0,0,0,384.6,437.293Z" transform="translate(-352.483 -269.56)" fill="#45453c"/>
          <path id="Path_95" data-name="Path 95" d="M397.325,284.614c-13.316-.214-17.391,13.685-18.976,24.376q-5.021,33.866-7.046,68.086c-.671,11.333-1.558,20.908-1.931,32.257-.4,11.65-1.026,31.809-.52,43.4a.8.8,0,0,0,.9.936,80.019,80.019,0,0,0,14.708.208,1.265,1.265,0,0,0,.658-.177c.211-.154-1.672-.891-1.591-1.139,3.746-11.569,6.307-32.25,7.484-44.339,2.459-25.278,7.709-49.877,17.136-73.228C417.576,312.94,422.9,285.024,397.325,284.614Z" transform="translate(-350.887 -284.612)" fill="#71716f"/>
          <path id="Path_96" data-name="Path 96" d="M399.724,346.459a352.082,352.082,0,0,0,13.737-39.134" transform="translate(-347.823 -282.371)" fill="none" stroke="#363634" stroke-miterlimit="10" stroke-width="0.75"/>
        </g>
        <g id="Group_68" data-name="Group 68" transform="translate(27.688)">
          <path id="Path_97" data-name="Path 97" d="M399.053,315.043l.127.021q1.828.3,3.66.531c.9.113,1.8.205,2.7.289q.443.041.887.079,1.129.094,2.261.158c.426.024.851.042,1.279.06.333.014.666.032,1,.042l0-.009a84.028,84.028,0,0,0,17.172-1.207c-.849-10.2-3.077-20.036-9.007-28.372-2.935-4.127-7.743-7.294-12.631-6.911a11.406,11.406,0,0,0-8.388,5.016,11.916,11.916,0,0,0-1.179,2.06c-11.57-.263-16.672,11.394-19.251,21.226a43.968,43.968,0,0,0,8.286,3.77A78.083,78.083,0,0,0,399.053,315.043Z" transform="translate(-377.685 -279.693)" fill="#45453c" opacity="0.504"/>
        </g>
      </g>
      <g id="Group_77" data-name="Group 77" transform="translate(57.244)">
        <g id="Group_71" data-name="Group 71" transform="translate(6.698 26.016)">
          <g id="Group_70" data-name="Group 70">
            <path id="Path_98" data-name="Path 98" d="M402.662,219.139a18.207,18.207,0,0,0-.319-4.465,11.634,11.634,0,0,0,6.818.2,19.723,19.723,0,0,0,3.234-1.236c.372-.175,1.044-.722,1.662-1.065-1.358,5.014-1.251,10.246,1.852,14.554a17.2,17.2,0,0,1-8.452,3.6c-2.621.447-8.893.861-7.385-3.551.493-1.444,1.552-2.552,1.97-4.05A18.213,18.213,0,0,0,402.662,219.139Z" transform="translate(-399.843 -212.57)" fill="#f48f8f"/>
          </g>
        </g>
        <g id="Group_73" data-name="Group 73" transform="translate(8.766 28.12)">
          <g id="Group_72" data-name="Group 72">
            <path id="Path_99" data-name="Path 99" d="M408.549,214.782a11.6,11.6,0,0,1-6.39-.3,18.925,18.925,0,0,1-.3,8.445c-.037.134-.086.263-.133.392.259-.032.517-.077.777-.127A15.594,15.594,0,0,0,408.549,214.782Z" transform="translate(-401.725 -214.485)" fill="#e56e6e"/>
          </g>
        </g>
        <g id="Group_75" data-name="Group 75" transform="translate(3.439 7.646)">
          <g id="Group_74" data-name="Group 74">
            <path id="Path_100" data-name="Path 100" d="M399.556,196.644c1.541-2.216,3.374.9,6.073.967,2.348.06,4.172.01,6.254,1.226a8.8,8.8,0,0,1,4.039,4.845c.174.558.314,1.11.428,1.652a30.59,30.59,0,0,1,.051,5.512l-.029.114a16.6,16.6,0,0,1-6.169,7.5,8.662,8.662,0,0,1-8.75.745,7.407,7.407,0,0,1-3.467-3.784,16.458,16.458,0,0,1-1.1-5.722C396.75,206.726,397.857,199.087,399.556,196.644Z" transform="translate(-396.876 -195.85)" fill="#f48f8f"/>
          </g>
        </g>
        <path id="Path_101" data-name="Path 101" d="M402.909,202.477c-2.109.3-3.827.639-5.76-.493a6.861,6.861,0,0,1-3.087-3.9,8.178,8.178,0,0,1-.271-1.483,9.811,9.811,0,0,0-.044-1.246,2.492,2.492,0,0,0,3.145.446,10.284,10.284,0,0,0,2.534-2.347,14.277,14.277,0,0,1,6.878-4.2,11.418,11.418,0,0,1,7.952.812,9.811,9.811,0,0,1,3.756,3.417,8.487,8.487,0,0,1,1.058,2.319c.1.38.4,2.359-.085,2.538a1.978,1.978,0,0,1,2.12.725,4.637,4.637,0,0,1,.835,2.213,14.908,14.908,0,0,1-.975,7.894,60.055,60.055,0,0,1-2.67,5.474,8.853,8.853,0,0,1-3.622,3.583c-1.953.949-4.23.878-6.4.762a4.474,4.474,0,0,1-4.346-2.747,8.976,8.976,0,0,1-.555-2.869c-.025-.405-.215-3.23.116-3.4a3.511,3.511,0,0,1-1.292.458,1.191,1.191,0,0,1-1.17-.567,1.768,1.768,0,0,1,.054-1.266Q402,205.54,402.909,202.477Z" transform="translate(-393.746 -188.89)" fill="#0d5d6c"/>
        <path id="Path_102" data-name="Path 102" d="M417.417,192.893a7.108,7.108,0,0,1-1.736,6.874" transform="translate(-391.582 -188.496)" fill="none" stroke="#485070" stroke-linecap="round" stroke-miterlimit="10" stroke-width="0.75"/>
        <path id="Path_103" data-name="Path 103" d="M420.728,198.305a3.11,3.11,0,0,0-3.853-.78" transform="translate(-391.464 -188.074)" fill="none" stroke="#485070" stroke-linecap="round" stroke-miterlimit="10" stroke-width="0.75"/>
        <g id="Group_76" data-name="Group 76" transform="translate(8.071 18.426)">
          <path id="Path_104" data-name="Path 104" d="M407.172,209.9a3.138,3.138,0,1,1-1.846-4.036A3.138,3.138,0,0,1,407.172,209.9Z" transform="translate(-401.092 -205.662)" fill="#f48f8f"/>
          <path id="Path_105" data-name="Path 105" d="M405.074,207.581a1.347,1.347,0,0,0-1.975,1.168.92.92,0,0,1,1.178,1.246" transform="translate(-400.894 -205.487)" fill="none" stroke="#485070" stroke-linecap="round" stroke-linejoin="round" stroke-width="0.75"/>
        </g>
      </g>
      <g id="Group_80" data-name="Group 80" transform="translate(0 33.976)">
        <path id="Path_106" data-name="Path 106" d="M367.149,242.763A2.892,2.892,0,0,1,369,240.608c.968-.337,2.607-.341,2.929-1.314.161-.487.322-.669-.069-1a2.413,2.413,0,0,0-1.427-.5,4.255,4.255,0,0,0-3.915,2.175c-.231.426-.564.984-1.028.849a.8.8,0,0,1-.453-.488c-.548-1.282.21-2.717.943-3.9a6.617,6.617,0,0,1,2.147-2.447,6.368,6.368,0,0,1,3.6-.483c2.48.171,5.078.36,7.173,1.835.548.387,1.05.836,1.6,1.225a17.616,17.616,0,0,0,4.7,2.1q-.765,2.657-1.53,5.314a.39.39,0,0,1-.141.241.386.386,0,0,1-.293.007c-3.009-.735-6.483-1.35-9.5-1.824A22.647,22.647,0,0,0,367.149,242.763Z" transform="translate(-339.352 -218.47)" fill="#f48f8f"/>
        <path id="Path_107" data-name="Path 107" d="M382.38,234.6a19.022,19.022,0,0,0-4.1,12.35l5.8,2.313q1-4.593,2-9.188c.2-.921,1.02-2.88.5-3.641C386.013,235.62,383.313,235,382.38,234.6Z" transform="translate(-338.029 -218.356)" fill="#71716f"/>
        <path id="Path_108" data-name="Path 108" d="M402.108,241.852a41.849,41.849,0,0,0-4.992-2.622c-2.982-1.34-6.118-2.437-9.114-3.475a29.394,29.394,0,0,0-3.5-1.076c-3.261,3.478-4.406,9.386-4.013,14.339,3.438,3.013,8.472,4.8,12.262,7.168a40.686,40.686,0,0,0,6.559,3.631,11.57,11.57,0,0,0,7.348.633,4.661,4.661,0,0,0,3.045-2.283,5.334,5.334,0,0,0,.367-2.4A17.216,17.216,0,0,0,402.108,241.852Z" transform="translate(-337.817 -218.349)" fill="#5d85dd"/>
        <path id="Path_109" data-name="Path 109" d="M348.708,259.682a9.083,9.083,0,0,1-.641-7.613,3.323,3.323,0,0,1,1.87-2.114,2.929,2.929,0,0,1,3.04,1.255,14,14,0,0,1,1.488,3.165,14.741,14.741,0,0,0,1.892,3.275,8.336,8.336,0,0,1,2,3.342,3.28,3.28,0,0,1-.912,2.862C354.686,266.572,350.046,262.054,348.708,259.682Z" transform="translate(-341.063 -216.851)" fill="#f48f8f"/>
        <g id="Group_78" data-name="Group 78" transform="translate(0 20.794)">
          <path id="Path_110" data-name="Path 110" d="M380.367,259.076,363.7,267.157l-22.053-20.018,16.672-8.081Z" transform="translate(-341.642 -238.71)" fill="#f4ae2d"/>
          <path id="Path_111" data-name="Path 111" d="M377.407,258.072l-14.318,6.94-19.055-17.3,14.318-6.94Z" transform="translate(-341.406 -238.541)" fill="#fff"/>
          <path id="Path_112" data-name="Path 112" d="M360.22,244.2l-11.9,5.768-1.161-1.054,11.9-5.768Z" transform="translate(-341.098 -238.307)" fill="#c8ddf7"/>
          <path id="Path_113" data-name="Path 113" d="M365.753,249.223l-11.9,5.768-1.161-1.054,11.9-5.768Z" transform="translate(-340.552 -237.811)" fill="#c8ddf7"/>
          <path id="Path_114" data-name="Path 114" d="M367.585,250.887l-11.9,5.768-1.161-1.053,11.9-5.768Z" transform="translate(-340.371 -237.647)" fill="#c8ddf7"/>
          <path id="Path_115" data-name="Path 115" d="M369.418,252.551l-11.9,5.768-1.161-1.053,11.9-5.768Z" transform="translate(-340.191 -237.483)" fill="#c8ddf7"/>
          <path id="Path_116" data-name="Path 116" d="M371.251,254.214l-11.9,5.768-1.161-1.054,11.9-5.768Z" transform="translate(-340.01 -237.319)" fill="#c8ddf7"/>
          <path id="Path_117" data-name="Path 117" d="M373.084,255.878l-11.9,5.768-1.161-1.054,11.9-5.768Z" transform="translate(-339.829 -237.155)" fill="#c8ddf7"/>
          <path id="Path_118" data-name="Path 118" d="M357.7,242.6l-10,4.848-4.256-3.863,10-4.848Z" transform="translate(-341.465 -238.742)" fill="#485070"/>
        </g>
        <path id="Path_119" data-name="Path 119" d="M350.245,257.792a4.91,4.91,0,0,0-.455.617c-1.259,2.025,1.18,3.907,2.731,5,3.527,2.482,7.832,3.67,11.92,4.861,2.308.672,8.991-.975,7.146-4.6-1.259-2.474-4.989-3.9-7.44-4.562-2.546-.477-4.721-1.538-5.676-4.117-.424-1.147-.594-2.372-.967-3.535a1.737,1.737,0,0,0-.426-.783.663.663,0,0,0-.824-.091.912.912,0,0,0-.26.431c-.713,1.991.567,3.465-1.884,4.633-.815.388-1.707.6-2.5,1.037A4.99,4.99,0,0,0,350.245,257.792Z" transform="translate(-340.873 -216.79)" fill="#f48f8f"/>
        <path id="Path_120" data-name="Path 120" d="M361.614,255.167a19.022,19.022,0,0,0-2.746,12.719l6.016,1.675,1-9.348c.1-.937.7-2.974.1-3.674C365.336,255.791,362.585,255.469,361.614,255.167Z" transform="translate(-339.961 -216.327)" fill="#71716f"/>
        <path id="Path_121" data-name="Path 121" d="M399.05,222.355c1.18-1.059,2.875-1.255,4.454-1.4l12.218-1.138q1.155,4.085,2.309,8.172c-.032-.114-13.21.409-14.466.369-1.322-.041-5.61.389-6.162-.85C396.791,226.132,398.041,223.26,399.05,222.355Z" transform="translate(-336.157 -219.815)" fill="#71716f"/>
        <path id="Path_122" data-name="Path 122" d="M427.9,289.886c.012-4.339.256-8.672.532-13,.359-5.637.784-11.274.857-16.924a114.355,114.355,0,0,0-1.4-21c-.3-1.723-.66-3.427-1.087-5.1-.088-.344-.182-.71-.282-1.083-1.3-3.114-3.761-7.242-7.045-9.08a12.843,12.843,0,0,0-1.645.03q-5.656.377-11.265,1.246c-2.572.4-4.39.724-6.282,2.693-4.826,5.023-9.353,16.278-10.613,23.194-1.2,6.607-.733,6.985-1.421,13.649q-1.226,11.9-3.464,23.665c-1.258,6.607-3.14,13.778-8.626,17.669,9.095,3.819,18.3,7.669,28.045,9.191s20.241.5,28.53-4.843C428.831,304.159,427.883,297.085,427.9,289.886Z" transform="translate(-338.236 -219.433)" fill="#739af0"/>
        <g id="Group_79" data-name="Group 79" transform="translate(20.968 9.744)">
          <path id="Path_123" data-name="Path 123" d="M406.934,243.494a4.849,4.849,0,0,0-1.518-1.894,4.192,4.192,0,0,0-2.508-.577c-3.813.17-6.831,3.284-8.87,6.512s-3.607,6.877-6.512,9.354c-5.069,4.324-17.27.794-22.94-.467-4.318,4.224-4.778,9.107-2.538,14.8,7.6,3.339,23.595,11.262,31.894,7.311a17.318,17.318,0,0,0,6.824-6.484,53.611,53.611,0,0,0,2.772-4.891,47.432,47.432,0,0,0,4.576-11.527A18.28,18.28,0,0,0,406.934,243.494Z" transform="translate(-360.728 -227.467)" fill="#739af0"/>
          <path id="Path_124" data-name="Path 124" d="M407.937,230.985A8.036,8.036,0,0,0,398,229.918c-1.788,1.122-2.7,3.438-3.618,5.275a51.044,51.044,0,0,0-2.882,6.974c-.813,2.474-1.436,5.007-2.2,7.5-1.25,4.08-2.878,8.052-3.815,12.216s-1.142,8.634.425,12.6c2.238,5.67,9.7,2.659,13.025-.5,2.863-2.716,4.235-6.606,5.511-10.341q1.922-5.628,3.842-11.256a44.317,44.317,0,0,0,2.544-11.414C411.046,237.226,410.387,233.592,407.937,230.985Z" transform="translate(-358.357 -228.684)" fill="#739af0"/>
          <path id="Path_125" data-name="Path 125" d="M387.463,254.338a79.469,79.469,0,0,1,9.21-23.66" transform="translate(-358.09 -228.487)" fill="none" stroke="#485070" stroke-miterlimit="10" stroke-width="0.75"/>
          <path id="Path_126" data-name="Path 126" d="M410.519,245.737q-2.456,6.608-4.912,13.216c-1.176,3.165-2.292,7.209-4.522,9.82s-4.29,5.442-7.014,7.58a13.389,13.389,0,0,1-9.333,3.163" transform="translate(-358.359 -227.002)" fill="none" stroke="#485070" stroke-miterlimit="10" stroke-width="0.75"/>
          <path id="Path_127" data-name="Path 127" d="M410.141,246.8a9.259,9.259,0,0,0-3.517,3.585" transform="translate(-356.2 -226.897)" fill="none" stroke="#485070" stroke-miterlimit="10" stroke-width="0.75"/>
        </g>
        <path id="Path_128" data-name="Path 128" d="M363.285,246.252l-1.964,1.067,1-2,11.851-12.273a.673.673,0,0,1,.951-.018h0a.673.673,0,0,1,.016.951Z" transform="translate(-339.701 -218.53)" fill="#485070"/>
      </g>
    </g>
  </g>
</svg>
