<svg xmlns="http://www.w3.org/2000/svg" xmlns:xlink="http://www.w3.org/1999/xlink" width="390" height="844" viewBox="0 0 390 844">
  <defs>
    <clipPath id="clip-path">
      <rect id="Rectangle_190" data-name="Rectangle 190" width="574.129" height="378.269" fill="#fff"/>
    </clipPath>
    <clipPath id="clip-iPhone_13_12_Pro_4">
      <rect width="390" height="844"/>
    </clipPath>
  </defs>
  <g id="iPhone_13_12_Pro_4" data-name="iPhone 13, 12 Pro – 4" clip-path="url(#clip-iPhone_13_12_Pro_4)">
    <rect width="390" height="844" fill="#fff"/>
    <g id="Group_593" data-name="Group 593" transform="translate(-441.082)">
      <g id="Mask_Group_24" data-name="Mask Group 24" transform="translate(349.018 465.731)" clip-path="url(#clip-path)">
        <g id="Group_583" data-name="Group 583" transform="translate(12.162 249.834)">
          <path id="Path_9023" data-name="Path 9023" d="M14861.522,705.365a22.106,22.106,0,0,1,4.519-3.1c2.059-.91,3.11-1.114,4.33-2s2.08-1.929,2.737-2.456,1.4-1.1,1.4-1.1-.156-.479.663-.941-.271-.229,1.382-.852,2.5-.888,2.5-.888a5.959,5.959,0,0,0,2.629-1.3,10.865,10.865,0,0,1,1.956-1.478,12,12,0,0,0,2.342-1.6c.656-.624-1.592-.811,2.6-1.5s4.023-.557,5.122-1.1.209-1.362,1.735-.816,1.309.037,1.972.816-.6-1.113.886,1.1,1.586,2.145,2.317,2.107,1.353.628.522,1-.706.623-1.448,1.478-.1.065-1.392,1.3-1.483.324-2.287,1.74a25.767,25.767,0,0,0-1.591,3.965,2.178,2.178,0,0,0,0,1.332c.239.672.692.845,1.021,1.2a10.46,10.46,0,0,0,1.972,1.056s.324-1.9.886,0,.389.779.867,2.563-.484,1.355.524,2.588-.313.874,1.448,1.655a10.655,10.655,0,0,0,2.471.872s.871-.334,0-1.647a10.61,10.61,0,0,1-1.2-2.281c-.293-.632-.682-1.71-.682-1.71s-1.189-2.288,0-2.04.556-1.21,1.877.581a31.2,31.2,0,0,1,2.211,3.169,26.6,26.6,0,0,0,2.508,3.056s-1.571,1.331-1.572,1.806.092.234,4.521.663,5.18,0,5.18,0-3.4.106,2.355,0,8.77-3.047,10.5-1.6a6.424,6.424,0,0,0,2.9,1.6s-.2.059,1.355.884-.223.915,3.223,1.391a18.36,18.36,0,0,0,6.22,0c.522-.144-.3-.139,1.046,0s1.809.09,2.01.554.4-.028,0,1.052-.931,1.238-1.361,1.715-.236.2-.648,1.059-.51.75-1.046,1.176-1.312,1.195-1.312,1.195l-2.32,4.382s-.026-.057-.879.751-1.46.674-1.708,1.221.49-1.606,0,1.01-.111-.629-1.071,2.885-.284,3.5,0,5.285a12.2,12.2,0,0,0,1.071,3.318c.6,1.677.2-.461.726,2.314s1.14,3.383,1.861,3.937.595.218,1.28,1.182a5.365,5.365,0,0,0,2.353,1.488l57.028.275,1.484-.423a5.3,5.3,0,0,1,1.379-.7c.814-.271.34.379,2.2-1.363s2.1-1.091,2.164-2.479-.506-1.556,0-2.09a5.085,5.085,0,0,0,1.434-1.924c.576-1.246.915-.956,1.293-3a36.982,36.982,0,0,0,.7-3.813,7.3,7.3,0,0,1,2.816-5.213c2.379-1.734,5.2-3.336,5.571-4.006a6.846,6.846,0,0,0,.818-1.986c.181-.815.011-2.64-.818-3.3s.724-.418-2.393-1.083-1.123-.733-3.523-.733h-5.037c-1.555,0-.3.542-2.189,0a33.881,33.881,0,0,1-3.461-.983c-.334-.218.631-.891-2.445-.977s-3.566.109-4.2.977a5.307,5.307,0,0,1-2.3,2.264c-1.3.594-1.885,1.1-3.336.931s-2.676.074-2.216-.4,2.739-3.124,2.739-3.124-.03.164.73-.651,1.453-.53,1.676-1.38-2.93-5.132-2.93-5.132h-1.229c-2.355,0-5.875-.2-6.155,0s.1.94-2.091,0-2.787-1.258-2.787-1.258l-1.408-1.344s.619-.8-3.137-.854-5.818-.43-6.433,0a5.821,5.821,0,0,1-2.56.854c-.47-.061.089.114-.973,0s-.543-.928-1.871,0-1.285.6-1.648,1.344-.029.815-.75.891-1.113.873-.883,0,.209-.693.414-1.62.043-1.176-.414-.615a10.634,10.634,0,0,1-.967,1.028s-3,1.127-3.785,1.573-.624-.04-1.506.956-.627.754-1.22,1.383-.576,1.017-1.227,1.254a2.743,2.743,0,0,1-1.468,0,3.727,3.727,0,0,0-1.308,0c-.268.15-.8.008-1.2,0a4.681,4.681,0,0,0-.895,0c-1.145.026-.08-.435-2.088,0a13.712,13.712,0,0,0-2.755.8,2.027,2.027,0,0,1-.484-1.117,4.094,4.094,0,0,1,0-1.83c.095-.477-.165-1.34.484-1.448s1.087.077,1.149-.367a3.656,3.656,0,0,0,0-.891s-2.467-.3-3.5-.315a9.554,9.554,0,0,0-2.636.315c-.613.182-2.268,1.915-1.312,0a7.559,7.559,0,0,1,2.151-2.6c.181-.3,1.8-2.46,1.8-2.46s1.13-.818-.329-.876-2.107-.393-2.307,0-.012.44-.523.876-1.643,1.145-2.145,1.577-.439.726-.918.883-3.127,1.26-3.127,1.26l-3.525,2.235s-.77.63-1.248,0a7.845,7.845,0,0,1-1.056-1.62c-.238-.552.056-3.069,0-3.516s2.3-4.942,2.3-4.942a9.327,9.327,0,0,0,2.418-.869,19.187,19.187,0,0,1,2.248-1.166c.506-.275,3.2-.917,3.869-1.18s.221-.559,2.542-.734,2.4-.235,2.779-.379.87-1.127,1.363-1.615a2.74,2.74,0,0,1,1.836-1.089,32.244,32.244,0,0,1,4.368-1.193c.736,0,.1-.481,1.5,0s1.525-.2,1.472,1.193-1.895,2.048,0,2.111,2.427.006,2.582-.342a6.646,6.646,0,0,0,0-1.769l.4-4.924,11.41-6.965a11.481,11.481,0,0,0,.973-1.364c.519-.841-.112-.788,1.02-1.449s1.41-1.223,2.6-1.433,6.387-4.083,6.387-4.083h1.538l3.451-3.714h3.9a2.364,2.364,0,0,1,1.465-.98c.97-.182-.525.083,1.555,0a12.034,12.034,0,0,0,4.4-1.325,22.788,22.788,0,0,0,2.406-.823c.323-.218,2.612-.488,0-.488s-2.047.153-2.93,0a6.173,6.173,0,0,1-2.216-1.539s-3.5-.156-.973-.8,1.315-1.063,3.712-.953a25.466,25.466,0,0,1,3.193.358c.581.017,2.693-2.422,3.136-2.531s2.212-.525,2.448-.57-.756.462.537,0,.4-.129,0,.57-.917.834-1.211,1.258a.858.858,0,0,0,.674,1.272,10.958,10.958,0,0,0,2.665,0c.8-.141-.972.436,1.072-.358a25.775,25.775,0,0,1,4.274-1.538c.3.089,1.854-.043-.518-1.2s-2.18-2.274-2.18-2.274-1.615-1.58-2.332-1.58a4.923,4.923,0,0,1-2.06,0c-2.271-.2-3.286-.167-3.371-.395s-1.325-.645-1.691-1.282,1.608-1.145-.847-.817-4.4,2.1-4.67,2.1.756-.484-.873,0a3.294,3.294,0,0,1-2.648,0c-.252-.148,1.127-.45-.98-.484s-1.623-1.079-2.039-.8-.431-.371-1.2,0-.8.825-1.383.8a23.6,23.6,0,0,0-3.4.879s1.05.155-.792,1.58-.111-1.013-2.119,2.274-1.632,3.031-3.359,4.5-3.222,1.953-3.4,2.409-.052-.083-.687.442a2.293,2.293,0,0,1-1.54.7c-.5,0,6,.425-1.992,0s-6.516-.954-8.649-.7-3.641.322-3.98,0-1.56-.82-.5-1.692a20.2,20.2,0,0,0,2.26-1.959c.922-.948,2.369-2.885,3.241-3.126s-.261-.464,2.476-.57,1.9.573,4.369,0,2.642-.447,3.307-.762a10.632,10.632,0,0,0,1.7-.785,9.374,9.374,0,0,1,1.322-.727v-1.174a7.084,7.084,0,0,0-.945-.406c-.48-.16,1.33-.381-1.063-.395s-3.067-.013-3.532,0,.85-.262-1.871,0-1.119-.5-3.281.395-2.3.393-3.5,1.58a7.011,7.011,0,0,1-2.761,1.883c-1.582.8-2.754,1.481-4.456,2.22s-3.072.9-3.507,1.272a1.672,1.672,0,0,1-1.046.6c-.656.158,1.595-.263-1.312.388s-8.8,4.1-9.485,3.966a10.8,10.8,0,0,0-3.619,0c-.795.273-.715-.441-2.082.622a28.263,28.263,0,0,1-3.117,2.032s-.524.947-3.01,1.38-3.329.526-3.329.526h-.6l-5.18,1.493a5.2,5.2,0,0,0-2.486,1.364,22.911,22.911,0,0,1-2.035,1.982s.893.04-.936.856a8.044,8.044,0,0,0-2.211,1.228s-1.539.641-2.785,1.313-2.064,1.227-2.064,1.227c-.371.185-2.625.723-2.625.723a6.476,6.476,0,0,1-1.714.555s-.27-1.111-2.734,0-5.454,2.6-5.454,2.6c-.555.278-9.654,4.536-9.68,4.837s.037.009-.619.83a21.358,21.358,0,0,1-3.818,2.538,17.166,17.166,0,0,0-2.383,2.507c-.932,1.278-1.4,1.131-1.91,2.02s-.012.065-.889,1.1-.747.05-1.828,1.543-1.031,1.838-.715,1.717a1.279,1.279,0,0,1,.715,0l.932-.8s-1.627.255-1.646.8-.576,1.087-1.234,1.7-.486.384-.973.818A3.828,3.828,0,0,0,14861.522,705.365Z" transform="translate(-14861.522 -619.989)" fill="#edffff" stroke="#151515" stroke-linecap="round" stroke-linejoin="round" stroke-width="2"/>
          <path id="Path_9024" data-name="Path 9024" d="M15057.541,762.111s-.291.388.445,0,.689-.771,2.248-.95.25.2,1.846,0a15.864,15.864,0,0,1,3.115,0c.537-.013.25,1.11.521.95s.071.467,1.349,0,3.286-.094,3.558-.95.466-.871.466-1.18.72-1.16-.466-1.114-.332-.479-2.316,0-.445.406-2.59.479-3.074-.054-3.637,0,2.342-.636-1.215,0-3.959.181-4.375,1.114,0,1.139,0,1.139Z" transform="translate(-14974.438 -682.067)" fill="#edffff" stroke="#151515" stroke-linecap="round" stroke-linejoin="round" stroke-width="2"/>
          <path id="Path_9025" data-name="Path 9025" d="M15093.824,762.418s-.327.108.676,0a5.952,5.952,0,0,0,1.852-.492,3.481,3.481,0,0,1,1.408-.349,6.033,6.033,0,0,0,1.244-.154c.51-.115.356-.119,1.337-.386a8.6,8.6,0,0,0,1.249-.358c.76-.271.963-.309.855-.451s.125-.385-.625-.385a12.988,12.988,0,0,0-1.8,0c-.727.083-.638-.177-1.65,0s-1.129-.067-2.016.385-.747.187-1.414.621-.744.361-.818.574a2.837,2.837,0,0,1-.295.5A.479.479,0,0,0,15093.824,762.418Z" transform="translate(-14996.148 -682.714)" fill="#edffff" stroke="#151515" stroke-linecap="round" stroke-linejoin="round" stroke-width="2"/>
          <path id="Path_9026" data-name="Path 9026" d="M15096.184,754.583a.967.967,0,0,1,.649,0,3.692,3.692,0,0,0,1.249,0s.01-.311,0-.67a1.08,1.08,0,0,0-.214-.731c-.118-.1.261.021-.257-.216s-.253-.513-.778-.426-1.144.3-1.153.642a4.51,4.51,0,0,0,.336,1.17Z" transform="translate(-14997.264 -678.507)" fill="#edffff" stroke="#151515" stroke-linecap="round" stroke-linejoin="round" stroke-width="2"/>
          <path id="Path_9027" data-name="Path 9027" d="M15120.436,758.93l.645-.3h0c.988-.385,2.154-.068,1.276-.5s-1.108-.512-1.276-.461-.652-.272-.645,0-.072.3-.318.461S15120.436,758.93,15120.436,758.93Z" transform="translate(-15011.394 -681.425)" fill="#edffff" stroke="#151515" stroke-linecap="round" stroke-linejoin="round" stroke-width="2"/>
          <path id="Path_9028" data-name="Path 9028" d="M15006.479,671.078s.5-.175,1.515-.453a22.536,22.536,0,0,0,2.431-.66,2.251,2.251,0,0,1,.807-.554c.506-.2-.862-.177,1.257-.445s2.346.163,2.711,0,1.465-.221,1.936-.461a15.461,15.461,0,0,0,1.721-.886,4.889,4.889,0,0,1,1.774-.96c.821-.2.868,0,1.483-.4a13.8,13.8,0,0,1,1.334-.746l3.049-.721,1.186-.336c.264-.075.135.133.816-.347s1.246-.663,1.6-.956.678-.439.391-.725-.205-.853-.973-.741a6.977,6.977,0,0,0-1.834.741c-.646.265-.846.429-1.7.725s-1.506.8-2.23.956a6.212,6.212,0,0,0-2.758.683c-.91.651-.619.167-1.533.721s-1.059.937-1.405.746a2.3,2.3,0,0,0-1.169,0s-.8.635-.252-.35-.643-1.191,1.421-1.453,1.958-.069,2.572-.347a6.712,6.712,0,0,0,1.483-.592,21.689,21.689,0,0,1,3.467-1.338c1.355-.465,4.06-.941,3.936-1.324s-.447-1.26-1.018-1.217-.76-.39-2,.52.4.458-1.932,1.252-2.579.874-4.433,1.4-3.134.863-3.74,1.028-.64.2-.854.271a3.981,3.981,0,0,0-.786.683s.219-.11-.333.276a5.434,5.434,0,0,0-1.036.841c-.393.4-.222.423-.895.754a12.324,12.324,0,0,0-2.063.96c-1.14.7-.833.344-1.754.886s-1.585.742-1.849,1.159.692.034-.343.57a3.438,3.438,0,0,0-1.229.844Z" transform="translate(-14944.842 -624.62)" fill="#edffff" stroke="#151515" stroke-linecap="round" stroke-linejoin="round" stroke-width="2"/>
          <path id="Path_9029" data-name="Path 9029" d="M15069.8,654.637s1.293-.124,1.659-.2.318.094.923-.336.365-.7,1.205-.843a5.306,5.306,0,0,0,1.671-.388c.835-.335,1.154-.294,1.224-.7s-.189-.541,0-.96,0-.854,0-1.238.342-.5,0-.561-.234-.454-1.5,0-1.166-.077-2.256.561a10.457,10.457,0,0,1-1.93.906,13.916,13.916,0,0,0-2.187,1.292c-.412.193-.787.632-.627.7s.221-.118.872,0a3.052,3.052,0,0,0,1.227,0,5.953,5.953,0,0,0,1.375-.351c.2-.088.923-.345.923-.345a2.949,2.949,0,0,1-.659.7c-.265.135-.845.093-.923.388s.37.124-.44.5S15069.8,654.637,15069.8,654.637Z" transform="translate(-14981.185 -618.607)" fill="#edffff" stroke="#151515" stroke-linecap="round" stroke-linejoin="round" stroke-width="2"/>
          <path id="Path_9030" data-name="Path 9030" d="M15251.271,587.313a53.016,53.016,0,0,1-5.348,1.582,37.747,37.747,0,0,1-3.846.638c-.913.109-.076-.935-1.836,0a13.4,13.4,0,0,1-3.331,1.505c-1.577.488-.424.145-2.841.869s-.788.1-3.15.9-3.254.762-4.506,1.4.576.13-3.769,1.689-6.28,1.979-6.77,2.312a10.89,10.89,0,0,1-1.323.879,5.145,5.145,0,0,1-2.846.961c-1.443.167,1.355-.866-3.242,0s-5.428,1.695-5.473,0-.481-2.315,0-2.856.369.515,1.125-1.3.037-1.276,0-1.689-.834-.358-1.125-.558.057-1.024-.906-.841a10.442,10.442,0,0,1-2.938,0c-.435-.09,2.382-.694-2.7,0a52.512,52.512,0,0,0-9.1,2.137c-.526.118,3.012.946-2.249.95s-6.312,1.092-4.883,0,2.488-2.139,3.107-2.247a19.421,19.421,0,0,0,3.3-.841c2.629-.782.343.511,6.428-1.765s5.129-2.21,8.314-2.947-.414,1.216,4.889-.778,5.758-2.171,7.365-2.663a19.384,19.384,0,0,1,5.436-1.384c3.433-.426,1.452-.083,4.824-.5a43.65,43.65,0,0,0,7.043-1.163c1.148-.42-.229-.187,4.461-1.063s8.242-1.476,9.5-1.6-1.046.684,2.682,0,7.086-1.28,9.036-1.459,4.663-.746,5.919-.746,3.089.111,4.653,0,.6.167,2.37,0,3.8-.624,2.754,0a65.3,65.3,0,0,1-7.166,2.765,34.9,34.9,0,0,1-4.742.562s.2-.287-.649,0-1.405.48-1.405.48.407.257,1.405,1.063.664,1.418,0,1.659a2.455,2.455,0,0,1-1.405,0,4.032,4.032,0,0,0-1.733,0c-.485.24-1.84-.337-2.228,0s-2.172.312-3.1.68-1.975.5-2.432.7a2.508,2.508,0,0,1-1.277,0s-.937.143,0,.934A16.7,16.7,0,0,0,15251.271,587.313Z" transform="translate(-15045.934 -576.42)" fill="#edffff" stroke="#151515" stroke-linecap="round" stroke-linejoin="round" stroke-width="2"/>
          <path id="Path_9031" data-name="Path 9031" d="M15120.979,623.847s.732-.018,1.413,0-1.63-.027,1.261,0,1.241,1.09,4.41,0,3.107-1.021,3.639-1.273,2.108-.929,2.108-.929,1.618-.349,0-.611-1.854,0-2.108-.547-1.08-.937,0-1.028,1.5.423,2.649,0,3.231-.216,4.022-.643,3-.056,1.285-.939-.771-1.027-3.172-.984-.512-.025-3.242,0-2.562-.094-4.383,0-.671-.18-3.739,0a8.779,8.779,0,0,1-4.569-.681s.037-.181,1.1-.783a14.793,14.793,0,0,1,2.868-1.332,14.526,14.526,0,0,0,3.542-1.549c.646-.552.421-.666,1.3-1.1s2.68-1.25,3.345-1.584.333-.288,1.1-.719a25.78,25.78,0,0,1,5.023-1.241c2.253-.455,1.608-.152,3.013-.8s2.3-.842,3.41-1.343,2.588-.822,1.564-.863-1.066-.77-2.583,0-3.053,1.893-4.579,2.206-3.479.094-5.308.8a15.464,15.464,0,0,1-3.64,1.241c-2.18.491-1.824-.153-3.917.719s-3.517.821-6.241,2.082-2.725,1.42-3.645,1.714-3.264.862-4.113,1.176-.186-.28-1.682.6-1.487,1.494-2.172,1.465-.059-.841-1.655,0-1.783.234-2.763.984-1.248.357-1.936.939-1.471.078-1.193.643a2.552,2.552,0,0,0,2.149,1.028c.551-.177,1.046.291,1.564,0a3.806,3.806,0,0,1,.972-.386s-.348.476-2.536.932-4.845.355-5.171.611-.078-.358-.774.929-.771,1.06,0,1.273.987-.213,1.476,0,.167-.085,1.152,0a8.848,8.848,0,0,0,1.566,0c.391,0,.074-.513.795-.729s1.42.523.956.729-1.273.345-.956.578a1.153,1.153,0,0,0,.956.319c.624.018-.935.955,1.564,0s2.155.06,1.723.5-4.521.543-.751,1.118,3.352-.555,3.352-.555v-.563a3.342,3.342,0,0,1,.607-.5c.285-.163.1.188.616-.319a6.589,6.589,0,0,1,1.5-.969s-.5-.876,0-.882a18.618,18.618,0,0,0,2.486-.615s-.628-.51.521-.924.2-.394,1.751-.547a5.382,5.382,0,0,0,1.919-.386,1.441,1.441,0,0,0,1.241.386c.685-.17,1.022-.592,1.965-.386s1.619.386,1.619.386-.072.022-.415.547a2.93,2.93,0,0,1-1.585.924c-.269.034-.867.724-1.584.615s-.5-.594-1.241,0a4.883,4.883,0,0,1-1.548.882c-.635.282-.056-.02-1.18.391s-1.387-.3-2.334.9-.5,1.4-.971,1.619.54,0,.54,0,.919-1.167,1.3-1.118-.873-.336.99-.5,1.951-.368,2.211-.319a1.121,1.121,0,0,0,.989,0A18.584,18.584,0,0,1,15120.979,623.847Z" transform="translate(-14998.057 -592.722)" fill="#edffff" stroke="#151515" stroke-linecap="round" stroke-linejoin="round" stroke-width="2"/>
          <path id="Path_9032" data-name="Path 9032" d="M15352.161,608.961s-.412-.078.31,0,.968-.061,2.352,0a11.006,11.006,0,0,0,3.4,0c1.873-.286,2.742-.233,3.139-.589s-.447-.342.94-.609a12.228,12.228,0,0,0,2.54-.62c.434-.212,2.1-.469.691-.754s-.1-.548-2.045-.285a20.3,20.3,0,0,0-3.407.522,10.86,10.86,0,0,1-2.571.516,12.967,12.967,0,0,1-2.684.324c-1.385.032-1.957-.273-2.352,0a1.357,1.357,0,0,0-.689.905C15351.725,608.748,15352.161,608.961,15352.161,608.961Z" transform="translate(-15145.723 -593.565)" fill="#edffff" stroke="#151515" stroke-linecap="round" stroke-linejoin="round" stroke-width="2"/>
          <path id="Path_9033" data-name="Path 9033" d="M15395.533,663.253a3.874,3.874,0,0,1,0,1.456,6.456,6.456,0,0,0-.31,1.632,10.525,10.525,0,0,0,0,2.828c.222.5-1.52-.493.592,1.461s2.215,1.123,4.151,3.235,1.6,2.716,2.256,3.971-.165-1.365.844,1.529.795,6.2.487,6.691-1.022.628-1.331,1.566-.836,1.467-1.021,2.072a1.077,1.077,0,0,0,0,.879l-.855,4.177c0,.066-.436.289.484,1.454s.506-.786,1.393,1.882,1.331,3.952,1.331,3.952l.636.822c.265.663,1.047,1.487,1.008,2.1s-.211-.019,0,1.437a12.721,12.721,0,0,0,.461,2.235c.088.279.23.547.441,1.218s.7,2.382.7,2.382l.38.9h38.709v-2.742s-.861-.49,2.369-1.76,4.39-1.367,3.816-3.671-1.311-4.84-1.311-4.84-1.771-.965-.652-2.029a6.1,6.1,0,0,1,1.963-1.382c.371-.195,5.075-1.948,5.477-1.954s.638.8,1.332,0,1.264-.644,2.217-2.06a5.913,5.913,0,0,0,1.035-2.117c.174-.424-.492.673,0-.879s.653-1.434.493-2.612.287-.811-.493-2.3-1.406-1.983-1.848-3.334-.332-1.319-.645-2.087a11.586,11.586,0,0,1,0-3.337l2.492-5.4s-1.662,1.979,1.226,0,5.511-3.925,7.093-4.807,3.451-1.547,3.923-1.938a21.032,21.032,0,0,0,2.411-1.883c.5-.6-.007-.891,1.421-2.288a9.3,9.3,0,0,0,2.136-3.256,12.007,12.007,0,0,0,.854-1.991,6.313,6.313,0,0,0,0-1.54s-9.633,1.157-10.744.875-7.093-3.539-7.093-3.539a45.015,45.015,0,0,1-3.718-2.828c-.188-.345,1.169-.467-.76-1.439s-2.412-1.263-3.271-1.652-.643.022-1.487-.954a80.146,80.146,0,0,1-3.913-7.173s-.844-.574-1.635-1.236-1.519-1.232-2.261-1.82a12.692,12.692,0,0,1-2.03-1.659c-.885-.934-1.011-.877-.977-1.178s2.262-.4,2.614-.4.189-.554,1.415,0,1.111.266,1.584.821a17.7,17.7,0,0,0,1.869,2.08c1.13,1.077,2.072,1.935,2.311,2.152s-.855-.393.375.649a5.207,5.207,0,0,0,2.135,1.134c.607.314.8-.468,1.523.66s.971.737,1.748,2.07.652,1.668,1.155,1.96a11.155,11.155,0,0,1,2.1,1.053c.878.659.335.237,1.226.882s-.335-3.049,1.263.954,1.428,3.84,1.627,4.243-.514.389.98.687,14.461-1.839,14.461-1.839l11.525-3.091,3.227-3.812-7.045-4.315-5.727,1.207h-3.328l-7.172-6.675s-1.006-1.9,1.2-1.874,2.362.817,4.267,1.874a38.532,38.532,0,0,0,3.836,1.605,11.943,11.943,0,0,0,1.975.807c.531.2,2.494.462,3.026.675s-.409.846,1.919,1.144a13.81,13.81,0,0,1,3.154.649,3.562,3.562,0,0,1,1.174,0,1.725,1.725,0,0,0,.84,0,52.956,52.956,0,0,0,5.711,1.794c.65-.032,2.673,0,2.673,0h.845c3.537-1,3.022-1.224,4.229-.66s4.06,2.184,4.363,2.73a4.667,4.667,0,0,0,.858,1.037l4,2.143s-1.33-.566.465.687.457,1.432,2.469,1.239,2.368-.247,2.71.461a13.961,13.961,0,0,1,.853,2.372c.071.4-.272.768,0,.983a44.611,44.611,0,0,1,3.568,4.509,3.443,3.443,0,0,0,.945,1.54c.707.843,1.3-.167,2.457,2.247a10.077,10.077,0,0,0,2.078,3.257c.271.285.359.025,1.231.721a5.775,5.775,0,0,0,1.707.953s1.022-.107,1.108-.309.286-1.8.449-2.22.437-1.036.6-1.608-.238-.094,0-.793-.252-1.618,0-2.247a3.182,3.182,0,0,0,.251-1.065s-.507.178.423-.475a9.946,9.946,0,0,1,2.561-1.108c.2-.067-.8.042.9-.308a29.393,29.393,0,0,0,5.117-2.127s.095.12.693-.358,1.66-1.156,1.66-1.156-2.236-.677,1.04-.435,6.469.435,6.469.435-1.535-.546.4.548,1.988,1.146,2.251,1.444,3.51,2.318,3.51,2.318.173-.193.4.4.868,1.632,1.02,2.245a1.565,1.565,0,0,1,0,.95s2.976-.3,3.192,0,1.573.117,2.118.377.775-1.682,1.607.841.628,2.994,1.232,3.7a7.138,7.138,0,0,1,.973,1.853c.254.473,1.03,0,1.03,0s.271,1.443.284,1.793,0,1.21,0,1.21l1.8,3.484s-.543-.977.8,1.109,1.564,2.094,3.459,3.382a7.542,7.542,0,0,1,2.045,1.657,7.921,7.921,0,0,1,1.123,1.126c.327.45-.488-.051.826.95s1.131,1.029,1.693,1.327a8.467,8.467,0,0,0,1.467.534l-1.182-2.811a5.233,5.233,0,0,0-.881-1.126c-.334-.224-.654-.784-1.1-1.14s-1.88-1.411-2.344-1.823a4.673,4.673,0,0,1-.725-.86,4.628,4.628,0,0,0-1.3-1.216,11.907,11.907,0,0,1-1.25-.734,2.386,2.386,0,0,1-.975-.787c-.6-.684-.766-.573-.859-.9s-.207.655-.435-1.014a16.3,16.3,0,0,1-.362-2.363c.1-.067.492-1.436.8-1.472s-2.262-1.384,1.155,0,3.853,1.221,3.954,1.472-.158.066.395.49,1.106.688,1.555,1.072,1.147,1.6,1.492,1.816-.41-.528.881.586.65.983,1.548,1.106a15,15,0,0,0,3.228-.375s1.4-1.152,1.65-1.317.506-.4.506-.681-.564-.994-.789-1.486a13.356,13.356,0,0,0-.779-1.693,23.116,23.116,0,0,0-1.922-2.21c-.344-.316-.568-.757-1.078-.953a9.705,9.705,0,0,1-2.363-1.925c-.01-.2-.77-.633-.881-.98s-.439-.131-.582-.8-.654-2.1,1.463-2.167,12.928.95,14.563.95,7.483-1.937,6.117-4.263-4-6.2-4-6.2-.962-.541-1.278-.679-.825-.325-.837-.574-2.37-1.069-.729-1.337,1.162-.867.284-1.177a6.324,6.324,0,0,0-1.222-.37c-.293-.056-.485.143-.734,0a10.254,10.254,0,0,0-1.186-.335,5.462,5.462,0,0,1-.779-.517v-1.979s-.193.072.477,0,3.444,0,3.444,0,.276-.746.834,0-.834.433,1.11,1.195a10.478,10.478,0,0,0,3.291.785s-.177.192.656.852a14.41,14.41,0,0,1,1.838,1.9c.927.989.994,1.493,1.586,1.557s.781-.194,1.514.4.313.016.936.764.5.822.887.924a3.165,3.165,0,0,0,1.021,0s-.2-.372.646,0,1.03,0,1.03,0-.344-1.52-1.03-1.687-.4.187-1.136-.4-1.006-1.533-1.418-1.557-.953.132-.936-.354,0-.887,0-.887-.994.213.627-.29,3.073-1.321,3.357-1.222-.127.186.535,0a1.8,1.8,0,0,1,1.788.517c.271.417-.1-.272,1.082.335s3.466-.87,3.8-.852.981-.566,1.262-.785.524-.449.488-.663-.488-1.623-.488-1.623v-1.533l-1.262-1.8s-1.966-.762-2.671-.941-.387-.238-1.128-.362-.065.442-1.518-.465a11.572,11.572,0,0,0-2.383-1.15c-.231-.13-1.058-.418-1.136-.73s1.041-.609,1.631-.673-.857.214,1.006,0,5.782-.262,6.2,0-2.257-.311,1.262.673a20.915,20.915,0,0,1,4.207,1.415c.4.169,6.725,2,7.081,2.231a8.74,8.74,0,0,0,1.88.559,3.527,3.527,0,0,0,1.4.309c1.391.165.763-.224,2.051,0a9.459,9.459,0,0,1,1.845.311,5.709,5.709,0,0,1,1.444.625,29.113,29.113,0,0,0,3.359,1.038.776.776,0,0,1,.832,0,4.539,4.539,0,0,1,.68.5,5.432,5.432,0,0,1-1.512.718,4.3,4.3,0,0,1-1.725.374c-1.221.04-1.527-.173-2.082,0s-1.217,0-1,.531-.238-1.869,1,.663.85,2.126,1.627,2.854a7.112,7.112,0,0,0,1.783,1.162s-2.879.079.4,0,3.531-.478,3.531-.478-.064-1.146-.3-1.241-.11-.074-.891-1-3.252-1.423-.827-1.3,1.642-.534,2.705,0,2.36,1.124,2.721,1.3.7.335.7.335l7.062,2.379s-.282-.756.79,0-.553-.932,1.409.506,3.1,2.28,3,1.736-2.178-2.242-2.178-2.242-2.285-.848,0-.478,7.008,3.1,7.231,3.353-.083-.392.665.29.359.395,1.787,1.112a7.994,7.994,0,0,0,2.021.8.853.853,0,0,0-.448-.8,10.1,10.1,0,0,1-1.573-1.4c-.5-.492,1.052.36-1.787-1.1s-2.828-1.772-3.117-1.772a26.209,26.209,0,0,1-4.408-1.719,4.14,4.14,0,0,0-.749-.66c-.376-.266-.374-.257-1.329-.852s-1.987-1.835-2.83-1.979-2.3-.993-2.979-1.092a10.007,10.007,0,0,1-3.268-1.043l-1.436-1.114s.019.191-.7-.311-3.061-.636-3.289-.867-2.143-.6-2.576-.941.169-.361-1.115-.827-.852-.076-1.627-.464-1.41-.632-2.02-.979a15.153,15.153,0,0,1-2.263-1.109c-1.424-.89-2.938-1.658-2.938-1.658-.068-.068-2.557-.784-2.557-.784l-.884-.647c-.205-.137-1.722-.862-1.722-.862-.137-.068-1.936-1.01-1.936-1.01-.137-.068.938.214-2.457-1.121a24.967,24.967,0,0,0-3.944-1.386l-3.8-.6-4.247-2.349c-.069-.068.139-.345-1.646-1.373s-1.336-.745-2.512-1.449,1.391.354-2.372-1.532-4.563-1.866-4.882-1.922.285.809.684.951a15.462,15.462,0,0,1,1.992.971c.3.212.012.505,1.326.967a4.66,4.66,0,0,1,1.694.864s.224.493-.526.493.3.229-1.168,0a7.289,7.289,0,0,1-2.329-.493,13.863,13.863,0,0,0-2.288-.576l-2.229-.726s.565-.445-2.342-1.5a20.969,20.969,0,0,1-3.424-1.414c-.137-.137-.38-.033-1.168-.305s-1.537-.514-1.537-.514l-1.922-1-1.078-.784s2.871.212-1.036,0-4.382-.532-4.382-.532a5.948,5.948,0,0,0-1.326-1.1c-.922-.615,1.309-.477-1.957-1.11a30.33,30.33,0,0,0-3.639-.613h-.558l-1.237-.6-.848-.426c-.205-.205-.277-.448-1.449-.636s-1.479,0-1.479,0h-1.607c-1.818-.979-3.023-1.71-3.023-1.71-.068-.068-1.626-.889-1.626-.889-.547-.205-1.681-.821-1.681-.821h0c-4.434-1.414-4.635-1.567-4.635-1.567a19.273,19.273,0,0,0-1.527-1.177s-.544-.921-2.072-.51a19.329,19.329,0,0,1-2.328.51l-3.8-1.18a3.458,3.458,0,0,0-1.916-.854c-1.241-.15-.689.446-1.525,0a11.54,11.54,0,0,0-2.822-.961,9.723,9.723,0,0,0-3.337-.493c-1.122.041-1.222.012-2.269,0s.846.418-1.791,0a25.3,25.3,0,0,0-3.838-.4l-1.33.4-7.472-.8a5.081,5.081,0,0,0-1.247,0,6.477,6.477,0,0,0-1.463.406h0a6.081,6.081,0,0,1-2.593,0l-2.79-1.317c-.273-.137,0,.912,0,.912a10.052,10.052,0,0,1-1.546.406,3.234,3.234,0,0,0-.858,0l-2.757-.818c-.205-.137-1.833-.957-1.606-.5a12.136,12.136,0,0,0,1.606,1.716s.139-.617-.352.493a5.4,5.4,0,0,0-.513,1.815,3.069,3.069,0,0,1-1.381.356c-.457-.1-1.594.567-.658-.356s.567-.93.658-1.172a1.429,1.429,0,0,0,0-.643,6.963,6.963,0,0,1-.658-.493c-.015-.051-1.021-1.716-1.021-1.716a1.291,1.291,0,0,0-.58-.61c-.4-.178-.756-.344-.756-.344l-1.419.344h0a7.076,7.076,0,0,0-2.31-.344s-.35-.44-1.189,0a17.988,17.988,0,0,0-1.588.955,1.242,1.242,0,0,0,.715.5c.5.138,0,.818,0,.818l-.715.4h-1.42l-2.229-1.216-5.289-1.11a16.161,16.161,0,0,0-2.181.61c-.544.258,4.2.537-1.405.5s-5.641.113-5.984,0,.314-.442-1.147-.5-.45.083-2.233,0a36.748,36.748,0,0,0-3.976,0c-.79.055-.187-.222-1.546,0a15.949,15.949,0,0,1-3.223.5c-1.887.081-1.693-.322-3.4,0s-.52.5-2.209.412a5.777,5.777,0,0,0-1.975,0,10.7,10.7,0,0,0-3.164.406,3.86,3.86,0,0,1-1.648.4,20.069,20.069,0,0,1-4.039.493c-2.576.039-3.338.353-3.453,0s-1.795-.889-2.543-1.3-1.4-.073-1.486-.412-3.109-1.269,0-1.11,2.988-.159,4.029,0a13.2,13.2,0,0,0,2.306,0c.868.025-.136.541,2.233,0a21.791,21.791,0,0,0,2.953-.794s.148.292-2.953,0-3.875-.6-4.539-.623-1.415,0-1.415,0-.7-.244-1.638-.513,2.078-.524-2.736-.962-6.053,0-6.053,0h-2.633s.174-1.647-2.656-1.378a17.266,17.266,0,0,1-4.289,0s-4.418,1.618-5.059,1.378a8.828,8.828,0,0,0-3.665,0,1.289,1.289,0,0,1-1.11,0l-1.723,1.475a8.339,8.339,0,0,1-2.328.623,15.442,15.442,0,0,0-3.008.794,26.05,26.05,0,0,1-2.6.61c-.67.067-1.494.015-1.7.5a2.206,2.206,0,0,0,0,1.216s-2.269.437-2.915.493.676-.585-1.4,0-.754.036-2.951.643a13.719,13.719,0,0,0-3.13,1.172v1.824s-.909-.537.6,0a9.022,9.022,0,0,0,2.53.561h.842l1.444-.561,2.575-.571h.861l3.73,2.635h5.59a4.438,4.438,0,0,0,1.4-.765c.441-.444,1.246-1.3,1.246-1.3s-.121.1,0-.571a7.138,7.138,0,0,1,.936-1.854s-4.283-.428,0-1.213,3.8-.837,4.775-1.3a8.474,8.474,0,0,0,1.541-.912s-.982-.519,0-.61.923-.727,1.775-.344a28.931,28.931,0,0,0,3.416.955s-.935,1.173-1.674,1.317-.908.1-1.281.4-.083-.571-1.135.493-.857.558-.534,1.213.407,1.042,1.208.958.221-.487,1.742-.356.766-.264,3.477,0,4.178.568,5.067.356,1.983-.356,1.983-.356l-.949,1.252h-8.383a9.118,9.118,0,0,1-.627,1.133c-.39.6.746.3-.568.737s1.029.378-1.742.765-2.41.848-3.316,1.1-.268-.519-1.4,0a18.677,18.677,0,0,1-3.375.707c-.141.106-2.424.4-2.873.489s-6.3,0-6.3,0a10.729,10.729,0,0,1-2.186,0c-.113-.149-1.057-.053-1.545,0a10.988,10.988,0,0,1-1.37,0v-1.2a.892.892,0,0,0-.849-1.1c-1.035-.06-2.662,0-2.662,0s1.688,1.309.806,1.8-4.034.843-4.777,1.2-1.339.675-1.339.675l-4.626,1.7h0s.622.37-.443.616-2.438.622-2.438.622.473-.666-.766,0a6.373,6.373,0,0,1-1.864.834c-.575.151,2.8-.476-1.564.5s-5.049,1.142-5.049,1.142l2.065.78s.021.238.688.845.787-.272.49,1.025-.438,2.213-3.243,2.6a36.187,36.187,0,0,1-6.785,0l-1.437.484s1.064-.561-.58,0-2.041.716-2.041.716-1.021.849-1.078,1.388.514,1.244,0,1.642-3.355-.491-1.2.795a11.635,11.635,0,0,0,3.249,1.494s.349-.027,1.649,0a9.388,9.388,0,0,0,2.508,0c1.831-.192,4.178-1.5,4.8-1.494s2.307.647,2.977,0-.174-.021,1.178-.795,2.584-1.642,2.584-1.642,5.863-1.073,5.854-1.388a4.523,4.523,0,0,1,.443-1.2s-1.024-.714,0-.874,3.147.16,3.616,0-1.542.818,1.01,0a40.909,40.909,0,0,0,4.469-1.724s-.711-1.976,1.647,0,.216,1.783,2.705,2.6a33.593,33.593,0,0,0,4.618,1.2,9.013,9.013,0,0,0,2.6,0l2.373.74a6.263,6.263,0,0,1,.635,1.5c0,.348,1.115.516,1.178,0s1.754-1.106-.711-2.242-4.963-1.757-5.59-2.073-.715-.646-1.392-.943a4.231,4.231,0,0,1-1.335-1.247s-.9-.178,1.335-.559,4.667,1.76,5.88,1.806,1.207.743,2.963.943,1.074-.683,2.833.874,2.562.851,3.665,1.94.838-.169,1.541,1.5.988,2.117,2.236,1.583a17.2,17.2,0,0,1,3.718-.795l-2.437-2.289s-1.756-.739,0-.74a18.369,18.369,0,0,0,2.437,0,20.27,20.27,0,0,0,4.509-.716s-.311.772.64-.484-1.455-2.759.959-3.063a14.9,14.9,0,0,0,3.026-.559c.539-.129,1.352-.926,1.82-.845a5.016,5.016,0,0,0,2.24,0c1.151-.239.824-.713,1.76,0s2.614,1.87,2.614,1.87l1.415-.466v-1.4s-2.244,0,.588,0,2.435.18,3.395,0a4.973,4.973,0,0,1,1.781,0s-3.671.511-1.225,1.4a28.523,28.523,0,0,0,4.6,1.247s-.43.412.656.943,3.766.562,1.148,1.357a11.864,11.864,0,0,1-3.453.716c-.909.135-.5-.318-1.729,0a7.209,7.209,0,0,1-3.458,0c-1.032-.242-1.122.382-1.718,0a8.863,8.863,0,0,0-1.61-.716l-2.558-.484-2.209.484s.035-.306-1.332,0-3.771.716-3.771.716.943-.555-.949,0a25.5,25.5,0,0,1-3.168.74s.086-.474,0,.648a1.959,1.959,0,0,0,.535,1.642s-3.925-.088,2.148.795,6.435.883,7,.883.7.061,2.276,0,3.219,0,4.291,0-.873,3.065-1.238,3.429-.64,2.073-1.415,2.1a12.381,12.381,0,0,0-2.614,0c-.84.209-1.07-.447-2.353,0s1.773-.207-2.647,0-3.326-.131-4.806,0a14.881,14.881,0,0,1-2.663,0s.6.467-.633,0a22.354,22.354,0,0,0-3.094-.813s.377-.309-.627-.541a23.276,23.276,0,0,0-4.086,0s2.41-1.284-1.541,0a22.568,22.568,0,0,0-4.775,1.873s.068.018-1.723,0a28.568,28.568,0,0,1-3.455-.518c-.584.029-.444.366-1.154,0s1.127-.935-1.626-.813-3.259-.121-3.942,0a8.864,8.864,0,0,1-1.865,0s.161.9-1.357-1.285-1.218-3.429-1.218-3.429-4.692-.038-5.416,0-5.091-.473-5.965,0-1.354.088-2.391.611,1.706.215-1.257.53-2.378.264-5.725.7-5.342.648-6.409.743-.3-.47-2.058,0-2.508.7-3.088.842-4.318,2.1-4.318,2.1-.059-.477-1.053.518-1.189,3.865-1.189,3.865a8.986,8.986,0,0,1-1.375.762h0c-5.9,2.487-7.815,4.5-7.815,4.5l-1.547.66-1.136,1.084c-.545.328-2.143,1.493-2.143,1.493-.109.109-1.261,1.454-1.261,1.454v2.889l-.593,3.091s.682-.226,0,.55-.63.558-.9,1.4-.517-.33-.551,1.118-.818,1.277.551,1.981-1.415-1.251,2.018,1.031,4.047,2.144,4.019,2.917-.921,2.349,0,2.92a7.569,7.569,0,0,0,2.554,1.27c2.471,1.007,2.613,1.079,3.355,1.136s3.561.506,4.2.511,1.257-.532,2.868-.511a20.256,20.256,0,0,0,4.318-.509c.969-.214-.738-.752,3.088-.627a51.438,51.438,0,0,0,5.246,0h.468l6.613-1.27s-2.326-.245,1.864,0a26.267,26.267,0,0,0,5.394,0l1.87,1.9s-1.83-.152,1.01,0S15395.533,663.253,15395.533,663.253Z" transform="translate(-15140.805 -583.436)" fill="#edffff" stroke="#151515" stroke-linecap="round" stroke-linejoin="round" stroke-width="2"/>
          <path id="Path_9034" data-name="Path 9034" d="M15657.457,827.826a2.6,2.6,0,0,1,.543,1.32,5.984,5.984,0,0,1,0,1.71c-.084,1.008.252-1.019-.543,1.66s-1.1,3.173-1.246,3.815.895-.848,0,1.448-1.277,2.226-1.277,3.516a13.239,13.239,0,0,1,0,1.913c-.092,1.469-.151,1.645-.45,2.17s-.239.772-.767,1.223a2.619,2.619,0,0,1-1.161.578c-.421.16.53.214-1.37.476a4.926,4.926,0,0,1-2.259,0c-1.019-.059-.861.62-1.991-.476s-1.789-.828-1.834-2.2-.926-1.733,0-2.64a5.641,5.641,0,0,0,1.246-1.7,1.616,1.616,0,0,0,.588-1.834,13.764,13.764,0,0,1-.588-2.479c-.119-.776-.778-.978,0-1.9s-.021-.845.992-1.266a24.955,24.955,0,0,1,2.45-1.086,13.376,13.376,0,0,0,2.766-1.223c.821-.48.015-.31,1.161-1.161a8.961,8.961,0,0,0,1.881-1.87c.148-.189-.019-.3.613-.57S15657.457,827.826,15657.457,827.826Z" transform="translate(-15315.52 -721.799)" fill="#edffff" stroke="#151515" stroke-linecap="round" stroke-linejoin="round" stroke-width="2"/>
          <path id="Path_9035" data-name="Path 9035" d="M15888.166,788.7a37.5,37.5,0,0,1,3.17,2.3c.625.619,1.156,1.135,1.963,1.876s.684.419,1.167,1.067.433.541,2.18,2.087a16.377,16.377,0,0,0,2.394,1.894,6.866,6.866,0,0,0,1.064,1.8,11.217,11.217,0,0,0,2.184,1.941,11.144,11.144,0,0,1,1.006.9c1.075.99,1.184,1.149,1.8,1.4s.769.286,1.5.635a17.926,17.926,0,0,0,1.826.7s.207-.14.83,0,1.279-.171,1.307-.7,0-1.229,0-1.229v-.81s-.912-.62-1.307-.9a3.786,3.786,0,0,0-1.48-.752c-1.15-.421-2.671-1.189-2.671-1.189v-.707a2.835,2.835,0,0,0-.895-1.089c-.552-.337-1.915-1-1.915-1l-.573-.889s-.844.183-1.61-.936.212-.44-1.064-1.15a32.175,32.175,0,0,1-3.055-1.572c-.518-.453-.738-1.074-1.519-1.371s-1.112-.523-1.86-.878a17.97,17.97,0,0,1-1.9-.878A11.178,11.178,0,0,0,15888.166,788.7Z" transform="translate(-15456.668 -699.478)" fill="#edffff" stroke="#151515" stroke-linecap="round" stroke-linejoin="round" stroke-width="2"/>
          <path id="Path_9036" data-name="Path 9036" d="M16021.9,878.644s-.365-1.862-.611,0,.955,2.023,0,2.539.078.6-1.447.737-3.562-.226-4.078-.737-.328-1.107-1-1.392,1.036-2.845-1.568-.525-3.026,3.2-3.026,3.2V883.8h-.646c-.6-1.859-.756-2.618-.756-2.618s-.622.367-.593.737,0,1.881,0,1.881.053-.038-.792.642-.142.634-1.429.977-.98-.825-2.369,0-1.354.334-3.844,1.218-2.393.748-3.432,1.149-1.119.086-1.5.614-1.214.41-.672,1.318a13.73,13.73,0,0,0,1.2,2.059c1.035,1.495,1.99,2.487,2.32,3.138a.952.952,0,0,1,0,1.043s-.393.56-1.352,0a18.914,18.914,0,0,0-2.172-1.043s1.3,1.889,2.172,3.079a31.711,31.711,0,0,0,2.158,2.48c.742.868.692.216,1.273,1.731s.7,1.463,1.229,2.68.6,1.767,1.1,2.972,1.561.967,1.518,2.411-5.562-.071.826,2.231,6.674,2.273,7.133,2.273a19.676,19.676,0,0,0,4.221-.57c.6-.33-.85-.832,2.169-.832s3.2.285,3.968,0,1.391-1.064,2.691-.87a34.967,34.967,0,0,0,4.615,0,16.453,16.453,0,0,0,2.768.87c1,.148-1.833-1.721,2.636.832s5.144,2.473,5.511,3.084a3.786,3.786,0,0,1,.543,1.393c.176.665.746,1.6.886.962s-1.269.4,0-.962,3.331,0,3.331,0V921.1l1.445.771,1.623.54a1.927,1.927,0,0,0,0,1.6,4.622,4.622,0,0,0,1.047,1.2c.744.708.438-.025,1.244,1.118a8.009,8.009,0,0,0,1.344,1.62,4.916,4.916,0,0,1,1.443,1.656c.535,1.035.415,1.189.9,1.322s-.241-.379,1.73,0,3.1.588,3.1.588-.51-.249.635.665a8.417,8.417,0,0,0,1.791,1.177h2.289l.584-1.177h2.878a5.389,5.389,0,0,1,0-2.575c.38-1.022-.59-3.54,0-4.394a5.174,5.174,0,0,0,.761-2c.178-.6-.18-1.14,0-2.107a6.923,6.923,0,0,0,0-2.419c-.105-1.279.276-2.2,0-2.814s-.2-.888-.761-2.5.185-2.525-.806-3.1.023-.15-2.656-2.411-3.123-1.622-4.08-2.972-1.466-1.1-2.375-2.68a20.261,20.261,0,0,0-2.045-3.209,31.761,31.761,0,0,1-2.541-3.037,4.9,4.9,0,0,0-1.582-1.987c-1.323-1.241-.838-1.094-1.854-2.193s-.443-1.3-1.047-2.059a5.135,5.135,0,0,1-.939-1.932c-.2-.622-.449-.29-.684-1.149s.225-.623-1.445-2.2-2.207-1.981-2.207-1.981v-.542s-1.326-.653-1.124.542-.144,1.5,0,1.981-.135-.052,0,.977,0,1.218,0,1.218a4.381,4.381,0,0,0,0,1.149c.093.41-.165-.633,0,.614s.64,1.938,0,2.21-1.429.609-1.429.609h-1l-1.05-.609-1.1-.891s.76-.371-.655-1.318-1.936-1.552-2.345-1.763-.907.784-1.989-.692-.965-1.208-.859-2.146.365-1.525,0-1.881-3.045-2.654-3.045-2.654l-.784-.622a6.313,6.313,0,0,0-1.028-.539,3.2,3.2,0,0,1-1.042-.8s.021.083-.624,0a6.56,6.56,0,0,0-1.369,0Z" transform="translate(-15517.994 -767.636)" fill="#edffff" stroke="#151515" stroke-linecap="round" stroke-linejoin="round" stroke-width="2"/>
          <path id="Path_9037" data-name="Path 9037" d="M16049.777,840.939s.07-.765.768,0,1.373,1.358,1.373,1.358-.626.49,0,.933a3.244,3.244,0,0,1,.957,1.223s0-.613.844,0a2.96,2.96,0,0,0,1.424.738,15.752,15.752,0,0,1,3.95,1.833c.465.547-.1.221.657.979a15.869,15.869,0,0,0,2.973,2.03c.625.339,1.556-.429,1.277,1.005s-.281,1.836,0,2.4,1.876.606,2.5.726,1.089-1.07,1.621,0,.039.518.947,1.395a5.8,5.8,0,0,0,1.963,1.227s.826.013,1.5,0,4.668.132,5.178,0-1.551-2.66.689,0a15.772,15.772,0,0,0,2.912,3.058c.753.656.855,1,1.5,1.3s-.466-2.723,0-2.009,1.095-.4-1.5-2.351-3.175-1.934-3.6-2.622.947-.383-1.506-1.473-3.753-1.106-4.648-1.649-1.493.579-2.49-1.005a8.4,8.4,0,0,0-1.584-2.03s-.547.192-1.574-.979a14,14,0,0,0-1.914-1.833s.145.358-1.277,0a10.754,10.754,0,0,1-2.148-.738s.022-.964-.824,0-.875,1.2-1.348.738-.486-.1-.912-.738a12.428,12.428,0,0,0-1.77-2.156c-.826-.8-1.729-1.721-2-2s-.844,0-.844,0h-2.33Z" transform="translate(-15550.354 -746.13)" fill="#edffff" stroke="#151515" stroke-linecap="round" stroke-linejoin="round" stroke-width="2"/>
          <path id="Path_9038" data-name="Path 9038" d="M15488.471,663.424a1.853,1.853,0,0,1,1.139,0c.537.21,1.9.607,2.193.734s-.16-.046.6,0a9.239,9.239,0,0,0,1.266,0s-.018-.287,0-.734,0-.744,0-.744a3.524,3.524,0,0,1-.887,0,3.389,3.389,0,0,0-1.335,0c-.783.115-.55-.271-1.278,0a7.082,7.082,0,0,1-1.279.354Z" transform="translate(-15224.965 -626.368)" fill="#edffff" stroke="#151515" stroke-linecap="round" stroke-linejoin="round" stroke-width="2"/>
          <path id="Path_9039" data-name="Path 9039" d="M15470.229,652.874c.124.276,1.084-.212,1.369,0a.472.472,0,0,0,.607,0c.143-.075,0-.486,0-.486v-.618h-.607s-.09-.121-.5,0S15470.1,652.6,15470.229,652.874Z" transform="translate(-15214.38 -620.069)" fill="#edffff" stroke="#151515" stroke-linecap="round" stroke-linejoin="round" stroke-width="2"/>
          <path id="Path_9040" data-name="Path 9040" d="M15447.17,658.995h.369a.98.98,0,0,1,.655-.382c.4-.025,1.273-.343,1.542-.343h.579v-.818s-.159.142-.579,0a1.024,1.024,0,0,0-.834,0c-.371.094.145-.492-.708,0s-1.4.818-1.4.818v.343Z" transform="translate(-15200.807 -623.278)" fill="#edffff" stroke="#151515" stroke-linecap="round" stroke-linejoin="round" stroke-width="2"/>
          <path id="Path_9041" data-name="Path 9041" d="M15438.373,662.683l.436-.287.417-.213.206-.381s.226-.384,0-.394a3,3,0,0,0-1.059,0,3.905,3.905,0,0,0-.876.394Z" transform="translate(-15195.415 -625.657)" fill="#edffff" stroke="#151515" stroke-linecap="round" stroke-linejoin="round" stroke-width="2"/>
          <path id="Path_9042" data-name="Path 9042" d="M15416.475,624.659l2.363-.49h.69s-.142.311.484,0a3.141,3.141,0,0,1,1.468-.311,12.9,12.9,0,0,0,1.68-.356c.413-.095-1.056.2.684,0s1.357-1.261,1.357-1.261h.576s-.024-.644-.576-.734-1.252.387-1.357,0-.684-.621-.684-.621.428-.209,0-.326a4.244,4.244,0,0,1-.777-.3l-.4-.283c-.258-.183-.5-.367-.5-.367s.165.426-.566,0a4.734,4.734,0,0,1-.9-.606,1.764,1.764,0,0,1-.484-.462c-.109-.214.188-.3,0-.553s-.274-.484,0-.7a1.193,1.193,0,0,0,.484-.572c.095-.249-.484-.442-.484-.442s-.066-.423-.388,0-.149-.1-.794.442-.832.213-1.177.572.163.488-.7.7-.979.226-1.019.553.044.054,0,.462a1.91,1.91,0,0,0,0,.606c.021.435-.133.324.618.65a1.894,1.894,0,0,0,1.1.3,4.837,4.837,0,0,0,1.177,0s.385-.249,0,.326-.248.373-.78.621-.15.69-.732.734a4.354,4.354,0,0,0-1.378.484s.292.736,0,.777-.354.166-.308.356.08-.174.308.311S15416.475,624.659,15416.475,624.659Z" transform="translate(-15182.452 -599.413)" fill="#edffff" stroke="#151515" stroke-linecap="round" stroke-linejoin="round" stroke-width="2"/>
          <path id="Path_9043" data-name="Path 9043" d="M15397.366,629.553a2.592,2.592,0,0,1,.563-.486,5.228,5.228,0,0,1,.971-.382c.21-.035.514.324.845,0a3.13,3.13,0,0,1,.865-.693c.3-.133.393.32.6,0a2.267,2.267,0,0,1,.426-.491s.778-.644.486-.905a2.959,2.959,0,0,0-.912-.441s.273-.223-.6-.4-.434-.158-.865,0a4.7,4.7,0,0,0-.845.4c-.585.3-.4.052-.971.441s.187.125-.562.489a5.65,5.65,0,0,1-.993.416l-.93.491a1.655,1.655,0,0,1,0,.693c-.09.265.334.868.334.868h1.589Z" transform="translate(-15171.029 -604.944)" fill="#edffff" stroke="#151515" stroke-linecap="round" stroke-linejoin="round" stroke-width="2"/>
          <path id="Path_9044" data-name="Path 9044" d="M15406.716,621.211l.756-.363s.3.369,0-.32-.585-.7-.756-.658-.183-.411-.413,0a7.2,7.2,0,0,1-.409.658Z" transform="translate(-15177.095 -601.508)" fill="#edffff" stroke="#151515" stroke-linecap="round" stroke-linejoin="round" stroke-width="2"/>
          <path id="Path_9045" data-name="Path 9045" d="M15431.686,612.762h1.156s.4.456.42,0,0-.772,0-.772.365-.5-.42-.393a2.577,2.577,0,0,0-1.156.393s-.078.117,0,.421S15431.686,612.762,15431.686,612.762Z" transform="translate(-15192.026 -596.803)" fill="#edffff" stroke="#151515" stroke-linecap="round" stroke-linejoin="round" stroke-width="2"/>
          <path id="Path_9046" data-name="Path 9046" d="M15810.685,764.867c-.06.16.057.332,0,.551s-.149.48.47,1.17a3.275,3.275,0,0,0,1.858.767c.372.143,1.05-.125,1.235,0s.23.2.375,0a.749.749,0,0,1,.357-.268s.257-.041,0-.5-.454-1.148-.537-1.17a4.742,4.742,0,0,1-.6-.76c-.216-.289-.024-.431-.489-.645s-.365-.239-.811-.415a2.861,2.861,0,0,0-1.043-.218c-.238,0-.375-.107-.555,0S15810.685,764.867,15810.685,764.867Z" transform="translate(-15411.729 -684.773)" fill="#edffff" stroke="#151515" stroke-linecap="round" stroke-linejoin="round" stroke-width="2"/>
          <path id="Path_9047" data-name="Path 9047" d="M15878.737,801.26s.647-.393,1.009,0,.452.448.67.516,1.1.645.865,0a2.02,2.02,0,0,0-1.177-1.165c-.333-.092.151-.115-.358-.283s-.545-.71-1.009-.337S15878.737,801.26,15878.737,801.26Z" transform="translate(-15451.083 -705.949)" fill="#edffff" stroke="#151515" stroke-linecap="round" stroke-linejoin="round" stroke-width="2"/>
          <path id="Path_9048" data-name="Path 9048" d="M15890.984,808.778s-.113-.453.48,0,.459,0,1.047.679.624.932.624.932l.3.284h.344l.574-.284s.5-.9.48-.932a5.257,5.257,0,0,0-1.055-.961c-.324-.137-.145-.257-.644-.314s-.3.17-1.137,0A.821.821,0,0,0,15890.984,808.778Z" transform="translate(-15458.297 -710.759)" fill="#edffff" stroke="#151515" stroke-linecap="round" stroke-linejoin="round" stroke-width="2"/>
          <path id="Path_9049" data-name="Path 9049" d="M15904.671,814.143v.628a4.19,4.19,0,0,1,0,.631,3.521,3.521,0,0,0,0,.588.973.973,0,0,1,.4.375,6.909,6.909,0,0,1,.308.64v-2.233Z" transform="translate(-15466.229 -714.228)" fill="#edffff" stroke="#151515" stroke-linecap="round" stroke-linejoin="round" stroke-width="2"/>
          <path id="Path_9050" data-name="Path 9050" d="M15908.6,823.547s-.908-.313-.626.176a1.536,1.536,0,0,0,1.036.578v.408a3.953,3.953,0,0,0,.813.438c.4.145,1.123-.1.962-.438a7.168,7.168,0,0,0-.477-.794l-.485-.7-.813-.476h-.41l-.207-.333-.585.148Z" transform="translate(-15468.055 -719.015)" fill="#edffff" stroke="#151515" stroke-linecap="round" stroke-linejoin="round" stroke-width="2"/>
          <path id="Path_9051" data-name="Path 9051" d="M15916.576,829.036a.876.876,0,0,1,.326.116c.1.08.387.192.5.3s.13-.039.234.238.228.482.332.708-.034.242.371.6l.578.52s.023.08.182.184.074.29.593.15.627-.459.575-.633a3.3,3.3,0,0,0-.128-.484,1.517,1.517,0,0,0-.447-.673c-.288-.262-.49-.575-.687-.614s-.012-.028-.359-.3-.447-.384-.579-.466a1.434,1.434,0,0,0-.431-.156C15917.572,828.526,15916.576,829.036,15916.576,829.036Z" transform="translate(-15473.138 -722.568)" fill="#edffff" stroke="#151515" stroke-linecap="round" stroke-linejoin="round" stroke-width="2"/>
          <path id="Path_9052" data-name="Path 9052" d="M15942.453,834.961s-.566-.154,1.277.843,2.065.962,2.723,1.375a4.27,4.27,0,0,0,1.855.5,10.937,10.937,0,0,1,2.529.49c1.41.45,1.714.507,1.714.507s-.885-1.3,1.372,0a11.877,11.877,0,0,0,4.35,1.493l-2.229-2s-.15.653-.978,0a17.367,17.367,0,0,0-3.519-1.52s.093-.166-.711-.369-.76-.493-1.293-.476-1.543-.376-2.338-.489a5.561,5.561,0,0,1-1.289-.354c-.8-.226-1.5-.607-2.187-.748a3.261,3.261,0,0,0-1.277,0l-1.3-.409Z" transform="translate(-15487.385 -725.625)" fill="#edffff" stroke="#151515" stroke-linecap="round" stroke-linejoin="round" stroke-width="2"/>
          <path id="Path_9053" data-name="Path 9053" d="M15950.147,806.423a8.174,8.174,0,0,0,1.7,2.712,19.8,19.8,0,0,0,2.385,2.243c.635.645.271.631,1.869,1.274a28.184,28.184,0,0,0,3.035,1.123c2.79.963,2.383,1.135,3.42,1.047a11.584,11.584,0,0,1,1.916,0l.4-.372s-.884-.745-.924-1.4-.24-.883,0-1.175a14.264,14.264,0,0,1,1.415-1.608c.63-.574,1.657-1.47,1.45-1.8a2.932,2.932,0,0,0-.675-1.077c-.679-.788-.89-.542-1.267-.962s-.713-.346-.924-.663a3.259,3.259,0,0,1-.482-.746c-.232-.5-.717-1.315,0-1.088s1.9.593,1.9.593.643-1.353,0-1.8a4.533,4.533,0,0,0-1.415-.827c-1.3-.623-.7-.657-1.393-.8s-.194-.516-1.553,0a8.133,8.133,0,0,0-1.867.8c-1.707.845-1.574.428-2.133.827a3.927,3.927,0,0,1-1.338.72c-1.088.474-1.625.149-2.061.49s-.1.374-1.758.593a21.872,21.872,0,0,0-2.669.5Z" transform="translate(-15492.036 -706.508)" fill="#edffff" stroke="#151515" stroke-linecap="round" stroke-linejoin="round" stroke-width="2"/>
          <path id="Path_9054" data-name="Path 9054" d="M15981.309,767.923s.289.369,0,.637-.529-.063-.371.584-.023.665.371,1.191-.02.005.776,1.2a5.923,5.923,0,0,0,2.38,1.97c.335.144.625.05.909.362s1.206.662,2.329,1.642a11.679,11.679,0,0,0,2.438,1.59l.363.323a1.452,1.452,0,0,1,1.14,0,3.306,3.306,0,0,0,.937.281,11.677,11.677,0,0,0-1.551-1.481c-.406-.209-1.078-.62-1.361-.712s-.262-.253-.9-.725-1.285-.458-1.581-.917a2.89,2.89,0,0,0-.895-.907,5.57,5.57,0,0,1-.917-.632,8.668,8.668,0,0,1-.909-.793c-.716-.7-.988-.986-.686-1.2s.343-.273.686-.293,1.258.1.909-.408-.247,0-.478-.49-1.03-.2-1.117-.584-.119-.336-.532-.637a2.163,2.163,0,0,0-1.162-.366C15982,767.589,15981.309,767.923,15981.309,767.923Z" transform="translate(-15510.419 -687.219)" fill="#edffff" stroke="#151515" stroke-linecap="round" stroke-linejoin="round" stroke-width="2"/>
          <path id="Path_9055" data-name="Path 9055" d="M15999.7,801.7a3.967,3.967,0,0,0,1.25,0c.265-.129.082-.458.7,0s1.066.433,1.412.681.411.063.659.416-.043.028.465.809a2.3,2.3,0,0,0,2,.88c.393-.062-.174.814.684-.292s1.891-1.187.883-1.812a12.279,12.279,0,0,0-1.988-1.274c-.87-.359-.779-.493-1.582-.513s.752.1-1.124,0a15.793,15.793,0,0,0-2.108,0c-.754-.019-1.25,0-1.25,0Z" transform="translate(-15521.325 -706.349)" fill="#edffff" stroke="#151515" stroke-linecap="round" stroke-linejoin="round" stroke-width="2"/>
          <path id="Path_9056" data-name="Path 9056" d="M15998.791,824.231a.828.828,0,0,0-.482.8,5.911,5.911,0,0,1,0,1.754c-.141.929-.317.313,0,1.306a13.366,13.366,0,0,0,1.408,2.577c.287.493-.492.055.544,1.336a8.034,8.034,0,0,0,1.513,1.618c.3.247.6-1.255.432-1.618s-.12-.83-.712-1.336a4.911,4.911,0,0,1-.763-.749v-.759a2.73,2.73,0,0,1,1.475.759,2.51,2.51,0,0,0,.815.749s-.032-.493.72.732a4.958,4.958,0,0,0,1.194,1.513c.213.213.8.709.8.709s.315.438.315-.367.479-1.713,0-1.855-.456-.732-1.112-1.145.145-.414-1.194-1.095-1.967-1.069-1.967-1.069a3.757,3.757,0,0,0-.28-.556c-.2-.329-1.914-1.183.28-.393s2.548.949,2.548.949h1.065s.644-.877,0-.949a6.369,6.369,0,0,1-1.646-.357c-.173-.117.4.016-.72-.349s-2.155-.705-2.29-.774-.022,1.14-.47,0-.8-1.253.47-1.033,2.29.4,2.29.4.062-.139.72,0a5.953,5.953,0,0,0,1.646,0h.345l-1.41-1.173a10.375,10.375,0,0,1-1.8,0c-.377-.1-1.355.305-2.259,0A1.379,1.379,0,0,0,15998.791,824.231Z" transform="translate(-15520.415 -719.816)" fill="#edffff" stroke="#151515" stroke-linecap="round" stroke-linejoin="round" stroke-width="2"/>
          <path id="Path_9058" data-name="Path 9058" d="M15995.729,723.473s-1.646-.637,0,.572,1.645,1.241,2.047,1.78.393.685.862.9-.1.5,1.13,0a9.953,9.953,0,0,0,1.794-.9s.317-.488,1.5,0,.848.871,2.2.9,4.4,0,4.4,0h2.084s-.425-.287,0-.9a4.98,4.98,0,0,0,.57-1.78s.408.18,0-.572.332-.8-.57-1.206a8.309,8.309,0,0,1-1.512-.879s-1.459-1.764,0-1.3,2.082,0,2.082,0,.274.744.835.63-.553-1.716-1.405-2.04-.739-.54-1.512-.941-1.285-.7-1.285-.7l-1.038-.746s.5-.331,0,.746a4.526,4.526,0,0,1-1.281,1.642s-1.047.283,0,.795,1.281.616,1.281.616a3.811,3.811,0,0,0,0,1.3,1.646,1.646,0,0,1,0,.879s-.193-.437-1.281,0a6.347,6.347,0,0,1-2.346.615c-.752.032-.227,0-1.219,0h-4.429l-.862.591Z" transform="translate(-15518.599 -657.472)" fill="#edffff" stroke="#151515" stroke-linecap="round" stroke-linejoin="round" stroke-width="2"/>
          <path id="Path_9059" data-name="Path 9059" d="M16015.066,696.792a.63.63,0,0,1,0,.53,1.326,1.326,0,0,0,0,.935,2.376,2.376,0,0,0,.421.944c.142.2.491.3.741.552a2.005,2.005,0,0,1,.462.658c.229.411.206.3.515.792a3.29,3.29,0,0,0,.839,1.086,5.655,5.655,0,0,0,.8.57s.143,0,.428.381.291.483.524.824-.153.12.41.519a6.682,6.682,0,0,0,.778.5l1,.275-.488-.778s-.538-.516-.514-.519a6.15,6.15,0,0,0-.34-.559v-.266h.631l.711.266c.178.066.266-.266.266-.266a14.428,14.428,0,0,0-1.607-.951,2.324,2.324,0,0,1-.849-.433,5.733,5.733,0,0,1-.952-.921c-.394-.386-.45-1.1-.8-1.183s-.77-.59-.839-.552-.053.276-.515-.288-.814-.969-.814-.969Z" transform="translate(-15530.185 -646.199)" fill="#edffff" stroke="#151515" stroke-linecap="round" stroke-linejoin="round" stroke-width="2"/>
        </g>
      </g>
      <g id="Group_579" data-name="Group 579" transform="translate(507.693 680.47)">
        <g id="Locator" transform="translate(3.87 0)">
          <g id="Group_33" data-name="Group 33" transform="translate(0 0)">
            <g id="Group_32" data-name="Group 32">
              <g id="Group_29" data-name="Group 29">
                <path id="Path_61" data-name="Path 61" d="M347.827,243.559l-4.024-2.311h0c-1.92-1.285-4.587-1.23-7.536.472-5.85,3.377-10.592,11.953-10.592,19.153v1.639c0,7.2,9.681,15.025,9.681,15.025l3.959,2.239s-2.378-2.711-2.107-3.267c2.593-5.322,9.652-20.35,9.652-26.228v-1.639a12.794,12.794,0,0,0-.453-3.516l.454.262Zm-11.561,16.508c-2.925,1.689-5.3.32-5.3-3.057,1.575-.248,5.533-7.005,5.3-9.173,2.925-1.689,5.3-.319,5.3,3.058A11.706,11.706,0,0,1,336.266,260.067Z" transform="translate(-325.674 -240.356)" fill="#f89f1b"/>
              </g>
              <g id="Group_30" data-name="Group 30" opacity="0.2">
                <path id="Path_62" data-name="Path 62" d="M347.827,243.559l-4.024-2.311h0c-1.92-1.285-4.587-1.23-7.536.472-5.85,3.377-10.592,11.953-10.592,19.153v1.639c0,7.2,9.681,15.025,9.681,15.025l3.959,2.239s-2.378-2.711-2.107-3.267c2.593-5.322,9.652-20.35,9.652-26.228v-1.639a12.794,12.794,0,0,0-.453-3.516l.454.262Zm-11.561,16.508c-2.925,1.689-5.3.32-5.3-3.057,1.575-.248,5.533-7.005,5.3-9.173,2.925-1.689,5.3-.319,5.3,3.058A11.706,11.706,0,0,1,336.266,260.067Z" transform="translate(-325.674 -240.356)"/>
              </g>
              <g id="Group_31" data-name="Group 31" transform="translate(4.237 2.445)">
                <path id="Path_63" data-name="Path 63" d="M362.48,257.661c0-7.2-4.742-10.3-10.592-6.923S341.3,262.691,341.3,269.892v1.639c0,5.545,6.281,11.979,9.17,14.644a1.426,1.426,0,0,0,2.252-.419c2.5-5.107,9.763-20.491,9.762-26.455Zm-10.592,11.424c-2.925,1.688-5.3.319-5.3-3.058a11.706,11.706,0,0,1,5.3-9.173c2.925-1.689,5.3-.32,5.3,3.058A11.706,11.706,0,0,1,351.888,269.085Z" transform="translate(-341.296 -249.372)" fill="#f89f1b"/>
              </g>
            </g>
          </g>
        </g>
        <ellipse id="Ellipse_2060" data-name="Ellipse 2060" cx="18.884" cy="4.376" rx="18.884" ry="4.376" transform="translate(0.001 43.732) rotate(-7)" fill="#00b3d3" opacity="0.2"/>
      </g>
      <g id="Group_580" data-name="Group 580" transform="translate(482.415 773.271)">
        <g id="Locator-2" data-name="Locator" transform="translate(3.869 0)">
          <g id="Group_33-2" data-name="Group 33" transform="translate(0 0)">
            <g id="Group_32-2" data-name="Group 32">
              <g id="Group_29-2" data-name="Group 29">
                <path id="Path_61-2" data-name="Path 61" d="M347.829,243.559l-4.024-2.311h0c-1.92-1.285-4.588-1.23-7.537.472-5.85,3.378-10.593,11.954-10.593,19.155v1.639c0,7.2,9.682,15.026,9.682,15.026l3.959,2.239s-2.378-2.712-2.107-3.268c2.593-5.322,9.652-20.351,9.652-26.23v-1.639a12.794,12.794,0,0,0-.453-3.516l.454.262Zm-11.562,16.509c-2.925,1.689-5.3.32-5.3-3.058,1.575-.248,5.534-7.006,5.3-9.174,2.925-1.689,5.3-.319,5.3,3.058A11.706,11.706,0,0,1,336.267,260.069Z" transform="translate(-325.674 -240.356)" fill="#f89f1b"/>
              </g>
              <g id="Group_30-2" data-name="Group 30" opacity="0.2">
                <path id="Path_62-2" data-name="Path 62" d="M347.829,243.559l-4.024-2.311h0c-1.92-1.285-4.588-1.23-7.537.472-5.85,3.378-10.593,11.954-10.593,19.155v1.639c0,7.2,9.682,15.026,9.682,15.026l3.959,2.239s-2.378-2.712-2.107-3.268c2.593-5.322,9.652-20.351,9.652-26.23v-1.639a12.794,12.794,0,0,0-.453-3.516l.454.262Zm-11.562,16.509c-2.925,1.689-5.3.32-5.3-3.058,1.575-.248,5.534-7.006,5.3-9.174,2.925-1.689,5.3-.319,5.3,3.058A11.706,11.706,0,0,1,336.267,260.069Z" transform="translate(-325.674 -240.356)"/>
              </g>
              <g id="Group_31-2" data-name="Group 31" transform="translate(4.237 2.445)">
                <path id="Path_63-2" data-name="Path 63" d="M362.482,257.662c0-7.2-4.743-10.3-10.593-6.923S341.3,262.692,341.3,269.893v1.639c0,5.545,6.281,11.98,9.17,14.645a1.426,1.426,0,0,0,2.252-.42c2.5-5.107,9.763-20.492,9.763-26.457Zm-10.593,11.424c-2.925,1.689-5.3.319-5.3-3.058a11.707,11.707,0,0,1,5.3-9.174c2.925-1.689,5.3-.32,5.3,3.058A11.707,11.707,0,0,1,351.889,269.086Z" transform="translate(-341.296 -249.372)" fill="#f89f1b"/>
              </g>
            </g>
          </g>
        </g>
        <ellipse id="Ellipse_2060-2" data-name="Ellipse 2060" cx="18.885" cy="4.376" rx="18.885" ry="4.376" transform="translate(0 43.735) rotate(-7)" fill="#00b3d3" opacity="0.2"/>
      </g>
      <g id="Group_584" data-name="Group 584" transform="translate(688.866 678.865)">
        <g id="Locator-3" data-name="Locator" transform="translate(6.614 0)">
          <g id="Group_33-3" data-name="Group 33" transform="translate(0 0)">
            <g id="Group_32-3" data-name="Group 32">
              <g id="Group_29-3" data-name="Group 29" transform="translate(3.292)">
                <path id="Path_61-3" data-name="Path 61" d="M325.674,243.583l4.054-2.328h0c1.934-1.295,4.621-1.239,7.592.476,5.893,3.4,10.67,12.041,10.67,19.294v1.651c0,7.254-9.752,15.136-9.752,15.136l-3.988,2.256s2.4-2.731,2.122-3.292c-2.612-5.361-9.723-20.5-9.723-26.421v-1.651a12.887,12.887,0,0,1,.457-3.542l-.457.264Zm11.646,16.63c2.946,1.7,5.335.322,5.335-3.08-1.586-.249-5.574-7.057-5.335-9.241-2.947-1.7-5.335-.322-5.336,3.08A11.792,11.792,0,0,0,337.32,260.213Z" transform="translate(-325.674 -240.356)" fill="#f89f1b"/>
              </g>
              <g id="Group_30-3" data-name="Group 30" transform="translate(3.292)" opacity="0.2">
                <path id="Path_62-3" data-name="Path 62" d="M325.674,243.583l4.054-2.328h0c1.934-1.295,4.621-1.239,7.592.476,5.893,3.4,10.67,12.041,10.67,19.294v1.651c0,7.254-9.752,15.136-9.752,15.136l-3.988,2.256s2.4-2.731,2.122-3.292c-2.612-5.361-9.723-20.5-9.723-26.421v-1.651a12.887,12.887,0,0,1,.457-3.542l-.457.264Zm11.646,16.63c2.946,1.7,5.335.322,5.335-3.08-1.586-.249-5.574-7.057-5.335-9.241-2.947-1.7-5.335-.322-5.336,3.08A11.792,11.792,0,0,0,337.32,260.213Z" transform="translate(-325.674 -240.356)"/>
              </g>
              <g id="Group_31-3" data-name="Group 31" transform="translate(0 2.463)">
                <path id="Path_63-3" data-name="Path 63" d="M341.3,257.722c0-7.254,4.777-10.376,10.67-6.974s10.67,12.041,10.67,19.295v1.651c0,5.586-6.327,12.067-9.237,14.752a1.437,1.437,0,0,1-2.269-.423c-2.514-5.144-9.835-20.642-9.835-26.651Zm10.67,11.508c2.946,1.7,5.335.322,5.335-3.081a11.793,11.793,0,0,0-5.335-9.241c-2.946-1.7-5.335-.322-5.335,3.08A11.792,11.792,0,0,0,351.966,269.23Z" transform="translate(-341.296 -249.372)" fill="#f89f1b"/>
              </g>
            </g>
          </g>
        </g>
        <ellipse id="Ellipse_2061" data-name="Ellipse 2061" cx="19.023" cy="4.408" rx="19.023" ry="4.408" transform="translate(37.763 55.628) rotate(-173)" fill="#00b3d3" opacity="0.2"/>
      </g>
      <g id="Group_586" data-name="Group 586" transform="translate(747.846 755.172)">
        <g id="Locator-4" data-name="Locator" transform="translate(8.386 0)">
          <g id="Group_33-4" data-name="Group 33" transform="translate(0 0)">
            <g id="Group_32-4" data-name="Group 32">
              <g id="Group_29-4" data-name="Group 29" transform="translate(4.173)">
                <path id="Path_61-4" data-name="Path 61" d="M325.674,244.447l5.139-2.951h0c2.452-1.641,5.858-1.571,9.625.6,7.471,4.313,13.527,15.265,13.527,24.46v2.093c0,9.2-12.363,19.189-12.363,19.189l-5.056,2.86s3.037-3.463,2.691-4.173c-3.311-6.8-12.326-25.988-12.326-33.5V250.94a16.338,16.338,0,0,1,.579-4.49l-.579.335Zm14.764,21.082c3.735,2.157,6.763.409,6.764-3.9-2.011-.316-7.067-8.947-6.763-11.715-3.736-2.157-6.764-.408-6.764,3.9A14.949,14.949,0,0,0,340.438,265.529Z" transform="translate(-325.674 -240.356)" fill="#f89f1b"/>
              </g>
              <g id="Group_30-4" data-name="Group 30" transform="translate(4.173)" opacity="0.2">
                <path id="Path_62-4" data-name="Path 62" d="M325.674,244.447l5.139-2.951h0c2.452-1.641,5.858-1.571,9.625.6,7.471,4.313,13.527,15.265,13.527,24.46v2.093c0,9.2-12.363,19.189-12.363,19.189l-5.056,2.86s3.037-3.463,2.691-4.173c-3.311-6.8-12.326-25.988-12.326-33.5V250.94a16.338,16.338,0,0,1,.579-4.49l-.579.335Zm14.764,21.082c3.735,2.157,6.763.409,6.764-3.9-2.011-.316-7.067-8.947-6.763-11.715-3.736-2.157-6.764-.408-6.764,3.9A14.949,14.949,0,0,0,340.438,265.529Z" transform="translate(-325.674 -240.356)"/>
              </g>
              <g id="Group_31-4" data-name="Group 31" transform="translate(0 3.123)">
                <path id="Path_63-4" data-name="Path 63" d="M341.3,259.958c0-9.2,6.056-13.154,13.527-8.841s13.527,15.265,13.527,24.461v2.093c0,7.081-8.021,15.3-11.71,18.7a1.821,1.821,0,0,1-2.876-.536c-3.187-6.522-12.468-26.169-12.468-33.786Zm13.527,14.589c3.735,2.156,6.763.408,6.763-3.905a14.95,14.95,0,0,0-6.763-11.715c-3.735-2.157-6.763-.408-6.764,3.9A14.949,14.949,0,0,0,354.823,274.547Z" transform="translate(-341.296 -249.372)" fill="#f89f1b"/>
              </g>
            </g>
          </g>
        </g>
        <ellipse id="Ellipse_2061-2" data-name="Ellipse 2061" cx="24.116" cy="5.588" rx="24.116" ry="5.588" transform="translate(47.873 70.521) rotate(-173)" fill="#00b3d3" opacity="0.2"/>
      </g>
      <g id="Group_589" data-name="Group 589" transform="translate(290 -128.558)">
        <g id="Planes" transform="translate(233.341 229.679)">
          <g id="Group_40" data-name="Group 40" transform="translate(0 0)">
            <g id="Group_39" data-name="Group 39" transform="translate(4.499 0) rotate(8)">
              <path id="Path_67" data-name="Path 67" d="M24.076,11.93,0,.559,1.061,0,24,4.564l2.3-1.213a1.678,1.678,0,0,1,1.518.066c.412.26.4.652-.022.877l-1.412.744,7.91,1.651Z" transform="translate(5.918 1.768)" fill="#f89f1b"/>
              <path id="Path_68" data-name="Path 68" d="M24.076,11.93,0,.559,1.061,0,24,4.564l2.3-1.213a1.678,1.678,0,0,1,1.518.066c.412.26.4.652-.022.877l-1.412.744,7.91,1.651Z" transform="translate(5.918 1.768)" opacity="0.1"/>
              <path id="Path_69" data-name="Path 69" d="M36.728,7.687C47.576,2,56.356-1.229,59,.439s-3.7,6.423-14.5,12.148l-9.555,4.622c-9.568,4.3-19.4,8-19.4,8L16,31.827l-.954.5-4.3-4.768s-2.4,1.147-3.74.3.855-2.121.855-2.121L0,22.856l.954-.5,11.4.842s7.267-5.318,15.544-10.431Z" transform="translate(0 0)" fill="#f89f1b"/>
              <g id="Group_38" data-name="Group 38" transform="translate(32.862 10.11)">
                <path id="Path_70" data-name="Path 70" d="M13.594,2.817l-2.3,1.212L17.153,17.6l-1.06.559L0,4.622,9.555,0l1.131,2.619L12.1,1.874a1.681,1.681,0,0,1,1.517.066C14.028,2.2,14.019,2.593,13.594,2.817Z" transform="translate(2.09 2.477)" fill="#f89f1b"/>
                <path id="Path_71" data-name="Path 71" d="M15.684,5.294l-2.3,1.212L19.243,20.08l-1.06.559L0,5.373,10.545,0l2.231,5.1,1.412-.745a1.681,1.681,0,0,1,1.517.066C16.118,4.677,16.109,5.07,15.684,5.294Z" transform="translate(0 0)" opacity="0.1"/>
              </g>
            </g>
          </g>
        </g>
        <path id="Path_9060" data-name="Path 9060" d="M15031.34,590.8s-192.718-68.356-232.221-223.831" transform="translate(-14180.305 4593.014) rotate(-19)" fill="none" stroke="#00b3d3" stroke-linecap="round" stroke-width="2" stroke-dasharray="6"/>
      </g>
      <g id="Group_591" data-name="Group 591" transform="translate(821.667 181.146) rotate(158)">
        <g id="Planes-2" data-name="Planes" transform="translate(0 0)">
          <g id="Group_40-2" data-name="Group 40" transform="translate(0 0)">
            <g id="Group_39-2" data-name="Group 39" transform="translate(0 8.295) rotate(-8)">
              <path id="Path_67-2" data-name="Path 67" d="M24.076,0,0,11.371l1.061.559L24,7.366l2.3,1.213a1.678,1.678,0,0,0,1.518-.066c.412-.26.4-.652-.022-.877l-1.412-.744,7.91-1.651Z" transform="translate(5.918 18.632)" fill="#f89f1b"/>
              <path id="Path_68-2" data-name="Path 68" d="M24.076,0,0,11.371l1.061.559L24,7.366l2.3,1.213a1.678,1.678,0,0,0,1.518-.066c.412-.26.4-.652-.022-.877l-1.412-.744,7.91-1.651Z" transform="translate(5.918 18.632)" opacity="0.1"/>
              <path id="Path_69-2" data-name="Path 69" d="M36.727,24.643C47.576,30.333,56.356,33.559,59,31.891s-3.7-6.423-14.5-12.148l-9.555-4.622c-9.568-4.3-19.4-8-19.4-8L16,.5,15.042,0l-4.3,4.768s-2.4-1.147-3.74-.3.855,2.121.855,2.121L0,9.474l.954.5,11.4-.842s7.267,5.318,15.544,10.431Z" transform="translate(0 0)" fill="#f89f1b"/>
              <g id="Group_38-2" data-name="Group 38" transform="translate(32.861 1.581)">
                <path id="Path_70-2" data-name="Path 70" d="M13.594,15.345l-2.3-1.212L17.153.559,16.093,0,0,13.54l9.555,4.622,1.131-2.619,1.412.745a1.681,1.681,0,0,0,1.517-.066C14.028,15.962,14.019,15.569,13.594,15.345Z" transform="translate(2.09 0)" fill="#f89f1b"/>
                <path id="Path_71-2" data-name="Path 71" d="M15.684,15.345l-2.3-1.212L19.243.559,18.183,0,0,15.266l10.545,5.373,2.231-5.1,1.412.745a1.681,1.681,0,0,0,1.517-.066C16.118,15.962,16.109,15.569,15.684,15.345Z" transform="translate(0 0)" opacity="0.1"/>
              </g>
            </g>
          </g>
        </g>
      </g>
      <g id="Group_600" data-name="Group 600" transform="translate(-435.129 319.62)">
        <g id="Planes-3" data-name="Planes" transform="translate(1171.211 300.936)">
          <g id="Group_40-3" data-name="Group 40" transform="translate(0 0)">
            <g id="Group_39-3" data-name="Group 39" transform="translate(0)">
              <path id="Path_67-3" data-name="Path 67" d="M98.073,93.562l24.076,11.371-1.061.559-22.939-4.564-2.3,1.213a1.678,1.678,0,0,1-1.518-.066c-.412-.26-.4-.652.022-.877l1.412-.744L87.856,98.8Z" transform="translate(-68.462 -74.93)" fill="#f89f1b"/>
              <path id="Path_68-3" data-name="Path 68" d="M98.073,93.562l24.076,11.371-1.061.559-22.939-4.564-2.3,1.213a1.678,1.678,0,0,1-1.518-.066c-.412-.26-.4-.652.022-.877l1.412-.744L87.856,98.8Z" transform="translate(-68.462 -74.93)" opacity="0.1"/>
              <path id="Path_69-3" data-name="Path 69" d="M104.815,116.437c-10.849,5.69-19.629,8.916-22.277,7.248s3.7-6.423,14.5-12.148l9.555-4.622c9.568-4.3,19.4-8,19.4-8l-.446-6.617.954-.5,4.3,4.768s2.4-1.147,3.74-.3-.855,2.121-.855,2.121l7.86,2.889-.954.5-11.4-.842s-7.267,5.318-15.544,10.431Z" transform="translate(-81.938 -91.794)" fill="#f89f1b"/>
              <g id="Group_38-3" data-name="Group 38" transform="translate(7.5 1.581)">
                <path id="Path_70-3" data-name="Path 70" d="M120.449,119.726l2.3-1.212L116.89,104.94l1.06-.559,16.093,13.54-9.555,4.622-1.131-2.619-1.412.745a1.682,1.682,0,0,1-1.517-.066C120.015,120.343,120.024,119.95,120.449,119.726Z" transform="translate(-116.89 -104.381)" fill="#f89f1b"/>
                <path id="Path_71-3" data-name="Path 71" d="M118.359,117.249l2.3-1.212L114.8,102.463l1.06-.559,18.183,15.266L123.5,122.543l-2.231-5.1-1.412.745a1.682,1.682,0,0,1-1.517-.066C117.925,117.866,117.934,117.473,118.359,117.249Z" transform="translate(-114.8 -101.904)" opacity="0.1"/>
              </g>
            </g>
          </g>
        </g>
        <path id="Path_9061" data-name="Path 9061" d="M16080.088,556.214s187.959-48.585,247.249-273.067" transform="translate(-14843.774 -257.529)" fill="none" stroke="#00b3d3" stroke-linecap="round" stroke-width="2" stroke-dasharray="6"/>
      </g>
    </g>
  </g>
</svg>
