<svg xmlns="http://www.w3.org/2000/svg" xmlns:xlink="http://www.w3.org/1999/xlink" width="1315.146" height="903.872" viewBox="0 0 1315.146 903.872">
  <defs>
    <clipPath id="clip-path">
      <path id="Path_31" data-name="Path 31" d="M581.019,432.324a55.767,55.767,0,1,0,55.768,55.767A55.767,55.767,0,0,0,581.019,432.324Zm0,87.539a31.772,31.772,0,1,1,31.772-31.772A31.772,31.772,0,0,1,581.019,519.863Z" transform="translate(-525.252 -432.324)" fill="#7d97f4"/>
    </clipPath>
    <linearGradient id="linear-gradient" y1="0.5" x2="1" y2="0.5" gradientUnits="objectBoundingBox">
      <stop offset="0" stop-color="#fe7062"/>
      <stop offset="1" stop-color="#ff928e"/>
    </linearGradient>
    <clipPath id="clip-path-2">
      <path id="Path_34" data-name="Path 34" d="M794.517,432.324a55.767,55.767,0,1,0,55.768,55.767A55.768,55.768,0,0,0,794.517,432.324Zm0,87.539a31.772,31.772,0,1,1,31.772-31.772A31.772,31.772,0,0,1,794.517,519.863Z" transform="translate(-738.749 -432.324)" fill="#7d97f4"/>
    </clipPath>
    <clipPath id="clip-path-3">
      <path id="Path_37" data-name="Path 37" d="M1008.015,432.324a55.767,55.767,0,1,0,55.767,55.767A55.767,55.767,0,0,0,1008.015,432.324Zm0,87.539a31.772,31.772,0,1,1,31.772-31.772A31.772,31.772,0,0,1,1008.015,519.863Z" transform="translate(-952.247 -432.324)" fill="#7d97f4"/>
    </clipPath>
    <linearGradient id="linear-gradient-2" x1="15.286" y1="9.765" x2="15.735" y2="5.295" gradientUnits="objectBoundingBox">
      <stop offset="0" stop-color="#0c005d"/>
      <stop offset="1" stop-color="#1a0f91"/>
    </linearGradient>
    <linearGradient id="linear-gradient-4" x1="54.12" y1="0.5" x2="55.12" y2="0.5" gradientUnits="objectBoundingBox">
      <stop offset="0" stop-color="#ff928e"/>
      <stop offset="1" stop-color="#feb3b1"/>
    </linearGradient>
    <linearGradient id="linear-gradient-5" x1="39.937" y1="8.274" x2="40.449" y2="-3.573" gradientUnits="objectBoundingBox">
      <stop offset="0" stop-color="#09005d"/>
      <stop offset="1" stop-color="#1a0f91"/>
    </linearGradient>
    <linearGradient id="linear-gradient-6" x1="26.182" y1="5.522" x2="26.958" y2="2.802" xlink:href="#linear-gradient-5"/>
    <linearGradient id="linear-gradient-7" x1="45.284" y1="0.5" x2="46.284" y2="0.5" xlink:href="#linear-gradient-4"/>
    <linearGradient id="linear-gradient-8" x1="1.43" y1="-3.005" x2="0.959" y2="-1.213" xlink:href="#linear-gradient-5"/>
    <linearGradient id="linear-gradient-9" x1="1.412" y1="-11.034" x2="1.045" y2="-6.307" xlink:href="#linear-gradient-5"/>
  </defs>
  <g id="Illustration" transform="translate(-206.574 -86.956)">
    <g id="Group_70" data-name="Group 70" transform="translate(199.226 86.956)">
      <path id="Path_1" data-name="Path 1" d="M1280.292,170.842c104.576,81.828-29.3,194.025,42.824,239.516s368.049,130.068,77.423,321.295-295.5,312.922-509.566,202.474S691.5,802.413,519.99,885.526s-356.23-34.136-298.4-180.689S318.74,559.042,245.82,468.385s30.411-349.677,278.2-158.255,395.631,39.621,420.283-35.1S1115.027,41.525,1280.292,170.842Z" transform="translate(-203.418 -99.604)" fill="#d2fdfd"/>
      <g id="Group_19" data-name="Group 19" transform="translate(70.414 41.926)">
        <g id="Group_6" data-name="Group 6" transform="translate(154.201 14.907)">
          <g id="Group_4" data-name="Group 4" transform="translate(1.14 14.09)">
            <path id="Path_8" data-name="Path 8" d="M585.13,336.81H565.888c-3.392,0-6.164-1.63-6.246-3.673l-5.871-130.943c-.085-2.114,2.736-3.855,6.246-3.855H585.13c3.451,0,6.248,1.685,6.248,3.764V333.045C591.378,335.124,588.581,336.81,585.13,336.81Z" transform="translate(-553.769 -198.339)" fill="#8ce8f4"/>
          </g>
          <g id="Group_5" data-name="Group 5">
            <path id="Path_9" data-name="Path 9" d="M552,179.951l.221,1.725c.209,1.63,2.394,2.913,5.1,3l27.732.859c3.086.1,5.675-1.386,5.675-3.247v-2.61c0-1.742-2.278-3.174-5.168-3.248-6.91-.178-19.356-.394-28.573.031C554,176.594,551.765,178.154,552,179.951Z" transform="translate(-551.979 -176.211)" fill="#8ce8f4"/>
          </g>
        </g>
        <g id="Group_9" data-name="Group 9" transform="translate(101.704)">
          <g id="Group_7" data-name="Group 7" transform="translate(1.14 14.09)">
            <path id="Path_10" data-name="Path 10" d="M502.685,328.306H483.444c-3.392,0-6.164-1.63-6.247-3.673l-5.87-145.849c-.086-2.114,2.736-3.856,6.247-3.856h25.112c3.451,0,6.248,1.685,6.248,3.764V324.541C508.934,326.62,506.136,328.306,502.685,328.306Z" transform="translate(-471.325 -174.928)" fill="#8ce8f4"/>
          </g>
          <g id="Group_8" data-name="Group 8">
            <path id="Path_11" data-name="Path 11" d="M469.551,156.54l.221,1.725c.209,1.63,2.394,2.913,5.1,3l27.732.859c3.086.1,5.675-1.386,5.675-3.247v-2.61c0-1.743-2.278-3.174-5.168-3.249-6.909-.178-19.355-.393-28.573.031C471.56,153.184,469.32,154.743,469.551,156.54Z" transform="translate(-469.534 -152.8)" fill="#8ce8f4"/>
          </g>
        </g>
        <g id="Group_12" data-name="Group 12" transform="translate(210.631 52.838)">
          <g id="Group_10" data-name="Group 10" transform="translate(1.14 14.09)">
            <path id="Path_12" data-name="Path 12" d="M670.139,358.449H650.9c-3.391,0-6.164-1.63-6.246-3.673l-2.258-93.012c-.085-2.114,2.736-3.855,6.246-3.855h25.112c3.451,0,6.248,1.685,6.248,3.764l-3.612,93.012C676.388,356.763,673.59,358.449,670.139,358.449Z" transform="translate(-642.391 -257.909)" fill="#8ce8f4"/>
          </g>
          <g id="Group_11" data-name="Group 11">
            <path id="Path_13" data-name="Path 13" d="M640.618,239.52l.221,1.725c.209,1.63,2.394,2.913,5.1,3l27.732.859c3.086.1,5.675-1.386,5.675-3.247v-2.609c0-1.743-2.278-3.174-5.168-3.249-6.91-.178-19.356-.394-28.573.031C642.626,236.164,640.387,237.723,640.618,239.52Z" transform="translate(-640.601 -235.78)" fill="#8ce8f4"/>
          </g>
        </g>
        <g id="Group_15" data-name="Group 15" transform="translate(0 14.907)">
          <g id="Group_13" data-name="Group 13" transform="translate(1.14 14.09)">
            <path id="Path_14" data-name="Path 14" d="M342.96,336.81H323.719c-3.391,0-6.164-1.63-6.246-3.673L311.6,202.195c-.086-2.114,2.735-3.855,6.246-3.855H342.96c3.451,0,6.248,1.685,6.248,3.764V333.045C349.209,335.124,346.411,336.81,342.96,336.81Z" transform="translate(-311.6 -198.339)" fill="#8ce8f4"/>
          </g>
          <g id="Group_14" data-name="Group 14">
            <path id="Path_15" data-name="Path 15" d="M309.826,179.951l.221,1.725c.209,1.63,2.394,2.913,5.1,3l27.732.859c3.086.1,5.675-1.386,5.675-3.247v-2.61c0-1.742-2.278-3.174-5.168-3.248-6.91-.178-19.355-.394-28.573.031C311.834,176.594,309.6,178.154,309.826,179.951Z" transform="translate(-309.81 -176.211)" fill="#8ce8f4"/>
          </g>
        </g>
        <g id="Group_18" data-name="Group 18" transform="translate(56.43 52.838)">
          <g id="Group_16" data-name="Group 16" transform="translate(1.14 14.09)">
            <path id="Path_16" data-name="Path 16" d="M427.97,358.449H408.729c-3.392,0-6.164-1.63-6.247-3.673l-2.258-93.012c-.086-2.114,2.736-3.855,6.246-3.855h25.111c3.451,0,6.249,1.685,6.249,3.764l-3.612,93.012C434.219,356.763,431.421,358.449,427.97,358.449Z" transform="translate(-400.222 -257.909)" fill="#8ce8f4"/>
          </g>
          <g id="Group_17" data-name="Group 17">
            <path id="Path_17" data-name="Path 17" d="M398.448,239.52l.221,1.725c.209,1.63,2.394,2.913,5.1,3l27.732.859c3.086.1,5.675-1.386,5.675-3.247v-2.609c0-1.743-2.278-3.174-5.168-3.249-6.909-.178-19.355-.394-28.573.031C400.457,236.164,398.218,237.723,398.448,239.52Z" transform="translate(-398.432 -235.78)" fill="#8ce8f4"/>
          </g>
        </g>
      </g>
      <g id="Group_44" data-name="Group 44" transform="translate(129.185 160.517)">
        <g id="Group_23" data-name="Group 23">
          <path id="Path_22" data-name="Path 22" d="M1060.382,1178.392l-21.916,151.24h254.261l-33.118-151.24Z" transform="translate(-633.268 -643.94)" fill="#0a7589"/>
          <path id="Path_23" data-name="Path 23" d="M402.109,389.238V839.39a68.288,68.288,0,0,0,66.528,68.268c164.418,4.239,739.471,14.52,895.985,12.213a50.248,50.248,0,0,0,49.469-48.816c3.018-104.576,7.92-356.047-10.22-472.8a51.707,51.707,0,0,0-49.441-43.766c-137.761-4.407-747.355-18.4-903.8-14.888A49.636,49.636,0,0,0,402.109,389.238Z" transform="translate(-402.109 -339.045)" fill="#0992ac"/>
          <path id="Path_24" data-name="Path 24" d="M446.468,397.024V824.7a39.566,39.566,0,0,0,38.974,39.561l872.776,10.783a38.506,38.506,0,0,0,39.082-38.358l1.46-423.855a28.161,28.161,0,0,0-27.476-28.258L477.723,366.52A30.513,30.513,0,0,0,446.468,397.024Z" transform="translate(-418.223 -349.022)" fill="#d2fdfd"/>
          <path id="Path_25" data-name="Path 25" d="M1403.181,1181.992h-.021l-957.4-16.313a1.211,1.211,0,0,1-1.189-1.23,1.228,1.228,0,0,1,1.231-1.19l957.4,16.313a1.21,1.21,0,0,1-.02,2.42Z" transform="translate(-417.532 -638.443)" fill="#d2fdfd"/>
          <g id="Group_22" data-name="Group 22" transform="translate(505.22 541.129)">
            <path id="Path_26" data-name="Path 26" d="M1206.719,1211.222a11.172,11.172,0,1,1,11.172-11.172A11.184,11.184,0,0,1,1206.719,1211.222Zm0-19.923a8.751,8.751,0,1,0,8.751,8.751A8.761,8.761,0,0,0,1206.719,1191.3Z" transform="translate(-1195.548 -1188.878)" fill="#d2fdfd"/>
          </g>
          <path id="Path_27" data-name="Path 27" d="M1302.34,1447.635H930.21c-10.109,0-17.7-7.2-15.746-14.928l4.775-18.885c1.436-5.679,7.684-9.849,15.1-10.08l358.746-11.195c7.752-.242,14.617,3.873,16.307,9.776L1318,1432.4C1320.241,1440.218,1312.613,1447.635,1302.34,1447.635Z" transform="translate(-588.112 -721.729)" fill="#0992ac"/>
          <path id="Path_28" data-name="Path 28" d="M1253.285,1416.655a1.21,1.21,0,0,1-.017-2.42l15.372-.224a1.237,1.237,0,0,1,1.229,1.192,1.211,1.211,0,0,1-1.193,1.228l-15.373.224Z" transform="translate(-710.862 -729.529)" fill="#d2fdfd"/>
          <path id="Path_29" data-name="Path 29" d="M935.585,1445.344a1.168,1.168,0,0,1-.193-.016,1.209,1.209,0,0,1-1-1.385l2.193-13.735a15.32,15.32,0,0,1,14.929-12.925l163.051-2.385h.019a1.21,1.21,0,0,1,.017,2.42l-163.05,2.385a12.9,12.9,0,0,0-12.575,10.885l-2.193,13.735A1.21,1.21,0,0,1,935.585,1445.344Z" transform="translate(-595.456 -729.852)" fill="#d2fdfd"/>
        </g>
        <g id="Group_25" data-name="Group 25" transform="translate(512.78 77.896)">
          <g id="Group_24" data-name="Group 24">
            <rect id="Rectangle_2" data-name="Rectangle 2" width="22.955" height="404.895" fill="#8ce8f4"/>
            <rect id="Rectangle_3" data-name="Rectangle 3" width="22.956" height="404.895" transform="translate(38.356)" fill="#8ce8f4"/>
            <rect id="Rectangle_4" data-name="Rectangle 4" width="22.955" height="404.895" transform="translate(76.713)" fill="#8ce8f4"/>
            <rect id="Rectangle_5" data-name="Rectangle 5" width="22.955" height="404.895" transform="translate(115.07)" fill="#8ce8f4"/>
            <rect id="Rectangle_6" data-name="Rectangle 6" width="22.955" height="404.895" transform="translate(153.426)" fill="#8ce8f4"/>
            <rect id="Rectangle_7" data-name="Rectangle 7" width="22.955" height="404.895" transform="translate(191.783)" fill="#8ce8f4"/>
            <rect id="Rectangle_8" data-name="Rectangle 8" width="22.956" height="404.895" transform="translate(230.139)" fill="#8ce8f4"/>
          </g>
          <rect id="Rectangle_9" data-name="Rectangle 9" width="22.955" height="211.897" transform="translate(0 197.455)" fill="#fad090"/>
          <rect id="Rectangle_10" data-name="Rectangle 10" width="22.956" height="139.071" transform="translate(38.356 270.28)" fill="#fad090"/>
          <rect id="Rectangle_11" data-name="Rectangle 11" width="22.955" height="319.055" transform="translate(76.713 90.297)" fill="#fad090"/>
          <rect id="Rectangle_12" data-name="Rectangle 12" width="22.955" height="76.649" transform="translate(115.07 328.246)" fill="#fad090"/>
          <rect id="Rectangle_13" data-name="Rectangle 13" width="22.955" height="276.4" transform="translate(153.426 128.495)" fill="#fad090"/>
          <rect id="Rectangle_14" data-name="Rectangle 14" width="22.955" height="228.543" transform="translate(191.783 176.352)" fill="#fad090"/>
          <rect id="Rectangle_15" data-name="Rectangle 15" width="22.956" height="176.525" transform="translate(230.139 228.37)" fill="#fad090"/>
        </g>
        <g id="Group_35" data-name="Group 35" transform="translate(78.411 59.395)">
          <g id="Group_28" data-name="Group 28">
            <g id="Group_27" data-name="Group 27">
              <path id="Path_30" data-name="Path 30" d="M581.019,432.324a55.767,55.767,0,1,0,55.768,55.767A55.767,55.767,0,0,0,581.019,432.324Zm0,87.539a31.772,31.772,0,1,1,31.772-31.772A31.772,31.772,0,0,1,581.019,519.863Z" transform="translate(-525.252 -432.324)" fill="#25cbe8"/>
              <g id="Group_26" data-name="Group 26" clip-path="url(#clip-path)">
                <rect id="Rectangle_16" data-name="Rectangle 16" width="165.656" height="70.105" transform="translate(-22.111 43.503)" fill="#fad090"/>
              </g>
            </g>
          </g>
          <g id="Group_31" data-name="Group 31" transform="translate(135.944)">
            <path id="Path_32" data-name="Path 32" d="M794.517,432.324a55.767,55.767,0,1,0,55.768,55.767A55.768,55.768,0,0,0,794.517,432.324Zm0,87.539a31.772,31.772,0,1,1,31.772-31.772A31.772,31.772,0,0,1,794.517,519.863Z" transform="translate(-738.749 -432.324)" fill="url(#linear-gradient)"/>
            <g id="Group_30" data-name="Group 30">
              <path id="Path_33" data-name="Path 33" d="M794.517,432.324a55.767,55.767,0,1,0,55.768,55.767A55.768,55.768,0,0,0,794.517,432.324Zm0,87.539a31.772,31.772,0,1,1,31.772-31.772A31.772,31.772,0,0,1,794.517,519.863Z" transform="translate(-738.749 -432.324)" fill="#25cbe8"/>
              <g id="Group_29" data-name="Group 29" clip-path="url(#clip-path-2)">
                <rect id="Rectangle_17" data-name="Rectangle 17" width="165.656" height="97.202" transform="translate(-22.111 16.405)" fill="#fad090"/>
              </g>
            </g>
          </g>
          <g id="Group_34" data-name="Group 34" transform="translate(271.888)">
            <path id="Path_35" data-name="Path 35" d="M1008.015,432.324a55.767,55.767,0,1,0,55.767,55.767A55.767,55.767,0,0,0,1008.015,432.324Zm0,87.539a31.772,31.772,0,1,1,31.772-31.772A31.772,31.772,0,0,1,1008.015,519.863Z" transform="translate(-952.247 -432.324)" fill="#fff" opacity="0.57"/>
            <g id="Group_33" data-name="Group 33">
              <path id="Path_36" data-name="Path 36" d="M1008.015,432.324a55.767,55.767,0,1,0,55.767,55.767A55.767,55.767,0,0,0,1008.015,432.324Zm0,87.539a31.772,31.772,0,1,1,31.772-31.772A31.772,31.772,0,0,1,1008.015,519.863Z" transform="translate(-952.247 -432.324)" fill="#25cbe8"/>
              <g id="Group_32" data-name="Group 32" clip-path="url(#clip-path-3)">
                <rect id="Rectangle_18" data-name="Rectangle 18" width="165.655" height="35.052" transform="translate(-22.111 78.555)" fill="#fad090"/>
              </g>
            </g>
          </g>
        </g>
        <g id="Group_36" data-name="Group 36" transform="translate(78.411 272.856)">
          <path id="Path_38" data-name="Path 38" d="M895.731,979.735,538,977.048a12.846,12.846,0,0,1-12.75-12.846V780.407A12.847,12.847,0,0,1,538.1,767.56h357.73a12.847,12.847,0,0,1,12.846,12.847V966.889A12.846,12.846,0,0,1,895.731,979.735Z" transform="translate(-525.252 -767.56)" fill="#8ce8f4" opacity="0.6"/>
          <path id="Path_39" data-name="Path 39" d="M847.893,870.138l-46-48.634-65.958,71.739-46.541-50.218-43.649,49.342L612.273,851.7l-65.966,68.678v49.664a11.948,11.948,0,0,0,11.858,11.948l332.712,2.5a11.949,11.949,0,0,0,12.038-11.948V837.435Z" transform="translate(-532.9 -787.155)" fill="#25cbe8"/>
          <rect id="Rectangle_19" data-name="Rectangle 19" width="1.21" height="115.707" transform="translate(315.273 81.631)" fill="#fff"/>
          <rect id="Rectangle_20" data-name="Rectangle 20" width="1.21" height="162.32" transform="translate(268.387 34.349)" fill="#fff"/>
          <rect id="Rectangle_21" data-name="Rectangle 21" width="1.21" height="90.961" transform="translate(202.429 105.213)" fill="#fff"/>
          <rect id="Rectangle_22" data-name="Rectangle 22" width="1.21" height="138.525" transform="translate(157.125 57.649)" fill="#fff"/>
          <rect id="Rectangle_23" data-name="Rectangle 23" width="1.21" height="92.436" transform="translate(112.239 103.738)" fill="#fff"/>
          <rect id="Rectangle_24" data-name="Rectangle 24" width="1.21" height="134.189" transform="translate(79.477 61.099)" fill="#fff"/>
          <path id="Path_40" data-name="Path 40" d="M656.36,856.748a10.108,10.108,0,1,1-10.108-10.108A10.108,10.108,0,0,1,656.36,856.748Z" transform="translate(-565.534 -796.286)" fill="#f89f1b"/>
          <path id="Path_41" data-name="Path 41" d="M705.333,926.681a6.659,6.659,0,1,1-6.659-6.659C704.049,920.022,705.333,921.3,705.333,926.681Z" transform="translate(-585.829 -822.942)" fill="#f89f1b"/>
          <path id="Path_42" data-name="Path 42" d="M775.824,854.3a6.659,6.659,0,1,1-6.658-6.658A6.659,6.659,0,0,1,775.824,854.3Z" transform="translate(-611.435 -796.649)" fill="#f89f1b"/>
          <path id="Path_43" data-name="Path 43" d="M846.974,929a6.659,6.659,0,1,1-6.659-6.658A6.659,6.659,0,0,1,846.974,929Z" transform="translate(-637.281 -823.783)" fill="#f89f1b"/>
          <circle id="Ellipse_1" data-name="Ellipse 1" cx="6.659" cy="6.659" r="6.659" transform="translate(260.981 29.398) rotate(-13.282)" fill="#f89f1b"/>
          <circle id="Ellipse_2" data-name="Ellipse 2" cx="6.659" cy="6.659" r="6.659" transform="translate(309.22 74.972)" fill="#f89f1b"/>
        </g>
        <g id="Group_37" data-name="Group 37" transform="translate(76.285 196.448)" opacity="0.4">
          <path id="Path_44" data-name="Path 44" d="M627.405,719.5H529.342c-4.1,0-7.428,2.316-7.428,5.173s3.326,5.172,7.428,5.172h98.064c4.1,0,7.428-2.316,7.428-5.172S631.508,719.5,627.405,719.5Z" transform="translate(-521.914 -673.696)" fill="#25cbe8"/>
          <path id="Path_45" data-name="Path 45" d="M627.405,683.533H529.342c-4.1,0-7.428,2.316-7.428,5.173s3.326,5.173,7.428,5.173h98.064c4.1,0,7.428-2.316,7.428-5.173S631.508,683.533,627.405,683.533Z" transform="translate(-521.914 -660.629)" fill="#25cbe8"/>
          <path id="Path_46" data-name="Path 46" d="M627.405,647.563H529.342c-4.1,0-7.428,2.316-7.428,5.173s3.326,5.172,7.428,5.172h98.064c4.1,0,7.428-2.316,7.428-5.172S631.508,647.563,627.405,647.563Z" transform="translate(-521.914 -647.563)" fill="#25cbe8"/>
        </g>
        <g id="Group_38" data-name="Group 38" transform="translate(212.6 196.448)" opacity="0.4">
          <path id="Path_47" data-name="Path 47" d="M841.485,719.5H743.422c-4.1,0-7.428,2.316-7.428,5.173s3.326,5.172,7.428,5.172h98.063c4.1,0,7.428-2.316,7.428-5.172S845.587,719.5,841.485,719.5Z" transform="translate(-735.994 -673.696)" fill="#25cbe8"/>
          <path id="Path_48" data-name="Path 48" d="M841.485,683.533H743.422c-4.1,0-7.428,2.316-7.428,5.173s3.326,5.173,7.428,5.173h98.063c4.1,0,7.428-2.316,7.428-5.173S845.587,683.533,841.485,683.533Z" transform="translate(-735.994 -660.629)" fill="#25cbe8"/>
          <path id="Path_49" data-name="Path 49" d="M841.485,647.563H743.422c-4.1,0-7.428,2.316-7.428,5.173s3.326,5.172,7.428,5.172h98.063c4.1,0,7.428-2.316,7.428-5.172S845.587,647.563,841.485,647.563Z" transform="translate(-735.994 -647.563)" fill="#25cbe8"/>
        </g>
        <g id="Group_39" data-name="Group 39" transform="translate(348.915 196.448)" opacity="0.4">
          <path id="Path_50" data-name="Path 50" d="M1055.565,719.5H957.5c-4.1,0-7.428,2.316-7.428,5.173s3.325,5.172,7.428,5.172h98.063c4.1,0,7.428-2.316,7.428-5.172S1059.667,719.5,1055.565,719.5Z" transform="translate(-950.074 -673.696)" fill="#25cbe8"/>
          <path id="Path_51" data-name="Path 51" d="M1055.565,683.533H957.5c-4.1,0-7.428,2.316-7.428,5.173s3.325,5.173,7.428,5.173h98.063c4.1,0,7.428-2.316,7.428-5.173S1059.667,683.533,1055.565,683.533Z" transform="translate(-950.074 -660.629)" fill="#25cbe8"/>
          <path id="Path_52" data-name="Path 52" d="M1055.565,647.563H957.5c-4.1,0-7.428,2.316-7.428,5.173s3.325,5.172,7.428,5.172h98.063c4.1,0,7.428-2.316,7.428-5.172S1059.667,647.563,1055.565,647.563Z" transform="translate(-950.074 -647.563)" fill="#25cbe8"/>
        </g>
        <g id="Group_43" data-name="Group 43" transform="translate(814.961 63.792)">
          <g id="Group_40" data-name="Group 40" transform="translate(1.449 147.093)">
            <circle id="Ellipse_3" data-name="Ellipse 3" cx="45.375" cy="45.375" r="45.375" transform="translate(0 16.567) rotate(-10.519)" fill="#25cbe8"/>
            <path id="Path_53" data-name="Path 53" d="M1773.46,723.726a29.147,29.147,0,1,1-26.962-18.071c.493,0,.983.013,1.47.038V698.3c-.488-.02-.978-.032-1.47-.032a36.5,36.5,0,1,0,33.739,22.508Z" transform="translate(-1693.602 -680.42)" fill="#fad090"/>
            <path id="Path_54" data-name="Path 54" d="M1778.932,854.754h-73.943a8.4,8.4,0,1,0,0,16.807h73.943a8.4,8.4,0,1,0,0-16.807Z" transform="translate(-1688.74 -737.262)" fill="#8ce8f4"/>
          </g>
          <g id="Group_41" data-name="Group 41">
            <circle id="Ellipse_4" data-name="Ellipse 4" cx="45.375" cy="45.375" r="45.375" transform="matrix(0.217, -0.976, 0.976, 0.217, 0, 88.582)" fill="#25cbe8"/>
            <path id="Path_55" data-name="Path 55" d="M1761.557,530.423a29.144,29.144,0,1,1-15.53-53.805c.494,0,.983.013,1.47.038v-7.388c-.488-.019-.978-.032-1.47-.032a36.529,36.529,0,1,0,19.193,67.612Z" transform="translate(-1691.983 -450.128)" fill="#fad090"/>
            <path id="Path_56" data-name="Path 56" d="M1779.238,625.716h-73.943a8.4,8.4,0,1,0,0,16.807h73.943a8.4,8.4,0,0,0,0-16.807Z" transform="translate(-1687.403 -506.971)" fill="#8ce8f4"/>
          </g>
          <g id="Group_42" data-name="Group 42" transform="translate(9.132 301.196)">
            <circle id="Ellipse_5" data-name="Ellipse 5" cx="45.375" cy="45.375" r="45.375" transform="translate(0)" fill="#25cbe8"/>
            <path id="Path_57" data-name="Path 57" d="M1771.811,979.06a29.146,29.146,0,1,1-24.1-45.532q.739,0,1.47.037v-7.388c-.488-.019-.978-.032-1.47-.032a36.529,36.529,0,1,0,30.086,57.247Z" transform="translate(-1701.725 -917.298)" fill="#fad090"/>
            <path id="Path_58" data-name="Path 58" d="M1704.735,1099.432h73.943a8.4,8.4,0,0,0,0-16.807h-73.943a8.4,8.4,0,1,0,0,16.807Z" transform="translate(-1696.331 -974.14)" fill="#8ce8f4"/>
          </g>
        </g>
      </g>
      <g id="Group_54" data-name="Group 54" transform="translate(20.93 431.966)">
        <g id="Group_50" data-name="Group 50" transform="translate(0 69.582)">
          <g id="Group_45" data-name="Group 45" transform="translate(94.988 352.038)">
            <path id="Path_59" data-name="Path 59" d="M427.579,1471.828c-8.162.706-22.329,1.852-33.5,2.343-6.714.3-10.579-.362-12.8-1.253,0,.251.011.488.021.708a2.31,2.31,0,0,0,2.195,2.182,392.383,392.383,0,0,0,43.862.044,1.645,1.645,0,0,0,1.34-2.471A13.4,13.4,0,0,0,427.579,1471.828Z" transform="translate(-381.273 -1443.6)" fill="url(#linear-gradient-2)"/>
            <path id="Path_60" data-name="Path 60" d="M394.079,1464.768c11.169-.492,25.336-1.638,33.5-2.343-8.026-9.847-33.5-16.483-33.5-16.483h-7.195a30.173,30.173,0,0,0-5.61,17.573C383.5,1464.406,387.366,1465.064,394.079,1464.768Z" transform="translate(-381.272 -1434.197)" fill="url(#linear-gradient-2)"/>
            <path id="Path_61" data-name="Path 61" d="M388.185,1427.5l.673,13.323a3.043,3.043,0,0,0,2.6,2.861,11.837,11.837,0,0,0,5.4-.448,3.6,3.6,0,0,0,2.42-2.767l2.326-12.969Z" transform="translate(-383.783 -1427.497)" fill="url(#linear-gradient-4)"/>
          </g>
          <g id="Group_47" data-name="Group 47" transform="translate(0 339.587)">
            <g id="Group_46" data-name="Group 46" transform="translate(0 12.364)">
              <path id="Path_62" data-name="Path 62" d="M238.04,1472.9c-3.54-.493-5.141-2.332-5.813-4.3l-.013.053c-.521,2.074.686,4.224,3.1,5.245a20.25,20.25,0,0,0,8.584,1.344,8.531,8.531,0,0,0,6.436-2.969l.02-.026C247.688,1473.567,243.944,1473.722,238.04,1472.9Z" transform="translate(-232.095 -1442.341)" fill="url(#linear-gradient-5)"/>
              <path id="Path_63" data-name="Path 63" d="M254.806,1427.362h-5.933c-9.037-.185-14.713,18.876-16.57,26.257.672,1.966,2.273,3.805,5.813,4.3,5.9.824,9.647.668,12.314-.651,4.883-6.425,7.3-15.835,8.467-21.326A7.487,7.487,0,0,0,254.806,1427.362Z" transform="translate(-232.171 -1427.361)" fill="url(#linear-gradient-6)"/>
            </g>
            <path id="Path_64" data-name="Path 64" d="M257.583,1407.943l-3.295,13.1a3.557,3.557,0,0,0,1.85,4.031,12.626,12.626,0,0,0,6.823,1.652,2.972,2.972,0,0,0,2.423-1.981l4.837-13.786Z" transform="translate(-240.118 -1407.943)" fill="url(#linear-gradient-7)"/>
          </g>
          <path id="Path_65" data-name="Path 65" d="M253.352,1307.607c4.1,3.636,17.431,4.116,17.431,4.116,48.025-115.264,67.67-131.638,67.67-131.638-6.935,43.506-1.118,139.822-1.118,139.822,7.925,3.5,18.142,0,18.142,0A742.4,742.4,0,0,1,380,1137.6c-32.459-.73-49.72-11.837-55.356-16.3C297.588,1164.922,253.352,1307.607,253.352,1307.607Z" transform="translate(-239.817 -964.233)" fill="#71716f"/>
          <path id="Path_66" data-name="Path 66" d="M371.836,912.677c-6.144,30.645-3.941,85.495-2.5,110.513.406,7.032-4.5,16.78-8.47,23.431a2.086,2.086,0,0,0,.842,2.934c6.643,3.414,29.146,14,55.228,15.311a3.719,3.719,0,0,0,3.743-2.779c19.347-72.239,41.818-118.4,41.818-118.4C437.693,904.069,371.836,912.677,371.836,912.677Z" transform="translate(-278.765 -888.163)" fill="#739af0"/>
          <path id="Path_67" data-name="Path 67" d="M391.271,1198.482a1.539,1.539,0,0,1-1.313-2.337A48.243,48.243,0,0,1,409,1179.614a1.538,1.538,0,1,1,1.336,2.77,46,46,0,0,0-17.751,15.361A1.538,1.538,0,0,1,391.271,1198.482Z" transform="translate(-289.358 -985.36)" fill="#45453c"/>
          <g id="Group_48" data-name="Group 48" transform="translate(53.744 24.515)">
            <path id="Path_68" data-name="Path 68" d="M317.741,1050.039c1.973,14.277,7.8,29.848,19.468,46.388l4.434-3.614a136.92,136.92,0,0,1-2.208-44.335C332.239,1047.075,323.742,1048.521,317.741,1050.039Z" transform="translate(-316.951 -962.087)" fill="#739af0"/>
            <path id="Path_69" data-name="Path 69" d="M362.689,950.941l-6.862-37.812s-45.85,35.047-38.537,87.951c6-1.517,14.5-2.964,21.693-1.561C341.08,982.541,347.341,964.11,362.689,950.941Z" transform="translate(-316.5 -913.128)" fill="#739af0"/>
          </g>
          <g id="Group_49" data-name="Group 49" transform="translate(166.04 55.525)">
            <path id="Path_70" data-name="Path 70" d="M510.556,961.829l-17.7,38.115c2.862,23.011,15.223,32.961,28.552,36.776a80.866,80.866,0,0,1,5.943-24.821C510.323,994.316,510.556,961.829,510.556,961.829Z" transform="translate(-492.858 -961.829)" fill="#739af0"/>
            <path id="Path_71" data-name="Path 71" d="M543.641,1040.464a80.866,80.866,0,0,0-5.943,24.821c35.56,13.8,44.968-12.96,44.968-12.96l-6.572-1.159C561.253,1052.729,550.886,1047.944,543.641,1040.464Z" transform="translate(-509.146 -990.393)" fill="#739af0"/>
          </g>
          <path id="Path_72" data-name="Path 72" d="M476.026,883.1l-8.544,31.409a6.11,6.11,0,0,1-8.171,4.066A123.8,123.8,0,0,1,447,912.947a8.233,8.233,0,0,1-2.9-11.833l17.763-26.486Z" transform="translate(-308.595 -874.628)" fill="#f48f8f"/>
        </g>
        <path id="Path_73" data-name="Path 73" d="M502.724,1026.083l-218.932,79.683a16.763,16.763,0,0,0-9.526,22.692l.664,1.461a15.583,15.583,0,0,0,20.727,7.691l212.58-98.341Z" transform="translate(-246.865 -860.063)" fill="#f89f1b"/>
        <g id="Group_51" data-name="Group 51" transform="translate(248.413 11.963)" opacity="0.35">
          <ellipse id="Ellipse_6" data-name="Ellipse 6" cx="108.075" cy="106.125" rx="108.075" ry="106.125" fill="#91b3fa"/>
        </g>
        <path id="Path_74" data-name="Path 74" d="M723.349,765.351c-66.417,0-120.259,52.87-120.259,118.089s53.841,118.089,120.259,118.089,120.258-52.87,120.258-118.089S789.765,765.351,723.349,765.351Zm0,218.831c-56.661,0-102.593-45.1-102.593-100.742S666.688,782.7,723.349,782.7,825.941,827.8,825.941,883.44,780.009,984.182,723.349,984.182Z" transform="translate(-366.86 -765.351)" fill="#fcbc5e"/>
        <g id="Group_52" data-name="Group 52" transform="translate(244.025 7.514)">
          <path id="Path_75" data-name="Path 75" d="M616.68,902.152a.606.606,0,0,1-.6-.528c-.355-2.789-.606-5.633-.746-8.452a.606.606,0,0,1,.575-.634.586.586,0,0,1,.634.574c.137,2.788.386,5.6.738,8.358a.6.6,0,0,1-.523.677A.523.523,0,0,1,616.68,902.152Zm.826-33.02a.7.7,0,0,1-.108-.01.6.6,0,0,1-.488-.7,108.53,108.53,0,0,1,6.476-22.163c17.3-41.981,58.288-69.106,104.41-69.106a113.74,113.74,0,0,1,60.46,17.277.605.605,0,1,1-.643,1.026A112.527,112.527,0,0,0,727.8,778.361c-45.629,0-86.174,26.833-103.291,68.357a107.3,107.3,0,0,0-6.4,21.915A.6.6,0,0,1,617.506,869.132Z" transform="translate(-615.333 -777.151)" fill="#fff"/>
        </g>
        <g id="Group_53" data-name="Group 53" transform="translate(146.415 37.318)">
          <path id="Path_76" data-name="Path 76" d="M508.885,847.577c.078.539-7.127,35.842-7.127,35.842l-20.07-4.542,1.857-34.474S507.582,838.547,508.885,847.577Z" transform="translate(-469.176 -830.706)" fill="#f48f8f"/>
          <path id="Path_77" data-name="Path 77" d="M481.1,845.337l-2.4,18.071a2.512,2.512,0,0,0,0,.692c.2,1.417,1.256,6.239,6.124,4.86,4.418-1.251,8.467-2.328,11.265-1.472a2.544,2.544,0,0,1,1.75,2.944,110,110,0,0,1-4.619,16.45,2.54,2.54,0,0,1-3.084,1.5c-3.806-1.11-11.769-3.675-17.691-7.239a2.547,2.547,0,0,1-1.241-2.291c.193-4.562.727-18.43.277-22.317-.422-3.649-4.9-5.835-6.845-6.618a2.5,2.5,0,0,1-1.393-1.4c-.9-2.258-2.143-7.482,4.441-9.623a2.55,2.55,0,0,0,1.614-3.3c-.975-2.714-1.386-6.858,3.708-9.141,5.177-2.32,9.043.44,11.131,2.683a2.548,2.548,0,0,0,3.245.383,2.017,2.017,0,0,1,2.293.078,2.508,2.508,0,0,0,3.552-1.076c1.24-2.545,3.766-5.27,8.835-4.4,8.993,1.54,10.012,11.506,7.64,17.346s-12.028,3.616-16.873.672c-3.682-2.239-8.46.108-10.538,1.361A2.527,2.527,0,0,0,481.1,845.337Z" transform="translate(-462.212 -823.958)" fill="#0d5d6c"/>
          <path id="Path_78" data-name="Path 78" d="M470.5,877.441s3.7-10.354-.1-12.889-9.425-1.219-8.186,6.281C463.753,880.163,470.5,877.441,470.5,877.441Z" transform="translate(-462.038 -838.275)" fill="#f48f8f"/>
        </g>
        <path id="Path_79" data-name="Path 79" d="M350.088,1116.479l20.7-1.687,8.964,8.262s-2.121,2.932-8.751,1.247a94.894,94.894,0,0,0-15.71-2.1s-9.152,4.126-9.264-3.594Z" transform="translate(-273.48 -892.287)" fill="#f48f8f"/>
        <path id="Path_80" data-name="Path 80" d="M602.958,1057.841c1.79,1.4,7.922-1.521,11.675-3.539a4.318,4.318,0,0,0,2.087-5.1c-.9-2.848-2.408-6.523-4.262-6.987C609.382,1041.444,595.582,1052.079,602.958,1057.841Z" transform="translate(-366.034 -865.908)" fill="#f48f8f"/>
        <path id="Path_81" data-name="Path 81" d="M290.724,1176.582a.618.618,0,0,1-.2-.033c-6.78-2.343-10.335-6.228-10.566-11.546a12.819,12.819,0,0,1,8.364-12.351l26.287-10.25a.605.605,0,0,1,.439,1.128l-26.286,10.25a11.609,11.609,0,0,0-7.594,11.172c.207,4.771,3.487,8.288,9.752,10.453a.605.605,0,0,1-.2,1.177Z" transform="translate(-249.478 -902.3)" fill="#91b3fa"/>
        <path id="Path_82" data-name="Path 82" d="M347.106,1137.853a.605.605,0,0,1-.22-1.169l3.407-1.328a.605.605,0,0,1,.439,1.128l-3.407,1.328A.6.6,0,0,1,347.106,1137.853Z" transform="translate(-273.653 -899.741)" fill="#91b3fa"/>
      </g>
      <g id="Group_57" data-name="Group 57" transform="translate(894.391)">
        <g id="Group_55" data-name="Group 55" transform="translate(31.623 31.623)">
          <circle id="Ellipse_7" data-name="Ellipse 7" cx="107.157" cy="107.157" r="107.157" transform="translate(0 151.543) rotate(-45)" fill="#0992ac"/>
          <path id="Path_83" data-name="Path 83" d="M1735.687,359.8h-.065a1.211,1.211,0,0,1-1.145-1.272,100.681,100.681,0,0,1,1.456-12.578,1.21,1.21,0,1,1,2.381.43,98.441,98.441,0,0,0-1.42,12.273A1.209,1.209,0,0,1,1735.687,359.8Z" transform="translate(-1682.923 -212.298)" fill="#98f0ff"/>
          <path id="Path_84" data-name="Path 84" d="M1752.05,274.191a1.21,1.21,0,0,1-1.079-1.755,99.706,99.706,0,0,1,89.44-55.07,100.958,100.958,0,0,1,18.063,1.625,1.21,1.21,0,1,1-.434,2.38,98.659,98.659,0,0,0-17.629-1.585,97.3,97.3,0,0,0-87.28,53.739A1.209,1.209,0,0,1,1752.05,274.191Z" transform="translate(-1688.868 -165.951)" fill="#98f0ff"/>
          <circle id="Ellipse_8" data-name="Ellipse 8" cx="90.695" cy="90.695" r="90.695" transform="translate(25.615 153.877) rotate(-45)" fill="#25cbe8"/>
          <path id="Path_85" data-name="Path 85" d="M1907.059,309.483c0,15.357-12.449,31.936-27.806,31.936s-27.806-16.579-27.806-31.936,12.449-26.252,27.806-26.252S1907.059,294.126,1907.059,309.483Z" transform="translate(-1725.414 -189.876)" fill="#98f0ff"/>
          <path id="Path_86" data-name="Path 86" d="M1829.941,438.8h67.88a16.43,16.43,0,0,0,15.649-11.424l3.652-11.416a16.413,16.413,0,0,0-9.916-20.423c-27.625-10.1-56.189-8.8-85.45.932a16.36,16.36,0,0,0-10.485,19.834l2.813,10.368A16.43,16.43,0,0,0,1829.941,438.8Z" transform="translate(-1710.61 -228.13)" fill="#98f0ff"/>
        </g>
        <g id="Group_56" data-name="Group 56">
          <path id="Path_87" data-name="Path 87" d="M1787.016,453.287c-101,0-183.166-82.167-183.166-183.166s82.168-183.165,183.166-183.165,183.166,82.167,183.166,183.165S1888.014,453.287,1787.016,453.287Zm0-308.889A125.724,125.724,0,1,0,1912.74,270.121,125.865,125.865,0,0,0,1787.016,144.4Z" transform="translate(-1603.851 -86.956)" fill="#fff" opacity="0.73"/>
          <path id="Path_88" data-name="Path 88" d="M2141.626,353.093l-57.281,4.3q.346,4.659.351,9.405a125.136,125.136,0,0,1-7.466,42.689l54.031,19.5a182.32,182.32,0,0,0,10.878-62.192Q2142.138,359.883,2141.626,353.093Z" transform="translate(-1775.807 -183.631)" fill="#25cbe8"/>
          <path id="Path_89" data-name="Path 89" d="M1787.016,395.845a125.724,125.724,0,1,1,30.628-247.667l13.994-55.715a182.916,182.916,0,0,0-44.622-5.507c-101,0-183.166,82.167-183.166,183.165s82.168,183.166,183.166,183.166c79.174,0,146.769-50.5,172.287-120.974l-54.031-19.5A125.937,125.937,0,0,1,1787.016,395.845Z" transform="translate(-1603.851 -86.956)" fill="#ffb445"/>
          <path id="Path_90" data-name="Path 90" d="M2081.353,319.453l57.281-4.3a181.757,181.757,0,0,0-18.008-66.5l-51.634,25.153A124.763,124.763,0,0,1,2081.353,319.453Z" transform="translate(-1772.815 -145.693)" fill="#98f0ff"/>
        </g>
      </g>
      <g id="Group_60" data-name="Group 60" transform="translate(514.679 73.234)">
        <g id="Group_58" data-name="Group 58">
          <path id="Path_91" data-name="Path 91" d="M1160.817,203.183l218.016-1.214a11.444,11.444,0,0,1,9.875,17.334l-1.094,1.823a11.444,11.444,0,0,1-9.811,5.554H1160.881a11.444,11.444,0,0,1-11.444-11.444v-.609A11.444,11.444,0,0,1,1160.817,203.183Z" transform="translate(-1059.072 -201.969)" fill="#8ce8f4"/>
          <path id="Path_92" data-name="Path 92" d="M1078.811,215.719v.355a11.444,11.444,0,0,1-11.444,11.444h-48.4a11.444,11.444,0,0,1-11.056-8.49h0a11.444,11.444,0,0,1,10.972-14.4l48.4-.355A11.444,11.444,0,0,1,1078.811,215.719Z" transform="translate(-1007.52 -202.807)" fill="#8ce8f4"/>
        </g>
        <g id="Group_59" data-name="Group 59" transform="translate(52.443 41.08)">
          <path id="Path_93" data-name="Path 93" d="M1243.178,267.7l165.572-1.214a11.443,11.443,0,0,1,9.875,17.334l-1.094,1.824a11.444,11.444,0,0,1-9.811,5.553H1243.242a11.444,11.444,0,0,1-11.444-11.444v-.609A11.444,11.444,0,0,1,1243.178,267.7Z" transform="translate(-1141.433 -266.484)" fill="#8ce8f4"/>
          <path id="Path_94" data-name="Path 94" d="M1161.172,280.233v.355a11.443,11.443,0,0,1-11.444,11.444h-48.4a11.444,11.444,0,0,1-11.056-8.49h0a11.444,11.444,0,0,1,10.972-14.4l48.4-.355A11.444,11.444,0,0,1,1161.172,280.233Z" transform="translate(-1089.881 -267.321)" fill="#8ce8f4"/>
        </g>
      </g>
      <g id="Group_67" data-name="Group 67" transform="translate(867.647 566.98)">
        <g id="Group_61" data-name="Group 61" transform="translate(198.128 218.427)">
          <rect id="Rectangle_25" data-name="Rectangle 25" width="7.65" height="82.728" transform="translate(36.972 18.537)" fill="#7d97f4"/>
          <path id="Path_95" data-name="Path 95" d="M1951.466,1479.123h-67v-2.832a2.147,2.147,0,0,1,2.148-2.147h62.706a2.147,2.147,0,0,1,2.147,2.147Z" transform="translate(-1877.169 -1376.263)" fill="#7d97f4"/>
          <rect id="Rectangle_26" data-name="Rectangle 26" width="84.241" height="23.892" rx="11.946" fill="#e9605a"/>
        </g>
        <g id="Group_62" data-name="Group 62" transform="translate(83.653 166.266)">
          <path id="Path_96" data-name="Path 96" d="M1832.977,1262.906s-11.367,1.762-24.148,10.306a6.371,6.371,0,0,0-2.811,6.089c1.53,12.122,7.822,51.357,28.572,89.679a9.651,9.651,0,0,1,.926,6.62l-3.605,16.776-6.684,6.268h17.219l11.465-31.026-4.9-1.55a9.278,9.278,0,0,1-6.478-8.684l-.575-33.282c.491-14.828-9.092-25.059-9.092-25.059l27.5-1.338Z" transform="translate(-1734.18 -1247.37)" fill="#e37979"/>
          <path id="Path_97" data-name="Path 97" d="M1825.6,1460.478c-1.569,2.052,16.878,4.76,26.2.271,0,0,12.918-22.477,12.918-34.05,0,0-1.025-2.36-8.611-1.824,0,0-4.338,26.613-8.918,29.595s-12.814.3-12.814.3S1827.911,1457.449,1825.6,1460.478Z" transform="translate(-1741.276 -1306.176)" fill="url(#linear-gradient-8)"/>
          <path id="Path_98" data-name="Path 98" d="M1820.446,1301.968c-.146-.253-29.607-3.542-29.607-3.542a68.1,68.1,0,0,1-2.049,21.288c-3.014,12.331-46.269,65.756-46.269,65.756l4.536,14.378a72.962,72.962,0,0,1-41.391,2.49l28.108-16.868s26.305-89.645,42.418-105.638l29.531-10.217Z" transform="translate(-1697.745 -1249.807)" fill="#f48f8f"/>
          <path id="Path_99" data-name="Path 99" d="M1926.92,1238.506s16.974,25.246,18.367,36.762-4.65,16.2-22.46,16.967-65.355.76-65.355.76l-40.579-34.68s29.572-10.552,37.261-13.536S1926.92,1238.506,1926.92,1238.506Z" transform="translate(-1738.148 -1238.506)" fill="#71716f"/>
          <path id="Path_100" data-name="Path 100" d="M1740.824,1466.538s4.883,4.73,1.584,9.992c0,0-38.68,6.856-49.182,3.745,0,0,2.18-4.977,14.006-10.643l-.872.67a1.413,1.413,0,0,0,.933,2.534C1715.086,1472.392,1731.212,1470.965,1740.824,1466.538Z" transform="translate(-1693.226 -1321.339)" fill="url(#linear-gradient-9)"/>
        </g>
        <g id="Group_63" data-name="Group 63" transform="translate(186.253)">
          <path id="Path_101" data-name="Path 101" d="M1897.589,1181.049s-19.766-18.821-29.5-31.287a26.448,26.448,0,0,1-4.478-23.8c4.442-14.965,12.336-30.466,13.056-32.878,1.1-3.7,23.267-3.544,23.267-3.544s43.612,28.3,60.748,76.251l-19.244,5.991s-11.388-19.1-22.639-31.25c0,0,19.469,25.719,20.154,36.248Z" transform="translate(-1857.321 -1018.126)" fill="#739af0"/>
          <path id="Path_102" data-name="Path 102" d="M1880.537,1060.941c.231.769,6.016,19.945,6.469,20.344s12.686,1.056,18.444-2.88l-9.769-20.45Z" transform="translate(-1863.867 -1006.655)" fill="#f48f8f"/>
          <path id="Path_103" data-name="Path 103" d="M1883.526,999.032s-10.443,4.409-17.544,19.5-1.8,22.058,4.862,23.015,16.622.811,27.158-8.937S1897.1,993.805,1883.526,999.032Z" transform="translate(-1857.354 -985.024)" fill="#f48f8f"/>
          <path id="Path_104" data-name="Path 104" d="M1896.536,1016.917s7.878-22.078-11.7-22.339l-4.606,3.219s-7.182-12.241,4.606-18.084,29.377-.641,34.393,15.241,2.08,26.136-6.266,33.734-11.786-1.017-11.786-1.017,4.545-7.107,2.695-10.909-6.117.786-6.117.786Z" transform="translate(-1862.97 -977.389)" fill="#0d5d6c"/>
          <path id="Path_106" data-name="Path 106" d="M1854.357,1225.947l14.523-14,20.09,8.487s20,3.1,31.442,0l11.445-3.1,25.864-8.052,4.062,11.48a6.913,6.913,0,0,1-2.525,7.942,45.681,45.681,0,0,1-6.532,4.069c-3.406,1.49-83.963-1.031-83.963-1.031Z" transform="translate(-1854.357 -1061.626)" fill="#f48f8f"/>
          <path id="Path_107" data-name="Path 107" d="M1939.616,1004.335a4.478,4.478,0,0,1,2.674-7.468c11.475-1.79,28.971.036,36.32,24.6,8.278,27.671,13.666,41.5,19.2,43.932a4.5,4.5,0,0,1,.246,8.26c-2.676,1.2-6.5,1.628-11.987.421C1943.779,1064.778,1954.378,1019.416,1939.616,1004.335Z" transform="translate(-1884.886 -984.281)" fill="#0d5d6c"/>
        </g>
        <g id="Group_64" data-name="Group 64" transform="translate(75.437 94.433)">
          <path id="Path_108" data-name="Path 108" d="M1890.35,1241.464c-.064,0-.129,0-.194,0l-84.243-.092a3.771,3.771,0,0,1,.008-7.541l84.243.092a3.771,3.771,0,0,1,.186,7.537Z" transform="translate(-1724.575 -1164.976)" fill="#bdd0fb"/>
          <path id="Path_109" data-name="Path 109" d="M1685.93,1125.694h70.158a13.372,13.372,0,0,1,12.094,7.668l32.433,68.774h-87.187a8.127,8.127,0,0,1-7.558-5.14l-25.151-63.64A5.6,5.6,0,0,1,1685.93,1125.694Z" transform="translate(-1680.322 -1125.694)" fill="#bdd0fb"/>
          <path id="Path_110" data-name="Path 110" d="M1760.364,1177.065c1.52,4.723.4,9.311-2.509,10.246s-6.493-2.136-8.014-6.859-.4-9.311,2.509-10.247S1758.844,1172.341,1760.364,1177.065Z" transform="translate(-1705.328 -1141.802)" fill="#91b3fa"/>
        </g>
        <g id="Group_66" data-name="Group 66" transform="translate(0 170.119)">
          <g id="Group_65" data-name="Group 65" transform="translate(20.62 6.567)">
            <path id="Path_111" data-name="Path 111" d="M1597.317,1415.076a3.021,3.021,0,0,1-1.217-.258,3.185,3.185,0,0,1-1.615-4.147l64.7-153.89a3.061,3.061,0,0,1,4.054-1.652,3.184,3.184,0,0,1,1.614,4.147l-64.7,153.89A3.085,3.085,0,0,1,1597.317,1415.076Z" transform="translate(-1594.233 -1254.871)" fill="#7d97f4"/>
            <path id="Path_112" data-name="Path 112" d="M1674.875,1415.076a3.083,3.083,0,0,1-2.836-1.91l-64.7-153.89a3.185,3.185,0,0,1,1.615-4.147,3.061,3.061,0,0,1,4.054,1.652l64.7,153.89a3.184,3.184,0,0,1-1.615,4.147A3.023,3.023,0,0,1,1674.875,1415.076Z" transform="translate(-1598.902 -1254.871)" fill="#7d97f4"/>
            <path id="Path_113" data-name="Path 113" d="M1997.452,1415.076a3.027,3.027,0,0,1-1.218-.258,3.186,3.186,0,0,1-1.615-4.147l64.7-153.89a3.06,3.06,0,0,1,4.053-1.652,3.184,3.184,0,0,1,1.615,4.147l-64.7,153.89A3.086,3.086,0,0,1,1997.452,1415.076Z" transform="translate(-1739.583 -1254.871)" fill="#7d97f4"/>
            <path id="Path_114" data-name="Path 114" d="M2075.009,1415.076a3.083,3.083,0,0,1-2.835-1.91l-64.7-153.89a3.185,3.185,0,0,1,1.615-4.147,3.06,3.06,0,0,1,4.053,1.652l64.7,153.89a3.185,3.185,0,0,1-1.615,4.147A3.025,3.025,0,0,1,2075.009,1415.076Z" transform="translate(-1744.252 -1254.871)" fill="#7d97f4"/>
          </g>
          <path id="Path_115" data-name="Path 115" d="M1920.805,1248.436a3.111,3.111,0,0,0-.731-2.693,3.575,3.575,0,0,0-2.682-1.185H1565.851a4.073,4.073,0,0,0-3.371,1.73,3.55,3.55,0,0,0-.261,3.594l3.809,7.729a5.368,5.368,0,0,0,4.842,2.9h344.11a3.98,3.98,0,0,0,3.965-3.067Z" transform="translate(-1561.85 -1244.558)" fill="#7d97f4"/>
        </g>
      </g>
      <g id="Group_68" data-name="Group 68" transform="translate(382.249 331.69)">
        <path id="Path_116" data-name="Path 116" d="M799.844,735.178l1.962-3.155a2.008,2.008,0,1,1,3.411,2.12l-.047.074-1.862,3-.048.077a2.01,2.01,0,1,1-3.417-2.119Z" transform="translate(-799.541 -652.624)" fill="#8ce8f4"/>
        <path id="Path_117" data-name="Path 117" d="M810.857,719.538l2.4-2.835a2,2,0,0,1,3.054,2.588l-.053.064-2.288,2.707-.055.065a2,2,0,0,1-3.061-2.586Z" transform="translate(-803.479 -647.146)" fill="#8ce8f4"/>
        <path id="Path_118" data-name="Path 118" d="M824.008,705.661l2.76-2.478a2,2,0,0,1,2.665,2.969l-.057.05-2.64,2.376-.059.052a2,2,0,0,1-2.672-2.969Z" transform="translate(-808.188 -642.307)" fill="#8ce8f4"/>
        <path id="Path_119" data-name="Path 119" d="M838.889,693.66l3.04-2.111a1.988,1.988,0,1,1,2.268,3.266l-.056.039-2.922,2.033-.059.041a1.99,1.99,0,0,1-2.274-3.267Z" transform="translate(-813.524 -638.137)" fill="#8ce8f4"/>
        <path id="Path_120" data-name="Path 120" d="M855.116,683.547l3.254-1.75a1.982,1.982,0,0,1,1.877,3.491l-.055.03-3.139,1.692-.057.031a1.984,1.984,0,0,1-1.883-3.493Z" transform="translate(-819.35 -634.638)" fill="#8ce8f4"/>
        <path id="Path_121" data-name="Path 121" d="M872.363,675.281l3.416-1.4a1.975,1.975,0,0,1,1.5,3.655l-.053.022-3.3,1.358-.055.023a1.977,1.977,0,0,1-1.5-3.657Z" transform="translate(-825.548 -631.794)" fill="#8ce8f4"/>
        <path id="Path_122" data-name="Path 122" d="M890.368,668.808l3.531-1.06a1.968,1.968,0,1,1,1.132,3.77l-.052.016-3.422,1.032-.054.016a1.97,1.97,0,1,1-1.137-3.773Z" transform="translate(-832.024 -629.59)" fill="#8ce8f4"/>
        <path id="Path_123" data-name="Path 123" d="M908.917,664.085l3.612-.727a1.962,1.962,0,1,1,.774,3.847l-.051.01-3.505.709-.053.011a1.964,1.964,0,1,1-.779-3.849Z" transform="translate(-838.7 -628.012)" fill="#8ce8f4"/>
        <path id="Path_124" data-name="Path 124" d="M927.838,661.093l3.65-.4a1.955,1.955,0,0,1,.426,3.887l-.044,0-3.558.394-.046.005a1.957,1.957,0,0,1-.431-3.891Z" transform="translate(-845.512 -627.053)" fill="#8ce8f4"/>
        <path id="Path_125" data-name="Path 125" d="M946.923,659.678l3.67-.125a1.949,1.949,0,0,1,.132,3.895h-.039l-3.587.125h-.041a1.95,1.95,0,0,1-.136-3.9Z" transform="translate(-852.394 -626.643)" fill="#8ce8f4"/>
        <path id="Path_126" data-name="Path 126" d="M966.063,659.562l3.665.121a1.942,1.942,0,1,1-.128,3.881h-.034l-3.592-.115h-.037a1.943,1.943,0,1,1,.124-3.885Z" transform="translate(-859.302 -626.646)" fill="#8ce8f4"/>
        <path id="Path_127" data-name="Path 127" d="M985.16,660.6l3.647.333a1.935,1.935,0,1,1-.352,3.854l-.029,0-3.585-.323-.031,0a1.937,1.937,0,0,1,.348-3.859Z" transform="translate(-866.2 -627.019)" fill="#8ce8f4"/>
        <path id="Path_128" data-name="Path 128" d="M1004.154,662.673l3.621.512a1.929,1.929,0,0,1-.539,3.819l-.024,0-3.569-.5-.026,0a1.931,1.931,0,0,1,.536-3.824Z" transform="translate(-873.068 -627.77)" fill="#8ce8f4"/>
        <path id="Path_129" data-name="Path 129" d="M1023.016,665.624l3.592.658a1.922,1.922,0,1,1-.692,3.78l-.018,0-3.552-.646-.021,0a1.924,1.924,0,1,1,.688-3.785Z" transform="translate(-879.895 -628.837)" fill="#8ce8f4"/>
        <path id="Path_130" data-name="Path 130" d="M1041.739,669.28l3.569.774a1.915,1.915,0,1,1-.811,3.743l-.013,0-3.539-.762-.017,0a1.917,1.917,0,1,1,.807-3.747Z" transform="translate(-886.677 -630.161)" fill="#8ce8f4"/>
        <path id="Path_131" data-name="Path 131" d="M1060.338,673.486l3.544.859a1.908,1.908,0,1,1-.9,3.709l-.009,0-3.522-.849-.012,0a1.91,1.91,0,0,1,.9-3.714Z" transform="translate(-893.419 -631.685)" fill="#8ce8f4"/>
        <path id="Path_132" data-name="Path 132" d="M1078.825,678.091l3.521.915a1.9,1.9,0,1,1-.957,3.681h-.005l-3.507-.908-.007,0a1.9,1.9,0,1,1,.954-3.686Z" transform="translate(-900.126 -633.355)" fill="#8ce8f4"/>
        <path id="Path_133" data-name="Path 133" d="M1097.223,682.963l3.507.96a1.894,1.894,0,1,1-1,3.654h0l-3.5-.953-.006,0a1.9,1.9,0,1,1,1-3.66Z" transform="translate(-906.804 -635.123)" fill="#8ce8f4"/>
        <path id="Path_134" data-name="Path 134" d="M1115.551,688.06l3.494,1a1.888,1.888,0,1,1-1.038,3.631h0l-3.484-.993-.005,0a1.89,1.89,0,1,1,1.035-3.635Z" transform="translate(-913.457 -636.972)" fill="#8ce8f4"/>
        <path id="Path_135" data-name="Path 135" d="M1133.818,693.357l3.483,1.035a1.882,1.882,0,1,1-1.075,3.607l-3.474-1.028a1.884,1.884,0,0,1,1.059-3.615Z" transform="translate(-920.089 -638.895)" fill="#8ce8f4"/>
        <path id="Path_136" data-name="Path 136" d="M1152.03,698.832l3.473,1.066a1.875,1.875,0,1,1-1.1,3.584l-3.466-1.06a1.877,1.877,0,1,1,1.088-3.592Z" transform="translate(-926.702 -640.881)" fill="#8ce8f4"/>
        <path id="Path_137" data-name="Path 137" d="M1170.194,704.46l3.464,1.092a1.868,1.868,0,1,1-1.125,3.562l-3.458-1.085a1.87,1.87,0,1,1,1.113-3.571Z" transform="translate(-933.298 -642.924)" fill="#8ce8f4"/>
        <path id="Path_138" data-name="Path 138" d="M1188.317,710.217l3.458,1.114a1.862,1.862,0,1,1-1.142,3.543l-3.453-1.108a1.863,1.863,0,0,1,1.133-3.551Z" transform="translate(-939.881 -645.014)" fill="#8ce8f4"/>
        <path id="Path_139" data-name="Path 139" d="M1206.406,716.08l3.452,1.131a1.855,1.855,0,1,1-1.156,3.525l-3.448-1.126a1.857,1.857,0,0,1,1.148-3.532Z" transform="translate(-946.451 -647.143)" fill="#8ce8f4"/>
        <path id="Path_140" data-name="Path 140" d="M1224.468,722.025l3.448,1.144a1.848,1.848,0,0,1-1.164,3.507l-3.445-1.138a1.85,1.85,0,1,1,1.158-3.514Z" transform="translate(-953.013 -649.302)" fill="#8ce8f4"/>
        <path id="Path_141" data-name="Path 141" d="M1242.51,728.029l3.444,1.152a1.841,1.841,0,0,1-1.167,3.492l-3.443-1.147a1.843,1.843,0,0,1,1.163-3.5Z" transform="translate(-959.569 -651.483)" fill="#8ce8f4"/>
        <path id="Path_142" data-name="Path 142" d="M1260.541,734.068l3.443,1.156a1.834,1.834,0,0,1-1.167,3.479l-3.443-1.152a1.836,1.836,0,0,1,1.165-3.483Z" transform="translate(-966.121 -653.676)" fill="#8ce8f4"/>
        <path id="Path_143" data-name="Path 143" d="M1278.566,740.118l3.442,1.156a1.828,1.828,0,0,1-1.16,3.466l-3.445-1.151a1.83,1.83,0,1,1,1.161-3.471Z" transform="translate(-972.672 -655.874)" fill="#8ce8f4"/>
        <path id="Path_144" data-name="Path 144" d="M1296.593,746.157l3.443,1.149a1.821,1.821,0,0,1-1.151,3.456l-3.447-1.147a1.823,1.823,0,0,1,1.151-3.46Z" transform="translate(-979.224 -658.068)" fill="#8ce8f4"/>
        <path id="Path_145" data-name="Path 145" d="M1314.629,752.161l3.445,1.14a1.814,1.814,0,1,1-1.136,3.446l-3.451-1.136a1.817,1.817,0,0,1,1.137-3.451Z" transform="translate(-985.781 -660.25)" fill="#8ce8f4"/>
        <path id="Path_146" data-name="Path 146" d="M1332.682,758.1l3.449,1.126a1.808,1.808,0,1,1-1.117,3.438l-3.456-1.123a1.81,1.81,0,1,1,1.119-3.442Z" transform="translate(-992.344 -662.41)" fill="#8ce8f4"/>
        <path id="Path_147" data-name="Path 147" d="M1350.758,763.966l3.454,1.107a1.8,1.8,0,1,1-1.094,3.432l-3.462-1.1a1.8,1.8,0,0,1,1.1-3.435Z" transform="translate(-998.916 -664.54)" fill="#8ce8f4"/>
        <path id="Path_148" data-name="Path 148" d="M1368.864,769.721l3.461,1.084a1.795,1.795,0,1,1-1.067,3.427l-3.469-1.083a1.8,1.8,0,1,1,1.07-3.43Z" transform="translate(-1005.5 -666.632)" fill="#8ce8f4"/>
        <path id="Path_149" data-name="Path 149" d="M1387.009,775.353l3.469,1.059a1.788,1.788,0,1,1-1.038,3.422l-3.477-1.058a1.79,1.79,0,0,1,1.042-3.424Z" transform="translate(-1012.099 -668.679)" fill="#8ce8f4"/>
        <path id="Path_150" data-name="Path 150" d="M1405.193,780.856l3.476,1.035a1.781,1.781,0,1,1-1.011,3.416l-3.484-1.033a1.783,1.783,0,1,1,1.014-3.419Z" transform="translate(-1018.712 -670.68)" fill="#8ce8f4"/>
        <path id="Path_151" data-name="Path 151" d="M1423.415,786.231l3.484,1.011a1.774,1.774,0,1,1-.983,3.41l-3.492-1.009a1.777,1.777,0,0,1,.986-3.414Z" transform="translate(-1025.339 -672.633)" fill="#8ce8f4"/>
        <path id="Path_152" data-name="Path 152" d="M1441.675,791.478l3.49.986a1.768,1.768,0,1,1-.956,3.4l-3.5-.984a1.769,1.769,0,1,1,.958-3.406Z" transform="translate(-1031.979 -674.541)" fill="#8ce8f4"/>
        <path id="Path_153" data-name="Path 153" d="M1459.971,796.6l3.5.961a1.761,1.761,0,1,1-.928,3.4l-3.505-.96a1.763,1.763,0,1,1,.931-3.4Z" transform="translate(-1038.633 -676.402)" fill="#8ce8f4"/>
        <path id="Path_154" data-name="Path 154" d="M1478.3,801.587l3.5.937a1.754,1.754,0,1,1-.9,3.39l-3.512-.935a1.756,1.756,0,1,1,.9-3.394Z" transform="translate(-1045.299 -678.216)" fill="#8ce8f4"/>
        <path id="Path_155" data-name="Path 155" d="M1496.669,806.448l3.51.912a1.747,1.747,0,1,1-.874,3.384l-3.519-.911a1.749,1.749,0,1,1,.877-3.387Z" transform="translate(-1051.978 -679.983)" fill="#8ce8f4"/>
        <path id="Path_156" data-name="Path 156" d="M1515.069,811.18l3.517.888a1.741,1.741,0,1,1-.846,3.377l-3.525-.885a1.743,1.743,0,1,1,.849-3.38Z" transform="translate(-1058.67 -681.703)" fill="#8ce8f4"/>
        <path id="Path_157" data-name="Path 157" d="M1533.5,815.783l3.523.863a1.734,1.734,0,1,1-.82,3.37l-3.531-.86a1.736,1.736,0,1,1,.822-3.374Z" transform="translate(-1065.373 -683.376)" fill="#8ce8f4"/>
        <path id="Path_158" data-name="Path 158" d="M1551.967,820.256l3.529.838a1.728,1.728,0,1,1-.793,3.363l-3.537-.837a1.729,1.729,0,1,1,.8-3.366Z" transform="translate(-1072.087 -685.002)" fill="#8ce8f4"/>
        <path id="Path_159" data-name="Path 159" d="M1570.463,824.6l3.534.813a1.721,1.721,0,1,1-.766,3.355l-3.543-.811a1.723,1.723,0,1,1,.769-3.359Z" transform="translate(-1078.813 -686.581)" fill="#8ce8f4"/>
        <path id="Path_160" data-name="Path 160" d="M1588.988,828.813l3.54.788a1.714,1.714,0,1,1-.739,3.347l-3.549-.786a1.716,1.716,0,1,1,.742-3.35Z" transform="translate(-1085.55 -688.112)" fill="#8ce8f4"/>
        <path id="Path_161" data-name="Path 161" d="M1607.543,832.9l3.546.763a1.708,1.708,0,1,1-.714,3.34l-3.554-.761a1.709,1.709,0,0,1,.717-3.343Z" transform="translate(-1092.298 -689.596)" fill="#8ce8f4"/>
        <path id="Path_162" data-name="Path 162" d="M1626.127,836.848l3.551.739a1.7,1.7,0,1,1-.687,3.331l-3.559-.736a1.7,1.7,0,1,1,.69-3.335Z" transform="translate(-1099.055 -691.033)" fill="#8ce8f4"/>
        <path id="Path_163" data-name="Path 163" d="M1644.737,840.669l3.556.714a1.694,1.694,0,1,1-.661,3.323l-3.564-.711a1.7,1.7,0,0,1,.664-3.326Z" transform="translate(-1105.823 -692.422)" fill="#8ce8f4"/>
        <path id="Path_164" data-name="Path 164" d="M1663.373,844.36l3.562.689a1.687,1.687,0,1,1-.635,3.314l-3.569-.686a1.689,1.689,0,1,1,.637-3.317Z" transform="translate(-1112.599 -693.764)" fill="#8ce8f4"/>
        <path id="Path_165" data-name="Path 165" d="M1682.039,847.918l3.57.66a1.681,1.681,0,1,1-.6,3.307l-3.582-.658a1.683,1.683,0,0,1,.608-3.31Z" transform="translate(-1119.387 -695.057)" fill="#8ce8f4"/>
        <path id="Path_166" data-name="Path 166" d="M1700.733,851.288l3.571.608.009,0a1.674,1.674,0,0,1-.561,3.3l-3.588-.607a1.676,1.676,0,1,1,.56-3.3h.01Z" transform="translate(-1126.188 -696.282)" fill="#8ce8f4"/>
        <path id="Path_167" data-name="Path 167" d="M1719.461,854.351l3.579.536.011,0a1.667,1.667,0,0,1-.491,3.3l-3.6-.536a1.669,1.669,0,1,1,.49-3.3h0Z" transform="translate(-1133.005 -697.397)" fill="#8ce8f4"/>
        <path id="Path_168" data-name="Path 168" d="M1738.243,856.992l3.589.439.015,0a1.66,1.66,0,0,1-.4,3.3l-3.619-.439a1.662,1.662,0,1,1,.4-3.3h0Z" transform="translate(-1139.845 -698.359)" fill="#8ce8f4"/>
        <path id="Path_169" data-name="Path 169" d="M1757.082,859.087l3.6.32h.018a1.654,1.654,0,0,1-.291,3.3l-3.639-.32a1.656,1.656,0,0,1,.289-3.3h.02Z" transform="translate(-1146.71 -699.122)" fill="#8ce8f4"/>
        <path id="Path_170" data-name="Path 170" d="M1775.985,860.51l3.6.176h.022a1.647,1.647,0,0,1-.159,3.29l-3.648-.174a1.649,1.649,0,0,1,.157-3.295h.023Z" transform="translate(-1153.601 -699.641)" fill="#8ce8f4"/>
        <path id="Path_171" data-name="Path 171" d="M1794.9,861.135l3.6.008h.025a1.64,1.64,0,0,1-.006,3.281l-3.652,0a1.642,1.642,0,0,1,0-3.284h.026Z" transform="translate(-1160.502 -699.869)" fill="#8ce8f4"/>
        <path id="Path_172" data-name="Path 172" d="M1813.812,860.73l3.6-.183h.028a1.633,1.633,0,0,1,.167,3.262l-3.652.19a1.636,1.636,0,0,1-.169-3.267h.029Z" transform="translate(-1167.404 -699.654)" fill="#8ce8f4"/>
        <path id="Path_173" data-name="Path 173" d="M1832.668,859.242l3.582-.406.031,0a1.627,1.627,0,0,1,.369,3.232l-3.644.418a1.629,1.629,0,1,1-.371-3.236h0Z" transform="translate(-1174.291 -699.028)" fill="#8ce8f4"/>
        <path id="Path_174" data-name="Path 174" d="M1851.41,856.557l3.541-.632.03-.006a1.62,1.62,0,0,1,.572,3.189l-3.6.647a1.622,1.622,0,0,1-.574-3.193h0Z" transform="translate(-1181.139 -697.965)" fill="#8ce8f4"/>
        <path id="Path_175" data-name="Path 175" d="M1869.94,852.7l3.5-.852.029-.007a1.613,1.613,0,0,1,.765,3.135l-3.555.87a1.616,1.616,0,0,1-.768-3.138h0Z" transform="translate(-1187.908 -696.477)" fill="#8ce8f4"/>
        <path id="Path_176" data-name="Path 176" d="M1888.212,847.714l3.441-1.063.027-.008a1.606,1.606,0,0,1,.951,3.069l-3.5,1.084a1.609,1.609,0,1,1-.953-3.073h0Z" transform="translate(-1194.582 -694.578)" fill="#8ce8f4"/>
        <path id="Path_177" data-name="Path 177" d="M1906.16,841.638l3.372-1.267.027-.01a1.6,1.6,0,0,1,1.126,3l-3.424,1.289a1.6,1.6,0,1,1-1.13-3h0Z" transform="translate(-1201.136 -692.285)" fill="#8ce8f4"/>
        <path id="Path_178" data-name="Path 178" d="M1923.728,834.52l3.289-1.458.025-.011a1.593,1.593,0,0,1,1.293,2.912L1925,837.448a1.6,1.6,0,1,1-1.3-2.915h0Z" transform="translate(-1207.552 -689.617)" fill="#8ce8f4"/>
        <path id="Path_179" data-name="Path 179" d="M1940.856,826.406l3.2-1.645.024-.012a1.586,1.586,0,0,1,1.451,2.821l-3.25,1.674a1.589,1.589,0,0,1-1.454-2.825h0Z" transform="translate(-1213.805 -686.588)" fill="#8ce8f4"/>
        <path id="Path_180" data-name="Path 180" d="M1957.507,817.337l3.11-1.824.023-.013a1.58,1.58,0,0,1,1.6,2.725l-3.154,1.854a1.582,1.582,0,0,1-1.6-2.728h0Z" transform="translate(-1219.884 -683.213)" fill="#8ce8f4"/>
        <path id="Path_181" data-name="Path 181" d="M1973.647,807.349l3.007-2,.021-.014a1.573,1.573,0,0,1,1.741,2.621l-3.048,2.027a1.575,1.575,0,1,1-1.744-2.623h0Z" transform="translate(-1225.775 -679.505)" fill="#8ce8f4"/>
        <path id="Path_182" data-name="Path 182" d="M1989.215,796.494l2.89-2.154.02-.015a1.567,1.567,0,0,1,1.874,2.511l-2.929,2.188a1.569,1.569,0,0,1-1.878-2.513h0Z" transform="translate(-1231.457 -675.487)" fill="#8ce8f4"/>
        <path id="Path_183" data-name="Path 183" d="M2004.167,784.813l2.769-2.308.02-.017a1.56,1.56,0,0,1,2,2.4l-2.806,2.344a1.562,1.562,0,0,1-2-2.4h0Z" transform="translate(-1236.914 -671.168)" fill="#8ce8f4"/>
        <path id="Path_184" data-name="Path 184" d="M2018.468,772.339l2.64-2.455.019-.017a1.553,1.553,0,0,1,2.117,2.273l-2.674,2.493a1.555,1.555,0,1,1-2.121-2.274h0Z" transform="translate(-1242.133 -666.564)" fill="#8ce8f4"/>
        <path id="Path_185" data-name="Path 185" d="M2032.074,759.112l2.5-2.6.018-.018a1.547,1.547,0,0,1,2.228,2.146l-2.535,2.635a1.548,1.548,0,0,1-2.232-2.147h0Z" transform="translate(-1247.099 -661.687)" fill="#8ce8f4"/>
        <path id="Path_186" data-name="Path 186" d="M2044.944,745.166l2.356-2.729.017-.018a1.54,1.54,0,0,1,2.331,2.011l-2.385,2.769a1.542,1.542,0,1,1-2.336-2.013h0Z" transform="translate(-1251.795 -656.551)" fill="#8ce8f4"/>
        <path id="Path_187" data-name="Path 187" d="M2057.031,730.537l2.205-2.859.016-.02a1.533,1.533,0,0,1,2.429,1.871l-2.233,2.9a1.535,1.535,0,0,1-2.433-1.872h0Z" transform="translate(-1256.206 -651.166)" fill="#8ce8f4"/>
        <path id="Path_188" data-name="Path 188" d="M2068.3,715.261l2.039-2.975.016-.022a1.526,1.526,0,0,1,2.519,1.725l-2.065,3.02a1.528,1.528,0,0,1-2.523-1.726h0Z" transform="translate(-1260.318 -645.55)" fill="#8ce8f4"/>
        <path id="Path_189" data-name="Path 189" d="M2078.683,699.379l1.864-3.084.013-.022a1.52,1.52,0,0,1,2.6,1.571l-1.888,3.131a1.522,1.522,0,0,1-2.606-1.571h0Z" transform="translate(-1264.109 -639.716)" fill="#8ce8f4"/>
        <path id="Path_190" data-name="Path 190" d="M2088.136,682.949l1.68-3.184.012-.024a1.513,1.513,0,0,1,2.677,1.411l-1.7,3.233a1.515,1.515,0,1,1-2.682-1.411v0Z" transform="translate(-1267.559 -633.684)" fill="#8ce8f4"/>
        <path id="Path_191" data-name="Path 191" d="M2096.614,666l1.488-3.276.011-.025a1.506,1.506,0,0,1,2.744,1.244l-1.506,3.327a1.508,1.508,0,1,1-2.748-1.244v0Z" transform="translate(-1270.654 -627.464)" fill="#8ce8f4"/>
        <path id="Path_192" data-name="Path 192" d="M2104.063,648.572l1.287-3.365.01-.026a1.5,1.5,0,0,1,2.8,1.07l-1.3,3.419a1.5,1.5,0,1,1-2.806-1.07h0Z" transform="translate(-1273.373 -621.073)" fill="#8ce8f4"/>
        <path id="Path_193" data-name="Path 193" d="M2110.436,630.727l1.076-3.438.008-.027a1.493,1.493,0,0,1,2.85.89l-1.088,3.493a1.495,1.495,0,1,1-2.854-.889v0Z" transform="translate(-1275.7 -614.533)" fill="#8ce8f4"/>
        <path id="Path_194" data-name="Path 194" d="M2115.681,612.527l.854-3.5.007-.027a1.486,1.486,0,0,1,2.888.7l-.864,3.553a1.488,1.488,0,1,1-2.892-.7v0Z" transform="translate(-1277.615 -607.869)" fill="#8ce8f4"/>
      </g>
      <g id="Group_69" data-name="Group 69" transform="translate(419.626 392.501)">
        <path id="Path_195" data-name="Path 195" d="M858.5,747.787l2.976-2.108a.649.649,0,0,1,.75,1.06l-.01.007-.016.011-3,2.017-.014.009a.6.6,0,0,1-.687-1Z" transform="translate(-858.241 -718.697)" fill="#8ce8f4"/>
        <path id="Path_196" data-name="Path 196" d="M874.337,737.379l3.144-1.846a.8.8,0,1,1,.806,1.372l-.013.008-.021.012-3.154,1.75-.017.01a.751.751,0,0,1-.745-1.305Z" transform="translate(-863.953 -715.015)" fill="#8ce8f4"/>
        <path id="Path_197" data-name="Path 197" d="M891.021,728.381l3.3-1.571a.918.918,0,0,1,.79,1.658l-.011,0-.025.011-3.285,1.493-.021.009a.885.885,0,0,1-.747-1.6Z" transform="translate(-869.965 -711.853)" fill="#8ce8f4"/>
        <path id="Path_198" data-name="Path 198" d="M908.432,720.812l3.414-1.3a1.028,1.028,0,1,1,.733,1.92l-.012.005-.027.009-3.393,1.225-.022.008a.995.995,0,0,1-.692-1.865Z" transform="translate(-876.24 -709.209)" fill="#8ce8f4"/>
        <path id="Path_199" data-name="Path 199" d="M926.4,714.642,929.9,713.6a1.137,1.137,0,0,1,.646,2.181l-.014,0-.03.008-3.475.961-.024.006a1.1,1.1,0,0,1-.608-2.122Z" transform="translate(-882.711 -707.072)" fill="#8ce8f4"/>
        <path id="Path_200" data-name="Path 200" d="M944.786,709.844l3.573-.779a1.246,1.246,0,1,1,.531,2.435l-.016,0-.032.006-3.535.7-.026.006a1.213,1.213,0,0,1-.5-2.376Z" transform="translate(-889.332 -705.43)" fill="#8ce8f4"/>
        <path id="Path_201" data-name="Path 201" d="M963.485,706.383l3.62-.527a1.356,1.356,0,1,1,.391,2.683l-.017,0-.034.005L963.87,709l-.027,0a1.323,1.323,0,0,1-.358-2.621Z" transform="translate(-896.06 -704.269)" fill="#8ce8f4"/>
        <path id="Path_202" data-name="Path 202" d="M982.4,704.255l3.649-.271a1.433,1.433,0,0,1,.212,2.858h-.008l-.036,0-3.6.227-.028,0a1.413,1.413,0,0,1-.194-2.819Z" transform="translate(-902.866 -703.593)" fill="#8ce8f4"/>
        <path id="Path_203" data-name="Path 203" d="M1001.433,703.407l3.656-.035a1.5,1.5,0,1,1,.029,3h-.045l-3.6-.005h-.028a1.479,1.479,0,0,1-.013-2.959Z" transform="translate(-909.724 -703.372)" fill="#8ce8f4"/>
        <path id="Path_204" data-name="Path 204" d="M1020.49,703.659l3.658.192a1.566,1.566,0,1,1-.164,3.128h-.008l-.038,0-3.6-.229-.029,0a1.546,1.546,0,0,1,.179-3.087Z" transform="translate(-916.588 -703.475)" fill="#8ce8f4"/>
        <path id="Path_205" data-name="Path 205" d="M1039.5,705.066l3.636.413a1.633,1.633,0,1,1-.368,3.245h-.009l-.038,0-3.574-.446-.029,0a1.613,1.613,0,0,1,.382-3.2Z" transform="translate(-923.433 -703.984)" fill="#8ce8f4"/>
        <path id="Path_206" data-name="Path 206" d="M1058.39,707.615l3.606.627a1.7,1.7,0,0,1-.583,3.35l-.009,0-.039-.007-3.541-.657-.029-.005a1.679,1.679,0,0,1,.594-3.306Z" transform="translate(-930.231 -704.904)" fill="#8ce8f4"/>
        <path id="Path_207" data-name="Path 207" d="M1077.1,711.277l3.568.84a1.767,1.767,0,0,1-.81,3.439l-.01,0-.039-.01-3.5-.865-.03-.007a1.747,1.747,0,0,1,.819-3.4Z" transform="translate(-936.961 -706.227)" fill="#8ce8f4"/>
        <path id="Path_208" data-name="Path 208" d="M1095.557,716.033l3.509,1.038a1.834,1.834,0,1,1-1.04,3.517l-.01,0-.037-.011-3.443-1.06-.027-.008a1.814,1.814,0,0,1,1.047-3.473Z" transform="translate(-943.602 -707.944)" fill="#8ce8f4"/>
        <path id="Path_209" data-name="Path 209" d="M1113.722,721.774l3.451,1.214a1.9,1.9,0,1,1-1.261,3.585l-.01,0-.036-.013-3.385-1.233-.026-.009a1.88,1.88,0,0,1,1.267-3.54Z" transform="translate(-950.136 -710.018)" fill="#8ce8f4"/>
        <path id="Path_210" data-name="Path 210" d="M1131.575,728.442l3.383,1.391a1.934,1.934,0,0,1-1.471,3.577l-.006,0-.025-.01-3.328-1.382-.025-.01a1.927,1.927,0,0,1,1.472-3.562Z" transform="translate(-956.564 -712.425)" fill="#8ce8f4"/>
        <path id="Path_211" data-name="Path 211" d="M1149.1,735.984l3.315,1.542a1.955,1.955,0,1,1-1.65,3.546l-.007,0-.023-.011-3.262-1.532-.024-.011a1.949,1.949,0,0,1,1.651-3.531Z" transform="translate(-962.888 -715.151)" fill="#8ce8f4"/>
        <path id="Path_212" data-name="Path 212" d="M1166.262,744.293l3.245,1.68a1.978,1.978,0,0,1-1.819,3.513l-.006,0-.022-.011-3.2-1.67-.022-.011a1.971,1.971,0,0,1,1.819-3.5Z" transform="translate(-969.085 -718.155)" fill="#8ce8f4"/>
        <path id="Path_213" data-name="Path 213" d="M1183.065,753.3l3.175,1.807a2,2,0,1,1-1.978,3.477l-.006,0-.02-.011-3.129-1.8-.02-.011a1.994,1.994,0,0,1,1.978-3.462Z" transform="translate(-975.152 -721.414)" fill="#8ce8f4"/>
        <path id="Path_214" data-name="Path 214" d="M1199.5,762.953l3.105,1.922a2.022,2.022,0,1,1-2.127,3.439l-.006,0-.018-.011-3.063-1.91-.018-.011a2.016,2.016,0,0,1,2.127-3.424Z" transform="translate(-981.089 -724.905)" fill="#8ce8f4"/>
        <path id="Path_215" data-name="Path 215" d="M1215.585,773.182l3.037,2.025a2.044,2.044,0,1,1-2.267,3.4l-.006,0-.017-.011-3-2.013-.016-.011a2.037,2.037,0,0,1,2.266-3.387Z" transform="translate(-986.897 -728.605)" fill="#8ce8f4"/>
        <path id="Path_216" data-name="Path 216" d="M1231.315,783.932l2.968,2.115a2.066,2.066,0,1,1-2.4,3.365l-.006,0-.015-.011-2.93-2.1-.016-.011a2.06,2.06,0,0,1,2.4-3.35Z" transform="translate(-992.579 -732.496)" fill="#8ce8f4"/>
        <path id="Path_217" data-name="Path 217" d="M1246.7,795.143l2.909,2.2a2.088,2.088,0,1,1-2.52,3.331l-.006-.005-.013-.01-2.874-2.191-.013-.01a2.082,2.082,0,0,1,2.518-3.315Z" transform="translate(-998.136 -736.554)" fill="#8ce8f4"/>
        <path id="Path_218" data-name="Path 218" d="M1261.771,806.789l2.851,2.278a2.11,2.11,0,1,1-2.635,3.3l-.006,0-.013-.01-2.818-2.269-.013-.01a2.1,2.1,0,0,1,2.633-3.282Z" transform="translate(-1003.583 -740.77)" fill="#8ce8f4"/>
        <path id="Path_219" data-name="Path 219" d="M1276.539,818.813l2.795,2.346a2.133,2.133,0,1,1-2.742,3.267l-.006-.005-.011-.01-2.764-2.337-.011-.01a2.126,2.126,0,0,1,2.739-3.252Z" transform="translate(-1008.92 -745.124)" fill="#8ce8f4"/>
        <path id="Path_220" data-name="Path 220" d="M1291.025,831.18l2.74,2.4a2.154,2.154,0,0,1-2.842,3.239l-.006-.005-.01-.009-2.711-2.4-.01-.009a2.148,2.148,0,0,1,2.839-3.224Z" transform="translate(-1014.157 -749.604)" fill="#8ce8f4"/>
        <path id="Path_221" data-name="Path 221" d="M1305.232,843.866l2.677,2.46a2.143,2.143,0,1,1-2.9,3.157l0,0-2.671-2.435-.008-.008a2.15,2.15,0,0,1,2.9-3.177Z" transform="translate(-1019.302 -754.201)" fill="#8ce8f4"/>
        <path id="Path_222" data-name="Path 222" d="M1319.194,856.828l2.637,2.5a2.121,2.121,0,0,1-2.92,3.077h0l-2.632-2.48-.007-.007a2.128,2.128,0,0,1,2.918-3.1Z" transform="translate(-1024.379 -758.903)" fill="#8ce8f4"/>
        <path id="Path_223" data-name="Path 223" d="M1332.953,870l2.6,2.538a2.1,2.1,0,1,1-2.93,3h0l-2.6-2.517-.006-.006a2.1,2.1,0,1,1,2.928-3.025Z" transform="translate(-1029.383 -763.682)" fill="#8ce8f4"/>
        <path id="Path_224" data-name="Path 224" d="M1346.538,883.342l2.573,2.566a2.076,2.076,0,0,1-2.932,2.939h0l-2.574-2.548,0,0a2.082,2.082,0,1,1,2.93-2.96Z" transform="translate(-1034.326 -768.525)" fill="#8ce8f4"/>
        <path id="Path_225" data-name="Path 225" d="M1359.978,896.817l2.55,2.589a2.053,2.053,0,0,1-2.923,2.885l-2.553-2.573a2.06,2.06,0,1,1,2.917-2.909Z" transform="translate(-1039.217 -773.418)" fill="#8ce8f4"/>
        <path id="Path_226" data-name="Path 226" d="M1373.314,910.4l2.534,2.6a2.031,2.031,0,0,1-2.907,2.835l-2.539-2.59a2.037,2.037,0,1,1,2.9-2.856Z" transform="translate(-1044.073 -778.351)" fill="#8ce8f4"/>
        <path id="Path_227" data-name="Path 227" d="M1386.578,924.051l2.525,2.613a2.008,2.008,0,0,1-2.885,2.795l-2.531-2.6a2.015,2.015,0,1,1,2.886-2.813Z" transform="translate(-1048.903 -783.311)" fill="#8ce8f4"/>
        <path id="Path_228" data-name="Path 228" d="M1399.8,937.74l2.521,2.616a1.986,1.986,0,0,1-2.855,2.762l-2.53-2.607a1.992,1.992,0,1,1,2.858-2.776Z" transform="translate(-1053.721 -788.286)" fill="#8ce8f4"/>
        <path id="Path_229" data-name="Path 229" d="M1413.024,951.433l2.523,2.611a1.963,1.963,0,0,1-2.818,2.734l-2.535-2.6a1.97,1.97,0,0,1,2.823-2.748Z" transform="translate(-1058.537 -793.262)" fill="#8ce8f4"/>
        <path id="Path_230" data-name="Path 230" d="M1426.27,965.092l2.533,2.6a1.941,1.941,0,0,1-2.774,2.715l-2.546-2.6a1.947,1.947,0,1,1,2.78-2.727Z" transform="translate(-1063.365 -798.228)" fill="#8ce8f4"/>
        <path id="Path_231" data-name="Path 231" d="M1439.577,978.685l2.547,2.584a1.918,1.918,0,0,1-2.723,2.7l-2.563-2.58a1.925,1.925,0,0,1,2.731-2.713Z" transform="translate(-1068.215 -803.171)" fill="#8ce8f4"/>
        <path id="Path_232" data-name="Path 232" d="M1452.967,992.213l2.559,2.569a1.851,1.851,0,0,1-2.6,2.631l-2.6-2.548a1.872,1.872,0,0,1,2.622-2.672Z" transform="translate(-1073.114 -808.093)" fill="#8ce8f4"/>
        <path id="Path_233" data-name="Path 233" d="M1466.484,1005.628l2.586,2.539,0,.005a1.783,1.783,0,0,1-2.483,2.559l-2.625-2.519a1.8,1.8,0,0,1,2.5-2.6l.007.008Z" transform="translate(-1078.071 -812.978)" fill="#8ce8f4"/>
        <path id="Path_234" data-name="Path 234" d="M1480.162,1018.862l2.625,2.492.009.007a1.715,1.715,0,0,1-2.347,2.5l-2.669-2.476a1.735,1.735,0,0,1,2.361-2.544l.007.006Z" transform="translate(-1083.089 -817.799)" fill="#8ce8f4"/>
        <path id="Path_235" data-name="Path 235" d="M1494.083,1031.827l2.68,2.431.01.008a1.647,1.647,0,0,1-2.2,2.452l-2.726-2.418a1.667,1.667,0,1,1,2.212-2.494l.007.006Z" transform="translate(-1088.197 -822.524)" fill="#8ce8f4"/>
        <path id="Path_236" data-name="Path 236" d="M1508.31,1044.445l2.744,2.355.011.01a1.578,1.578,0,0,1-2.042,2.408l-2.793-2.343a1.6,1.6,0,1,1,2.055-2.45l.007.005Z" transform="translate(-1093.417 -827.124)" fill="#8ce8f4"/>
        <path id="Path_237" data-name="Path 237" d="M1522.9,1056.637l2.819,2.262.013.01a1.51,1.51,0,0,1-1.877,2.367l-2.87-2.25a1.531,1.531,0,0,1,1.888-2.41l.007.006Z" transform="translate(-1098.77 -831.57)" fill="#8ce8f4"/>
        <path id="Path_238" data-name="Path 238" d="M1537.892,1068.309l2.9,2.15.015.011a1.442,1.442,0,0,1-1.7,2.328l-2.957-2.139a1.463,1.463,0,0,1,1.714-2.371l.007.005Z" transform="translate(-1104.273 -835.828)" fill="#8ce8f4"/>
        <path id="Path_239" data-name="Path 239" d="M1553.345,1079.354l2.993,2.021.017.011a1.369,1.369,0,0,1-1.516,2.279l-3.054-2a1.394,1.394,0,0,1,1.527-2.333l.011.006Z" transform="translate(-1109.944 -839.858)" fill="#8ce8f4"/>
        <path id="Path_240" data-name="Path 240" d="M1569.3,1089.7l3.089,1.868.018.011a1.257,1.257,0,0,1-1.281,2.162l-3.159-1.831a1.29,1.29,0,1,1,1.294-2.233l.015.008Z" transform="translate(-1115.817 -843.637)" fill="#8ce8f4"/>
        <path id="Path_241" data-name="Path 241" d="M1585.792,1099.181l3.193,1.681.02.01a1.145,1.145,0,0,1-1.048,2.037l-3.263-1.641a1.179,1.179,0,1,1,1.06-2.107l.014.008Z" transform="translate(-1121.891 -847.098)" fill="#8ce8f4"/>
        <path id="Path_242" data-name="Path 242" d="M1602.834,1107.616l3.3,1.463.021.009a1.034,1.034,0,0,1-.82,1.9l-3.37-1.418a1.067,1.067,0,1,1,.828-1.968l.013.005Z" transform="translate(-1128.164 -850.178)" fill="#8ce8f4"/>
        <path id="Path_243" data-name="Path 243" d="M1620.427,1114.84l3.4,1.209.021.008a.922.922,0,0,1-.6,1.743l-3.464-1.16a.956.956,0,1,1,.607-1.813l.012,0Z" transform="translate(-1134.636 -852.816)" fill="#8ce8f4"/>
        <path id="Path_244" data-name="Path 244" d="M1638.517,1120.677l3.487.935.02.006a.8.8,0,0,1-.394,1.547l-3.55-.859a.843.843,0,1,1,.4-1.639l.016,0Z" transform="translate(-1141.286 -854.947)" fill="#8ce8f4"/>
        <path id="Path_245" data-name="Path 245" d="M1657.056,1125.019l3.559.621.018,0a.648.648,0,0,1-.208,1.28l-3.61-.54a.693.693,0,1,1,.205-1.371l.013,0Z" transform="translate(-1148.111 -856.532)" fill="#8ce8f4"/>
      </g>
    </g>
  </g>
</svg>
