<svg xmlns="http://www.w3.org/2000/svg" width="505.46" height="617.028" viewBox="0 0 505.46 617.028">
  <g id="north-america" transform="translate(-410.078 -7620.957)">
    <g id="Group_566" data-name="Group 566" transform="translate(127.745 201.825)" opacity="0.07">
      <path id="Path_8876" data-name="Path 8876" d="M906.133,8373.77c-.915-.051-7.261,2.3-7.261,2.3s-.933,1.334-1.937,3.011-1.728-.323,0,3.118,2.387,4.318,0,5.216S891,8386,891,8386a5.552,5.552,0,0,1-2.883,0c-1.6-.421-.739-.828-3.25-1.181a12.057,12.057,0,0,0-4.023,0s-1.89,1.176-2.22-1.647-.271-2.09,0-4.09-2.441-4.071,0-3.011,5.461,2.934,6.244,3.011,2.639.984,3.25,0a3.714,3.714,0,0,1,2.883-1.376c.734.02.168.314,1.884,0s6.628-5.85,7.048-6.06,2.625-1.177,3.329-1.53-1.366-.5,2.013-.545,3.613-.374,5.95,0,3.566.729,4.732.977,2.676.1,3.312.612.779.1,1.053,1.23.87,1.474.977,2.7-.437,1.344-1.535,2.237-1.435,1.673-1.793,1.758-.336.372-.759.9-.291.64-1.763.544-2.516-1.395-1.971-2.366,1-1.016,1.353-2.086,1.169-1.387.618-1.64-2.093.216-2.547,0-.986.4-1.678,0a8.2,8.2,0,0,0-2.743-1.377,3.917,3.917,0,0,1-1.716-.664Z" transform="translate(-225.432 -352.509)" fill="none" stroke="#151515" stroke-linecap="round" stroke-linejoin="round" stroke-width="2"/>
      <path id="Path_8877" data-name="Path 8877" d="M863.986,8375.593l-1.96-1.694s.762-.592,0-1.036a7.93,7.93,0,0,1-1.6-1.437,2.789,2.789,0,0,0-1.117-.93c-.746-.342-1.281-.762-1.69-.907s.125-.268-.895,0-1.656.6-2.768.907-4-.261-5.721,0a8.464,8.464,0,0,1-3.26,0c-1.138-.156-.793-.605-2.694,0s-2.22-.488-1.865.93a12.021,12.021,0,0,0,1.189,3.178c.481.85-.172.533,0,1.609s2.589.117,3.37,0-.159-1.277,1.373-.62,1.369.128,3.554,1.182a27.064,27.064,0,0,1,4.784,2.429,33.278,33.278,0,0,0,4.034,2.689c1.03.453,1.392.118,1.706.705a3.375,3.375,0,0,0,1.6,1.5c.56.149.319-.256,1.135,0a2.169,2.169,0,0,0,1.4,0h.41" transform="translate(-211.279 -352.522)" fill="none" stroke="#151515" stroke-linecap="round" stroke-linejoin="round" stroke-width="2"/>
      <path id="Path_8878" data-name="Path 8878" d="M832.521,8352.826a4.021,4.021,0,0,0-.484-1.077c-.213-.2.175-.665-.87-1.119s-3.041-1.513-3.445-1.671a17.488,17.488,0,0,1-2.038-.921,24.254,24.254,0,0,1-2.112-1.354c-.62-.344-1.85-1.112-2.314-1.34a11.387,11.387,0,0,1-1.933-1.207c-.353-.339-.786-.674-.883-.982s-1.386-.26,0-.855,1.711,1.83,3.678-1.475,2.069-4.09,2.1-4.3-.183-.39,0-.848-.235-.25.369-1.014a16.125,16.125,0,0,1,4.855-2.6c.245.14,1.164.585,1.164.585s.675,1.146,1.915-.225,4.034-5.577,4.034-5.577l1.032-1.327s-.827-.105.687,0a5.808,5.808,0,0,1,1.84.223c.37.123.553.328,1.96-.223a18.422,18.422,0,0,0,2.684-1.248,13.641,13.641,0,0,0,1.961-1.275,13.125,13.125,0,0,1,1.315-.858s.549-.265,1.124,1.249.928,1.295.576,2.355-.93,3.151-1.041,3.812-1,2.4-1.192,3.517-.347.779,0,3.1a10.507,10.507,0,0,1,0,4.657,17.4,17.4,0,0,1-.783,2.814c-.43,1.031-1.124-.393-.381,2.66a14.7,14.7,0,0,0,1.164,3.678,4.641,4.641,0,0,0,.532,1.107" transform="translate(-202.749 -334.573)" fill="none" stroke="#151515" stroke-linecap="round" stroke-linejoin="round" stroke-width="2"/>
      <path id="Path_8879" data-name="Path 8879" d="M644.733,8026.434l-1.046-2.052s-3.385-.912-3.748-.932a13.492,13.492,0,0,0-3.845-.424,59.888,59.888,0,0,0-7.133,0c-3.312.282-4.827.136-8.643,1.356s-5.455,2-7.463,2.678a19.475,19.475,0,0,1-4.76,1.1c-.558-.056-.159-.43-1.643-.41s-3.991,0-3.991,0-1.624-.625-.449-1.317a8.239,8.239,0,0,0,2.656-2.44,13.4,13.4,0,0,0,1.784-2.989c.6-1.473,1.127-.546,1.127-3.326s.131-6.016,0-6.849-.832-2.992-.776-3.224.512-.74.436-1.125.409-2.777.857-2.386.214,1.045.885,2.386,1.729-2.663,1.729-2.663,1.056-4.1,1.008-4.334.332-.608-.3-.959-4.8.288-3.32-1.652,5.153-6.021,5.153-6.59a6.966,6.966,0,0,1,.5-2.6c.369-.7.1-.492.652-1.667s.666-1.409.666-1.409h-10.4l-13.619,5.675-3.1,12.615-6.51,8.213-6.957-.666-14.534,4.841-7.5-3.359h-7.209l-12.9-24.9-.813-24.973,3.412-2.032,1.421-3.355-1.851-9.78-2.169-1.179,2.169-.758,1.851-6.668,4.2-1.728-.5-2.1,4.029.8,6.655-3.9v-5.451l4.049,1.671,15.841-1.671s2.816-2.276,3.227-2.2,7.235,4.793,7.235,4.793l2.36-2.114h1.887v-2.679l3.609.9,2.5,2.969,1.4-.78-3.9-3.93,1.893-1.228-8.445-2.071,16.64-3.559.627-3.712,2.367,3.155,4.367-2.2,1.484,1.248,9.421-1.248,1.74,4.305,6.845-4.305h4.037l8.673,6.851v8.4l4.588-.927-2.737,4.777,2.737,2.646,2.913-.613,2.474,7.722,5.262,1.408v3.461l3.027-1.706,1.6-12.918-16.446-31.188,4.972-8.781-1.9-3.732,3.009,1.672,9.5-14.468,10.873-11.545h-2.32l1.7-3.833h-3.822l.927-1.283h6.053l1.356-4.14-.908-.751-.962,2.916-.553-2.916-3.794,1.8-.656-1.048,3.442-3.9,2.074,1.265-2.54-5.293h-6.486l.472-1.925h1.574l-.938-1.743h1.865v-3.229l-8.279-1.884.918-3.16,6.95,3.16-5.284-9.151,4.767-3.236-.938,5.6,5.377,5.061,2.027-3.786-5-9.1,5.516,3.8,1.356-6.9-1.87-4.86,2.723-6.519,10.958-5.8-.581-4.314,3.119,2.21,3.123-3.221-5.662-2.729L683.6,7783.1l3.119-1.591-.632-3.042h2.936l-.383-5.62,2.1-1.286h3.828l2.438-4.272-2.438-2.838,1.727-.55,3.206-.594a11.286,11.286,0,0,0,1.149-2.075c.3-.862,3.4-5.536,3.4-5.536a4.79,4.79,0,0,1,1.3-1.61c.7-.43,1.547-2.508,1.338-.7s-1.038,3.5-.928,4.222-.538,2.274,2.187,0,3.327-2.7,3.327-2.7v.784s1.313-1.49.927,0,.713,3.4-.927,3.643-5.811,1.84-5.924,2.308a5.3,5.3,0,0,1-.738,2.254c-.819,1.692-1.263.5-1.421,2.62s-.556,3.229.856,4.528,3.652,1.123,3.9,1.8,2.16-3.611,2.16-3.611v-5.928s2.094-1.972,2.094-1.661,1.992.526,1.992.526-.412-2.638,0-2.833,1.221.731,3.34-1.729,3.192-3.307,3.518-4.222.509-.712,1.377-1.976-4.465-3.077-4.465-3.077-3.836,4.094-4.785,4.261a12.625,12.625,0,0,1-3.739.4,4.771,4.771,0,0,1-2.317-1.584l-3.93-.6-2.54-3.345-1.149-1.258s-2.343,2.933-2.5,2.127-.71-7.156-.71-7.156-.4,2.654-2.16,2.52-2.68.357-3.395,0a8.577,8.577,0,0,0-2.1-.533s-.619-1.167,1.2-2.508.917-.492,3.9-2.331,4.216-2.519,3.945-3.12-3.708-4.525-4.961-4.033a65.135,65.135,0,0,0-6.639,3.519c-1.154.767-1.221-.2-3.808,2.8s-3.037,2.132-4.595,6.208-.91,3.747-2.6,7.112a69.41,69.41,0,0,1-4.065,6.8,13.735,13.735,0,0,0-.918,2.355c-.147.436,2.117-6.539,2.256-6.968s-.176-.292,0-3.244-1.471-2.81-.426-4.5,3.81-2.707,4.5-5.219a34.969,34.969,0,0,1,3.521-7.049c.255-.366-3.381-7.906,3.648-9.991s6.768-1.719,12.7-4.824,10.748-4.972,11.65-6.488,1.492-.99,1.492-.99l.668-10.08,4.759-4.37,1.509-7.864-5.1-1.283a3.173,3.173,0,0,1,0-1.941,6.692,6.692,0,0,0,0-2.7l-1.167-1.808-2.16-.9-2.187,2.705-1.712-2.705s-4.185-1.214-4.545-.747-4.934,10.374-4.934,10.374l.813-5.55a2.369,2.369,0,0,1-.813-1.372c-.024-.7,2.072-3.851,3.116-5.006s-3.024-1.864-3.945-1.655-5.1,1.655-5.1,1.655,0-.262-.762.6-3.546-1.155-4.279-2.255-.1-1.875-1.32-1.942a37.85,37.85,0,0,0-4.595,0c-.219.113-1.863-.776-1.863-.776a7.011,7.011,0,0,0-1.352-.941c-.8-.427-3.661.034-2.114-1.176a14.719,14.719,0,0,1,3.466-1.919l-.739-2.456h-6.1v-2.485l-2.458-1.832s.218-2.25-.682-.63-.878,2.943-1.174,2.462a43.986,43.986,0,0,1-1.138-4.676l-2.01,2.844v-6.191h-4.485s.755,1.135-1.023-.918a20.458,20.458,0,0,0-3.752-3.351,5.465,5.465,0,0,1-1.428-1.08c-.673-.716-1.1-7.34-1.353-1.508s-1.22,6.136,0,6.857a45.806,45.806,0,0,0,4.341,1.955v1.393l-.862,4.676s.512,1.046.862,1.6-4.341-2.377-4.341-2.377l.715,7.638s-4.063-3.782-4.513-2.633,0,5.526,0,5.526.236-5.948-2.195-5.526a27.656,27.656,0,0,0-6.381,2.633l-1.141-4.375H637.1s1.5-1.317,0-1.565-4.4-4.864-4.4-4.864h-3.653s4.659-1.838,3.653-3.071-1.91-6.2-2.378-5.277-3.719,2.725-4.52,2.657-5.256-3.4-5.767-3.737a6.052,6.052,0,0,0-2.349-.688c-.931-.12-2.669-.921-3.3-.82s-.3-1.821-2.118,0-10.9.82-10.9.82-5.282,2.007-4.4,2.862,2.386,4.694,2.848,5.129.615,1.962,1.554,3.606a22.174,22.174,0,0,1,1.476,4.062c.327.756,1.938-.64,2.481.885s1.024-.146,1.024,5.552,1.667,9.337,2.241,9.664-2.932-1.337,2.2,2.028,4.876,2.726,6.9,5.55,3.372,3.735,3.652,4.89.565.839-.686,2.775-1.95,1.47-1.8,3.574,1.736,2.408,0,5.215-4.537,2.547-5.7,4.865-4.657,3.082-.89,6.409,8.016,7.531,8.385,8.217-.124,1.469.686,3.132-1.083,6.1-1.3,6.761.789,2.266,1.3,3.12-3.652-.836-3.652-.836v3.167l-5.419-.629-1.48-4.822s-6.694-3.217-7.135-4.033-4.28-3.051-4.721-5.86-1.97-13.927-1.97-13.927l-10.046,1.39s-14.334-.83-14.9-1.39-6.18-8.129-6.685-8.412-10.787-1.607-10.787-1.607a17.894,17.894,0,0,0-3.464,1.607,8.525,8.525,0,0,1-2.75,1.291c-1.27.457-4.225-1.46-3.48-2.9s1.164-1.327.983-2.241a20.244,20.244,0,0,0-2.15-4.868c-.867-1.318-2.073-2.848-2.073-2.848a.65.65,0,0,0-.929,0c-.569.424.9,3.621-1.163,1.171s-2.592-2.911-3.171-4.14-.49-12.845,0-13.9,1.81.329,3.171-3.59.8-4.919,1.163-5.261-1.395.2,0-.68,2.291-1.042,3-1.7.173.276,1.167-2.288-2.033-2.164.983-3a6.918,6.918,0,0,0,4.209-3.566s-3.582-3.121-4.209-2.657-2.15,1.768-2.15,1.768l-.686-2.848H538.1l-1.743-5.882,13.7,6.962,1.038-3.9,5.562-3.059,3.242-6.477-15.034-2.421v-3.079l8.05.685,5.147,2.394,3.092-4.685-3.092-3.091H567.6l-4.693-4.266H567.6l3.36,3.346,2.454-10.433-6.452-4.863,2.081-3.532s.046.232-.848-.773a2.12,2.12,0,0,1-.6-1.948s-3.485.514-4.693,0-3.17-5.593-3.017-1.15,1.75,4.133,1.255,5.608.576,1.746-1.255,3.091-3.963,1.934-3.242,4.3.565,2.078,0,3.425a8.465,8.465,0,0,1-1.433,2.273s-2.421-4.26-3.051-5.7-4.872-9.9-4.872-9.9-.541-.066-1.453,5.6-9.486-2.37-9.486-2.37-.415-7.225,0-6.329,1.743-3.181,1.743-3.181-5.708-5.441-6.246-6.089-2.617-2.4-2.931-3.068-2.5,7.86-2.5,7.86,1,4.968,1.3,5.627,1.2,2.721,1.2,2.721l3.831-.773.816,3.231-.816,1.7,3.6,1.41-5.652,5.577v7.681l-4.279-3.346v-4.335l-2.308-2.752s-2.287-.582-2.857,0a2.479,2.479,0,0,0,0,2.752c.532.949-1.355,0-1.355,0s-.526,2.121-.661,2.752-9.4.925-9.4.925-5.262-2.914-6.825-3.677-5.084-2.021-5.084-2.021-.608-3.429-.936-2.871-4.28,7.644-4.28,7.644-1.644-1.016-.662.925a6.992,6.992,0,0,1,.662,5.766c-.678,2.227-1.64,2.249-1.64,2.249s-3.872-2.8-3.253-4.011,2.2-1.981,1.729-2.741-5.915-4.94-5.915-4.94l-11.75-.773-1.8-1.979s1.3-1.971,1.8-2.825-7.87-7.317-8.392-7.539-1.692-.005-2.373-.752-4.867-5.821-6.1-5.627-9.387-.825-9.387-.825l-2,.825-1.694-9.467s-8.721,2.852-10.111,3.523,3.717-5.169,2.351-4.57-10.523.166-11.653,1.047,1.3-2.985-.855-2.084-8.467,2.88-7.977,3.9a28.95,28.95,0,0,0,2.021,3.093l-9.444-15.75-12.375-16.67s-3.286-2.618-3.257-3.447-.756-2.532.54-2.681-5.388-4.522-5.388-4.522a7.479,7.479,0,0,1,1.937-1.1,15.619,15.619,0,0,0,2.912-1.814l-8.571-.868s-.2-3.588-1.507-1.646a1.331,1.331,0,0,1-2.459,0s.681-2.9-4.388-1.783-9.432,1.783-9.432,1.783l-6.318-3.257s-1.741,6.407-1.741,7-3.178,3.084-3.594,4.19-1.413,1.665,0,3.478,2.2,2.887,1.022,3.774-1.881,1.361-1.636,3.311-3.641,0-3.641,0-2.543-4.361-3.423-5.062-2.381.452-1.3-.807a22.785,22.785,0,0,1,2.974-2.681s-10.578-3.054-10.607-2.54.005,7.85-.686,7.779-2.139-3.229-2.55-2.559a12.494,12.494,0,0,0-1.023,5.869c.364,1.74,2.985,4.5,3.574,5.072s2.181.444,2.869.752,4.46,1.326,1.227,3.384a13.669,13.669,0,0,0-4.1,3.474c-.658.657.69,1.577-1.831,1.565a11.16,11.16,0,0,1-5.525-1.565c-.936-.571-3.574,0-3.574,0l-1.036-4.667-13.593,5.263v4.123s-1.251.742-.647,1.839,1.429,2.982,1.266,3.691-2.549,0-2.549,0l-2.957,3.807,4.24,1.771-4.768,6.787s-4.628.7-3,1.474,4.2,4.186,4.2,4.186-1.311,7.928,0,7.291,4.833-6.762,4.833-6.762l-.619,6.762,3.158.612-6.756,3.635-4.059,2.615s-9.807-1.821-11.748-1.333-.284,2.523-2.624,3.31-7.116-.172-2.443,1.562,3.672,2.014,7.59,2.014,7.191-1.17,9.224-1.17,2.174-1.173,5.725-.844,4.5-.24,7.782,0,5.077-3.538,5.077-3.538-2.429-2.759,3.7-3.924,14.793-2.829,15.027-2.937,1.843-.643,2.658,0,1.018.522,1.564,1.578.993,1.385-.664,1.993-3.461-1.148-4.786-.633-1.535.09-3.652,1.309a16.228,16.228,0,0,0-3.424,2.615h0c-.4,1.538.635,1.15-1.332,2.6s1.833,1.3,3.709,1.778,2.267-.629,2.517,0,1.079,2.021,2.183,1.17-1-2.764,1.227-1.17,4.08,4.472,4.223,1.17-.5-2.683,0-4.088-1.656-2.734,1.3-2.8,3.964-.375,4.194,1.333.817,1.675,1.418,4.382.655,3.75.9,4.5.556,6.412.972,6.375,9.866,3.915,9.866,3.915v5.933h4.551s-.017,1.7,0,2.278a9.191,9.191,0,0,0,1.184,2.34,21.592,21.592,0,0,1,0,3.759,9.544,9.544,0,0,0,0,3.218,28.568,28.568,0,0,0,.806,3.709h3.106l1.416-2.911v5.336l2.6,1.442s-4.129,2.958-4.014,3.352a5.446,5.446,0,0,1,0,2.87,7.343,7.343,0,0,1-.8,2.093s4.012-.2,4.143-.534-.144-2.47.669-3.12,1.228-2.073,1.464-1.309-.54,4.886-.689,5.525-1.544,1.438-1.443,1.816,2.879,6.392,2.879,6.392,1.4,1.19,1.476,2.284-.733,1.09,0,3.541,1.251,2.864.783,4.134-.3,1.708-.783,2.109-1.369.625-.812,1.4,3.562,0,3.562,0a3.7,3.7,0,0,1,0,1.511c-.2.5-2.051,1.081-2.75,1.723s-2.842,2.958-1.476,4.294,1.972,1.627,1.056,2.876-2.383,1.168-1.056,2.481,1.553.6,3.021,2.714,2.847,3.909,2.847,4.54a31.848,31.848,0,0,1,0,4.152c-.181.693-2.118,3.584-2.158,4.127s-1.507-.5-.689,2.672a14.843,14.843,0,0,0,1.957,4.72s7.983,10.992,8.658,11.583,1.762-.259,2.707,2.575.193,3.7.812,6.287-.261,13.451-2.171,14.731-2.88,2.145-4.454,3.13-1.333-.381-3.887,4.964-10.5,23.563-10.5,23.563l-1.786,7.512-1.458,8.1-3.943,5.876,5.4,21.38H377.9a42.692,42.692,0,0,1-1.171,4.833c-.345.61-2.4-1.442-2.4-1.442s1.278,13.193,2.4,14.011,3.438,7.621,3.438,7.621v5.586l14.355,10.161,4.765,11.723,4.234,17.992s1.127,1.514,1.845,2.62-.656-2.124,2.072,3.07.433,2.144,3.814,6.7,4.049,4.378,4.132,5.106-.769,1.47-.894,2.4-1.209,1.289,0,2.568-5.509,0-5.509,0l8.7,8.9,3.348-.954,5.764,7.11s.292,6.9,0,7.724,2.444,7.274,4.557,8.7a26.942,26.942,0,0,1,4.583,3.62c.64.776,3.573,4.393,3.573,4.393s.287-1.509,1.268,0a3.107,3.107,0,0,0,2.5,1.475l.907-2.67-2.424-4.255-7.453-4.386-2.952-17.408-7.984-11.051v-4.9l-12.109-16.142.979-14.288s11.76,7.067,12.269,7.741,5.775,16.481,6.088,18.111a23.684,23.684,0,0,0,2.534,5.715c1.056,1.95.624,1.107,2.806,3.761a14.989,14.989,0,0,0,3.573,3.429s3.812,6.371,3.766,6.732,4.678,5,4.678,5l-.773,4.87a31.34,31.34,0,0,0,5,3.241c2.807,1.438,3.573,6.854,7.515,9.571s7.7,8.653,9.694,10.876,5.3,6.063,5.868,7.8-.446,2.586,0,3.821-.8,2.963-.8,3.608a8.169,8.169,0,0,0,.8,2.213l-2.738,2.394s14.895,15.791,16.283,16.47,7.826-.505,11.674,1.791a44.141,44.141,0,0,1,6.454,4.673s-1.081.636,9.446,2.763,24.45,9.445,25.183,9.392,18.4-3.911,18.4-3.911l16.425,8.271s2.38,5.362,10.625,6,18.07.821,19.456.821,1.595.316,4.257-.821a13.181,13.181,0,0,1,4.359-1.18l2.876,3.551" transform="translate(0 -39.311)" fill="none" stroke="#151515" stroke-linecap="round" stroke-linejoin="round" stroke-width="2"/>
      <path id="Path_8880" data-name="Path 8880" d="M806.817,8338.8v-2.232s-10.828,2.838-12.325-2.229,7.433-10,7.433-10" transform="translate(-193.842 -335.416)" fill="none" stroke="#151515" stroke-linecap="round" stroke-linejoin="round" stroke-width="2"/>
      <path id="Path_8881" data-name="Path 8881" d="M790.13,8338.843s-3.025,2.085-3.517,3.057a15.875,15.875,0,0,1-1.163,2.017A11.34,11.34,0,0,1,783.27,8346" transform="translate(-189.649 -340.919)" fill="none" stroke="#151515" stroke-linecap="round" stroke-linejoin="round" stroke-width="2"/>
      <path id="Path_8882" data-name="Path 8882" d="M781.688,8313.454h-1.3v-14.169s-9.523,2.33-12.746,2.349-1.358,3.956-1.358,3.956l-1.252,1.136s-2.8-.133-2.1,0,7.872,3.22,7.872,3.22-.409,2.033,0,2.5a1.144,1.144,0,0,1,0,1.672c-.558.421,1.13.308-4.522.6a54,54,0,0,0-6.745.557,26.879,26.879,0,0,1,0,4.375c-.221,1.571-.255,2.555-.555,4.073a8.41,8.41,0,0,1-1.491,3.018" transform="translate(-179.869 -325.913)" fill="none" stroke="#151515" stroke-linecap="round" stroke-linejoin="round" stroke-width="2"/>
      <path id="Path_8883" data-name="Path 8883" d="M794.216,8295.778s-.736-.228.811-1.3.752-.674,2.3-1.856a15.883,15.883,0,0,1,2.257-1.666,7.344,7.344,0,0,0,1.3-.919" transform="translate(-193.735 -322.406)" fill="none" stroke="#151515" stroke-linecap="round" stroke-linejoin="round" stroke-width="2"/>
      <path id="Path_8884" data-name="Path 8884" d="M606.954,8169.766c-.79-.028-13.047-2.846-13.047-2.846s-2.133-4.538-2.741-5.781-.576-3.389-2.412-5.37-1.189-1.683-2.427-2.675a8.889,8.889,0,0,1-1.923-1.815c-.366-.5-5.944-9.113-6.5-9.435a11.314,11.314,0,0,0-2.24-.8c-.6-.159-2.426-1.377-3.572-1.352s-.815-.1-2.389.812a36.7,36.7,0,0,0-4.371,2.792,26.984,26.984,0,0,1-3.634,2.335c-.267.115.208.681-1.636-.951s-5.025-3.466-6.39-6.416-.929-3.329-2.394-5.427-1.339-2.076-2.224-2.814-1.19-.91-1.723-1.382-3.68-4.355-4.81-4.833a47.837,47.837,0,0,0-6.075-1.949,16.151,16.151,0,0,0-5.609-.349,4.1,4.1,0,0,1-1.324,0v3.7s-6.139-.969-9.53-1.4,1.349.947-6.123-.729-5.634-.132-8.753-2.445-4.325-3.276-4.325-3.276-6.638-3.162-7.474-3.658-.024,1.054-4.085-1.6-3.21-4.039-3.21-4.039-7.495-.379-7.749-.456-2.095-.5-4.1-.869a33.148,33.148,0,0,0-4.247-.641h-.39" transform="translate(-70.601 -252.626)" fill="none" stroke="#151515" stroke-linecap="round" stroke-linejoin="round" stroke-width="2"/>
      <path id="Path_8885" data-name="Path 8885" d="M763.214,7891.1s-.742-1.793-1.613-1.874-.947,1.307-1.854,0a29.2,29.2,0,0,1-2.653-5.854c-.749-2.1-1.434-3.9-2.16-4.039s-2.823-1.027-3.88,0-.655,1.554-1.387,1.382-2.875-4.419-3.231-2.414-.827,20.1-.827,20.1l-8.7,5.217s-10.5,4.115-10.815,4.383-3.737,6.87-3.737,6.87-2.939,7.073-3.3,7.181-11.805,3.968-11.805,3.968-2.158-.324-.408,3.288-3.962,6.855-3.962,6.855l-11.728,9.427-5.055-1.542,2.711-13.3a38.181,38.181,0,0,0-.781-3.885c-.262-.62-.8-1.23-1.467-2.807s-1.293-2.843-1.673-3.852.865-.277-.784-2.088-2.5-3.357-3.4-3.244a8.572,8.572,0,0,1-3.925-.728c-1.737-.661-2.571-.229-2.9-1.208a34.988,34.988,0,0,0-2.931-4.43l-22.513-9.992s-1.255-.619-2.871,1.242-5.182,2.137-7.379,1.866-14.376-1.675-15.464-1.866-3.785-.669-4.993-.817-1.03,1.07-3.185-.929a16.389,16.389,0,0,1-3.315-4.457l-1.022,3.467s-62.348.789-75.738-2.268-32.857-6.31-32.857-6.31-34.67-6.956-35.045-7.067-1.428-.386-1.428-.386l-1.327-.46" transform="translate(-68.468 -166.012)" fill="none" stroke="#151515" stroke-linecap="round" stroke-linejoin="round" stroke-width="2"/>
      <path id="Path_8886" data-name="Path 8886" d="M448.389,7900.479l-.867-2.135s-.1-11.088,0-12.21,6.684,3.041,8.315,4.114-.585,1.123-.916,1.674-2.5,3.21-2.5,3.21l.783,3.211" transform="translate(-62.268 -169.116)" fill="none" stroke="#151515" stroke-linecap="round" stroke-linejoin="round" stroke-width="2"/>
      <path id="Path_8887" data-name="Path 8887" d="M446.929,7872.722c-.289-.179-5.637-3.366-5.684-3.936a2.85,2.85,0,0,1,.7-2.715c1.063-1.109-1.183-.462-2.979-1.478s-1.833-1.388-2.174-3.435-1.595-6.193-2.232-6.8-3.668-1.226-2.986-1.8a19.181,19.181,0,0,1,3.981-1.467,11.568,11.568,0,0,0,2.935,2.669c2.168,1.5,5.483,4.4,5.584,4.833s-.7,2.975.361,4.709-.875-.934,1.313,3.176,2.287,4.313,2.039,4.878A8.99,8.99,0,0,1,446.929,7872.722Z" transform="translate(-56.197 -155.893)" fill="none" stroke="#151515" stroke-linecap="round" stroke-linejoin="round" stroke-width="2"/>
      <path id="Path_8888" data-name="Path 8888" d="M429.994,7846.456c-.024.281-.391,3.489,0,3.334s3.155-.919,3.155-.919Z" transform="translate(-55.568 -154.136)" fill="none" stroke="#151515" stroke-linecap="round" stroke-linejoin="round" stroke-width="2"/>
      <path id="Path_8889" data-name="Path 8889" d="M415.561,7793.881a19.208,19.208,0,0,0-.749,3.677c.081.8.29.264,0,2.458s1.16,2.082,2.171.565.786-1.461,1.441-2.332,3.347-.677.984-1.555-3.2-1.173-3.2-1.173Z" transform="translate(-49.863 -134.192)" fill="none" stroke="#151515" stroke-linecap="round" stroke-linejoin="round" stroke-width="2"/>
      <path id="Path_8890" data-name="Path 8890" d="M422.779,7767.33l-.616,3.905.616.8s-1.75,1.412-1.628,2.038,2.221,2,2.412,2.5,0-2.5,0-2.5l3.407-.843s-1.816-2.884-2.377-3.8a15.825,15.825,0,0,1-1.03-2.1Z" transform="translate(-52.279 -124.12)" fill="none" stroke="#151515" stroke-linecap="round" stroke-linejoin="round" stroke-width="2"/>
      <path id="Path_8891" data-name="Path 8891" d="M323.813,7679.526v3.595s-.87.685,0,1.214a2.832,2.832,0,0,0,2.053.392,12.787,12.787,0,0,1,2.255,0c.479.052,1.343-1.693,1.743-1.605s.115.874,1.44.667,1.7-.776,1.482-1.34.319-2.866-1.771-2.1a20.493,20.493,0,0,0-3.655,2.1c-.455.136-.213.551-.75,0s-.509-.509-1.349-2.1S323.813,7679.526,323.813,7679.526Z" transform="translate(-15.21 -90.744)" fill="none" stroke="#151515" stroke-linecap="round" stroke-linejoin="round" stroke-width="2"/>
      <path id="Path_8892" data-name="Path 8892" d="M597.319,7621.952c-.425.046-16.14,0-16.14,0l1.671,4.217s1.583,2.54,3.608,3.2,3.3,1.4,3.446,2.3-.592.74,0,1.571a1.569,1.569,0,0,1,0,1.709h12.811a18.8,18.8,0,0,1,4.24-2.618,33.506,33.506,0,0,0,5.306-2.96s1.072,4.8,1.449,4.832,5.341-.963,5.341-.963l-.681-3.869s3.316-.088,3.826,0,1.35-1.257,1.625-1.617.815-.308,1.3-.561,1.282-.041.727-.614-8.634-6.333-9.205-7.288-.594-.466-.691-2.576-.456-6.8-.456-9.356-5.382-4.721-5.382-4.721-.393,13.514-.63,13.105a35.3,35.3,0,0,1-2-3.427c-.851-1.733-1.583-2.517-1.819-3.314a7.57,7.57,0,0,0-.682-2.509c-.829-2-.425-6.309-1.279-2.436s-2.562,4.247-3.655,4.369-1.878-1.509-1.217-1.934,2.771.671,1.217-1.14-2.114-1.991-2.114-1.991l-4.65,2.552,1.025-4.872s-7.916,3.065-8.358,3.016a7.2,7.2,0,0,0-3.1,1.856c-.722.819-.887,2.034-1.247,2.513s.153.188,1.247,1.311,6.31,2.731,7.054,2.579-1.122,1.277-1.122,1.277l-7.179.58s-1.08,3.688,0,3.729,11.151,0,11.151,0Z" transform="translate(-112.966 -61.039)" fill="none" stroke="#151515" stroke-linecap="round" stroke-linejoin="round" stroke-width="2"/>
      <path id="Path_8893" data-name="Path 8893" d="M582.771,7589.984s-4.983,2.168-5.984,3.219-8.252,3.877-8.558,4.453-1.089,2.506-1.089,2.506l-.966,1.412-7.337.491v-4.409s-.79-2.618-1.233-2.807-2.592-.112-2.274-.478,10.844-8.819,10.844-8.819v-4.776l7.085,1.181,2.764,3.595a21.708,21.708,0,0,1,3.794,1.185A6.864,6.864,0,0,1,582.771,7589.984Z" transform="translate(-103.17 -53.353)" fill="none" stroke="#151515" stroke-linecap="round" stroke-linejoin="round" stroke-width="2"/>
      <path id="Path_8894" data-name="Path 8894" d="M647.885,7608.032l8.555,7.457h1.946l.5-2.406s2.444.26,2.507,0,0-6.208,0-6.208l-4.953-2.8,4-3.889-8.635-.433a41.893,41.893,0,0,1,2.18,4.321,14.072,14.072,0,0,1,0,2.8,4.548,4.548,0,0,0-1.423,0c-.507.071-3.883-2.8-3.883-2.8s.379.576,0,2.241S647.885,7608.032,647.885,7608.032Z" transform="translate(-138.291 -60.55)" fill="none" stroke="#151515" stroke-linecap="round" stroke-linejoin="round" stroke-width="2"/>
      <path id="Path_8895" data-name="Path 8895" d="M665.628,7646.106l-2.24,5.951,7.207,2.87,2.732-2.87Z" transform="translate(-144.173 -78.135)" fill="none" stroke="#151515" stroke-linecap="round" stroke-linejoin="round" stroke-width="2"/>
      <path id="Path_8896" data-name="Path 8896" d="M699.509,7599.821l.736,12.341h12.3l-6.236-8.43v-4.8s1.152-2.527,1.2-2.907-1.3-1.352-2.132-1.323a4.947,4.947,0,0,0-2.488,1.323C702.534,7596.411,699.509,7599.821,699.509,7599.821Z" transform="translate(-157.875 -58.636)" fill="none" stroke="#151515" stroke-linecap="round" stroke-linejoin="round" stroke-width="2"/>
      <path id="Path_8897" data-name="Path 8897" d="M675,7596.576h10.809l-3.082,7.557s-4.874-.347-4.579.405,1.9,2.4.47,4.183-2.009,1.1-2.009,1.1Z" transform="translate(-148.577 -59.346)" fill="none" stroke="#151515" stroke-linecap="round" stroke-linejoin="round" stroke-width="2"/>
      <path id="Path_8898" data-name="Path 8898" d="M703.022,7614.663l10.484-2.292s1.414,2.06,1.557,1.582.494-6.11.494-6.11l-4.64-3.11,4.146,1.129-4.829-5s4.4-.354,4.159-.636a12.625,12.625,0,0,0-2.375-1.6,17.631,17.631,0,0,1,2.375-.4l-3.475-1.623,6.391-3.733,4.1,6.086.355,6.248h1.553l.818-4.979,6.071,3.752.881-.94-3.4-2.5,4.411-.311-4.8-1.269s-.111-1.9.982-1.922,5.734,0,5.734,0l-.88,5.58,4.455-3.345-.665,3.072a8.221,8.221,0,0,1,2.1,1.636c.333.614.323,1.535.7,1.889s.612.114,1.832-.349,2.317-.78,2.317-.78-4.265-1.687-1.175-2.4,4.223-2.456,4.318.273a28.775,28.775,0,0,0,.461,4.2c0,.322-1.646.248.539,1.037a15.437,15.437,0,0,0,4.135.868h1.1v-3.51a3.24,3.24,0,0,0,.676-.467c.331-.3-2.03-.808.82-.381s4.509.054,4.444.381-2.334,1.145-2.922,1.782-.887.658-.715.945a2.506,2.506,0,0,0,2.463.383c.729-.508,1.061-1.251,1.533-1.328s.631-.757,1.109,0a7.021,7.021,0,0,1,.978,1.7c.087.433.4.982-1.252,1.781s-2.23.982-2.368,1.264-2.549,1.267,0,1.116a10.559,10.559,0,0,1,2.9,0s2.271,1.4,2.238,1.958-.148.518,1.4.874-1.151-.471,1.756.582,4.449,1.714,4.7,2.087-.515.185.553.743a25.586,25.586,0,0,1,2.514,1.609,18.3,18.3,0,0,0,3.038,1.051c1.1.234,1.656.3,1.656.3h2.467a1.83,1.83,0,0,1,1.69.277,19.674,19.674,0,0,0,1.98,1.011c.063,0-.321.226,1.019.163s2.172-.109,2.172-.109c.754.063,1.94-1.089,1.94-1.089.251-.063-.254,1.876-.389,2.662s.372.106,0,1.667-.436,1.128-.386,2.082a14.562,14.562,0,0,0,1.555,4.095c.472.818,1.513.019.955,1.087s-1.058,1.266-1.735.752a2.967,2.967,0,0,0-1.94-.752,2.569,2.569,0,0,1-1.567-.392c-.342-.253-1.006-.518-1.28-.7s-.208-2.252-.344-2.81.7-2.089-.417-.89a10.421,10.421,0,0,0-1.563,2.081s-.925-.619-1.359-.83a4.664,4.664,0,0,0-1.7-.743c-.772-.091-.835-1.861-2.752-1.21a10.008,10.008,0,0,0-2.679,1.21c-1,.538-2.11.83-.359,1.573s2.021.853,2.744,1.207,2.18-.244.9.412-3.378.894-3.288,1.344.448.349,1.673,1.952a5.985,5.985,0,0,0,2.661,2.291c.3,0,.522-1.218,1.1-.963a15.457,15.457,0,0,1,2.032,1.485s.046-.036.617.424,2.493,2.61,3.411,2.671a3.468,3.468,0,0,0,2.172-.733c.138-.2-.824-1.11.258-.749s2.54.046,2.461,1.1-.667,1.484.487,2.078,1.58.348,2.669.688,2.135,2.4,2.135,2.4h-3.295s-2.192-.321,0,.739,2.466,1.2,2.466,1.2l2.809,3.527s-8.147-2.065-8.827-2.014-.55.313-1.487,0a9.735,9.735,0,0,0-2.524-.845c-.515.08-.745-.618-.761.845s-5.7-.536-2.592,1.184,6.216,2.111,7.365,2.96a17.557,17.557,0,0,0,3.925,2.068c1.946.851,2.274,1.063,2.922,2.032s-20.353.047-20.608,0a5.3,5.3,0,0,1-1.426-.436c-.222-.185-2.793,1.588-.382-.587s3.789-2.227,2.415-2.586-4.332.123-5.1,0a6.71,6.71,0,0,1-2.872-1.34c-.463-.539-.609-.323-1.061-1.279s-.891-2.718-1.516-2.361-.139.959-.586,1.14-1.863-.354-3-1.14-2.013-3.5-1.587-.5a9.715,9.715,0,0,0,1.28,4.139,36.4,36.4,0,0,0-5.206.487c-1.626.389-2.63.459-3.12.853a2.956,2.956,0,0,1-2.041.517c-.913-.026-.743-.418-.678-1.857s-.035-2.214,0-2.869-2.077-1.446,0-1.988,2.4-.181,4.687-.6a10.169,10.169,0,0,0,3.63-1.023c.8-.445,1.183-.339,1.978-1.225s.961-.49,1.057-1.07-1.644-2.661-2.644-3.138-1.1.741-1.312-1.1-.528-2.8.5-3.357,1.784-.7,1.864-1.606-.7-2.752-.679-3.171.661-.306,0-1.207-2.16-1.949-2.8-2.783-.532-.629-1.14-1.517a21.133,21.133,0,0,0-3.475-3.5c-1.174-.937.569,0-1.666-1.342s-4.408-.181-5.327-.3-1.857-1.967-1.857-1.967,1.9-.379-1.216-1.436a37.18,37.18,0,0,0-4.429-1.251c-1.427-.4-.972-.61-3.02-1.768s-4.205-3.1-4.562-3.12-.71-.34-.627.638a5.048,5.048,0,0,0,.627,2.832,4.9,4.9,0,0,0,1.421,1.418s-2.954.379-3.48.445-3.034.965-3.922.806-1.164-.483-1.189,0-.915.746-1.758.76,1.451-.821-1.552,0a31.76,31.76,0,0,1-5.634.947c-.387.077-.864-.681-1.257-1.708s.007-1.667-1.178-1.251-2.529,1.951-3.022,2.011-2.074.849-2.59,0a6.712,6.712,0,0,0-1.324-2.011A14.893,14.893,0,0,1,703.022,7614.663Z" transform="translate(-159.207 -57.939)" fill="none" stroke="#151515" stroke-linecap="round" stroke-linejoin="round" stroke-width="2"/>
      <path id="Path_8899" data-name="Path 8899" d="M735.188,7688.5s0,.605,0,1.668c0,1.641,0,4.647,0,5.72,0,1.584.6,4.2,0,6.421a18.015,18.015,0,0,1-1.2,3.377l6.72-.712s2.4.276,3.384-2.665a37.469,37.469,0,0,1,2.113-5.09s.638-.79,2.306,1.223,2,1.925,4.211,2.2,3.609,2.3,3.609,0,.844-5.7-1.22-4.75-2.266,1.642-4,1.331.4,1.5-2.6-1.331-2.779-3.095-4.419-3.387-2.978-1.8-4.248-2.078-.5.154-1.349.608-1.759,1.209-2.271,0S735.188,7688.5,735.188,7688.5Z" transform="translate(-170.953 -94.217)" fill="none" stroke="#151515" stroke-linecap="round" stroke-linejoin="round" stroke-width="2"/>
      <path id="Path_8900" data-name="Path 8900" d="M759.869,7719.486c-.854,1.366-1.545,2.826-2.257,3.811a4.739,4.739,0,0,1-1.412,1.459c-.292.172-1,.579-1.326,0s-1.589-.64-.719-1.459,1.515-1.281,2.518-2.214.8-1.424,1.42-1.6A5.722,5.722,0,0,1,759.869,7719.486Z" transform="translate(-178.49 -105.942)" fill="none" stroke="#151515" stroke-linecap="round" stroke-linejoin="round" stroke-width="2"/>
      <path id="Path_8901" data-name="Path 8901" d="M608.766,7577.51c.841,0,6.831-.593,7.356-1.275a2,2,0,0,1,2.281-1.133,14.171,14.171,0,0,0,3.054,0c.6-.118,1.184.271,1.336-1.929a23.029,23.029,0,0,0,0-3.635s-3.21,2.465-3.719.391a16.918,16.918,0,0,1-.338-4.69c0-.872,1.357-3.614-.334-1.456s-3.076,3.521-2.744,4.6,2.065,1.758,1.054,2.9a3.579,3.579,0,0,1-2.835,1.332c-.351-.157-.1-.337-1.132-1.332a34.507,34.507,0,0,1-3.073-3.851c-.338-.49.7-5.312-1.857-2.646s-2.607,3.843-3.092,4.182-1.3.02-2.614,1.408a5.8,5.8,0,0,1-2.478,1.683,3.729,3.729,0,0,0,2.478,1.122c1.344-.064,1.389-.286,2.614-1.122s1.267-1.746,1.857-1.349-.293,1.955.59,2.471,3.6-.718,3.476.421-3.772,1.46-4.066,2.13S608.766,7577.51,608.766,7577.51Z" transform="translate(-119.987 -46.599)" fill="none" stroke="#151515" stroke-linecap="round" stroke-linejoin="round" stroke-width="2"/>
      <path id="Path_8902" data-name="Path 8902" d="M594.162,7561.344a10.276,10.276,0,0,0,3.335-2.587,8.02,8.02,0,0,1,1.036-1.538c.486-.555.693-1.265,1.059-1.114s.155-.1.6,1.508,2.827-.3,3.4-.85a9.824,9.824,0,0,0,1.06-1.345c.333-.41.995-.635,0-.8s-2.72-1.091-3.615-1.091a5.576,5.576,0,0,0-2.506,0c-1.761.355-3.12,1.016-3.668,1.889s-.887.844-1.938,2.2-1.407,1.252-1.517,1.524,2.751.869,2.751.869v1.769" transform="translate(-116.867 -42.957)" fill="none" stroke="#151515" stroke-linecap="round" stroke-linejoin="round" stroke-width="2"/>
      <path id="Path_8903" data-name="Path 8903" d="M621.939,7552.33l1.773,1.035s1.31,1.351,1.8,0,.571-1.406.465-1.851,1.8-.885-.465-.885a27.861,27.861,0,0,1-3.055,0C621.959,7550.538,621.939,7552.33,621.939,7552.33Z" transform="translate(-128.449 -41.915)" fill="none" stroke="#151515" stroke-linecap="round" stroke-linejoin="round" stroke-width="2"/>
      <path id="Path_8904" data-name="Path 8904" d="M625.715,7543.929s4.3.477,4.118,0a7.3,7.3,0,0,0-.915-1.346Z" transform="translate(-129.882 -38.865)" fill="none" stroke="#151515" stroke-linecap="round" stroke-linejoin="round" stroke-width="2"/>
      <path id="Path_8905" data-name="Path 8905" d="M645.472,7540.66l3.286,1.039s-1.39.9-1.424,1.292,2.643-.9,2.945,0-.033,1.189,1.356,1.944a5.334,5.334,0,0,0,2.236.761s.37-1.668,0-2.146a18.854,18.854,0,0,1-1.087-1.852,7.951,7.951,0,0,1-2.5-1.039c-.357-.478-.176-1.043-1.52-1.465a17.7,17.7,0,0,1-3.286-1.68Z" transform="translate(-137.376 -36.942)" fill="none" stroke="#151515" stroke-linecap="round" stroke-linejoin="round" stroke-width="2"/>
      <path id="Path_8906" data-name="Path 8906" d="M655.123,7568.438a18.089,18.089,0,0,1,.807,2.867c.08.861-.079.763,0,1.276s-1.15-.076-1.464-.6-.816,1.85-.816,1.85-.562.214.816.654a1.74,1.74,0,0,0,2.049-.654s.6-.521,0,.654-1.3,1.746-1.391,2.421-2.475.533,0,1.057a9.516,9.516,0,0,0,3.881,0c.641.056,1.193-.023,1.431-1.057s.678-1.672.5-2.421-.334-1.018-.5-1.908a11.118,11.118,0,0,0-1.431-2.715s.757-1.123,0-.679-.294,1.356-1.356.679S655.123,7568.438,655.123,7568.438Z" transform="translate(-140.435 -48.672)" fill="none" stroke="#151515" stroke-linecap="round" stroke-linejoin="round" stroke-width="2"/>
      <path id="Path_8907" data-name="Path 8907" d="M669.693,7580.948s3.02-4.746,3.294-3.807,2.864,6.646,2.864,6.646Z" transform="translate(-146.564 -51.927)" fill="none" stroke="#151515" stroke-linecap="round" stroke-linejoin="round" stroke-width="2"/>
      <path id="Path_8908" data-name="Path 8908" d="M702.594,7569.357a6.088,6.088,0,0,0-2.644,1.215c-1.853,1.246-2.191,1.727-3.895,2.062s.364-.335-2.646,0-3.771,0-3.771,0,.179.81-.592.616-1.383-2.154-1.383-2.154a1.533,1.533,0,0,0-1.751-.523,10.555,10.555,0,0,0-1.655.523v-2.379l-.766-.59s-.53-3.787-1.028-1.1-.156,2.928,0,3.549,1.073,1.161,1.028,3.4-.188,2.421.766,2.8.93.41,2.261.963,1.368,1.708,2.527.552-.064-3.328,1.723-2.228,2.426,2.059,3.16,2.228.485.614,2.626,0,2.887.19,4.149-.552a5.632,5.632,0,0,0,1.89-2.78s.248-.121,1.788.605,1.727.864,2.343.5,1.476-.271,1.828-1.1,1.474-.272,0-.985a3.629,3.629,0,0,1-1.828-2.268s1.271-.644.692-1.133S702.594,7569.357,702.594,7569.357Z" transform="translate(-151.31 -47.771)" fill="none" stroke="#151515" stroke-linecap="round" stroke-linejoin="round" stroke-width="2"/>
      <path id="Path_8909" data-name="Path 8909" d="M702.131,7555.826a14.094,14.094,0,0,1-2.283,1.247c-1.87.863-2.221.908-2.778,1.192s-1.09-.166-2.011,0-.235-.6-1.752,0a15.4,15.4,0,0,1-2.581.8s-1.009-1.482,0-1.988a16.855,16.855,0,0,0,2.581-1.247,1.884,1.884,0,0,0,.647-1.578l-2.365-2.7a7.454,7.454,0,0,1,3.469.889c1.847.967,2.118,1.321,2.443.967s.107-1.065,1.046-1.855a4.661,4.661,0,0,0,1.3-1.936,8.357,8.357,0,0,0,1.467,1.936c.978.969-.595.2,1.468.889s3.136.366,4.889.473,1.756-.107,1.965.494,1.341-1.512.41.848-1.931,4.051-2.375,4.018-1.155.759-2.341,0S702.131,7555.826,702.131,7555.826Z" transform="translate(-154.373 -41.53)" fill="none" stroke="#151515" stroke-linecap="round" stroke-linejoin="round" stroke-width="2"/>
      <path id="Path_8910" data-name="Path 8910" d="M698.085,7526.558c1.764-.271,1.752.185,2.094-.538a19.489,19.489,0,0,0,.638-3.192c.1-.415.037-.424.861-1.151s1.122-1.659.8-2.233.923-.934-.8-1.4-1.69-.58-2.509-.772-1.734.286-1.881-.809-1.392-.41,0-1.485,3.328-2.17,3.529-2.639-.2-.366,0-1.6-2.963,1.243,0-2.056,3.108-4.057,3.108-4.493.716,5.968,0-1.046.355-5.576-1.452-4.192-2.295,1.714-2.295,1.714l-.576-4.465s.115-.806-1.517,0,1.015-1.314,2.094-1.41.33,4.41,1.5-.708,0-5.1,0-5.1a3.922,3.922,0,0,0-2.076,0,10.712,10.712,0,0,0-2.786,1.556c-.453.375-.827,1.24-1.5.909s1.606-2.394-.644-1.555-5.8,1.452-7.66,2.141-1.017-1.594-2.087,1.189,1.511,4.531,1.452,5.111.393.8-1.452.619-2.158.061-3.135-.619-2.591-2.948-2.094-.635,3.2,2.739,1.563,2.968a7.2,7.2,0,0,1-2.662,0c-1.644-.1-3.551-2.025-3.6,0s.781,3.843,1.238,4.076.022.521,1.336.688,4.674-1.239,4.674-1.239-.535.741-1.457,1.978,4.14.547,4.14.547.257-2,0-.547,6.127-.529,5.624,0-.588-2.354,0-3.023-.39-3.377,1.332-.726,4.722,1.245,1.889,3.011-4.66,4.138-4.448,4.447,3.413,3.477,3.413,3.477l-4.565-1.75-5.479-.864s5.915,5.583,6.219,5.722,3.825.809,3.825.809l-2.186,2.612s1.322.508,1.332.813-1.031.971-1.332.978-.365-.354-1.227-.508a7.157,7.157,0,0,1-1.552-.47s-.114-.254-.758.47-.559.473-.635,1.116-1.116,2.4-.539,2.39a6.809,6.809,0,0,0,1.932-.79s.97-.479,1.139-.413a28.623,28.623,0,0,1,1.639,2.549s-1.06.72.431,0a11.784,11.784,0,0,0,2.24-1.346s-.779-1.611.55-.79,1.546,1.236,1.546,1.236Z" transform="translate(-148.576 -18.478)" fill="none" stroke="#151515" stroke-linecap="round" stroke-linejoin="round" stroke-width="2"/>
      <path id="Path_8911" data-name="Path 8911" d="M680.821,7531.227s1.607-.464,1.79-.884-.431-.188,0-1.193a7.314,7.314,0,0,0,.481-2.234s.493-.239,0-.634-.461-.605-1.339-.455-.786.191-1.425,0-.927-.078-1.3-.981.381-.515-.547-1.487-.835-1.441-1.58-1.225-.6,1.37-1.733,0-3.542-2.516-3.347-2.83-.332-.946-.966-1.469-.821-1.783-1.5-1.429-1.55.1-1.45,1.429-1.435-.121,0,1.873,1.554,2.363.88,2.426-.918-1.218-1.436,0-1.348.582,0,2.021a5.8,5.8,0,0,1,1.436,3.349s.339.02.57.568a1.68,1.68,0,0,0,1.5,1.079c.784.044,2.645,0,2.645,0s-1.063,1.937-1.679,2.078-2.458.553,0,1.354,2.749.871,2.677,1.321-.777.893-.589,1.314,2.551-.357,2.992,0,1.146-2.044,1.146-2.044a1.934,1.934,0,0,1,.981,0c.392.153.508,1.053.8,0s.5-1.946.5-1.946Z" transform="translate(-145.399 -28.911)" fill="none" stroke="#151515" stroke-linecap="round" stroke-linejoin="round" stroke-width="2"/>
      <path id="Path_8912" data-name="Path 8912" d="M664.6,7547.635c1.352.552,3.814.431,3.814,0s.042-2.172-.444-2.456a14.788,14.788,0,0,0-2.332-1.35c-1.262-.553-2.161-1.957-2.235-.691s-.647.2,0,2.042A8.061,8.061,0,0,0,664.6,7547.635Z" transform="translate(-144.063 -38.88)" fill="none" stroke="#151515" stroke-linecap="round" stroke-linejoin="round" stroke-width="2"/>
      <path id="Path_8913" data-name="Path 8913" d="M742.4,7509.125s3.073.848,3.848,0a25.356,25.356,0,0,1,2.411-2.774c.949-.777.747-1.966,3.951-1.966s5.716,1.214,8.793,1.966,9.254.991,12.637,4.1,3.188,2.348,5.822,4.228,3.9,2.777,5.057,2.953,1.558-.6,2.581,0a15.68,15.68,0,0,1,1.924,1.354h1.709l5.9,2.785c.217,0,6.446,2.311,6.446,2.311.434.217,5.445,2.842,5.445,2.842a45.485,45.485,0,0,1,4.86,4.316c.868,1.175-.481,1.868,0,2.89a5.105,5.105,0,0,0,.915,1.7c.926,1.349,1-1.481,1.726,2.449s0,5.44,0,5.44-.487-1.9,2.517,0,1.791-.735,4.762,3.38a105.555,105.555,0,0,0,6.806,8.282,1.247,1.247,0,0,1,2.143,0c1.185,1.407-.33.054,3.22,2.245s7.382,5.19,7.382,5.19c.217,0,2.451-1.666,3.944,0s.723.947,2.921,2.35,1.5,1.167,3.609,2,3.562,1.412,4.926,2.048,4.008,2.5,4.762,2.547,3.467,2.157,3.875-.955-4.361-5,0-4.548,3.869-.032,5.849.908,2.612,1.347,2.424,0,1.671-2.28,0-3.413-5.405-4.866-7.4-6.123-3.066-2.669-3.218-3.7a13.64,13.64,0,0,1,0-2.61s.667-.161-1.526-3.273-2.339-2.431-3.851-4.322-4.8-3.985-5.837-6.813a21.223,21.223,0,0,1-1.685-5.667,57.982,57.982,0,0,0-1.924-7.158s-1.053.729,0-1.161a29.915,29.915,0,0,0,1.924-6.272s3.035-.183-1.924-4.953-6.158-6.78-6.865-7.307-4.031-1.737-1.887-3.157,3.573-1.577,3.622-3.657-.049-.489,0-3.909-1.1-5.61-1.735-9.271-1.287-4.8-1.887-4.96-.606-3-1.783,0-2.785,2.557-2.837,4.96,1.418,1.313,0,3.241-.207,3.248-2.638,2.076-6.422-5.5-7.262-5.317-2.454,2.477-1.62,0,0-2.526,0-2.526H821.64s-7.5-.864-.968-2.434,9.838-2.561,9.838-2.561,3.044-.017,3.6,0,1.763,0,1.763,0a2.1,2.1,0,0,0-1.763-2.377c-2.043-.369,1.563-2.491-4.614-1.748s-4.617,1.579-7.857,1.748a55.053,55.053,0,0,0-6.941.964c-.1,0,.69,1.248-.915,0s-2-4.032-2-4.032a.7.7,0,0,0,0-1.3c-1.028-.69-1.284-1.753-1.923-2.706s-.595-.533-2.667-2.227a10.254,10.254,0,0,1-2.54-2.613s2.6.271-1.17,0,6.758-1.628-4.572-2.462-12.574-.5-12.5-1.67,1.06-4.459,0-4.723-5.488-.684-6.545,0,1.141,2.109-2.48,0-6.044-3.147-7.579-4.066a27.86,27.86,0,0,0-6.857-2.6c-.919,0-.455,4.261-4.093,0s-5.06-5.083-5.06-5.083.653-1.282-1.184-1.193-5.188-1.511-5.188,0,3.292,4.606,3.292,4.606.573,2.085,1.9,2.644.315-.938,2.105,1.625,2.092,3.725,0,2.408-1.527-1.518-4-2.408-4.814-4.028-4.466-2.6,2.411,6.664,2.411,6.664-1.262-3.655-2.411,0-5.015-1.658-5.015-1.658l3.485-4.033-1.308-.974-4.611,2.6s-1.772-6.535-1.671-1.625.012,2.918,0,5.69-2.594-1.658-2.594-1.658-2.92,2.645-1.523,0a12.315,12.315,0,0,0,1.523-4.033s2.02-4.252-1.523,1.625,1.138,7.044,1.523,7.833a15.808,15.808,0,0,0,2.594,2.625s-5.228-2.623-1.552,1.16,1.552,3.916,1.552,3.916h-5.362l5.362,3.758h-6.453l2.335,2.475-5.373-2.475-2.526,5.543h3.439l-.913,3.4s3.69,1.822,3.038,2.5a10.777,10.777,0,0,1-2.124,1.466l-1.864-2.434.951,4.96,1.784.934,1.254-.934,3.859,6.688L729.424,7496s.182-.842,0,1.573-3.4,2.786-1.784,3.657a31.373,31.373,0,0,0,6.9,2.064c.13-.132-1.57,1.015,1.042-.95a20.707,20.707,0,0,0,3.223-2.735s.379-3.6,1.456,0,.612,2.382-1.456,4.778-5.468,3.02-1.671,3.419S742.4,7509.125,742.4,7509.125Z" transform="translate(-167.588 0)" fill="none" stroke="#151515" stroke-linecap="round" stroke-linejoin="round" stroke-width="2"/>
      <path id="Path_8914" data-name="Path 8914" d="M429.25,7718.479s3.483.537,3.824-1.119.889-4.529.919-4.988,1.146-1.506,0-2.126-1.727-2.756-3.321-4.719-3.14-2.643-2.977-4.362.82-3.5,1.066-6.2.429-4.174,0-6.027a13.438,13.438,0,0,1-.406-4.4,19.126,19.126,0,0,0,.406-3.465,3.93,3.93,0,0,1,0-1.28c.042-.869,1.438-1.227,0-2.061s-.083-1.078-2.477-1.078-1.791-.1-3.375,0-3.161,1.661-3.6-.407-.765-2.839-.655-3.868.833-1.572.655-2.649-.655-4.459-.655-4.459a41.322,41.322,0,0,1-3.74-2.094c-.49-.442-1-.857-1-.857l19.56-24.424,23.039-31.393.756-1.055" transform="translate(-49.536 -62.713)" fill="none" stroke="#151515" stroke-linecap="round" stroke-linejoin="round" stroke-width="2"/>
      <path id="Path_8915" data-name="Path 8915" d="M848.3,8231.582c1.578-1.146,5.53-3.77,8.027-5.283s2-2.135,4.822-3.037,3.605-1.83,4.829-1.135-1.461,2.931,1.382,4.172,11.331-.04,15.527,0,1.514-1.844,5.517,0,5.068,2.207,6.073,2.8,2.243-1.754,4.359,0,1.429,3.561,1.564,4.572,1.839.672,7.833-1.363,5.788-1.946,8.547-3.209a20.721,20.721,0,0,0,4.534-2.8s1.2-.259-4.534,0-5.856-3.662-8.547-3.037-5.784,1.371-5.784,1.371a35.712,35.712,0,0,1-7.972-2.506,49.982,49.982,0,0,0-13.167-3.973c-4.734-.7-3.648-.858-7-.858s-5.486-.506-9.782.858-7.073,2.469-9.117,3.973-6.446,2.77-7.11,4.172S848.3,8231.582,848.3,8231.582Z" transform="translate(-214.204 -294.776)" fill="none" stroke="#151515" stroke-linecap="round" stroke-linejoin="round" stroke-width="2"/>
      <path id="Path_8916" data-name="Path 8916" d="M980.444,8230.793s1.137-1.146,1.91,0-2.014,3.07,2.117,5.3,4.4,5.355,5.643,2.461a14.92,14.92,0,0,0,.968-6.25v-3.713l-.968-1.924s-3.066.955-3.7,1.185a11.889,11.889,0,0,1-3.248.739c-2.628.428-2.572-1.9-2.726,0" transform="translate(-264.445 -298.366)" fill="none" stroke="#151515" stroke-linecap="round" stroke-linejoin="round" stroke-width="2"/>
      <path id="Path_8917" data-name="Path 8917" d="M985.172,8224.622a18.478,18.478,0,0,1,3.313-1.5c.888-.149,2.216-.516,4.16-1.015s1.628-.951,2.728-.795,2.577.064,3.39.795,1.075.308,2.026,1.015.247,1.212,1.68,1.5a17.771,17.771,0,0,0,4.076,0s.25-1.359,0,.827.886,1.758-4.076,3.22-6.066-.167-7.1,2.065-2.423,3.4-5.378,5.48a4.878,4.878,0,0,1-5.665,0s-7.293,3.149-8.167,3.565a34.226,34.226,0,0,0-3.979,2.3c-.67.536-4.192-1.163-4.192-1.163s-3.131-.062.891-1.14,5.611-2.892,9.031-3.565a19.913,19.913,0,0,0,4.154-1.062" transform="translate(-259.281 -296.322)" fill="none" stroke="#151515" stroke-linecap="round" stroke-linejoin="round" stroke-width="2"/>
      <path id="Path_8918" data-name="Path 8918" d="M928.361,8268.339l9.338-3.62s-2.224-3.309-3.563-2.57-7.99,3.462-7.99,3.462Z" transform="translate(-243.847 -311.785)" fill="none" stroke="#151515" stroke-linecap="round" stroke-linejoin="round" stroke-width="2"/>
      <path id="Path_8919" data-name="Path 8919" d="M1048.091,8223.422l8.279-5.027v-2.285l-9.675,4.59Z" transform="translate(-289.577 -294.361)" fill="none" stroke="#151515" stroke-linecap="round" stroke-linejoin="round" stroke-width="2"/>
    </g>
    <g id="Group_565" data-name="Group 565" transform="translate(147.745 181.825)">
      <path id="Path_8876-2" data-name="Path 8876" d="M906.133,8373.77c-.915-.051-7.261,2.3-7.261,2.3s-.933,1.334-1.937,3.011-1.728-.323,0,3.118,2.387,4.318,0,5.216S891,8386,891,8386a5.552,5.552,0,0,1-2.883,0c-1.6-.421-.739-.828-3.25-1.181a12.057,12.057,0,0,0-4.023,0s-1.89,1.176-2.22-1.647-.271-2.09,0-4.09-2.441-4.071,0-3.011,5.461,2.934,6.244,3.011,2.639.984,3.25,0a3.714,3.714,0,0,1,2.883-1.376c.734.02.168.314,1.884,0s6.628-5.85,7.048-6.06,2.625-1.177,3.329-1.53-1.366-.5,2.013-.545,3.613-.374,5.95,0,3.566.729,4.732.977,2.676.1,3.312.612.779.1,1.053,1.23.87,1.474.977,2.7-.437,1.344-1.535,2.237-1.435,1.673-1.793,1.758-.336.372-.759.9-.291.64-1.763.544-2.516-1.395-1.971-2.366,1-1.016,1.353-2.086,1.169-1.387.618-1.64-2.093.216-2.547,0-.986.4-1.678,0a8.2,8.2,0,0,0-2.743-1.377,3.917,3.917,0,0,1-1.716-.664Z" transform="translate(-225.432 -352.509)" fill="none" stroke="#151515" stroke-linecap="round" stroke-linejoin="round" stroke-width="2"/>
      <path id="Path_8877-2" data-name="Path 8877" d="M863.986,8375.593l-1.96-1.694s.762-.592,0-1.036a7.93,7.93,0,0,1-1.6-1.437,2.789,2.789,0,0,0-1.117-.93c-.746-.342-1.281-.762-1.69-.907s.125-.268-.895,0-1.656.6-2.768.907-4-.261-5.721,0a8.464,8.464,0,0,1-3.26,0c-1.138-.156-.793-.605-2.694,0s-2.22-.488-1.865.93a12.021,12.021,0,0,0,1.189,3.178c.481.85-.172.533,0,1.609s2.589.117,3.37,0-.159-1.277,1.373-.62,1.369.128,3.554,1.182a27.064,27.064,0,0,1,4.784,2.429,33.278,33.278,0,0,0,4.034,2.689c1.03.453,1.392.118,1.706.705a3.375,3.375,0,0,0,1.6,1.5c.56.149.319-.256,1.135,0a2.169,2.169,0,0,0,1.4,0h.41" transform="translate(-211.279 -352.522)" fill="none" stroke="#151515" stroke-linecap="round" stroke-linejoin="round" stroke-width="2"/>
      <path id="Path_8878-2" data-name="Path 8878" d="M832.521,8352.826a4.021,4.021,0,0,0-.484-1.077c-.213-.2.175-.665-.87-1.119s-3.041-1.513-3.445-1.671a17.488,17.488,0,0,1-2.038-.921,24.254,24.254,0,0,1-2.112-1.354c-.62-.344-1.85-1.112-2.314-1.34a11.387,11.387,0,0,1-1.933-1.207c-.353-.339-.786-.674-.883-.982s-1.386-.26,0-.855,1.711,1.83,3.678-1.475,2.069-4.09,2.1-4.3-.183-.39,0-.848-.235-.25.369-1.014a16.125,16.125,0,0,1,4.855-2.6c.245.14,1.164.585,1.164.585s.675,1.146,1.915-.225,4.034-5.577,4.034-5.577l1.032-1.327s-.827-.105.687,0a5.808,5.808,0,0,1,1.84.223c.37.123.553.328,1.96-.223a18.422,18.422,0,0,0,2.684-1.248,13.641,13.641,0,0,0,1.961-1.275,13.125,13.125,0,0,1,1.315-.858s.549-.265,1.124,1.249.928,1.295.576,2.355-.93,3.151-1.041,3.812-1,2.4-1.192,3.517-.347.779,0,3.1a10.507,10.507,0,0,1,0,4.657,17.4,17.4,0,0,1-.783,2.814c-.43,1.031-1.124-.393-.381,2.66a14.7,14.7,0,0,0,1.164,3.678,4.641,4.641,0,0,0,.532,1.107" transform="translate(-202.749 -334.573)" fill="none" stroke="#151515" stroke-linecap="round" stroke-linejoin="round" stroke-width="2"/>
      <path id="Path_8879-2" data-name="Path 8879" d="M644.733,8026.434l-1.046-2.052s-3.385-.912-3.748-.932a13.492,13.492,0,0,0-3.845-.424,59.888,59.888,0,0,0-7.133,0c-3.312.282-4.827.136-8.643,1.356s-5.455,2-7.463,2.678a19.475,19.475,0,0,1-4.76,1.1c-.558-.056-.159-.43-1.643-.41s-3.991,0-3.991,0-1.624-.625-.449-1.317a8.239,8.239,0,0,0,2.656-2.44,13.4,13.4,0,0,0,1.784-2.989c.6-1.473,1.127-.546,1.127-3.326s.131-6.016,0-6.849-.832-2.992-.776-3.224.512-.74.436-1.125.409-2.777.857-2.386.214,1.045.885,2.386,1.729-2.663,1.729-2.663,1.056-4.1,1.008-4.334.332-.608-.3-.959-4.8.288-3.32-1.652,5.153-6.021,5.153-6.59a6.966,6.966,0,0,1,.5-2.6c.369-.7.1-.492.652-1.667s.666-1.409.666-1.409h-10.4l-13.619,5.675-3.1,12.615-6.51,8.213-6.957-.666-14.534,4.841-7.5-3.359h-7.209l-12.9-24.9-.813-24.973,3.412-2.032,1.421-3.355-1.851-9.78-2.169-1.179,2.169-.758,1.851-6.668,4.2-1.728-.5-2.1,4.029.8,6.655-3.9v-5.451l4.049,1.671,15.841-1.671s2.816-2.276,3.227-2.2,7.235,4.793,7.235,4.793l2.36-2.114h1.887v-2.679l3.609.9,2.5,2.969,1.4-.78-3.9-3.93,1.893-1.228-8.445-2.071,16.64-3.559.627-3.712,2.367,3.155,4.367-2.2,1.484,1.248,9.421-1.248,1.74,4.305,6.845-4.305h4.037l8.673,6.851v8.4l4.588-.927-2.737,4.777,2.737,2.646,2.913-.613,2.474,7.722,5.262,1.408v3.461l3.027-1.706,1.6-12.918-16.446-31.188,4.972-8.781-1.9-3.732,3.009,1.672,9.5-14.468,10.873-11.545h-2.32l1.7-3.833h-3.822l.927-1.283h6.053l1.356-4.14-.908-.751-.962,2.916-.553-2.916-3.794,1.8-.656-1.048,3.442-3.9,2.074,1.265-2.54-5.293h-6.486l.472-1.925h1.574l-.938-1.743h1.865v-3.229l-8.279-1.884.918-3.16,6.95,3.16-5.284-9.151,4.767-3.236-.938,5.6,5.377,5.061,2.027-3.786-5-9.1,5.516,3.8,1.356-6.9-1.87-4.86,2.723-6.519,10.958-5.8-.581-4.314,3.119,2.21,3.123-3.221-5.662-2.729L683.6,7783.1l3.119-1.591-.632-3.042h2.936l-.383-5.62,2.1-1.286h3.828l2.438-4.272-2.438-2.838,1.727-.55,3.206-.594a11.286,11.286,0,0,0,1.149-2.075c.3-.862,3.4-5.536,3.4-5.536a4.79,4.79,0,0,1,1.3-1.61c.7-.43,1.547-2.508,1.338-.7s-1.038,3.5-.928,4.222-.538,2.274,2.187,0,3.327-2.7,3.327-2.7v.784s1.313-1.49.927,0,.713,3.4-.927,3.643-5.811,1.84-5.924,2.308a5.3,5.3,0,0,1-.738,2.254c-.819,1.692-1.263.5-1.421,2.62s-.556,3.229.856,4.528,3.652,1.123,3.9,1.8,2.16-3.611,2.16-3.611v-5.928s2.094-1.972,2.094-1.661,1.992.526,1.992.526-.412-2.638,0-2.833,1.221.731,3.34-1.729,3.192-3.307,3.518-4.222.509-.712,1.377-1.976-4.465-3.077-4.465-3.077-3.836,4.094-4.785,4.261a12.625,12.625,0,0,1-3.739.4,4.771,4.771,0,0,1-2.317-1.584l-3.93-.6-2.54-3.345-1.149-1.258s-2.343,2.933-2.5,2.127-.71-7.156-.71-7.156-.4,2.654-2.16,2.52-2.68.357-3.395,0a8.577,8.577,0,0,0-2.1-.533s-.619-1.167,1.2-2.508.917-.492,3.9-2.331,4.216-2.519,3.945-3.12-3.708-4.525-4.961-4.033a65.135,65.135,0,0,0-6.639,3.519c-1.154.767-1.221-.2-3.808,2.8s-3.037,2.132-4.595,6.208-.91,3.747-2.6,7.112a69.41,69.41,0,0,1-4.065,6.8,13.735,13.735,0,0,0-.918,2.355c-.147.436,2.117-6.539,2.256-6.968s-.176-.292,0-3.244-1.471-2.81-.426-4.5,3.81-2.707,4.5-5.219a34.969,34.969,0,0,1,3.521-7.049c.255-.366-3.381-7.906,3.648-9.991s6.768-1.719,12.7-4.824,10.748-4.972,11.65-6.488,1.492-.99,1.492-.99l.668-10.08,4.759-4.37,1.509-7.864-5.1-1.283a3.173,3.173,0,0,1,0-1.941,6.692,6.692,0,0,0,0-2.7l-1.167-1.808-2.16-.9-2.187,2.705-1.712-2.705s-4.185-1.214-4.545-.747-4.934,10.374-4.934,10.374l.813-5.55a2.369,2.369,0,0,1-.813-1.372c-.024-.7,2.072-3.851,3.116-5.006s-3.024-1.864-3.945-1.655-5.1,1.655-5.1,1.655,0-.262-.762.6-3.546-1.155-4.279-2.255-.1-1.875-1.32-1.942a37.85,37.85,0,0,0-4.595,0c-.219.113-1.863-.776-1.863-.776a7.011,7.011,0,0,0-1.352-.941c-.8-.427-3.661.034-2.114-1.176a14.719,14.719,0,0,1,3.466-1.919l-.739-2.456h-6.1v-2.485l-2.458-1.832s.218-2.25-.682-.63-.878,2.943-1.174,2.462a43.986,43.986,0,0,1-1.138-4.676l-2.01,2.844v-6.191h-4.485s.755,1.135-1.023-.918a20.458,20.458,0,0,0-3.752-3.351,5.465,5.465,0,0,1-1.428-1.08c-.673-.716-1.1-7.34-1.353-1.508s-1.22,6.136,0,6.857a45.806,45.806,0,0,0,4.341,1.955v1.393l-.862,4.676s.512,1.046.862,1.6-4.341-2.377-4.341-2.377l.715,7.638s-4.063-3.782-4.513-2.633,0,5.526,0,5.526.236-5.948-2.195-5.526a27.656,27.656,0,0,0-6.381,2.633l-1.141-4.375H637.1s1.5-1.317,0-1.565-4.4-4.864-4.4-4.864h-3.653s4.659-1.838,3.653-3.071-1.91-6.2-2.378-5.277-3.719,2.725-4.52,2.657-5.256-3.4-5.767-3.737a6.052,6.052,0,0,0-2.349-.688c-.931-.12-2.669-.921-3.3-.82s-.3-1.821-2.118,0-10.9.82-10.9.82-5.282,2.007-4.4,2.862,2.386,4.694,2.848,5.129.615,1.962,1.554,3.606a22.174,22.174,0,0,1,1.476,4.062c.327.756,1.938-.64,2.481.885s1.024-.146,1.024,5.552,1.667,9.337,2.241,9.664-2.932-1.337,2.2,2.028,4.876,2.726,6.9,5.55,3.372,3.735,3.652,4.89.565.839-.686,2.775-1.95,1.47-1.8,3.574,1.736,2.408,0,5.215-4.537,2.547-5.7,4.865-4.657,3.082-.89,6.409,8.016,7.531,8.385,8.217-.124,1.469.686,3.132-1.083,6.1-1.3,6.761.789,2.266,1.3,3.12-3.652-.836-3.652-.836v3.167l-5.419-.629-1.48-4.822s-6.694-3.217-7.135-4.033-4.28-3.051-4.721-5.86-1.97-13.927-1.97-13.927l-10.046,1.39s-14.334-.83-14.9-1.39-6.18-8.129-6.685-8.412-10.787-1.607-10.787-1.607a17.894,17.894,0,0,0-3.464,1.607,8.525,8.525,0,0,1-2.75,1.291c-1.27.457-4.225-1.46-3.48-2.9s1.164-1.327.983-2.241a20.244,20.244,0,0,0-2.15-4.868c-.867-1.318-2.073-2.848-2.073-2.848a.65.65,0,0,0-.929,0c-.569.424.9,3.621-1.163,1.171s-2.592-2.911-3.171-4.14-.49-12.845,0-13.9,1.81.329,3.171-3.59.8-4.919,1.163-5.261-1.395.2,0-.68,2.291-1.042,3-1.7.173.276,1.167-2.288-2.033-2.164.983-3a6.918,6.918,0,0,0,4.209-3.566s-3.582-3.121-4.209-2.657-2.15,1.768-2.15,1.768l-.686-2.848H538.1l-1.743-5.882,13.7,6.962,1.038-3.9,5.562-3.059,3.242-6.477-15.034-2.421v-3.079l8.05.685,5.147,2.394,3.092-4.685-3.092-3.091H567.6l-4.693-4.266H567.6l3.36,3.346,2.454-10.433-6.452-4.863,2.081-3.532s.046.232-.848-.773a2.12,2.12,0,0,1-.6-1.948s-3.485.514-4.693,0-3.17-5.593-3.017-1.15,1.75,4.133,1.255,5.608.576,1.746-1.255,3.091-3.963,1.934-3.242,4.3.565,2.078,0,3.425a8.465,8.465,0,0,1-1.433,2.273s-2.421-4.26-3.051-5.7-4.872-9.9-4.872-9.9-.541-.066-1.453,5.6-9.486-2.37-9.486-2.37-.415-7.225,0-6.329,1.743-3.181,1.743-3.181-5.708-5.441-6.246-6.089-2.617-2.4-2.931-3.068-2.5,7.86-2.5,7.86,1,4.968,1.3,5.627,1.2,2.721,1.2,2.721l3.831-.773.816,3.231-.816,1.7,3.6,1.41-5.652,5.577v7.681l-4.279-3.346v-4.335l-2.308-2.752s-2.287-.582-2.857,0a2.479,2.479,0,0,0,0,2.752c.532.949-1.355,0-1.355,0s-.526,2.121-.661,2.752-9.4.925-9.4.925-5.262-2.914-6.825-3.677-5.084-2.021-5.084-2.021-.608-3.429-.936-2.871-4.28,7.644-4.28,7.644-1.644-1.016-.662.925a6.992,6.992,0,0,1,.662,5.766c-.678,2.227-1.64,2.249-1.64,2.249s-3.872-2.8-3.253-4.011,2.2-1.981,1.729-2.741-5.915-4.94-5.915-4.94l-11.75-.773-1.8-1.979s1.3-1.971,1.8-2.825-7.87-7.317-8.392-7.539-1.692-.005-2.373-.752-4.867-5.821-6.1-5.627-9.387-.825-9.387-.825l-2,.825-1.694-9.467s-8.721,2.852-10.111,3.523,3.717-5.169,2.351-4.57-10.523.166-11.653,1.047,1.3-2.985-.855-2.084-8.467,2.88-7.977,3.9a28.95,28.95,0,0,0,2.021,3.093l-9.444-15.75-12.375-16.67s-3.286-2.618-3.257-3.447-.756-2.532.54-2.681-5.388-4.522-5.388-4.522a7.479,7.479,0,0,1,1.937-1.1,15.619,15.619,0,0,0,2.912-1.814l-8.571-.868s-.2-3.588-1.507-1.646a1.331,1.331,0,0,1-2.459,0s.681-2.9-4.388-1.783-9.432,1.783-9.432,1.783l-6.318-3.257s-1.741,6.407-1.741,7-3.178,3.084-3.594,4.19-1.413,1.665,0,3.478,2.2,2.887,1.022,3.774-1.881,1.361-1.636,3.311-3.641,0-3.641,0-2.543-4.361-3.423-5.062-2.381.452-1.3-.807a22.785,22.785,0,0,1,2.974-2.681s-10.578-3.054-10.607-2.54.005,7.85-.686,7.779-2.139-3.229-2.55-2.559a12.494,12.494,0,0,0-1.023,5.869c.364,1.74,2.985,4.5,3.574,5.072s2.181.444,2.869.752,4.46,1.326,1.227,3.384a13.669,13.669,0,0,0-4.1,3.474c-.658.657.69,1.577-1.831,1.565a11.16,11.16,0,0,1-5.525-1.565c-.936-.571-3.574,0-3.574,0l-1.036-4.667-13.593,5.263v4.123s-1.251.742-.647,1.839,1.429,2.982,1.266,3.691-2.549,0-2.549,0l-2.957,3.807,4.24,1.771-4.768,6.787s-4.628.7-3,1.474,4.2,4.186,4.2,4.186-1.311,7.928,0,7.291,4.833-6.762,4.833-6.762l-.619,6.762,3.158.612-6.756,3.635-4.059,2.615s-9.807-1.821-11.748-1.333-.284,2.523-2.624,3.31-7.116-.172-2.443,1.562,3.672,2.014,7.59,2.014,7.191-1.17,9.224-1.17,2.174-1.173,5.725-.844,4.5-.24,7.782,0,5.077-3.538,5.077-3.538-2.429-2.759,3.7-3.924,14.793-2.829,15.027-2.937,1.843-.643,2.658,0,1.018.522,1.564,1.578.993,1.385-.664,1.993-3.461-1.148-4.786-.633-1.535.09-3.652,1.309a16.228,16.228,0,0,0-3.424,2.615h0c-.4,1.538.635,1.15-1.332,2.6s1.833,1.3,3.709,1.778,2.267-.629,2.517,0,1.079,2.021,2.183,1.17-1-2.764,1.227-1.17,4.08,4.472,4.223,1.17-.5-2.683,0-4.088-1.656-2.734,1.3-2.8,3.964-.375,4.194,1.333.817,1.675,1.418,4.382.655,3.75.9,4.5.556,6.412.972,6.375,9.866,3.915,9.866,3.915v5.933h4.551s-.017,1.7,0,2.278a9.191,9.191,0,0,0,1.184,2.34,21.592,21.592,0,0,1,0,3.759,9.544,9.544,0,0,0,0,3.218,28.568,28.568,0,0,0,.806,3.709h3.106l1.416-2.911v5.336l2.6,1.442s-4.129,2.958-4.014,3.352a5.446,5.446,0,0,1,0,2.87,7.343,7.343,0,0,1-.8,2.093s4.012-.2,4.143-.534-.144-2.47.669-3.12,1.228-2.073,1.464-1.309-.54,4.886-.689,5.525-1.544,1.438-1.443,1.816,2.879,6.392,2.879,6.392,1.4,1.19,1.476,2.284-.733,1.09,0,3.541,1.251,2.864.783,4.134-.3,1.708-.783,2.109-1.369.625-.812,1.4,3.562,0,3.562,0a3.7,3.7,0,0,1,0,1.511c-.2.5-2.051,1.081-2.75,1.723s-2.842,2.958-1.476,4.294,1.972,1.627,1.056,2.876-2.383,1.168-1.056,2.481,1.553.6,3.021,2.714,2.847,3.909,2.847,4.54a31.848,31.848,0,0,1,0,4.152c-.181.693-2.118,3.584-2.158,4.127s-1.507-.5-.689,2.672a14.843,14.843,0,0,0,1.957,4.72s7.983,10.992,8.658,11.583,1.762-.259,2.707,2.575.193,3.7.812,6.287-.261,13.451-2.171,14.731-2.88,2.145-4.454,3.13-1.333-.381-3.887,4.964-10.5,23.563-10.5,23.563l-1.786,7.512-1.458,8.1-3.943,5.876,5.4,21.38H377.9a42.692,42.692,0,0,1-1.171,4.833c-.345.61-2.4-1.442-2.4-1.442s1.278,13.193,2.4,14.011,3.438,7.621,3.438,7.621v5.586l14.355,10.161,4.765,11.723,4.234,17.992s1.127,1.514,1.845,2.62-.656-2.124,2.072,3.07.433,2.144,3.814,6.7,4.049,4.378,4.132,5.106-.769,1.47-.894,2.4-1.209,1.289,0,2.568-5.509,0-5.509,0l8.7,8.9,3.348-.954,5.764,7.11s.292,6.9,0,7.724,2.444,7.274,4.557,8.7a26.942,26.942,0,0,1,4.583,3.62c.64.776,3.573,4.393,3.573,4.393s.287-1.509,1.268,0a3.107,3.107,0,0,0,2.5,1.475l.907-2.67-2.424-4.255-7.453-4.386-2.952-17.408-7.984-11.051v-4.9l-12.109-16.142.979-14.288s11.76,7.067,12.269,7.741,5.775,16.481,6.088,18.111a23.684,23.684,0,0,0,2.534,5.715c1.056,1.95.624,1.107,2.806,3.761a14.989,14.989,0,0,0,3.573,3.429s3.812,6.371,3.766,6.732,4.678,5,4.678,5l-.773,4.87a31.34,31.34,0,0,0,5,3.241c2.807,1.438,3.573,6.854,7.515,9.571s7.7,8.653,9.694,10.876,5.3,6.063,5.868,7.8-.446,2.586,0,3.821-.8,2.963-.8,3.608a8.169,8.169,0,0,0,.8,2.213l-2.738,2.394s14.895,15.791,16.283,16.47,7.826-.505,11.674,1.791a44.141,44.141,0,0,1,6.454,4.673s-1.081.636,9.446,2.763,24.45,9.445,25.183,9.392,18.4-3.911,18.4-3.911l16.425,8.271s2.38,5.362,10.625,6,18.07.821,19.456.821,1.595.316,4.257-.821a13.181,13.181,0,0,1,4.359-1.18l2.876,3.551" transform="translate(0 -39.311)" fill="none" stroke="#151515" stroke-linecap="round" stroke-linejoin="round" stroke-width="2"/>
      <path id="Path_8880-2" data-name="Path 8880" d="M806.817,8338.8v-2.232s-10.828,2.838-12.325-2.229,7.433-10,7.433-10" transform="translate(-193.842 -335.416)" fill="none" stroke="#151515" stroke-linecap="round" stroke-linejoin="round" stroke-width="2"/>
      <path id="Path_8881-2" data-name="Path 8881" d="M790.13,8338.843s-3.025,2.085-3.517,3.057a15.875,15.875,0,0,1-1.163,2.017A11.34,11.34,0,0,1,783.27,8346" transform="translate(-189.649 -340.919)" fill="none" stroke="#151515" stroke-linecap="round" stroke-linejoin="round" stroke-width="2"/>
      <path id="Path_8882-2" data-name="Path 8882" d="M781.688,8313.454h-1.3v-14.169s-9.523,2.33-12.746,2.349-1.358,3.956-1.358,3.956l-1.252,1.136s-2.8-.133-2.1,0,7.872,3.22,7.872,3.22-.409,2.033,0,2.5a1.144,1.144,0,0,1,0,1.672c-.558.421,1.13.308-4.522.6a54,54,0,0,0-6.745.557,26.879,26.879,0,0,1,0,4.375c-.221,1.571-.255,2.555-.555,4.073a8.41,8.41,0,0,1-1.491,3.018" transform="translate(-179.869 -325.913)" fill="none" stroke="#151515" stroke-linecap="round" stroke-linejoin="round" stroke-width="2"/>
      <path id="Path_8883-2" data-name="Path 8883" d="M794.216,8295.778s-.736-.228.811-1.3.752-.674,2.3-1.856a15.883,15.883,0,0,1,2.257-1.666,7.344,7.344,0,0,0,1.3-.919" transform="translate(-193.735 -322.406)" fill="none" stroke="#151515" stroke-linecap="round" stroke-linejoin="round" stroke-width="2"/>
      <path id="Path_8884-2" data-name="Path 8884" d="M606.954,8169.766c-.79-.028-13.047-2.846-13.047-2.846s-2.133-4.538-2.741-5.781-.576-3.389-2.412-5.37-1.189-1.683-2.427-2.675a8.889,8.889,0,0,1-1.923-1.815c-.366-.5-5.944-9.113-6.5-9.435a11.314,11.314,0,0,0-2.24-.8c-.6-.159-2.426-1.377-3.572-1.352s-.815-.1-2.389.812a36.7,36.7,0,0,0-4.371,2.792,26.984,26.984,0,0,1-3.634,2.335c-.267.115.208.681-1.636-.951s-5.025-3.466-6.39-6.416-.929-3.329-2.394-5.427-1.339-2.076-2.224-2.814-1.19-.91-1.723-1.382-3.68-4.355-4.81-4.833a47.837,47.837,0,0,0-6.075-1.949,16.151,16.151,0,0,0-5.609-.349,4.1,4.1,0,0,1-1.324,0v3.7s-6.139-.969-9.53-1.4,1.349.947-6.123-.729-5.634-.132-8.753-2.445-4.325-3.276-4.325-3.276-6.638-3.162-7.474-3.658-.024,1.054-4.085-1.6-3.21-4.039-3.21-4.039-7.495-.379-7.749-.456-2.095-.5-4.1-.869a33.148,33.148,0,0,0-4.247-.641h-.39" transform="translate(-70.601 -252.626)" fill="none" stroke="#151515" stroke-linecap="round" stroke-linejoin="round" stroke-width="2"/>
      <path id="Path_8885-2" data-name="Path 8885" d="M763.214,7891.1s-.742-1.793-1.613-1.874-.947,1.307-1.854,0a29.2,29.2,0,0,1-2.653-5.854c-.749-2.1-1.434-3.9-2.16-4.039s-2.823-1.027-3.88,0-.655,1.554-1.387,1.382-2.875-4.419-3.231-2.414-.827,20.1-.827,20.1l-8.7,5.217s-10.5,4.115-10.815,4.383-3.737,6.87-3.737,6.87-2.939,7.073-3.3,7.181-11.805,3.968-11.805,3.968-2.158-.324-.408,3.288-3.962,6.855-3.962,6.855l-11.728,9.427-5.055-1.542,2.711-13.3a38.181,38.181,0,0,0-.781-3.885c-.262-.62-.8-1.23-1.467-2.807s-1.293-2.843-1.673-3.852.865-.277-.784-2.088-2.5-3.357-3.4-3.244a8.572,8.572,0,0,1-3.925-.728c-1.737-.661-2.571-.229-2.9-1.208a34.988,34.988,0,0,0-2.931-4.43l-22.513-9.992s-1.255-.619-2.871,1.242-5.182,2.137-7.379,1.866-14.376-1.675-15.464-1.866-3.785-.669-4.993-.817-1.03,1.07-3.185-.929a16.389,16.389,0,0,1-3.315-4.457l-1.022,3.467s-62.348.789-75.738-2.268-32.857-6.31-32.857-6.31-34.67-6.956-35.045-7.067-1.428-.386-1.428-.386l-1.327-.46" transform="translate(-68.468 -166.012)" fill="none" stroke="#151515" stroke-linecap="round" stroke-linejoin="round" stroke-width="2"/>
      <path id="Path_8886-2" data-name="Path 8886" d="M448.389,7900.479l-.867-2.135s-.1-11.088,0-12.21,6.684,3.041,8.315,4.114-.585,1.123-.916,1.674-2.5,3.21-2.5,3.21l.783,3.211" transform="translate(-62.268 -169.116)" fill="none" stroke="#151515" stroke-linecap="round" stroke-linejoin="round" stroke-width="2"/>
      <path id="Path_8887-2" data-name="Path 8887" d="M446.929,7872.722c-.289-.179-5.637-3.366-5.684-3.936a2.85,2.85,0,0,1,.7-2.715c1.063-1.109-1.183-.462-2.979-1.478s-1.833-1.388-2.174-3.435-1.595-6.193-2.232-6.8-3.668-1.226-2.986-1.8a19.181,19.181,0,0,1,3.981-1.467,11.568,11.568,0,0,0,2.935,2.669c2.168,1.5,5.483,4.4,5.584,4.833s-.7,2.975.361,4.709-.875-.934,1.313,3.176,2.287,4.313,2.039,4.878A8.99,8.99,0,0,1,446.929,7872.722Z" transform="translate(-56.197 -155.893)" fill="none" stroke="#151515" stroke-linecap="round" stroke-linejoin="round" stroke-width="2"/>
      <path id="Path_8888-2" data-name="Path 8888" d="M429.994,7846.456c-.024.281-.391,3.489,0,3.334s3.155-.919,3.155-.919Z" transform="translate(-55.568 -154.136)" fill="none" stroke="#151515" stroke-linecap="round" stroke-linejoin="round" stroke-width="2"/>
      <path id="Path_8889-2" data-name="Path 8889" d="M415.561,7793.881a19.208,19.208,0,0,0-.749,3.677c.081.8.29.264,0,2.458s1.16,2.082,2.171.565.786-1.461,1.441-2.332,3.347-.677.984-1.555-3.2-1.173-3.2-1.173Z" transform="translate(-49.863 -134.192)" fill="none" stroke="#151515" stroke-linecap="round" stroke-linejoin="round" stroke-width="2"/>
      <path id="Path_8890-2" data-name="Path 8890" d="M422.779,7767.33l-.616,3.905.616.8s-1.75,1.412-1.628,2.038,2.221,2,2.412,2.5,0-2.5,0-2.5l3.407-.843s-1.816-2.884-2.377-3.8a15.825,15.825,0,0,1-1.03-2.1Z" transform="translate(-52.279 -124.12)" fill="none" stroke="#151515" stroke-linecap="round" stroke-linejoin="round" stroke-width="2"/>
      <path id="Path_8891-2" data-name="Path 8891" d="M323.813,7679.526v3.595s-.87.685,0,1.214a2.832,2.832,0,0,0,2.053.392,12.787,12.787,0,0,1,2.255,0c.479.052,1.343-1.693,1.743-1.605s.115.874,1.44.667,1.7-.776,1.482-1.34.319-2.866-1.771-2.1a20.493,20.493,0,0,0-3.655,2.1c-.455.136-.213.551-.75,0s-.509-.509-1.349-2.1S323.813,7679.526,323.813,7679.526Z" transform="translate(-15.21 -90.744)" fill="none" stroke="#151515" stroke-linecap="round" stroke-linejoin="round" stroke-width="2"/>
      <path id="Path_8892-2" data-name="Path 8892" d="M597.319,7621.952c-.425.046-16.14,0-16.14,0l1.671,4.217s1.583,2.54,3.608,3.2,3.3,1.4,3.446,2.3-.592.74,0,1.571a1.569,1.569,0,0,1,0,1.709h12.811a18.8,18.8,0,0,1,4.24-2.618,33.506,33.506,0,0,0,5.306-2.96s1.072,4.8,1.449,4.832,5.341-.963,5.341-.963l-.681-3.869s3.316-.088,3.826,0,1.35-1.257,1.625-1.617.815-.308,1.3-.561,1.282-.041.727-.614-8.634-6.333-9.205-7.288-.594-.466-.691-2.576-.456-6.8-.456-9.356-5.382-4.721-5.382-4.721-.393,13.514-.63,13.105a35.3,35.3,0,0,1-2-3.427c-.851-1.733-1.583-2.517-1.819-3.314a7.57,7.57,0,0,0-.682-2.509c-.829-2-.425-6.309-1.279-2.436s-2.562,4.247-3.655,4.369-1.878-1.509-1.217-1.934,2.771.671,1.217-1.14-2.114-1.991-2.114-1.991l-4.65,2.552,1.025-4.872s-7.916,3.065-8.358,3.016a7.2,7.2,0,0,0-3.1,1.856c-.722.819-.887,2.034-1.247,2.513s.153.188,1.247,1.311,6.31,2.731,7.054,2.579-1.122,1.277-1.122,1.277l-7.179.58s-1.08,3.688,0,3.729,11.151,0,11.151,0Z" transform="translate(-112.966 -61.039)" fill="none" stroke="#151515" stroke-linecap="round" stroke-linejoin="round" stroke-width="2"/>
      <path id="Path_8893-2" data-name="Path 8893" d="M582.771,7589.984s-4.983,2.168-5.984,3.219-8.252,3.877-8.558,4.453-1.089,2.506-1.089,2.506l-.966,1.412-7.337.491v-4.409s-.79-2.618-1.233-2.807-2.592-.112-2.274-.478,10.844-8.819,10.844-8.819v-4.776l7.085,1.181,2.764,3.595a21.708,21.708,0,0,1,3.794,1.185A6.864,6.864,0,0,1,582.771,7589.984Z" transform="translate(-103.17 -53.353)" fill="none" stroke="#151515" stroke-linecap="round" stroke-linejoin="round" stroke-width="2"/>
      <path id="Path_8894-2" data-name="Path 8894" d="M647.885,7608.032l8.555,7.457h1.946l.5-2.406s2.444.26,2.507,0,0-6.208,0-6.208l-4.953-2.8,4-3.889-8.635-.433a41.893,41.893,0,0,1,2.18,4.321,14.072,14.072,0,0,1,0,2.8,4.548,4.548,0,0,0-1.423,0c-.507.071-3.883-2.8-3.883-2.8s.379.576,0,2.241S647.885,7608.032,647.885,7608.032Z" transform="translate(-138.291 -60.55)" fill="none" stroke="#151515" stroke-linecap="round" stroke-linejoin="round" stroke-width="2"/>
      <path id="Path_8895-2" data-name="Path 8895" d="M665.628,7646.106l-2.24,5.951,7.207,2.87,2.732-2.87Z" transform="translate(-144.173 -78.135)" fill="none" stroke="#151515" stroke-linecap="round" stroke-linejoin="round" stroke-width="2"/>
      <path id="Path_8896-2" data-name="Path 8896" d="M699.509,7599.821l.736,12.341h12.3l-6.236-8.43v-4.8s1.152-2.527,1.2-2.907-1.3-1.352-2.132-1.323a4.947,4.947,0,0,0-2.488,1.323C702.534,7596.411,699.509,7599.821,699.509,7599.821Z" transform="translate(-157.875 -58.636)" fill="none" stroke="#151515" stroke-linecap="round" stroke-linejoin="round" stroke-width="2"/>
      <path id="Path_8897-2" data-name="Path 8897" d="M675,7596.576h10.809l-3.082,7.557s-4.874-.347-4.579.405,1.9,2.4.47,4.183-2.009,1.1-2.009,1.1Z" transform="translate(-148.577 -59.346)" fill="none" stroke="#151515" stroke-linecap="round" stroke-linejoin="round" stroke-width="2"/>
      <path id="Path_8898-2" data-name="Path 8898" d="M703.022,7614.663l10.484-2.292s1.414,2.06,1.557,1.582.494-6.11.494-6.11l-4.64-3.11,4.146,1.129-4.829-5s4.4-.354,4.159-.636a12.625,12.625,0,0,0-2.375-1.6,17.631,17.631,0,0,1,2.375-.4l-3.475-1.623,6.391-3.733,4.1,6.086.355,6.248h1.553l.818-4.979,6.071,3.752.881-.94-3.4-2.5,4.411-.311-4.8-1.269s-.111-1.9.982-1.922,5.734,0,5.734,0l-.88,5.58,4.455-3.345-.665,3.072a8.221,8.221,0,0,1,2.1,1.636c.333.614.323,1.535.7,1.889s.612.114,1.832-.349,2.317-.78,2.317-.78-4.265-1.687-1.175-2.4,4.223-2.456,4.318.273a28.775,28.775,0,0,0,.461,4.2c0,.322-1.646.248.539,1.037a15.437,15.437,0,0,0,4.135.868h1.1v-3.51a3.24,3.24,0,0,0,.676-.467c.331-.3-2.03-.808.82-.381s4.509.054,4.444.381-2.334,1.145-2.922,1.782-.887.658-.715.945a2.506,2.506,0,0,0,2.463.383c.729-.508,1.061-1.251,1.533-1.328s.631-.757,1.109,0a7.021,7.021,0,0,1,.978,1.7c.087.433.4.982-1.252,1.781s-2.23.982-2.368,1.264-2.549,1.267,0,1.116a10.559,10.559,0,0,1,2.9,0s2.271,1.4,2.238,1.958-.148.518,1.4.874-1.151-.471,1.756.582,4.449,1.714,4.7,2.087-.515.185.553.743a25.586,25.586,0,0,1,2.514,1.609,18.3,18.3,0,0,0,3.038,1.051c1.1.234,1.656.3,1.656.3h2.467a1.83,1.83,0,0,1,1.69.277,19.674,19.674,0,0,0,1.98,1.011c.063,0-.321.226,1.019.163s2.172-.109,2.172-.109c.754.063,1.94-1.089,1.94-1.089.251-.063-.254,1.876-.389,2.662s.372.106,0,1.667-.436,1.128-.386,2.082a14.562,14.562,0,0,0,1.555,4.095c.472.818,1.513.019.955,1.087s-1.058,1.266-1.735.752a2.967,2.967,0,0,0-1.94-.752,2.569,2.569,0,0,1-1.567-.392c-.342-.253-1.006-.518-1.28-.7s-.208-2.252-.344-2.81.7-2.089-.417-.89a10.421,10.421,0,0,0-1.563,2.081s-.925-.619-1.359-.83a4.664,4.664,0,0,0-1.7-.743c-.772-.091-.835-1.861-2.752-1.21a10.008,10.008,0,0,0-2.679,1.21c-1,.538-2.11.83-.359,1.573s2.021.853,2.744,1.207,2.18-.244.9.412-3.378.894-3.288,1.344.448.349,1.673,1.952a5.985,5.985,0,0,0,2.661,2.291c.3,0,.522-1.218,1.1-.963a15.457,15.457,0,0,1,2.032,1.485s.046-.036.617.424,2.493,2.61,3.411,2.671a3.468,3.468,0,0,0,2.172-.733c.138-.2-.824-1.11.258-.749s2.54.046,2.461,1.1-.667,1.484.487,2.078,1.58.348,2.669.688,2.135,2.4,2.135,2.4h-3.295s-2.192-.321,0,.739,2.466,1.2,2.466,1.2l2.809,3.527s-8.147-2.065-8.827-2.014-.55.313-1.487,0a9.735,9.735,0,0,0-2.524-.845c-.515.08-.745-.618-.761.845s-5.7-.536-2.592,1.184,6.216,2.111,7.365,2.96a17.557,17.557,0,0,0,3.925,2.068c1.946.851,2.274,1.063,2.922,2.032s-20.353.047-20.608,0a5.3,5.3,0,0,1-1.426-.436c-.222-.185-2.793,1.588-.382-.587s3.789-2.227,2.415-2.586-4.332.123-5.1,0a6.71,6.71,0,0,1-2.872-1.34c-.463-.539-.609-.323-1.061-1.279s-.891-2.718-1.516-2.361-.139.959-.586,1.14-1.863-.354-3-1.14-2.013-3.5-1.587-.5a9.715,9.715,0,0,0,1.28,4.139,36.4,36.4,0,0,0-5.206.487c-1.626.389-2.63.459-3.12.853a2.956,2.956,0,0,1-2.041.517c-.913-.026-.743-.418-.678-1.857s-.035-2.214,0-2.869-2.077-1.446,0-1.988,2.4-.181,4.687-.6a10.169,10.169,0,0,0,3.63-1.023c.8-.445,1.183-.339,1.978-1.225s.961-.49,1.057-1.07-1.644-2.661-2.644-3.138-1.1.741-1.312-1.1-.528-2.8.5-3.357,1.784-.7,1.864-1.606-.7-2.752-.679-3.171.661-.306,0-1.207-2.16-1.949-2.8-2.783-.532-.629-1.14-1.517a21.133,21.133,0,0,0-3.475-3.5c-1.174-.937.569,0-1.666-1.342s-4.408-.181-5.327-.3-1.857-1.967-1.857-1.967,1.9-.379-1.216-1.436a37.18,37.18,0,0,0-4.429-1.251c-1.427-.4-.972-.61-3.02-1.768s-4.205-3.1-4.562-3.12-.71-.34-.627.638a5.048,5.048,0,0,0,.627,2.832,4.9,4.9,0,0,0,1.421,1.418s-2.954.379-3.48.445-3.034.965-3.922.806-1.164-.483-1.189,0-.915.746-1.758.76,1.451-.821-1.552,0a31.76,31.76,0,0,1-5.634.947c-.387.077-.864-.681-1.257-1.708s.007-1.667-1.178-1.251-2.529,1.951-3.022,2.011-2.074.849-2.59,0a6.712,6.712,0,0,0-1.324-2.011A14.893,14.893,0,0,1,703.022,7614.663Z" transform="translate(-159.207 -57.939)" fill="none" stroke="#151515" stroke-linecap="round" stroke-linejoin="round" stroke-width="2"/>
      <path id="Path_8899-2" data-name="Path 8899" d="M735.188,7688.5s0,.605,0,1.668c0,1.641,0,4.647,0,5.72,0,1.584.6,4.2,0,6.421a18.015,18.015,0,0,1-1.2,3.377l6.72-.712s2.4.276,3.384-2.665a37.469,37.469,0,0,1,2.113-5.09s.638-.79,2.306,1.223,2,1.925,4.211,2.2,3.609,2.3,3.609,0,.844-5.7-1.22-4.75-2.266,1.642-4,1.331.4,1.5-2.6-1.331-2.779-3.095-4.419-3.387-2.978-1.8-4.248-2.078-.5.154-1.349.608-1.759,1.209-2.271,0S735.188,7688.5,735.188,7688.5Z" transform="translate(-170.953 -94.217)" fill="none" stroke="#151515" stroke-linecap="round" stroke-linejoin="round" stroke-width="2"/>
      <path id="Path_8900-2" data-name="Path 8900" d="M759.869,7719.486c-.854,1.366-1.545,2.826-2.257,3.811a4.739,4.739,0,0,1-1.412,1.459c-.292.172-1,.579-1.326,0s-1.589-.64-.719-1.459,1.515-1.281,2.518-2.214.8-1.424,1.42-1.6A5.722,5.722,0,0,1,759.869,7719.486Z" transform="translate(-178.49 -105.942)" fill="none" stroke="#151515" stroke-linecap="round" stroke-linejoin="round" stroke-width="2"/>
      <path id="Path_8901-2" data-name="Path 8901" d="M608.766,7577.51c.841,0,6.831-.593,7.356-1.275a2,2,0,0,1,2.281-1.133,14.171,14.171,0,0,0,3.054,0c.6-.118,1.184.271,1.336-1.929a23.029,23.029,0,0,0,0-3.635s-3.21,2.465-3.719.391a16.918,16.918,0,0,1-.338-4.69c0-.872,1.357-3.614-.334-1.456s-3.076,3.521-2.744,4.6,2.065,1.758,1.054,2.9a3.579,3.579,0,0,1-2.835,1.332c-.351-.157-.1-.337-1.132-1.332a34.507,34.507,0,0,1-3.073-3.851c-.338-.49.7-5.312-1.857-2.646s-2.607,3.843-3.092,4.182-1.3.02-2.614,1.408a5.8,5.8,0,0,1-2.478,1.683,3.729,3.729,0,0,0,2.478,1.122c1.344-.064,1.389-.286,2.614-1.122s1.267-1.746,1.857-1.349-.293,1.955.59,2.471,3.6-.718,3.476.421-3.772,1.46-4.066,2.13S608.766,7577.51,608.766,7577.51Z" transform="translate(-119.987 -46.599)" fill="none" stroke="#151515" stroke-linecap="round" stroke-linejoin="round" stroke-width="2"/>
      <path id="Path_8902-2" data-name="Path 8902" d="M594.162,7561.344a10.276,10.276,0,0,0,3.335-2.587,8.02,8.02,0,0,1,1.036-1.538c.486-.555.693-1.265,1.059-1.114s.155-.1.6,1.508,2.827-.3,3.4-.85a9.824,9.824,0,0,0,1.06-1.345c.333-.41.995-.635,0-.8s-2.72-1.091-3.615-1.091a5.576,5.576,0,0,0-2.506,0c-1.761.355-3.12,1.016-3.668,1.889s-.887.844-1.938,2.2-1.407,1.252-1.517,1.524,2.751.869,2.751.869v1.769" transform="translate(-116.867 -42.957)" fill="none" stroke="#151515" stroke-linecap="round" stroke-linejoin="round" stroke-width="2"/>
      <path id="Path_8903-2" data-name="Path 8903" d="M621.939,7552.33l1.773,1.035s1.31,1.351,1.8,0,.571-1.406.465-1.851,1.8-.885-.465-.885a27.861,27.861,0,0,1-3.055,0C621.959,7550.538,621.939,7552.33,621.939,7552.33Z" transform="translate(-128.449 -41.915)" fill="none" stroke="#151515" stroke-linecap="round" stroke-linejoin="round" stroke-width="2"/>
      <path id="Path_8904-2" data-name="Path 8904" d="M625.715,7543.929s4.3.477,4.118,0a7.3,7.3,0,0,0-.915-1.346Z" transform="translate(-129.882 -38.865)" fill="none" stroke="#151515" stroke-linecap="round" stroke-linejoin="round" stroke-width="2"/>
      <path id="Path_8905-2" data-name="Path 8905" d="M645.472,7540.66l3.286,1.039s-1.39.9-1.424,1.292,2.643-.9,2.945,0-.033,1.189,1.356,1.944a5.334,5.334,0,0,0,2.236.761s.37-1.668,0-2.146a18.854,18.854,0,0,1-1.087-1.852,7.951,7.951,0,0,1-2.5-1.039c-.357-.478-.176-1.043-1.52-1.465a17.7,17.7,0,0,1-3.286-1.68Z" transform="translate(-137.376 -36.942)" fill="none" stroke="#151515" stroke-linecap="round" stroke-linejoin="round" stroke-width="2"/>
      <path id="Path_8906-2" data-name="Path 8906" d="M655.123,7568.438a18.089,18.089,0,0,1,.807,2.867c.08.861-.079.763,0,1.276s-1.15-.076-1.464-.6-.816,1.85-.816,1.85-.562.214.816.654a1.74,1.74,0,0,0,2.049-.654s.6-.521,0,.654-1.3,1.746-1.391,2.421-2.475.533,0,1.057a9.516,9.516,0,0,0,3.881,0c.641.056,1.193-.023,1.431-1.057s.678-1.672.5-2.421-.334-1.018-.5-1.908a11.118,11.118,0,0,0-1.431-2.715s.757-1.123,0-.679-.294,1.356-1.356.679S655.123,7568.438,655.123,7568.438Z" transform="translate(-140.435 -48.672)" fill="none" stroke="#151515" stroke-linecap="round" stroke-linejoin="round" stroke-width="2"/>
      <path id="Path_8907-2" data-name="Path 8907" d="M669.693,7580.948s3.02-4.746,3.294-3.807,2.864,6.646,2.864,6.646Z" transform="translate(-146.564 -51.927)" fill="none" stroke="#151515" stroke-linecap="round" stroke-linejoin="round" stroke-width="2"/>
      <path id="Path_8908-2" data-name="Path 8908" d="M702.594,7569.357a6.088,6.088,0,0,0-2.644,1.215c-1.853,1.246-2.191,1.727-3.895,2.062s.364-.335-2.646,0-3.771,0-3.771,0,.179.81-.592.616-1.383-2.154-1.383-2.154a1.533,1.533,0,0,0-1.751-.523,10.555,10.555,0,0,0-1.655.523v-2.379l-.766-.59s-.53-3.787-1.028-1.1-.156,2.928,0,3.549,1.073,1.161,1.028,3.4-.188,2.421.766,2.8.93.41,2.261.963,1.368,1.708,2.527.552-.064-3.328,1.723-2.228,2.426,2.059,3.16,2.228.485.614,2.626,0,2.887.19,4.149-.552a5.632,5.632,0,0,0,1.89-2.78s.248-.121,1.788.605,1.727.864,2.343.5,1.476-.271,1.828-1.1,1.474-.272,0-.985a3.629,3.629,0,0,1-1.828-2.268s1.271-.644.692-1.133S702.594,7569.357,702.594,7569.357Z" transform="translate(-151.31 -47.771)" fill="none" stroke="#151515" stroke-linecap="round" stroke-linejoin="round" stroke-width="2"/>
      <path id="Path_8909-2" data-name="Path 8909" d="M702.131,7555.826a14.094,14.094,0,0,1-2.283,1.247c-1.87.863-2.221.908-2.778,1.192s-1.09-.166-2.011,0-.235-.6-1.752,0a15.4,15.4,0,0,1-2.581.8s-1.009-1.482,0-1.988a16.855,16.855,0,0,0,2.581-1.247,1.884,1.884,0,0,0,.647-1.578l-2.365-2.7a7.454,7.454,0,0,1,3.469.889c1.847.967,2.118,1.321,2.443.967s.107-1.065,1.046-1.855a4.661,4.661,0,0,0,1.3-1.936,8.357,8.357,0,0,0,1.467,1.936c.978.969-.595.2,1.468.889s3.136.366,4.889.473,1.756-.107,1.965.494,1.341-1.512.41.848-1.931,4.051-2.375,4.018-1.155.759-2.341,0S702.131,7555.826,702.131,7555.826Z" transform="translate(-154.373 -41.53)" fill="none" stroke="#151515" stroke-linecap="round" stroke-linejoin="round" stroke-width="2"/>
      <path id="Path_8910-2" data-name="Path 8910" d="M698.085,7526.558c1.764-.271,1.752.185,2.094-.538a19.489,19.489,0,0,0,.638-3.192c.1-.415.037-.424.861-1.151s1.122-1.659.8-2.233.923-.934-.8-1.4-1.69-.58-2.509-.772-1.734.286-1.881-.809-1.392-.41,0-1.485,3.328-2.17,3.529-2.639-.2-.366,0-1.6-2.963,1.243,0-2.056,3.108-4.057,3.108-4.493.716,5.968,0-1.046.355-5.576-1.452-4.192-2.295,1.714-2.295,1.714l-.576-4.465s.115-.806-1.517,0,1.015-1.314,2.094-1.41.33,4.41,1.5-.708,0-5.1,0-5.1a3.922,3.922,0,0,0-2.076,0,10.712,10.712,0,0,0-2.786,1.556c-.453.375-.827,1.24-1.5.909s1.606-2.394-.644-1.555-5.8,1.452-7.66,2.141-1.017-1.594-2.087,1.189,1.511,4.531,1.452,5.111.393.8-1.452.619-2.158.061-3.135-.619-2.591-2.948-2.094-.635,3.2,2.739,1.563,2.968a7.2,7.2,0,0,1-2.662,0c-1.644-.1-3.551-2.025-3.6,0s.781,3.843,1.238,4.076.022.521,1.336.688,4.674-1.239,4.674-1.239-.535.741-1.457,1.978,4.14.547,4.14.547.257-2,0-.547,6.127-.529,5.624,0-.588-2.354,0-3.023-.39-3.377,1.332-.726,4.722,1.245,1.889,3.011-4.66,4.138-4.448,4.447,3.413,3.477,3.413,3.477l-4.565-1.75-5.479-.864s5.915,5.583,6.219,5.722,3.825.809,3.825.809l-2.186,2.612s1.322.508,1.332.813-1.031.971-1.332.978-.365-.354-1.227-.508a7.157,7.157,0,0,1-1.552-.47s-.114-.254-.758.47-.559.473-.635,1.116-1.116,2.4-.539,2.39a6.809,6.809,0,0,0,1.932-.79s.97-.479,1.139-.413a28.623,28.623,0,0,1,1.639,2.549s-1.06.72.431,0a11.784,11.784,0,0,0,2.24-1.346s-.779-1.611.55-.79,1.546,1.236,1.546,1.236Z" transform="translate(-148.576 -18.478)" fill="none" stroke="#151515" stroke-linecap="round" stroke-linejoin="round" stroke-width="2"/>
      <path id="Path_8911-2" data-name="Path 8911" d="M680.821,7531.227s1.607-.464,1.79-.884-.431-.188,0-1.193a7.314,7.314,0,0,0,.481-2.234s.493-.239,0-.634-.461-.605-1.339-.455-.786.191-1.425,0-.927-.078-1.3-.981.381-.515-.547-1.487-.835-1.441-1.58-1.225-.6,1.37-1.733,0-3.542-2.516-3.347-2.83-.332-.946-.966-1.469-.821-1.783-1.5-1.429-1.55.1-1.45,1.429-1.435-.121,0,1.873,1.554,2.363.88,2.426-.918-1.218-1.436,0-1.348.582,0,2.021a5.8,5.8,0,0,1,1.436,3.349s.339.02.57.568a1.68,1.68,0,0,0,1.5,1.079c.784.044,2.645,0,2.645,0s-1.063,1.937-1.679,2.078-2.458.553,0,1.354,2.749.871,2.677,1.321-.777.893-.589,1.314,2.551-.357,2.992,0,1.146-2.044,1.146-2.044a1.934,1.934,0,0,1,.981,0c.392.153.508,1.053.8,0s.5-1.946.5-1.946Z" transform="translate(-145.399 -28.911)" fill="none" stroke="#151515" stroke-linecap="round" stroke-linejoin="round" stroke-width="2"/>
      <path id="Path_8912-2" data-name="Path 8912" d="M664.6,7547.635c1.352.552,3.814.431,3.814,0s.042-2.172-.444-2.456a14.788,14.788,0,0,0-2.332-1.35c-1.262-.553-2.161-1.957-2.235-.691s-.647.2,0,2.042A8.061,8.061,0,0,0,664.6,7547.635Z" transform="translate(-144.063 -38.88)" fill="none" stroke="#151515" stroke-linecap="round" stroke-linejoin="round" stroke-width="2"/>
      <path id="Path_8913-2" data-name="Path 8913" d="M742.4,7509.125s3.073.848,3.848,0a25.356,25.356,0,0,1,2.411-2.774c.949-.777.747-1.966,3.951-1.966s5.716,1.214,8.793,1.966,9.254.991,12.637,4.1,3.188,2.348,5.822,4.228,3.9,2.777,5.057,2.953,1.558-.6,2.581,0a15.68,15.68,0,0,1,1.924,1.354h1.709l5.9,2.785c.217,0,6.446,2.311,6.446,2.311.434.217,5.445,2.842,5.445,2.842a45.485,45.485,0,0,1,4.86,4.316c.868,1.175-.481,1.868,0,2.89a5.105,5.105,0,0,0,.915,1.7c.926,1.349,1-1.481,1.726,2.449s0,5.44,0,5.44-.487-1.9,2.517,0,1.791-.735,4.762,3.38a105.555,105.555,0,0,0,6.806,8.282,1.247,1.247,0,0,1,2.143,0c1.185,1.407-.33.054,3.22,2.245s7.382,5.19,7.382,5.19c.217,0,2.451-1.666,3.944,0s.723.947,2.921,2.35,1.5,1.167,3.609,2,3.562,1.412,4.926,2.048,4.008,2.5,4.762,2.547,3.467,2.157,3.875-.955-4.361-5,0-4.548,3.869-.032,5.849.908,2.612,1.347,2.424,0,1.671-2.28,0-3.413-5.405-4.866-7.4-6.123-3.066-2.669-3.218-3.7a13.64,13.64,0,0,1,0-2.61s.667-.161-1.526-3.273-2.339-2.431-3.851-4.322-4.8-3.985-5.837-6.813a21.223,21.223,0,0,1-1.685-5.667,57.982,57.982,0,0,0-1.924-7.158s-1.053.729,0-1.161a29.915,29.915,0,0,0,1.924-6.272s3.035-.183-1.924-4.953-6.158-6.78-6.865-7.307-4.031-1.737-1.887-3.157,3.573-1.577,3.622-3.657-.049-.489,0-3.909-1.1-5.61-1.735-9.271-1.287-4.8-1.887-4.96-.606-3-1.783,0-2.785,2.557-2.837,4.96,1.418,1.313,0,3.241-.207,3.248-2.638,2.076-6.422-5.5-7.262-5.317-2.454,2.477-1.62,0,0-2.526,0-2.526H821.64s-7.5-.864-.968-2.434,9.838-2.561,9.838-2.561,3.044-.017,3.6,0,1.763,0,1.763,0a2.1,2.1,0,0,0-1.763-2.377c-2.043-.369,1.563-2.491-4.614-1.748s-4.617,1.579-7.857,1.748a55.053,55.053,0,0,0-6.941.964c-.1,0,.69,1.248-.915,0s-2-4.032-2-4.032a.7.7,0,0,0,0-1.3c-1.028-.69-1.284-1.753-1.923-2.706s-.595-.533-2.667-2.227a10.254,10.254,0,0,1-2.54-2.613s2.6.271-1.17,0,6.758-1.628-4.572-2.462-12.574-.5-12.5-1.67,1.06-4.459,0-4.723-5.488-.684-6.545,0,1.141,2.109-2.48,0-6.044-3.147-7.579-4.066a27.86,27.86,0,0,0-6.857-2.6c-.919,0-.455,4.261-4.093,0s-5.06-5.083-5.06-5.083.653-1.282-1.184-1.193-5.188-1.511-5.188,0,3.292,4.606,3.292,4.606.573,2.085,1.9,2.644.315-.938,2.105,1.625,2.092,3.725,0,2.408-1.527-1.518-4-2.408-4.814-4.028-4.466-2.6,2.411,6.664,2.411,6.664-1.262-3.655-2.411,0-5.015-1.658-5.015-1.658l3.485-4.033-1.308-.974-4.611,2.6s-1.772-6.535-1.671-1.625.012,2.918,0,5.69-2.594-1.658-2.594-1.658-2.92,2.645-1.523,0a12.315,12.315,0,0,0,1.523-4.033s2.02-4.252-1.523,1.625,1.138,7.044,1.523,7.833a15.808,15.808,0,0,0,2.594,2.625s-5.228-2.623-1.552,1.16,1.552,3.916,1.552,3.916h-5.362l5.362,3.758h-6.453l2.335,2.475-5.373-2.475-2.526,5.543h3.439l-.913,3.4s3.69,1.822,3.038,2.5a10.777,10.777,0,0,1-2.124,1.466l-1.864-2.434.951,4.96,1.784.934,1.254-.934,3.859,6.688L729.424,7496s.182-.842,0,1.573-3.4,2.786-1.784,3.657a31.373,31.373,0,0,0,6.9,2.064c.13-.132-1.57,1.015,1.042-.95a20.707,20.707,0,0,0,3.223-2.735s.379-3.6,1.456,0,.612,2.382-1.456,4.778-5.468,3.02-1.671,3.419S742.4,7509.125,742.4,7509.125Z" transform="translate(-167.588 0)" fill="none" stroke="#151515" stroke-linecap="round" stroke-linejoin="round" stroke-width="2"/>
      <path id="Path_8914-2" data-name="Path 8914" d="M429.25,7718.479s3.483.537,3.824-1.119.889-4.529.919-4.988,1.146-1.506,0-2.126-1.727-2.756-3.321-4.719-3.14-2.643-2.977-4.362.82-3.5,1.066-6.2.429-4.174,0-6.027a13.438,13.438,0,0,1-.406-4.4,19.126,19.126,0,0,0,.406-3.465,3.93,3.93,0,0,1,0-1.28c.042-.869,1.438-1.227,0-2.061s-.083-1.078-2.477-1.078-1.791-.1-3.375,0-3.161,1.661-3.6-.407-.765-2.839-.655-3.868.833-1.572.655-2.649-.655-4.459-.655-4.459a41.322,41.322,0,0,1-3.74-2.094c-.49-.442-1-.857-1-.857l19.56-24.424,23.039-31.393.756-1.055" transform="translate(-49.536 -62.713)" fill="none" stroke="#151515" stroke-linecap="round" stroke-linejoin="round" stroke-width="2"/>
      <path id="Path_8915-2" data-name="Path 8915" d="M848.3,8231.582c1.578-1.146,5.53-3.77,8.027-5.283s2-2.135,4.822-3.037,3.605-1.83,4.829-1.135-1.461,2.931,1.382,4.172,11.331-.04,15.527,0,1.514-1.844,5.517,0,5.068,2.207,6.073,2.8,2.243-1.754,4.359,0,1.429,3.561,1.564,4.572,1.839.672,7.833-1.363,5.788-1.946,8.547-3.209a20.721,20.721,0,0,0,4.534-2.8s1.2-.259-4.534,0-5.856-3.662-8.547-3.037-5.784,1.371-5.784,1.371a35.712,35.712,0,0,1-7.972-2.506,49.982,49.982,0,0,0-13.167-3.973c-4.734-.7-3.648-.858-7-.858s-5.486-.506-9.782.858-7.073,2.469-9.117,3.973-6.446,2.77-7.11,4.172S848.3,8231.582,848.3,8231.582Z" transform="translate(-214.204 -294.776)" fill="none" stroke="#151515" stroke-linecap="round" stroke-linejoin="round" stroke-width="2"/>
      <path id="Path_8916-2" data-name="Path 8916" d="M980.444,8230.793s1.137-1.146,1.91,0-2.014,3.07,2.117,5.3,4.4,5.355,5.643,2.461a14.92,14.92,0,0,0,.968-6.25v-3.713l-.968-1.924s-3.066.955-3.7,1.185a11.889,11.889,0,0,1-3.248.739c-2.628.428-2.572-1.9-2.726,0" transform="translate(-264.445 -298.366)" fill="none" stroke="#151515" stroke-linecap="round" stroke-linejoin="round" stroke-width="2"/>
      <path id="Path_8917-2" data-name="Path 8917" d="M985.172,8224.622a18.478,18.478,0,0,1,3.313-1.5c.888-.149,2.216-.516,4.16-1.015s1.628-.951,2.728-.795,2.577.064,3.39.795,1.075.308,2.026,1.015.247,1.212,1.68,1.5a17.771,17.771,0,0,0,4.076,0s.25-1.359,0,.827.886,1.758-4.076,3.22-6.066-.167-7.1,2.065-2.423,3.4-5.378,5.48a4.878,4.878,0,0,1-5.665,0s-7.293,3.149-8.167,3.565a34.226,34.226,0,0,0-3.979,2.3c-.67.536-4.192-1.163-4.192-1.163s-3.131-.062.891-1.14,5.611-2.892,9.031-3.565a19.913,19.913,0,0,0,4.154-1.062" transform="translate(-259.281 -296.322)" fill="none" stroke="#151515" stroke-linecap="round" stroke-linejoin="round" stroke-width="2"/>
      <path id="Path_8918-2" data-name="Path 8918" d="M928.361,8268.339l9.338-3.62s-2.224-3.309-3.563-2.57-7.99,3.462-7.99,3.462Z" transform="translate(-243.847 -311.785)" fill="none" stroke="#151515" stroke-linecap="round" stroke-linejoin="round" stroke-width="2"/>
      <path id="Path_8919-2" data-name="Path 8919" d="M1048.091,8223.422l8.279-5.027v-2.285l-9.675,4.59Z" transform="translate(-289.577 -294.361)" fill="none" stroke="#151515" stroke-linecap="round" stroke-linejoin="round" stroke-width="2"/>
    </g>
  </g>
</svg>
