<svg xmlns="http://www.w3.org/2000/svg" xmlns:xlink="http://www.w3.org/1999/xlink" width="324.233" height="323.529" viewBox="0 0 324.233 323.529">
  <defs>
    <linearGradient id="linear-gradient" x1="0.024" y1="1.186" x2="0.131" y2="1.072" gradientUnits="objectBoundingBox">
      <stop offset="0" stop-color="#febbba"/>
      <stop offset="1" stop-color="#ff928e"/>
    </linearGradient>
    <linearGradient id="linear-gradient-2" x1="-1.807" y1="-0.608" x2="1.164" y2="0.819" xlink:href="#linear-gradient"/>
    <linearGradient id="linear-gradient-3" x1="3.484" y1="-1.365" x2="-0.242" y2="1.237" gradientUnits="objectBoundingBox">
      <stop offset="0" stop-color="#09005d"/>
      <stop offset="1" stop-color="#1a0f91"/>
    </linearGradient>
    <linearGradient id="linear-gradient-4" x1="-1.737" y1="0.5" x2="-0.737" y2="0.5" xlink:href="#linear-gradient"/>
    <linearGradient id="linear-gradient-5" x1="-1.837" y1="-0.771" x2="2.175" y2="1.483" xlink:href="#linear-gradient-3"/>
    <linearGradient id="linear-gradient-6" x1="-11.929" y1="0.5" x2="-10.929" y2="0.5" xlink:href="#linear-gradient"/>
    <linearGradient id="linear-gradient-7" x1="0.444" y1="-0.451" x2="0.494" y2="0.245" gradientUnits="objectBoundingBox">
      <stop offset="0" stop-color="#e1473d"/>
      <stop offset="1" stop-color="#e9605a"/>
    </linearGradient>
    <linearGradient id="linear-gradient-8" x1="-32.683" y1="26.223" x2="-32.725" y2="23.462" xlink:href="#linear-gradient-7"/>
    <linearGradient id="linear-gradient-9" x1="-89.504" y1="12.321" x2="-88.929" y2="16.449" xlink:href="#linear-gradient-7"/>
    <linearGradient id="linear-gradient-10" x1="-32.664" y1="26.883" x2="-32.706" y2="24.122" xlink:href="#linear-gradient-7"/>
    <linearGradient id="linear-gradient-11" x1="-87.605" y1="11.637" x2="-87.042" y2="15.441" xlink:href="#linear-gradient-7"/>
    <linearGradient id="linear-gradient-12" x1="0.504" y1="1.585" x2="0.5" y2="0.506" gradientUnits="objectBoundingBox">
      <stop offset="0" stop-color="#ff928e"/>
      <stop offset="1" stop-color="#fe7062"/>
    </linearGradient>
    <linearGradient id="linear-gradient-13" x1="0.366" y1="1.185" x2="0.583" y2="0.09" xlink:href="#linear-gradient-7"/>
    <linearGradient id="linear-gradient-14" x1="-27.439" y1="8.681" x2="-26.454" y2="8.681" xlink:href="#linear-gradient-12"/>
    <linearGradient id="linear-gradient-15" x1="-9.085" y1="0.5" x2="-8.085" y2="0.5" xlink:href="#linear-gradient-3"/>
    <linearGradient id="linear-gradient-16" x1="-23.392" y1="-0.843" x2="-23.899" y2="2.39" xlink:href="#linear-gradient"/>
    <linearGradient id="linear-gradient-17" x1="-6.311" y1="0.5" x2="-5.311" y2="0.5" xlink:href="#linear-gradient-3"/>
    <linearGradient id="linear-gradient-18" x1="-20.334" y1="-0.826" x2="-20.814" y2="1.889" xlink:href="#linear-gradient"/>
    <linearGradient id="linear-gradient-19" x1="-0.17" y1="0.869" x2="1" y2="0.288" xlink:href="#linear-gradient"/>
    <linearGradient id="linear-gradient-20" x1="0.877" y1="0.89" x2="0.214" y2="0.024" xlink:href="#linear-gradient"/>
    <linearGradient id="linear-gradient-21" x1="2.217" y1="2.237" x2="-0.496" y2="-0.589" xlink:href="#linear-gradient"/>
    <linearGradient id="linear-gradient-22" x1="1.314" y1="-0.073" x2="0.004" y2="0.944" xlink:href="#linear-gradient"/>
    <linearGradient id="linear-gradient-23" x1="1.01" y1="-1.182" x2="-0.407" y2="2.854" xlink:href="#linear-gradient"/>
    <linearGradient id="linear-gradient-24" x1="0.7" y1="0.02" x2="-1.5" y2="3.348" xlink:href="#linear-gradient"/>
    <linearGradient id="linear-gradient-25" x1="1.378" y1="0.9" x2="-0.812" y2="-0.019" xlink:href="#linear-gradient"/>
  </defs>
  <g id="Illustration" transform="translate(-451.953 -455)">
    <g id="Group_33" data-name="Group 33" transform="translate(451.953 455)">
      <path id="Path_1" data-name="Path 1" d="M788.774,673.533c-31.091,73.206-113.909,114.217-185.73,103.154-11.687-1.8-43.726-7.162-72.092-32.459-54.607-48.7-66.285-145.127-22.235-213.083,32.06-49.46,89.532-77.5,144.142-76.095,11.763.3,56.843,2.164,96.461,34.832a148.574,148.574,0,0,1,30.221,34.289C806.7,566.646,809.037,625.824,788.774,673.533Z" transform="translate(-478.311 -455)" fill="#d2fdfd"/>
      <g id="Group_3" data-name="Group 3" transform="translate(11.663 7.789)">
        <path id="Path_2" data-name="Path 2" d="M556.366,524.014c-.3-1.276,1.5-2.124,2.594-1.233,11.162,9.051,37.98,36.155,31.3,83.52-8.386,59.427,5.951,81.112,23.8,94.339,0,0-24.507-6.22-39.926-28.224C536.27,618.392,561.7,546.7,556.366,524.014Z" transform="translate(-552.895 -522.412)" fill="#51d9f2"/>
        <path id="Path_3" data-name="Path 3" d="M656.4,693.766c1.4,6.616,2.641,13.252,3.6,19.918q1.5,9.99,2.3,20.038c.5,6.7.846,13.4.866,20.1.055,6.705-.224,13.4-.531,20.131a182.11,182.11,0,0,0-.081,20.315,60.219,60.219,0,0,0,4.76,20.107c.711,1.6,1.458,3.2,2.307,4.748.816,1.559,1.712,3.088,2.64,4.6a72.644,72.644,0,0,0,6.331,8.71,79.868,79.868,0,0,0,16.671,14.59,1.669,1.669,0,0,0,2.111-.24,1.182,1.182,0,0,0-.243-1.8l0,0c-1.491-1.047-2.966-2.108-4.382-3.222-.718-.547-1.407-1.121-2.108-1.683-.675-.584-1.377-1.146-2.031-1.748a72.446,72.446,0,0,1-18.191-24.956,58.746,58.746,0,0,1-3.156-9.476,64.7,64.7,0,0,1-1.523-9.815,180.083,180.083,0,0,1-.087-20.049c.2-6.726.342-13.487.165-20.242q-.117-5.066-.445-10.125c-.1-1.686-.234-3.371-.366-5.055q-.226-2.525-.49-5.046-1.087-10.083-2.892-20.087c-1.242-6.659-2.689-13.288-4.429-19.857a.409.409,0,0,0-.484-.262A.354.354,0,0,0,656.4,693.766Z" transform="translate(-644.434 -673.603)" fill="#fff" style="mix-blend-mode: soft-light;isolation: isolate"/>
      </g>
      <g id="Group_5" data-name="Group 5" transform="translate(32.193 22.431)">
        <g id="Group_4" data-name="Group 4">
          <path id="Path_4" data-name="Path 4" d="M742.422,778.337a2.81,2.81,0,0,1-4.6-.783A85.68,85.68,0,0,1,739.978,704c14.337-28.715,19.382-45.649,21.139-53.494a1.762,1.762,0,0,1,3.332-.324C772.021,667.347,792.013,725.721,742.422,778.337Z" transform="translate(-730.566 -649.133)" fill="#51d9f2"/>
          <path id="Path_5" data-name="Path 5" d="M804.636,1059.286a.789.789,0,0,1-.15.012.779.779,0,0,1-.767-.791c.008-.488.957-49.234,19.087-90.062a.779.779,0,1,1,1.424.632c-18,40.53-18.946,88.969-18.953,89.453A.779.779,0,0,1,804.636,1059.286Z" transform="translate(-795.267 -931.14)" fill="#fff" style="mix-blend-mode: soft-light;isolation: isolate"/>
        </g>
      </g>
      <g id="Group_8" data-name="Group 8" transform="translate(0 39.04)">
        <g id="Group_6" data-name="Group 6" transform="translate(133.24)">
          <path id="Path_6" data-name="Path 6" d="M1715.882,836.052c-4.341-7.624-7.68-17.876-.859-25.55,12.32-13.86,36.96-16.94,43.121,4.62,2.548,8.919.748,15.851-2.238,20.914a7.04,7.04,0,0,0,6.089,10.6h39.27v52.4a5.833,5.833,0,0,1-9.2,4.742c-26.344-18.285-40.081,3.283-40.11,12.99-.032,10.78,4.652,36.191,21.593,35.42a41.769,41.769,0,0,0,18.924-5.678,5.833,5.833,0,0,1,8.8,5.009v48.837h-40.641a6.061,6.061,0,0,0-5.078,9.378c3.016,4.652,5.541,11.4,5.678,20.995.35,24.434-36.96,20.02-46.2,12.321-6.6-5.5-6.872-23.136-1.733-34.043a6.155,6.155,0,0,0-5.679-8.651h-39.559V946.91a5.009,5.009,0,0,0-7.581-4.3c-6.808,4.046-17.324,9.118-27.84,9.575-17.71.771-20.02-19.25-20.79-34.65-.68-13.6,25.251-35.619,45.721-22.2,3.354,2.2,10.237,5.417,10.237,1.407V846.636h41.98A7.055,7.055,0,0,0,1715.882,836.052Z" transform="translate(-1611.049 -798.755)" fill="#00b3d3"/>
          <path id="Path_7" data-name="Path 7" d="M1731.682,1044.026a51.234,51.234,0,0,1-6.4-.412c-7.05-.889-13.457-3.132-16.723-5.853-7.122-5.936-7.019-24.191-1.939-34.973a5.089,5.089,0,0,0-.34-4.98,5.467,5.467,0,0,0-4.634-2.56h-39.558a.779.779,0,0,1-.779-.779V941.028a4.23,4.23,0,0,0-6.4-3.632c-7.005,4.163-17.585,9.222-28.2,9.684-8.165.363-14.058-3.593-17.5-11.736-2.919-6.908-3.712-15.833-4.1-23.654-.372-7.433,6.528-16.935,16.407-22.594,10.5-6.016,21.628-6.122,30.519-.292,3.088,2.025,7.259,3.756,8.614,3.026.114-.062.417-.225.417-.967V840.754a.779.779,0,0,1,.779-.779h41.98a6.19,6.19,0,0,0,5.408-3.1,6.271,6.271,0,0,0,.017-6.316c-6.2-10.891-6.465-20.039-.764-26.453,7.531-8.472,19.5-12.859,29.1-10.672,7.519,1.714,12.973,7.253,15.357,15.6,2.247,7.867,1.468,15.108-2.317,21.524a6.261,6.261,0,0,0,5.418,9.424h39.27a.779.779,0,0,1,.779.779v52.4a6.469,6.469,0,0,1-3.519,5.825,6.664,6.664,0,0,1-6.906-.443c-13.072-9.074-22.2-7.647-27.563-4.854-7.7,4.015-11.311,12.641-11.324,17.206-.025,8.344,2.656,23.362,10.145,30.54a13.979,13.979,0,0,0,10.634,4.1,40.649,40.649,0,0,0,18.571-5.575,6.623,6.623,0,0,1,6.687-.011,6.507,6.507,0,0,1,3.277,5.7V994.47a.779.779,0,0,1-.779.779h-40.641a5.281,5.281,0,0,0-4.424,8.175c3.73,5.753,5.682,12.956,5.8,21.408.108,7.542-3.331,13.2-9.946,16.354A33.828,33.828,0,0,1,1731.682,1044.026Zm-68.814-50.336h38.779a7.017,7.017,0,0,1,5.949,3.284,6.705,6.705,0,0,1,.434,6.478c-5.235,11.11-4.451,28.13,1.527,33.112,6.126,5.1,24.629,8.576,35.864,3.215,6.111-2.916,9.16-7.938,9.059-14.926-.117-8.154-1.985-15.079-5.552-20.582a6.839,6.839,0,0,1,5.731-10.581h39.862V945.633a4.964,4.964,0,0,0-2.5-4.346,5.08,5.08,0,0,0-5.13.012,42.2,42.2,0,0,1-19.277,5.781,15.475,15.475,0,0,1-11.782-4.532c-7.843-7.517-10.651-23.057-10.625-31.669.015-5.092,3.8-14.224,12.162-18.583,5.739-2.992,15.459-4.561,29.171,4.956a5.045,5.045,0,0,0,5.3.343,4.935,4.935,0,0,0,2.684-4.445V841.533h-38.491a7.819,7.819,0,0,1-6.76-11.774c3.559-6.033,4.286-12.865,2.161-20.3-2.846-9.96-9.3-13.385-14.205-14.5-9.07-2.071-20.414,2.121-27.584,10.188-3.637,4.091-6.424,11.689.954,24.647h0a7.814,7.814,0,0,1-.025,7.87,7.733,7.733,0,0,1-6.755,3.878h-41.2v49.329a2.441,2.441,0,0,1-1.234,2.338c-2.975,1.607-9.915-2.9-10.209-3.094-8.383-5.5-18.913-5.374-28.89.342-9.246,5.3-15.964,14.395-15.626,21.164.385,7.684,1.158,16.441,3.983,23.125,3.206,7.586,8.433,11.114,16,10.786,10.295-.447,20.623-5.395,27.475-9.467a5.788,5.788,0,0,1,8.758,4.971Z" transform="translate(-1605.085 -792.873)" fill="#fff"/>
        </g>
        <g id="Group_7" data-name="Group 7" transform="translate(0 2.917)">
          <path id="Path_8" data-name="Path 8" d="M498.372,966.781a39.187,39.187,0,0,1-17.59,6.8c-15.218,1.522-21.3-15.218-22.066-29.675s12.174-28.153,23.588-26.631c5.376.717,11.258,4.134,15.977,7.549a5.752,5.752,0,0,0,9.133-4.659V868.243h52.532a5.991,5.991,0,0,0,5.45-8.5c-4.122-8.958-8.751-22.571-2.294-28.446,10.034-9.131,37.141-9.131,41.706,4.565,2.556,7.669-.916,16.9-4.468,23.531a5.993,5.993,0,0,0,5.286,8.828H650.46V916.31a6.4,6.4,0,0,1-9.985,5.349c-19.395-13.765-40.576.755-42.516,16.924-2.283,19.022,9.892,35,22.827,33.479,6.568-.773,14.117-4.489,19.958-7.959a6.418,6.418,0,0,1,9.717,5.5v53.115H598.819a8.049,8.049,0,0,1-7.3-11.489c3.052-6.345,15.561-14.135,14.81-20.148C604.807,978.911,577.7,975.9,563.1,978.165c-11.143,1.73-5.6,19.161.729,33.13a8.062,8.062,0,0,1-7.318,11.425h-49.1V971.51A5.768,5.768,0,0,0,498.372,966.781Z" transform="translate(-457.906 -824.147)" fill="#00b3d3"/>
          <path id="Path_9" data-name="Path 9" d="M644.507,1017.472H592.866a8.829,8.829,0,0,1-7.513-4.155,8.706,8.706,0,0,1-.489-8.451c1.312-2.727,4.27-5.685,7.13-8.545,3.935-3.936,8-8.005,7.609-11.168a9.383,9.383,0,0,0-4.074-6.269c-5.494-4.143-21.846-8.525-38.262-5.977a5.952,5.952,0,0,0-4.675,3.064c-2.541,4.7-.468,14.72,5.994,28.974a8.841,8.841,0,0,1-8.027,12.526h-49.1a.779.779,0,0,1-.779-.779v-51.21a4.869,4.869,0,0,0-2.608-4.364,5.007,5.007,0,0,0-5.221.282,39.4,39.4,0,0,1-17.946,6.931,16.364,16.364,0,0,1-12.765-3.871c-2.758-2.367-9.269-9.692-10.156-26.538-.408-7.747,3.12-16.048,9.2-21.665,4.7-4.339,10.266-6.445,15.264-5.779,4.639.619,10.133,3.206,16.331,7.69a4.973,4.973,0,0,0,7.9-4.028V862.215a.779.779,0,0,1,.779-.779h52.532a5.212,5.212,0,0,0,4.742-7.394c-4.626-10.055-8.748-23.309-2.111-29.348,6.36-5.788,19.545-8.18,30.016-5.446,6.715,1.753,11.316,5.425,12.954,10.341,2.665,8-.987,17.544-4.52,24.145a5.214,5.214,0,0,0,4.6,7.682h44.836a.779.779,0,0,1,.779.779v48.089a7.257,7.257,0,0,1-3.956,6.462,6.879,6.879,0,0,1-7.259-.478c-8.219-5.833-17.457-6.957-26.014-3.165-8.3,3.676-14.294,11.349-15.278,19.547-1.245,10.375,1.947,20.795,8.33,27.193,4.044,4.053,8.882,5.98,13.632,5.42,6.628-.78,14.345-4.7,19.651-7.855a7.2,7.2,0,0,1,10.894,6.172v53.115A.779.779,0,0,1,644.507,1017.472Zm-77.369-46.8c10.217,0,22.547,1.85,29.329,6.965a10.873,10.873,0,0,1,4.682,7.32c.49,3.919-3.853,8.263-8.054,12.463-2.768,2.768-5.63,5.63-6.827,8.119a7.154,7.154,0,0,0,.4,6.945,7.279,7.279,0,0,0,6.194,3.427h50.862V963.577a5.639,5.639,0,0,0-8.54-4.832c-5.436,3.23-13.364,7.251-20.265,8.063-5.227.616-10.529-1.468-14.917-5.868-6.712-6.728-10.075-17.641-8.774-28.478,1.048-8.732,7.4-16.891,16.194-20.786,9.08-4.022,18.863-2.843,27.546,3.319a5.347,5.347,0,0,0,5.642.364,5.705,5.705,0,0,0,3.113-5.078v-47.31H599.672A6.772,6.772,0,0,1,593.7,853c3.389-6.331,6.906-15.446,4.416-22.916-1.466-4.4-5.682-7.711-11.869-9.326-10.014-2.613-22.564-.378-28.574,5.091-2.684,2.442-5.931,9.268,2.478,27.544a6.77,6.77,0,0,1-6.158,9.6H502.239V914.14a6.531,6.531,0,0,1-10.368,5.29c-5.9-4.27-11.3-6.832-15.623-7.408-4.537-.606-9.642,1.356-14,5.379-5.754,5.311-9.09,13.143-8.706,20.438.593,11.271,4.188,20.78,9.615,25.437a14.86,14.86,0,0,0,11.6,3.5,37.857,37.857,0,0,0,17.234-6.675h0a6.627,6.627,0,0,1,6.821-.363,6.4,6.4,0,0,1,3.433,5.739v50.432h48.321a7.23,7.23,0,0,0,6.1-3.322,7.3,7.3,0,0,0,.505-7c-6.767-14.925-8.767-25.139-5.946-30.359a7.509,7.509,0,0,1,5.807-3.863A67.815,67.815,0,0,1,567.138,970.675Z" transform="translate(-451.953 -818.118)" fill="#fcfcfc"/>
        </g>
      </g>
      <g id="Group_19" data-name="Group 19" transform="translate(214.403 2.515)">
        <g id="Group_13" data-name="Group 13" transform="translate(28.662)">
          <g id="Group_9" data-name="Group 9">
            <path id="Path_10" data-name="Path 10" d="M2558.309,527.457a.974.974,0,0,1-1.111-.679c-.314-1.054-.586-2.137-.81-3.219a.973.973,0,0,1,.756-1.15l.019,0a.973.973,0,0,1,1.132.76c.213,1.028.472,2.057.77,3.058a.973.973,0,0,1-.656,1.211A.938.938,0,0,1,2558.309,527.457Zm-1.5-8.347a1.009,1.009,0,0,1-.115.014.974.974,0,0,1-1.037-.906c-.074-1.1-.1-2.218-.082-3.316a.973.973,0,1,1,1.947.035c-.019,1.044.008,2.1.078,3.152A.973.973,0,0,1,2556.812,519.11Zm.378-8.469a.974.974,0,0,1-1.14-1.11c.173-1.088.395-2.183.66-3.253a.974.974,0,0,1,1.89.469c-.252,1.016-.463,2.055-.627,3.089A.973.973,0,0,1,2557.19,510.641Zm2.263-8.173a.974.974,0,0,1-1.081-1.321c.412-1.023.874-2.04,1.371-3.024a.973.973,0,1,1,1.737.879c-.472.934-.911,1.9-1.3,2.872A.973.973,0,0,1,2559.454,502.468Zm4.029-7.463a.973.973,0,0,1-.978-1.512c.627-.9,1.3-1.793,2.005-2.644a.973.973,0,1,1,1.5,1.241c-.669.808-1.31,1.654-1.906,2.513A.971.971,0,0,1,2563.482,495Zm5.579-6.386a.973.973,0,0,1-.837-1.675c.813-.744,1.668-1.462,2.541-2.134a.974.974,0,0,1,1.188,1.543c-.83.639-1.642,1.321-2.415,2.028A.965.965,0,0,1,2569.061,488.619Zm34.635-8.833a.969.969,0,0,1-.411-.012c-1.015-.25-2.055-.46-3.091-.622a.973.973,0,1,1,.3-1.923c1.091.171,2.186.391,3.256.655a.974.974,0,0,1-.055,1.9Zm-27.784,3.846a.974.974,0,0,1-.66-1.8c.958-.545,1.951-1.054,2.952-1.514a.973.973,0,1,1,.813,1.769c-.951.437-1.894.921-2.8,1.438A.976.976,0,0,1,2575.912,483.632Zm19.375-4.934a.96.96,0,0,1-.2.017c-1.046-.017-2.107.012-3.153.084a.973.973,0,1,1-.134-1.942c1.1-.076,2.217-.106,3.318-.089a.973.973,0,0,1,.165,1.93Zm-11.582,1.6a.973.973,0,0,1-.457-1.89c1.054-.316,2.137-.591,3.217-.816l.021,0a.973.973,0,0,1,.377,1.91c-1.026.214-2.054.475-3.055.776C2583.773,480.285,2583.74,480.293,2583.706,480.3Z" transform="translate(-2555.573 -476.763)" fill="#f89f1b"/>
            <path id="Path_11" data-name="Path 11" d="M3008.206,502.777a.968.968,0,0,1-.577-.069c-.458-.206-.927-.406-1.4-.594a.973.973,0,1,1,.726-1.806c.493.2.987.408,1.469.625a.973.973,0,0,1-.221,1.845Z" transform="translate(-2953.62 -497.524)" fill="#f89f1b"/>
          </g>
          <g id="Group_10" data-name="Group 10" transform="translate(20.798 23.646)">
            <path id="Path_12" data-name="Path 12" d="M3189.39,684.791a.973.973,0,0,1-1.094-.629c-.169-.472-.351-.949-.541-1.417a.973.973,0,1,1,1.8-.731c.2.493.391.995.569,1.492a.972.972,0,0,1-.739,1.285Z" transform="translate(-3135.443 -681.406)" fill="#f89f1b"/>
            <path id="Path_13" data-name="Path 13" d="M2808.809,784.07q-.66.124-1.33.225a.974.974,0,0,1-.293-1.925c1.03-.157,2.051-.355,3.047-.592a.973.973,0,0,1,.451,1.894C2810.068,783.819,2809.438,783.953,2808.809,784.07Zm-6.451.65a.973.973,0,0,1-.165.017c-1.086.017-2.185-.012-3.266-.086a.973.973,0,0,1,.133-1.942c1.027.07,2.07.1,3.1.082a.973.973,0,0,1,.2,1.93Zm13.215-2.578a.973.973,0,0,1-.531-1.864c.958-.373,1.914-.791,2.84-1.245a.974.974,0,0,1,.857,1.748c-.976.478-1.982.919-2.991,1.312A.973.973,0,0,1,2815.573,782.142Zm-21.524,1.788a.97.97,0,0,1-.377,0c-1.062-.222-2.127-.492-3.167-.8a.973.973,0,1,1,.558-1.865c.986.295,2,.551,3.007.762a.974.974,0,0,1-.021,1.91Zm28.914-5.653a.974.974,0,0,1-.723-1.764c.853-.574,1.693-1.193,2.5-1.839a.973.973,0,1,1,1.219,1.517c-.846.68-1.731,1.332-2.628,1.937A.973.973,0,0,1,2822.963,778.277Zm6.363-5.393a.973.973,0,0,1-.886-1.626c.708-.749,1.394-1.537,2.036-2.341a.973.973,0,1,1,1.521,1.215c-.677.846-1.4,1.675-2.143,2.463A.968.968,0,0,1,2829.326,772.884Zm5.036-6.652a.974.974,0,0,1-1.014-1.456c.529-.886,1.026-1.8,1.479-2.728a.973.973,0,1,1,1.749.855c-.476.973-1,1.939-1.556,2.871A.971.971,0,0,1,2834.362,766.232Zm3.465-7.592a.973.973,0,0,1-1.1-1.261c.322-.98.606-1.984.844-2.985a.973.973,0,1,1,1.894.45c-.251,1.055-.55,2.113-.889,3.144A.973.973,0,0,1,2837.827,758.64Zm1.715-8.17a.975.975,0,0,1-1.148-1.05c.1-1.024.154-2.066.165-3.1a.974.974,0,0,1,1.947.022c-.012,1.085-.071,2.182-.174,3.26A.975.975,0,0,1,2839.542,750.47Zm-.122-8.342-.06.009a.973.973,0,0,1-1.086-.846c-.094-.753-.212-1.512-.351-2.256q-.076-.4-.16-.8a.973.973,0,0,1,.753-1.152.963.963,0,0,1,1.152.753q.089.422.168.847c.146.783.271,1.582.369,2.374A.973.973,0,0,1,2839.42,742.128Z" transform="translate(-2783.542 -730.624)" fill="#f89f1b"/>
            <path id="Path_14" data-name="Path 14" d="M2738.122,1100.209a.97.97,0,0,1-.582-.071c-.479-.219-.964-.452-1.438-.692a.973.973,0,0,1,.88-1.737c.451.229.911.45,1.366.657a.973.973,0,0,1-.226,1.842Z" transform="translate(-2735.568 -1049.513)" fill="#f89f1b"/>
          </g>
          <g id="Group_12" data-name="Group 12" transform="translate(9.513 9.244)">
            <path id="Path_15" data-name="Path 15" d="M2650.957,610.522a.455.455,0,0,0,.526.043l4.757-2.834a24.119,24.119,0,0,0,7.444,2.378l2.236,5.062a.456.456,0,0,0,.454.27l6.618-.556a.455.455,0,0,0,.4-.342l1.359-5.364a24.121,24.121,0,0,0,6.942-3.587l5.164,2a.455.455,0,0,0,.512-.131l4.287-5.073a.454.454,0,0,0,.043-.526l-2.834-4.757a24.11,24.11,0,0,0,2.378-7.444l5.062-2.236a.455.455,0,0,0,.269-.454l-.556-6.619a.454.454,0,0,0-.342-.4l-5.364-1.359a24.113,24.113,0,0,0-3.587-6.943l2-5.164a.454.454,0,0,0-.131-.512l-5.073-4.286a.455.455,0,0,0-.526-.043l-4.757,2.834a24.114,24.114,0,0,0-7.444-2.378l-2.236-5.062a.455.455,0,0,0-.454-.27l-6.618.556a.455.455,0,0,0-.4.342l-1.359,5.364a24.111,24.111,0,0,0-6.943,3.587l-5.163-2a.455.455,0,0,0-.512.131l-4.286,5.073a.455.455,0,0,0-.043.526l2.833,4.757a24.122,24.122,0,0,0-2.377,7.444l-5.062,2.236a.455.455,0,0,0-.27.454l.556,6.618a.455.455,0,0,0,.341.4l5.364,1.359a24.112,24.112,0,0,0,3.587,6.943l-2,5.163a.455.455,0,0,0,.131.512Z" transform="translate(-2637.902 -556.764)" fill="#f89f1b"/>
            <g id="Group_11" data-name="Group 11" transform="translate(22.663 22.659)">
              <path id="Path_16" data-name="Path 16" d="M2841.935,766.114a6.679,6.679,0,1,1,.948-.25A6.686,6.686,0,0,1,2841.935,766.114Zm-2.153-11.6a5.191,5.191,0,0,0-.734.194,5.1,5.1,0,1,0,.734-.194Z" transform="translate(-2834.036 -752.871)" fill="#fff"/>
            </g>
            <path id="Path_17" data-name="Path 17" d="M2769.915,700.152a16.732,16.732,0,0,1-1.671.226h0q-.267.022-.534.036a16.508,16.508,0,0,1-2.628-.073l-.035,0-.1-.012-.2-.024a.389.389,0,1,1,.1-.772,15.655,15.655,0,0,0,15.87-8.262,15.538,15.538,0,0,0,1.731-8.557,15.932,15.932,0,0,0-.215-1.595,15.638,15.638,0,1,0-28.068,12.03.389.389,0,1,1-.632.455A16.417,16.417,0,1,1,2783,680.971a16.868,16.868,0,0,1,.226,1.674,16.419,16.419,0,0,1-13.311,17.508Z" transform="translate(-2737.447 -654.796)" fill="#fff"/>
          </g>
        </g>
        <g id="Group_18" data-name="Group 18" transform="translate(0 43.961)">
          <g id="Group_14" data-name="Group 14">
            <path id="Path_18" data-name="Path 18" d="M2327.117,1167.02a.6.6,0,0,1-.646-.319c-.231-.455-.452-.923-.656-1.391a.6.6,0,1,1,1.1-.48c.194.446.4.893.625,1.327a.6.6,0,0,1-.263.808A.61.61,0,0,1,2327.117,1167.02Z" transform="translate(-2323.656 -1128.967)" fill="#f89f1b"/>
            <path id="Path_19" data-name="Path 19" d="M2309.268,890.98a.6.6,0,0,1-.687-.421,26.2,26.2,0,0,1-.618-2.572q-.051-.273-.1-.548a.622.622,0,0,1,.5-.692.6.6,0,0,1,.691.495q.043.263.092.524a24.956,24.956,0,0,0,.589,2.453.6.6,0,0,1-.406.747C2309.307,890.971,2309.288,890.976,2309.268,890.98Zm-1.017-6.159a.6.6,0,0,1-.712-.566,26.089,26.089,0,0,1,.062-3.2.6.6,0,1,1,1.2.1,24.9,24.9,0,0,0-.059,3.052A.6.6,0,0,1,2308.25,884.821Zm.507-6.222a.6.6,0,0,1-.7-.714,25.869,25.869,0,0,1,.847-3.088.6.6,0,0,1,1.137.389,24.693,24.693,0,0,0-.808,2.945A.6.6,0,0,1,2308.757,878.6Zm2.021-5.907a.6.6,0,0,1-.65-.854,26.173,26.173,0,0,1,1.576-2.786.6.6,0,0,1,1.008.656,24.806,24.806,0,0,0-1.5,2.657A.6.6,0,0,1,2310.778,872.693Zm3.4-5.234a.6.6,0,0,1-.571-.978,26.3,26.3,0,0,1,2.2-2.318.6.6,0,0,1,.819.88,25.028,25.028,0,0,0-2.1,2.212A.6.6,0,0,1,2314.18,867.458Zm4.569-4.249a.6.6,0,0,1-.463-1.078,25.868,25.868,0,0,1,2.7-1.71.6.6,0,0,1,.579,1.054,24.662,24.662,0,0,0-2.577,1.63A.6.6,0,0,1,2318.749,863.209Zm5.468-3a.6.6,0,0,1-.332-1.15,26.048,26.048,0,0,1,3.042-1,.6.6,0,0,1,.3,1.164,24.7,24.7,0,0,0-2.9.949A.6.6,0,0,1,2324.217,860.207Zm9.161-1.79a.6.6,0,0,1-.106.01,24.938,24.938,0,0,0-2.65.167c-.134.015-.265.031-.4.049a.6.6,0,0,1-.16-1.192c.139-.018.278-.036.419-.051a26.163,26.163,0,0,1,2.775-.174.6.6,0,0,1,.117,1.192Z" transform="translate(-2307.516 -857.225)" fill="#f89f1b"/>
          </g>
          <g id="Group_15" data-name="Group 15" transform="translate(13.917 32.383)" opacity="0.3">
            <path id="Path_20" data-name="Path 20" d="M2477.867,1156.526a.6.6,0,0,1-.229-1.181,24.889,24.889,0,0,0,2.9-.767.6.6,0,0,1,.377,1.142,26.187,26.187,0,0,1-3.043.8Zm-3.047.422a.633.633,0,0,1-.065.008,26.323,26.323,0,0,1-3.148.056.6.6,0,0,1,.051-1.2,25.112,25.112,0,0,0,3-.053.6.6,0,0,1,.158,1.19Zm8.875-2.348a.6.6,0,0,1-.367-1.134,24.979,24.979,0,0,0,2.632-1.447.6.6,0,0,1,.642,1.017,26.078,26.078,0,0,1-2.759,1.516A.607.607,0,0,1,2483.7,1154.6Zm-15.012,2.084a.612.612,0,0,1-.209,0,25.8,25.8,0,0,1-3.07-.706.6.6,0,0,1,.341-1.153,24.671,24.671,0,0,0,2.927.673.6.6,0,0,1,.012,1.184Zm20.2-5.362a.6.6,0,0,1-.492-1.057,24.718,24.718,0,0,0,2.206-2.036.6.6,0,0,1,.868.833,26.172,26.172,0,0,1-2.313,2.135A.6.6,0,0,1,2488.886,1151.323Zm4.252-4.427a.6.6,0,0,1-.592-.952,25.134,25.134,0,0,0,1.656-2.505.6.6,0,0,1,1.041.6,26.267,26.267,0,0,1-1.736,2.626A.6.6,0,0,1,2493.138,1146.9Zm3.07-5.319a.6.6,0,0,1-.664-.827,24.513,24.513,0,0,0,1.007-2.829.6.6,0,0,1,1.155.333,25.992,25.992,0,0,1-1.055,2.968A.6.6,0,0,1,2496.208,1141.577Z" transform="translate(-2460.697 -1137.486)" fill="#91b3fa"/>
            <path id="Path_21" data-name="Path 21" d="M2430.031,1274.486a.6.6,0,0,1-.35-.04c-.472-.205-.94-.425-1.391-.654a.6.6,0,1,1,.544-1.073c.43.218.877.428,1.327.624a.6.6,0,0,1-.13,1.142Z" transform="translate(-2427.96 -1257.037)" fill="#91b3fa"/>
          </g>
          <g id="Group_17" data-name="Group 17" transform="translate(6.315 6.134)">
            <path id="Path_22" data-name="Path 22" d="M2370.908,946.283a.3.3,0,0,0,.352.029l3.183-1.9a16.143,16.143,0,0,0,4.981,1.591l1.5,3.387a.3.3,0,0,0,.3.18l4.429-.372a.3.3,0,0,0,.27-.229l.909-3.589a16.142,16.142,0,0,0,4.646-2.4l3.455,1.338a.3.3,0,0,0,.343-.087l2.868-3.395a.3.3,0,0,0,.029-.352l-1.9-3.183a16.136,16.136,0,0,0,1.591-4.981l3.387-1.5a.3.3,0,0,0,.18-.3l-.372-4.429a.3.3,0,0,0-.229-.27l-3.589-.91a16.129,16.129,0,0,0-2.4-4.646l1.338-3.455a.3.3,0,0,0-.087-.342L2392.7,913.6a.3.3,0,0,0-.352-.029l-3.183,1.9a16.142,16.142,0,0,0-4.981-1.591l-1.5-3.387a.3.3,0,0,0-.3-.18l-4.429.372a.3.3,0,0,0-.27.229l-.909,3.589a16.139,16.139,0,0,0-4.646,2.4l-3.455-1.338a.3.3,0,0,0-.343.087l-2.868,3.395a.3.3,0,0,0-.029.352l1.9,3.183a16.135,16.135,0,0,0-1.591,4.981l-3.387,1.5a.3.3,0,0,0-.18.3l.372,4.429a.3.3,0,0,0,.229.27l3.59.91a16.131,16.131,0,0,0,2.4,4.646l-1.338,3.455a.3.3,0,0,0,.087.342Z" transform="translate(-2362.173 -910.311)" fill="#f89f1b"/>
            <g id="Group_16" data-name="Group 16" transform="translate(15.084 15.086)">
              <path id="Path_23" data-name="Path 23" d="M2498.1,1049.89a4.558,4.558,0,1,1,.652-.172A4.674,4.674,0,0,1,2498.1,1049.89Zm-1.439-7.761a3.39,3.39,0,0,0-.475.125,3.345,3.345,0,0,0,2.176,6.327h0a3.345,3.345,0,0,0-1.7-6.452Z" transform="translate(-2492.721 -1040.871)" fill="#fff"/>
            </g>
            <path id="Path_24" data-name="Path 24" d="M2447.947,1003.989q-.561.1-1.141.154a11.388,11.388,0,0,1-2.307-.04l-.1-.013a.6.6,0,0,1-.514-.485.614.614,0,0,1-.005-.188.6.6,0,0,1,.673-.519,10.15,10.15,0,0,0,2.155.047h0l.118-.011a10.025,10.025,0,0,0,4.67-1.662,10.176,10.176,0,0,0,2.037-1.811l.015-.017.045-.052a10.058,10.058,0,0,0,2.355-7.381,10.227,10.227,0,0,0-.139-1.032,10.124,10.124,0,1,0-18.17,7.788.6.6,0,1,1-.976.7,11.326,11.326,0,1,1,20.328-8.713,11.336,11.336,0,0,1-9.039,13.235Z" transform="translate(-2426.17 -973.303)" fill="#fff"/>
          </g>
        </g>
      </g>
      <g id="Group_32" data-name="Group 32" transform="translate(56.879 92.463)">
        <g id="Group_27" data-name="Group 27" transform="translate(74.216 1.028)">
          <g id="Group_20" data-name="Group 20" transform="translate(0 35.653)">
            <path id="Path_25" data-name="Path 25" d="M1598.266,1819.336s-1.81-4.764-3.924-4.328a14.455,14.455,0,0,0-4.427,2.06l-3.4,4.593s9.533,3.756,12.886,1.6a73.355,73.355,0,0,0,22.034-.335,48.211,48.211,0,0,1-3.464-10.441C1611.748,1816.013,1605.04,1818.647,1598.266,1819.336Z" transform="translate(-1586.52 -1784.78)" fill="url(#linear-gradient)"/>
            <path id="Path_26" data-name="Path 26" d="M1890.631,1572.684s-13.942,17.56-31.871,27.708a48.2,48.2,0,0,0,3.464,10.441c9.3-1.526,20.065-5.168,29.191-13.262Z" transform="translate(-1827.304 -1572.684)" fill="#739af0"/>
          </g>
          <path id="Path_27" data-name="Path 27" d="M2138.639,1629.5c-2.727-12.951-5.453-20.448-14.582-45-2.873-7.725-5.482-15.541-4.221-23.686l1.416-9.148a68.509,68.509,0,0,1,37.408-.253s26.831,11.656,8.607,69.221C2159.052,1629.833,2149.438,1632.453,2138.639,1629.5Z" transform="translate(-2057.925 -1516.021)" fill="#739af0"/>
          <path id="Path_28" data-name="Path 28" d="M2160.724,1449.16l4.6,11.052a2.2,2.2,0,0,0,1.664,1.323c2.652.455,9.067,1.166,13.28-1.6a1.071,1.071,0,0,0,.286-1.506l-8.5-12.2Z" transform="translate(-2094.377 -1425.182)" fill="#f48f8f"/>
          <g id="Group_21" data-name="Group 21" transform="translate(60.444)">
            <path id="Path_29" data-name="Path 29" d="M2139.484,1320.7c-.193.182-8.154,15.815-8.154,15.815l9.023,4.356,9.747-13.7S2142.719,1317.653,2139.484,1320.7Z" transform="translate(-2128.823 -1313.629)" fill="#f48f8f"/>
            <path id="Path_30" data-name="Path 30" d="M2126.813,1279.308l-4.5,7.5a1.4,1.4,0,0,1-.247.307c-.535.5-2.369,1.949-3.786-.026-1.208-1.683-2.341-3.213-3.555-3.844a1.439,1.439,0,0,0-1.942.639,53.7,53.7,0,0,0-3.08,7.306,1.432,1.432,0,0,0,.834,1.757,39.918,39.918,0,0,0,8.642,2.521,1.439,1.439,0,0,0,1.361-.578c1.378-1.889,5.264-7.167,6.59-8.488,1.232-1.228,3.506-.765,4.531-.47a1.447,1.447,0,0,0,1.15-.151c1.04-.626,2.854-2.186,1.194-4.826a1.44,1.44,0,0,1,.446-1.957,3.184,3.184,0,0,0,1.22-4.518,4.489,4.489,0,0,0-4.861-2.38,1.5,1.5,0,0,1-1.568-.872.951.951,0,0,0-.743-.585,1.4,1.4,0,0,1-1.131-1.641,3.686,3.686,0,0,0-2.058-4.224c-3.893-2.141-7.3,1.347-8.17,4.292s3.486,5.025,6.224,5.372c2.011.255,3.114,2.45,3.558,3.6A1.443,1.443,0,0,1,2126.813,1279.308Z" transform="translate(-2109.637 -1264.121)" fill="#0d5d6c"/>
            <path id="Path_31" data-name="Path 31" d="M2244.633,1442.909s1.937-4.556,4.152-4.37,3.96,2.394,1.214,4.875C2246.583,1446.5,2244.633,1442.909,2244.633,1442.909Z" transform="translate(-2229.035 -1418.38)" fill="url(#linear-gradient-2)"/>
          </g>
          <g id="Group_22" data-name="Group 22" transform="translate(78.261 212.801)">
            <path id="Path_32" data-name="Path 32" d="M2264.54,3234.059c4.285.371,11.722.972,17.585,1.23,3.524.155,5.553-.19,6.722-.658,0,.132-.006.256-.011.372a1.212,1.212,0,0,1-1.152,1.145,206.035,206.035,0,0,1-23.025.023.864.864,0,0,1-.7-1.3A7.084,7.084,0,0,1,2264.54,3234.059Z" transform="translate(-2263.833 -3219.241)" fill="#160b83"/>
            <path id="Path_33" data-name="Path 33" d="M2287.531,3169.06c-5.863-.258-13.3-.86-17.584-1.23,4.213-5.169,17.584-8.652,17.584-8.652h3.777a15.836,15.836,0,0,1,2.945,9.225C2293.084,3168.87,2291.055,3169.215,2287.531,3169.06Z" transform="translate(-2269.24 -3153.012)" fill="url(#linear-gradient-3)"/>
            <path id="Path_34" data-name="Path 34" d="M2406.391,3105.817l-.354,6.994a1.6,1.6,0,0,1-1.364,1.5,6.209,6.209,0,0,1-2.837-.235,1.89,1.89,0,0,1-1.271-1.453l-1.221-6.808Z" transform="translate(-2383.687 -3105.817)" fill="url(#linear-gradient-4)"/>
          </g>
          <g id="Group_24" data-name="Group 24" transform="translate(137.336 206.265)">
            <g id="Group_23" data-name="Group 23" transform="translate(1.664 6.49)">
              <path id="Path_35" data-name="Path 35" d="M2835.374,3226.978a3.391,3.391,0,0,0,3.051-2.256l.007.028a2.416,2.416,0,0,1-1.627,2.753,10.641,10.641,0,0,1-4.506.706,4.479,4.479,0,0,1-3.378-1.559l-.01-.014C2830.31,3227.328,2832.275,3227.41,2835.374,3226.978Z" transform="translate(-2824.356 -3210.937)" fill="#13097d"/>
              <path id="Path_36" data-name="Path 36" d="M2791.755,3105.423h3.114c4.744-.1,7.723,9.909,8.7,13.784a3.391,3.391,0,0,1-3.051,2.256c-3.1.432-5.064.351-6.464-.342-2.563-3.373-3.834-8.312-4.445-11.2A3.93,3.93,0,0,1,2791.755,3105.423Z" transform="translate(-2789.499 -3105.422)" fill="url(#linear-gradient-5)"/>
            </g>
            <path id="Path_37" data-name="Path 37" d="M2781.734,3049.251l1.729,6.878a1.867,1.867,0,0,1-.971,2.116,6.625,6.625,0,0,1-3.581.867,1.559,1.559,0,0,1-1.272-1.04l-2.539-7.237Z" transform="translate(-2775.099 -3049.251)" fill="url(#linear-gradient-6)"/>
          </g>
          <path id="Path_38" data-name="Path 38" d="M2345.164,2276.1c-2.152,1.908-9.15,2.16-9.15,2.16-25.21-60.507-35.72-77.164-35.72-77.164,3.64,22.838.784,81.46.784,81.46-4.16,1.835-9.523,0-9.523,0-.338-37.389-5.6-77.565-12.391-103.272,17.039-.383,26.3-4.1,29.258-6.437C2322.624,2195.75,2345.164,2276.1,2345.164,2276.1Z" transform="translate(-2199.131 -2067.852)" fill="#71716f"/>
          <g id="Group_25" data-name="Group 25" transform="translate(73.631 95.322)">
            <path id="Path_39" data-name="Path 39" d="M2242.013,2317.051l3.135,19.5a6.423,6.423,0,0,0,7.131,5.34l46.926-5.724a4.634,4.634,0,0,0,4.083-4.5c.1-5.039-.1-14.006-2.212-22.176Z" transform="translate(-2239.904 -2284.026)" fill="url(#linear-gradient-7)"/>
            <path id="Path_40" data-name="Path 40" d="M2263.425,2340.852a.134.134,0,0,1-.016-.267l1.062-.13a.131.131,0,0,1,.149.116.134.134,0,0,1-.117.149l-1.062.13Zm-2.482-.062a.137.137,0,0,1-.03,0,6.216,6.216,0,0,1-1.04-.334.134.134,0,0,1,.1-.246,5.953,5.953,0,0,0,.995.32.134.134,0,0,1-.03.264Zm6.023-.37a.134.134,0,0,1-.016-.267l1.063-.129a.136.136,0,0,1,.149.117.133.133,0,0,1-.116.149l-1.063.129Zm3.542-.432a.134.134,0,0,1-.016-.267l1.063-.13a.131.131,0,0,1,.149.116.134.134,0,0,1-.116.149l-1.062.13Zm3.542-.432a.134.134,0,0,1-.016-.267l1.063-.129a.13.13,0,0,1,.149.116.134.134,0,0,1-.116.149l-1.062.129Zm3.542-.432a.134.134,0,0,1-.016-.267l1.063-.13a.134.134,0,0,1,.032.266l-1.062.13Zm-19.708-.065a.135.135,0,0,1-.1-.041,6.288,6.288,0,0,1-.684-.851.134.134,0,0,1,.222-.149,6,6,0,0,0,.655.815.134.134,0,0,1-.1.227Zm23.25-.367a.134.134,0,0,1-.016-.267l1.062-.13a.132.132,0,0,1,.149.116.134.134,0,0,1-.116.149l-1.062.13Zm3.541-.432a.134.134,0,0,1-.016-.267l1.062-.129a.134.134,0,1,1,.032.266l-1.062.129Zm3.542-.432a.134.134,0,0,1-.017-.267l1.063-.13a.134.134,0,0,1,.033.266l-1.062.13Zm3.542-.432a.134.134,0,0,1-.017-.267l1.063-.129a.132.132,0,0,1,.149.116.134.134,0,0,1-.116.149l-1.062.129Zm3.541-.432a.134.134,0,0,1-.016-.267l1.063-.129a.131.131,0,0,1,.149.116.134.134,0,0,1-.116.149l-1.062.13Zm3.542-.432a.134.134,0,0,1-.016-.267l1.062-.13a.134.134,0,0,1,.033.265l-1.062.13Zm3.541-.432a.134.134,0,0,1-.016-.267l1.063-.129a.132.132,0,0,1,.149.117.133.133,0,0,1-.117.149l-1.062.129Zm-46.094-.174a.134.134,0,0,1-.132-.111l-.172-1.058a.134.134,0,0,1,.264-.042l.171,1.054a.133.133,0,0,1-.108.155Zm49.636-.258a.134.134,0,0,1-.016-.267l1.063-.13a.131.131,0,0,1,.149.116.134.134,0,0,1-.116.149l-1.062.13Zm3.454-.769a.134.134,0,0,1-.066-.25,4.276,4.276,0,0,0,.83-.618.134.134,0,0,1,.185.194,4.57,4.57,0,0,1-.883.656A.132.132,0,0,1,2309.377,2334.9Zm-53.658-2.5a.134.134,0,0,1-.132-.113l-.17-1.057a.134.134,0,0,1,.111-.154.131.131,0,0,1,.153.111l.17,1.057a.133.133,0,0,1-.111.153Zm55.752-.271a.144.144,0,0,1-.032,0,.133.133,0,0,1-.1-.162,4.245,4.245,0,0,0,.122-.934l0-.1a.134.134,0,0,1,.134-.132h0a.134.134,0,0,1,.132.135l0,.1a4.554,4.554,0,0,1-.13.992A.134.134,0,0,1,2311.472,2332.133Zm-56.319-3.251a.133.133,0,0,1-.132-.113l-.17-1.057a.134.134,0,1,1,.264-.043l.17,1.057a.134.134,0,0,1-.111.153Zm56.462-.307a.134.134,0,0,1-.134-.133c0-.346-.006-.7-.013-1.069a.134.134,0,0,1,.132-.136.13.13,0,0,1,.136.132q.01.551.013,1.072a.135.135,0,0,1-.133.135Zm-57.029-3.216a.134.134,0,0,1-.132-.113l-.17-1.057a.133.133,0,0,1,.111-.153.131.131,0,0,1,.153.111l.17,1.057a.133.133,0,0,1-.111.153Zm56.944-.352a.134.134,0,0,1-.134-.128q-.022-.526-.051-1.068a.134.134,0,0,1,.126-.141.126.126,0,0,1,.141.126c.02.362.036.719.051,1.071a.133.133,0,0,1-.128.139Zm-57.51-3.171a.134.134,0,0,1-.132-.113l-.17-1.057a.134.134,0,1,1,.264-.043l.17,1.057a.133.133,0,0,1-.111.153Zm57.292-.391a.134.134,0,0,1-.134-.123q-.042-.528-.092-1.065a.134.134,0,0,1,.121-.146.13.13,0,0,1,.146.121q.049.538.093,1.068a.134.134,0,0,1-.123.144Zm-57.859-3.131a.134.134,0,0,1-.132-.113l-.192-1.193.551-.07a.13.13,0,0,1,.15.116.134.134,0,0,1-.116.15l-.277.035.148.92a.133.133,0,0,1-.111.153Zm57.5-.419a.134.134,0,0,1-.133-.117q-.066-.528-.14-1.06a.133.133,0,0,1,.114-.151.131.131,0,0,1,.15.114q.074.534.141,1.063a.134.134,0,0,1-.116.149Zm-54.775-1.008a.134.134,0,0,1-.017-.267l1.061-.136a.128.128,0,0,1,.15.116.134.134,0,0,1-.115.15l-1.061.136Zm3.539-.453a.134.134,0,0,1-.017-.267l1.062-.136a.129.129,0,0,1,.15.115.134.134,0,0,1-.116.15l-1.062.136Zm3.539-.453a.134.134,0,0,1-.017-.267l1.062-.136a.13.13,0,0,1,.15.115.134.134,0,0,1-.115.15l-1.062.136Zm3.539-.453a.134.134,0,0,1-.017-.267l1.062-.135a.128.128,0,0,1,.15.115.134.134,0,0,1-.116.15l-1.062.136Zm3.539-.453a.134.134,0,0,1-.017-.267l1.062-.136a.129.129,0,0,1,.15.116.134.134,0,0,1-.115.15l-1.062.136Zm3.539-.453a.134.134,0,0,1-.017-.267l1.062-.136a.13.13,0,0,1,.15.115.134.134,0,0,1-.116.15l-1.062.136Zm36.551-.256a.133.133,0,0,1-.131-.111q-.093-.525-.2-1.05a.134.134,0,1,1,.262-.051q.1.527.2,1.054a.133.133,0,0,1-.108.155Zm-33.012-.2a.134.134,0,0,1-.017-.267l1.062-.136a.128.128,0,0,1,.15.116.134.134,0,0,1-.116.15l-1.062.136Zm3.539-.453a.134.134,0,0,1-.017-.267l1.062-.136a.129.129,0,0,1,.15.116.134.134,0,0,1-.116.15l-1.062.136Zm3.539-.453a.134.134,0,0,1-.017-.267l1.062-.136a.129.129,0,0,1,.15.116.134.134,0,0,1-.116.15l-1.062.136Zm3.539-.453a.134.134,0,0,1-.017-.267l1.062-.136a.131.131,0,0,1,.15.116.134.134,0,0,1-.116.15l-1.062.136Zm3.539-.453a.134.134,0,0,1-.017-.267l1.062-.136a.131.131,0,0,1,.15.115.134.134,0,0,1-.116.15l-1.062.136Zm3.539-.453a.134.134,0,0,1-.017-.267l1.062-.136a.127.127,0,0,1,.15.116.134.134,0,0,1-.115.15l-1.062.136Zm3.539-.453a.134.134,0,0,1-.017-.267l1.062-.136a.128.128,0,0,1,.15.115.134.134,0,0,1-.116.15l-1.062.136Zm3.539-.453a.134.134,0,0,1-.017-.267l1.062-.136a.129.129,0,0,1,.15.116.134.134,0,0,1-.116.15l-1.062.136Zm7.515-.127a.133.133,0,0,1-.13-.1q-.084-.348-.173-.693l-.117.015a.131.131,0,0,1-.15-.116.134.134,0,0,1,.116-.15l.351-.045.029.114q.105.4.2.811a.134.134,0,0,1-.1.162A.131.131,0,0,1,2309.695,2310.874Zm-3.975-.326a.134.134,0,0,1-.017-.267l1.062-.136a.13.13,0,0,1,.15.115.134.134,0,0,1-.115.15l-1.062.136Z" transform="translate(-2249.737 -2284.283)" fill="#fff"/>
            <path id="Path_41" data-name="Path 41" d="M2344.8,2213.311l-.052-1.528a1.17,1.17,0,0,1,.794-.791c1.431-.419,5-1.292,6.913-.211l.485,1.722Z" transform="translate(-2330.771 -2196.26)" fill="url(#linear-gradient-8)"/>
            <path id="Path_42" data-name="Path 42" d="M2364.519,2175.369a2.113,2.113,0,0,1-1.011.128.92.92,0,0,1-.81-.8l-.6-4.729,2.406-.308.6,4.725A.924.924,0,0,1,2364.519,2175.369Z" transform="translate(-2346.109 -2160.355)" fill="url(#linear-gradient-9)"/>
            <path id="Path_43" data-name="Path 43" d="M2546.528,2187.5l-.052-1.528a1.17,1.17,0,0,1,.794-.79c1.431-.42,5-1.292,6.913-.212l.485,1.721Z" transform="translate(-2509.188 -2173.428)" fill="url(#linear-gradient-10)"/>
            <path id="Path_44" data-name="Path 44" d="M2565.757,2145.742a2.113,2.113,0,0,1-1.011.128.921.921,0,0,1-.81-.8l-.669-5.227,2.407-.308.668,5.223A.924.924,0,0,1,2565.757,2145.742Z" transform="translate(-2524.039 -2133.711)" fill="url(#linear-gradient-11)"/>
            <path id="Path_45" data-name="Path 45" d="M2349.388,2099.9l25.771-4.168a1.258,1.258,0,0,0,1.061-1.177,10.62,10.62,0,0,0-.339-3.291,3.009,3.009,0,0,0-3.217-2.156c-4.843.5-17.133,2.079-23.564,5.625a2.385,2.385,0,0,0-1.219,1.824,5.784,5.784,0,0,0,.274,2.636A1.123,1.123,0,0,0,2349.388,2099.9Z" transform="translate(-2333.501 -2089.091)" fill="#e9605a"/>
            <path id="Path_46" data-name="Path 46" d="M2352.009,2125.7a.357.357,0,0,1-.347-.276,6.4,6.4,0,0,1-.1-2.058,2.415,2.415,0,0,1,1.421-1.87,28.878,28.878,0,0,1,6.353-2.048.357.357,0,1,1,.11.705,28.872,28.872,0,0,0-6.177,2,1.7,1.7,0,0,0-1,1.313,5.69,5.69,0,0,0,.087,1.8.357.357,0,0,1-.267.428A.37.37,0,0,1,2352.009,2125.7Z" transform="translate(-2336.756 -2115.941)" fill="#fff" opacity="0.58"/>
            <path id="Path_47" data-name="Path 47" d="M2225.712,2196.931c8.347-1.177,44.468-6.185,55.137-6.262a2.157,2.157,0,0,1,2.051,1.421,71.216,71.216,0,0,1,3.742,15.569,1.888,1.888,0,0,1-1.3,1.982l-23.4,7.606-8.519,1.09-26.2-1.81a2.014,2.014,0,0,1-1.849-1.649c-.582-3.23-1.818-10.826-1.567-15.849A2.23,2.23,0,0,1,2225.712,2196.931Z" transform="translate(-2223.763 -2178.932)" fill="url(#linear-gradient-12)"/>
            <path id="Path_48" data-name="Path 48" d="M2268.271,2231.3h-.009l-1.068-.074a.134.134,0,0,1-.125-.143.143.143,0,0,1,.143-.125l1.068.074a.134.134,0,0,1-.009.268Zm.975-.125a.134.134,0,0,1-.017-.267l1.062-.136a.128.128,0,0,1,.15.116.134.134,0,0,1-.116.15l-1.062.136Zm-4.535-.121h-.009l-1.068-.074a.134.134,0,0,1-.124-.143.142.142,0,0,1,.143-.124l1.068.074a.134.134,0,0,1-.009.267Zm-3.559-.246h-.009l-1.068-.073a.134.134,0,0,1-.125-.143.147.147,0,0,1,.143-.124l1.068.073a.134.134,0,0,1-.009.268Zm11.633-.086a.134.134,0,0,1-.017-.267l1.062-.136a.129.129,0,0,1,.15.115.134.134,0,0,1-.116.15l-1.062.136Zm-15.192-.16h-.009l-1.068-.074a.134.134,0,0,1-.124-.143.146.146,0,0,1,.143-.125l1.068.074a.134.134,0,0,1-.009.268Zm-3.56-.246h-.009l-1.068-.074a.134.134,0,0,1-.124-.143.145.145,0,0,1,.143-.125l1.068.074a.134.134,0,0,1-.009.267Zm22.29-.047a.134.134,0,0,1-.017-.267l.069-.009.927-.3a.134.134,0,1,1,.083.254l-1.045.323Zm-25.849-.2h-.009L2249.4,2230a.134.134,0,0,1-.125-.143.144.144,0,0,1,.143-.124l1.068.074a.134.134,0,0,1-.009.268Zm-3.559-.246h-.009l-1.068-.073a.134.134,0,0,1-.124-.143.141.141,0,0,1,.143-.124l1.068.073a.134.134,0,0,1-.009.268Zm-3.559-.246h-.009l-1.14-.079-.019-.1a.148.148,0,0,1,.1-.171.136.136,0,0,1,.106.018l.966.067a.134.134,0,0,1-.009.267Zm36.364-.4a.134.134,0,0,1-.042-.261l1.018-.331a.137.137,0,0,1,.169.086.135.135,0,0,1-.086.169l-1.018.331A.142.142,0,0,1,2279.721,2229.18Zm3.393-1.1a.134.134,0,0,1-.042-.261l1.018-.331a.135.135,0,0,1,.168.086.134.134,0,0,1-.086.169l-1.018.331A.144.144,0,0,1,2283.114,2228.077Zm-41.217-1.064a.133.133,0,0,1-.132-.113c-.054-.338-.109-.692-.165-1.059a.134.134,0,0,1,.265-.041c.056.366.11.72.165,1.058a.134.134,0,0,1-.111.153Zm44.609-.038a.134.134,0,0,1-.041-.261l1.018-.331a.134.134,0,1,1,.083.254l-1.018.331A.13.13,0,0,1,2286.507,2226.975Zm3.393-1.1a.134.134,0,0,1-.042-.261l1.018-.331a.134.134,0,1,1,.083.254l-1.018.331A.136.136,0,0,1,2289.9,2225.872Zm3.393-1.1a.134.134,0,0,1-.042-.261l1.018-.331a.134.134,0,0,1,.083.254l-1.018.331A.13.13,0,0,1,2293.292,2224.769Zm3.393-1.1a.134.134,0,0,1-.042-.261l1.018-.331a.134.134,0,0,1,.083.254l-1.018.331A.136.136,0,0,1,2296.686,2223.666Zm-55.3-.186a.133.133,0,0,1-.133-.116q-.068-.526-.133-1.064a.134.134,0,0,1,.266-.032c.043.358.087.712.133,1.061a.134.134,0,0,1-.115.15Zm58.012-1.355a.134.134,0,0,1-.133-.118q-.066-.53-.143-1.058a.134.134,0,0,1,.113-.152.131.131,0,0,1,.152.113q.077.531.143,1.064a.134.134,0,0,1-.116.149Zm-58.406-2.193a.134.134,0,0,1-.133-.122c-.032-.357-.062-.714-.088-1.069a.134.134,0,0,1,.124-.143.137.137,0,0,1,.144.124q.04.53.087,1.065a.133.133,0,0,1-.121.145Zm57.844-1.33a.134.134,0,0,1-.131-.108q-.1-.529-.212-1.047a.134.134,0,1,1,.261-.055q.11.52.213,1.052a.134.134,0,0,1-.106.157Zm-58.059-2.233a.134.134,0,0,1-.134-.131c-.007-.29-.01-.575-.011-.854v-.22a.134.134,0,0,1,.134-.133h0a.134.134,0,0,1,.133.135v.219q0,.416.01.848a.134.134,0,0,1-.131.137Zm57.284-1.251a.134.134,0,0,1-.13-.1q-.132-.527-.267-1.035a.134.134,0,0,1,.095-.164.135.135,0,0,1,.164.095q.135.508.268,1.039a.134.134,0,0,1-.13.166Zm-55.964-1.233a.134.134,0,0,1-.019-.266l1.061-.148a.131.131,0,0,1,.151.114.133.133,0,0,1-.114.151l-1.06.148Zm3.535-.491a.134.134,0,0,1-.018-.266l1.061-.146a.131.131,0,0,1,.151.114.134.134,0,0,1-.114.151l-1.061.146Zm3.537-.484a.134.134,0,0,1-.018-.267l1.061-.144a.134.134,0,1,1,.036.265l-1.061.144Zm3.537-.477a.134.134,0,0,1-.018-.267l1.061-.142a.131.131,0,0,1,.15.115.134.134,0,0,1-.115.151l-1.061.142Zm3.538-.47a.134.134,0,0,1-.018-.267l1.062-.14a.134.134,0,1,1,.035.265l-1.062.14Zm40.871-.286a.135.135,0,0,1-.128-.1c-.106-.355-.212-.7-.314-1.021a.133.133,0,0,1,.087-.168.131.131,0,0,1,.168.087q.154.489.315,1.025a.135.135,0,0,1-.128.172Zm-37.332-.177a.134.134,0,0,1-.017-.267l1.062-.137a.135.135,0,0,1,.15.116.133.133,0,0,1-.116.15l-1.062.137Zm3.539-.454a.134.134,0,0,1-.017-.267l1.062-.135a.131.131,0,0,1,.149.116.134.134,0,0,1-.116.149l-1.062.134Zm3.54-.445a.134.134,0,0,1-.016-.267l1.062-.131a.13.13,0,0,1,.149.117.134.134,0,0,1-.117.149l-1.062.131Zm3.541-.434a.134.134,0,0,1-.016-.267l1.063-.128a.129.129,0,0,1,.149.117.134.134,0,0,1-.117.149l-1.062.128Zm3.543-.421a.134.134,0,0,1-.016-.267l1.063-.124a.13.13,0,0,1,.148.117.133.133,0,0,1-.117.148l-1.063.124Zm3.544-.406a.134.134,0,0,1-.015-.267l1.064-.118a.134.134,0,1,1,.029.266l-1.063.118Zm3.547-.387a.134.134,0,0,1-.014-.267l1.065-.112a.134.134,0,1,1,.028.266l-1.065.112Zm3.55-.363a.134.134,0,0,1-.013-.267l1.066-.1a.131.131,0,0,1,.146.121.133.133,0,0,1-.12.146l-1.065.1Zm11.425-.309a.134.134,0,0,1-.126-.089l-.136-.383q-.233,0-.486.007h0a.134.134,0,0,1,0-.268q.274-.006.525-.007a.21.21,0,0,1,.2.131l.153.431a.134.134,0,0,1-.126.178Zm-7.872-.02a.134.134,0,0,1-.011-.267q.547-.048,1.067-.09a.134.134,0,1,1,.021.267q-.519.042-1.066.089Zm3.557-.275a.134.134,0,0,1-.009-.268q.557-.037,1.07-.066a.126.126,0,0,1,.141.126.133.133,0,0,1-.126.141q-.512.029-1.067.066Z" transform="translate(-2238.68 -2193.854)" fill="#fff"/>
            <path id="Path_49" data-name="Path 49" d="M2463.587,2367.386l-7.463.955a1.943,1.943,0,0,1-2.135-1.449l-1.781-7.071a1.942,1.942,0,0,1,1.643-2.4l8.966-1.147a1.941,1.941,0,0,1,2.191,1.846l.279,7.263A1.944,1.944,0,0,1,2463.587,2367.386Z" transform="translate(-2425.76 -2325.391)" fill="url(#linear-gradient-13)"/>
            <path id="Path_50" data-name="Path 50" d="M2475.1,2377.313l-5.68.727a1.48,1.48,0,0,1-1.625-1.1l-1.356-5.382a1.478,1.478,0,0,1,1.25-1.823l6.824-.873a1.478,1.478,0,0,1,1.668,1.405l.212,5.528A1.48,1.48,0,0,1,2475.1,2377.313Z" transform="translate(-2438.355 -2336.521)" fill="url(#linear-gradient-14)"/>
          </g>
          <path id="Path_51" data-name="Path 51" d="M2427.679,1941.588a58.235,58.235,0,0,1,1.539,16.981,2.018,2.018,0,0,1-1.866,1.808c-1.113.078-2.627.18-3.981.258a7.429,7.429,0,0,1-4.243-1.641.664.664,0,0,0-.978.84,8.116,8.116,0,0,0,2.42,2.608c.563.427,2.433,1.187,2.3,2.029a1.5,1.5,0,0,1-.373.7,8.49,8.49,0,0,1-4.163,2.389,1.153,1.153,0,0,0-.537.274c-.039,1,3.048,2.118,3.845,2.383a8.859,8.859,0,0,0,3.713.432A10.978,10.978,0,0,0,2433,1965.6a54.5,54.5,0,0,0,7.629-21.636C2436.472,1939.8,2430.191,1940.856,2427.679,1941.588Z" transform="translate(-2321.747 -1862.706)" fill="#f48f8f"/>
          <g id="Group_26" data-name="Group 26" transform="translate(90.413 37.58)">
            <path id="Path_52" data-name="Path 52" d="M2405.016,1633.69c3.318-25.062-16-44.333-16-44.333l-11.491,13.4c8.724,10.874,12.871,20.839,14.766,28.665C2394.807,1630.687,2400.856,1629.531,2405.016,1633.69Z" transform="translate(-2376.544 -1589.357)" fill="#739af0"/>
            <path id="Path_53" data-name="Path 53" d="M2384.48,1722.006a.712.712,0,0,1-.691-.544c-2.335-9.648-7.257-19.2-14.628-28.387a.712.712,0,1,1,1.11-.891c7.5,9.353,12.517,19.091,14.9,28.943a.711.711,0,0,1-.524.859A.7.7,0,0,1,2384.48,1722.006Z" transform="translate(-2369.004 -1680.067)" fill="#517cdd"/>
          </g>
        </g>
        <g id="Group_31" data-name="Group 31">
          <g id="Group_28" data-name="Group 28" transform="translate(0.684 106.331)">
            <path id="Path_54" data-name="Path 54" d="M1030.465,3144.3a1.411,1.411,0,0,0-.037-.371c-1.848-7.327-11.021-11.89-11.021-11.89l-3.635.285c-2.09,6.458-1.821,10.418-1.486,12.183.009.05.024.1.037.144A86.221,86.221,0,0,0,1030.465,3144.3Z" transform="translate(-1006.67 -3021.509)" fill="url(#linear-gradient-15)"/>
            <path id="Path_55" data-name="Path 55" d="M1016.367,3238.5a1.577,1.577,0,0,0,1.153,1.165c4.265.9,11.044.175,13.891-.2a1.323,1.323,0,0,0,1.1-1.318A86.243,86.243,0,0,1,1016.367,3238.5Z" transform="translate(-1008.714 -3115.363)" fill="#1a0f91"/>
            <path id="Path_56" data-name="Path 56" d="M1016.252,3087.648l1.539,7.411a1.211,1.211,0,0,0,1.036,1,10.283,10.283,0,0,0,2.385-.038,1.523,1.523,0,0,0,1.206-1.79l-1.07-6.58Z" transform="translate(-1008.612 -2982.25)" fill="url(#linear-gradient-16)"/>
            <path id="Path_57" data-name="Path 57" d="M1237.456,3232.537c-4.014-.112-6.091-.585-7.164-1.024,0,.4,0,.805.013,1.226a.793.793,0,0,0,.756.806l22.041-.142a1.007,1.007,0,0,0,.81-1.465C1251.021,3232.176,1243.661,3232.71,1237.456,3232.537Z" transform="translate(-1197.919 -3109.492)" fill="#1a0f91"/>
            <path id="Path_58" data-name="Path 58" d="M1253.918,3152.522a1.032,1.032,0,0,0-.087-.166c-1.946-2.72-6.9-8.136-16.7-10.485l-4.7-.148s-2.093,3.637-2.132,10.375c1.073.439,3.15.912,7.164,1.024C1243.668,3153.3,1251.028,3152.761,1253.918,3152.522Z" transform="translate(-1197.926 -3030.076)" fill="url(#linear-gradient-17)"/>
            <path id="Path_59" data-name="Path 59" d="M1239.4,3070.333c.074.346,1.052,5.62,1.431,7.664a1.022,1.022,0,0,0,.919.867,10.778,10.778,0,0,0,3.219-.252,1.391,1.391,0,0,0,.964-1.459l-.526-8.341Z" transform="translate(-1205.974 -2965.591)" fill="url(#linear-gradient-18)"/>
            <path id="Path_60" data-name="Path 60" d="M980,2182.853s6.465,44.424,11.13,97.288a2.014,2.014,0,0,1-1.665,2.045,24.446,24.446,0,0,1-5.255.608,1.947,1.947,0,0,1-1.856-1.626c-1.589-9.321-12.931-59.344-15.907-70.354,0,0-3.419,46.766-2.326,71.029a1.15,1.15,0,0,1-1.015,1.2,19.316,19.316,0,0,1-4.219-.012,1.539,1.539,0,0,1-1.371-1.306c-1.132-7.888-7.648-54.843-7.371-88.667.016-1.907,2.238-17.58,2.238-17.58Z" transform="translate(-950.133 -2175.474)" fill="#71716f"/>
          </g>
          <path id="Path_61" data-name="Path 61" d="M946.171,1621.075a1.829,1.829,0,0,1-1.2-1.541c-.86-8.341-5.022-60.057,21.257-81.331,0,0,1.507-3.943,13.895,5.75s5.755,19.852,2.79,33.865c-3.589,16.956-9.886,30.817-7.1,41.252a1.446,1.446,0,0,1-.886,1.734A41.031,41.031,0,0,1,946.171,1621.075Z" transform="translate(-944.212 -1504.804)" fill="#739af0"/>
          <path id="Path_62" data-name="Path 62" d="M1143.08,1410.174c-.008.736-10.5,15.641-10.5,15.641s1.884,3.71,10.876,6.722l7.762-15.959Z" transform="translate(-1110.813 -1392.27)" fill="url(#linear-gradient-19)"/>
          <g id="Group_29" data-name="Group 29" transform="translate(18.854)">
            <path id="Path_63" data-name="Path 63" d="M1180.341,1336.256s3.734,8.577,3.985,13.079,1.221,7.423-3.985,8.33-9.591-1.687-11.966-6.171c0,0-3.722-6.91-2.887-9.74S1180.341,1336.256,1180.341,1336.256Z" transform="translate(-1158.667 -1326.893)" fill="url(#linear-gradient-20)"/>
            <path id="Path_64" data-name="Path 64" d="M1118.875,1276.6l.3-.13a.715.715,0,0,0,.349-.982c-.734-1.418-2.165-4.668-.316-5.427,2.382-.977,11.819-2.9,13.855-6.25a6.231,6.231,0,0,0-2.383-8.554.359.359,0,0,0-.469.153l-.217.411a.354.354,0,0,1-.653-.067h0a.352.352,0,0,0-.637-.091c-.626,1-2.316,2.626-6.834,3.46-6.422,1.185-10.667,3.784-10.773,8.222a.354.354,0,0,1-.548.292c-.474-.289-1.233-.425-2.247.428-1.764,1.483-1.042,5.33,2.824,8.494a.351.351,0,0,1-.017.567c-.7.456-1.746,1.542.962,2.989a9.117,9.117,0,0,0,5.7,1.241.352.352,0,0,0,.286-.425l-.859-3.9a.354.354,0,0,1,.345-.43Z" transform="translate(-1107.388 -1255.225)" fill="#0d5d6c"/>
            <path id="Path_65" data-name="Path 65" d="M1172.3,1415.091s-1.424-5.479-3.881-3.943,1.275,6.139,3.25,6.344Z" transform="translate(-1160.649 -1392.892)" fill="url(#linear-gradient-21)"/>
          </g>
          <g id="Group_30" data-name="Group 30" transform="translate(39.896 40.76)">
            <path id="Path_66" data-name="Path 66" d="M1289.49,1632.964l.724,19.431a53.344,53.344,0,0,0,5.875,1.668,58.7,58.7,0,0,1,5.832-11.78A28.807,28.807,0,0,1,1289.49,1632.964Z" transform="translate(-1289.49 -1630.078)" fill="#739af0"/>
            <path id="Path_67" data-name="Path 67" d="M1378.537,1630.1c-10.59,11.434-19.161,12.107-26.112,9.65a58.709,58.709,0,0,0-5.833,11.78c28.28,6.235,34.939-19.763,34.939-19.763Z" transform="translate(-1339.995 -1627.547)" fill="url(#linear-gradient-22)"/>
            <path id="Path_68" data-name="Path 68" d="M1641.645,1609.327a3.88,3.88,0,0,1,3.478-.9c2.258.411,4.267,1.2,5.674,0s1.9.409,1.9.409l-4.212,3.2Z" transform="translate(-1600.955 -1607.986)" fill="url(#linear-gradient-23)"/>
            <path id="Path_69" data-name="Path 69" d="M1619.841,1615.543s.836-3.5,3.355-3.016,8.237,3.589,9.711,3.016,3.358-1.944,4.325-1.459l-1.7,2.117s4.378-2.526,5.131-.974l-7.285,4.1S1622.718,1618.259,1619.841,1615.543Z" transform="translate(-1581.67 -1611.962)" fill="url(#linear-gradient-24)"/>
          </g>
          <path id="Path_70" data-name="Path 70" d="M1187.752,1756.916s19.909,16.674,41.408,9.4a5.118,5.118,0,0,1,4.036.3l6.181,3.264a5.517,5.517,0,0,0,7.312-2.047,11.612,11.612,0,0,0,1.737-4.649l-12.094-4.9.892-1.483s-5.9-.5-7.45,3.732c0,0-11.247,4.678-30.214-16.184C1199.56,1744.355,1190.953,1751.673,1187.752,1756.916Z" transform="translate(-1159.612 -1687.838)" fill="url(#linear-gradient-25)"/>
          <path id="Path_71" data-name="Path 71" d="M1082.16,1733.458a.336.336,0,0,1-.19-.058c-8.383-5.664-12.327-14.806-12.365-14.9a.341.341,0,0,1,.628-.266c.038.09,3.908,9.051,12.119,14.6a.341.341,0,0,1-.191.623Z" transform="translate(-1055.092 -1664.553)" fill="#517cdd"/>
          <path id="Path_72" data-name="Path 72" d="M1118.735,1596.628a.341.341,0,0,1-.287-.156c-.025-.039-2.586-4.026-7.464-12.76a9.832,9.832,0,0,0-5.859-5.055,11.446,11.446,0,0,0-7.8,1.036.341.341,0,1,1-.337-.592,11.9,11.9,0,0,1,8.317-1.1,10.48,10.48,0,0,1,6.277,5.38c4.865,8.713,7.417,12.685,7.442,12.724a.34.34,0,0,1-.1.471A.336.336,0,0,1,1118.735,1596.628Z" transform="translate(-1079.18 -1540.394)" fill="#517cdd"/>
        </g>
      </g>
    </g>
  </g>
</svg>
