<svg id="content" xmlns="http://www.w3.org/2000/svg" width="251.378" height="493.114" viewBox="0 0 251.378 493.114">
  <g id="Group_359" data-name="Group 359" transform="translate(0 0)">
    <g id="Group_341" data-name="Group 341" transform="translate(1.612 7.656)">
      <g id="Group_318" data-name="Group 318" transform="translate(96.365 384.309)">
        <path id="Path_450" data-name="Path 450" d="M273.763,153.634a1.009,1.009,0,0,1-.444.614c-3.086,1.96-24.935,16.923-8.823,38.62,10.776,14.516,8.768,21.636,5.723,24.935a1.047,1.047,0,0,0,1.021,1.736c7.47-2.011,19.8-8.622,12.98-30.2-8.731-27.617,12.193-17.557,11.41-5.32a1.048,1.048,0,0,0,1.807.807c4.584-4.964,12.562-17.055-1.78-30.791C278.537,137.637,274.373,151.094,273.763,153.634Z" transform="translate(-257.216 -144.614)" fill="#58ddf5"/>
        <path id="Path_451" data-name="Path 451" d="M271.958,221.987a2.429,2.429,0,0,1-2.085-1.18,2.465,2.465,0,0,1,.3-2.96c4.062-4.4,1.994-12.62-5.822-23.141-5.086-6.853-7.026-13.756-5.771-20.52,2.085-11.237,12.427-18.489,14.841-20.046.448-1.77,2.123-6.822,6.771-8.192,4.571-1.35,10.443,1.366,17.431,8.06,15.383,14.736,6.419,27.827,1.841,32.771a2.426,2.426,0,0,1-2.757.59,2.458,2.458,0,0,1-1.492-2.445,11.429,11.429,0,0,0-5.883-10.264c-.841-.42-2.424-1-3.5-.088-.76.651-2.96,3.675.726,15.336,2.852,9.026,2.733,16.472-.366,22.131-3.292,6.015-9.209,8.68-13.593,9.86A2.5,2.5,0,0,1,271.958,221.987Zm10.637-73.551a5.711,5.711,0,0,0-1.6.22c-3.347.987-4.564,5.072-4.862,6.3v0a2.383,2.383,0,0,1-1.058,1.475c-1.953,1.241-11.8,7.948-13.709,18.262-1.109,5.961.661,12.128,5.262,18.32,10.342,13.932,9.44,21.66,6.388,25.817,3.679-1.173,8.161-3.513,10.7-8.158,2.709-4.954,2.763-11.657.153-19.92-3.747-11.861-2-16.519.132-18.333,1.689-1.441,4.093-1.543,6.6-.295a14.386,14.386,0,0,1,7.463,11.986c4.835-5.6,10.118-16.089-2.39-28.068C290.434,151.033,285.962,148.436,282.595,148.436Z" transform="translate(-258.212 -145.611)" fill="#0f505c"/>
      </g>
      <g id="Group_319" data-name="Group 319" transform="translate(109.724 384.31)">
        <path id="Path_452" data-name="Path 452" d="M286.507,167.273c-2.34-5.055-1.729-7.849-.617-9.365a2.674,2.674,0,0,0-.59-3.808c-4.615-3.214-11.722-8.087-13.424-8.073,3.15,14.478-7.405,15.855-9.138,24.952-1.855,9.738,12.139,20.754,12.539,20.961-.22-.858-.427-1.7-.719-2.607-7.036-22.27,5.2-20.039,9.8-11.928C285.575,174.722,288.813,172.237,286.507,167.273Z" transform="translate(-261.154 -144.617)" fill="#31a8be"/>
        <path id="Path_453" data-name="Path 453" d="M278.438,195.624l-2.8-1.427c-.159-.085-15.377-11.5-13.285-22.487.732-3.838,2.852-6.391,4.9-8.856,3.106-3.737,6.042-7.266,4.242-15.529l-.366-1.7,1.736-.017h.017c1.444,0,4.255,1.38,14.227,8.328a4.031,4.031,0,0,1,1.682,2.655,4.132,4.132,0,0,1-.763,3.147c-1.166,1.594-.905,4.337.763,7.931h0c2.092,4.523.2,7.473-1.173,9.626a14.832,14.832,0,0,0-.98,1.689l-1.146,2.523-1.363-2.414c-2.112-3.709-5.676-5.615-7.456-4.835-1.912.831-2.994,5.425.237,15.641.237.749.42,1.458.6,2.163Zm-3.75-46.4c.99,7.914-2.316,11.895-5.262,15.438-1.909,2.292-3.709,4.459-4.3,7.582-1.119,5.873,4.533,12.7,8.507,16.557-3.57-12.556-.39-16.126,1.912-17.126,2.875-1.261,6.91.542,9.718,4.076,1.3-2.028,2.4-3.781.966-6.887-2.16-4.649-2.319-8.283-.478-10.789a1.339,1.339,0,0,0,.254-1.01,1.191,1.191,0,0,0-.512-.8C279.709,152.226,276.471,150.185,274.688,149.219Z" transform="translate(-262.152 -145.611)" fill="#0f505c"/>
      </g>
      <g id="Group_320" data-name="Group 320" transform="translate(0 94.381)">
        <path id="Path_454" data-name="Path 454" d="M277.869,63.826l.014-.02S245.99,51.439,233.451,74.537,248.7,117.622,248.7,117.622l.007-.017c4.089,3.455,10.277,3.5,17.133-.705C277.7,109.627,287,92.463,286.631,78.565,286.41,70.526,283,65.365,277.869,63.826Z" transform="translate(-228.81 -59.158)" fill="#58ddf5"/>
        <path id="Path_455" data-name="Path 455" d="M256.824,122.508a12.176,12.176,0,0,1-7.8-2.679l-.166-.115c-.288-.207-28.651-20.992-15.668-44.906s45.849-11.5,46.181-11.372l.231.092a11.629,11.629,0,0,1,1.146.444l.166.064-.007.01c4.981,2.312,7.907,7.822,8.114,15.424.383,14.329-9.246,32.083-21.456,39.579A20.9,20.9,0,0,1,256.824,122.508Zm-7.51-6.1,1.292,1.068c3.777,3.194,9.419,2.889,15.478-.831,11.45-7.025,20.473-23.667,20.114-37.094-.193-7.11-3.018-12-7.751-13.427l-1.719-.512.044-.075c-6.446-2.038-30.855-8.246-41.1,10.623-10.311,18.995,8.494,36.135,13.607,40.3Z" transform="translate(-229.791 -60.103)" fill="#0f505c"/>
      </g>
      <g id="Group_321" data-name="Group 321" transform="translate(91.03 344.469)">
        <path id="Path_456" data-name="Path 456" d="M315.323,166.489h.02s-4.1-32.2-29.045-32.211-29.048,32.211-29.048,32.211h.017c-1.034,4.971,1.729,10.155,8.338,13.97,11.43,6.6,29.953,6.6,41.383,0C313.6,176.645,316.361,171.46,315.323,166.489Z" transform="translate(-255.638 -132.864)" fill="#58ddf5"/>
        <path id="Path_457" data-name="Path 457" d="M287.3,187.793c-7.751,0-15.5-1.705-21.4-5.113-6.822-3.937-10.111-9.457-9.07-15.183l.024-.19c.041-.332,4.56-33.446,30.431-33.446h.017c25.881.017,30.4,33.113,30.445,33.446l.034.261c.064.37.112.743.139,1.112l.031.22h-.01c.305,5.218-2.98,10.165-9.243,13.78C302.8,186.088,295.05,187.793,287.3,187.793Zm-27.376-21.717h.068l-.339,1.7c-.946,4.564,1.841,9.1,7.656,12.461,11.02,6.358,28.95,6.364,39.973,0,5.818-3.357,8.609-7.9,7.663-12.461l-.356-1.7h.085c-1.227-6.334-7.093-29.38-27.373-29.39h-.017C266.982,136.685,261.144,159.742,259.923,166.076Z" transform="translate(-256.638 -133.861)" fill="#0f505c"/>
      </g>
      <g id="Group_322" data-name="Group 322" transform="translate(106.882 296.271)">
        <path id="Path_458" data-name="Path 458" d="M261.732,120.2v49.463c-.047,2.017,1.258,4.042,3.92,5.578,5.232,3.021,13.709,3.021,18.94,0,2.614-1.509,3.92-3.486,3.92-5.466h0V120.065Z" transform="translate(-260.316 -118.644)" fill="#31a8be"/>
        <path id="Path_459" data-name="Path 459" d="M276.119,179.939a20.682,20.682,0,0,1-10.175-2.472c-3.048-1.76-4.686-4.187-4.628-6.836V119.8l29.611-.153v51.132c0,2.594-1.644,4.967-4.628,6.69A20.7,20.7,0,0,1,276.119,179.939Zm-11.976-57.333v48.063c-.037,1.6,1.1,3.136,3.214,4.357,4.835,2.784,12.691,2.787,17.523,0,2.075-1.2,3.218-2.709,3.218-4.249V122.484Z" transform="translate(-261.314 -119.646)" fill="#0f505c"/>
      </g>
      <g id="Group_325" data-name="Group 325" transform="translate(50.798 219.411)">
        <g id="Group_323" data-name="Group 323" transform="translate(0.047 0.004)">
          <path id="Path_460" data-name="Path 460" d="M245.716,142.418h-.037s9.874,76.412,69.078,76.338,68.811-76.582,68.811-76.582h-.044c2.438-11.806-4.14-24.1-19.842-33.134-27.156-15.611-71.137-15.533-98.235.18C249.778,118.3,243.241,130.621,245.716,142.418Z" transform="translate(-243.783 -96.013)" fill="#58ddf5"/>
          <path id="Path_461" data-name="Path 461" d="M315.68,221.135c-59.69.007-70.3-76.792-70.4-77.565l-.081-.61c-2.3-12.715,5.144-25.067,20.544-34,27.454-15.906,72.15-15.987,99.645-.176,15.519,8.924,23.009,21.341,20.626,34.137l-.041.4c-.095.776-10.45,77.742-70.208,77.816ZM248.31,144.7c1.794,10.572,14.709,73.615,67.369,73.615h.081c52.6-.064,65.356-62.884,67.163-73.757h-.085l.312-1.7c2.411-11.7-4.574-23.23-19.171-31.618-26.715-15.367-70.153-15.292-96.821.17-14.563,8.443-21.51,19.991-19.052,31.689l.329,1.594Z" transform="translate(-244.787 -96.979)" fill="none" stroke="#0f505c" stroke-width="1"/>
        </g>
        <g id="Group_324" data-name="Group 324" transform="translate(0 0)">
          <path id="Path_462" data-name="Path 462" d="M363.767,109.13c27.126,15.662,27.126,41.054,0,56.713s-71.106,15.662-98.235,0-27.122-41.054,0-56.716S336.641,93.468,363.767,109.13Z" transform="translate(-243.774 -96.008)" fill="#31a8be"/>
          <path id="Path_463" data-name="Path 463" d="M315.649,179.934c-18.042,0-36.084-3.964-49.823-11.895-13.573-7.839-21.053-18.344-21.053-29.584s7.48-21.744,21.053-29.58c27.475-15.862,72.181-15.865,99.649,0h0c13.576,7.836,21.053,18.344,21.053,29.58s-7.476,21.744-21.053,29.584C351.736,175.967,333.694,179.934,315.649,179.934Zm0-80.173c-17.53,0-35.06,3.855-48.409,11.559-12.664,7.314-19.639,16.95-19.639,27.136s6.975,19.825,19.635,27.136c26.7,15.414,70.126,15.414,96.828,0,12.661-7.31,19.636-16.947,19.636-27.136s-6.975-19.822-19.636-27.136C350.715,103.617,333.185,99.761,315.649,99.761Z" transform="translate(-244.773 -96.978)" fill="#0f505c"/>
        </g>
      </g>
      <g id="Group_328" data-name="Group 328" transform="translate(6.907 52.032)">
        <g id="Group_326" data-name="Group 326" transform="translate(0 32.078)">
          <path id="Path_464" data-name="Path 464" d="M458.944,193.3a38.439,38.439,0,0,0-.977-8.467c-2.767-20.364-12.681-74.429-44.289-127.32l-68.1,5.734-68.092-5.734C245.884,110.4,235.976,164.467,233.2,184.831c-4.367,19.446,6.358,39.807,32.228,54.746,44.272,25.559,116.046,25.559,160.315,0,22.138-12.779,33.2-29.529,33.2-46.279Z" transform="translate(-230.816 -56.029)" fill="#58ddf5"/>
          <path id="Path_465" data-name="Path 465" d="M346.6,261.152c-29.285,0-58.571-6.436-80.861-19.31-25.62-14.787-37.613-35.3-32.9-56.275,2.807-20.68,12.807-74.771,44.455-127.737l.451-.756,68.973,5.808,68.736-5.808.454.756C447.56,110.8,457.552,164.891,460.38,185.683a39.482,39.482,0,0,1,.99,8.66c0,18-12.04,34.877-33.91,47.5C405.166,254.717,375.884,261.152,346.6,261.152ZM279.263,60.037c-31.021,52.271-40.858,105.5-43.652,126.028-4.445,19.808,7.056,39.2,31.533,53.335,43.808,25.288,115.093,25.288,158.9,0,20.954-12.1,32.5-28.105,32.5-45.059a37.242,37.242,0,0,0-.943-8.158c-2.811-20.639-12.64-73.869-43.675-126.147L346.714,65.7Z" transform="translate(-231.828 -57.074)" fill="#0f505c"/>
        </g>
        <g id="Group_327" data-name="Group 327" transform="translate(43.891)">
          <path id="Path_466" data-name="Path 466" d="M363.767,59.764c27.126,15.665,27.126,41.054,0,56.719s-71.106,15.662-98.235,0-27.122-41.054,0-56.719S336.641,44.1,363.767,59.764Z" transform="translate(-243.774 -46.647)" fill="#58ddf5"/>
          <path id="Path_467" data-name="Path 467" d="M315.649,130.565c-18.042,0-36.084-3.964-49.823-11.895-13.573-7.836-21.053-18.344-21.053-29.58s7.48-21.744,21.053-29.58c27.475-15.862,72.181-15.862,99.649,0h0c13.576,7.836,21.053,18.34,21.053,29.58s-7.476,21.744-21.053,29.58C351.736,126.6,333.694,130.565,315.649,130.565Zm0-80.169c-17.53,0-35.06,3.852-48.409,11.559C254.576,69.268,247.6,78.9,247.6,89.09s6.975,19.822,19.635,27.136c26.7,15.411,70.126,15.411,96.828,0,12.661-7.314,19.636-16.95,19.636-27.136s-6.975-19.822-19.636-27.136C350.715,54.247,333.185,50.4,315.649,50.4Z" transform="translate(-244.773 -47.613)" fill="#0f505c"/>
        </g>
      </g>
      <g id="Group_329" data-name="Group 329" transform="translate(50.85)">
        <path id="Path_468" data-name="Path 468" d="M383.516,109.145h.041s-9.738-76.429-68.946-76.46-68.943,76.46-68.943,76.46h.041c-2.455,11.8,4.1,24.108,19.785,33.164,27.129,15.662,71.109,15.662,98.235,0C379.417,133.253,385.974,120.944,383.516,109.145Z" transform="translate(-243.786 -31.271)" fill="#58ddf5"/>
        <path id="Path_469" data-name="Path 469" d="M315.612,156.425c-18.042,0-36.087-3.967-49.823-11.895-15.5-8.948-22.958-21.375-20.561-34.165l.041-.4c.1-.776,10.589-77.694,70.306-77.694h.037c59.761.031,70.252,76.918,70.35,77.694l.071.573c2.3,12.732-5.164,25.088-20.6,33.995C351.7,152.457,333.658,156.425,315.612,156.425Zm-67.3-47.7h.092l-.309,1.7c-2.438,11.7,4.53,23.233,19.1,31.652,26.7,15.414,70.126,15.414,96.828,0,14.577-8.419,21.545-19.954,19.107-31.652l-.353-1.7h.125c-1.831-10.874-14.722-73.608-67.3-73.635h-.037C263.033,35.092,250.148,97.854,248.314,108.728Z" transform="translate(-244.788 -32.268)" fill="#0f505c"/>
      </g>
      <g id="Group_330" data-name="Group 330" transform="translate(107.528 5.632)">
        <ellipse id="Ellipse_1" data-name="Ellipse 1" cx="12.747" cy="7.36" rx="12.747" ry="7.36" transform="translate(1.415 1.428)" fill="#1c1c1c"/>
        <path id="Path_470" data-name="Path 470" d="M275.663,51.5a19.776,19.776,0,0,1-9.718-2.36c-2.862-1.651-4.442-3.937-4.442-6.425s1.58-4.774,4.442-6.429c5.452-3.147,13.987-3.147,19.439,0h0c2.862,1.655,4.438,3.937,4.438,6.429s-1.577,4.774-4.438,6.425A19.817,19.817,0,0,1,275.663,51.5Zm0-14.716a17.054,17.054,0,0,0-8.311,1.95c-1.95,1.126-3.024,2.54-3.024,3.981s1.075,2.852,3.024,3.981c4.506,2.6,12.115,2.6,16.618,0,1.95-1.129,3.025-2.543,3.025-3.981s-1.075-2.855-3.025-3.981h0A17.05,17.05,0,0,0,275.667,36.787Z" transform="translate(-261.504 -33.929)" fill="#0f505c"/>
      </g>
      <g id="Group_331" data-name="Group 331" transform="translate(187.687 113.214)">
        <path id="Path_471" data-name="Path 471" d="M310.533,133.07v.02s36.694-8,34.185-36.741-40.071-30.214-40.071-30.214v.024c-5.835-.692-11.532,3.018-15.258,11.02-6.452,13.841-4.571,35.2,4.194,47.7C298.645,132.111,304.9,134.766,310.533,133.07Z" transform="translate(-284.17 -64.655)" fill="#58ddf5"/>
        <path id="Path_472" data-name="Path 472" d="M308.124,135.988c-5.266,0-10.477-3.241-14.722-9.3-9.012-12.854-10.945-34.88-4.316-49.107,3.808-8.178,9.768-12.5,16.37-11.864l.217.007c.39.017,38.834,1.855,41.424,31.5s-34.914,38.162-35.29,38.247l-.258.054a12.373,12.373,0,0,1-1.326.292l-.129.027v-.007A13.322,13.322,0,0,1,308.124,135.988Zm-3.879-67.5c-4.981,0-9.524,3.682-12.6,10.287-6.246,13.41-4.418,34.178,4.072,46.293,4.516,6.449,10.118,9.229,15.384,7.649l1.821-.549v.092c7.066-2.007,33.429-11.125,31.364-34.788-2.092-24-30.428-28.16-37.25-28.811v.064l-1.577-.166A10.352,10.352,0,0,0,304.245,68.49Z" transform="translate(-285.145 -65.658)" fill="#0f505c"/>
      </g>
      <g id="Group_332" data-name="Group 332" transform="translate(54.744 26.006)">
        <path id="Path_473" data-name="Path 473" d="M277.025,66.611c-11.9-6.88-16.523-16.631-13.753-25.7a.416.416,0,0,0-.729-.38C254.694,51.356,249.812,63.6,246.9,73.3c-2.546,11.169,3.862,23.094,18.723,31.676,12.4,7.158,28.56,10.789,44.808,10.942a17.4,17.4,0,0,0,15.353-8.951l.149-.275a24.06,24.06,0,0,0-.8-24.793h0A15.036,15.036,0,0,0,312.5,74.918C299.675,75.02,286.807,72.256,277.025,66.611Z" transform="translate(-244.938 -38.943)" fill="#31a8be"/>
        <path id="Path_474" data-name="Path 474" d="M311.592,118.321h-.176c-17.184-.159-33.344-4.113-45.5-11.128-14.926-8.619-22.178-21.032-19.4-33.215,2.672-8.907,7.572-21.819,15.875-33.283a1.812,1.812,0,0,1,2.279-.566,1.834,1.834,0,0,1,.946,2.187c-2.682,8.785,2.221,17.777,13.112,24.067h0c9.091,5.249,21.168,8.124,34.08,8.124.264,0,.526-.01.8,0a16.343,16.343,0,0,1,13.708,7.622,25.457,25.457,0,0,1,.851,26.244l-.153.271A18.781,18.781,0,0,1,311.592,118.321Zm-49.5-72.167A114.543,114.543,0,0,0,249.251,74.7c-2.468,10.813,4.286,22.08,18.079,30.045,11.738,6.778,27.4,10.6,44.113,10.752a15.827,15.827,0,0,0,14.105-8.226l.153-.278a22.616,22.616,0,0,0-.76-23.331A13.694,13.694,0,0,0,313.6,77.327c-.292,0-.529,0-.79,0-13.4,0-25.979-3.011-35.49-8.5h0C267.072,62.91,261.64,54.681,262.088,46.153Z" transform="translate(-245.937 -39.938)" fill="#0f505c"/>
      </g>
      <g id="Group_333" data-name="Group 333" transform="translate(54.744 26.006)">
        <path id="Path_475" data-name="Path 475" d="M311.319,109.377c-16.245-.153-26.007-1.529-39.339-8.643-15.143-8.077-22.86-17.662-18.727-31.672a121.131,121.131,0,0,1,9.263-22.518,17.443,17.443,0,0,1,.756-5.635.416.416,0,0,0-.729-.38C254.694,51.356,249.815,63.6,246.9,73.3c-2.546,11.169,3.862,23.094,18.723,31.676,12.4,7.158,28.56,10.942,44.808,10.942,6.412,0,11.2-4.608,14.478-8.029a.3.3,0,0,0-.332-.475A42.2,42.2,0,0,1,311.319,109.377Z" transform="translate(-244.938 -38.943)" fill="#31a8be"/>
        <path id="Path_476" data-name="Path 476" d="M311.429,118.321c-16.913,0-33.08-3.95-45.51-11.128-14.926-8.619-22.178-21.036-19.4-33.215,2.672-8.907,7.578-21.822,15.875-33.283a1.812,1.812,0,0,1,2.279-.566,1.834,1.834,0,0,1,.946,2.187,16.174,16.174,0,0,0-.7,5.184l.013.376-.183.336a120.164,120.164,0,0,0-9.151,22.25c-3.591,12.19,1.97,21.449,18.038,30.021,13.163,7.026,22.965,8.331,38.688,8.477h0a39.985,39.985,0,0,0,12.783-1.885,1.706,1.706,0,0,1,1.811,2.784C322.713,114.252,317.919,118.321,311.429,118.321ZM262.118,46.109A114.553,114.553,0,0,0,249.251,74.7c-2.462,10.813,4.286,22.08,18.079,30.045,12.006,6.934,27.668,10.752,44.1,10.752,4,0,7.365-1.984,10.369-4.608a46.928,46.928,0,0,1-9.494.9c-16.191-.153-26.3-1.505-39.986-8.809-17.242-9.2-23.409-19.785-19.418-33.32A123.1,123.1,0,0,1,262.1,47.2Q262.088,46.648,262.118,46.109Z" transform="translate(-245.937 -39.938)" fill="#0f505c"/>
      </g>
      <g id="Group_334" data-name="Group 334" transform="translate(67.053 51.322)">
        <path id="Path_477" data-name="Path 477" d="M258.613,57.067c-.387,4.916-2.621,8.751-4.988,8.565s-3.971-4.326-3.584-9.24,2.621-8.751,4.991-8.565S259.007,52.154,258.613,57.067Z" transform="translate(-248.57 -46.407)" fill="#1c1c1c"/>
        <path id="Path_478" data-name="Path 478" d="M254.8,68.046c-.095,0-.19,0-.288-.01-3.248-.258-5.34-4.883-4.876-10.762s3.286-10.1,6.51-9.86c3.245.258,5.344,4.886,4.876,10.762a16.288,16.288,0,0,1-1.936,6.795C257.915,66.965,256.406,68.046,254.8,68.046Zm1.068-17.818c-1.153,0-3.065,2.835-3.418,7.27-.356,4.506,1.139,7.632,2.285,7.724.522.024,1.282-.6,1.906-1.672a13.578,13.578,0,0,0,1.563-5.595c.363-4.506-1.136-7.632-2.285-7.724Z" transform="translate(-249.567 -47.404)" fill="#0f505c"/>
      </g>
      <g id="Group_335" data-name="Group 335" transform="translate(99.149 67.319)">
        <path id="Path_479" data-name="Path 479" d="M279.659,62.8a10.1,10.1,0,1,1-10.033-10.264A10.147,10.147,0,0,1,279.659,62.8Z" transform="translate(-258.036 -51.128)" fill="#1c1c1c"/>
        <path id="Path_480" data-name="Path 480" d="M270.555,75.324h-.085a11.62,11.62,0,0,1-8.009-19.859,11.361,11.361,0,0,1,8.168-3.343,11.62,11.62,0,0,1,8.012,19.859A11.4,11.4,0,0,1,270.555,75.324Zm0-20.378a8.6,8.6,0,0,0-6.1,2.523A8.8,8.8,0,0,0,270.49,72.5a8.339,8.339,0,0,0,6.164-2.526,8.761,8.761,0,0,0,2.59-6.191l1.411.014-1.411-.014a8.745,8.745,0,0,0-8.633-8.836Z" transform="translate(-259.033 -52.122)" fill="#0f505c"/>
      </g>
      <g id="Group_336" data-name="Group 336" transform="translate(18.75 155.633)">
        <path id="Path_481" data-name="Path 481" d="M353.682,123.874l-6.914-21.341a6.143,6.143,0,0,0-5.991-4.215c-36.145.57-61.782-12.729-71.55-18.795a6.172,6.172,0,0,0-7.934,1.194l-8.44,9.782a54.322,54.322,0,0,0-11.511,21.7c-11.766,45.089-1.377,64.036-1.207,64.342a88.427,88.427,0,0,0,16.787,12.342c26.068,15.051,61.666,21.229,95.577,18.557,8.158-22.67,6.822-50.118,5.2-64.989A92.91,92.91,0,0,0,353.682,123.874Z" transform="translate(-234.324 -77.165)" fill="#58ddf5"/>
        <path id="Path_482" data-name="Path 482" d="M337.8,210.479c-30.13,0-58.849-6.815-80.586-19.361a90.252,90.252,0,0,1-17.052-12.546l-.264-.339c-.437-.8-10.728-20.12,1.071-65.383a56,56,0,0,1,11.817-22.273l8.439-9.779a7.546,7.546,0,0,1,9.748-1.472c9.3,5.771,34.683,19.12,70.784,18.581a7.649,7.649,0,0,1,7.358,5.195l6.914,21.338A95.108,95.108,0,0,1,360.1,143.3c1.59,14.614,3.021,42.563-5.283,65.62l-.305.858-.916.071C348.312,210.272,343.033,210.479,337.8,210.479Zm-95.519-33.792a87.322,87.322,0,0,0,16.347,11.983c24.813,14.322,58.964,21.026,93.844,18.439,7.768-22.358,6.371-49.311,4.828-63.5a92.061,92.061,0,0,0-3.96-18.3l-6.914-21.344a4.726,4.726,0,0,0-4.547-3.238H341.8c-36.84.532-62.8-13.1-72.313-19a4.748,4.748,0,0,0-6.124.915l-8.436,9.782a53.177,53.177,0,0,0-11.22,21.137C232.768,155.5,241.3,174.687,242.279,176.687Z" transform="translate(-235.321 -78.168)" fill="#0f505c"/>
      </g>
      <g id="Group_337" data-name="Group 337" transform="translate(27.623 240.718)">
        <path id="Path_483" data-name="Path 483" d="M244.651,108.185c0,2.492-1.411,4.51-3.147,4.51s-3.15-2.017-3.15-4.51,1.411-4.506,3.15-4.506S244.651,105.7,244.651,108.185Z" transform="translate(-236.943 -102.265)" fill="#065564"/>
        <path id="Path_484" data-name="Path 484" d="M242.5,115.106c-2.56,0-4.56-2.6-4.56-5.923s2-5.92,4.56-5.92,4.557,2.6,4.557,5.92S245.055,115.106,242.5,115.106Zm0-9.019c-.821,0-1.736,1.326-1.736,3.1s.916,3.1,1.736,3.1,1.736-1.322,1.736-3.1S243.319,106.086,242.5,106.086Z" transform="translate(-237.938 -103.262)" fill="#0f505c"/>
      </g>
      <g id="Group_338" data-name="Group 338" transform="translate(44.749 165.45)">
        <path id="Path_485" data-name="Path 485" d="M249.593,87.171c-1.163,2.2-3.336,3.333-4.845,2.529s-1.79-3.231-.617-5.435,3.34-3.33,4.849-2.529S250.767,84.971,249.593,87.171Z" transform="translate(-241.995 -80.069)" fill="#065564"/>
        <path id="Path_486" data-name="Path 486" d="M246.807,92.363a3.632,3.632,0,0,1-1.729-.42,4.122,4.122,0,0,1-2.051-3.279,7.468,7.468,0,0,1,3.74-7.046,4.123,4.123,0,0,1,3.869-.136c2.231,1.187,2.76,4.411,1.2,7.344h0a7.061,7.061,0,0,1-2.892,2.98A4.627,4.627,0,0,1,246.807,92.363Zm2.1-8.477a1.939,1.939,0,0,0-.837.237,4.649,4.649,0,0,0-2.238,4.218,1.1,1.1,0,0,0,1.807.963,4.294,4.294,0,0,0,1.7-1.8c.831-1.563.671-3.15-.031-3.526A.886.886,0,0,0,248.909,83.887Z" transform="translate(-242.989 -81.063)" fill="#0f505c"/>
      </g>
      <g id="Group_339" data-name="Group 339" transform="translate(119.721 267.399)">
        <path id="Path_487" data-name="Path 487" d="M274.539,116.057a4.511,4.511,0,1,1-4.51-4.51A4.51,4.51,0,0,1,274.539,116.057Z" transform="translate(-264.105 -110.136)" fill="#065564"/>
        <path id="Path_488" data-name="Path 488" d="M271.023,122.975a5.922,5.922,0,1,1,5.924-5.923A5.929,5.929,0,0,1,271.023,122.975Zm0-9.019a3.1,3.1,0,1,0,3.1,3.1A3.1,3.1,0,0,0,271.023,113.955Z" transform="translate(-265.1 -111.131)" fill="#0f505c"/>
      </g>
      <g id="Group_340" data-name="Group 340" transform="translate(114.153 185.735)">
        <path id="Path_489" data-name="Path 489" d="M272.894,91.975a4.51,4.51,0,1,1-4.51-4.513A4.509,4.509,0,0,1,272.894,91.975Z" transform="translate(-262.461 -86.051)" fill="#065564"/>
        <path id="Path_490" data-name="Path 490" d="M269.381,98.89a5.922,5.922,0,1,1,5.92-5.924A5.932,5.932,0,0,1,269.381,98.89Zm0-9.019a3.1,3.1,0,1,0,3.1,3.1A3.1,3.1,0,0,0,269.381,89.87Z" transform="translate(-263.458 -87.046)" fill="#0f505c"/>
      </g>
    </g>
    <g id="Group_342" data-name="Group 342" transform="translate(199.823 152.337)">
      <path id="Path_491" data-name="Path 491" d="M306.908,112.219c-18.717-9.24-18.669-36.141-18.659-37.281l2.824.024c0,.264-.031,26.274,17.089,34.727Z" transform="translate(-288.249 -74.938)" fill="#0f505c"/>
    </g>
    <g id="Group_343" data-name="Group 343" transform="translate(199.827 129.599)">
      <path id="Path_492" data-name="Path 492" d="M291.071,84.968l-2.821-.21c.034-.4.793-9.938,5.69-16.526l2.268,1.685C291.807,75.837,291.071,84.877,291.071,84.968Z" transform="translate(-288.25 -68.232)" fill="#0f505c"/>
    </g>
    <g id="Group_344" data-name="Group 344" transform="translate(8.378 109.455)">
      <path id="Path_493" data-name="Path 493" d="M231.974,86.283c-.105-.576-2.4-14.227,12.437-23.992l1.55,2.36c-13.288,8.748-11.233,21.005-11.21,21.127Z" transform="translate(-231.787 -62.291)" fill="#0f505c"/>
    </g>
    <g id="Group_345" data-name="Group 345" transform="translate(101.988 24.769)">
      <path id="Path_494" data-name="Path 494" d="M281.418,50.223c-17.6,0-21.839-11.444-22.023-11.966l2.662-.943c.17.475,4.408,11.65,23.253,9.894l.258,2.814C284.11,50.159,282.723,50.223,281.418,50.223Z" transform="translate(-259.395 -37.315)" fill="#0f505c"/>
    </g>
    <g id="Group_346" data-name="Group 346" transform="translate(150.926 264.361)">
      <path id="Path_495" data-name="Path 495" d="M274.177,127.768l-.349-2.8c.281-.037,28.38-3.659,50.369-16.987l1.458,2.414C303.147,124.039,274.465,127.731,274.177,127.768Z" transform="translate(-273.828 -107.977)" fill="#0f505c"/>
    </g>
    <g id="Group_347" data-name="Group 347" transform="translate(222.978 230.878)">
      <path id="Path_496" data-name="Path 496" d="M296.78,112.207l-1.7-2.251c.047-.037,4.584-3.581,6.544-11.854l2.746.648C302.158,108.084,297,112.044,296.78,112.207Z" transform="translate(-295.078 -98.102)" fill="#150035"/>
    </g>
    <g id="Group_348" data-name="Group 348" transform="translate(82.133 323.488)">
      <path id="Path_497" data-name="Path 497" d="M291.572,145.64c-27.587-.651-37.62-18.106-38.033-18.849l2.468-1.377c.092.17,9.735,16.787,35.629,17.4Z" transform="translate(-253.539 -125.415)" fill="#0f505c"/>
    </g>
    <g id="Group_349" data-name="Group 349" transform="translate(98.781 387.891)">
      <path id="Path_498" data-name="Path 498" d="M281.387,156.1c-14.824,0-22.585-9.491-22.938-9.935l2.207-1.76c.342.427,8.6,10.443,24.47,8.656l.315,2.807A36.689,36.689,0,0,1,281.387,156.1Z" transform="translate(-258.449 -144.409)" fill="#0f505c"/>
    </g>
    <g id="Group_350" data-name="Group 350" transform="translate(74.67 0.007)">
      <path id="Path_499" data-name="Path 499" d="M253.339,51.6l-2-1.987c.675-.685,16.9-16.76,43.689-19.6l.3,2.807A75.162,75.162,0,0,0,253.339,51.6Z" transform="translate(-251.338 -30.012)" fill="#0f505c"/>
    </g>
    <g id="Group_351" data-name="Group 351" transform="translate(157.087 318.066)">
      <path id="Path_500" data-name="Path 500" d="M277.086,156.472l-1.441-2.428c.183-.115,18.957-11.467,27.143-30.228l2.591,1.132C296.823,144.557,277.893,155.994,277.086,156.472Z" transform="translate(-275.645 -123.816)" fill="#0f505c"/>
    </g>
    <g id="Group_352" data-name="Group 352" transform="translate(109.85 455.514)">
      <path id="Path_501" data-name="Path 501" d="M270.015,201.952a7.129,7.129,0,0,1-2.2-.359,9.092,9.092,0,0,1-6.062-7.619c-.227-2.336.37-6.788,6.87-10.375A40,40,0,0,0,286.1,164.353l2.658.953a42.284,42.284,0,0,1-18.767,20.765c-3.774,2.082-5.7,4.791-5.428,7.636a6.294,6.294,0,0,0,4.126,5.2,3.652,3.652,0,0,0,4.1-1.119l2.119,1.872A6.44,6.44,0,0,1,270.015,201.952Z" transform="translate(-261.714 -164.353)" fill="#0f505c"/>
    </g>
    <g id="Group_353" data-name="Group 353" transform="translate(118.833 483.147)">
      <path id="Path_502" data-name="Path 502" d="M273.4,180.506a7.387,7.387,0,0,0-3.557-4.635,6.457,6.457,0,0,0-4.506-.244l-.977-2.648a9.249,9.249,0,0,1,6.71.342c2.292,1.1,3.977,3.214,5,6.286Z" transform="translate(-264.363 -172.502)" fill="#0f505c"/>
    </g>
    <g id="Group_354" data-name="Group 354" transform="translate(0 177.821)">
      <path id="Path_503" data-name="Path 503" d="M232.113,130.873l-2.8-.434c.047-.3,4.794-30.621,10.65-47.985l2.679.9C236.867,100.489,232.157,130.571,232.113,130.873Z" transform="translate(-229.316 -82.454)" fill="#150035"/>
    </g>
    <g id="Group_355" data-name="Group 355" transform="translate(126.164)" style="isolation: isolate">
      <path id="Path_504" data-name="Path 504" d="M284.831,35.16c-5.5-2.011-18.174-2.326-18.306-2.326l.068-2.824c.536.014,13.271.326,19.212,2.5Z" transform="translate(-266.525 -30.01)" fill="#0f505c"/>
    </g>
    <g id="Group_356" data-name="Group 356" transform="translate(142.616 349.437)">
      <path id="Path_505" data-name="Path 505" d="M272.109,139.948l-.732-2.726a75.755,75.755,0,0,0,11.06-4.154l1.2,2.557A76.3,76.3,0,0,1,272.109,139.948Z" transform="translate(-271.377 -133.068)" fill="#0f505c"/>
    </g>
  </g>
</svg>
