<svg xmlns="http://www.w3.org/2000/svg" xmlns:xlink="http://www.w3.org/1999/xlink" width="1017.694" height="1020" viewBox="0 0 1017.694 1020">
  <defs>
    <clipPath id="clip-path">
      <rect id="Rectangle_5" data-name="Rectangle 5" width="979.935" height="717.63" fill="none"/>
    </clipPath>
    <linearGradient id="linear-gradient" x1="2.527" y1="-0.085" x2="-5.096" y2="2.115" gradientUnits="objectBoundingBox">
      <stop offset="0" stop-color="#fdf53f"/>
      <stop offset="1" stop-color="#d93c65"/>
    </linearGradient>
    <linearGradient id="linear-gradient-2" x1="0.924" y1="-17.292" x2="0.022" y2="20.575" xlink:href="#linear-gradient"/>
    <linearGradient id="linear-gradient-3" x1="0.517" y1="0.311" x2="-0.175" y2="7.927" xlink:href="#linear-gradient"/>
    <linearGradient id="linear-gradient-4" x1="0.576" y1="-0.411" x2="0.473" y2="0.535" gradientUnits="objectBoundingBox">
      <stop offset="0" stop-color="#09005d"/>
      <stop offset="1" stop-color="#1a0f91"/>
    </linearGradient>
    <linearGradient id="linear-gradient-5" x1="0.71" y1="-0.618" x2="0.55" y2="0.237" gradientUnits="objectBoundingBox">
      <stop offset="0" stop-color="#53d8ff"/>
      <stop offset="1" stop-color="#3840f7"/>
    </linearGradient>
    <linearGradient id="linear-gradient-6" x1="0.46" y1="0.039" x2="0.699" y2="1.932" xlink:href="#linear-gradient-4"/>
    <linearGradient id="linear-gradient-7" x1="0.432" y1="-0.021" x2="0.682" y2="1.862" xlink:href="#linear-gradient-5"/>
    <linearGradient id="linear-gradient-8" x1="3.239" y1="-3.652" x2="0.259" y2="1.068" gradientUnits="objectBoundingBox">
      <stop offset="0" stop-color="#febbba"/>
      <stop offset="1" stop-color="#ff928e"/>
    </linearGradient>
    <linearGradient id="linear-gradient-9" x1="0.761" y1="-0.048" x2="0.425" y2="0.603" gradientUnits="objectBoundingBox">
      <stop offset="0" stop-color="#cb236d"/>
      <stop offset="1" stop-color="#4c246d"/>
    </linearGradient>
    <linearGradient id="linear-gradient-10" x1="1.054" y1="0.367" x2="-6.997" y2="2.473" xlink:href="#linear-gradient-8"/>
    <linearGradient id="linear-gradient-11" x1="0.936" y1="0.335" x2="0.26" y2="0.635" xlink:href="#linear-gradient-9"/>
    <linearGradient id="linear-gradient-12" x1="0.772" y1="-6.301" x2="0.569" y2="-1.295" xlink:href="#linear-gradient-4"/>
    <linearGradient id="linear-gradient-13" y1="0.5" x2="1" y2="0.5" gradientUnits="objectBoundingBox">
      <stop offset="0" stop-color="#9cfffb"/>
      <stop offset="1" stop-color="#9bfffa"/>
    </linearGradient>
  </defs>
  <g id="Illustration" transform="translate(-462.013 -455)">
    <g id="Group_40" data-name="Group 40" transform="translate(462.013 455)">
      <path id="Path_1" data-name="Path 1" d="M1389.288,1359.747c-20.454,21.533-39.808,35.42-55.1,46.391-179.741,128.967-392.422,91.373-437.623,82.193-66.747-13.557-195.769-39.762-289.049-149.457-141.125-165.96-119.15-427.425-9.684-600.022,20.023-31.571,125.791-206.8,340.763-234.9,130.1-17.006,281.752,17.293,391.575,109.3C1560.7,806.395,1544.289,1196.566,1389.288,1359.747Z" transform="translate(-491.613 -483.406)" fill="#d2fdfd"/>
      <g id="Group_17" data-name="Group 17" transform="translate(0 25.39)">
        <g id="Group_9" data-name="Group 9" transform="translate(0 99.188)">
          <g id="Group_3" data-name="Group 3" transform="translate(115.898 102.35)" opacity="0.3">
            <path id="Path_2" data-name="Path 2" d="M1039.614,1076.408a4.3,4.3,0,0,1,5.205,2.453c1.883,4.48,3.6,9.11,5.1,13.758a4.3,4.3,0,0,1-2.771,5.417l-.08.024a4.3,4.3,0,0,1-5.337-2.8c-1.426-4.416-3.056-8.813-4.844-13.069a4.3,4.3,0,0,1,2.3-5.634A4.191,4.191,0,0,1,1039.614,1076.408Zm10.572,35.96a4.422,4.422,0,0,1,.5-.119,4.3,4.3,0,0,1,4.989,3.484c.852,4.806,1.507,9.7,1.947,14.533a4.3,4.3,0,1,1-8.569.78c-.418-4.6-1.041-9.243-1.852-13.81A4.3,4.3,0,0,1,1050.186,1112.368Zm2.392,37.393a4.3,4.3,0,0,1,5.542,4.33c-.237,4.865-.69,9.78-1.345,14.609a4.3,4.3,0,1,1-8.527-1.157c.622-4.586,1.052-9.252,1.277-13.872A4.3,4.3,0,0,1,1052.577,1149.761Zm-6.031,37a4.3,4.3,0,0,1,5.382,5.286c-1.322,4.692-2.861,9.382-4.576,13.942a4.3,4.3,0,0,1-8.054-3.031c1.629-4.33,3.093-8.785,4.347-13.244A4.3,4.3,0,0,1,1046.546,1186.758Zm-14.13,34.723a4.3,4.3,0,0,1,5.023,6.174c-2.323,4.271-4.862,8.5-7.547,12.576a4.3,4.3,0,1,1-7.185-4.735c2.552-3.871,4.965-7.894,7.173-11.952A4.288,4.288,0,0,1,1032.416,1221.48Zm-21.457,30.729a4.3,4.3,0,0,1,4.48,6.958c-3.215,3.657-6.628,7.223-10.143,10.595a4.3,4.3,0,0,1-5.957-6.209c3.34-3.2,6.582-6.591,9.637-10.067A4.275,4.275,0,0,1,1010.959,1252.21ZM863,1307.6a4.286,4.286,0,0,1,1.813-.144c4.581.614,9.251,1.036,13.88,1.253a4.3,4.3,0,0,1-.4,8.594c-4.874-.229-9.793-.672-14.618-1.318A4.3,4.3,0,0,1,863,1307.6Zm120.242-30.2a4.3,4.3,0,0,1,3.763,7.608c-3.948,2.852-8.069,5.566-12.247,8.067a4.3,4.3,0,1,1-4.42-7.383c3.968-2.375,7.881-4.953,11.63-7.66A4.306,4.306,0,0,1,983.243,1277.4Zm-82.771,30.955a4.353,4.353,0,0,1,.849-.167c4.606-.427,9.254-1.061,13.815-1.878a4.3,4.3,0,1,1,1.519,8.47c-4.8.86-9.69,1.526-14.537,1.977a4.3,4.3,0,0,1-1.647-8.4Zm50.122-12.584a4.3,4.3,0,0,1,2.913,8.084c-4.482,1.893-9.106,3.618-13.743,5.124-.029.011-.058.019-.087.028a4.3,4.3,0,0,1-2.572-8.21c4.405-1.432,8.8-3.071,13.054-4.87C950.3,1295.872,950.448,1295.819,950.594,1295.775Z" transform="translate(-830.479 -1076.225)" fill="#fcb957"/>
            <path id="Path_3" data-name="Path 3" d="M782.353,1690.958a4.277,4.277,0,0,1,2.57.028c2.11.686,4.268,1.339,6.417,1.943a4.3,4.3,0,1,1-2.326,8.283c-2.26-.634-4.531-1.321-6.751-2.043a4.3,4.3,0,0,1,.09-8.211Z" transform="translate(-779.289 -1466.285)" fill="#fcb957"/>
          </g>
          <g id="Group_4" data-name="Group 4" opacity="0.3">
            <path id="Path_4" data-name="Path 4" d="M511.325,1455.409a4.3,4.3,0,0,1,5.109,2.24c.969,1.995,2,4,3.053,5.969a4.3,4.3,0,1,1-7.578,4.076c-1.112-2.069-2.195-4.184-3.215-6.285a4.3,4.3,0,0,1,2.631-6Z" transform="translate(-491.367 -1214.43)" fill="#fcb957"/>
            <path id="Path_5" data-name="Path 5" d="M584.023,803.324q2.843-.859,5.735-1.627a4.3,4.3,0,0,1,2.21,8.318c-4.45,1.183-8.843,2.543-13.1,4.062a4.3,4.3,0,0,1-2.889-8.105C578.612,805.031,581.32,804.14,584.023,803.324Zm28.036-5.946a4.346,4.346,0,0,1,.717-.152c4.763-.594,9.605-.993,14.39-1.185a4.3,4.3,0,1,1,.344,8.6c-4.545.183-9.144.562-13.671,1.126a4.3,4.3,0,0,1-1.781-8.386Zm-56.831,17.655a4.3,4.3,0,0,1,3.224,7.938c-4.033,2.1-8.031,4.394-11.883,6.832a4.3,4.3,0,1,1-4.6-7.273c4.057-2.567,8.268-4.987,12.515-7.2A4.357,4.357,0,0,1,555.228,815.033Zm93.721-18.16a4.292,4.292,0,0,1,1.661-.161c4.773.466,9.584,1.143,14.3,2.01a4.3,4.3,0,0,1-1.557,8.462c-4.476-.823-9.044-1.466-13.578-1.908a4.3,4.3,0,0,1-.824-8.4ZM524.606,835.553a4.3,4.3,0,0,1,4.022,7.407c-3.471,2.93-6.865,6.052-10.09,9.277a4.3,4.3,0,1,1-6.084-6.083c3.394-3.4,6.968-6.682,10.623-9.768A4.3,4.3,0,0,1,524.606,835.553ZM499.228,862.3a4.3,4.3,0,0,1,4.674,6.719c-2.754,3.63-5.388,7.419-7.828,11.26a4.3,4.3,0,1,1-7.264-4.613c2.568-4.043,5.339-8.029,8.238-11.849A4.283,4.283,0,0,1,499.228,862.3Zm-18.944,31.64a4.3,4.3,0,0,1,5.154,5.911c-1.9,4.147-3.647,8.417-5.19,12.7a4.3,4.3,0,0,1-8.094-2.92c1.624-4.5,3.462-9,5.461-13.361A4.3,4.3,0,0,1,480.284,893.937Zm-11.592,35.016a4.3,4.3,0,0,1,5.449,5.013c-.948,4.459-1.715,9.008-2.281,13.522a4.3,4.3,0,1,1-8.537-1.069c.6-4.755,1.4-9.546,2.4-14.24A4.3,4.3,0,0,1,468.692,928.953Zm-3.623,36.721a4.307,4.307,0,0,1,5.548,4.064c.06,4.546.313,9.15.757,13.686a4.3,4.3,0,0,1-8.565.835c-.466-4.775-.734-9.622-.8-14.408A4.305,4.305,0,0,1,465.069,965.674Zm4.529,36.595c.084-.026.171-.048.257-.069a4.3,4.3,0,0,1,5.177,3.2c.773,3.264,1.655,6.542,2.623,9.747q.526,1.74,1.087,3.46a4.3,4.3,0,0,1-2.758,5.424,4.255,4.255,0,0,1-5.423-2.756q-.59-1.81-1.143-3.64c-1.018-3.371-1.946-6.821-2.758-10.253A4.3,4.3,0,0,1,469.6,1002.268Z" transform="translate(-462.013 -796.038)" fill="#fcb957"/>
            <path id="Path_6" data-name="Path 6" d="M1067.511,818.985a4.288,4.288,0,0,1,2.591.034c2.211.731,4.449,1.523,6.652,2.353a4.3,4.3,0,0,1-3.035,8.052c-2.092-.789-4.218-1.54-6.318-2.235a4.3,4.3,0,0,1,.11-8.2Z" transform="translate(-844.383 -810.486)" fill="#fcb957"/>
          </g>
          <g id="Group_8" data-name="Group 8" transform="translate(42.778 43.679)">
            <g id="Group_5" data-name="Group 5">
              <path id="Path_7" data-name="Path 7" d="M768.341,929.881a2.011,2.011,0,0,0-2.333.061l-19.546,14.728a106.614,106.614,0,0,0-33.847-6.884l-12.247-21.171a2.011,2.011,0,0,0-2.125-.967l-28.815,5.613a2.012,2.012,0,0,0-1.607,1.693l-3.4,24.22a106.614,106.614,0,0,0-28.788,19.086l-23.645-6.314a2.011,2.011,0,0,0-2.186.819l-16.406,24.344a2.01,2.01,0,0,0,.062,2.334l14.728,19.546a106.614,106.614,0,0,0-6.884,33.848l-21.171,12.248a2.01,2.01,0,0,0-.967,2.125l5.613,28.815a2.01,2.01,0,0,0,1.694,1.607l24.22,3.4a106.588,106.588,0,0,0,19.086,28.788l-6.314,23.646a2.011,2.011,0,0,0,.819,2.186l24.344,16.406a2.01,2.01,0,0,0,2.334-.061l19.546-14.728a106.593,106.593,0,0,0,33.848,6.884l12.247,21.172a2.012,2.012,0,0,0,2.125.967l28.815-5.614a2.01,2.01,0,0,0,1.607-1.694l3.4-24.22a106.59,106.59,0,0,0,28.789-19.086L804.978,1130a2.011,2.011,0,0,0,2.187-.819l16.406-24.344a2.01,2.01,0,0,0-.061-2.333l-14.728-19.546a106.616,106.616,0,0,0,6.884-33.847l21.171-12.248a2.009,2.009,0,0,0,.966-2.125l-5.613-28.814a2.012,2.012,0,0,0-1.694-1.607l-24.22-3.4a106.618,106.618,0,0,0-19.086-28.788l6.314-23.645a2.01,2.01,0,0,0-.819-2.186Z" transform="translate(-579.12 -915.612)" fill="#a7eaf6"/>
            </g>
            <g id="Group_6" data-name="Group 6" transform="translate(99.854 99.854)">
              <path id="Path_8" data-name="Path 8" d="M873.465,1190.216a29.522,29.522,0,1,1-4.045,1.554A29.552,29.552,0,0,1,873.465,1190.216Zm15.012,49.931a22.986,22.986,0,0,0,3.133-1.2,22.55,22.55,0,1,0-3.133,1.2Z" transform="translate(-852.473 -1188.965)" fill="#fff"/>
            </g>
            <g id="Group_7" data-name="Group 7" transform="translate(56.477 57.334)">
              <path id="Path_9" data-name="Path 9" d="M785.194,1075.712a73.981,73.981,0,0,1,7.237-1.793h0q1.16-.226,2.328-.415a73.047,73.047,0,0,1,11.582-.937h.158c.149,0,.3,0,.449,0,.291,0,.582.007.873.012a1.721,1.721,0,1,1-.068,3.441,69.194,69.194,0,0,0-65.778,43.9,68.69,68.69,0,0,0-3.508,38.429,70.052,70.052,0,0,0,1.71,6.9,69.119,69.119,0,1,0,117.569-66.3,1.7,1.7,0,0,1-.368-.652,1.721,1.721,0,0,1,2.927-1.648,72.563,72.563,0,1,1-123.422,69.6,74.214,74.214,0,0,1-1.8-7.247,72.57,72.57,0,0,1,50.107-83.3Z" transform="translate(-733.727 -1072.566)" fill="#fff"/>
            </g>
          </g>
        </g>
        <g id="Group_16" data-name="Group 16" transform="translate(226.541)">
          <g id="Group_10" data-name="Group 10" transform="translate(123.581 50.618)" opacity="0.3">
            <path id="Path_10" data-name="Path 10" d="M1643.523,663.189a2.656,2.656,0,0,1,2.992,1.091c1.234,1.888,2.428,3.84,3.548,5.8a2.657,2.657,0,0,1-4.615,2.636c-1.067-1.868-2.2-3.728-3.382-5.531a2.653,2.653,0,0,1,1.458-4Z" transform="translate(-1560.849 -663.076)" fill="#fcb957"/>
            <path id="Path_11" data-name="Path 11" d="M1512.724,712.643a2.657,2.657,0,0,1,3.217,1.522,115.382,115.382,0,0,1,3.945,11q.354,1.174.686,2.363a2.751,2.751,0,0,1-1.844,3.276,2.658,2.658,0,0,1-3.275-1.844q-.317-1.136-.655-2.258a110.583,110.583,0,0,0-3.761-10.5,2.658,2.658,0,0,1,1.429-3.476C1512.553,712.7,1512.638,712.668,1512.724,712.643Zm7.417,26.576a2.648,2.648,0,0,1,3.4,2.145,115.167,115.167,0,0,1,1.258,14.087,2.657,2.657,0,0,1-5.312.146,110.177,110.177,0,0,0-1.2-13.438A2.656,2.656,0,0,1,1520.141,739.218Zm.751,27.58a2.656,2.656,0,0,1,3.412,2.8,114.659,114.659,0,0,1-2.244,13.974,2.658,2.658,0,0,1-5.186-1.166,109.115,109.115,0,0,0,2.139-13.325A2.66,2.66,0,0,1,1520.893,766.8Zm-6.052,26.922a2.657,2.657,0,0,1,3.267,3.443,115.25,115.25,0,0,1-5.594,13,2.658,2.658,0,0,1-4.742-2.4,109.536,109.536,0,0,0,5.334-12.392A2.652,2.652,0,0,1,1514.841,793.721ZM1502.4,818.347a2.658,2.658,0,0,1,2.977,4.023,116.307,116.307,0,0,1-8.578,11.241,2.657,2.657,0,1,1-4.021-3.475,110.67,110.67,0,0,0,8.183-10.726A2.649,2.649,0,0,1,1502.4,818.347ZM1484.355,839.2a2.658,2.658,0,0,1,2.551,4.516,114.438,114.438,0,0,1-11.059,8.808,2.658,2.658,0,0,1-3.048-4.355,108.93,108.93,0,0,0,10.543-8.4A2.639,2.639,0,0,1,1484.355,839.2Zm-22.587,15.809a2.657,2.657,0,0,1,2.008,4.893,115.192,115.192,0,0,1-12.889,5.829,2.659,2.659,0,0,1-1.889-4.971,109.207,109.207,0,0,0,12.293-5.556A2.678,2.678,0,0,1,1461.768,855.014Zm-39.4,12.253a2.608,2.608,0,0,1,.459-.1,110.248,110.248,0,0,0,11.563-2c.58-.129,1.148-.263,1.713-.4a2.658,2.658,0,0,1,3.216,1.946,2.632,2.632,0,0,1-1.944,3.216c-.6.147-1.206.291-1.815.427a115.69,115.69,0,0,1-12.11,2.094,2.657,2.657,0,0,1-1.083-5.181Z" transform="translate(-1420.485 -694.464)" fill="#fcb957"/>
          </g>
          <g id="Group_11" data-name="Group 11" opacity="0.3">
            <path id="Path_12" data-name="Path 12" d="M1160.643,529.713a2.657,2.657,0,0,1,1.569,5.078,109.926,109.926,0,0,0-12.386,4.758,2.658,2.658,0,1,1-2.2-4.837,115.77,115.77,0,0,1,12.985-4.988Zm13.185-3.313a2.7,2.7,0,0,1,.28-.068,116.247,116.247,0,0,1,13.8-1.755,2.658,2.658,0,0,1,.352,5.3,111.151,111.151,0,0,0-13.172,1.672,2.657,2.657,0,0,1-1.264-5.154Zm-37.874,14.566a2.657,2.657,0,0,1,2.157,4.808,110.246,110.246,0,0,0-10.871,7.616,2.658,2.658,0,0,1-3.307-4.162,115.289,115.289,0,0,1,11.4-7.981A2.667,2.667,0,0,1,1135.954,540.966Zm64.964-16.345a2.674,2.674,0,0,1,.918-.11,114.03,114.03,0,0,1,13.827,1.633,2.657,2.657,0,1,1-.944,5.23,109.093,109.093,0,0,0-13.182-1.557,2.657,2.657,0,0,1-.618-5.2Zm-86.2,33.232a2.658,2.658,0,0,1,2.665,4.408,109.35,109.35,0,0,0-8.719,10,2.658,2.658,0,0,1-4.211-3.245,115.5,115.5,0,0,1,9.142-10.487A2.653,2.653,0,0,1,1114.719,557.852Zm-16.565,21.488a2.657,2.657,0,0,1,3.055,3.9,111.028,111.028,0,0,0-6.079,11.8,2.657,2.657,0,0,1-4.862-2.142,116.186,116.186,0,0,1,6.37-12.372A2.649,2.649,0,0,1,1098.154,579.34Zm-10.941,24.84a2.627,2.627,0,0,1,1.536,0,2.657,2.657,0,0,1,1.773,3.314,108.679,108.679,0,0,0-3.068,12.914,2.658,2.658,0,0,1-5.236-.912,114.812,114.812,0,0,1,3.217-13.544A2.656,2.656,0,0,1,1087.213,604.18Z" transform="translate(-1082.178 -524.507)" fill="#fcb957"/>
            <path id="Path_13" data-name="Path 13" d="M1477.4,537.911a2.644,2.644,0,0,1,1.555.007c2.172.675,4.333,1.418,6.426,2.206a2.658,2.658,0,1,1-1.875,4.975c-1.995-.753-4.057-1.461-6.13-2.107a2.657,2.657,0,0,1,.024-5.082Z" transform="translate(-1331.831 -532.943)" fill="#fcb957"/>
          </g>
          <g id="Group_15" data-name="Group 15" transform="translate(26.767 28.92)">
            <g id="Group_12" data-name="Group 12">
              <path id="Path_14" data-name="Path 14" d="M1282.072,613.226a1.345,1.345,0,0,0-1.561.041l-13.08,9.855a71.339,71.339,0,0,0-22.649-4.607l-8.2-14.166a1.346,1.346,0,0,0-1.422-.647l-19.281,3.756a1.346,1.346,0,0,0-1.075,1.133L1212.53,624.8a71.334,71.334,0,0,0-19.264,12.771l-15.822-4.225a1.347,1.347,0,0,0-1.463.548L1165,650.183a1.345,1.345,0,0,0,.041,1.562l9.855,13.079a71.34,71.34,0,0,0-4.607,22.649l-14.167,8.2a1.346,1.346,0,0,0-.647,1.422l3.756,19.282a1.343,1.343,0,0,0,1.133,1.075l16.207,2.279a71.326,71.326,0,0,0,12.771,19.264l-4.225,15.823a1.345,1.345,0,0,0,.548,1.462l16.29,10.978a1.346,1.346,0,0,0,1.561-.041l13.08-9.856a71.326,71.326,0,0,0,22.649,4.607l8.2,14.167a1.345,1.345,0,0,0,1.422.647l19.282-3.756a1.346,1.346,0,0,0,1.075-1.134l2.278-16.207a71.33,71.33,0,0,0,19.264-12.771l15.822,4.225a1.345,1.345,0,0,0,1.463-.548l10.978-16.29a1.345,1.345,0,0,0-.041-1.562l-9.855-13.08a71.335,71.335,0,0,0,4.606-22.649l14.167-8.195a1.345,1.345,0,0,0,.647-1.422l-3.756-19.281a1.346,1.346,0,0,0-1.133-1.075l-16.207-2.278a71.337,71.337,0,0,0-12.771-19.264l4.225-15.823a1.346,1.346,0,0,0-.548-1.463Z" transform="translate(-1155.454 -603.678)" fill="#a7eaf6"/>
            </g>
            <g id="Group_13" data-name="Group 13" transform="translate(66.451 66.452)">
              <path id="Path_15" data-name="Path 15" d="M1351.7,786.445a20.148,20.148,0,1,1-2.781,1.068A20.566,20.566,0,0,1,1351.7,786.445Zm10.04,33.414a14.975,14.975,0,0,0,2.027-.778,14.786,14.786,0,0,0-12.588-26.759h0a14.786,14.786,0,0,0,10.561,27.537Z" transform="translate(-1337.365 -785.592)" fill="#fff"/>
            </g>
            <g id="Group_14" data-name="Group 14" transform="translate(36.295 36.86)">
              <path id="Path_16" data-name="Path 16" d="M1290.365,706.741q2.415-.729,4.941-1.224a50.372,50.372,0,0,1,10.157-.929l.458.008a2.657,2.657,0,1,1-.106,5.313,44.883,44.883,0,0,0-9.491.826h0c-.172.033-.344.069-.514.1a44.3,44.3,0,0,0-19.727,9.54,44.98,44.98,0,0,0-8.082,8.934l-.057.082c-.057.085-.115.168-.171.252a44.453,44.453,0,0,0-6.813,33.56,45.28,45.28,0,0,0,1.106,4.469,44.746,44.746,0,1,0,76.112-42.917,2.657,2.657,0,1,1,3.953-3.552,50.062,50.062,0,1,1-85.15,48.017,51.1,51.1,0,0,1-1.239-5A50.131,50.131,0,0,1,1290.365,706.741Z" transform="translate(-1254.814 -704.584)" fill="#fff"/>
            </g>
          </g>
        </g>
      </g>
      <g id="Group_30" data-name="Group 30" transform="translate(23.515 302.37)">
        <g id="Group_29" data-name="Group 29" clip-path="url(#clip-path)">
          <g id="Group_28" data-name="Group 28" transform="translate(9.038 4.333)">
            <g id="Group_18" data-name="Group 18" transform="translate(48.382 884.009)">
              <rect id="Rectangle_2" data-name="Rectangle 2" width="34.504" height="373.135" transform="translate(166.757 83.607)" fill="url(#linear-gradient)"/>
              <path id="Rectangle_3" data-name="Rectangle 3" d="M2.507,0H299.694A2.507,2.507,0,0,1,302.2,2.507V22.46a0,0,0,0,1,0,0H0a0,0,0,0,1,0,0V2.507A2.507,2.507,0,0,1,2.507,0Z" transform="translate(32.909 441.476)" fill="url(#linear-gradient-2)"/>
              <rect id="Rectangle_4" data-name="Rectangle 4" width="379.96" height="107.761" rx="53.881" fill="url(#linear-gradient-3)"/>
            </g>
            <g id="Group_25" data-name="Group 25">
              <g id="Group_19" data-name="Group 19" transform="translate(885.391 1183.982)">
                <path id="Path_17" data-name="Path 17" d="M3010.2,4635.886c15.471-7.513,134.017-49.711,163.631-94.793a10.5,10.5,0,0,0-5.126-2.063c-33.493-4.036-100.393-8.043-159.656,13.08l-31.424,26.916s-10.578,25.388,10.1,56.371A23.9,23.9,0,0,0,3010.2,4635.886Z" transform="translate(-2974.916 -4535.807)" fill="url(#linear-gradient-4)"/>
                <path id="Path_18" data-name="Path 18" d="M3196.072,4550.277c-29.614,45.083-148.16,87.28-163.631,94.793a23.9,23.9,0,0,1-22.48-.49c.037.055.063.109.1.164a20.051,20.051,0,0,0,24.021,7.34c33.344-13.169,118.375-48.728,162.434-85.18A10.6,10.6,0,0,0,3196.072,4550.277Z" transform="translate(-2997.159 -4544.991)" fill="url(#linear-gradient-5)"/>
              </g>
              <g id="Group_20" data-name="Group 20" transform="translate(881.299 1223.402)">
                <path id="Path_19" data-name="Path 19" d="M2999,4743.8c15.471-7.513,134.017-49.71,163.631-94.793a10.5,10.5,0,0,0-5.126-2.064c-33.493-4.035-100.393-8.042-159.656,13.081l-31.424,26.916s-10.578,25.388,10.1,56.371A23.9,23.9,0,0,0,2999,4743.8Z" transform="translate(-2963.715 -4643.719)" fill="url(#linear-gradient-6)"/>
                <path id="Path_20" data-name="Path 20" d="M3184.87,4658.19c-29.613,45.083-148.159,87.28-163.63,94.793a23.9,23.9,0,0,1-22.48-.49c.037.055.064.108.1.164a20.051,20.051,0,0,0,24.022,7.34c33.343-13.17,118.375-48.728,162.434-85.18A10.6,10.6,0,0,0,3184.87,4658.19Z" transform="translate(-2985.958 -4652.904)" fill="url(#linear-gradient-7)"/>
              </g>
              <g id="Group_21" data-name="Group 21" transform="translate(334.191 774.229)">
                <path id="Path_21" data-name="Path 21" d="M2939.094,4510.2c-4.55,11.228-14.442,24.988-35.724,36.4l30.974,21.564c11.585.34,19.028-2.995,23.8-7.2a17.408,17.408,0,0,0,2.213-23.534Q2949.8,4523.539,2939.094,4510.2Z" transform="translate(-2378.305 -4109.801)" fill="url(#linear-gradient-8)"/>
                <path id="Path_22" data-name="Path 22" d="M2027.406,3804.717c-251.274-309.918-561.42-390.625-561.42-390.625l7.866,76.729,522.206,365.2c17.462-9.365,27.409-26.5,32.93-38.553A12.191,12.191,0,0,0,2027.406,3804.717Z" transform="translate(-1465.986 -3414.092)" fill="url(#linear-gradient-9)"/>
              </g>
              <g id="Group_22" data-name="Group 22" transform="translate(85.58 738.756)">
                <path id="Path_23" data-name="Path 23" d="M2926,4587.028c-1.35,10.719-7.543,29.694-32.643,45.462q14.21,10.947,27.377,22.035a14.966,14.966,0,0,0,12.661,3.3c8.642-1.764,21.868-7.205,25.793-23.936a13.915,13.915,0,0,0-2.891-12.081C2951.069,4615.54,2940.74,4603.38,2926,4587.028Z" transform="translate(-2123.339 -4123.091)" fill="url(#linear-gradient-10)"/>
                <path id="Path_24" data-name="Path 24" d="M1590,3776.587c-78.364-85.9-271.259-272.917-483.13-350.551a72.07,72.07,0,0,1-40.094-36.574l-31.694-66.069s-154.493-36.2-249.68,63.467c0,0,5.8,94.805,125.355,129.463,111.6,32.353,442.307,163.717,637.364,310.916a12.451,12.451,0,0,0,15.109.1c15.508-12.031,25.223-27.044,29.356-37.624A12.693,12.693,0,0,0,1590,3776.587Z" transform="translate(-785.403 -3316.983)" fill="url(#linear-gradient-11)"/>
              </g>
              <path id="Path_25" data-name="Path 25" d="M703.979,2529.763s31.517,13.791,85.547-11.184,200.943-27.464,200.943-27.464-47.594-178.127,58.17-305.565c0,0,85.185,159.446,145.052,183.243l26.815,1.231v-113.75s-22.74-140.421-166.578-245.281l-44.786-40.365s-157.478-31.75-264.568,156.106S703.979,2529.763,703.979,2529.763Z" transform="translate(-635.192 -1722.399)" fill="#739af0"/>
              <path id="Path_26" data-name="Path 26" d="M1976.054,2042.84c1.5-7.895,2.063-26.358-16.983-48.864-25.48-30.112-58.17-14.759-58.17-14.759-28.964,16.219-41.2,69.179-41.2,69.179l30.622-16.344c4.64,13.473,49.864,28,49.864,28l.253-.095c.437,29.294-.272,114.727-21.047,174.149-8.14,23.279-24.693,66.53,29.966,140.647l30.116-1.231S2046.958,2258.969,1976.054,2042.84Z" transform="translate(-1381.69 -1726.652)" fill="#f48f8f"/>
              <g id="Group_23" data-name="Group 23" transform="translate(351.874)">
                <path id="Path_27" data-name="Path 27" d="M1607.113,1684.323l-83.862,118.412a19.812,19.812,0,0,0,1.74,25.018c11.3,12.061,30.352,29.055,50.891,32.936a15.985,15.985,0,0,0,16.41-6.91l44.6-68.461S1645.43,1677.777,1607.113,1684.323Z" transform="translate(-1517.704 -1541.782)" fill="#f48f8f"/>
                <path id="Path_28" data-name="Path 28" d="M1735.243,1460.4c1.4,1.862,46.766,148.969,46.766,148.969l-84.546,24.12-63.715-133.039S1711.847,1429.223,1735.243,1460.4Z" transform="translate(-1590.149 -1394.828)" fill="#f48f8f"/>
                <path id="Path_29" data-name="Path 29" d="M1591.55,1422.074l26.908,69.688a15.921,15.921,0,0,0,2.409,4.2c4.517,5.669,17.654,19.023,32.2,4.732,11.021-10.827,21.411-20.779,31.308-25.753a15.765,15.765,0,0,1,22.064,9.752c4.168,14.024,10.731,38.1,14.158,61.056a15.843,15.843,0,0,1-12.405,17.852c-17.21,3.6-47.243,8.856-73.557,8.24a15.706,15.706,0,0,1-13.657-8.807c-9.737-19.684-34.194-68.546-43.4-81.563-8.461-11.966-27.566-11.9-37.305-10.98a15.758,15.758,0,0,1-12.3-4.2c-7.767-7.292-18.175-21.99-3.354-40.249a15.974,15.974,0,0,0-.95-21.27c-8.2-8.515-15-22.107-2.042-39.182,13.725-18.091,32.279-17.11,44.783-13.52,6.1,1.751,12.321-.921,16.326-5.842a8.078,8.078,0,0,1,5.166-2.909c7.64-1.231,13.514-7.11,13.733-14.846.323-11.435,5.26-24.726,24.127-31.205,36.871-12.664,61.121,22.607,64.2,49.363s-37.677,38.214-61.871,37.107c-16.767-.767-29.133,14.61-35.146,24.123A15.868,15.868,0,0,0,1591.55,1422.074Z" transform="translate(-1514.393 -1294.611)" fill="#0d5d6c"/>
                <path id="Path_30" data-name="Path 30" d="M1623.5,1794.478s-7.366-46.391-26.8-48.109-37.829,14.751-17.809,40.328C1603.786,1818.511,1623.5,1794.478,1623.5,1794.478Z" transform="translate(-1549.83 -1581.268)" fill="#f48f8f"/>
              </g>
              <path id="Path_31" data-name="Path 31" d="M766.265,1999.434s-169.04,107.813-206.047,232.982,45.818,149.8,124.677,160.885l5.935-95.579s-55.243,0-20-52.245S800.769,2158.4,800.769,2158.4,1040.713,1932.009,766.265,1999.434Z" transform="translate(-551.126 -1734.008)" fill="#739af0"/>
              <path id="Path_32" data-name="Path 32" d="M874.616,2594.124c-.967,0-23.8-.167-31.5-14.646-5.253-9.881-1.994-23.673,9.689-40.993,35.23-52.228,127.1-86.469,130.995-87.9a2.177,2.177,0,0,1,1.5,4.086c-.942.346-94.452,35.195-128.888,86.249-10.708,15.875-13.89,28.157-9.46,36.505,6.461,12.174,27.447,12.346,27.659,12.346a2.177,2.177,0,0,1,0,4.354Z" transform="translate(-734.912 -2028.232)" fill="url(#linear-gradient-12)"/>
              <g id="Group_24" data-name="Group 24" transform="translate(124.792 569.71)">
                <path id="Path_33" data-name="Path 33" d="M901.727,2943.8s-24.694-40.817,7.828-89.583l218.308,36.144s104.5-17.682,109.5-17.323,73.2,42.368,73.2,42.368-2.29,4.871-18.521,3.972-5.576,1.963-5.576,1.963l-.589,8.2a22.579,22.579,0,0,1-20.359-7.051c-9.062-9.641-34.252-14.308-34.252-14.308s-53.545,39.564-106.144,20.421Z" transform="translate(-892.749 -2854.214)" fill="#f48f8f"/>
              </g>
            </g>
            <g id="Group_27" data-name="Group 27" transform="translate(239.404 646.236)">
              <g id="Group_26" data-name="Group 26" transform="translate(199.037 27.599)">
                <path id="Path_34" data-name="Path 34" d="M1764.337,3813.374a12.681,12.681,0,0,1-5.118-1.085,13.4,13.4,0,0,1-6.787-17.449L2024.37,3147.3a12.856,12.856,0,0,1,17.035-6.952,13.4,13.4,0,0,1,6.787,17.449l-271.938,647.54A12.964,12.964,0,0,1,1764.337,3813.374Z" transform="translate(-1751.374 -3139.263)" fill="url(#linear-gradient-13)"/>
                <path id="Path_35" data-name="Path 35" d="M2130.452,3813.369a12.962,12.962,0,0,1-11.917-8.037L1846.6,3157.792a13.4,13.4,0,0,1,6.787-17.449,12.853,12.853,0,0,1,17.035,6.952l271.938,647.54a13.4,13.4,0,0,1-6.787,17.449A12.683,12.683,0,0,1,2130.452,3813.369Z" transform="translate(-1811.141 -3139.258)" fill="url(#linear-gradient-13)"/>
              </g>
              <path id="Path_36" data-name="Path 36" d="M1926,3080a24.209,24.209,0,0,0-1.467-11.319c-1.323-3.154-3.295-4.98-5.375-4.98H1214.522c-2.736,0-5.282,2.74-6.756,7.271a29.422,29.422,0,0,0-.524,15.1l7.636,32.484c1.748,7.439,5.537,12.2,9.706,12.2h689.742c3.878,0,7.212-5.405,7.948-12.89Z" transform="translate(-1206.502 -3063.705)" fill="#0392ac"/>
            </g>
          </g>
        </g>
      </g>
      <g id="Group_31" data-name="Group 31" transform="translate(573.959 131.406)">
        <path id="Path_37" data-name="Path 37" d="M2145.963,870.436c-92.249,44.041-152.855,135.694-81.221,131.416,134.487-8.032,43.717,66.872,114.447,64.67S2359.4,1049.232,2431.041,975s2-91.975-27.033-89.1C2308.407,895.361,2434.919,732.486,2145.963,870.436Z" transform="translate(-2033.246 -814.728)" fill="#a7eaf6"/>
        <path id="Path_38" data-name="Path 38" d="M2256.253,1569.985c.193,10.446,7.879,27.592,25.14,27.274s37.559-17.98,37.366-28.426-14.341-18.656-31.6-18.338S2256.06,1559.54,2256.253,1569.985Z" transform="translate(-2174.789 -1281.72)" fill="#a7eaf6"/>
        <path id="Path_39" data-name="Path 39" d="M2185.324,1699.007c.093,5.058,4.542,9.078,9.937,8.978s16.064-5.476,15.971-10.535-6.784-10.115-12.179-10.015S2185.23,1693.949,2185.324,1699.007Z" transform="translate(-2129.771 -1368.642)" fill="#a7eaf6"/>
      </g>
      <g id="Group_33" data-name="Group 33" transform="translate(682.916)">
        <path id="Path_40" data-name="Path 40" d="M2591.317,1163.309c-.141-1.752-1.931-3.269-4.962-4.485,3.294-1.816,5.116-3.763,4.962-5.672-.466-5.777-18.762-9.017-40.866-7.234s-39.646,7.911-39.179,13.688c.141,1.752,1.931,3.269,4.962,4.485-3.294,1.816-5.116,3.763-4.962,5.672.141,1.752,1.931,3.269,4.962,4.485-3.294,1.817-5.116,3.763-4.962,5.673.141,1.752,1.931,3.269,4.962,4.485-3.294,1.816-5.116,3.763-4.962,5.673.206,2.555,3.9,4.612,9.872,5.96a51.256,51.256,0,0,0,.151,6.243c.865,10.646,12.84,18.993,28.678,18.993s29.547-11.381,29.7-22.061a53.928,53.928,0,0,0-.31-6.969c7.578-2.531,12.193-5.622,11.952-8.62-.141-1.752-1.931-3.269-4.962-4.485,3.294-1.816,5.116-3.763,4.962-5.672-.141-1.752-1.931-3.269-4.962-4.485C2589.649,1167.165,2591.471,1165.218,2591.317,1163.309Z" transform="translate(-2445.604 -893.22)" fill="#71716f"/>
        <g id="Group_32" data-name="Group 32" transform="translate(71.563 266.136)">
          <path id="Path_41" data-name="Path 41" d="M2559.326,1280.191a95.53,95.53,0,0,1-17.534-1.433.531.531,0,0,1,.2-1.043c7.766,1.487,18.139,1.814,29.207.922a125.571,125.571,0,0,0,24.495-4.225.531.531,0,1,1,.3,1.019,126.582,126.582,0,0,1-24.707,4.264C2567.173,1280.027,2563.155,1280.191,2559.326,1280.191Z" transform="translate(-2536.271 -1241.21)" fill="#212127"/>
          <path id="Path_42" data-name="Path 42" d="M2552.769,1247.538c-8.529,0-16.151-.8-21.528-2.333a.531.531,0,1,1,.291-1.021c7.661,2.181,20,2.858,33,1.81,12.862-1.037,24.856-3.647,32.086-6.982a.531.531,0,1,1,.445.964c-7.337,3.384-19.467,6.029-32.445,7.075C2560.566,1247.378,2556.576,1247.538,2552.769,1247.538Z" transform="translate(-2529.602 -1218.723)" fill="#212127"/>
          <path id="Path_43" data-name="Path 43" d="M2550.482,1219.738c-9.209,0-17.268-.942-22.692-2.731a.531.531,0,0,1,.332-1.009c7.549,2.489,20.345,3.306,34.231,2.187,12.86-1.037,24.855-3.647,32.086-6.982a.531.531,0,1,1,.445.964c-7.338,3.384-19.468,6.029-32.445,7.075C2558.327,1219.576,2554.305,1219.738,2550.482,1219.738Z" transform="translate(-2527.426 -1201.074)" fill="#212127"/>
          <path id="Path_44" data-name="Path 44" d="M2556.8,1192.058a91.544,91.544,0,0,1-19.115-1.738.531.531,0,0,1,.23-1.037c7.767,1.726,18.952,2.173,30.684,1.227,12.746-1.028,24.679-3.609,31.923-6.906a.531.531,0,0,1,.439.966c-7.349,3.345-19.415,5.961-32.276,7C2564.626,1191.9,2560.625,1192.058,2556.8,1192.058Z" transform="translate(-2533.676 -1183.556)" fill="#212127"/>
        </g>
        <path id="Path_45" data-name="Path 45" d="M2382.351,673.815a74.757,74.757,0,0,0-13.386-26.135c-13.159-16.584-34.626-50.312-37.268-96.344-3.844-66.956,55.539-100.478,109.726-95.927s107.656,44.9,101.8,107.186c-3.6,38.327-25.054,67.4-41.026,84.094a88.706,88.706,0,0,0-21.293,37.726c-4.793,17.306-16.2,38.873-43.313,40.188C2402.509,726.3,2387.938,693.6,2382.351,673.815Z" transform="translate(-2331.52 -455)" fill="#ffd28e"/>
        <path id="Path_46" data-name="Path 46" d="M2646.359,935.468l18.96-123.317c.392-2.548,1.646-4.258,2.8-3.821s1.774,2.857,1.382,5.4c-.01.068-.025.152-.036.218l-21.6,122.172c-.163.919-.629,1.5-1.042,1.3S2646.223,936.358,2646.359,935.468Z" transform="translate(-2531.324 -679.218)" fill="#f89f1b"/>
        <path id="Path_47" data-name="Path 47" d="M2552.139,938.149l-18.96-123.317c-.392-2.548-1.645-4.259-2.8-3.821s-1.774,2.857-1.382,5.4c.011.068.025.152.036.219l21.6,122.172c.163.919.629,1.5,1.042,1.3S2552.275,939.039,2552.139,938.149Z" transform="translate(-2456.785 -680.92)" fill="#f89f1b"/>
        <path id="Path_48" data-name="Path 48" d="M2601.3,764.007a1.989,1.989,0,0,0-2.489-.646l-10.557,4.933-3.665-10.441a2.241,2.241,0,0,0-1.284-1.292,2.609,2.609,0,0,0-3.244,1l-.018.034-8.682,15.831-8.057-22.535-.014-.038a2.572,2.572,0,0,0-1.219-1.375,3.163,3.163,0,0,0-3.986.785l-12.138,16.71a1.464,1.464,0,0,0,.428,2.109,2.034,2.034,0,0,0,2.581-.281l10.688-11.921,9.622,21.438.007.016a1.7,1.7,0,0,0,.847.831,2.011,2.011,0,0,0,2.518-.652l9.286-14.9,3.5,7.537.031.067a1.43,1.43,0,0,0,.087.16,1.986,1.986,0,0,0,2.486.646l12.532-5.855A1.491,1.491,0,0,0,2601.3,764.007Z" transform="translate(-2467.44 -641.662)" fill="#fff"/>
        <path id="Path_49" data-name="Path 49" d="M2796.685,904.668a1.847,1.847,0,0,1-1.482-2.948,140.9,140.9,0,0,0,8.83-13.414,1.847,1.847,0,1,1,3.2,1.847,144.033,144.033,0,0,1-9.063,13.768A1.843,1.843,0,0,1,2796.685,904.668Z" transform="translate(-2625.593 -729.436)" fill="#fff" opacity="0.998"/>
        <path id="Path_50" data-name="Path 50" d="M2839.382,703.465a1.848,1.848,0,0,1-1.693-2.584c20.1-46.293,2.753-85.322,2.575-85.711a1.847,1.847,0,0,1,3.359-1.538c.185.4,18.238,40.859-2.545,88.721A1.849,1.849,0,0,1,2839.382,703.465Z" transform="translate(-2652.692 -555.001)" fill="#fff" opacity="0.998"/>
      </g>
      <g id="Group_39" data-name="Group 39" transform="translate(683.203 444.362)">
        <g id="Group_37" data-name="Group 37">
          <g id="Group_34" data-name="Group 34">
            <path id="Path_51" data-name="Path 51" d="M2515.844,1895.8c-14.965-35.666-69.177-143.8-165.078-110.4a1.464,1.464,0,0,0,.222,2.819c21.146,3.919,99.5,23.711,162.34,109A1.454,1.454,0,0,0,2515.844,1895.8Z" transform="translate(-2343.405 -1739.766)" fill="#25cbe8"/>
            <path id="Path_52" data-name="Path 52" d="M2503.926,1979.112c-21.56-20.321-85.756-98.937-171.01-63.01a.985.985,0,0,0,.262,1.888c21.071,2.227,125.681,15.477,170.338,62.846C2504.7,1982.092,2505.182,1980.3,2503.926,1979.112Z" transform="translate(-2332.308 -1820.848)" fill="#25cbe8"/>
            <path id="Path_53" data-name="Path 53" d="M2657.369,1820.8c-2.048-26.883-14.061-128.379-79.426-149.315a.526.526,0,0,0-.595.8c7.875,11.107,65.179,93.177,79,148.678A.519.519,0,0,0,2657.369,1820.8Z" transform="translate(-2487.775 -1671.457)" fill="#25cbe8"/>
            <path id="Path_54" data-name="Path 54" d="M2571.28,2095.924a.564.564,0,0,0,.671-.892c-11.547-11.5-59.354-53.774-120.052-32.959C2383.135,2085.653,2503.538,2059.169,2571.28,2095.924Z" transform="translate(-2395.18 -1915.78)" fill="#25cbe8"/>
            <path id="Path_55" data-name="Path 55" d="M2789.255,1850.059a1.746,1.746,0,0,1-3.443.284c-7.25-31.882-22.617-119.8,22.108-142.163C2860.857,1681.712,2796.445,1745.806,2789.255,1850.059Z" transform="translate(-2614.742 -1690.977)" fill="#25cbe8"/>
            <path id="Path_56" data-name="Path 56" d="M2801.442,2007.166c7.515-19.579,36.48-80.368,96.76-47.522a1.158,1.158,0,0,1-.471,2.174,141.789,141.789,0,0,0-94.346,46.506A1.149,1.149,0,0,1,2801.442,2007.166Z" transform="translate(-2630.018 -1848.306)" fill="#25cbe8"/>
            <path id="Path_57" data-name="Path 57" d="M2805.945,2079.554c2.771-12.09,17.191-36.337,90.567-14.128a.381.381,0,0,1-.133.746c-14.419-1.5-63.139-4.808-87.019,15.468A2.114,2.114,0,0,1,2805.945,2079.554Z" transform="translate(-2632.893 -1915.78)" fill="#25cbe8"/>
          </g>
          <path id="Path_58" data-name="Path 58" d="M2820.738,2436.532l.026-2.476v-2.66l-.039-5.327-.07-10.658-.311-21.316q-.285-21.313-.772-42.617c-.645-28.4-1.46-56.8-2.757-85.159-1.272-28.362-3.025-56.7-5.755-84.922-1.4-14.108-3.085-28.184-5.357-42.159-2.231-13.974-5.106-27.878-9.777-41.228l1.266-.518a153.562,153.562,0,0,1,7.047,20.255l1.432,5.169c.45,1.729.836,3.471,1.258,5.208l1.24,5.215,1.1,5.241c2.834,14,5.026,28.111,6.745,42.265,1.762,14.151,3.065,28.347,4.226,42.548,1.085,14.206,1.9,28.427,2.608,42.649q.925,21.339,1.408,42.688c.223,14.233.441,28.465.364,42.7q-.024,21.348-.587,42.688l-.757,21.335-.468,10.665-.319,5.333-.179,2.669c-.078.9-.1,1.727-.274,2.846Z" transform="translate(-2626.57 -1941.865)" fill="#25cbe8"/>
          <g id="Group_35" data-name="Group 35" transform="translate(154.43 138.856)">
            <path id="Path_59" data-name="Path 59" d="M2931.613,2201.867c10.024-23.892,46.341-96.328,110.584-73.957a.981.981,0,0,1-.149,1.889c-14.166,2.625-66.656,15.884-108.75,73.016A.974.974,0,0,1,2931.613,2201.867Z" transform="translate(-2867.067 -2097.341)" fill="#25cbe8"/>
            <path id="Path_60" data-name="Path 60" d="M2932.4,2257.677c14.443-13.613,57.447-66.278,114.558-42.21a.66.66,0,0,1-.176,1.265c-14.115,1.492-84.192,10.368-114.108,42.1C2931.885,2259.673,2931.562,2258.47,2932.4,2257.677Z" transform="translate(-2867.308 -2151.657)" fill="#25cbe8"/>
            <path id="Path_61" data-name="Path 61" d="M2936.975,2151.623c1.372-18.009,9.419-86,53.207-100.025a.353.353,0,0,1,.4.535c-5.275,7.44-43.663,62.419-52.922,99.6A.347.347,0,0,1,2936.975,2151.623Z" transform="translate(-2870.524 -2051.581)" fill="#25cbe8"/>
            <path id="Path_62" data-name="Path 62" d="M2924.065,2335.928a.378.378,0,0,1-.45-.6c7.735-7.706,39.761-36.022,80.421-22.079C3050.1,2329.048,2969.445,2311.307,2924.065,2335.928Z" transform="translate(-2861.972 -2215.251)" fill="#25cbe8"/>
            <path id="Path_63" data-name="Path 63" d="M2882.127,2171.226a1.169,1.169,0,0,0,2.306.19c4.857-21.358,15.151-80.253-14.81-95.234C2834.162,2058.451,2877.311,2101.388,2882.127,2171.226Z" transform="translate(-2818.971 -2064.657)" fill="#25cbe8"/>
            <path id="Path_64" data-name="Path 64" d="M2820.289,2276.47c-5.034-13.115-24.437-53.837-64.819-31.834a.776.776,0,0,0,.315,1.457,94.984,94.984,0,0,1,63.2,31.154A.77.77,0,0,0,2820.289,2276.47Z" transform="translate(-2755.064 -2170.051)" fill="#25cbe8"/>
            <path id="Path_65" data-name="Path 65" d="M2824.9,2324.962c-1.856-8.1-11.517-24.342-60.67-9.464a.255.255,0,0,0,.089.5c9.659-1,42.3-3.221,58.294,10.362A1.416,1.416,0,0,0,2824.9,2324.962Z" transform="translate(-2760.763 -2215.251)" fill="#25cbe8"/>
          </g>
          <path id="Path_66" data-name="Path 66" d="M2901.426,2585.527c-.144-.9-.149-1.5-.208-2.176l-.127-2-.226-3.989c-.149-2.659-.244-5.318-.347-7.977l-.528-15.956c-.349-10.639-.376-21.28-.446-31.923-.021-10.643-.042-21.289.164-31.933.223-10.644.478-21.29.938-31.931.476-10.64,1.041-21.28,1.79-31.913.819-10.628,1.765-21.253,3.08-31.845l1.023-7.94,1.21-7.919c.855-5.274,1.754-10.542,2.9-15.771q.784-3.931,1.779-7.828c.332-1.3.636-2.6.989-3.891l1.119-3.863a111.479,111.479,0,0,1,5.47-15.119l1.266.518a146.427,146.427,0,0,0-4.139,15.267l-.823,3.871c-.254,1.295-.462,2.6-.7,3.9l-.708,3.9-.617,3.917c-.408,2.611-.818,5.22-1.143,7.848-.342,2.624-.756,5.232-1.035,7.866-.63,5.255-1.188,10.519-1.737,15.786-2.028,21.087-3.5,42.254-4.544,63.454s-1.74,42.427-2.286,63.666c-.282,10.62-.359,21.242-.584,31.867l-.195,15.938-.049,7.969-.017,3.982.023,3.791Z" transform="translate(-2692.329 -2090.428)" fill="#25cbe8"/>
          <g id="Group_36" data-name="Group 36" transform="translate(40.65 191.9)">
            <path id="Path_67" data-name="Path 67" d="M2550.623,2353.583c-12.809-20.907-56.63-83.327-106.632-51.738a.976.976,0,0,0,.471,1.758c12.407.166,59.028,4.112,104.916,51.15C2550.125,2355.519,2551.195,2354.516,2550.623,2353.583Z" transform="translate(-2443.589 -2257.909)" fill="#25cbe8"/>
            <path id="Path_68" data-name="Path 68" d="M2554.647,2405.731c-14.649-10.488-60.487-53.162-104.174-21.135a.654.654,0,0,0,.38,1.165c12.157-.9,72.785-3.954,103.775,21.106C2555.448,2407.53,2555.5,2406.342,2554.647,2405.731Z" transform="translate(-2447.802 -2308.557)" fill="#25cbe8"/>
            <path id="Path_69" data-name="Path 69" d="M2619.763,2299.067c-4.447-16.768-23.654-79.606-63.087-85.7-.288-.044-.451.344-.238.57,5.8,6.159,48.176,51.769,62.769,85.339A.3.3,0,1,0,2619.763,2299.067Z" transform="translate(-2515.154 -2207.313)" fill="#25cbe8"/>
            <path id="Path_70" data-name="Path 70" d="M2607.968,2470.572c.362.135.587-.4.27-.637-7.922-6.009-40.064-27.5-71.751-7.711C2500.588,2484.643,2565.257,2454.745,2607.968,2470.572Z" transform="translate(-2495.916 -2360.059)" fill="#25cbe8"/>
            <path id="Path_71" data-name="Path 71" d="M2710.685,2294.164a.994.994,0,0,1-1.907.556c-7.994-19.359-27.429-73.249-4.941-92.271C2730.453,2179.933,2701.972,2227.484,2710.685,2294.164Z" transform="translate(-2602.107 -2196.79)" fill="#25cbe8"/>
            <path id="Path_72" data-name="Path 72" d="M2735.964,2388.283c1.841-13.2,10.733-54.784,48.757-40.612a.768.768,0,0,1,0,1.426c-7.545,2.021-32.263,10.648-47.52,39.706C2736.835,2389.5,2735.851,2389.09,2735.964,2388.283Z" transform="translate(-2629.156 -2290.711)" fill="#25cbe8"/>
            <path id="Path_73" data-name="Path 73" d="M2740.14,2436.99c.082-7.944,5.246-24.846,49.353-18.828.264.036.28.466.016.486-8.316.629-36.2,3.862-47.188,19.287A1.237,1.237,0,0,1,2740.14,2436.99Z" transform="translate(-2631.812 -2336.491)" fill="#25cbe8"/>
          </g>
          <path id="Path_74" data-name="Path 74" d="M2786.589,2670.052l-1.247-6.557-1.327-6.722-2.724-13.432-5.626-26.824q-2.874-13.4-5.928-26.752-2.974-13.371-6.154-26.69-6.4-26.628-13.949-52.917l-1.919-6.558-2-6.531c-1.334-4.351-2.691-8.7-4.2-12.988-3.021-8.571-6.152-17.124-10.36-25.163l1.172-.7a104.743,104.743,0,0,1,6.685,12.1c1,2.073,2,4.152,2.866,6.281.911,2.114,1.787,4.24,2.6,6.386,3.371,8.553,6.367,17.238,9.05,26.009,5.384,17.539,9.776,35.334,13.947,53.161q3.094,13.378,5.975,26.8,2.766,13.447,5.349,26.926c1.717,8.987,3.406,17.978,4.91,27l2.242,13.54,1.056,6.782.492,3.4.236,1.7c.068.58.165,1.086.2,1.876Z" transform="translate(-2585.464 -2170.818)" fill="#25cbe8"/>
        </g>
        <g id="Group_38" data-name="Group 38" transform="translate(162.407 410.335)">
          <path id="Path_75" data-name="Path 75" d="M2783.858,2794.764h58.407c3.828,0,6.661,5.769,5.8,11.812-3.737,26.227-8.216,52.836-17.379,79.847-1.692,4.989-4.915,8.117-8.429,8.117H2803.2c-3.461,0-6.637-3.08-8.277-8.018a391.3,391.3,0,0,1-17.892-78.344C2776.217,2801.219,2779.487,2794.764,2783.858,2794.764Z" transform="translate(-2776.904 -2794.764)" fill="#00b3d3"/>
        </g>
      </g>
    </g>
  </g>
</svg>
