<svg xmlns="http://www.w3.org/2000/svg" xmlns:xlink="http://www.w3.org/1999/xlink" width="765.168" height="724.318" viewBox="0 0 765.168 724.318">
  <defs>
    <linearGradient id="linear-gradient" x1="1.009" y1="-1.103" x2="1.939" y2="-3.687" gradientUnits="objectBoundingBox">
      <stop offset="0" stop-color="#f89f1b"/>
      <stop offset="1" stop-color="#4042e2"/>
    </linearGradient>
    <linearGradient id="linear-gradient-2" x1="0.817" y1="-0.962" x2="-0.637" y2="5.743" gradientUnits="objectBoundingBox">
      <stop offset="0" stop-color="#e1473d"/>
      <stop offset="1" stop-color="#e9605a"/>
    </linearGradient>
    <linearGradient id="linear-gradient-3" x1="0.459" y1="-1.365" x2="0.512" y2="1.039" xlink:href="#linear-gradient-2"/>
    <linearGradient id="linear-gradient-4" x1="-24.909" y1="1.423" x2="-22.928" y2="4.106" gradientUnits="objectBoundingBox">
      <stop offset="0" stop-color="#febbba"/>
      <stop offset="1" stop-color="#ff928e"/>
    </linearGradient>
    <linearGradient id="linear-gradient-5" x1="13.255" y1="-0.062" x2="13.768" y2="2.428" gradientUnits="objectBoundingBox">
      <stop offset="0" stop-color="#09005d"/>
      <stop offset="1" stop-color="#1a0f91"/>
    </linearGradient>
  </defs>
  <g id="Group_572" data-name="Group 572" transform="translate(-424.019 -469.592)">
    <path id="Path_1" data-name="Path 1" d="M504.2,960.185c73.012,170.043,265.741,243.08,416.747,230.627,41.231-3.4,124.188-10.241,188.962-71.275,124.393-117.211,105.236-362.215-13.845-506.459C1080.726,594.5,974.579,470.046,809.169,471.712c-121.1,1.22-206.107,69.383-216.443,77.875a332.588,332.588,0,0,0-67.81,76.661C463.932,721.272,458.572,853.925,504.2,960.185Z" transform="translate(-5.517 -2.104)" fill="#d2fdfd"/>
    <g id="Group_15" data-name="Group 15" transform="translate(424.019 470.057)">
      <g id="Group_8" data-name="Group 8" transform="translate(0 32.876)">
        <g id="Group_3" data-name="Group 3" opacity="0.3">
          <path id="Path_2" data-name="Path 2" d="M650.382,625.169a2.66,2.66,0,0,1-3.753.257c-2.152-1.875-4.416-3.685-6.732-5.379a2.66,2.66,0,0,1-.606-3.675l.03-.043a2.66,2.66,0,0,1,3.718-.576c2.437,1.783,4.822,3.688,7.087,5.662a2.659,2.659,0,0,1,.257,3.752ZM628.06,612.576c-2.524-1.362-5.129-2.629-7.747-3.766a2.66,2.66,0,1,1,2.12-4.878c2.754,1.2,5.5,2.529,8.153,3.962a2.66,2.66,0,0,1,1.078,3.6,2.76,2.76,0,0,1-.166.269A2.66,2.66,0,0,1,628.06,612.576Zm-20.936-8.434c-2.756-.764-5.578-1.417-8.391-1.941a2.66,2.66,0,0,1,.975-5.23c2.962.552,5.935,1.24,8.836,2.045a2.66,2.66,0,1,1-1.421,5.126Zm-22.3-3.54c-2.861-.129-5.76-.134-8.617-.018a2.66,2.66,0,1,1-.216-5.315c3.009-.122,6.061-.116,9.072.018a2.66,2.66,0,0,1-.238,5.315ZM562.3,602.118c-2.811.509-5.64,1.145-8.408,1.892a2.66,2.66,0,1,1-1.385-5.136c2.912-.786,5.889-1.455,8.846-1.99a2.66,2.66,0,1,1,.947,5.234Zm-21.632,6.463c-2.633,1.119-5.25,2.365-7.779,3.7a2.66,2.66,0,0,1-2.489-4.7c2.661-1.409,5.417-2.721,8.187-3.9a2.66,2.66,0,1,1,2.081,4.9Zm-62.754,76.274a2.66,2.66,0,0,1-2.122-3.106c.557-2.957,1.251-5.931,2.062-8.836a2.66,2.66,0,0,1,5.123,1.43c-.77,2.759-1.428,5.582-1.957,8.391a2.658,2.658,0,0,1-3.106,2.122Zm43.1-65.184c-2.316,1.676-4.589,3.472-6.752,5.341a2.66,2.66,0,1,1-3.476-4.027c2.279-1.967,4.672-3.859,7.111-5.624a2.66,2.66,0,1,1,3.117,4.31Zm-36.849,42.862a2.66,2.66,0,0,1-1.373-3.5c1.2-2.757,2.545-5.5,3.981-8.15a2.66,2.66,0,0,1,4.677,2.535c-1.365,2.519-2.638,5.124-3.783,7.745a2.662,2.662,0,0,1-3.5,1.372Zm20.174-27.661c-1.882,2.151-3.7,4.41-5.392,6.718a2.66,2.66,0,0,1-4.32-3.1c.011-.015.022-.031.033-.046,1.784-2.43,3.694-4.81,5.674-7.074a2.66,2.66,0,0,1,4.18,3.279C504.464,634.724,504.4,634.8,504.342,634.872Z" transform="translate(-473.965 -595.181)" fill="#f89f1b"/>
          <path id="Path_3" data-name="Path 3" d="M473.747,983.051a2.645,2.645,0,0,0,.482-1.514c.006-1.371.042-2.765.1-4.144a2.659,2.659,0,1,0-5.313-.242c-.067,1.45-.1,2.916-.111,4.359a2.66,2.66,0,0,0,4.838,1.54Z" transform="translate(-468.909 -875.871)" fill="#f89f1b"/>
        </g>
        <g id="Group_4" data-name="Group 4" transform="translate(28.312 99.388)" opacity="0.3">
          <path id="Path_4" data-name="Path 4" d="M585.531,1273.989a2.661,2.661,0,0,0-.323-3.434c-.983-.956-1.963-1.948-2.911-2.95a2.66,2.66,0,0,0-3.863,3.658c1,1.054,2.03,2.1,3.065,3.106a2.659,2.659,0,0,0,4.032-.38Z" transform="translate(-577.703 -1191.39)" fill="#f89f1b"/>
          <path id="Path_5" data-name="Path 5" d="M778.507,1101.7a2.66,2.66,0,1,1-4.2-3.268c1.718-2.207,3.369-4.521,4.926-6.9a2.66,2.66,0,0,1,4.454,2.911q-1.012,1.549-2.068,3.051C780.617,1098.917,779.57,1100.333,778.507,1101.7Zm8.728-18.643a2.659,2.659,0,0,1-1.261-3.543c1.209-2.548,2.324-5.174,3.313-7.806a2.659,2.659,0,1,1,4.979,1.87c-1.041,2.771-2.214,5.536-3.487,8.217a2.706,2.706,0,0,1-.228.392A2.661,2.661,0,0,1,787.235,1083.055ZM768.84,1112.5c-2.12,2.064-4.358,4.067-6.651,5.95a2.66,2.66,0,1,1-3.377-4.111c2.179-1.789,4.3-3.689,6.316-5.65a2.66,2.66,0,0,1,4.034,3.432A2.692,2.692,0,0,1,768.84,1112.5Zm26.4-50.8a2.659,2.659,0,0,1-2.01-3.18c.62-2.747,1.129-5.553,1.514-8.34a2.66,2.66,0,0,1,5.269.727c-.405,2.935-.942,5.89-1.594,8.783a2.656,2.656,0,0,1-3.18,2.009Zm-44.849,65.156c-2.521,1.547-5.143,3.007-7.795,4.341a2.66,2.66,0,1,1-2.391-4.752c2.518-1.267,5.009-2.654,7.4-4.123a2.66,2.66,0,1,1,2.782,4.534Zm-21.15,9.958c-2.8.961-5.683,1.814-8.553,2.537a2.66,2.66,0,1,1-1.3-5.159c2.728-.687,5.463-1.5,8.128-2.41a2.66,2.66,0,1,1,1.724,5.032Zm-22.818,5.112c-2.949.327-5.945.533-8.9.614a2.66,2.66,0,1,1-.144-5.318c2.811-.075,5.656-.272,8.459-.583a2.66,2.66,0,0,1,.587,5.287Zm-23.39.013c-2.948-.325-5.917-.78-8.824-1.353a2.66,2.66,0,1,1,1.028-5.219c2.76.544,5.579.976,8.38,1.285a2.66,2.66,0,1,1-.584,5.287ZM660.2,1136.8c-2.8-.964-5.591-2.062-8.3-3.262a2.66,2.66,0,0,1,2.152-4.865c2.577,1.14,5.23,2.182,7.887,3.1a2.66,2.66,0,1,1-1.735,5.028ZM639.075,1126.8c-1.857-1.143-3.7-2.357-5.484-3.608q-.968-.68-1.915-1.377a2.63,2.63,0,0,1-.566-3.718,2.66,2.66,0,0,1,3.719-.567q.9.662,1.82,1.31c1.693,1.19,3.447,2.344,5.213,3.43a2.659,2.659,0,0,1,.872,3.659c-.029.047-.059.093-.091.138A2.659,2.659,0,0,1,639.075,1126.8Z" transform="translate(-616.819 -1029.458)" fill="#f89f1b"/>
          <path id="Path_6" data-name="Path 6" d="M1269.623,985.536a2.651,2.651,0,0,0,.483-1.528c0-1.44-.031-2.907-.091-4.361a2.66,2.66,0,0,0-5.315.22c.057,1.381.086,2.775.086,4.142a2.659,2.659,0,0,0,4.837,1.527Z" transform="translate(-1085.916 -977.097)" fill="#f89f1b"/>
        </g>
        <g id="Group_7" data-name="Group 7" transform="translate(26.325 26.621)">
          <path id="Path_7" data-name="Path 7" d="M723.547,746.409a1.243,1.243,0,0,0-1.124-.9l-15.1-.881a65.921,65.921,0,0,0-13.2-16.788l2.7-14.878a1.244,1.244,0,0,0-.615-1.306l-15.825-8.884a1.243,1.243,0,0,0-1.435.155l-11.3,10.052a65.914,65.914,0,0,0-21.2-2.525l-8.616-12.437a1.244,1.244,0,0,0-1.358-.489L619,702.431a1.243,1.243,0,0,0-.9,1.125l-.881,15.1a65.909,65.909,0,0,0-16.788,13.2l-14.877-2.7a1.242,1.242,0,0,0-1.306.614L575.358,745.6a1.243,1.243,0,0,0,.155,1.435l10.052,11.3a65.9,65.9,0,0,0-2.525,21.2L570.6,788.148a1.242,1.242,0,0,0-.489,1.358l4.908,17.473a1.243,1.243,0,0,0,1.124.9l15.105.881a65.9,65.9,0,0,0,13.2,16.788l-2.7,14.878a1.242,1.242,0,0,0,.614,1.306l15.825,8.885a1.243,1.243,0,0,0,1.435-.155l11.3-10.052a65.9,65.9,0,0,0,21.2,2.525l8.616,12.437a1.243,1.243,0,0,0,1.358.489l17.473-4.907a1.243,1.243,0,0,0,.9-1.125l.881-15.1a65.9,65.9,0,0,0,16.788-13.2l14.878,2.7a1.244,1.244,0,0,0,1.306-.615l8.885-15.825a1.244,1.244,0,0,0-.155-1.435L713,795.06a65.913,65.913,0,0,0,2.525-21.2l12.437-8.616a1.243,1.243,0,0,0,.489-1.358Z" transform="translate(-570.067 -697.477)" fill="#25cbe8"/>
          <g id="Group_5" data-name="Group 5" transform="translate(60.974 60.983)">
            <path id="Path_8" data-name="Path 8" d="M835.85,962.6a18.233,18.233,0,1,1,1.7-2.073A18.264,18.264,0,0,1,835.85,962.6ZM808.63,950.419a13.987,13.987,0,1,0,3.833-10,14.177,14.177,0,0,0-1.314,1.606A13.885,13.885,0,0,0,808.63,950.419Z" transform="translate(-804.37 -931.814)" fill="#fff"/>
          </g>
          <g id="Group_6" data-name="Group 6" transform="translate(33.962 34.443)">
            <path id="Path_9" data-name="Path 9" d="M782.1,900.537a45.763,45.763,0,0,0,2.456-3.9h0q.358-.637.7-1.286a45.156,45.156,0,0,0,2.8-6.617l.031-.093c.029-.088.057-.175.085-.264.055-.171.109-.343.162-.515a1.064,1.064,0,1,0-2.033-.627,42.778,42.778,0,0,1-38.531,30.1,42.47,42.47,0,0,1-23.238-5.4,43.359,43.359,0,0,1-3.721-2.343,42.731,42.731,0,1,1,61.724-56.151,1.064,1.064,0,1,0,1.847-1.056,44.86,44.86,0,1,0-64.8,58.947,45.781,45.781,0,0,0,3.906,2.46A44.866,44.866,0,0,0,782.1,900.537Z" transform="translate(-700.571 -829.829)" fill="#fff"/>
          </g>
        </g>
      </g>
      <g id="Group_14" data-name="Group 14" transform="translate(166.099 0)">
        <g id="Group_9" data-name="Group 9" opacity="0.3">
          <path id="Path_10" data-name="Path 10" d="M1552.356,562.787a1.642,1.642,0,0,0-.06-1.968c-.869-1.091-1.783-2.17-2.717-3.208a1.643,1.643,0,1,0-2.442,2.2c.89.989,1.761,2.017,2.59,3.058a1.641,1.641,0,0,0,2.629-.08Z" transform="translate(-1432.329 -534.11)" fill="#f89f1b"/>
          <path id="Path_11" data-name="Path 11" d="M1218.346,488.542a1.643,1.643,0,0,1-2.318.164,68.254,68.254,0,0,0-5.431-4.244q-.593-.416-1.2-.822a1.644,1.644,0,0,1-.447-2.28,1.7,1.7,0,0,1,2.281-.447q.633.426,1.254.861a71.293,71.293,0,0,1,5.694,4.451,1.642,1.642,0,0,1,.269,2.184C1218.418,488.454,1218.383,488.5,1218.346,488.542Zm-16.143-9.124a68.111,68.111,0,0,0-7.655-3.311,1.643,1.643,0,1,1,1.116-3.09,71.259,71.259,0,0,1,8.025,3.472,1.644,1.644,0,0,1,.722,2.209,1.684,1.684,0,0,1-.123.2A1.643,1.643,0,0,1,1202.2,479.418Zm-15.664-5.651a67.463,67.463,0,0,0-8.237-1.329,1.643,1.643,0,0,1,.322-3.27,70.88,70.88,0,0,1,8.638,1.394,1.643,1.643,0,0,1-.723,3.206Zm-16.574-1.63a67.723,67.723,0,0,0-8.309.727,1.643,1.643,0,0,1-.489-3.25,71.235,71.235,0,0,1,8.714-.762,1.643,1.643,0,0,1,.084,3.285Zm-16.47,2.466a68.455,68.455,0,0,0-7.884,2.723,1.643,1.643,0,1,1-1.26-3.034,71.838,71.838,0,0,1,8.263-2.855,1.643,1.643,0,0,1,.881,3.166Zm-15.372,6.389a67.391,67.391,0,0,0-6.975,4.56,1.643,1.643,0,0,1-1.965-2.634,70.709,70.709,0,0,1,7.316-4.783,1.643,1.643,0,1,1,1.624,2.857Zm-13.337,9.951a67.551,67.551,0,0,0-5.647,6.138,1.644,1.644,0,0,1-2.551-2.073,71.272,71.272,0,0,1,5.922-6.435,1.643,1.643,0,1,1,2.276,2.37Zm-16.666,21.05a1.642,1.642,0,0,1-.793-2.183,71.448,71.448,0,0,1,3.578-6.7c.2-.331.4-.657.6-.983a1.643,1.643,0,0,1,2.783,1.748c-.192.3-.381.612-.569.927a68.159,68.159,0,0,0-3.418,6.4,1.641,1.641,0,0,1-2.183.793Z" transform="translate(-1107.172 -468.852)" fill="#f89f1b"/>
        </g>
        <g id="Group_10" data-name="Group 10" transform="translate(52.64 66.484)" opacity="0.3">
          <path id="Path_12" data-name="Path 12" d="M1378.755,806.083a71.536,71.536,0,0,1-5.447,6.655,1.643,1.643,0,0,1-2.412-2.232,67.959,67.959,0,0,0,5.2-6.347,1.643,1.643,0,0,1,2.676,1.906Zm2.377-6.625a1.642,1.642,0,0,1-.641-2.232,68.682,68.682,0,0,0,3.537-7.408,1.643,1.643,0,0,1,3.045,1.236,71.83,71.83,0,0,1-3.708,7.762,1.62,1.62,0,0,1-.094.151A1.642,1.642,0,0,1,1381.132,799.458Zm-14.044,19.227a71.268,71.268,0,0,1-6.9,5.143,1.643,1.643,0,0,1-1.8-2.749,68.177,68.177,0,0,0,6.58-4.9,1.642,1.642,0,1,1,2.118,2.51Zm20.712-34.632a1.643,1.643,0,0,1-1.16-2.013,67.471,67.471,0,0,0,1.644-8.04,1.643,1.643,0,1,1,3.253.46,70.453,70.453,0,0,1-1.724,8.433,1.643,1.643,0,0,1-2.013,1.16Zm-35.074,44.038a71.434,71.434,0,0,1-7.929,3.332,1.643,1.643,0,0,1-1.087-3.1,67.625,67.625,0,0,0,7.563-3.178,1.643,1.643,0,0,1,1.454,2.947Zm-16.2,5.687a71.861,71.861,0,0,1-8.5,1.339,1.642,1.642,0,1,1-.314-3.27,68.581,68.581,0,0,0,8.107-1.279,1.643,1.643,0,0,1,.705,3.21Zm-17.1,1.644a70.939,70.939,0,0,1-8.575-.739,1.643,1.643,0,0,1,.48-3.251,67.214,67.214,0,0,0,8.176.7,1.642,1.642,0,0,1,1.6,1.684,1.624,1.624,0,0,1-.3.9A1.642,1.642,0,0,1,1319.425,835.422Z" transform="translate(-1309.448 -760.028)" fill="#f89f1b"/>
          <path id="Path_13" data-name="Path 13" d="M1617.752,731.016a1.634,1.634,0,0,0,.3-.914c.025-1.406.008-2.819-.049-4.2a1.643,1.643,0,0,0-3.284.136c.055,1.317.071,2.665.047,4.007a1.643,1.643,0,0,0,2.988.972Z" transform="translate(-1535.274 -724.326)" fill="#f89f1b"/>
        </g>
        <g id="Group_13" data-name="Group 13" transform="translate(10.983 17.654)">
          <path id="Path_14" data-name="Path 14" d="M1252.076,569.433a.833.833,0,0,0-.753-.606l-10.108-.589a44.1,44.1,0,0,0-8.83-11.234l1.807-9.956a.832.832,0,0,0-.411-.874l-10.59-5.945a.831.831,0,0,0-.96.1l-7.559,6.726a44.1,44.1,0,0,0-14.189-1.69l-5.766-8.322a.832.832,0,0,0-.909-.327l-11.692,3.284a.831.831,0,0,0-.605.752l-.589,10.107a44.1,44.1,0,0,0-11.234,8.83l-9.955-1.807a.832.832,0,0,0-.874.411l-5.945,10.59a.832.832,0,0,0,.1.96l6.726,7.559a44.092,44.092,0,0,0-1.69,14.189l-8.323,5.766a.832.832,0,0,0-.327.909l3.284,11.692a.832.832,0,0,0,.752.605l10.108.589a44.1,44.1,0,0,0,8.83,11.234l-1.807,9.956a.831.831,0,0,0,.411.874l10.59,5.945a.831.831,0,0,0,.96-.1l7.559-6.726a44.1,44.1,0,0,0,14.189,1.69l5.766,8.322a.832.832,0,0,0,.909.327l11.692-3.284a.832.832,0,0,0,.606-.752l.589-10.107a44.108,44.108,0,0,0,11.234-8.831l9.955,1.807a.832.832,0,0,0,.874-.411l5.945-10.59a.832.832,0,0,0-.1-.96l-6.726-7.559a44.1,44.1,0,0,0,1.69-14.189l8.323-5.766a.832.832,0,0,0,.327-.909Z" transform="translate(-1149.374 -536.69)" fill="#25cbe8"/>
          <g id="Group_11" data-name="Group 11" transform="translate(40.589 40.588)">
            <path id="Path_15" data-name="Path 15" d="M1326.781,713.626a12.387,12.387,0,1,1,1.166-1.426A12.7,12.7,0,0,1,1326.781,713.626Zm-15.308-1.917a9.14,9.14,0,0,0,12.923-.342h0a9.141,9.141,0,0,0-13.266-12.581,9.289,9.289,0,0,0-.85,1.039A9.156,9.156,0,0,0,1311.473,711.709Z" transform="translate(-1305.344 -692.656)" fill="#fff"/>
          </g>
          <g id="Group_12" data-name="Group 12" transform="translate(21.794 22.097)">
            <path id="Path_16" data-name="Path 16" d="M1289.39,670.374q.9-1.276,1.677-2.663a31.136,31.136,0,0,0,2.516-5.782l.084-.27a1.642,1.642,0,1,0-3.139-.968,27.768,27.768,0,0,1-2.326,5.411h0c-.053.094-.107.188-.161.282a27.392,27.392,0,0,1-9.426,9.729,27.806,27.806,0,0,1-6.812,3.011l-.059.017-.181.051a27.482,27.482,0,0,1-21.022-2.511,28.033,28.033,0,0,1-2.409-1.516,27.663,27.663,0,1,1,39.958-36.352,1.643,1.643,0,1,0,2.852-1.631,30.949,30.949,0,1,0-44.7,40.668,31.579,31.579,0,0,0,2.694,1.7A30.992,30.992,0,0,0,1289.39,670.374Z" transform="translate(-1233.122 -621.6)" fill="#fff"/>
          </g>
        </g>
      </g>
    </g>
    <g id="Group_26" data-name="Group 26" transform="translate(725.545 470.057)">
      <path id="Path_17" data-name="Path 17" d="M2307.045,679.256v653.225a13.522,13.522,0,0,1-4.718,10.615,12.318,12.318,0,0,1-8.24,2.874l-7.154-.264c-7.231-.273-13.753-6.89-13.753-14.45V680.362Z" transform="translate(-2062.045 -625.706)" fill="#018ea7"/>
      <g id="Group_16" data-name="Group 16" transform="translate(197.46 0)">
        <path id="Path_18" data-name="Path 18" d="M2283.028,503.6a32.49,32.49,0,0,1-14.036,26.7,30.513,30.513,0,0,1-16.429,5.427,29.173,29.173,0,0,1-8.631-1.018,28.65,28.65,0,0,1-5.869-2.326c-.467-.254-.934-.508-1.392-.792a30.05,30.05,0,0,1-14.364-25.957c0-17.13,13.524-31.506,30.256-32.125C2269.359,472.882,2283.028,486.349,2283.028,503.6Z" transform="translate(-2221.871 -473.482)" fill="#018ea7"/>
        <path id="Path_19" data-name="Path 19" d="M2267.841,518.3a25.259,25.259,0,0,1-10.913,20.755,23.722,23.722,0,0,1-12.773,4.219,22.674,22.674,0,0,1-6.71-.791,22.288,22.288,0,0,1-4.563-1.808c-.363-.2-.726-.4-1.082-.615a23.364,23.364,0,0,1-11.168-20.181c0-13.318,10.514-24.5,23.523-24.976C2257.214,494.423,2267.841,504.893,2267.841,518.3Z" transform="translate(-2220.632 -489.318)" fill="#fff"/>
      </g>
      <g id="Group_17" data-name="Group 17" transform="translate(0 45.336)">
        <path id="Path_20" data-name="Path 20" d="M1462.077,686.913l2.6,1.344,49.265-30.206,241.267,35.666,33.746,3.861-1.992,6.3c-.269.678-38.664,28.655-38.664,28.655l29.883,39.22-1.437,4.033a1.032,1.032,0,0,1-1.119.7l-31.025-4.806-241.4-37.4a3.117,3.117,0,0,1-1.778-.935L1462.6,692.7a2.713,2.713,0,0,1-.733-2.027Z" transform="translate(-1461.861 -655.355)" fill="#00b3d3"/>
        <path id="Path_21" data-name="Path 21" d="M1517.948,647.735l272.29,42.18a.3.3,0,0,1,.115.536l-38.369,28.068a1.254,1.254,0,0,0-.313,1.667l27.441,43.345a.3.3,0,0,1-.283.46l-272.462-42.207a3.682,3.682,0,0,1-2.057-1.059L1463.7,679.6a.388.388,0,0,1,.078-.6l51.712-30.78A3.689,3.689,0,0,1,1517.948,647.735Z" transform="translate(-1463.145 -647.693)" fill="#25cbe8"/>
      </g>
      <g id="Group_19" data-name="Group 19" transform="translate(23.902 266.659)">
        <path id="Path_22" data-name="Path 22" d="M1553.707,1563.268l2.763.676,39.576-39.9,235.921-21.612,31.485-3.934a1.058,1.058,0,0,1,1.188,1.106l-.272,5.149c-.1.7-30.021,36.012-30.021,36.012l37.2,30.271-.432,4.148a1,1,0,0,1-.9.915l-30.388,2.571-236.445,20.006a3.026,3.026,0,0,1-1.893-.476l-45.966-29.565a2.645,2.645,0,0,1-1.156-1.75Z" transform="translate(-1553.707 -1498.402)" fill="#00b3d3"/>
        <path id="Path_23" data-name="Path 23" d="M1598.656,1520.664l265.908-22.5a.615.615,0,0,1,.522,1.009l-29.279,34.781a1.235,1.235,0,0,0,.084,1.653l35.855,34.748a.285.285,0,0,1-.174.489l-266.867,22.58a3.57,3.57,0,0,1-2.184-.53l-47.761-29.614a.374.374,0,0,1-.065-.585l41.754-41.008A3.577,3.577,0,0,1,1598.656,1520.664Z" transform="translate(-1554.355 -1498.163)" fill="#25cbe8"/>
        <g id="Group_18" data-name="Group 18" transform="translate(52.334 30.413)">
          <rect id="Rectangle_2" data-name="Rectangle 2" width="150.659" height="8.842" rx="3.833" transform="translate(0 11.741) rotate(-4.469)" fill="#fff" opacity="0.56"/>
          <path id="Path_24" data-name="Path 24" d="M1908.789,1715.315l-147.028,11.492a1,1,0,0,1-1.072-.917l-.5-6.37a1,1,0,0,1,.917-1.072l147.028-11.493a1,1,0,0,1,1.073.917l.5,6.37A1,1,0,0,1,1908.789,1715.315Z" transform="translate(-1758.788 -1683.031)" fill="#fff" opacity="0.56"/>
        </g>
      </g>
      <g id="Group_21" data-name="Group 21" transform="translate(106.147 164.499)">
        <path id="Path_25" data-name="Path 25" d="M2216.75,1147.14l-2.865,1.14-49.666-32.152-258.479,19.833-35.991,2.055,1.469,5.631c.229.671,38.616,30.216,38.616,30.216l-34.905,36.064,1.187,3.982a1.072,1.072,0,0,0,1.127.739l33.257-2.763,258.766-21.494a3.532,3.532,0,0,0,1.961-.795l44.49-36.9a2.571,2.571,0,0,0,.944-1.913Z" transform="translate(-1869.748 -1113.387)" fill="#c37b10"/>
        <path id="Path_26" data-name="Path 26" d="M2161.709,1105.609l-291.27,24.194a.526.526,0,0,0-.277.942l37.808,29.047a1.143,1.143,0,0,1,.191,1.631l-32.648,40.179a.292.292,0,0,0,.25.475l292.06-24.26a4.176,4.176,0,0,0,2.266-.9l46.422-37.257a.358.358,0,0,0-.034-.582l-52.209-32.854A4.165,4.165,0,0,0,2161.709,1105.609Z" transform="translate(-1869.902 -1105.595)" fill="url(#linear-gradient)"/>
        <g id="Group_20" data-name="Group 20" transform="translate(141.288 19.206)">
          <rect id="Rectangle_3" data-name="Rectangle 3" width="147.198" height="9.117" rx="3.833" transform="translate(0 11.471) rotate(-4.469)" fill="#fff" opacity="0.56"/>
          <rect id="Rectangle_4" data-name="Rectangle 4" width="146.038" height="8.646" rx="3.833" transform="translate(1.394 35.961) rotate(-4.469)" fill="#fff" opacity="0.56"/>
        </g>
      </g>
      <g id="Group_22" data-name="Group 22" transform="translate(216.143 99.653)">
        <circle id="Ellipse_1" data-name="Ellipse 1" cx="10.341" cy="10.341" r="10.341" transform="translate(0 20.415) rotate(-80.783)" fill="#00b3d3"/>
        <circle id="Ellipse_2" data-name="Ellipse 2" cx="6.346" cy="6.346" r="6.346" transform="translate(6.223 3.873)" fill="#fff"/>
      </g>
      <g id="Group_23" data-name="Group 23" transform="translate(214.386 204.569)">
        <circle id="Ellipse_3" data-name="Ellipse 3" cx="9.96" cy="9.96" r="9.96" transform="translate(0 19.387) rotate(-76.717)" fill="#c37b10"/>
        <circle id="Ellipse_4" data-name="Ellipse 4" cx="6.112" cy="6.112" r="6.112" transform="translate(6.549 4.286)" fill="#fff"/>
      </g>
      <g id="Group_24" data-name="Group 24" transform="translate(212.348 296.126)">
        <circle id="Ellipse_5" data-name="Ellipse 5" cx="10.347" cy="10.347" r="10.347" transform="translate(0 14.633) rotate(-45)" fill="url(#linear-gradient-2)"/>
        <circle id="Ellipse_6" data-name="Ellipse 6" cx="6.349" cy="6.349" r="6.349" transform="matrix(0.23, -0.973, 0.973, 0.23, 7.7, 17.708)" fill="url(#linear-gradient-3)"/>
      </g>
      <g id="Group_25" data-name="Group 25" transform="translate(59.647 65.789)">
        <rect id="Rectangle_5" data-name="Rectangle 5" width="136.104" height="8.43" rx="3.833" transform="translate(5.254) rotate(8.967)" fill="#fff" opacity="0.56"/>
        <rect id="Rectangle_6" data-name="Rectangle 6" width="135.031" height="7.994" rx="3.833" transform="translate(1.246 22.325) rotate(8.967)" fill="#fff" opacity="0.56"/>
      </g>
    </g>
    <g id="Group_32" data-name="Group 32" transform="translate(466.521 656.453)">
      <g id="Group_27" data-name="Group 27" transform="translate(78.564 75.435)">
        <path id="Path_27" data-name="Path 27" d="M954.819,1935.156c-82-2.138-172.714,19.889-172.714,19.889-21.6,119.171-12.095,253.966-8.418,294.79a17.071,17.071,0,0,0,13.957,15.241c42.375,7.788,87.063,3.063,109.543-.358a21.277,21.277,0,0,0,17.6-16.584c14.855-69.146,57.292-221.693,57.292-221.693,40.119-4.591,73.241-15.838,100.571-30.863-20.506-24.234-29.99-54.912-34.063-73.032C1009.5,1931.282,980.112,1935.816,954.819,1935.156Z" transform="translate(-768.414 -1807.279)" fill="#739af0"/>
        <path id="Path_28" data-name="Path 28" d="M1966.23,1489c-7.964-9.808-15.443-9.383-15.443-9.383-12.556,50.867-78.995,95.681-144.2,115.266,4.073,18.12,13.557,48.8,34.063,73.032C1949.125,1608.272,1966.23,1489,1966.23,1489Z" transform="translate(-1536.414 -1479.61)" fill="#f48f8f"/>
      </g>
      <g id="Group_28" data-name="Group 28" transform="translate(490.361 0)">
        <path id="Path_29" data-name="Path 29" d="M2366.85,1277.014c.818,2.688-8.984,6.676-14.627-4.34-.15-5.255-3.131-27.791.049-32.041,16.936-22.633,49.622-50.9,49.622-50.9,5.427,5.458.863,10.725.863,10.725l-15.881,16.23c3.233,5.974,7.2,11.03,9.008,18.236a22.035,22.035,0,0,1-2.352,16.2c-2.808,4.946-6.635,11.374-10.243,16.4C2376.459,1277.033,2366.85,1277.014,2366.85,1277.014Z" transform="translate(-2350.811 -1189.737)" fill="url(#linear-gradient-4)"/>
        <path id="Path_30" data-name="Path 30" d="M2408.4,1333.9l-14.445,12.01-4.614,12.051,12.64,14.295s4.525-23.956,7.767-29.119S2411.357,1335.451,2408.4,1333.9Z" transform="translate(-2379.313 -1296.387)" fill="#e37979"/>
      </g>
      <path id="Path_31" data-name="Path 31" d="M594.94,2127.142l-30.7-79.715s-77.1,51.32-90.332,117.194c14.465,1.2,40.768,5.22,66.426,18.484C546.3,2152,594.94,2127.142,594.94,2127.142Z" transform="translate(-471.986 -1824.225)" fill="#739af0"/>
      <path id="Path_32" data-name="Path 32" d="M655.708,2535.651s-86.474,47.788-115.1,6.005c-5.943-8.676-7.3-17.255-5.74-25.406-25.657-13.264-51.961-17.28-66.426-18.484a91.094,91.094,0,0,0,9.3,62.536c49.948,93.477,189.14-3.335,189.14-3.335Z" transform="translate(-466.521 -2157.368)" fill="#f48f8f"/>
      <path id="Path_33" data-name="Path 33" d="M1091.234,1712.1l-26.816,75.219a2.719,2.719,0,0,0,1.208,3.286c7.076,4,32.6,15.613,63.667-3.673a12.805,12.805,0,0,0,5.984-9.089l9.073-65.237Z" transform="translate(-908.705 -1576.16)" fill="#f48f8f"/>
      <g id="Group_29" data-name="Group 29" transform="translate(133.267 27.352)">
        <path id="Path_34" data-name="Path 34" d="M1197.987,1445.635s28.142,54.215,24.261,75.97-39.381,19.851-70.224,1.859l-21.115-58.452Z" transform="translate(-1091.277 -1406.393)" fill="#f48f8f"/>
        <path id="Path_35" data-name="Path 35" d="M1041.011,1383.32a2.223,2.223,0,0,0,1-3.245c-2.263-3.529-6.5-10.725-7.812-17,0,0-5.12-3.349,13.185-7.546s45.6-10.722,51.477-26.213c5.726-15.1-8.575-53.358-32.261-23.212a2.223,2.223,0,0,1-3.523-.009c-3.787-5.028-13.772-15.486-27.831-9.338-13.156,5.754-14.724,15.339-14.59,20.18a2.21,2.21,0,0,1-2.64,2.238c-6.612-1.327-22.5-2.563-30.071,13.672-6.239,13.372-2.339,21.013,1.243,24.765a2.216,2.216,0,0,1-.984,3.671c-4.366,1.291-10.022,4.929-9.557,15.133.644,14.107,16.419,13.015,20.913,12.415a2.227,2.227,0,0,1,1.968.717c3.808,4.3,20.974,22.543,39.719,24.9a2.242,2.242,0,0,0,2.381-2.94l-7.9-23.685a2.234,2.234,0,0,1,1.234-2.757Z" transform="translate(-978.622 -1294.841)" fill="#0d5d6c"/>
        <path id="Path_36" data-name="Path 36" d="M1168.347,1627.677s-20.27-14.193-21.873-2.419,18.21,17.251,28.091,12.949Z" transform="translate(-1102.724 -1535.815)" fill="#f48f8f"/>
      </g>
      <g id="Group_31" data-name="Group 31" transform="translate(171.325 275.633)">
        <g id="Group_30" data-name="Group 30">
          <path id="Path_37" data-name="Path 37" d="M1125.055,2427.074l47.106-164.5a4.8,4.8,0,0,1,4.057-3.454c8.535-1,33.265-3.792,61.819-6.207,34.394-2.909,74.336-5.266,98.2-3.261a4.813,4.813,0,0,1,3.935,6.926c-13.572,27.459-69.4,139.157-97.36,175.748a4.827,4.827,0,0,1-3.884,1.906l-109.293-1.017A4.814,4.814,0,0,1,1125.055,2427.074Z" transform="translate(-1124.866 -2248.902)" fill="url(#linear-gradient-5)"/>
          <path id="Path_38" data-name="Path 38" d="M1156.407,2621.4s-6.562-26.982-3.915-36.555,7.775-21.881,24.869-19.146,37.259,9.936,37.259,9.936-1.019,12.469-14.011,8.446l8.057,6.234s-1.152,9.984-12.126,4.65l7.493,8.267s-4.713,8.2-12.787,2.941S1179.3,2624.645,1156.407,2621.4Z" transform="translate(-1144.838 -2482.967)" fill="#f48f8f"/>
        </g>
        <path id="Path_39" data-name="Path 39" d="M1547.675,2413.7a13.828,13.828,0,1,0,13.828-13.828A13.827,13.827,0,0,0,1547.675,2413.7Z" transform="translate(-1437.645 -2360.583)" fill="#91b3fa"/>
        <path id="Path_40" data-name="Path 40" d="M1317.058,2341.2l9.591-32.534a11.156,11.156,0,0,1,8.382-7.83c30.06-6.272,112.337-7.6,113.164-7.614l-.054-3.676c-3.393.052-83.458,1.35-113.86,7.693a14.827,14.827,0,0,0-11.159,10.386l-9.591,32.535Z" transform="translate(-1264.433 -2278.968)" fill="#bdd0fb"/>
      </g>
      <path id="Path_9017" data-name="Path 9017" d="M180.515,141.986s50.465,28.2,50.547,24.486a52.368,52.368,0,0,1,1.228-8.662Z" fill="#e37979"/>
    </g>
    <g id="Group_33" data-name="Group 33" transform="translate(936.977 863.351)">
      <path id="Path_41" data-name="Path 41" d="M2304.316,2310.741a3.63,3.63,0,0,1-2.387-1.514c-8.17-11.781-67.377-103.82,17.885-183.495,80.94-75.636,117.01-90.544,123.207-136.306a5.39,5.39,0,0,1,10.244-1.489c16.668,36.7,41.741,121.881-51.926,174.271-103.325,57.792-97.157,124.964-92.863,144.134a3.642,3.642,0,0,1-4.161,4.4Z" transform="translate(-2274.322 -1984.779)" fill="#00accb"/>
      <path id="Path_42" data-name="Path 42" d="M2422.289,2968.407a5.248,5.248,0,0,1-4.349-4.537c-1.919-15.737-5.99-74.443,37.615-88.581,48-15.564,84.9,29.859,120.893-3.619a2.648,2.648,0,0,1,4.41,2.457c-3.685,17.971-18.852,59.385-80.651,65.839-66.146,6.908-73.8,14.226-72.77,23.641a4.42,4.42,0,0,1-5.149,4.8Z" transform="translate(-2379.777 -2640.331)" fill="#22b9d5"/>
      <path id="Path_43" data-name="Path 43" d="M2471.273,2179.323a67.769,67.769,0,0,1-3.686,9.464c-1.434,3.059-3.015,6.047-4.718,8.966s-3.518,5.777-5.487,8.527-3.994,5.464-6.166,8.059a146.131,146.131,0,0,1-30.035,27.169,186.461,186.461,0,0,1-17.369,10.433,157.474,157.474,0,0,0-16.8,10.488,169.318,169.318,0,0,0-29.316,26.61,157.362,157.362,0,0,0-22.048,32.849A135.441,135.441,0,0,0,2322,2398.965a160.188,160.188,0,0,0,9.635,38.613.691.691,0,0,1-1.283.513,155.566,155.566,0,0,1-10.712-38.828,133.493,133.493,0,0,1,.483-40.394,140.325,140.325,0,0,1,12.3-38.57,157.058,157.058,0,0,1,22.386-33.761,173.213,173.213,0,0,1,29.883-27.353,161.614,161.614,0,0,1,17.185-10.825l4.386-2.394c1.462-.774,2.885-1.616,4.307-2.458l2.137-1.258,2.1-1.324,2.1-1.324,2.057-1.383a161.359,161.359,0,0,0,15.75-12.018,143.86,143.86,0,0,0,14.085-13.94,135.816,135.816,0,0,0,12.046-15.765,97.147,97.147,0,0,0,9.232-17.542l.015-.041a.631.631,0,0,1,1.193.41Z" transform="translate(-2306.883 -2128.095)" fill="#fff" opacity="0.47"/>
      <path id="Path_44" data-name="Path 44" d="M2430.028,2990.673a7.925,7.925,0,0,0,.087-1.619l.008-1.611q.019-1.61.079-3.219.121-3.217.376-6.427c.345-4.279.866-8.545,1.593-12.78a95.96,95.96,0,0,1,7.409-24.668,54.377,54.377,0,0,1,6.835-11.015,38.487,38.487,0,0,1,9.729-8.642,34.689,34.689,0,0,1,12.214-4.562,38.869,38.869,0,0,1,6.509-.591,47.662,47.662,0,0,1,6.51.36c2.168.265,4.26.646,6.378,1l6.33,1.119q6.325,1.151,12.625,2.418c8.4,1.666,16.77,3.493,25.168,5.039,4.2.764,8.412,1.447,12.64,1.871a59.71,59.71,0,0,0,12.661.081,32.4,32.4,0,0,0,11.964-3.638,39.481,39.481,0,0,0,9.889-7.8.563.563,0,0,1,.822.769,40.673,40.673,0,0,1-10.1,8.146,33.759,33.759,0,0,1-12.406,3.932,61.014,61.014,0,0,1-12.971-.041c-4.292-.419-8.54-1.1-12.763-1.853-8.444-1.53-16.812-3.333-25.208-4.974s-16.826-3.22-25.228-4.471a46.033,46.033,0,0,0-6.3-.393,37.311,37.311,0,0,0-6.265.523,33.224,33.224,0,0,0-11.73,4.285,37.1,37.1,0,0,0-9.432,8.266,53.389,53.389,0,0,0-6.75,10.705,94.851,94.851,0,0,0-7.555,24.3c-.763,4.2-1.321,8.429-1.707,12.68q-.287,3.189-.437,6.387-.073,1.6-.11,3.2l-.025,1.6a6.2,6.2,0,0,0,.114,1.591.489.489,0,1,1-.948.242A.5.5,0,0,1,2430.028,2990.673Z" transform="translate(-2389.501 -2673.316)" fill="#fff" opacity="0.47"/>
    </g>
  </g>
</svg>
