<svg xmlns="http://www.w3.org/2000/svg" width="510.087" height="501.611" viewBox="0 0 510.087 501.611">
  <g id="OBJECTS" transform="translate(-169.182 -57.355)">
    <g id="Group_40" data-name="Group 40" transform="translate(169.182 192.249)">
      <g id="Group_39" data-name="Group 39" transform="translate(0)">
        <g id="Group_36" data-name="Group 36" transform="translate(0 154.563)">
          <path id="Path_32" data-name="Path 32" d="M230.91,283.157H98.182s6.773-18.961,24.379-16.252c25.733-56.883,71.781-31.151,73.135-6.772C225.492,250.652,230.91,283.157,230.91,283.157Z" transform="translate(-98.182 -232.646)" fill="#58ddf5" opacity="0.4"/>
        </g>
        <g id="Group_37" data-name="Group 37" transform="translate(326.002)">
          <path id="Path_33" data-name="Path 33" d="M571.364,202.456H672.941C670.232,186.88,653.3,186.88,653.3,186.88c-5.417-40.63-57.559-29.118-65.686-.676C571.364,187.557,571.364,202.456,571.364,202.456Z" transform="translate(-571.364 -160.482)" fill="#58ddf5" opacity="0.3"/>
        </g>
        <g id="Group_38" data-name="Group 38" transform="translate(350.381 254.084)">
          <path id="Path_34" data-name="Path 34" d="M590,410.781H738.981L714.6,401.3c-17.606-65.01-59.592-54.175-66.363-14.9C619.8,360.67,590,385.049,590,410.781Z" transform="translate(-590.002 -354.73)" fill="#58ddf5" opacity="0.3"/>
        </g>
      </g>
    </g>
    <g id="Group_60" data-name="Group 60" transform="translate(528.635 216.609)">
      <g id="Group_59" data-name="Group 59" transform="translate(0 0)">
        <g id="Group_56" data-name="Group 56">
          <path id="Path_47" data-name="Path 47" d="M423.985,159.151l15.727-11.793s-6.613-31.095-1.252-43.424,27.878-9.292,65.406-9.829c20.371.357,48.209.472,54.859,1.294,7.239.893,14.83-2.365,15.189,25.333s5.363,40.547-17.511,41.618c-21.528,1.01-87.921,3.95-105.077-4.628C451.326,157.721,435.6,159.51,423.985,159.151Z" transform="translate(-423.985 -94.105)" fill="#f89f1b"/>
        </g>
        <g id="Group_57" data-name="Group 57" transform="translate(33.059 16.798)">
          <path id="Path_48" data-name="Path 48" d="M449.259,111.771a4.824,4.824,0,0,0,4.824,4.825H541.29a4.825,4.825,0,0,0,4.825-4.825h0a4.825,4.825,0,0,0-4.825-4.824H454.083a4.824,4.824,0,0,0-4.824,4.824Z" transform="translate(-449.259 -106.947)" fill="#fff"/>
        </g>
        <g id="Group_58" data-name="Group 58" transform="translate(61.117 42.876)">
          <path id="Path_49" data-name="Path 49" d="M470.709,131.708c0,2.666,1.533,4.825,3.427,4.825h61.945c1.893,0,3.427-2.16,3.427-4.825h0c0-2.664-1.534-4.824-3.427-4.824H474.136c-1.894,0-3.427,2.16-3.427,4.824Z" transform="translate(-470.709 -126.884)" fill="#fff"/>
        </g>
      </g>
    </g>
    <g id="Group_112" data-name="Group 112" transform="translate(262.302 57.355)">
      <g id="Group_97" data-name="Group 97" transform="translate(22.354 55.083)">
        <g id="Group_61" data-name="Group 61" transform="translate(33.555)">
          <path id="Path_50" data-name="Path 50" d="M349.324,252.122S319.035,269.009,292.5,240.6c-8.577-9.381-13.67-15.547-4.556-23.053s14.473-11.257,16.619-37.794,14.743-68.353,58.7-79.343c21.177-4.288,43.424,6.969,46.106,16.352,0,0-.179-3.128,2.054-3.932s5.719,1.7,5.362,6.523a6.828,6.828,0,0,1,3.664-3.753c2.59-.893,8.131,4.288,0,9.738,0,0,19.924-2.859,29.037,28.949s13.583,54.146,17.87,62.366,15.19,47.178-56.469,42C369.07,257.036,349.324,252.122,349.324,252.122Z" transform="translate(-283.116 -99.466)" fill="#0d5d6c"/>
        </g>
        <g id="Group_84" data-name="Group 84" transform="translate(0 141.916)">
          <g id="Group_62" data-name="Group 62">
            <path id="Path_51" data-name="Path 51" d="M357.07,208.426s-5.629-.358-5.629,8.934v18.228s-49.678-1.428-58.97,12.51-28.591,101.5-31.45,125.8-16.441,71.839,38.6,68.264c0,0-3.575,59.686-2.5,70.408H482.251s3.573-3.574,0-24.3-4.289-67.905-4.289-67.905,27.073-37.617,28.144-44.586-.268-20.639-2.68-30.29-8.845-35.382-12.866-49.321-16.173-55.4-33.327-59.507-41.279-1.609-41.279-1.609.714-22.694-5.182-25.465S357.07,208.426,357.07,208.426Z" transform="translate(-257.462 -207.962)" fill="#71716f"/>
          </g>
          <g id="Group_63" data-name="Group 63" transform="translate(143.317 5.156)">
            <path id="Path_52" data-name="Path 52" d="M369.347,246.525h-.065a1.073,1.073,0,0,1-1.006-1.135c.011-.177,1.064-17.742,1.239-23.556.161-5.346-2.2-8.123-2.222-8.15a1.072,1.072,0,0,1,1.606-1.421c.12.135,2.948,3.384,2.759,9.636-.177,5.846-1.23,23.443-1.241,23.621A1.071,1.071,0,0,1,369.347,246.525Z" transform="translate(-367.029 -211.903)" fill="#04414d"/>
          </g>
          <g id="Group_64" data-name="Group 64" transform="translate(132.578 7.755)">
            <path id="Path_53" data-name="Path 53" d="M362.215,244.841a1.072,1.072,0,0,1-1.073-1.071V225.72c0-1.787-1.649-8.165-2.284-10.471a1.072,1.072,0,1,1,2.067-.57c.242.878,2.362,8.642,2.362,11.041v18.05A1.072,1.072,0,0,1,362.215,244.841Z" transform="translate(-358.819 -213.891)" fill="#04414d"/>
          </g>
          <g id="Group_65" data-name="Group 65" transform="translate(118.995 7.266)">
            <path id="Path_54" data-name="Path 54" d="M350.4,244.956a1.071,1.071,0,0,1-1.071-1.039l-.9-29.292a1.072,1.072,0,0,1,1.039-1.105,1.049,1.049,0,0,1,1.1,1.039l.9,29.294a1.071,1.071,0,0,1-1.039,1.1Z" transform="translate(-348.435 -213.517)" fill="#04414d"/>
          </g>
          <g id="Group_66" data-name="Group 66" transform="translate(103.388 2.874)">
            <path id="Path_55" data-name="Path 55" d="M338.509,241.88a1.073,1.073,0,0,1-1.069-1.007c-.051-.828-1.232-20.324-.869-23.42a28.4,28.4,0,0,1,1.826-6.636,1.072,1.072,0,0,1,1.976.832A26.694,26.694,0,0,0,338.7,217.7c-.284,2.415.539,17.451.879,23.04a1.073,1.073,0,0,1-1,1.137Z" transform="translate(-336.503 -210.159)" fill="#04414d"/>
          </g>
          <g id="Group_67" data-name="Group 67" transform="translate(36.409 157.307)">
            <path id="Path_56" data-name="Path 56" d="M329.464,353.655s-13.9,6.2-31.97-3.244c0,0-12.884-9.8-12.169-19.093s36.239,5.093,40.029,7.326S329.464,353.655,329.464,353.655Z" transform="translate(-285.297 -328.223)" fill="#f48f8f"/>
          </g>
          <g id="Group_68" data-name="Group 68" transform="translate(95.767 37.634)">
            <path id="Path_57" data-name="Path 57" d="M360.831,251.382a41.15,41.15,0,0,1-15.778-3.07,38.005,38.005,0,0,1-14.136-9.83,1.072,1.072,0,0,1,1.661-1.355c.753.92,18.84,22.352,51.589,6.15a1.073,1.073,0,0,1,.951,1.923C375.861,249.779,367.708,251.382,360.831,251.382Z" transform="translate(-330.676 -236.733)" fill="#04414d"/>
          </g>
          <g id="Group_69" data-name="Group 69" transform="translate(129.541 202.519)">
            <path id="Path_58" data-name="Path 58" d="M419.085,386.657s-7.192,17.466-9.335,22.47A56.361,56.361,0,0,0,406,422.886a35.9,35.9,0,0,1-15.368,7.148s-5,3.932-8.935,4.825S369.185,432,369.185,432s-4.47-.357-6.255-1.43-2.5-6.612-2.5-6.612-3.931.538-3.931-1.787,1.966-9.829,1.966-9.829-2.144-2.145-1.073-6.612,4.647-20.371,5.362-24.124,23.989-16.195,31.2-18.819C393.957,362.788,413.563,375.387,419.085,386.657Z" transform="translate(-356.497 -362.788)" fill="#f48f8f"/>
          </g>
          <g id="Group_70" data-name="Group 70" transform="translate(157.472 77.485)">
            <path id="Path_59" data-name="Path 59" d="M417.761,429.907l-.42-1.277c-.1-.306-10.353-30.641-37.862-38.167l-1.628-.446,1.095-1.283c.262-.306,26.027-30.579,35.144-44.416.243-4.485,3.185-59.215,2.931-76.031a1.071,1.071,0,0,1,1.056-1.088h.016a1.071,1.071,0,0,1,1.073,1.054c.266,17.528-2.918,75.883-2.951,76.471l-.016.286-.157.241c-8,12.232-29.364,37.665-34.394,43.613,24.145,7.517,34.939,31.852,37.248,37.788,7.922-5.776,20.959-24.935,21.095-25.137a1.073,1.073,0,0,1,1.776,1.2c-.6.88-14.7,21.606-22.854,26.5Z" transform="translate(-377.85 -267.199)" fill="#04414d"/>
          </g>
          <g id="Group_71" data-name="Group 71" transform="translate(193.693 150.761)">
            <path id="Path_60" data-name="Path 60" d="M427.521,328.481a1.071,1.071,0,0,1-.472-.11c-13.349-6.547-19.6-.284-19.662-.22a1.072,1.072,0,1,1-1.546-1.486c.3-.309,7.415-7.453,22.153-.22a1.073,1.073,0,0,1-.472,2.035Z" transform="translate(-405.542 -323.219)" fill="#04414d"/>
          </g>
          <g id="Group_72" data-name="Group 72" transform="translate(36.884 39.42)">
            <path id="Path_61" data-name="Path 61" d="M305.5,264.368a1.069,1.069,0,0,1-.926-.531,121.475,121.475,0,0,0-18.577-23.889,1.072,1.072,0,1,1,1.477-1.555,123.816,123.816,0,0,1,18.951,24.361,1.072,1.072,0,0,1-.925,1.614Z" transform="translate(-285.661 -238.099)" fill="#04414d"/>
          </g>
          <g id="Group_73" data-name="Group 73" transform="translate(7.131 158.864)">
            <path id="Path_62" data-name="Path 62" d="M297.942,405.826a1.072,1.072,0,0,1-.572-1.979c.282-.178,28.012-17.795,44.515-46.588l-6.145-1.984c-3.385.585-35.929,5.5-43.518-19.278l-7.2-3.525a54.111,54.111,0,0,1-4.218,9.615c-4.3,7.666-9.974,13.118-16.409,15.768a1.072,1.072,0,1,1-.818-1.983c14.509-5.974,19.694-25,19.744-25.194l.335-1.264,10.356,5.073.132.455c7.15,24.683,41.118,18.245,41.462,18.179l.272-.055,9.159,2.956-.636,1.141c-16.691,29.963-45.6,48.318-45.893,48.5A1.06,1.06,0,0,1,297.942,405.826Z" transform="translate(-262.914 -329.414)" fill="#04414d"/>
          </g>
          <g id="Group_74" data-name="Group 74" transform="translate(21.688 140.772)">
            <path id="Path_63" data-name="Path 63" d="M338.024,331.369s-5.628-5.36-11.258-9.918-18.5-10.007-31.182-1.073a103.235,103.235,0,0,1-13.4,8.4c-1.609.715-10.9,4.825-7.326,10.186s13.4,2.145,15.189,1.431,8.578-1.431,11.615,12.15,3.037,27.7,8.935,27.7,6.612-6.255,6.255-12.866-1.609-15.725-1.609-15.725,20.729,8.935,28.234,10.008,9.651-.716,10.365-8.221l-3.216-.714s2.145-16.082,3.216-20.371,1.787-9.829,1.43-13.4-5.9-3.753-7.505-1.609C347.764,317.341,339.186,312.337,338.024,331.369Z" transform="translate(-274.043 -315.583)" fill="#f48f8f"/>
          </g>
          <g id="Group_75" data-name="Group 75" transform="translate(130.435 228.932)">
            <path id="Path_64" data-name="Path 64" d="M362.18,409a7.064,7.064,0,0,1-4.691-2.126,1.072,1.072,0,0,1,1.524-1.508c.286.286,2.845,2.717,5.082.678,1.375-1.254,3.638-6.518,5.635-11.163,2.731-6.352,4.5-10.306,6.047-11.64a1.072,1.072,0,1,1,1.4,1.622c-1.285,1.109-3.513,6.292-5.479,10.866-2.285,5.313-4.444,10.332-6.158,11.9A4.884,4.884,0,0,1,362.18,409Z" transform="translate(-357.18 -382.981)" fill="#ce6161"/>
          </g>
          <g id="Group_76" data-name="Group 76" transform="translate(132.4 241.529)">
            <path id="Path_65" data-name="Path 65" d="M363.813,416.537a12.871,12.871,0,0,1-4.472-.777,1.072,1.072,0,1,1,.827-1.978,9.753,9.753,0,0,0,10.514-2.34c5-5.263,15.244-18.289,15.347-18.42a1.072,1.072,0,0,1,1.686,1.325c-.423.538-10.409,13.235-15.478,18.572A11.3,11.3,0,0,1,363.813,416.537Z" transform="translate(-358.683 -392.612)" fill="#ce6161"/>
          </g>
          <g id="Group_77" data-name="Group 77" transform="translate(141.157 256.004)">
            <path id="Path_66" data-name="Path 66" d="M366.49,420.477h-.072a1.073,1.073,0,0,1-1.04-1.1,1.1,1.1,0,0,1,1.1-1.041A11.1,11.1,0,0,0,372.4,416.2c1.457-1.009,4.156-3.364,6.766-5.642,4.528-3.953,7.368-6.4,8.649-6.824a1.072,1.072,0,1,1,.679,2.034c-.936.313-4.972,3.834-7.917,6.405-2.777,2.422-5.4,4.711-6.955,5.789A13.235,13.235,0,0,1,366.49,420.477Z" transform="translate(-365.378 -403.678)" fill="#ce6161"/>
          </g>
          <g id="Group_78" data-name="Group 78" transform="translate(162.601 257.48)">
            <path id="Path_67" data-name="Path 67" d="M382.844,418.164a1.072,1.072,0,0,1-.666-1.912c.068-.055,6.8-5.431,7.787-10.574a1.072,1.072,0,1,1,2.106.4c-1.134,5.932-8.26,11.615-8.562,11.855A1.069,1.069,0,0,1,382.844,418.164Z" transform="translate(-381.771 -404.806)" fill="#ce6161"/>
          </g>
          <g id="Group_79" data-name="Group 79" transform="translate(70.749 164.69)">
            <path id="Path_68" data-name="Path 68" d="M342.288,348.878a1.092,1.092,0,0,1-.232-.025c-.891-.2-21.935-4.9-30.192-13.155a1.072,1.072,0,0,1,1.516-1.516c7.819,7.818,28.925,12.53,29.138,12.577a1.072,1.072,0,0,1-.23,2.119Z" transform="translate(-311.55 -333.868)" fill="#ce6161"/>
          </g>
          <g id="Group_80" data-name="Group 80" transform="translate(89.865 141.459)">
            <path id="Path_69" data-name="Path 69" d="M327.237,351.093a1.074,1.074,0,0,1-1-1.447c.058-.152,5.691-15.294,6.559-21.885.169-1.118.353-2.064.515-2.9.705-3.606.872-4.463-2.246-6.832a1.072,1.072,0,1,1,1.3-1.707c4.18,3.176,3.78,5.227,3.054,8.95-.158.807-.338,1.723-.5,2.786-.9,6.812-6.437,21.7-6.672,22.333A1.071,1.071,0,0,1,327.237,351.093Z" transform="translate(-326.164 -316.107)" fill="#ce6161"/>
          </g>
          <g id="Group_81" data-name="Group 81" transform="translate(77.85 155.486)">
            <path id="Path_70" data-name="Path 70" d="M318.052,343.124a1.072,1.072,0,0,1-.4-2.069c4.351-1.723,5.859-10.129,6.072-13.224a1.072,1.072,0,0,1,2.14.147c-.035.509-.925,12.5-7.423,15.071A1.074,1.074,0,0,1,318.052,343.124Z" transform="translate(-316.979 -326.832)" fill="#ce6161"/>
          </g>
          <g id="Group_82" data-name="Group 82" transform="translate(36.14 164.187)">
            <path id="Path_71" data-name="Path 71" d="M298.77,350.55a1.074,1.074,0,0,1-1.066-.964,28.3,28.3,0,0,0-3.329-9.887c-3.6-5.827-7.534-3.788-7.7-3.7a1.072,1.072,0,0,1-1.022-1.885c.058-.033,5.888-3.077,10.566,4.488a30.082,30.082,0,0,1,3.619,10.768,1.072,1.072,0,0,1-.959,1.172A1.049,1.049,0,0,1,298.77,350.55Z" transform="translate(-285.091 -333.484)" fill="#ce6161"/>
          </g>
          <g id="Group_83" data-name="Group 83" transform="translate(61.724 175.591)">
            <path id="Path_72" data-name="Path 72" d="M306.616,350.868a1.071,1.071,0,0,1-1.061-.926l-.895-6.522a1.074,1.074,0,0,1,1.51-1.121c.118.055,11.813,5.41,15.053,6.091a1.072,1.072,0,0,1-.441,2.1c-2.7-.566-10.258-3.88-13.733-5.437l.63,4.6a1.071,1.071,0,0,1-.917,1.207A1.1,1.1,0,0,1,306.616,350.868Z" transform="translate(-304.65 -342.202)" fill="#ce6161"/>
          </g>
        </g>
        <g id="Group_96" data-name="Group 96" transform="translate(64.721 40.688)">
          <g id="Group_85" data-name="Group 85" transform="translate(0 0)">
            <path id="Path_73" data-name="Path 73" d="M416.929,202.6s-12.51,40.744-51.466,37.885-41.1-32.881-43.245-45.747c0,0-10.9,5.362-14.654-5.182s1.965-16.262,10.007-16.441,19.836-3.753,31.63-17.155,28.414-34.311,44.676-21.265c0,0,7.325-2.323,7.683,7.683s-4.822,40.208,15.369,37.528c0,0,10.811-5.451,13.894,2.055S433.192,206.085,416.929,202.6Z" transform="translate(-306.385 -130.573)" fill="#f48f8f"/>
          </g>
          <g id="Group_86" data-name="Group 86" transform="translate(30.486 46.563)">
            <path id="Path_74" data-name="Path 74" d="M371.934,174.748a4.824,4.824,0,0,0,4.824,4.824h0a4.824,4.824,0,0,0,4.825-4.824V171a4.825,4.825,0,0,0-4.825-4.825h0A4.825,4.825,0,0,0,371.934,171Z" transform="translate(-371.934 -166.17)" fill="#074066"/>
          </g>
          <g id="Group_87" data-name="Group 87" transform="translate(81.147 51.12)">
            <path id="Path_75" data-name="Path 75" d="M333.613,179.3a4.557,4.557,0,0,0,4.557,4.557h0a4.557,4.557,0,0,0,4.557-4.557v-5.092a4.557,4.557,0,0,0-4.557-4.557h0a4.557,4.557,0,0,0-4.557,4.557Z" transform="translate(-333.613 -169.654)" fill="#074066"/>
          </g>
          <g id="Group_88" data-name="Group 88" transform="translate(20.835 32.42)">
            <path id="Path_76" data-name="Path 76" d="M391.194,165.3a2.143,2.143,0,0,0,1.481-3.694c-.126-.119-12.63-11.776-26.573-2.939a2.145,2.145,0,1,0,2.3,3.623c11.084-7.027,20.91,2.037,21.324,2.426A2.144,2.144,0,0,0,391.194,165.3Z" transform="translate(-365.104 -155.358)" fill="#074066"/>
          </g>
          <g id="Group_89" data-name="Group 89" transform="translate(73.195 38.683)">
            <path id="Path_77" data-name="Path 77" d="M351.038,167.758a2.144,2.144,0,0,0,1.367-3.8c-9.073-7.5-24.865-1.678-25.532-1.426a2.144,2.144,0,0,0,1.508,4.014c.141-.052,14.137-5.193,21.291.718A2.141,2.141,0,0,0,351.038,167.758Z" transform="translate(-325.484 -160.146)" fill="#074066"/>
          </g>
          <g id="Group_90" data-name="Group 90" transform="translate(112.866 55.89)">
            <path id="Path_78" data-name="Path 78" d="M309.343,178.448a1.073,1.073,0,0,0,1-.689c.064-.15,1.252-2.71,7.319-2.263a1.072,1.072,0,0,0,.16-2.137c-7.873-.587-9.426,3.481-9.489,3.655a1.071,1.071,0,0,0,1.008,1.435Z" transform="translate(-308.271 -173.301)" fill="#074066"/>
          </g>
          <g id="Group_91" data-name="Group 91" transform="translate(117.855 56.015)">
            <path id="Path_79" data-name="Path 79" d="M311.468,180.385a1.07,1.07,0,0,0,.925-.53,6.164,6.164,0,0,0,0-5.925A1.072,1.072,0,0,0,310.539,175a3.989,3.989,0,0,1,.005,3.767,1.072,1.072,0,0,0,.923,1.614Z" transform="translate(-310.396 -173.396)" fill="#074066"/>
          </g>
          <g id="Group_92" data-name="Group 92" transform="translate(61.58 68.633)">
            <path id="Path_80" data-name="Path 80" d="M350.972,195.284c1.83,0,5.512-1.52,6.149-5.179a6.555,6.555,0,0,0-.937-5.3,4.7,4.7,0,0,0-3.165-1.761,1.072,1.072,0,0,0-.174,2.137,2.586,2.586,0,0,1,1.666.965,4.6,4.6,0,0,1,.5,3.593c-.449,2.583-3.277,3.4-4.035,3.4a1.073,1.073,0,1,0,0,2.145Z" transform="translate(-349.9 -183.043)" fill="#074066"/>
          </g>
          <g id="Group_93" data-name="Group 93" transform="translate(51.125 82.226)">
            <path id="Path_81" data-name="Path 81" d="M366.043,202.8a1.071,1.071,0,0,0,.714-1.871,92.594,92.594,0,0,0-8.267-6.684,6.232,6.232,0,0,0-6.055-.012,1.072,1.072,0,0,0,1.07,1.857,4.061,4.061,0,0,1,3.867-.014,93.5,93.5,0,0,1,7.957,6.451A1.064,1.064,0,0,0,366.043,202.8Z" transform="translate(-351.9 -193.435)" fill="#074066"/>
          </g>
          <g id="Group_94" data-name="Group 94" transform="translate(6.54 50.048)">
            <path id="Path_82" data-name="Path 82" d="M399.366,175.089a1.073,1.073,0,0,0,.816-1.767c-3.287-3.868-10.266-4.46-10.561-4.484a1.072,1.072,0,0,0-.169,2.137c.063.005,6.387.549,9.1,3.736A1.069,1.069,0,0,0,399.366,175.089Z" transform="translate(-388.465 -168.835)" fill="#074066"/>
          </g>
          <g id="Group_95" data-name="Group 95" transform="translate(9.93 51.119)">
            <path id="Path_83" data-name="Path 83" d="M393.483,176.355a1.071,1.071,0,0,0,1.039-1.343,3.087,3.087,0,0,1,.921-3.411,1.077,1.077,0,0,0,.25-1.491,1.061,1.061,0,0,0-1.475-.267,5.213,5.213,0,0,0-1.771,5.711A1.073,1.073,0,0,0,393.483,176.355Z" transform="translate(-392.227 -169.653)" fill="#074066"/>
          </g>
        </g>
      </g>
      <g id="Group_103" data-name="Group 103" transform="translate(0.142 162.439)">
        <g id="Group_101" data-name="Group 101" transform="translate(4.414 16.633)">
          <path id="Path_85" data-name="Path 85" d="M275.754,201.479l-14.1,21.176-17.8-10.472L271.2,194.256Z" transform="translate(-243.856 -194.256)" fill="#58ddf5"/>
        </g>
        <g id="Group_102" data-name="Group 102">
          <path id="Path_86" data-name="Path 86" d="M273.845,189.626v-5.049l-33.239-3.037s-1.608,15.01,6.7,17.959Z" transform="translate(-240.481 -181.54)" fill="#58ddf5"/>
        </g>
      </g>
      <g id="Group_111" data-name="Group 111">
        <g id="Group_104" data-name="Group 104" transform="translate(28.769 29.609)">
          <path id="Path_87" data-name="Path 87" d="M280.543,115.629a2.079,2.079,0,0,1-.71-.126,3,3,0,0,1-1.72-2.542,19.885,19.885,0,0,1-.5-2.7c-.7-.238-1.4-.513-2.1-.825A8.666,8.666,0,0,1,271.6,106.5c-4.524.2-7.9.051-8.213.035a1.072,1.072,0,1,1,.1-2.143c.074,0,3.193.143,7.471-.027a3.9,3.9,0,0,1,.025-.443,5.186,5.186,0,0,1,.859-2.25,8.293,8.293,0,0,1-4.094-3.05,6.9,6.9,0,0,1-.114-7.9,4.919,4.919,0,0,1,5.809-1.46q.873.318,1.711.644a18.739,18.739,0,0,1,.273-7.664c.674-2.024,1.816-2.288,2.446-2.254.723.031,2.926.127,5.114,9.274q.359,1.5.649,2.905a35.925,35.925,0,0,1,6.373-6.207c1.648-1.241,5.689-4.007,7.622-2.865a1.789,1.789,0,0,1,.819,1.92,19.377,19.377,0,0,0-.141,2.194c-.017.658-.035,1.329-.1,2.01,1.448-.11,2.235.165,2.616.832a5.128,5.128,0,0,1,.459,4.166c-.845,2.715-3.88,5.4-9.024,8a7.7,7.7,0,0,1,.538,1.85,5.607,5.607,0,0,1-2.252,5.5,7.568,7.568,0,0,1-1.143.718c.233.17.47.336.712.5a1.073,1.073,0,0,1-1.211,1.771q-1-.689-1.925-1.426a13.6,13.6,0,0,1-2.763.286,7.5,7.5,0,0,1-1.927,3.473A2.644,2.644,0,0,1,280.543,115.629Zm-.674-4.718q.128.777.334,1.568l.024.118c.09.637.3.867.348.895a1.539,1.539,0,0,0,.6-.551,6.2,6.2,0,0,0,.839-1.649A21.008,21.008,0,0,1,279.87,110.91Zm4.854-1.762c-.005.037-.012.075-.018.111l.127-.007C284.8,109.218,284.761,109.183,284.724,109.148Zm-5.08-.5a18.318,18.318,0,0,0,2.914.549c.113-.625.2-1.313.267-2.068-.458-.531-.893-1.074-1.305-1.621q-.871.145-1.744.268A18.088,18.088,0,0,0,279.644,108.648Zm5.371-2.286a28.73,28.73,0,0,0,2.47,2.405,6.081,6.081,0,0,0,1.759-.9,3.5,3.5,0,0,0,1.434-3.469,5.243,5.243,0,0,0-.375-1.258,34.423,34.423,0,0,1-5.237,1.657Q285.056,105.611,285.014,106.361Zm-10.636-.021a10,10,0,0,0,2.005,1.139q.559.247,1.1.458,0-.952.1-1.889C276.492,106.169,275.419,106.264,274.379,106.34Zm-.311-4.126a5.1,5.1,0,0,0-.785,1.3,2.132,2.132,0,0,0-.175.746c1.532-.093,3.156-.228,4.81-.42q.169-.83.4-1.642A15.861,15.861,0,0,1,274.067,102.215Zm7.4-.646q.475.795,1.011,1.581l.425-.082q-.031-.9-.1-1.882l-.544.162Q281.853,101.465,281.466,101.568Zm3.427-1.052q.09,1.081.133,2.078a31.83,31.83,0,0,0,4.177-1.324,14.6,14.6,0,0,0-1.559-1.755C286.8,99.851,285.882,100.185,284.893,100.517Zm4.876-1.906a14.9,14.9,0,0,1,1.436,1.742c5.78-2.9,7.564-5.266,8.031-6.766a2.936,2.936,0,0,0-.152-2.234,4.844,4.844,0,0,0-1.325.051C296.966,93.77,294.966,96.212,289.769,98.611Zm-11.99.515c-.553.354-1.074.712-1.55,1.073a16.306,16.306,0,0,0,1.975-.154C278.058,99.738,277.916,99.432,277.78,99.126Zm-6.409-8.1a2.451,2.451,0,0,0-2.03,1,4.762,4.762,0,0,0,.179,5.376,6.293,6.293,0,0,0,3.818,2.488,22.384,22.384,0,0,1,3.627-2.774,33.913,33.913,0,0,1-1.376-4.735q-1.352-.549-2.865-1.1A4.077,4.077,0,0,0,271.37,91.031Zm11.074,6.827q-.375.683-.719,1.41.44-.131.863-.26C282.543,98.631,282.5,98.249,282.444,97.858Zm2.043-.871c.065.459.125.908.179,1.349.391-.133.771-.267,1.135-.4C285.4,97.625,284.961,97.308,284.487,96.986Zm-4.842,1.032c.043.1.088.2.132.3.08-.169.161-.337.245-.5C279.895,97.88,279.769,97.949,279.645,98.018Zm5.961-2.841a29.183,29.183,0,0,1,2.481,1.86c4.071-1.732,6.069-3.417,7.062-5.1A73.134,73.134,0,0,0,285.606,95.177Zm-7.559-1.733c.224.836.489,1.694.8,2.564.691-.383,1.407-.757,2.139-1.118Q279.645,94.175,278.046,93.444Zm-.581-2.591q2.2.944,4.114,1.946-.3-1.464-.672-3.032c-1.452-6.069-2.752-7.354-3.078-7.588-.233.279-.752,1.349-.791,3.918A25.345,25.345,0,0,0,277.466,90.853ZM296.3,84.971c-1.262.158-4.846,2.068-8.609,5.89-.474.483-1.039,1.087-1.644,1.8A65.689,65.689,0,0,1,295.76,89.6l.234-.048a17.067,17.067,0,0,0,.175-2.4C296.189,86.446,296.209,85.714,296.3,84.971Z" transform="translate(-262.367 -79.991)" fill="#58ddf5"/>
        </g>
        <g id="Group_105" data-name="Group 105" transform="translate(86.49 24.304)">
          <path id="Path_88" data-name="Path 88" d="M308.1,83.922a1.609,1.609,0,0,1-.6-3.1l11.795-4.769a1.608,1.608,0,1,1,1.206,2.981L308.707,83.8A1.616,1.616,0,0,1,308.1,83.922Z" transform="translate(-306.495 -75.935)" fill="#f89f1b"/>
        </g>
        <g id="Group_106" data-name="Group 106" transform="translate(62.544)">
          <path id="Path_89" data-name="Path 89" d="M289.8,71.652a1.61,1.61,0,0,1-1.389-2.417l6.433-11.079a1.609,1.609,0,1,1,2.782,1.615L291.188,70.85A1.609,1.609,0,0,1,289.8,71.652Z" transform="translate(-288.188 -57.355)" fill="#f89f1b"/>
        </g>
        <g id="Group_107" data-name="Group 107" transform="translate(21.8 11.08)">
          <path id="Path_90" data-name="Path 90" d="M261.866,77.262a1.609,1.609,0,0,1-1.5-1.023l-3.218-8.22a1.609,1.609,0,0,1,3-1.172l3.216,8.22a1.61,1.61,0,0,1-1.5,2.195Z" transform="translate(-257.039 -65.825)" fill="#f89f1b"/>
        </g>
        <g id="Group_108" data-name="Group 108" transform="translate(0 51.108)">
          <path id="Path_91" data-name="Path 91" d="M241.979,102.011a1.609,1.609,0,0,1-.356-3.177l10.364-2.366A1.609,1.609,0,0,1,252.7,99.6l-10.365,2.366A1.614,1.614,0,0,1,241.979,102.011Z" transform="translate(-240.373 -96.427)" fill="#f89f1b"/>
        </g>
        <g id="Group_109" data-name="Group 109" transform="translate(31.896 78.986)">
          <path id="Path_92" data-name="Path 92" d="M266.367,129.535a1.627,1.627,0,0,1-.523-.088,1.609,1.609,0,0,1-1-2.044l2.948-8.578a1.609,1.609,0,0,1,3.042,1.046l-2.948,8.578A1.611,1.611,0,0,1,266.367,129.535Z" transform="translate(-264.758 -117.739)" fill="#f89f1b"/>
        </g>
        <g id="Group_110" data-name="Group 110" transform="translate(68.978 69.693)">
          <path id="Path_93" data-name="Path 93" d="M300.435,120.643a1.61,1.61,0,0,1-1.232-.572l-5.717-6.791a1.608,1.608,0,1,1,2.46-2.072l5.717,6.79a1.608,1.608,0,0,1-1.228,2.645Z" transform="translate(-293.107 -110.635)" fill="#f89f1b"/>
        </g>
      </g>
    </g>
    <g id="Group_55" data-name="Group 55" transform="translate(268.657 264.042)">
      <g id="Group_41" data-name="Group 41" transform="translate(12.868 9.382)">
        <path id="Path_35" data-name="Path 35" d="M555.023,358.257s-2.055-42.62,11.883-50.662,52.805,12.866,52.805,12.866-29.127-18.851-30.736-22.6-3.753-13.58,11.438-13.224,19.3-.009,19.3-.009-37.885-7.676-42.531-10.892-6.075-10.9,12.153-18.228c0,0-20.731,3.4-23.589-6.611s2.145-42.353,2.145-42.353-19.659,37.885-41.46,44.5-41.636-7.326-50.214-16.262c0,0,25.375,25.375,21.623,39.135s-28.77,10.008-28.77,10.008,24.84,5.36,25.732,15.011-15.368,12.152-18.942,13.045c0,0,33.951-8.935,38.42,6.969s-.178,26.09-.178,26.09,13.58-20.909,18.585-20.909S550.2,344.5,555.023,358.257Z" transform="translate(-469.069 -206.54)" fill="#f89f1b"/>
      </g>
      <g id="Group_44" data-name="Group 44" transform="translate(57.096 57.213)">
        <g id="Group_42" data-name="Group 42" transform="translate(16.53 49.203)">
          <path id="Path_36" data-name="Path 36" d="M516.234,290.373h14.475l.715-9.65-15.905,1.787Z" transform="translate(-515.518 -280.723)" fill="#fff"/>
        </g>
        <g id="Group_43" data-name="Group 43">
          <path id="Path_37" data-name="Path 37" d="M518.519,285.162s-5.54-9.738,0-14.3,10.632-2.279,11.436-6.566-5.941-8.042-10.544-4.825S512.8,264.3,512.8,264.3s-8.712-1.078-9.918-6.034c0,0,2.145-13.133,22.114-15.008s24.8,14.34,24.394,20.1-1.341,8.846-10.722,12.063c-.939.4-4.781,1.43-4.065,5.539S526.559,287.039,518.519,285.162Z" transform="translate(-502.881 -243.107)" fill="#fff"/>
        </g>
      </g>
      <g id="Group_54" data-name="Group 54" transform="translate(0)">
        <g id="Group_45" data-name="Group 45" transform="translate(169.14 64.599)">
          <path id="Path_38" data-name="Path 38" d="M603.819,256.8a2.142,2.142,0,0,1-.59-.084l-13.135-3.753a2.145,2.145,0,0,1,1.18-4.124l13.134,3.753a2.146,2.146,0,0,1-.589,4.208Z" transform="translate(-588.539 -248.754)" fill="#58ddf5"/>
        </g>
        <g id="Group_46" data-name="Group 46" transform="translate(161.366 46.64)">
          <path id="Path_39" data-name="Path 39" d="M584.741,248.964a2.144,2.144,0,0,1-.767-4.147l25.2-9.651a2.144,2.144,0,1,1,1.533,4.005l-25.2,9.651A2.13,2.13,0,0,1,584.741,248.964Z" transform="translate(-582.596 -235.024)" fill="#58ddf5"/>
        </g>
        <g id="Group_47" data-name="Group 47" transform="translate(160.026 40.476)">
          <path id="Path_40" data-name="Path 40" d="M583.717,242.105a2.145,2.145,0,0,1-1.364-3.8l9.114-7.506a2.145,2.145,0,0,1,2.726,3.312l-9.113,7.506A2.139,2.139,0,0,1,583.717,242.105Z" transform="translate(-581.572 -230.312)" fill="#58ddf5"/>
        </g>
        <g id="Group_48" data-name="Group 48" transform="translate(66.343 9.963)">
          <path id="Path_41" data-name="Path 41" d="M512.095,221.995a2.145,2.145,0,0,1-1.549-3.629l10.275-10.722a2.144,2.144,0,0,1,3.1,2.967l-10.275,10.722A2.143,2.143,0,0,1,512.095,221.995Z" transform="translate(-509.951 -206.984)" fill="#58ddf5"/>
        </g>
        <g id="Group_49" data-name="Group 49" transform="translate(54.951)">
          <path id="Path_42" data-name="Path 42" d="M506.064,226.441a2.143,2.143,0,0,1-2.127-1.893l-2.68-22.785a2.144,2.144,0,1,1,4.259-.5l2.68,22.783a2.143,2.143,0,0,1-1.88,2.381A2.04,2.04,0,0,1,506.064,226.441Z" transform="translate(-501.242 -199.368)" fill="#58ddf5"/>
        </g>
        <g id="Group_50" data-name="Group 50" transform="translate(40.744 12.598)">
          <path id="Path_43" data-name="Path 43" d="M498.6,222.58a2.143,2.143,0,0,1-1.8-.971l-6.076-9.292a2.145,2.145,0,0,1,3.589-2.348l6.076,9.292a2.144,2.144,0,0,1-1.792,3.319Z" transform="translate(-490.38 -208.999)" fill="#58ddf5"/>
        </g>
        <g id="Group_51" data-name="Group 51" transform="translate(0 122.497)">
          <path id="Path_44" data-name="Path 44" d="M461.377,302.67a2.145,2.145,0,0,1-.811-4.131l13.134-5.36a2.144,2.144,0,0,1,1.621,3.97l-13.134,5.362A2.136,2.136,0,0,1,461.377,302.67Z" transform="translate(-459.231 -293.017)" fill="#58ddf5"/>
        </g>
        <g id="Group_52" data-name="Group 52" transform="translate(3.754 127.861)">
          <path id="Path_45" data-name="Path 45" d="M464.246,315.612a2.144,2.144,0,0,1-1.3-3.847l18.586-14.207a2.144,2.144,0,1,1,2.606,3.406l-18.586,14.207A2.13,2.13,0,0,1,464.246,315.612Z" transform="translate(-462.101 -297.118)" fill="#58ddf5"/>
        </g>
        <g id="Group_53" data-name="Group 53" transform="translate(27.61 138.583)">
          <path id="Path_46" data-name="Path 46" d="M482.483,319.253a2.145,2.145,0,0,1-2.144-2.145v-9.649a2.145,2.145,0,0,1,4.289,0v9.649A2.145,2.145,0,0,1,482.483,319.253Z" transform="translate(-480.339 -305.315)" fill="#58ddf5"/>
        </g>
      </g>
    </g>
  </g>
</svg>
