<svg xmlns="http://www.w3.org/2000/svg" xmlns:xlink="http://www.w3.org/1999/xlink" width="483.951" height="335.088" viewBox="0 0 483.951 335.088">
  <defs>
    <linearGradient id="linear-gradient" x1="0.515" y1="4.474" x2="0.531" y2="8.118" gradientUnits="objectBoundingBox">
      <stop offset="0" stop-color="#09005d"/>
      <stop offset="1" stop-color="#1a0f91"/>
    </linearGradient>
    <linearGradient id="linear-gradient-2" x1="0.604" y1="1.164" x2="0.341" y2="-0.58" gradientUnits="objectBoundingBox">
      <stop offset="0" stop-color="#ff928e"/>
      <stop offset="1" stop-color="#feb3b1"/>
    </linearGradient>
    <linearGradient id="linear-gradient-3" x1="0.523" y1="3.704" x2="0.55" y2="7.135" xlink:href="#linear-gradient"/>
    <linearGradient id="linear-gradient-4" x1="0.661" y1="1.13" x2="0.376" y2="-0.791" xlink:href="#linear-gradient-2"/>
    <linearGradient id="linear-gradient-5" x1="0.532" y1="0.006" x2="0.327" y2="3.202" xlink:href="#linear-gradient"/>
    <linearGradient id="linear-gradient-6" x1="0.554" y1="-2.158" x2="0.395" y2="6.275" xlink:href="#linear-gradient"/>
    <linearGradient id="linear-gradient-7" y1="0.5" x2="1" y2="0.5" gradientUnits="objectBoundingBox">
      <stop offset="0" stop-color="#fe7062"/>
      <stop offset="1" stop-color="#ff928e"/>
    </linearGradient>
    <linearGradient id="linear-gradient-8" x1="0.509" y1="4.298" x2="0.505" y2="2.583" gradientUnits="objectBoundingBox">
      <stop offset="0" stop-color="#a22b25"/>
      <stop offset="1" stop-color="#c0423c"/>
    </linearGradient>
    <linearGradient id="linear-gradient-9" x1="-2.013" y1="4.449" x2="-1.876" y2="1.688" gradientUnits="objectBoundingBox">
      <stop offset="0" stop-color="#e1473d"/>
      <stop offset="1" stop-color="#e9605a"/>
    </linearGradient>
    <linearGradient id="linear-gradient-10" x1="1.426" y1="-0.089" x2="-3.419" y2="2.995" gradientUnits="objectBoundingBox">
      <stop offset="0" stop-color="#4042e2"/>
      <stop offset="1" stop-color="#4f52ff"/>
    </linearGradient>
  </defs>
  <g id="Illustration" transform="translate(-173.593 -95.153)">
    <g id="Group_47" data-name="Group 47" transform="translate(164.299 95.153)">
      <path id="Path_1" data-name="Path 1" d="M303.216,133.955c-27.683,17.5-47.25,3.987-63.982,22.52-52.2,57.819,13.948,79.734-16.778,88.6-33.368,9.631-12.61,52.129,6.166,64.412s32.739,19.672,6.063,32.228-31.338,26.44-20.152,49.033S246.91,420.463,334.978,421.8s258.623-1.5,305.15-14.357S652.737,361.512,672.3,336.8s23.409-39.217-6.549-63.187-12.892-48.774-3.9-66.268,15.914-49.222-20.189-58.272-78.08,27.06-96.237,8.716-10.164-42.674-49.818-36.549-52.987,53.534-87.567,50.926S361.9,96.859,303.216,133.955Z" transform="translate(-195.489 -114.51)" fill="#d2fdfd"/>
      <rect id="Rectangle_2" data-name="Rectangle 2" width="40.017" height="145.324" rx="17.609" transform="translate(109.992 180.867)" fill="#55e2fa"/>
      <path id="Path_7" data-name="Path 7" d="M1124.347,807.346h-31.854c-2.232,0-4.081,2.148-4.081,4.649V965.238c0,2.5,1.849,4.807,4.081,4.807h31.854a5.045,5.045,0,0,0,4.608-4.807V812A4.894,4.894,0,0,0,1124.347,807.346Z" transform="translate(-876.272 -643.855)" fill="#55e2fa"/>
      <rect id="Rectangle_3" data-name="Rectangle 3" width="40.017" height="190.606" rx="17.609" transform="translate(160.013 135.585)" fill="#55e2fa"/>
      <rect id="Rectangle_4" data-name="Rectangle 4" width="40.017" height="255.369" rx="17.609" transform="translate(333.243 70.821)" fill="#55e2fa"/>
      <rect id="Rectangle_5" data-name="Rectangle 5" width="40.017" height="220.092" rx="17.609" transform="translate(273.744 106.099)" fill="#55e2fa"/>
      <g id="Group_5" data-name="Group 5" transform="translate(54.874 54.345)">
        <path id="Path_10" data-name="Path 10" d="M1480.913,576.039l73.637-141.074h-15.087a3.3,3.3,0,0,1-2.547-5.385l78.483-95.655a5.535,5.535,0,0,1,9.8,3.837l-5.517,93.538a9.347,9.347,0,0,1-10.393,8.736l-10.519-1.2-73.063,158.229a11.633,11.633,0,0,1-10.562,6.756h-25.323Z" transform="translate(-1233.544 -331.887)" fill="#00a6c6"/>
        <path id="Path_11" data-name="Path 11" d="M1215.7,897.552l51.987,115.482a19.065,19.065,0,0,0,17.384,11.239h26.8a9.785,9.785,0,0,0,8.557-5.038l.953-1.718h0a7.663,7.663,0,0,1-6.825-4.179L1245.291,877.62Z" transform="translate(-1029.214 -752.341)" fill="#0087a0"/>
        <path id="Path_12" data-name="Path 12" d="M905.419,846.308h0a11.369,11.369,0,0,0-16.51,2.623L812.474,963.769a33.019,33.019,0,0,1-27.487,14.724H774.232l-8.753-25.215s71.058-108.954,89.373-125.436c0,0,18.239-16.438,36.222-4.01a30.011,30.011,0,0,1,10.562,13.308Z" transform="translate(-682.346 -707.321)" fill="#099db9"/>
        <path id="Path_13" data-name="Path 13" d="M403.338,1045.88s12.795-15.992,37.588-18.48c0,0,11.776,4.012,35.235,46.049s39.032,61.207,57.3,50.736l-1.513,2.512a27.557,27.557,0,0,1-23.606,13.34H498.241a34.574,34.574,0,0,1-28.07-14.382C451.912,1100.272,414.554,1049.821,403.338,1045.88Z" transform="translate(-403.338 -867.738)" fill="#099db9"/>
        <path id="Path_14" data-name="Path 14" d="M2068.238,465.951a.753.753,0,0,1-.09-.005.789.789,0,0,1-.7-.873l.518-4.568a.79.79,0,0,1,1.57.178l-.518,4.568A.789.789,0,0,1,2068.238,465.951Z" transform="translate(-1685.433 -430.438)" fill="#fff"/>
        <path id="Path_15" data-name="Path 15" d="M1782.846,447.2a.79.79,0,0,1-.625-1.272l64.807-84.208a2.779,2.779,0,0,1,4.963,2.008l-1.144,10.094a.79.79,0,1,1-1.569-.178l1.143-10.094a1.2,1.2,0,0,0-2.142-.866l-64.808,84.208A.787.787,0,0,1,1782.846,447.2Z" transform="translate(-1465.557 -354.03)" fill="#fff"/>
        <path id="Path_16" data-name="Path 16" d="M1142.394,942.583a.79.79,0,0,1-.654-1.232l33.517-49.681a5.968,5.968,0,0,1,10.342.785.79.79,0,0,1-1.428.676,4.388,4.388,0,0,0-7.6-.577l-33.517,49.681A.789.789,0,0,1,1142.394,942.583Z" transform="translate(-972.128 -761.138)" fill="#c7d9ff"/>
        <path id="Path_17" data-name="Path 17" d="M1104.453,1162.532a.79.79,0,0,1-.654-1.231l2.149-3.186a.79.79,0,0,1,1.31.884l-2.149,3.185A.79.79,0,0,1,1104.453,1162.532Z" transform="translate(-942.897 -968.177)" fill="#c7d9ff"/>
      </g>
      <g id="Group_19" data-name="Group 19" transform="translate(56.424 194.158)">
        <g id="Group_11" data-name="Group 11">
          <g id="Group_8" data-name="Group 8" transform="translate(0 62.209)">
            <path id="Path_22" data-name="Path 22" d="M566.415,1496.781A34.528,34.528,0,0,0,566,1500.4a1.559,1.559,0,0,0,1.4,1.645c2.906.282,9.522.8,13.747.193a.709.709,0,0,0,.389-1.22,21.943,21.943,0,0,0-12.872-5.47Z" transform="translate(-530.207 -1430.44)" fill="url(#linear-gradient)"/>
            <path id="Path_23" data-name="Path 23" d="M561.526,1479.442l1.469,3.6a1.2,1.2,0,0,0,1.232.745,6.525,6.525,0,0,0,1.2-.233,1.577,1.577,0,0,0,1.049-1.961l-1.109-3.71Z" transform="translate(-526.763 -1416.832)" fill="url(#linear-gradient-2)"/>
            <path id="Path_24" data-name="Path 24" d="M436.4,1513.412a15.421,15.421,0,0,1,4.089,5.62,1.343,1.343,0,0,1-1.275,1.784h-6.056a1.428,1.428,0,0,1-1.411-1.67C432.129,1516.965,433.241,1513.421,436.4,1513.412Z" transform="translate(-426.756 -1444.203)" fill="url(#linear-gradient-3)"/>
            <path id="Path_25" data-name="Path 25" d="M436.207,1497.948s.594,2.631,1.051,4.369a.556.556,0,0,0,.727.379,5.07,5.07,0,0,1,2.2-.4.429.429,0,0,0,.473-.427l.057-4.37Z" transform="translate(-430.212 -1431.943)" fill="url(#linear-gradient-4)"/>
            <path id="Path_26" data-name="Path 26" d="M431.737,1218.733l17.9,54.6s-3.433,2.248-5.068,2.155l-21.259-43.882s-3.72,27.039-1.918,46.45l-6.089.464s-9.9-49.607-2.4-66.6Z" transform="translate(-410.092 -1211.926)" fill="#71716f"/>
            <path id="Path_27" data-name="Path 27" d="M467.58,1275.946h-.022a.173.173,0,0,1-.15-.193l.695-5.513a.173.173,0,0,1,.344.043l-.695,5.513A.173.173,0,0,1,467.58,1275.946Z" transform="translate(-454.249 -1256.736)" fill="#52524a"/>
          </g>
          <path id="Path_28" data-name="Path 28" d="M437.659,1032.277s-14.5,1.288-12.45,11.62a140.856,140.856,0,0,0-11.763,32.854,1.045,1.045,0,0,0,.848,1.242l24.149,4.135a1.3,1.3,0,0,0,1.478-.956l5.77-22.3,2.248,10.368,7.144-1.862-6.014-30.466S448.23,1032.468,437.659,1032.277Z" transform="translate(-412.659 -1011.308)" fill="#739af0"/>
          <path id="Path_29" data-name="Path 29" d="M553.915,1111.559a.16.16,0,0,1-.038,0,.18.18,0,0,1-.137-.214l2.013-9.243a.18.18,0,0,1,.351.077l-2.013,9.243A.18.18,0,0,1,553.915,1111.559Z" transform="translate(-520.76 -1064.992)" fill="#4773d5"/>
          <path id="Path_30" data-name="Path 30" d="M504.508,1210.221a3.447,3.447,0,0,0-2.494-.324l-1.68.418a.609.609,0,0,1-.752-.523l-1.739-15.476a14.23,14.23,0,0,1-6.345.833l4,18.245h14Z" transform="translate(-472.811 -1136.151)" fill="#f48f8f"/>
          <path id="Path_31" data-name="Path 31" d="M597.4,1082.055l-.423-1.407a2.783,2.783,0,0,0-1.626-1.78l-7.655-3.079s-.116-.982,1.617-1.649a2.3,2.3,0,0,0,1.328-2.608s-2.368,1.08-5.834,2.793a8.112,8.112,0,0,0-3.684,4.011l-17.347,21.147,2.037,1.4a5.438,5.438,0,0,0,7.884-1.935l9.4-18.02A35.025,35.025,0,0,0,597.4,1082.055Z" transform="translate(-528.498 -1041.553)" fill="#f48f8f"/>
          <g id="Group_10" data-name="Group 10" transform="translate(25.238)">
            <path id="Path_32" data-name="Path 32" d="M524.492,988.81l-4.46,12.483s3.95,3.088,6.832,2.044l2.247-7.155S527.394,987.436,524.492,988.81Z" transform="translate(-520.032 -977.707)" fill="#f48f8f"/>
            <g id="Group_9" data-name="Group 9" transform="translate(3.168)">
              <path id="Path_33" data-name="Path 33" d="M560.265,961.439c0,.192-4.3,12.162-4.3,12.162l-6.783-2.6,2.386-11.95S560.265,958.219,560.265,961.439Z" transform="translate(-545.662 -954.819)" fill="#f48f8f"/>
              <path id="Path_34" data-name="Path 34" d="M542.94,948.081l-1.749,6.192a.879.879,0,0,0-.034.242c0,.505.124,2.243,1.895,2.007,1.606-.215,3.076-.386,4.009.053a.9.9,0,0,1,.463,1.117,38.8,38.8,0,0,1-2.443,5.514.9.9,0,0,1-1.153.369,28.952,28.952,0,0,1-5.815-3.421.9.9,0,0,1-.318-.863c.3-1.584,1.183-6.4,1.222-7.783.037-1.3-1.417-2.285-2.058-2.657a.883.883,0,0,1-.416-.558,2.33,2.33,0,0,1,2.036-3.138.9.9,0,0,0,.73-1.07,2.334,2.334,0,0,1,1.756-3.006,3.292,3.292,0,0,1,3.753,1.5.9.9,0,0,0,1.115.3.711.711,0,0,1,.8.143.885.885,0,0,0,1.3-.2,2.684,2.684,0,0,1,3.308-1.093c3.064.991,2.918,4.524,1.794,6.445s-4.384.657-5.928-.616c-1.174-.968-2.961-.389-3.75-.056A.891.891,0,0,0,542.94,948.081Z" transform="translate(-535.839 -940.935)" fill="#0d5d6c"/>
              <path id="Path_35" data-name="Path 35" d="M536.4,979.64s1.814-3.431.614-4.508-3.231-.9-3.176,1.782C533.9,980.25,536.4,979.64,536.4,979.64Z" transform="translate(-533.833 -966.806)" fill="#f48f8f"/>
            </g>
          </g>
          <path id="Path_36" data-name="Path 36" d="M473.514,1115.276a17.357,17.357,0,0,1-1.772-.083l-.129-.014-5.28-24.618a.18.18,0,0,1,.351-.075l5.225,24.363c.786.069,4.982.348,7.2-1.222l-4.574-21.389.955-1.8a.18.18,0,0,1,.318.168l-.894,1.684,4.6,21.487-.092.069C477.814,1115.049,475.236,1115.276,473.514,1115.276Z" transform="translate(-453.419 -1056.044)" fill="#4773d5"/>
        </g>
        <g id="Group_12" data-name="Group 12" transform="translate(25.888 83.324)">
          <path id="Path_37" data-name="Path 37" d="M523.9,1361.515a.964.964,0,0,1-.41-.093,1.176,1.176,0,0,1-.544-1.491l21.808-55.335a1.009,1.009,0,0,1,1.366-.594,1.176,1.176,0,0,1,.544,1.491l-21.808,55.335A1.041,1.041,0,0,1,523.9,1361.515Z" transform="translate(-522.864 -1303.91)" fill="#7d97f4"/>
          <path id="Path_38" data-name="Path 38" d="M557.731,1361.514a1.041,1.041,0,0,1-.956-.687l-21.808-55.335a1.176,1.176,0,0,1,.544-1.491,1.009,1.009,0,0,1,1.366.594l21.808,55.335a1.176,1.176,0,0,1-.544,1.491A.96.96,0,0,1,557.731,1361.514Z" transform="translate(-532.123 -1303.909)" fill="#7d97f4"/>
          <path id="Path_39" data-name="Path 39" d="M928.282,1361.515a.963.963,0,0,1-.41-.093,1.176,1.176,0,0,1-.544-1.491l21.808-55.335A1.009,1.009,0,0,1,950.5,1304a1.176,1.176,0,0,1,.544,1.491l-21.808,55.335A1.042,1.042,0,0,1,928.282,1361.515Z" transform="translate(-834.413 -1303.91)" fill="#7d97f4"/>
          <path id="Path_40" data-name="Path 40" d="M962.108,1361.514a1.041,1.041,0,0,1-.956-.687l-21.808-55.335a1.176,1.176,0,0,1,.544-1.491,1.009,1.009,0,0,1,1.366.594l21.809,55.335a1.176,1.176,0,0,1-.544,1.491A.962.962,0,0,1,962.108,1361.514Z" transform="translate(-843.671 -1303.909)" fill="#7d97f4"/>
        </g>
        <g id="Group_13" data-name="Group 13" transform="translate(92.67 97.394)">
          <rect id="Rectangle_6" data-name="Rectangle 6" width="2.578" height="27.885" transform="translate(12.462 6.248)" fill="#7d97f4"/>
          <path id="Path_41" data-name="Path 41" d="M847.074,1510.593H824.49v-.121a1.557,1.557,0,0,1,1.557-1.557H845.4a1.678,1.678,0,0,1,1.678,1.678Z" transform="translate(-822.031 -1475.923)" fill="#7d97f4"/>
          <rect id="Rectangle_7" data-name="Rectangle 7" width="28.395" height="8.053" rx="4.027" fill="#e9605a"/>
        </g>
        <g id="Group_14" data-name="Group 14" transform="translate(54.085 79.812)">
          <path id="Path_42" data-name="Path 42" d="M760.2,1311.422a22.44,22.44,0,0,0-8.14,3.474,2.147,2.147,0,0,0-.948,2.052,91.037,91.037,0,0,0,9.63,30.228,3.253,3.253,0,0,1,.312,2.231l-1.215,5.655-2.253,2.113h5.8l3.864-10.458-1.652-.523a3.127,3.127,0,0,1-2.184-2.927l-.194-11.218a12.764,12.764,0,0,0-3.065-8.446l9.269-.451Z" transform="translate(-726.903 -1306.185)" fill="#ed7a7a"/>
          <path id="Path_43" data-name="Path 43" d="M769.4,1474.805c-.529.692,5.689,1.6,8.83.091,0,0,4.354-7.576,4.354-11.477,0,0-.345-.8-2.9-.615,0,0-1.462,8.97-3.006,9.976s-4.319.1-4.319.1A9.089,9.089,0,0,0,769.4,1474.805Z" transform="translate(-740.975 -1422.796)" fill="url(#linear-gradient-5)"/>
          <path id="Path_44" data-name="Path 44" d="M696.013,1328.6c-.049-.085-9.98-1.194-9.98-1.194a22.948,22.948,0,0,1-.691,7.176c-1.016,4.156-15.6,22.164-15.6,22.164l1.529,4.846a24.588,24.588,0,0,1-13.951.839l9.474-5.685s8.867-30.216,14.3-35.607l9.954-3.444Z" transform="translate(-654.655 -1311.018)" fill="#f48f8f"/>
          <path id="Path_45" data-name="Path 45" d="M798.4,1288.609s5.721,8.51,6.191,12.391-1.567,5.459-7.57,5.719-22.029.256-22.029.256l-13.678-11.689s9.968-3.557,12.559-4.562S798.4,1288.609,798.4,1288.609Z" transform="translate(-734.773 -1288.609)" fill="#71716f"/>
          <path id="Path_46" data-name="Path 46" d="M661.737,1501.805a2.8,2.8,0,0,1,.534,3.368s-13.038,2.311-16.578,1.262c0,0,.735-1.678,4.721-3.587l-.294.226a.476.476,0,0,0,.315.854C653.061,1503.778,658.5,1503.3,661.737,1501.805Z" transform="translate(-645.693 -1452.864)" fill="url(#linear-gradient-6)"/>
        </g>
        <g id="Group_16" data-name="Group 16" transform="translate(88.668 23.747)">
          <path id="Path_47" data-name="Path 47" d="M843.521,1080.307c.865.27,3.981,1.388,3.578,3.392a.367.367,0,0,0,.459.42c1.342-.361,4.309-.817,6.147,1.487,1.623,2.034.41,3.954-.579,5.008a.369.369,0,0,0,.308.624c2.468-.312,7.833-.386,8.71,4.639.818,4.686-2.443,6.007-4.378,6.38a.367.367,0,0,0-.122.672c.965.612,2.083,1.877,1.631,4.374-.708,3.913-8.38,3.593-9.276,3.542a.36.36,0,0,1-.16-.048l-12.288-7.008a.369.369,0,0,1-.181-.258l-2.481-14.327a.37.37,0,0,1,.1-.319l8.158-8.479A.367.367,0,0,1,843.521,1080.307Z" transform="translate(-826.037 -1072.047)" fill="#0d5d6c"/>
          <path id="Path_48" data-name="Path 48" d="M815.791,1180.175a130.578,130.578,0,0,1-9.942-10.546,8.915,8.915,0,0,1-1.51-8.024,110.761,110.761,0,0,1,4.4-11.083c.372-1.246,7.843-1.194,7.843-1.194s14.7,9.541,20.476,25.7l-6.487,2.019a75.807,75.807,0,0,0-7.631-10.533s6.562,8.669,6.793,12.218Z" transform="translate(-802.218 -1125.237)" fill="#739af0"/>
          <path id="Path_49" data-name="Path 49" d="M820.818,1120.811c.078.259,2.028,6.723,2.18,6.857s4.276.356,6.217-.971l-3.293-6.893Z" transform="translate(-815.199 -1102.491)" fill="#ed7a7a"/>
          <g id="Group_15" data-name="Group 15" transform="translate(1.77)">
            <path id="Path_50" data-name="Path 50" d="M811.1,1064.342s-3.52,1.486-5.913,6.573-.606,7.435,1.639,7.757a10.508,10.508,0,0,0,9.154-3.012C819.536,1072.374,815.681,1062.58,811.1,1064.342Z" transform="translate(-804.054 -1059.598)" fill="#f48f8f"/>
            <path id="Path_51" data-name="Path 51" d="M824.735,1057.728s2.656-7.442-3.942-7.53l-1.552,1.085s-2.421-4.126,1.552-6.1,8.623-.343,10.314,5.01,1.979,8.936-.834,11.5-3.972-.343-3.972-.343,1.532-2.4.908-3.677-2.062.265-2.062.265Z" transform="translate(-815.191 -1044.382)" fill="#0d5d6c"/>
            <path id="Path_52" data-name="Path 52" d="M848.849,1097.183s1.343-3.833,3.134-2.307-1.456,3.541-2.727,4.194Z" transform="translate(-838.566 -1083.008)" fill="#f48f8f"/>
          </g>
          <path id="Path_53" data-name="Path 53" d="M796.342,1266.906l4.895-4.718,6.772,2.861s6.74,1.044,10.6,0l3.858-1.044,8.718-2.714,1.369,3.869a2.33,2.33,0,0,1-.851,2.677,15.378,15.378,0,0,1-2.2,1.372c-1.148.5-28.3-.348-28.3-.348Z" transform="translate(-796.342 -1211.496)" fill="#f48f8f"/>
        </g>
        <g id="Group_17" data-name="Group 17" transform="translate(51.315 55.6)">
          <path id="Path_54" data-name="Path 54" d="M777.258,1286.813h-.065l-28.4-.031a1.271,1.271,0,0,1,0-2.542l28.4.031a1.271,1.271,0,0,1,.063,2.54Z" transform="translate(-721.381 -1261.031)" fill="#587fd9"/>
          <path id="Path_55" data-name="Path 55" d="M635.519,1183.136h23.648a4.508,4.508,0,0,1,4.077,2.585l10.932,23.182H644.787a2.739,2.739,0,0,1-2.547-1.732l-8.478-21.451A1.889,1.889,0,0,1,635.519,1183.136Z" transform="translate(-633.628 -1183.136)" fill="#bdd0fb"/>
          <ellipse id="Ellipse_1" data-name="Ellipse 1" cx="1.863" cy="3.028" rx="1.863" ry="3.028" transform="matrix(0.952, -0.306, 0.306, 0.952, 14.076, 10.145)" fill="#fff"/>
        </g>
        <g id="Group_18" data-name="Group 18" transform="translate(19.489 76.938)">
          <path id="Path_56" data-name="Path 56" d="M535.162,1281.814H507.216v-2.884h27.946C534.564,1278.93,534.564,1281.814,535.162,1281.814Z" transform="translate(-504.409 -1278.278)" fill="url(#linear-gradient-7)"/>
          <path id="Path_57" data-name="Path 57" d="M498.025,1279.625a.23.23,0,0,1-.23-.229v-2.425a.23.23,0,0,1,.23-.23h28.339a.23.23,0,0,0,.23-.229v-.193a.23.23,0,0,0-.23-.23H496.195a1.207,1.207,0,0,0-1.207,1.207v1.843a1.138,1.138,0,0,0,1.138,1.138h30.238a.23.23,0,0,0,.23-.229v-.193a.23.23,0,0,0-.23-.23Z" transform="translate(-494.988 -1276.089)" fill="url(#linear-gradient-8)"/>
        </g>
        <path id="Path_58" data-name="Path 58" d="M611.634,1295.574a1,1,0,0,0-.266-.908,1.348,1.348,0,0,0-.976-.4H482.5a1.52,1.52,0,0,0-1.226.583,1.122,1.122,0,0,0-.1,1.211l1.386,2.605a1.978,1.978,0,0,0,1.762.979H609.515a1.432,1.432,0,0,0,1.443-1.034Z" transform="translate(-464.757 -1213.156)" fill="#91b3fa"/>
      </g>
      <g id="Group_20" data-name="Group 20" transform="translate(122.51 45.12)">
        <path id="Path_59" data-name="Path 59" d="M722.032,401.27l-.757-1.386,53.257-29.1,49.509,21.763,42.511-41.7.083-.049L916.55,321.34l.8,1.361L867.521,352.11l-43.137,42.313-49.777-21.88Z" transform="translate(-715.925 -314.536)" fill="#0ecbed"/>
        <path id="Path_60" data-name="Path 60" d="M709.428,647.28a5.728,5.728,0,1,1-5.728-5.728A5.728,5.728,0,0,1,709.428,647.28Z" transform="translate(-697.972 -561.24)" fill="#f89f1b"/>
        <circle id="Ellipse_2" data-name="Ellipse 2" cx="5.728" cy="5.728" r="5.728" transform="translate(51.753 61.386) rotate(-76.718)" fill="#f89f1b"/>
        <circle id="Ellipse_3" data-name="Ellipse 3" cx="5.728" cy="5.728" r="5.728" transform="translate(100.186 77.857) rotate(-45)" fill="#f89f1b"/>
        <circle id="Ellipse_4" data-name="Ellipse 4" cx="5.728" cy="5.728" r="5.728" transform="translate(144.019 31.214)" fill="#f89f1b"/>
        <circle id="Ellipse_5" data-name="Ellipse 5" cx="5.728" cy="5.728" r="5.728" transform="matrix(0.383, -0.924, 0.924, 0.383, 193.543, 10.584)" fill="#f89f1b"/>
      </g>
      <g id="Group_32" data-name="Group 32" transform="translate(269.869 225.584)">
        <g id="Group_30" data-name="Group 30" transform="translate(0 7.856)">
          <g id="Group_21" data-name="Group 21" transform="translate(0 58.691)">
            <path id="Path_61" data-name="Path 61" d="M1345.47,1391.875c-.753,1.114-3.744,26.33-4.212,35.644a1.1,1.1,0,0,0,1.1,1.155h0a1.1,1.1,0,0,0,1.09-.933l5.471-35.063Z" transform="translate(-1340.943 -1386.33)" fill="#7d97f4"/>
            <path id="Path_62" data-name="Path 62" d="M1452.794,1391.875c.753,1.114,3.744,26.33,4.212,35.644a1.1,1.1,0,0,1-1.1,1.155h0a1.1,1.1,0,0,1-1.091-.933l-5.471-35.063Z" transform="translate(-1424.216 -1386.33)" fill="#7d97f4"/>
            <path id="Path_63" data-name="Path 63" d="M1339.891,1371.3l0,.275a3.749,3.749,0,0,0,3.82,3.637l25.29.43a3.781,3.781,0,0,0,3.958-3.432l.013-.252a3.735,3.735,0,0,0-3.812-3.782l-25.3-.453A3.767,3.767,0,0,0,1339.891,1371.3Z" transform="translate(-1339.888 -1367.72)" fill="url(#linear-gradient-9)"/>
          </g>
          <g id="Group_25" data-name="Group 25" transform="translate(3.436)">
            <g id="Group_22" data-name="Group 22" transform="translate(38.347 94.37)">
              <path id="Path_65" data-name="Path 65" d="M1540.259,1527.343a.749.749,0,0,0-.13-.271c-1.212-1.547-3.645-3.976-6.956-3.929-4.85.068-6.541.594-10.309.03l-.889,2.947a1.692,1.692,0,0,0-.027.879c.889.352,2.879.737,7.375.737C1534.6,1527.736,1538.446,1527.489,1540.259,1527.343Z" transform="translate(-1521.902 -1523.142)" fill="#0c005d"/>
            </g>
            <path id="Path_66" data-name="Path 66" d="M1527.182,1509.44l-1.091,3.712a6.416,6.416,0,0,0,4.544.217l.417-3.216Z" transform="translate(-1486.782 -1418.216)" fill="#f48f8f"/>
            <g id="Group_23" data-name="Group 23" transform="translate(65.485 89.004)">
              <path id="Path_68" data-name="Path 68" d="M1656.277,1500.236a.749.749,0,0,0-.27-.128c-1.909-.441-5.32-.8-7.872,1.308-3.738,3.091-4.728,4.558-8.018,6.48l1.144,2.843a1.674,1.674,0,0,0,.527.7c.912-.284,2.7-1.231,6.208-4.047C1652.107,1504.088,1654.955,1501.485,1656.277,1500.236Z" transform="translate(-1640.117 -1499.77)" fill="#0c005d"/>
            </g>
            <path id="Path_69" data-name="Path 69" d="M1411.755,1325.222s26.916,2.2,32.438,4.8-4.506,39.03-4.506,39.03-1.5.723-4.848-.316c0,0,3.43-26.885.877-32.714l-29.143-4.767Z" transform="translate(-1394.701 -1276.287)" fill="#45453c"/>
            <path id="Path_70" data-name="Path 70" d="M1628.468,1507.548c.25.228,2.674,5.117,2.674,5.117s2.7-.584,3.25-2.292l-2.429-4.413Z" transform="translate(-1565.658 -1415.535)" fill="#f48f8f"/>
            <path id="Path_71" data-name="Path 71" d="M1355.7,1324.242a13.629,13.629,0,0,0-.841,4.915,7.38,7.38,0,0,0,7.042,7.22l31.819,1.451a1.526,1.526,0,0,1,1.409,1.147c.748,2.892,4.4,11.774,22.268,29.5a1.44,1.44,0,0,0,1.782.194l2.543-1.606a.585.585,0,0,0,.193-.791l-18.527-31.637a7.171,7.171,0,0,0-4.356-3.231l-27.12-6.932Z" transform="translate(-1354.856 -1275.532)" fill="#71716f"/>
            <path id="Path_72" data-name="Path 72" d="M1477.577,1112.054s-8.964,5.317-12.44,8.236l7.183,4.008s3.882-4.484,7.58-6.353Z" transform="translate(-1439.821 -1112.054)" fill="#ed7a7a"/>
            <path id="Path_73" data-name="Path 73" d="M1356.009,1185.242s8.59,2.093,16.789,0c0,0,11.473-15.423,15.912-19.621,0,0,7.08,11.172,22.839,12.755l.879-1.964s-12.546-5.783-16.408-14.67-5.413-12.676-8.927-14.995c-2.188-1.444-3.5-2.43-4.176-2.969a1.123,1.123,0,0,0-1.287-.082C1377.9,1145.97,1360.354,1157.988,1356.009,1185.242Z" transform="translate(-1355.744 -1136.307)" fill="#739af0"/>
            <g id="Group_24" data-name="Group 24" transform="translate(28.067 20.833)">
              <path id="Path_74" data-name="Path 74" d="M1481.554,1210.707a.187.187,0,0,0,.148-.3,34.115,34.115,0,0,1-4.219-7.479.187.187,0,1,0-.349.134,34.577,34.577,0,0,0,4.271,7.572A.187.187,0,0,0,1481.554,1210.707Z" transform="translate(-1477.122 -1202.808)" fill="url(#linear-gradient-10)"/>
            </g>
            <path id="Path_75" data-name="Path 75" d="M1593.821,1276.3l1.774-.473,5.386-1.247a2.5,2.5,0,0,1,1.893.319l4.631,2.913-12.788-.022Z" transform="translate(-1538.964 -1237.224)" fill="#f48f8f"/>
          </g>
          <g id="Group_28" data-name="Group 28" transform="translate(52.191 15.694)">
            <g id="Group_26" data-name="Group 26" transform="translate(0 24.941)">
              <path id="Path_76" data-name="Path 76" d="M1568.4,1291.53l.063,0,27.32-.027a1.221,1.221,0,1,0,0-2.441l-27.32.027a1.221,1.221,0,0,0-.06,2.44Z" transform="translate(-1567.239 -1289.063)" fill="#587fd9"/>
            </g>
            <g id="Group_27" data-name="Group 27" transform="translate(27.487)">
              <path id="Path_77" data-name="Path 77" d="M1698.615,1181.072c-.01.018-.019.037-.028.056l-11.495,24.784a1.22,1.22,0,1,0,2.214,1.027l11.5-24.784a1.22,1.22,0,0,0-2.187-1.083Z" transform="translate(-1686.978 -1180.419)" fill="#bdd0fb"/>
            </g>
          </g>
          <g id="Group_29" data-name="Group 29" transform="translate(45.981 41.705)">
            <path id="Path_78" data-name="Path 78" d="M1576.7,1305.783c-.119.494-11.519,43.248-14.409,54.086a1.959,1.959,0,0,0,1.875,2.476h0a1.947,1.947,0,0,0,1.884-1.49l12.654-51.305Z" transform="translate(-1557.167 -1303.016)" fill="#7d97f4"/>
            <path id="Path_79" data-name="Path 79" d="M1645.752,1305.783c.12.494,11.519,43.248,14.409,54.086a1.96,1.96,0,0,1-1.876,2.476h0a1.947,1.947,0,0,1-1.884-1.49l-12.654-51.305Z" transform="translate(-1619.974 -1303.016)" fill="#7d97f4"/>
            <path id="Path_80" data-name="Path 80" d="M1630.723,1299.694h-7.1v5.7a1.475,1.475,0,0,0,1.466,1.484h.974v12.807a1.116,1.116,0,0,0,1.11,1.123h0a1.117,1.117,0,0,0,1.11-1.123v-12.807h.494a1.957,1.957,0,0,0,1.946-1.969Z" transform="translate(-1604.471 -1298.324)" fill="#7d97f4"/>
            <path id="Path_81" data-name="Path 81" d="M1541.886,1293.728h39.642a1.217,1.217,0,0,1,1.177.922l.553,2.17a1.227,1.227,0,0,1-1.183,1.537l-40.677-.237a1.226,1.226,0,0,1-1.171-1.53l.481-1.934A1.218,1.218,0,0,1,1541.886,1293.728Z" transform="translate(-1540.189 -1293.728)" fill="#91b3fa"/>
          </g>
        </g>
        <g id="Group_31" data-name="Group 31" transform="translate(31.91)">
          <path id="Path_82" data-name="Path 82" d="M1507.045,1099.391s.083,6.363-.945,9.253-1.189,4.977-4.693,4.175a7.528,7.528,0,0,1-5.88-7.021s-.515-5.314.754-6.869S1507.045,1099.391,1507.045,1099.391Z" transform="translate(-1491.629 -1093.632)" fill="#f48f8f"/>
          <path id="Path_83" data-name="Path 83" d="M1484.756,1088.444l.413.173s-.236-4.2,1.516-4.188,8.177,1.292,10.336-.271a4.236,4.236,0,0,0,.746-6.006.238.238,0,0,0-.323-.014l-.244.2a.241.241,0,0,1-.391-.214h0a.24.24,0,0,0-.372-.228c-.654.464-2.142,1.041-5.2.373-4.341-.948-7.688-.435-8.923,2.321a.241.241,0,0,1-.42.038c-.221-.306-.661-.591-1.522-.323-1.5.466-2.057,3.069-.465,6.071a.239.239,0,0,1-.16.351c-.56.1-1.5.508-.184,2.128a4.909,4.909,0,0,0,2.847,2.052.24.24,0,0,0,.264-.159l.883-2.531a.24.24,0,0,1,.32-.143Z" transform="translate(-1478.893 -1077.832)" fill="#0d5d6c"/>
          <path id="Path_84" data-name="Path 84" d="M1495.713,1114.7s.549-3.812-1.4-3.495-.817,4.186.368,4.835Z" transform="translate(-1489.965 -1103.53)" fill="#f48f8f"/>
        </g>
      </g>
      <g id="Group_41" data-name="Group 41" transform="translate(339.567 121.449)">
        <g id="Group_34" data-name="Group 34" transform="translate(0 36.593)">
          <circle id="Ellipse_6" data-name="Ellipse 6" cx="16.286" cy="16.286" r="16.286" transform="matrix(0.604, -0.797, 0.797, 0.604, 0, 25.967)" fill="#bf770c"/>
          <circle id="Ellipse_7" data-name="Ellipse 7" cx="15.745" cy="15.745" r="15.745" transform="translate(2.274 14.223) rotate(-22.3)" fill="#f89f1b"/>
          <path id="Path_85" data-name="Path 85" d="M1684.57,826.439a.526.526,0,0,1-.469-.763,15,15,0,0,1,13.453-8.283,15.212,15.212,0,0,1,2.717.244.526.526,0,1,1-.189,1.036,14.2,14.2,0,0,0-2.528-.227,13.95,13.95,0,0,0-12.513,7.7A.526.526,0,0,1,1684.57,826.439Z" transform="translate(-1674.738 -809.637)" fill="#fff" opacity="0.6"/>
          <circle id="Ellipse_8" data-name="Ellipse 8" cx="13.326" cy="13.326" r="13.326" transform="translate(9.833 9.833)" fill="#fff" opacity="0.78"/>
          <g id="Group_33" data-name="Group 33" transform="translate(17.289 13.727)">
            <path id="Path_86" data-name="Path 86" d="M1723.382,862.746V861.3a11.83,11.83,0,0,1-4.068-.882.839.839,0,0,1-.464-.991l.368-1.351a.845.845,0,0,1,1.148-.553,9.817,9.817,0,0,0,3.756.791c1.456,0,2.542-.493,2.542-1.5,0-.913-.839-1.456-2.862-2-2.887-.79-4.959-2.048-4.959-4.589,0-2.295,1.678-4.046,4.589-4.515v-1.45a.845.845,0,0,1,.845-.845h.852a.845.845,0,0,1,.845.845v1.3a10.789,10.789,0,0,1,3.224.579.841.841,0,0,1,.525,1.015l-.339,1.249a.843.843,0,0,1-1.112.569,8.8,8.8,0,0,0-3.163-.574c-1.727,0-2.22.716-2.22,1.357,0,.789,1.036,1.332,3.281,2.023,3.208.962,4.54,2.295,4.54,4.688,0,2.2-1.628,4.17-4.787,4.663v1.623a.845.845,0,0,1-.845.845h-.852A.845.845,0,0,1,1723.382,862.746Z" transform="translate(-1718.82 -843.408)" fill="#f89f1b"/>
          </g>
        </g>
        <g id="Group_36" data-name="Group 36" transform="translate(29.08 0)">
          <circle id="Ellipse_9" data-name="Ellipse 9" cx="28.352" cy="28.352" r="28.352" transform="translate(0 40.095) rotate(-45)" fill="#bf770c"/>
          <circle id="Ellipse_10" data-name="Ellipse 10" cx="27.409" cy="27.409" r="27.409" transform="matrix(0.227, -0.974, 0.974, 0.227, 7.171, 60.553)" fill="#f89f1b"/>
          <path id="Path_87" data-name="Path 87" d="M1844.62,701.322a.526.526,0,0,1-.469-.763,25.72,25.72,0,0,1,23.071-14.206,26,26,0,0,1,4.659.42.526.526,0,1,1-.189,1.036,24.986,24.986,0,0,0-4.47-.4,24.673,24.673,0,0,0-22.131,13.627A.526.526,0,0,1,1844.62,701.322Z" transform="translate(-1827.126 -672.086)" fill="#fff" opacity="0.6"/>
          <circle id="Ellipse_11" data-name="Ellipse 11" cx="23.198" cy="23.198" r="23.198" transform="translate(17.494 17.494)" fill="#fff" opacity="0.78"/>
          <g id="Group_35" data-name="Group 35" transform="translate(30.475 24.274)">
            <path id="Path_88" data-name="Path 88" d="M1910.875,763.61v-2.524a20.574,20.574,0,0,1-7.082-1.535,1.46,1.46,0,0,1-.807-1.725l.641-2.351a1.471,1.471,0,0,1,2-.963,17.088,17.088,0,0,0,6.539,1.377c2.534,0,4.424-.859,4.424-2.62,0-1.589-1.46-2.534-4.983-3.479-5.025-1.374-8.633-3.565-8.633-7.989,0-3.995,2.921-7.044,7.989-7.86v-2.524a1.471,1.471,0,0,1,1.471-1.471h1.483a1.471,1.471,0,0,1,1.471,1.471v2.266a18.767,18.767,0,0,1,5.613,1.008,1.464,1.464,0,0,1,.915,1.766l-.59,2.174a1.466,1.466,0,0,1-1.936.99,15.314,15.314,0,0,0-5.505-1c-3.007,0-3.865,1.246-3.865,2.362,0,1.374,1.8,2.319,5.712,3.522,5.584,1.675,7.9,3.994,7.9,8.161,0,3.823-2.835,7.259-8.333,8.118v2.825a1.47,1.47,0,0,1-1.47,1.471h-1.483A1.471,1.471,0,0,1,1910.875,763.61Z" transform="translate(-1902.933 -729.946)" fill="#f89f1b"/>
          </g>
        </g>
        <g id="Group_38" data-name="Group 38" transform="translate(48.842 63.534)">
          <circle id="Ellipse_12" data-name="Ellipse 12" cx="29.174" cy="29.174" r="29.174" transform="translate(3.496 59.327) rotate(-73.113)" fill="#bf770c"/>
          <circle id="Ellipse_13" data-name="Ellipse 13" cx="28.203" cy="28.203" r="28.203" transform="translate(0 39.886) rotate(-45)" fill="#f89f1b"/>
          <path id="Path_89" data-name="Path 89" d="M1926.942,974.385a.527.527,0,0,1-.469-.764,26.45,26.45,0,0,1,23.726-14.609,26.752,26.752,0,0,1,4.791.432.526.526,0,1,1-.189,1.036,25.761,25.761,0,0,0-4.6-.414,25.4,25.4,0,0,0-22.786,14.03A.526.526,0,0,1,1926.942,974.385Z" transform="translate(-1910.313 -945.688)" fill="#fff" opacity="0.6"/>
          <circle id="Ellipse_14" data-name="Ellipse 14" cx="23.871" cy="23.871" r="23.871" transform="matrix(0.232, -0.973, 0.973, 0.232, 11.737, 58.172)" fill="#fff" opacity="0.78"/>
          <g id="Group_37" data-name="Group 37" transform="translate(29.986 23.606)">
            <path id="Path_90" data-name="Path 90" d="M1995.067,1038.441v-2.6a21.183,21.183,0,0,1-7.287-1.58,1.5,1.5,0,0,1-.83-1.775l.66-2.419a1.514,1.514,0,0,1,2.056-.991,17.583,17.583,0,0,0,6.728,1.417c2.608,0,4.552-.884,4.552-2.7,0-1.635-1.5-2.608-5.127-3.58-5.171-1.414-8.884-3.668-8.884-8.221,0-4.11,3.005-7.249,8.221-8.088v-2.6a1.513,1.513,0,0,1,1.513-1.513h1.526a1.513,1.513,0,0,1,1.513,1.513v2.332a19.316,19.316,0,0,1,5.776,1.037,1.506,1.506,0,0,1,.941,1.818l-.607,2.237a1.509,1.509,0,0,1-1.992,1.019,15.754,15.754,0,0,0-5.665-1.029c-3.094,0-3.978,1.282-3.978,2.431,0,1.414,1.856,2.386,5.878,3.624,5.746,1.724,8.132,4.11,8.132,8.4,0,3.934-2.917,7.469-8.574,8.353v2.906a1.513,1.513,0,0,1-1.513,1.513h-1.526A1.513,1.513,0,0,1,1995.067,1038.441Z" transform="translate(-1986.895 -1003.801)" fill="#f89f1b"/>
          </g>
        </g>
        <g id="Group_40" data-name="Group 40" transform="translate(98.631 36.157)">
          <circle id="Ellipse_15" data-name="Ellipse 15" cx="21.375" cy="21.375" r="21.375" transform="translate(4.591 47.218) rotate(-85.658)" fill="#bf770c"/>
          <circle id="Ellipse_16" data-name="Ellipse 16" cx="20.664" cy="20.664" r="20.664" transform="matrix(0.428, -0.904, 0.904, 0.428, 0, 37.348)" fill="#f89f1b"/>
          <path id="Path_91" data-name="Path 91" d="M2117.054,827.759a.526.526,0,0,1-.469-.763,19.519,19.519,0,0,1,17.51-10.781,19.792,19.792,0,0,1,3.536.318.526.526,0,1,1-.189,1.036,18.753,18.753,0,0,0-3.347-.3,18.474,18.474,0,0,0-16.57,10.2A.526.526,0,0,1,2117.054,827.759Z" transform="translate(-2106.572 -808.293)" fill="#fff" opacity="0.6"/>
          <circle id="Ellipse_17" data-name="Ellipse 17" cx="17.49" cy="17.49" r="17.49" transform="translate(4.364 20.598) rotate(-27.652)" fill="#fff" opacity="0.78"/>
          <g id="Group_39" data-name="Group 39" transform="translate(20.27 15.595)">
            <path id="Path_92" data-name="Path 92" d="M2167.441,875.024v-1.9a15.515,15.515,0,0,1-5.339-1.158,1.1,1.1,0,0,1-.608-1.3l.483-1.772a1.11,1.11,0,0,1,1.506-.726,12.883,12.883,0,0,0,4.929,1.038c1.91,0,3.335-.648,3.335-1.975,0-1.2-1.1-1.911-3.756-2.623-3.789-1.036-6.509-2.688-6.509-6.023,0-3.012,2.2-5.311,6.023-5.926v-1.9a1.109,1.109,0,0,1,1.109-1.109h1.118a1.109,1.109,0,0,1,1.109,1.109v1.708a14.153,14.153,0,0,1,4.232.76,1.1,1.1,0,0,1,.69,1.332l-.445,1.639a1.106,1.106,0,0,1-1.459.747,11.548,11.548,0,0,0-4.151-.753c-2.267,0-2.914.939-2.914,1.781,0,1.036,1.36,1.749,4.307,2.655,4.209,1.263,5.958,3.012,5.958,6.153,0,2.882-2.137,5.473-6.282,6.121v2.129a1.109,1.109,0,0,1-1.109,1.109h-1.118A1.109,1.109,0,0,1,2167.441,875.024Z" transform="translate(-2161.454 -849.644)" fill="#f89f1b"/>
          </g>
        </g>
      </g>
      <g id="Group_45" data-name="Group 45" transform="translate(245.575 7.749)">
        <g id="Group_42" data-name="Group 42" transform="translate(0 8.204)">
          <path id="Path_93" data-name="Path 93" d="M1234.559,182.823s.107-.179.314-.5a.394.394,0,0,1,.708.093c.169-.046.361-.1.573-.148a.395.395,0,1,1,.186.767c-.6.145-1.018.275-1.221.337l-.119.036-.94.253Zm1.431-2.153c.377-.533.774-1.072,1.18-1.6a.394.394,0,1,1,.626.48c-.4.522-.79,1.053-1.162,1.578a.394.394,0,1,1-.644-.456Zm1.806,1.659a.394.394,0,0,1,.333-.447,19.732,19.732,0,0,1,2-.193.394.394,0,1,1,.034.788,18.947,18.947,0,0,0-1.925.185.395.395,0,0,1-.448-.333Zm3.934-.244a.394.394,0,0,1,.425-.361,13.206,13.206,0,0,1,2.008.316.394.394,0,0,1-.185.767,12.358,12.358,0,0,0-1.887-.3.395.395,0,0,1-.361-.425Zm-3.325-4.573c.424-.515.859-1.024,1.292-1.511a.394.394,0,0,1,.59.524c-.426.48-.854.981-1.272,1.489a.394.394,0,0,1-.609-.5Zm7.17,5.385a.394.394,0,0,1,.523-.2,9.425,9.425,0,0,1,1.282.706q.238.157.467.3a.395.395,0,0,1-.41.675q-.241-.147-.492-.312a8.7,8.7,0,0,0-1.175-.647.394.394,0,0,1-.2-.522Zm5.371,5.586a.394.394,0,0,1,.418-.091,2.929,2.929,0,0,1,1.185-.08.394.394,0,1,1-.085.784,1.749,1.749,0,0,0-1.271.247l-.5-.6Zm-1.915-3.7a.4.4,0,0,1,.513-.22,7.111,7.111,0,0,0,1.8.478.395.395,0,1,1-.093.784,7.906,7.906,0,0,1-2-.529.395.395,0,0,1-.22-.513Zm-7.985-10.246c.461-.481.934-.954,1.406-1.407a.395.395,0,0,1,.546.57c-.465.446-.93.911-1.384,1.384a.4.4,0,0,1-.558.012.435.435,0,0,1-.036-.039A.4.4,0,0,1,1241.045,174.538Zm11.281,12.535c.529-.548.983-1.029,1.35-1.431a.394.394,0,1,1,.582.532c-.372.407-.831.893-1.365,1.446a.394.394,0,0,1-.558.01.446.446,0,0,1-.035-.038A.4.4,0,0,1,1252.327,187.073Zm1.723,1.949a.4.4,0,0,1,.476-.291c.562.135,1.181.275,1.9.387a.395.395,0,0,1-.122.78c-.747-.116-1.385-.261-1.963-.4a.4.4,0,0,1-.291-.476Zm-1.181-3.618a.394.394,0,0,1,.272-.487,4.937,4.937,0,0,0,1.338-.63,3.443,3.443,0,0,1,.3-.176,1.094,1.094,0,0,1,.111-.047.385.385,0,0,1,.489.251.406.406,0,0,1-.258.506c-.058.028-.132.076-.223.133a5.717,5.717,0,0,1-1.543.721.394.394,0,0,1-.487-.273Zm-8.949-13.618c.448-.392.9-.773,1.355-1.134l.177-.141a.4.4,0,0,1,.553.063h0a.394.394,0,0,1-.064.554l-.174.138c-.442.354-.889.728-1.328,1.112a.4.4,0,0,1-.557-.037l-.011-.014A.394.394,0,0,1,1243.92,171.785Zm14.011,17.9a.4.4,0,0,1,.411-.377,18.79,18.79,0,0,0,1.929-.017.395.395,0,0,1,.047.788,19.653,19.653,0,0,1-2.011.018.394.394,0,0,1-.377-.411Zm3.934-.148a.394.394,0,0,1,.332-.448c.136-.02.274-.042.414-.065a13.129,13.129,0,0,0,1.465-.328.395.395,0,0,1,.216.759,13.892,13.892,0,0,1-1.553.348q-.216.035-.426.067a.394.394,0,0,1-.448-.332Zm-14.911-19.67a.394.394,0,0,1,.1-.55c.552-.388,1.113-.758,1.667-1.1a.394.394,0,0,1,.413.672c-.54.332-1.088.693-1.626,1.072a.394.394,0,0,1-.535-.076Zm18.72,18.691a.394.394,0,0,1,.195-.523,12.656,12.656,0,0,0,1.672-.925.394.394,0,0,1,.433.66,13.485,13.485,0,0,1-1.777.983.394.394,0,0,1-.472-.112A.39.39,0,0,1,1265.674,188.558Zm-15.385-20.795a.4.4,0,0,1,.167-.533c.6-.313,1.207-.6,1.809-.859a.395.395,0,0,1,.31.726c-.583.249-1.173.529-1.754.833a.4.4,0,0,1-.49-.1A.4.4,0,0,1,1250.288,167.763Zm18.771,18.183a13.872,13.872,0,0,0,1.34-1.37.394.394,0,1,1,.6.512,14.6,14.6,0,0,1-1.417,1.448.4.4,0,0,1-.557-.033l-.013-.016A.4.4,0,0,1,1269.059,185.946Zm-15.17-19.785a.394.394,0,0,1,.251-.5c.642-.211,1.293-.391,1.935-.536a.394.394,0,1,1,.174.769c-.618.14-1.245.314-1.863.517a.394.394,0,0,1-.5-.252Zm17.651,16.875a8.378,8.378,0,0,0,.828-1.58l.126-.864a.394.394,0,1,1,.781.114l-.122.844h-.007a8.374,8.374,0,0,1-.939,1.911.394.394,0,0,1-.665-.424Zm-13.827-17.814a.394.394,0,0,1,.344-.439,18.751,18.751,0,0,1,2.009-.132.395.395,0,1,1,.009.789,17.822,17.822,0,0,0-1.923.127.394.394,0,0,1-.439-.345Zm3.933-.13a.394.394,0,0,1,.432-.354,18.556,18.556,0,0,1,1.989.308.395.395,0,1,1-.163.772,17.715,17.715,0,0,0-1.9-.295.395.395,0,0,1-.354-.432Zm11.13,13.548.283-1.952a.395.395,0,1,1,.781.113l-.283,1.952a.395.395,0,0,1-.781-.113Zm-7.264-12.821a.4.4,0,0,1,.5-.255c.623.2,1.255.439,1.878.709a.394.394,0,1,1-.313.724c-.6-.259-1.208-.489-1.807-.682a.394.394,0,0,1-.255-.5Zm7.83,8.917.283-1.952a.395.395,0,0,1,.781.113l-.283,1.952a.395.395,0,0,1-.781-.113Zm-4.188-7.426a.394.394,0,0,1,.535-.159c.572.31,1.15.654,1.719,1.023a.395.395,0,0,1-.429.662c-.552-.358-1.113-.691-1.666-.992a.394.394,0,0,1-.159-.535Zm3.337,2.089a.4.4,0,0,1,.553-.078c.506.381,1.017.791,1.518,1.219l.165.141-.038.263a.395.395,0,0,1-.753.1c-.453-.383-.912-.75-1.368-1.094a.387.387,0,0,1-.071-.069A.4.4,0,0,1,1272.491,169.4Z" transform="translate(-1234.061 -164.65)" fill="#f89f1b"/>
        </g>
        <path id="Path_94" data-name="Path 94" d="M1321.637,196.361s-4.034,7.754-10.046,5.407-11.495-6.208-14.282-5c0,0,10.624-13.389,24.432-3.486Z" transform="translate(-1282.79 -175.691)" fill="#7fe8fc"/>
        <path id="Path_95" data-name="Path 95" d="M1379.31,252.271s-1.044,8.518-3.753,9.576c-2.577,1.006-21.929-.734-23.811-.907a.16.16,0,0,1-.145-.164h0a2.2,2.2,0,0,1,.924-1.765c2.768-1.968,11.082-7.772,14.158-8.721C1370.4,249.145,1379.31,252.271,1379.31,252.271Z" transform="translate(-1324.618 -222.232)" fill="#25cbe8"/>
        <path id="Path_96" data-name="Path 96" d="M1382.4,274.2a.2.2,0,0,0,.14.073c.107.008,10.721.778,15.3.931a2.062,2.062,0,0,0,1.926-1.162,30.689,30.689,0,0,0,2.152-5.85.2.2,0,0,0-.384-.092,30.282,30.282,0,0,1-2.123,5.77,1.666,1.666,0,0,1-1.557.939c-4.574-.153-15.182-.923-15.288-.93a.2.2,0,0,0-.168.32Z" transform="translate(-1348.31 -236.032)" fill="#32b2c7"/>
        <path id="Path_97" data-name="Path 97" d="M1381.2,139.014s-.823-8.542-3.5-9.67c-2.55-1.073-21.94.167-23.826.29a.16.16,0,0,0-.149.16h0a2.2,2.2,0,0,0,.879,1.788c2.716,2.039,10.877,8.056,13.928,9.084C1372.214,141.909,1381.2,139.014,1381.2,139.014Z" transform="translate(-1326.253 -128.91)" fill="#25cbe8"/>
        <path id="Path_98" data-name="Path 98" d="M1384.451,133.422a.2.2,0,0,0,.163.074c.107-.005,10.73-.5,15.307-.534a1.667,1.667,0,0,1,1.532.979,30.266,30.266,0,0,1,1.973,5.823.2.2,0,1,0,.386-.081,30.052,30.052,0,0,0-2-5.9,2.061,2.061,0,0,0-1.895-1.211c-4.585.035-15.216.53-15.322.535a.2.2,0,0,0-.145.32Z" transform="translate(-1349.894 -131.727)" fill="#32b2c7"/>
        <path id="Path_99" data-name="Path 99" d="M1441.811,186.7a44.326,44.326,0,0,1-13.69,2.026,126.2,126.2,0,0,1-30.8-3.924,1.683,1.683,0,0,1-1.188-1.242,29.668,29.668,0,0,1,.073-14.157,2.446,2.446,0,0,1,1.81-1.784,127.427,127.427,0,0,1,30.416-3.011,44.328,44.328,0,0,1,13.543,2.348C1444.073,174.852,1442.786,182.444,1441.811,186.7Z" transform="translate(-1358.296 -156.401)" fill="#00b3d3"/>
        <path id="Path_100" data-name="Path 100" d="M1598.027,174.9a46,46,0,0,1,16.193,9.486.827.827,0,0,1-.016,1.224,45.994,45.994,0,0,1-16.343,9.035C1598.838,190.383,1600.124,182.792,1598.027,174.9Z" transform="translate(-1514.348 -164.34)" fill="#25cbe8"/>
        <g id="Group_43" data-name="Group 43" transform="translate(63.476 12.21)">
          <ellipse id="Ellipse_18" data-name="Ellipse 18" cx="7.99" cy="7.445" rx="7.99" ry="7.445" transform="translate(0 15.979) rotate(-89.258)" fill="#55e2fa"/>
          <path id="Path_101" data-name="Path 101" d="M1524.545,188.627a6.383,6.383,0,1,0,5.849,6.443A6.161,6.161,0,0,0,1524.545,188.627Z" transform="translate(-1516.704 -187.129)" fill="#028ca7"/>
          <path id="Path_102" data-name="Path 102" d="M1548.78,214.284a.2.2,0,0,0,.209.066,4.981,4.981,0,0,0,3.484-4.734,5.183,5.183,0,0,0-.236-1.619.2.2,0,0,0-.376.118,4.778,4.778,0,0,1,.217,1.5,4.582,4.582,0,0,1-3.2,4.36.2.2,0,0,0-.1.313Z" transform="translate(-1539.976 -201.947)" fill="#bdd0fb"/>
        </g>
        <g id="Group_44" data-name="Group 44" transform="translate(51.146 14.824)">
          <path id="Path_103" data-name="Path 103" d="M1461.845,193.486a5.292,5.292,0,1,0,4.849,5.342A5.108,5.108,0,0,0,1461.845,193.486Z" transform="translate(-1456.859 -193.485)" fill="#55e2fa"/>
          <path id="Path_104" data-name="Path 104" d="M1465.793,197.522a4.217,4.217,0,1,0,3.864,4.256A4.07,4.07,0,0,0,1465.793,197.522Z" transform="translate(-1460.681 -196.595)" fill="#028ca7"/>
          <path id="Path_105" data-name="Path 105" d="M1481.526,214.288a.2.2,0,0,0,.209.066,3.356,3.356,0,0,0,2.349-3.19,3.461,3.461,0,0,0-.159-1.091.2.2,0,1,0-.376.118,3.084,3.084,0,0,1,.141.967,2.959,2.959,0,0,1-2.066,2.816.2.2,0,0,0-.134.244A.192.192,0,0,0,1481.526,214.288Z" transform="translate(-1475.83 -206.159)" fill="#bdd0fb"/>
        </g>
      </g>
      <g id="Group_46" data-name="Group 46" transform="translate(43.176)">
        <path id="Path_106" data-name="Path 106" d="M1202.567,239.494l-2.588.634a.451.451,0,1,1-.215-.876l.029-.007,2.523-.628.031-.008a.456.456,0,1,1,.22.885Z" transform="translate(-1004.974 -205.666)" fill="#f89f1b"/>
        <path id="Path_107" data-name="Path 107" d="M1179.911,244.268l-2.645.286a.442.442,0,1,1-.095-.878l.025,0,2.589-.289.028,0a.446.446,0,1,1,.1.887Z" transform="translate(-987.528 -209.351)" fill="#f89f1b"/>
        <path id="Path_108" data-name="Path 108" d="M1157,246.088l-2.653-.02a.432.432,0,0,1,.007-.864h.021l2.607.01h.024a.437.437,0,0,1,0,.874Z" transform="translate(-969.917 -210.758)" fill="#f89f1b"/>
        <path id="Path_109" data-name="Path 109" d="M1134.134,244.533l-2.637-.278a.422.422,0,1,1,.089-.84l.017,0,2.6.265.019,0a.427.427,0,0,1-.087.85Z" transform="translate(-952.351 -209.378)" fill="#f89f1b"/>
        <path id="Path_110" data-name="Path 110" d="M1111.489,240.976l-2.6-.494a.413.413,0,0,1,.154-.811l.013,0,2.573.478.016,0a.418.418,0,0,1-.153.821Z" transform="translate(-934.964 -206.49)" fill="#f89f1b"/>
        <path id="Path_111" data-name="Path 111" d="M1089.177,235.751l-2.558-.673a.4.4,0,0,1,.205-.78l.011,0,2.536.657.013,0a.408.408,0,1,1-.2.79Z" transform="translate(-917.834 -202.346)" fill="#f89f1b"/>
        <path id="Path_112" data-name="Path 112" d="M1067.242,229.134l-2.512-.822a.394.394,0,0,1,.245-.748l.009,0,2.494.806.01,0a.4.4,0,0,1-.245.758Z" transform="translate(-900.994 -197.152)" fill="#f89f1b"/>
        <path id="Path_113" data-name="Path 113" d="M1045.7,221.345l-2.466-.949a.384.384,0,0,1,.276-.716l.007,0,2.452.933.009,0a.389.389,0,1,1-.276.727Z" transform="translate(-884.451 -191.073)" fill="#f89f1b"/>
        <path id="Path_114" data-name="Path 114" d="M1024.545,212.558l-2.42-1.056a.374.374,0,0,1,.3-.686l.006,0,2.41,1.041.007,0a.379.379,0,0,1-.3.7Z" transform="translate(-868.205 -184.24)" fill="#f89f1b"/>
        <path id="Path_115" data-name="Path 115" d="M1003.766,202.916l-2.376-1.149a.365.365,0,0,1,.318-.657l0,0,2.368,1.135.006,0a.369.369,0,0,1-.319.666Z" transform="translate(-852.244 -176.758)" fill="#f89f1b"/>
        <path id="Path_116" data-name="Path 116" d="M983.348,192.526l-2.335-1.231a.355.355,0,1,1,.331-.628l0,0,2.329,1.217.005,0a.36.36,0,0,1-.333.638Z" transform="translate(-836.557 -168.71)" fill="#f89f1b"/>
        <path id="Path_117" data-name="Path 117" d="M963.274,181.48l-2.3-1.3a.345.345,0,0,1,.341-.6l0,0,2.291,1.289,0,0a.35.35,0,0,1-.343.61Z" transform="translate(-821.133 -160.162)" fill="#f89f1b"/>
        <path id="Path_118" data-name="Path 118" d="M943.513,169.833l-2.259-1.364a.34.34,0,1,1,.352-.583l0,0,2.253,1.357,0,0a.342.342,0,1,1-.353.586Z" transform="translate(-805.944 -151.152)" fill="#f89f1b"/>
        <path id="Path_119" data-name="Path 119" d="M924.06,157.656l-2.223-1.422a.338.338,0,1,1,.364-.569l0,0,2.217,1.416,0,0a.339.339,0,1,1-.365.572Z" transform="translate(-790.992 -141.732)" fill="#f89f1b"/>
        <path id="Path_120" data-name="Path 120" d="M904.919,145l-2.187-1.476a.335.335,0,0,1,.375-.556l0,0,2.182,1.469,0,0a.337.337,0,0,1-.376.558Z" transform="translate(-776.278 -131.945)" fill="#f89f1b"/>
        <path id="Path_121" data-name="Path 121" d="M886.089,131.894l-2.151-1.525a.333.333,0,1,1,.385-.543l0,0,2.146,1.519,0,0a.334.334,0,0,1-.386.545Z" transform="translate(-761.805 -121.819)" fill="#f89f1b"/>
        <path id="Path_122" data-name="Path 122" d="M866.857,119.414l-2.247-1.332-.018-.011a.33.33,0,0,1,.336-.568l2.284,1.352a.331.331,0,0,1-.337.57h0Z" transform="translate(-746.884 -112.337)" fill="#f89f1b"/>
        <path id="Path_123" data-name="Path 123" d="M846.307,109.393l-2.4-1.037-.019-.008a.327.327,0,0,1,.26-.6l2.436,1.051a.328.328,0,1,1-.26.6h0Z" transform="translate(-730.907 -104.835)" fill="#f89f1b"/>
        <path id="Path_124" data-name="Path 124" d="M824.652,102.057l-2.51-.725-.02-.006a.325.325,0,0,1,.18-.624l2.55.734a.326.326,0,0,1-.18.626h0Z" transform="translate(-714.107 -99.419)" fill="#f89f1b"/>
        <path id="Path_125" data-name="Path 125" d="M802.243,97.524l-2.581-.4-.02,0a.322.322,0,0,1,.1-.637l2.622.405a.323.323,0,0,1-.1.639h0Z" transform="translate(-696.758 -96.175)" fill="#f89f1b"/>
        <path id="Path_126" data-name="Path 126" d="M779.439,95.864l-2.611-.072h-.02a.319.319,0,0,1,.017-.638l2.652.07a.321.321,0,0,1-.017.641h-.021Z" transform="translate(-679.136 -95.153)" fill="#f89f1b"/>
        <path id="Path_127" data-name="Path 127" d="M756.609,96.211l-2.6.26-.02,0a.317.317,0,0,1-.063-.63l2.639-.266a.318.318,0,0,1,.064.633h0Z" transform="translate(-661.527 -95.478)" fill="#f89f1b"/>
        <path id="Path_128" data-name="Path 128" d="M734.117,99.223l-2.545.588-.02,0a.314.314,0,0,1-.142-.612l2.584-.6a.315.315,0,0,1,.143.615h0Z" transform="translate(-644.212 -97.805)" fill="#f89f1b"/>
        <path id="Path_129" data-name="Path 129" d="M712.33,105.092l-2.45.906-.019.007a.312.312,0,0,1-.216-.584l2.487-.923a.313.313,0,0,1,.218.587h0Z" transform="translate(-627.474 -102.338)" fill="#f89f1b"/>
        <path id="Path_130" data-name="Path 130" d="M691.646,113.725l-2.3,1.232-.02.011a.309.309,0,0,1-.292-.545l2.339-1.255a.31.31,0,1,1,.293.546h0Z" transform="translate(-611.625 -109.004)" fill="#f89f1b"/>
        <path id="Path_131" data-name="Path 131" d="M672.536,125.247l-2.113,1.535-.016.011a.306.306,0,1,1-.36-.5l2.143-1.56a.308.308,0,1,1,.362.5h0Z" transform="translate(-597.026 -117.901)" fill="#f89f1b"/>
        <path id="Path_132" data-name="Path 132" d="M655.148,139.274l-1.913,1.78-.013.012a.3.3,0,0,1-.414-.444l1.938-1.806a.305.305,0,1,1,.416.446h0Z" transform="translate(-583.766 -128.729)" fill="#f89f1b"/>
        <path id="Path_133" data-name="Path 133" d="M639.6,155.354l-1.7,1.989-.011.013a.3.3,0,0,1-.458-.39l1.719-2.017a.3.3,0,1,1,.46.392h0Z" transform="translate(-571.938 -141.14)" fill="#f89f1b"/>
        <path id="Path_134" data-name="Path 134" d="M626.069,173.2l-1.458,2.171-.01.015a.3.3,0,0,1-.5-.332l1.475-2.2a.3.3,0,1,1,.5.334h0Z" transform="translate(-561.689 -154.909)" fill="#f89f1b"/>
        <path id="Path_135" data-name="Path 135" d="M614.833,192.585l-1.182,2.332-.008.017a.3.3,0,0,1-.528-.267l1.2-2.367a.3.3,0,0,1,.53.268h0Z" transform="translate(-553.236 -169.873)" fill="#f89f1b"/>
        <path id="Path_136" data-name="Path 136" d="M606.275,213.334l-.857,2.467-.007.02a.293.293,0,1,1-.554-.192l.868-2.508a.294.294,0,1,1,.556.193h0Z" transform="translate(-546.885 -185.888)" fill="#f89f1b"/>
        <path id="Path_137" data-name="Path 137" d="M600.9,235.22l-.47,2.566,0,.024a.29.29,0,0,1-.571-.1l.476-2.613a.292.292,0,1,1,.574.1h0Z" transform="translate(-543.04 -202.783)" fill="#f89f1b"/>
        <path id="Path_138" data-name="Path 138" d="M599.3,257.868l-.016,2.6v.027a.288.288,0,1,1-.575,0l.014-2.658a.289.289,0,0,1,.578,0h0Z" transform="translate(-542.16 -220.271)" fill="#f89f1b"/>
        <path id="Path_139" data-name="Path 139" d="M600.3,280.7l.488,2.557.006.028a.285.285,0,0,1-.56.107l-.5-2.613a.286.286,0,0,1,.563-.108h0Z" transform="translate(-542.945 -237.905)" fill="#f89f1b"/>
        <path id="Path_140" data-name="Path 140" d="M605.727,302.9l1,2.405.011.026a.282.282,0,1,1-.522.216l-1.021-2.457a.284.284,0,1,1,.524-.218h0Z" transform="translate(-547.139 -255.053)" fill="#f89f1b"/>
        <path id="Path_141" data-name="Path 141" d="M615.729,323.468a13.251,13.251,0,0,0,1.639,1.986.28.28,0,0,1-.394.4,13.834,13.834,0,0,1-1.711-2.069.282.282,0,0,1,.466-.316Z" transform="translate(-554.878 -270.961)" fill="#f89f1b"/>
        <path id="Path_142" data-name="Path 142" d="M631.918,339.361a11.09,11.09,0,0,0,2.314,1.1.278.278,0,0,1-.179.526,11.669,11.669,0,0,1-2.432-1.156.279.279,0,0,1,.3-.473Z" transform="translate(-567.417 -283.268)" fill="#f89f1b"/>
        <path id="Path_143" data-name="Path 143" d="M653.331,346.638a12.19,12.19,0,0,0,2.57-.012.275.275,0,0,1,.06.547,12.75,12.75,0,0,1-2.686.015.276.276,0,0,1,.056-.55Z" transform="translate(-584.01 -288.896)" fill="#f89f1b"/>
        <path id="Path_144" data-name="Path 144" d="M675.885,340.885a14.307,14.307,0,0,0,2.382-.992.272.272,0,0,1,.254.482,14.854,14.854,0,0,1-2.472,1.032.274.274,0,1,1-.164-.522Z" transform="translate(-601.473 -283.686)" fill="#f89f1b"/>
        <path id="Path_145" data-name="Path 145" d="M696.022,327.786a15.559,15.559,0,0,0,1.909-1.741.27.27,0,0,1,.4.367,16.071,16.071,0,0,1-1.973,1.8.271.271,0,0,1-.331-.429Z" transform="translate(-617.054 -272.974)" fill="#f89f1b"/>
        <path id="Path_146" data-name="Path 146" d="M711.479,309.322l.656-1.117a12.8,12.8,0,0,0,.6-1.151l.008-.016a.267.267,0,0,1,.478.239,13.338,13.338,0,0,1-.615,1.186l-.677,1.155a.268.268,0,1,1-.462-.271h0Z" transform="translate(-629.004 -258.284)" fill="#f89f1b"/>
        <path id="Path_147" data-name="Path 147" d="M721.02,287.708a14.751,14.751,0,0,0,.491-2.539.265.265,0,0,1,.526.053,15.235,15.235,0,0,1-.506,2.631.266.266,0,0,1-.511-.145Z" transform="translate(-636.387 -241.366)" fill="#f89f1b"/>
        <path id="Path_148" data-name="Path 148" d="M721.625,265.112a13.288,13.288,0,0,0-.479-2.533.262.262,0,0,1,.5-.147,13.8,13.8,0,0,1,.5,2.633.263.263,0,1,1-.524.048Z" transform="translate(-636.483 -223.886)" fill="#f89f1b"/>
        <path id="Path_149" data-name="Path 149" d="M712.272,244.5a15.115,15.115,0,0,0-1.367-2.194.259.259,0,0,1,.415-.311,15.636,15.636,0,0,1,1.416,2.268.261.261,0,0,1-.464.236Z" transform="translate(-628.561 -208.209)" fill="#f89f1b"/>
        <path id="Path_150" data-name="Path 150" d="M696.645,228.029a18.639,18.639,0,0,0-1.978-1.679.257.257,0,0,1,.3-.413,19.18,19.18,0,0,1,2.035,1.724.258.258,0,1,1-.361.369Z" transform="translate(-616.01 -195.875)" fill="#f89f1b"/>
        <path id="Path_151" data-name="Path 151" d="M677.107,216.365a22.115,22.115,0,0,0-2.343-1.128.254.254,0,0,1,.193-.47,22.619,22.619,0,0,1,2.4,1.152.255.255,0,1,1-.248.446Z" transform="translate(-600.635 -187.293)" fill="#f89f1b"/>
        <path id="Path_152" data-name="Path 152" d="M655.324,209.406c-.833-.242-1.694-.4-2.54-.6l-.02,0a.258.258,0,1,1,.121-.5h0c.859.21,1.724.379,2.577.624a.253.253,0,1,1-.137.487Z" transform="translate(-583.655 -182.318)" fill="#f89f1b"/>
        <path id="Path_153" data-name="Path 153" d="M632.652,206.021l-2.6-.251-.017,0a.272.272,0,0,1,.052-.542h0l2.636.269a.265.265,0,0,1-.052.528Z" transform="translate(-566.104 -179.956)" fill="#f89f1b"/>
        <path id="Path_154" data-name="Path 154" d="M609.723,205.331l-2.615.064h-.017a.287.287,0,1,1-.014-.574h0l2.648-.05a.28.28,0,0,1,.012.559Z" transform="translate(-548.392 -179.608)" fill="#f89f1b"/>
        <path id="Path_155" data-name="Path 155" d="M586.884,206.437l-2.593.353-.016,0a.3.3,0,1,1-.081-.6h0l2.626-.343a.294.294,0,0,1,.078.583Z" transform="translate(-530.777 -180.438)" fill="#f89f1b"/>
        <path id="Path_156" data-name="Path 156" d="M564.4,210.033l-2.54.626-.016,0a.316.316,0,1,1-.151-.614h0l2.576-.62a.309.309,0,0,1,.146.6Z" transform="translate(-513.46 -183.189)" fill="#f89f1b"/>
        <path id="Path_157" data-name="Path 157" d="M542.536,216l-2.458.894-.017.006a.331.331,0,1,1-.226-.622h0l2.5-.892a.323.323,0,0,1,.219.609Z" transform="translate(-496.635 -187.773)" fill="#f89f1b"/>
        <path id="Path_158" data-name="Path 158" d="M521.57,224.321l-2.339,1.164-.018.009a.345.345,0,0,1-.308-.618h0l2.381-1.169a.338.338,0,0,1,.3.606Z" transform="translate(-480.529 -194.169)" fill="#f89f1b"/>
        <path id="Path_159" data-name="Path 159" d="M501.879,235.04l-2.176,1.44-.017.011a.36.36,0,0,1-.4-.6h0l2.22-1.451a.353.353,0,0,1,.387.589Z" transform="translate(-465.44 -202.42)" fill="#f89f1b"/>
        <path id="Path_160" data-name="Path 160" d="M483.642,248.1l-2.016,1.665-.013.011a.375.375,0,1,1-.477-.578h0l2.053-1.676a.367.367,0,0,1,.466.568Z" transform="translate(-451.473 -212.482)" fill="#f89f1b"/>
        <path id="Path_161" data-name="Path 161" d="M466.744,262.985l-1.869,1.832-.011.01a.389.389,0,0,1-.545-.556l0,0,1.9-1.842a.382.382,0,0,1,.533.547Z" transform="translate(-438.533 -223.945)" fill="#f89f1b"/>
        <path id="Path_162" data-name="Path 162" d="M451.065,279.234,449.33,281.2l-.009.01a.4.4,0,0,1-.6-.534v0l1.763-1.973a.4.4,0,0,1,.592.527Z" transform="translate(-426.524 -236.461)" fill="#f89f1b"/>
        <path id="Path_163" data-name="Path 163" d="M436.5,296.554l-1.612,2.066-.008.009a.417.417,0,1,1-.657-.513v0l1.637-2.076a.41.41,0,0,1,.646.506Z" transform="translate(-415.37 -249.803)" fill="#f89f1b"/>
        <path id="Path_164" data-name="Path 164" d="M422.984,314.741l-1.495,2.153-.007.009a.431.431,0,0,1-.708-.491v0l1.519-2.164a.424.424,0,0,1,.7.485Z" transform="translate(-405.014 -263.812)" fill="#f89f1b"/>
        <path id="Path_165" data-name="Path 165" d="M410.46,333.656l-1.382,2.228-.006.009a.445.445,0,0,1-.755-.469v0l1.406-2.239a.438.438,0,0,1,.742.464Z" transform="translate(-395.424 -278.383)" fill="#f89f1b"/>
        <path id="Path_166" data-name="Path 166" d="M398.916,353.205l-1.27,2.294-.005.01a.458.458,0,1,1-.8-.444v0l1.293-2.307a.451.451,0,0,1,.789.439Z" transform="translate(-386.589 -293.443)" fill="#f89f1b"/>
        <path id="Path_167" data-name="Path 167" d="M388.368,373.321l-1.154,2.354-.005.01a.472.472,0,0,1-.848-.415v0l1.177-2.369a.465.465,0,0,1,.834.411Z" transform="translate(-378.523 -308.94)" fill="#f89f1b"/>
        <path id="Path_168" data-name="Path 168" d="M378.868,393.959l-1.031,2.41-.005.012a.486.486,0,0,1-.893-.382v0l1.053-2.428a.479.479,0,0,1,.88.379Z" transform="translate(-371.27 -324.842)" fill="#f89f1b"/>
        <path id="Path_169" data-name="Path 169" d="M370.516,415.085l-.893,2.463-.005.014a.5.5,0,1,1-.939-.341v0l.916-2.485a.493.493,0,0,1,.925.338Z" transform="translate(-364.914 -341.122)" fill="#f89f1b"/>
        <path id="Path_170" data-name="Path 170" d="M363.484,436.679l-.733,2.511-.005.017a.513.513,0,0,1-.986-.287v0l.756-2.542a.506.506,0,0,1,.971.286Z" transform="translate(-359.591 -357.766)" fill="#f89f1b"/>
        <path id="Path_171" data-name="Path 171" d="M358.06,458.711l-.534,2.554,0,.018a.526.526,0,0,1-1.031-.213c.177-.867.371-1.731.556-2.6a.52.52,0,1,1,1.017.217Z" transform="translate(-355.539 -374.753)" fill="#f89f1b"/>
        <path id="Path_172" data-name="Path 172" d="M354.651,481.18l-.306,2.59,0,.025a.521.521,0,0,1-1.035-.121l.307-2.64a.524.524,0,1,1,1.04.121h0Z" transform="translate(-353.091 -392.094)" fill="#f89f1b"/>
        <path id="Path_173" data-name="Path 173" d="M353.454,503.985l-.044,2.606v.028a.516.516,0,0,1-1.031-.017l.039-2.661a.518.518,0,0,1,1.037.016h0Z" transform="translate(-352.379 -409.706)" fill="#f89f1b"/>
        <path id="Path_174" data-name="Path 174" d="M353.847,526.881l.24,2.593,0,.029a.511.511,0,0,1-1.017.1l-.251-2.65a.513.513,0,1,1,1.022-.1h0Z" transform="translate(-352.719 -427.393)" fill="#f89f1b"/>
        <path id="Path_175" data-name="Path 175" d="M356.628,549.6l.533,2.548.006.028a.505.505,0,0,1-.989.208l-.55-2.6a.508.508,0,0,1,.994-.21h0Z" transform="translate(-354.874 -444.944)" fill="#f89f1b"/>
        <path id="Path_176" data-name="Path 176" d="M361.979,571.842l.822,2.471.009.027a.5.5,0,0,1-.949.317l-.845-2.523a.5.5,0,1,1,.954-.319h0Z" transform="translate(-359.013 -462.127)" fill="#f89f1b"/>
        <path id="Path_177" data-name="Path 177" d="M369.831,593.349l1.091,2.366.011.024a.495.495,0,0,1-.9.415l-1.118-2.413a.5.5,0,0,1,.9-.419h0Z" transform="translate(-365.085 -478.741)" fill="#f89f1b"/>
        <path id="Path_178" data-name="Path 178" d="M379.987,613.875l1.332,2.242.012.021a.49.49,0,0,1-.842.5l-1.361-2.281a.492.492,0,1,1,.846-.5h0Z" transform="translate(-372.934 -494.595)" fill="#f89f1b"/>
        <path id="Path_179" data-name="Path 179" d="M392.176,633.272l1.539,2.109.013.017a.485.485,0,0,1-.782.572l-1.569-2.141a.487.487,0,1,1,.786-.576h0Z" transform="translate(-382.351 -509.573)" fill="#f89f1b"/>
        <path id="Path_180" data-name="Path 180" d="M406.1,651.475l1.713,1.974.012.014a.479.479,0,0,1-.724.629l-1.742-2a.482.482,0,1,1,.727-.633h0Z" transform="translate(-393.104 -523.626)" fill="#f89f1b"/>
        <path id="Path_181" data-name="Path 181" d="M421.462,668.487l1.855,1.842.011.011a.474.474,0,0,1-.668.674l-1.882-1.861a.477.477,0,1,1,.671-.678h0Z" transform="translate(-404.968 -536.756)" fill="#f89f1b"/>
        <path id="Path_182" data-name="Path 182" d="M438,684.346l1.973,1.72.011.009a.469.469,0,0,1-.616.708l-2-1.735a.472.472,0,1,1,.618-.712h0Z" transform="translate(-417.735 -548.994)" fill="#f89f1b"/>
        <path id="Path_183" data-name="Path 183" d="M455.515,699.143l2.07,1.607.01.007a.464.464,0,0,1-.568.733l-2.092-1.617a.466.466,0,1,1,.57-.738h0Z" transform="translate(-431.251 -560.41)" fill="#f89f1b"/>
        <path id="Path_184" data-name="Path 184" d="M473.822,712.962l2.149,1.5.009.006a.459.459,0,0,1-.525.752l-2.169-1.511a.461.461,0,0,1,.527-.757h0Z" transform="translate(-445.377 -571.068)" fill="#f89f1b"/>
        <path id="Path_185" data-name="Path 185" d="M492.78,725.923l2.2,1.452a.453.453,0,1,1-.5.758l-2.2-1.449a.456.456,0,0,1,.5-.762Z" transform="translate(-460.003 -581.064)" fill="#f89f1b"/>
        <path id="Path_186" data-name="Path 186" d="M511.976,738.55l2.2,1.44a.448.448,0,0,1-.489.751l-2.208-1.437a.451.451,0,0,1,.492-.756Z" transform="translate(-474.801 -590.794)" fill="#f89f1b"/>
        <path id="Path_187" data-name="Path 187" d="M531.212,751.1l2.2,1.441a.443.443,0,0,1-.485.742l-2.205-1.436a.446.446,0,1,1,.485-.748Z" transform="translate(-489.627 -600.462)" fill="#f89f1b"/>
        <path id="Path_188" data-name="Path 188" d="M550.417,763.672l2.2,1.454a.438.438,0,1,1-.484.73l-2.195-1.448a.44.44,0,1,1,.482-.737Z" transform="translate(-504.428 -610.15)" fill="#f89f1b"/>
        <path id="Path_189" data-name="Path 189" d="M569.523,776.384l2.179,1.479a.433.433,0,1,1-.486.716h0l-2.176-1.472,0,0a.435.435,0,1,1,.488-.721Z" transform="translate(-519.152 -619.942)" fill="#f89f1b"/>
        <path id="Path_190" data-name="Path 190" d="M588.47,789.345l2.156,1.519a.427.427,0,0,1-.492.7l0,0-2.152-1.509,0,0a.43.43,0,0,1,.494-.7Z" transform="translate(-533.751 -629.925)" fill="#f89f1b"/>
        <path id="Path_191" data-name="Path 191" d="M607.174,802.654l2.12,1.567a.422.422,0,1,1-.5.679l0,0-2.115-1.556,0,0a.425.425,0,0,1,.5-.685Z" transform="translate(-548.162 -640.176)" fill="#f89f1b"/>
        <path id="Path_192" data-name="Path 192" d="M625.552,816.408l2.078,1.627a.417.417,0,0,1-.514.657l0,0-2.071-1.615-.005,0a.42.42,0,1,1,.516-.661Z" transform="translate(-562.32 -650.767)" fill="#f89f1b"/>
        <path id="Path_193" data-name="Path 193" d="M643.557,830.677l2.035,1.673a.412.412,0,1,1-.523.636l0,0-2.031-1.663,0,0a.414.414,0,0,1,.525-.641Z" transform="translate(-576.192 -661.757)" fill="#f89f1b"/>
        <path id="Path_194" data-name="Path 194" d="M661.2,845.36l1.99,1.734a.407.407,0,0,1-.534.613l0,0-1.983-1.721-.005,0a.409.409,0,1,1,.536-.618Z" transform="translate(-589.788 -673.065)" fill="#f89f1b"/>
        <path id="Path_195" data-name="Path 195" d="M678.393,860.6l1.922,1.812a.4.4,0,0,1-.55.584l-.006-.005-1.913-1.8-.006-.006a.4.4,0,0,1,.553-.589Z" transform="translate(-603.029 -684.799)" fill="#f89f1b"/>
        <path id="Path_196" data-name="Path 196" d="M694.939,876.541l1.831,1.907a.4.4,0,0,1-.571.549l-.007-.008-1.82-1.887-.008-.008a.4.4,0,1,1,.574-.553Z" transform="translate(-615.772 -697.071)" fill="#f89f1b"/>
        <path id="Path_197" data-name="Path 197" d="M710.627,893.33l1.712,2.018a.391.391,0,1,1-.6.506l-.008-.01-1.7-1.994-.008-.01a.393.393,0,1,1,.6-.51Z" transform="translate(-627.853 -709.993)" fill="#f89f1b"/>
        <path id="Path_198" data-name="Path 198" d="M725.2,911.1l1.557,2.142a.386.386,0,0,1-.624.454l-.009-.012-1.543-2.114-.009-.013a.388.388,0,0,1,.627-.458Z" transform="translate(-639.071 -723.67)" fill="#f89f1b"/>
        <path id="Path_199" data-name="Path 199" d="M738.327,929.965l1.36,2.275a.38.38,0,1,1-.653.39l-.009-.016-1.345-2.24-.01-.016a.383.383,0,0,1,.657-.394Z" transform="translate(-649.18 -738.181)" fill="#f89f1b"/>
        <path id="Path_200" data-name="Path 200" d="M749.643,949.96l1.113,2.407a.371.371,0,0,1-.672.313l-.009-.019-1.108-2.364-.009-.019a.378.378,0,0,1,.684-.32Z" transform="translate(-657.891 -753.561)" fill="#f89f1b"/>
        <path id="Path_201" data-name="Path 201" d="M758.77,971.087l.824,2.521a.356.356,0,0,1-.676.223l-.007-.021-.824-2.475-.007-.021a.363.363,0,0,1,.69-.229Z" transform="translate(-664.932 -769.814)" fill="#f89f1b"/>
        <path id="Path_202" data-name="Path 202" d="M765.316,993.152l.5,2.606a.341.341,0,0,1-.67.131l0-.022-.506-2.56,0-.022a.349.349,0,1,1,.684-.135Z" transform="translate(-669.989 -786.789)" fill="#f89f1b"/>
        <path id="Path_203" data-name="Path 203" d="M769.023,1015.87l.163,2.649a.327.327,0,0,1-.653.042v-.021l-.175-2.606v-.021a.334.334,0,1,1,.667-.045Z" transform="translate(-672.863 -804.268)" fill="#f89f1b"/>
        <path id="Path_204" data-name="Path 204" d="M769.153,1038.879l-.193,2.64a.313.313,0,0,1-.624-.044v-.016l.176-2.608v-.018a.32.32,0,1,1,.638.043Z" transform="translate(-672.848 -821.972)" fill="#f89f1b"/>
        <path id="Path_205" data-name="Path 205" d="M766.237,1061.787l-.431,2.611a.3.3,0,0,1-.589-.1l0-.013.412-2.587,0-.013a.305.305,0,0,1,.6.1Z" transform="translate(-670.443 -839.613)" fill="#f89f1b"/>
        <path id="Path_206" data-name="Path 206" d="M761.289,1084.409l-.672,2.561a.283.283,0,0,1-.549-.142l0-.015.651-2.536,0-.014a.291.291,0,1,1,.563.145Z" transform="translate(-666.471 -857.034)" fill="#f89f1b"/>
        <path id="Path_207" data-name="Path 207" d="M753.837,1106.494l-1,2.46a.269.269,0,0,1-.5-.2l.008-.021.967-2.425.008-.02a.276.276,0,0,1,.513.2Z" transform="translate(-660.51 -874.037)" fill="#f89f1b"/>
        <path id="Path_208" data-name="Path 208" d="M742.639,1127.456a17.777,17.777,0,0,1-1.518,2.2.254.254,0,0,1-.4-.321,17.258,17.258,0,0,0,1.462-2.141.262.262,0,0,1,.452.264Z" transform="translate(-651.533 -890.176)" fill="#f89f1b"/>
        <path id="Path_209" data-name="Path 209" d="M725.381,1145.108a8.783,8.783,0,0,1-2.346,1.335.24.24,0,0,1-.169-.449,8.287,8.287,0,0,0,2.209-1.274.247.247,0,0,1,.307.388Z" transform="translate(-637.697 -903.739)" fill="#f89f1b"/>
      </g>
    </g>
  </g>
</svg>
