<svg xmlns="http://www.w3.org/2000/svg" width="383.316" height="625.838" viewBox="0 0 383.316 625.838">
  <g id="south-america" transform="translate(-512.58 -4809.822)">
    <g id="Group_568" data-name="Group 568" transform="translate(513.495 4834.735)" opacity="0.07">
      <path id="Path_8920" data-name="Path 8920" d="M711.945,5048.328v9.752s1.8,7.18,0,9.461-2,4.125,0,5.658a9.707,9.707,0,0,1,3.612,6.35c.542,2.809-2.667,4.4,1.761,5.25s.844-3.923,6.091,0,5.141,2.822,8.248,6,3.808,4.938,3.808,4.938,4.256.649,5.444,3.159,4.219,9.056,5.158,10.872-3.228,1.01,0,5.444.412,8.7,0,10.359a23.8,23.8,0,0,1-2.185,4.59s-11.954,12.2-12.225,13.747-4.7,5.816-5.272,7.955,5.272,5.132,5.272,5.132l9.252,1.912s-3.589.967,0,2.542,7.057,3.2,7.057,3.2,16.38,8.373,18.338,6.925,4.512-3.46,5.111-5.076-1.186-5.044,2.306-9.5-1.6,6.408,5.356-5.132,6.926-8.6,7.044-15.391-.542-8.484,0-10.9-.634-4.53,0-8.193-3.139-3.761,2-7.61,1.468-5.67,10.455-10.872-5.19-3.541,11.352-8.1,18.6-3.36,21.851-6,4.365.906,7.812-8.56.192-3.732,4.459-16.008,6.318-17,7.76-21.9,1.561-4.694,0-14.725-3.007-12.388-2.091-16.09-10.3,13.7,4.852-7.666,25.405-20.276,25.405-21.772-.668-15,0-18.822.881-9.9,0-12.462-3.641-4.057-5.94-4.3-5.689,1.69-8.628,0-6.015-5.1-15.689-10.261-16.06-7.62-17.94-7.62-6.9-.212-9.08,0a35.979,35.979,0,0,1-8.126,0c-2.8-.4-5.612,3.718-8.194,0s12.006.354-3.978-6.42-19.378-6.942-19.378-6.942a12.455,12.455,0,0,0-9.3,3.04c-4.166,3.752,0-7.71,0-7.71l-7.417-1.993s-2.438.542-7.9,3.736-3.266,4.522-10.439,5.967a62.5,62.5,0,0,0-12.5,3.9s7.3-9.29,10.6-11.613,6.694-5.45,8.171-5.922,9.2-10.336,9.2-10.336v-5.654s-2.992-8.929-5.028-10.493,8.276-14.866-4.167-4.166-22.581,11.772-22.581,11.772H729.52s.054-3.1-3.135,0-7.085,7.312-14.439,8.541-9.654,0-9.654,0a3.89,3.89,0,0,0-3.248,0c-1.772.794-1.991,7.764-6.266-2.484s-3.947-12.321-3.76-13.663,0-5.853,0-5.853.587-5.8-5.618-2.39-9.53,4.077-9.53,4.077-3.223-.818-5.486,0-9.687-1.687-9.687-1.687-7.4-.2-5.172,5.853,3.522,7.607,3.522,7.607,1.288-.036,1.651,2.886-5.172,9.2-5.172,9.2a24.086,24.086,0,0,1-2.41,2.9c-2.3,2.611-19.657-6.449-19.657-6.449s-1.134-2.885-2.773-2.484-.339-2.13-4.366,0-2.214-3.479-5.516,2.484-6.511,10.109-7.2,12.611,3.272,9.491,3.854,11.357,0,6.762,0,6.762,1.592-3.91,0,3.56-4.574,8.342-3.854,9.63-12.48,6.563-13.645,8.251-4.159-.526-7.749,4.3-4.367,5.621-4.825,9.382.226,2.838,0,8.673,2.719,6.566,4.825,11.465,4.983,8.5,7.749,9.822,6.142-.208,9.748,2.355,6.387,3.534,7.751,4.515,25.007-6.87,25.007-6.87-1.1-1.075,1.935,0,.711-3.2,4.674,2.355,10.7,15.227,11.621,17.125-.433-1.5,5.445,1.9,17.955,7.722,19.258,9.237,5.494,2.615,9.378,6.853.679,8.216,3.419,10.7,2.591,1.614,6.1,4.026S711.945,5048.328,711.945,5048.328Z" transform="translate(-523.252 -4800.064)" fill="none" stroke="#151515" stroke-linecap="round" stroke-linejoin="round" stroke-width="2"/>
      <path id="Path_8921" data-name="Path 8921" d="M613.7,4971.864s-2.56,6.847-1.385,7.633,2.6,1.765,4.028,5.1.028,7.951,0,13.226,1.7,7.136,2.638,10.293-.417,5.908,0,7.289.794-.162,0,5.561-3.835,7.373-2.638,9.3,3.121.17,5.046,5.624a99.655,99.655,0,0,1,3.077,10.846s3.231,4.177,2.93,6.5-.8,1.971,0,3.425,1.9,3.943,4.153,8.937,4.285,6.565,5.6,7.582.584,1.959,3.546,0a22.9,22.9,0,0,0,5.055-4.765l7.438-2.817s1.478,0,3.7,2.817,1.381,2.923,4.467,1.822,10.978-1.822,10.978-1.822-.229-1.4,1.411-6.2,2.263-9.05,2.89-10.67.2-3.238,2.5-4.81,1.746-2.18,3.751-2.88,4.838-1.923,7.727-1.766,3.29-2.038,5.976,0a72.156,72.156,0,0,0,7.16,4.646" transform="translate(-517.948 -4778.876)" fill="none" stroke="#151515" stroke-linecap="round" stroke-linejoin="round" stroke-width="2"/>
      <path id="Path_8922" data-name="Path 8922" d="M662.553,5052.146l6.262,2.851s2.958,3.888,3.619,4.74,1.08,1.164,5.032,3.137,4.776,1.845,6.786,3.048,1.189.484,5.677,2.5,6.486,2.073,10.164,2.957,5.882,3.068,5.98,4.682.095,2.107-2.3,5.012-4.4,2.711-3.681,4.1,1.62,1.816,3.681,3.5-3.3,1.631,2.3,1.631,5.715.688,10.756,0,4.825-1.423,6.2-1.631,1.593-.771,2.41-2.213,1.777-1.749,2.667-4.282a29.8,29.8,0,0,1,1.843-4.236l1.328-1.884" transform="translate(-507.94 -4762.979)" fill="none" stroke="#151515" stroke-linecap="round" stroke-linejoin="round" stroke-width="2"/>
      <path id="Path_8923" data-name="Path 8923" d="M704.416,5109.3s1.152-.728,0,1.206-2.422,2.245-2.422,6.388,1.838,6.128,2.422,9.49a21.8,21.8,0,0,1,0,8.422c-.5,2.481-1.373,3.32,0,5.244s7.882,4.036,11.38,4.258,3.374-.643,7.972,0,7.779,3.132,11.084-1.228,2.178-3,5.12-6.769,3.546-4.354,3.733-5.767,0-8.089,0-8.089" transform="translate(-500.129 -4751.688)" fill="none" stroke="#151515" stroke-linecap="round" stroke-linejoin="round" stroke-width="2"/>
      <path id="Path_8924" data-name="Path 8924" d="M637.617,5057.385s-1.466,1.43,0,5.14,1.006,4.862-1.826,7.379-3.822,1.955-5.092,4.165-2.912,1.35-1.776,5.268.054,4.73,1.776,9.688,3.7,5.536,1.722,9.143-1.212,7.181-3.5,11.164-2.635,4.687-2.635,6.552v9.464c0,4.454,1.827,8.743,2.635,13.254s1.011,1.972,1.776,5.79.619,8.107,1.722,9.285,3.369,8.435,3.369,8.435,2.156,1.111,0,3.334-2.141,6.626-3.369,10.166-2.411,5.374-1.722,7.555-.991-2.3,1.722,4.88,3.369,9.227,3.369,9.227,1.887,1.365,0,3.387-3.369,9.755-3.369,9.755,3.2.52,3.369,3.586-1.414,8.083,0,12.035,2.637,7.09,3.856,11.708.624,5.924,1.735,7.75,2,2.1,3.028,6.813a63.461,63.461,0,0,0,2.652,8.822s-1.872-.441,0,2.868,4.293,14.418,3.9,15.808-1.35,6.5-2.012,10.524-1.265,4.46,0,9.53.367,12.023,2.012,13.819,1.548,3.276,4.487,6.855,1.613,2.11,3.81,5.015-.511,4.964,4.169,5.074,12.269.017,13.461,0,1.323-1.821,2.686,0,2.168-2.993,0-7.215-.889-2.263-2.686-7.939-1.626-7.036-1.626-7.036h4.312s6.272,2.228,5.075,0,0-14.475,0-14.475a27.041,27.041,0,0,0,3.64-3.628c2.2-2.543,6.937,2.692,3.786-5.332s-4.924-9.942-7.426-11.657-7.761-4.536-7.761-4.536-3.087-2.11-1.626-4.807,6.193,3.887,9.388-5.25-1.512-9.814,0-10.887,0-2.367,0-2.367a60.292,60.292,0,0,0,3.64-5.373c.8-1.577,3.786-6.374,3.786-6.374v-3.262l-3.786-4.45-8.715-7.383h12.5s3.607,5.426,6.684,1.77,6.8-5.414,5.059-6.421,3.313.846,0-3.586S700.3,5199.1,700.3,5199.1s2.1-3.1,8.116-4.59,11.1-3.037,14.06-3.965,3.628.351,4.154-2.5-.411,1.287,2.916-4.88,3.809-9.905,2.008-10.94a3.73,3.73,0,0,1-2.008-2.325l-7.07-11.378s1.827-.478,0-2.709a7.848,7.848,0,0,1-1.827-4.541" transform="translate(-515.121 -4761.941)" fill="none" stroke="#151515" stroke-linecap="round" stroke-linejoin="round" stroke-width="2"/>
      <path id="Path_8925" data-name="Path 8925" d="M703.854,5309.41s-.426,2.81-5.02,3.393-4.612,3.916-10.331,0-8.006-10.971-8.741-12.362,0-3.73,0-3.73,5.3-.1,8.741,3.73.284,3.478,4.786,5.726A43.763,43.763,0,0,0,703.854,5309.41Z" transform="translate(-504.596 -4714.55)" fill="none" stroke="#151515" stroke-linecap="round" stroke-linejoin="round" stroke-width="2"/>
      <path id="Path_8926" data-name="Path 8926" d="M676.507,5290.3s-1.93,3.551,0,5.385-1.237,1.107,0,3.585-2.6,1.092,0,3.737a20.456,20.456,0,0,1,3.568,4.593s3.121,2.172,0,2.562-8.716-2.562-8.716-2.562-3.785,2.846-1.388-1.695,3.042-7.227,1.388-6.635-4.021,5.922-3.966,0-.487-5.5,2.579-6.261a31.678,31.678,0,0,0,6.535-2.709" transform="translate(-506.982 -4715.821)" fill="none" stroke="#151515" stroke-linecap="round" stroke-linejoin="round" stroke-width="2"/>
      <path id="Path_8927" data-name="Path 8927" d="M696.085,5387.907s-2.108-2.353-2.932,0-1.031.527-1.5,5.624,2.29,5.261,0,6.194-.262,3.033-3.546,0-3.084-2.873-4.385-6.194-2.307-4.265-3.715-3.432-2.147,4.439-3.9,0-.983-4.592-2.205-5.985.774-1.177-4.825-3.83-14.154-5.96-14.154-5.96-2.846,3.128,0-2.16,3.755-5.318,2.94-7.358-2.065-5.881-2.94-7.063-4.279-6.046-4.842-7.212.606-1.376,0-2.917-2-4.739-2-4.739v-2.521a11.822,11.822,0,0,0,3.41-2.482c.928-1.257-.751-1.844,0-4.373s-1.928-6.932-3.41-7.292-5.451-6.564-7.408-2-3.257-4.753-3.257-4.753-.4-2.427,3.257-1.392a32.512,32.512,0,0,1,7.408,3.114c.67.442,2.21,3.1,3.41,0s1.911-5.02,1.911-5.02-2.452-.767,0-4.185.468-7.43,0-9.046,1.219-.841,0-4.1-3.649-5.3-5.321-10.478a32.449,32.449,0,0,1-1.747-8.229s-.872.67,0-2.573-.572-5.578-2.491-3.622-6.428,0-6.428,0a4.479,4.479,0,0,1,0-2.537c.424-1.246-.839-.593,0-3.84s0-11.08,0-11.08,1.516-4.091,0-5.991a13.384,13.384,0,0,1-2.894-5.391c-.908-2.757-1.557-2.373-2.106-5.351a24.477,24.477,0,0,1,0-6.713s1.626-5.053,2.106-7.6-1.32-4.089,0-5.181a21.34,21.34,0,0,0,2.894-3.332s-.677-11.075,0-13.79-.939-4.32,0-7.761a12.073,12.073,0,0,0,0-7.346c-.57-2.393-2.2-10.79-2.894-12.63s0-7.492,0-7.492l-3.684-3.961,1.578-18.785s1.169-2.545,2.106-4.221-.624-3.881-2.106-8.164-.75-5.406-1.578-6.652,1.441-4.528,1.578-5.94.849-2.839,0-4.5-2.1-12.563-1.578-14.258-.332-3.252,0-4.988.746-2.942,0-4.558a46.556,46.556,0,0,1-1.739-5.611s1.034-1.99,0-3.382,1.45-3.844,0-5.5a7.909,7.909,0,0,1-1.83-4.847,22.574,22.574,0,0,0-1.427-5.655,16.258,16.258,0,0,0-1.578-2.963l-27.8-15.367-9.605-3.943s-6.727-9.607-7.476-10.88-2.075-.134-4.062-3.048,1.1-3.387-4.185-11.331-5.955-10.743-5.955-10.743l-2.03-3.345s-7.754-14.72-7.849-15.887-2.6-6.139-4.549-10.234-3.223-7.31-4.311-8.716a26.309,26.309,0,0,0-2.794-2.924s-1.052-.068-3.931-1.976-3.343-.332-4.305-3.011-2.768-3.361-1.453-5.013.125-2.965,0-6.606-1.467-3.521,1.453-5.79a21.126,21.126,0,0,0,4.305-4.333l3.931-1.446a4.1,4.1,0,0,0,0-3.529c-.935-1.676.814-3.751-1.35-5.047s-5.411-.583-5.486-1.636,9.63-17.461,9.63-17.461l5.668-7.34s-2.56.265,3.192,2.038.538-7.657,0-9.1,1.45-3.667,3-5.494-.067-.586,4.851-4.093,6.614-3.421,5.609-5.386-4.118-3.1-3.579-6.853-1.43-14.062,0-15.229,1.205-10.636,3.579-13.026a69.4,69.4,0,0,0,6.561-7.816c1.171-1.729,3.153-.632,4.062-4.993s3.24-9.708,4.508-10.894,1.662-2.746,6.276-4.462,9.833-3.1,11.479-4.122,6.865-3.7,6.865-3.7-2.586.729,3.014,0,5.391-.224,8.294,0a16.826,16.826,0,0,0,4,0s.147,1.722,1.315,2.184,7.75,5.892,10.074,7.127-5.231-.987,5.259,2.975,12.777,6.232,21.52,5.1,5.23-2.592,9.983-1.855,3.751-1.752,10.019,1.855,9.1,3.464,10.346,5.8,5.235,6.335,5.825,7.729-1.01,1.708,1.316,2.869-4.687,9.556-5.327,10.727-.695,5.114-1.815,7.1-.887,3.329,0,6,2.259,2.844,1.815,3.854,0,4.184,0,4.184" transform="translate(-533.495 -4810.775)" fill="none" stroke="#151515" stroke-linecap="round" stroke-linejoin="round" stroke-width="2"/>
      <path id="Path_8928" data-name="Path 8928" d="M627.417,4896.575s2.457-7.987,1.968-9.189-.427-3.524-1.968-6.81-2.395-3.93-2.073-6.608-1.09-3.053,0-6.509a31.53,31.53,0,0,1,2.073-5.237s-6.493,2.241-9.873,0-1.131-3.063-8.208-4.194-9.047-1.4-10.169-2.151-3.81-1.672-4.877-4.392.337-1.872-2.444-8.322-3.028-7.091-3.256-10.224-7.069-2.754,0-7.566,8.042-6.6,8.042-6.6,2.588-6.762,2.535,0-2.913,12.837,1.423,10.154,4.146-3.7,4.336-5.455-1.589-2.151,1.788-4.7,4.439-3.376,4.439-3.376l4.1-1.714" transform="translate(-523.218 -4810.199)" fill="none" stroke="#151515" stroke-linecap="round" stroke-linejoin="round" stroke-width="2"/>
      <path id="Path_8929" data-name="Path 8929" d="M615,4930.144s.3-4.834,0-5.617,1.349-5.286-4.322-5.916-11.021-.378-12.339,0-.144,1.393-2.731,0-5.206-5.771-6.418-7.164-5.679-3.863-6.484-4.967-.8-2.841-2.258-3.529,1.038-1.268-3.248-1.782a37.937,37.937,0,0,1-9.193-2.016c-2.467-.9-5.5-.513-7.208-1.856s-5.033-4.877-5.926-5.516-2.714-1.79-2.714-1.79" transform="translate(-529.8 -4795.088)" fill="none" stroke="#151515" stroke-linecap="round" stroke-linejoin="round" stroke-width="2"/>
      <path id="Path_8930" data-name="Path 8930" d="M539.948,4923.472s1.348,10.186,2.982,10.75,1.32.234,3.876.947,2.5,1.6,5.069,0,3.318-1.516,3.469-4.812a26.663,26.663,0,0,1,1.389-6.884c.393-1.473-3.681,1.377,1.412-2.736s6.838-5.405,10.48-6.618,3.588-.305,5.472-2.175,3.11-2.3,3.464-3.891-.664-2.97,0-4.508a17.831,17.831,0,0,0,.876-4.418" transform="translate(-532.217 -4793.279)" fill="none" stroke="#151515" stroke-linecap="round" stroke-linejoin="round" stroke-width="2"/>
      <path id="Path_8931" data-name="Path 8931" d="M672.434,4840.991a7.867,7.867,0,0,0,3.075,1.049c1.512.091,2.963-.092,3.88,0s.751-2.593,1.536,2.327.889,4.51.889,6.976,5.971,3.586,8.159,4.15,3.738-1.747,3.087,1.568-1.3,3.867-1.867,4.733-.8.32-1.22,2.544-3.324,4.082-4.039,4.9-1.667-1.511,1.207,2.779,1.391,3.543,2.831,6.542,2.672,2.771,3.087,5.237,1.849,2.855,1.617,4.118,1.34,1.666,0,4.263,0,3.468,0,3.468" transform="translate(-505.983 -4804.791)" fill="none" stroke="#151515" stroke-linecap="round" stroke-linejoin="round" stroke-width="2"/>
      <path id="Path_8932" data-name="Path 8932" d="M688.786,4856.52s2.16.4,2.652,0a6.625,6.625,0,0,1,3.284-1.167c1.207,0,.906-.988,2.156,0s.27.024,2.8,1.167,2.816.214,6.021,0,3.7-1.785,5.39,0-.18,2.527,0,4.477-.321,4.141,0,7.277-.366,3.107,0,4.742,1.84.451.841,3.005-2.087,6.88-2.087,6.88" transform="translate(-502.745 -4802.034)" fill="none" stroke="#151515" stroke-linecap="round" stroke-linejoin="round" stroke-width="2"/>
      <path id="Path_8933" data-name="Path 8933" d="M708.389,4857.953s-.264-.457,1.995,0,2.834-.79,3.505,0,2.744.691,5.024,1.971,9.437,3.6,9.632,4.23-2.541-2.16,0,1.5" transform="translate(-498.865 -4801.485)" fill="none" stroke="#151515" stroke-linecap="round" stroke-linejoin="round" stroke-width="2"/>
      <path id="Path_8934" data-name="Path 8934" d="M724.852,4864.337l1.677,5.67" transform="translate(-495.603 -4800.168)" fill="none" stroke="#151515" stroke-linecap="round" stroke-width="2"/>
      <path id="Path_8935" data-name="Path 8935" d="M719.713,5283.065s5.351-1.068,5.922-1.4,0-3.9,0-3.9a4.091,4.091,0,0,0-5.922,0c-3.075,2.938-3.757,3.258-1.551,3.9S719.713,5283.065,719.713,5283.065Z" transform="translate(-497.184 -4718.561)" fill="none" stroke="#151515" stroke-linecap="round" stroke-linejoin="round" stroke-width="2"/>
      <path id="Path_8936" data-name="Path 8936" d="M726.627,5284.211s3.619-2.114,4.278-2.467a5.78,5.78,0,0,0,2.084-1.682c.277-.583-.569-.772,0-1.6s.433-2,0-2.211-4.008-.553-3.646,0-.236,1.92,0,2.211,1.406.73,0,1.6S726.627,5284.211,726.627,5284.211Z" transform="translate(-495.252 -4718.66)" fill="none" stroke="#151515" stroke-linecap="round" stroke-linejoin="round" stroke-width="2"/>
    </g>
    <g id="Group_567" data-name="Group 567" transform="translate(537.456 4810.774)">
      <path id="Path_8920-2" data-name="Path 8920" d="M711.945,5048.328v9.752s1.8,7.18,0,9.461-2,4.125,0,5.658a9.707,9.707,0,0,1,3.612,6.35c.542,2.809-2.667,4.4,1.761,5.25s.844-3.923,6.091,0,5.141,2.822,8.248,6,3.808,4.938,3.808,4.938,4.256.649,5.444,3.159,4.219,9.056,5.158,10.872-3.228,1.01,0,5.444.412,8.7,0,10.359a23.8,23.8,0,0,1-2.185,4.59s-11.954,12.2-12.225,13.747-4.7,5.816-5.272,7.955,5.272,5.132,5.272,5.132l9.252,1.912s-3.589.967,0,2.542,7.057,3.2,7.057,3.2,16.38,8.373,18.338,6.925,4.512-3.46,5.111-5.076-1.186-5.044,2.306-9.5-1.6,6.408,5.356-5.132,6.926-8.6,7.044-15.391-.542-8.484,0-10.9-.634-4.53,0-8.193-3.139-3.761,2-7.61,1.468-5.67,10.455-10.872-5.19-3.541,11.352-8.1,18.6-3.36,21.851-6,4.365.906,7.812-8.56.192-3.732,4.459-16.008,6.318-17,7.76-21.9,1.561-4.694,0-14.725-3.007-12.388-2.091-16.09-10.3,13.7,4.852-7.666,25.405-20.276,25.405-21.772-.668-15,0-18.822.881-9.9,0-12.462-3.641-4.057-5.94-4.3-5.689,1.69-8.628,0-6.015-5.1-15.689-10.261-16.06-7.62-17.94-7.62-6.9-.212-9.08,0a35.979,35.979,0,0,1-8.126,0c-2.8-.4-5.612,3.718-8.194,0s12.006.354-3.978-6.42-19.378-6.942-19.378-6.942a12.455,12.455,0,0,0-9.3,3.04c-4.166,3.752,0-7.71,0-7.71l-7.417-1.993s-2.438.542-7.9,3.736-3.266,4.522-10.439,5.967a62.5,62.5,0,0,0-12.5,3.9s7.3-9.29,10.6-11.613,6.694-5.45,8.171-5.922,9.2-10.336,9.2-10.336v-5.654s-2.992-8.929-5.028-10.493,8.276-14.866-4.167-4.166-22.581,11.772-22.581,11.772H729.52s.054-3.1-3.135,0-7.085,7.312-14.439,8.541-9.654,0-9.654,0a3.89,3.89,0,0,0-3.248,0c-1.772.794-1.991,7.764-6.266-2.484s-3.947-12.321-3.76-13.663,0-5.853,0-5.853.587-5.8-5.618-2.39-9.53,4.077-9.53,4.077-3.223-.818-5.486,0-9.687-1.687-9.687-1.687-7.4-.2-5.172,5.853,3.522,7.607,3.522,7.607,1.288-.036,1.651,2.886-5.172,9.2-5.172,9.2a24.086,24.086,0,0,1-2.41,2.9c-2.3,2.611-19.657-6.449-19.657-6.449s-1.134-2.885-2.773-2.484-.339-2.13-4.366,0-2.214-3.479-5.516,2.484-6.511,10.109-7.2,12.611,3.272,9.491,3.854,11.357,0,6.762,0,6.762,1.592-3.91,0,3.56-4.574,8.342-3.854,9.63-12.48,6.563-13.645,8.251-4.159-.526-7.749,4.3-4.367,5.621-4.825,9.382.226,2.838,0,8.673,2.719,6.566,4.825,11.465,4.983,8.5,7.749,9.822,6.142-.208,9.748,2.355,6.387,3.534,7.751,4.515,25.007-6.87,25.007-6.87-1.1-1.075,1.935,0,.711-3.2,4.674,2.355,10.7,15.227,11.621,17.125-.433-1.5,5.445,1.9,17.955,7.722,19.258,9.237,5.494,2.615,9.378,6.853.679,8.216,3.419,10.7,2.591,1.614,6.1,4.026S711.945,5048.328,711.945,5048.328Z" transform="translate(-523.252 -4800.064)" fill="none" stroke="#151515" stroke-linecap="round" stroke-linejoin="round" stroke-width="2"/>
      <path id="Path_8921-2" data-name="Path 8921" d="M613.7,4971.864s-2.56,6.847-1.385,7.633,2.6,1.765,4.028,5.1.028,7.951,0,13.226,1.7,7.136,2.638,10.293-.417,5.908,0,7.289.794-.162,0,5.561-3.835,7.373-2.638,9.3,3.121.17,5.046,5.624a99.655,99.655,0,0,1,3.077,10.846s3.231,4.177,2.93,6.5-.8,1.971,0,3.425,1.9,3.943,4.153,8.937,4.285,6.565,5.6,7.582.584,1.959,3.546,0a22.9,22.9,0,0,0,5.055-4.765l7.438-2.817s1.478,0,3.7,2.817,1.381,2.923,4.467,1.822,10.978-1.822,10.978-1.822-.229-1.4,1.411-6.2,2.263-9.05,2.89-10.67.2-3.238,2.5-4.81,1.746-2.18,3.751-2.88,4.838-1.923,7.727-1.766,3.29-2.038,5.976,0a72.156,72.156,0,0,0,7.16,4.646" transform="translate(-517.948 -4778.876)" fill="none" stroke="#151515" stroke-linecap="round" stroke-linejoin="round" stroke-width="2"/>
      <path id="Path_8922-2" data-name="Path 8922" d="M662.553,5052.146l6.262,2.851s2.958,3.888,3.619,4.74,1.08,1.164,5.032,3.137,4.776,1.845,6.786,3.048,1.189.484,5.677,2.5,6.486,2.073,10.164,2.957,5.882,3.068,5.98,4.682.095,2.107-2.3,5.012-4.4,2.711-3.681,4.1,1.62,1.816,3.681,3.5-3.3,1.631,2.3,1.631,5.715.688,10.756,0,4.825-1.423,6.2-1.631,1.593-.771,2.41-2.213,1.777-1.749,2.667-4.282a29.8,29.8,0,0,1,1.843-4.236l1.328-1.884" transform="translate(-507.94 -4762.979)" fill="none" stroke="#151515" stroke-linecap="round" stroke-linejoin="round" stroke-width="2"/>
      <path id="Path_8923-2" data-name="Path 8923" d="M704.416,5109.3s1.152-.728,0,1.206-2.422,2.245-2.422,6.388,1.838,6.128,2.422,9.49a21.8,21.8,0,0,1,0,8.422c-.5,2.481-1.373,3.32,0,5.244s7.882,4.036,11.38,4.258,3.374-.643,7.972,0,7.779,3.132,11.084-1.228,2.178-3,5.12-6.769,3.546-4.354,3.733-5.767,0-8.089,0-8.089" transform="translate(-500.129 -4751.688)" fill="none" stroke="#151515" stroke-linecap="round" stroke-linejoin="round" stroke-width="2"/>
      <path id="Path_8924-2" data-name="Path 8924" d="M637.617,5057.385s-1.466,1.43,0,5.14,1.006,4.862-1.826,7.379-3.822,1.955-5.092,4.165-2.912,1.35-1.776,5.268.054,4.73,1.776,9.688,3.7,5.536,1.722,9.143-1.212,7.181-3.5,11.164-2.635,4.687-2.635,6.552v9.464c0,4.454,1.827,8.743,2.635,13.254s1.011,1.972,1.776,5.79.619,8.107,1.722,9.285,3.369,8.435,3.369,8.435,2.156,1.111,0,3.334-2.141,6.626-3.369,10.166-2.411,5.374-1.722,7.555-.991-2.3,1.722,4.88,3.369,9.227,3.369,9.227,1.887,1.365,0,3.387-3.369,9.755-3.369,9.755,3.2.52,3.369,3.586-1.414,8.083,0,12.035,2.637,7.09,3.856,11.708.624,5.924,1.735,7.75,2,2.1,3.028,6.813a63.461,63.461,0,0,0,2.652,8.822s-1.872-.441,0,2.868,4.293,14.418,3.9,15.808-1.35,6.5-2.012,10.524-1.265,4.46,0,9.53.367,12.023,2.012,13.819,1.548,3.276,4.487,6.855,1.613,2.11,3.81,5.015-.511,4.964,4.169,5.074,12.269.017,13.461,0,1.323-1.821,2.686,0,2.168-2.993,0-7.215-.889-2.263-2.686-7.939-1.626-7.036-1.626-7.036h4.312s6.272,2.228,5.075,0,0-14.475,0-14.475a27.041,27.041,0,0,0,3.64-3.628c2.2-2.543,6.937,2.692,3.786-5.332s-4.924-9.942-7.426-11.657-7.761-4.536-7.761-4.536-3.087-2.11-1.626-4.807,6.193,3.887,9.388-5.25-1.512-9.814,0-10.887,0-2.367,0-2.367a60.292,60.292,0,0,0,3.64-5.373c.8-1.577,3.786-6.374,3.786-6.374v-3.262l-3.786-4.45-8.715-7.383h12.5s3.607,5.426,6.684,1.77,6.8-5.414,5.059-6.421,3.313.846,0-3.586S700.3,5199.1,700.3,5199.1s2.1-3.1,8.116-4.59,11.1-3.037,14.06-3.965,3.628.351,4.154-2.5-.411,1.287,2.916-4.88,3.809-9.905,2.008-10.94a3.73,3.73,0,0,1-2.008-2.325l-7.07-11.378s1.827-.478,0-2.709a7.848,7.848,0,0,1-1.827-4.541" transform="translate(-515.121 -4761.941)" fill="none" stroke="#151515" stroke-linecap="round" stroke-linejoin="round" stroke-width="2"/>
      <path id="Path_8925-2" data-name="Path 8925" d="M703.854,5309.41s-.426,2.81-5.02,3.393-4.612,3.916-10.331,0-8.006-10.971-8.741-12.362,0-3.73,0-3.73,5.3-.1,8.741,3.73.284,3.478,4.786,5.726A43.763,43.763,0,0,0,703.854,5309.41Z" transform="translate(-504.596 -4714.55)" fill="none" stroke="#151515" stroke-linecap="round" stroke-linejoin="round" stroke-width="2"/>
      <path id="Path_8926-2" data-name="Path 8926" d="M676.507,5290.3s-1.93,3.551,0,5.385-1.237,1.107,0,3.585-2.6,1.092,0,3.737a20.456,20.456,0,0,1,3.568,4.593s3.121,2.172,0,2.562-8.716-2.562-8.716-2.562-3.785,2.846-1.388-1.695,3.042-7.227,1.388-6.635-4.021,5.922-3.966,0-.487-5.5,2.579-6.261a31.678,31.678,0,0,0,6.535-2.709" transform="translate(-506.982 -4715.821)" fill="none" stroke="#151515" stroke-linecap="round" stroke-linejoin="round" stroke-width="2"/>
      <path id="Path_8927-2" data-name="Path 8927" d="M696.085,5387.907s-2.108-2.353-2.932,0-1.031.527-1.5,5.624,2.29,5.261,0,6.194-.262,3.033-3.546,0-3.084-2.873-4.385-6.194-2.307-4.265-3.715-3.432-2.147,4.439-3.9,0-.983-4.592-2.205-5.985.774-1.177-4.825-3.83-14.154-5.96-14.154-5.96-2.846,3.128,0-2.16,3.755-5.318,2.94-7.358-2.065-5.881-2.94-7.063-4.279-6.046-4.842-7.212.606-1.376,0-2.917-2-4.739-2-4.739v-2.521a11.822,11.822,0,0,0,3.41-2.482c.928-1.257-.751-1.844,0-4.373s-1.928-6.932-3.41-7.292-5.451-6.564-7.408-2-3.257-4.753-3.257-4.753-.4-2.427,3.257-1.392a32.512,32.512,0,0,1,7.408,3.114c.67.442,2.21,3.1,3.41,0s1.911-5.02,1.911-5.02-2.452-.767,0-4.185.468-7.43,0-9.046,1.219-.841,0-4.1-3.649-5.3-5.321-10.478a32.449,32.449,0,0,1-1.747-8.229s-.872.67,0-2.573-.572-5.578-2.491-3.622-6.428,0-6.428,0a4.479,4.479,0,0,1,0-2.537c.424-1.246-.839-.593,0-3.84s0-11.08,0-11.08,1.516-4.091,0-5.991a13.384,13.384,0,0,1-2.894-5.391c-.908-2.757-1.557-2.373-2.106-5.351a24.477,24.477,0,0,1,0-6.713s1.626-5.053,2.106-7.6-1.32-4.089,0-5.181a21.34,21.34,0,0,0,2.894-3.332s-.677-11.075,0-13.79-.939-4.32,0-7.761a12.073,12.073,0,0,0,0-7.346c-.57-2.393-2.2-10.79-2.894-12.63s0-7.492,0-7.492l-3.684-3.961,1.578-18.785s1.169-2.545,2.106-4.221-.624-3.881-2.106-8.164-.75-5.406-1.578-6.652,1.441-4.528,1.578-5.94.849-2.839,0-4.5-2.1-12.563-1.578-14.258-.332-3.252,0-4.988.746-2.942,0-4.558a46.556,46.556,0,0,1-1.739-5.611s1.034-1.99,0-3.382,1.45-3.844,0-5.5a7.909,7.909,0,0,1-1.83-4.847,22.574,22.574,0,0,0-1.427-5.655,16.258,16.258,0,0,0-1.578-2.963l-27.8-15.367-9.605-3.943s-6.727-9.607-7.476-10.88-2.075-.134-4.062-3.048,1.1-3.387-4.185-11.331-5.955-10.743-5.955-10.743l-2.03-3.345s-7.754-14.72-7.849-15.887-2.6-6.139-4.549-10.234-3.223-7.31-4.311-8.716a26.309,26.309,0,0,0-2.794-2.924s-1.052-.068-3.931-1.976-3.343-.332-4.305-3.011-2.768-3.361-1.453-5.013.125-2.965,0-6.606-1.467-3.521,1.453-5.79a21.126,21.126,0,0,0,4.305-4.333l3.931-1.446a4.1,4.1,0,0,0,0-3.529c-.935-1.676.814-3.751-1.35-5.047s-5.411-.583-5.486-1.636,9.63-17.461,9.63-17.461l5.668-7.34s-2.56.265,3.192,2.038.538-7.657,0-9.1,1.45-3.667,3-5.494-.067-.586,4.851-4.093,6.614-3.421,5.609-5.386-4.118-3.1-3.579-6.853-1.43-14.062,0-15.229,1.205-10.636,3.579-13.026a69.4,69.4,0,0,0,6.561-7.816c1.171-1.729,3.153-.632,4.062-4.993s3.24-9.708,4.508-10.894,1.662-2.746,6.276-4.462,9.833-3.1,11.479-4.122,6.865-3.7,6.865-3.7-2.586.729,3.014,0,5.391-.224,8.294,0a16.826,16.826,0,0,0,4,0s.147,1.722,1.315,2.184,7.75,5.892,10.074,7.127-5.231-.987,5.259,2.975,12.777,6.232,21.52,5.1,5.23-2.592,9.983-1.855,3.751-1.752,10.019,1.855,9.1,3.464,10.346,5.8,5.235,6.335,5.825,7.729-1.01,1.708,1.316,2.869-4.687,9.556-5.327,10.727-.695,5.114-1.815,7.1-.887,3.329,0,6,2.259,2.844,1.815,3.854,0,4.184,0,4.184" transform="translate(-533.495 -4810.775)" fill="none" stroke="#151515" stroke-linecap="round" stroke-linejoin="round" stroke-width="2"/>
      <path id="Path_8928-2" data-name="Path 8928" d="M627.417,4896.575s2.457-7.987,1.968-9.189-.427-3.524-1.968-6.81-2.395-3.93-2.073-6.608-1.09-3.053,0-6.509a31.53,31.53,0,0,1,2.073-5.237s-6.493,2.241-9.873,0-1.131-3.063-8.208-4.194-9.047-1.4-10.169-2.151-3.81-1.672-4.877-4.392.337-1.872-2.444-8.322-3.028-7.091-3.256-10.224-7.069-2.754,0-7.566,8.042-6.6,8.042-6.6,2.588-6.762,2.535,0-2.913,12.837,1.423,10.154,4.146-3.7,4.336-5.455-1.589-2.151,1.788-4.7,4.439-3.376,4.439-3.376l4.1-1.714" transform="translate(-523.218 -4810.199)" fill="none" stroke="#151515" stroke-linecap="round" stroke-linejoin="round" stroke-width="2"/>
      <path id="Path_8929-2" data-name="Path 8929" d="M615,4930.144s.3-4.834,0-5.617,1.349-5.286-4.322-5.916-11.021-.378-12.339,0-.144,1.393-2.731,0-5.206-5.771-6.418-7.164-5.679-3.863-6.484-4.967-.8-2.841-2.258-3.529,1.038-1.268-3.248-1.782a37.937,37.937,0,0,1-9.193-2.016c-2.467-.9-5.5-.513-7.208-1.856s-5.033-4.877-5.926-5.516-2.714-1.79-2.714-1.79" transform="translate(-529.8 -4795.088)" fill="none" stroke="#151515" stroke-linecap="round" stroke-linejoin="round" stroke-width="2"/>
      <path id="Path_8930-2" data-name="Path 8930" d="M539.948,4923.472s1.348,10.186,2.982,10.75,1.32.234,3.876.947,2.5,1.6,5.069,0,3.318-1.516,3.469-4.812a26.663,26.663,0,0,1,1.389-6.884c.393-1.473-3.681,1.377,1.412-2.736s6.838-5.405,10.48-6.618,3.588-.305,5.472-2.175,3.11-2.3,3.464-3.891-.664-2.97,0-4.508a17.831,17.831,0,0,0,.876-4.418" transform="translate(-532.217 -4793.279)" fill="none" stroke="#151515" stroke-linecap="round" stroke-linejoin="round" stroke-width="2"/>
      <path id="Path_8931-2" data-name="Path 8931" d="M672.434,4840.991a7.867,7.867,0,0,0,3.075,1.049c1.512.091,2.963-.092,3.88,0s.751-2.593,1.536,2.327.889,4.51.889,6.976,5.971,3.586,8.159,4.15,3.738-1.747,3.087,1.568-1.3,3.867-1.867,4.733-.8.32-1.22,2.544-3.324,4.082-4.039,4.9-1.667-1.511,1.207,2.779,1.391,3.543,2.831,6.542,2.672,2.771,3.087,5.237,1.849,2.855,1.617,4.118,1.34,1.666,0,4.263,0,3.468,0,3.468" transform="translate(-505.983 -4804.791)" fill="none" stroke="#151515" stroke-linecap="round" stroke-linejoin="round" stroke-width="2"/>
      <path id="Path_8932-2" data-name="Path 8932" d="M688.786,4856.52s2.16.4,2.652,0a6.625,6.625,0,0,1,3.284-1.167c1.207,0,.906-.988,2.156,0s.27.024,2.8,1.167,2.816.214,6.021,0,3.7-1.785,5.39,0-.18,2.527,0,4.477-.321,4.141,0,7.277-.366,3.107,0,4.742,1.84.451.841,3.005-2.087,6.88-2.087,6.88" transform="translate(-502.745 -4802.034)" fill="none" stroke="#151515" stroke-linecap="round" stroke-linejoin="round" stroke-width="2"/>
      <path id="Path_8933-2" data-name="Path 8933" d="M708.389,4857.953s-.264-.457,1.995,0,2.834-.79,3.505,0,2.744.691,5.024,1.971,9.437,3.6,9.632,4.23-2.541-2.16,0,1.5" transform="translate(-498.865 -4801.485)" fill="none" stroke="#151515" stroke-linecap="round" stroke-linejoin="round" stroke-width="2"/>
      <path id="Path_8934-2" data-name="Path 8934" d="M724.852,4864.337l1.677,5.67" transform="translate(-495.603 -4800.168)" fill="none" stroke="#151515" stroke-linecap="round" stroke-width="2"/>
      <path id="Path_8935-2" data-name="Path 8935" d="M719.713,5283.065s5.351-1.068,5.922-1.4,0-3.9,0-3.9a4.091,4.091,0,0,0-5.922,0c-3.075,2.938-3.757,3.258-1.551,3.9S719.713,5283.065,719.713,5283.065Z" transform="translate(-497.184 -4718.561)" fill="none" stroke="#151515" stroke-linecap="round" stroke-linejoin="round" stroke-width="2"/>
      <path id="Path_8936-2" data-name="Path 8936" d="M726.627,5284.211s3.619-2.114,4.278-2.467a5.78,5.78,0,0,0,2.084-1.682c.277-.583-.569-.772,0-1.6s.433-2,0-2.211-4.008-.553-3.646,0-.236,1.92,0,2.211,1.406.73,0,1.6S726.627,5284.211,726.627,5284.211Z" transform="translate(-495.252 -4718.66)" fill="none" stroke="#151515" stroke-linecap="round" stroke-linejoin="round" stroke-width="2"/>
    </g>
  </g>
</svg>
