<svg xmlns="http://www.w3.org/2000/svg" xmlns:xlink="http://www.w3.org/1999/xlink" width="459.121" height="315.867" viewBox="0 0 459.121 315.867">
  <defs>
    <linearGradient id="linear-gradient" y1="0.5" x2="1" y2="0.5" gradientUnits="objectBoundingBox">
      <stop offset="0" stop-color="#dae3fe"/>
      <stop offset="1" stop-color="#e9effd"/>
    </linearGradient>
    <linearGradient id="linear-gradient-7" x1="0.144" y1="-5.117" x2="0.376" y2="-1.462" gradientUnits="objectBoundingBox">
      <stop offset="0" stop-color="#ff928e"/>
      <stop offset="1" stop-color="#feb3b1"/>
    </linearGradient>
    <linearGradient id="linear-gradient-8" x1="-1.375" y1="-3.116" x2="-0.466" y2="-1.363" xlink:href="#linear-gradient-7"/>
  </defs>
  <g id="Illustration" transform="translate(-150.992 -69.093)">
    <g id="Group_92" data-name="Group 92" transform="translate(142.681 69.093)">
      <path id="Path_1" data-name="Path 1" d="M222.641,267.9a125.114,125.114,0,0,1,9.354,31.066c1.773,10.633,5.457,20.169,4.442,31.305-.878,9.638,1.277,16.969,6.939,25.315,11.3,16.663,31.283,27.235,52.478,27.235H414.967c23.155-.794,46.375-.592,69.54-.529,45.138.123,92.472,5.819,127.24-27.928a93.244,93.244,0,0,0,28.284-64.074c.312-13.757-4.493-24.906-10.2-37.212-9.211-19.853-9.955-36.885-5.191-58.562,5.261-23.941,10.342-54.514-2.248-76.289-11.095-19.189-28.531-32.793-47.214-37.8-23.716-6.358-43.577,3.932-62.594,21.016-26.1,23.449-71.235,42.577-103.4,32.2-14.125-4.556-25.628-13.661-36.991-22.4-10.757-8.27-18.434-15.229-32.995-13.907-13.04,1.184-25.123,7.369-36.588,13-16.052,7.883-35.121,15.246-51.5,8.006-6.254-2.764-10.223-6.772-17.106-7.558-6.207-.709-12.794.506-18.622,2.52a56.338,56.338,0,0,0-28.358,22.353c-11.314,17.409-4.38,37.481.758,56.012a221.62,221.62,0,0,0,23.281,54.394A205.976,205.976,0,0,1,222.641,267.9Z" transform="translate(-172.614 -76.482)" fill="#d2fdfd"/>
      <g id="Group_8" data-name="Group 8" transform="translate(81.662 0)">
        <ellipse id="Ellipse_1" data-name="Ellipse 1" cx="150.934" cy="162.918" rx="150.934" ry="162.918" transform="translate(0 301.577) rotate(-87.486)" fill="#00b3d3"/>
        <g id="Group_7" data-name="Group 7" transform="translate(21.201 10.918)" opacity="0.68">
          <path id="Path_10" data-name="Path 10" d="M1189.132,270.015c-.039,26.62-1.865,53.3-6.556,79.539-1.187,6.556-2.564,13.08-4.2,19.542a188.245,188.245,0,0,1-5.872,19.124,90.644,90.644,0,0,1-8.76,18.024,36,36,0,0,1-6.574,7.668,18.742,18.742,0,0,1-4.3,2.773,12.9,12.9,0,0,1-5.024,1.184,12.677,12.677,0,0,1-5.079-.934,17.607,17.607,0,0,1-4.4-2.621,34.181,34.181,0,0,1-6.716-7.548,87.7,87.7,0,0,1-8.886-17.962,183.967,183.967,0,0,1-5.934-19.1c-1.657-6.458-3.048-12.979-4.245-19.532-2.39-13.11-4.02-26.345-5.12-39.617s-1.639-26.591-1.707-39.909c-.033-6.659.149-13.316.386-19.969s.616-13.3,1.106-19.942c.985-13.278,2.456-26.526,4.642-39.666,1.1-6.568,2.377-13.109,3.916-19.591a188.356,188.356,0,0,1,5.56-19.2c1.118-3.142,2.34-6.25,3.734-9.285a67.827,67.827,0,0,1,4.779-8.809,32.845,32.845,0,0,1,6.57-7.6,16.781,16.781,0,0,1,4.344-2.6,12.251,12.251,0,0,1,4.995-.887,13.24,13.24,0,0,1,4.936,1.156,19.273,19.273,0,0,1,4.289,2.677,36.62,36.62,0,0,1,6.712,7.465,89.9,89.9,0,0,1,9.2,17.752,182.163,182.163,0,0,1,6.309,18.967c1.776,6.423,3.281,12.917,4.583,19.449C1186.963,216.712,1189.056,243.39,1189.132,270.015Zm-1.97,0c.024-13.264-.48-26.532-1.582-39.75a382.823,382.823,0,0,0-5.186-39.431c-1.225-6.516-2.651-13-4.349-19.4a180.912,180.912,0,0,0-6.063-18.918,89.033,89.033,0,0,0-8.917-17.672,35.894,35.894,0,0,0-6.493-7.387,18.625,18.625,0,0,0-4.114-2.632,12.31,12.31,0,0,0-4.7-1.146,11.534,11.534,0,0,0-4.739.892,16.126,16.126,0,0,0-4.146,2.548,32.124,32.124,0,0,0-6.336,7.5,66.994,66.994,0,0,0-4.623,8.75c-1.347,3.02-2.526,6.116-3.6,9.246A187.284,187.284,0,0,0,1117,171.751c-1.461,6.466-2.663,12.992-3.684,19.544-2.035,13.108-3.356,26.324-4.193,39.564s-1.137,26.514-1.113,39.779q-.053,19.9,1.394,39.759c.994,13.226,2.516,26.418,4.793,39.481,1.141,6.53,2.475,13.027,4.072,19.456a182.667,182.667,0,0,0,5.741,19,86.5,86.5,0,0,0,8.615,17.767,33.069,33.069,0,0,0,6.426,7.345,16.519,16.519,0,0,0,4.111,2.494,11.343,11.343,0,0,0,4.649.884,11.831,11.831,0,0,0,4.6-1.126,17.654,17.654,0,0,0,4.027-2.644,34.88,34.88,0,0,0,6.295-7.471,89.407,89.407,0,0,0,8.487-17.835,186.826,186.826,0,0,0,5.674-19.022c1.579-6.434,2.9-12.934,4.027-19.465,2.262-13.065,3.765-26.259,4.765-39.484S1187.167,283.282,1187.162,270.015Z" transform="translate(-999.333 -122.27)" fill="#fff" style="mix-blend-mode: soft-light;isolation: isolate"/>
          <path id="Path_11" data-name="Path 11" d="M983.459,267.081a194.049,194.049,0,0,1-6.885,50.825,163.64,163.64,0,0,1-21.264,46.607A134.247,134.247,0,0,1,939.069,384.4,113.942,113.942,0,0,1,919.077,400.5a96.381,96.381,0,0,1-23.327,10.666,87.25,87.25,0,0,1-50.723.022,96.416,96.416,0,0,1-23.345-10.649,114.051,114.051,0,0,1-20.02-16.083,134.319,134.319,0,0,1-16.273-19.885,163.878,163.878,0,0,1-21.32-46.624,184.614,184.614,0,0,1-5.162-25.2,189.494,189.494,0,0,1,.016-51.326,184.425,184.425,0,0,1,5.179-25.193,163.815,163.815,0,0,1,21.349-46.592,134.233,134.233,0,0,1,16.275-19.863,113.654,113.654,0,0,1,20.013-16.054,96.8,96.8,0,0,1,23.327-10.609,86.631,86.631,0,0,1,50.643.021,96.725,96.725,0,0,1,23.309,10.628,113.569,113.569,0,0,1,19.986,16.066,134.157,134.157,0,0,1,16.244,19.867,163.57,163.57,0,0,1,21.292,46.575A194.049,194.049,0,0,1,983.459,267.081Zm-2.259,0a191.912,191.912,0,0,0-6.608-50.275A162.916,162.916,0,0,0,954,170.518a132.8,132.8,0,0,0-15.874-19.83,110.919,110.919,0,0,0-19.636-16.1,94.878,94.878,0,0,0-23.03-10.646,84.487,84.487,0,0,0-50.139.021,94.807,94.807,0,0,0-23.011,10.665,110.836,110.836,0,0,0-19.609,16.112,132.712,132.712,0,0,0-15.842,19.834,162.678,162.678,0,0,0-20.532,46.271,185.894,185.894,0,0,0-4.937,24.9,193.675,193.675,0,0,0,.016,50.666,185.742,185.742,0,0,0,4.954,24.9,162.6,162.6,0,0,0,20.561,46.238,132.614,132.614,0,0,0,15.844,19.812,110.451,110.451,0,0,0,19.6,16.083,95.172,95.172,0,0,0,22.993,10.625,83.889,83.889,0,0,0,50.06.022,95.216,95.216,0,0,0,23.011-10.608,110.566,110.566,0,0,0,19.63-16.071A132.709,132.709,0,0,0,953.942,363.6a162.848,162.848,0,0,0,20.617-46.255A191.894,191.894,0,0,0,981.2,267.081Z" transform="translate(-726.504 -119.336)" fill="#fff" style="mix-blend-mode: soft-light;isolation: isolate"/>
          <path id="Path_12" data-name="Path 12" d="M670.5,527.993l33.955-.274,33.955-.155,67.911-.125,67.911.138,33.955.17,33.956.3a.1.1,0,0,1,0,.2l-33.956.3-33.955.17-67.911.138-67.911-.125-33.955-.156L670.5,528.29a.149.149,0,0,1,0-.3Z" transform="translate(-658.551 -438.757)" fill="#fff" style="mix-blend-mode: soft-light;isolation: isolate"/>
          <path id="Path_13" data-name="Path 13" d="M851.783,266.271c8.036-.127,16.072-.182,24.107-.274L900,265.841c8.036-.066,16.072-.059,24.107-.08l24.107-.046,48.215.138,24.107.17c8.036.1,16.072.16,24.108.3a.1.1,0,0,1,0,.2c-8.036.137-16.072.2-24.108.3l-24.107.17-48.215.138-24.107-.046c-8.036-.02-16.072-.013-24.107-.08l-24.107-.155c-8.036-.092-16.072-.147-24.107-.274a.148.148,0,0,1,0-.3Z" transform="translate(-800.444 -233.907)" fill="#fff" style="mix-blend-mode: soft-light;isolation: isolate"/>
          <path id="Path_14" data-name="Path 14" d="M616.2,789.715l36.906-.274,36.906-.156,73.811-.126,73.811.138,36.905.17,36.906.3a.1.1,0,0,1,0,.2l-36.906.3-36.905.17-73.811.138-73.811-.125-36.906-.156-36.906-.273a.148.148,0,0,1,0-.3Z" transform="translate(-616.049 -643.607)" fill="#fff" style="mix-blend-mode: soft-light;isolation: isolate"/>
          <path id="Path_15" data-name="Path 15" d="M670.5,1051.438l33.955-.274,33.955-.156,67.911-.125,67.911.138,33.955.17,33.956.3a.1.1,0,0,1,0,.2l-33.956.3-33.955.17-67.911.138-67.911-.125-33.955-.156-33.955-.274a.149.149,0,0,1,0-.3Z" transform="translate(-658.551 -848.457)" fill="#fff" style="mix-blend-mode: soft-light;isolation: isolate"/>
          <path id="Path_16" data-name="Path 16" d="M1065.654,1314.489H872.795a.521.521,0,1,1,0-1.041h192.859a.521.521,0,0,1,0,1.041Z" transform="translate(-816.596 -1053.966)" fill="#fff" style="mix-blend-mode: soft-light;isolation: isolate"/>
        </g>
      </g>
      <path id="Path_85" data-name="Path 85" d="M1071.6,877.494a.623.623,0,0,1-.6-.454q-.127-.45-.245-.9a.623.623,0,1,1,1.205-.317q.116.441.24.88a.623.623,0,0,1-.6.793Zm-.916-3.772a.624.624,0,0,1-.61-.5q-.093-.457-.179-.917a.623.623,0,1,1,1.225-.229q.084.449.175.9a.623.623,0,0,1-.611.748Zm-.644-3.828a.623.623,0,0,1-.617-.541q-.062-.463-.116-.927a.623.623,0,1,1,1.238-.145q.053.454.113.907a.624.624,0,0,1-.535.7A.643.643,0,0,1,1070.039,869.894Zm-.384-3.863a.623.623,0,0,1-.621-.582q-.031-.465-.055-.931a.623.623,0,1,1,1.245-.064q.023.457.054.913a.623.623,0,0,1-.58.663Zm-.135-3.88a.623.623,0,0,1-.623-.621v-.258q0-.337,0-.675a.623.623,0,0,1,.623-.617h.007a.623.623,0,0,1,.617.63q0,.331,0,.662v.253a.623.623,0,0,1-.621.626Zm.1-3.882h-.035a.624.624,0,0,1-.588-.657q.025-.466.058-.932a.623.623,0,0,1,1.244.086q-.032.458-.057.915A.623.623,0,0,1,1069.621,858.27Zm.325-3.876a.642.642,0,0,1-.07,0,.623.623,0,0,1-.55-.689q.052-.464.11-.928a.623.623,0,1,1,1.237.155q-.057.456-.109.912A.623.623,0,0,1,1069.946,854.394Zm.538-3.853a.623.623,0,0,1-.616-.726q.077-.461.16-.92a.623.623,0,1,1,1.227.22q-.081.452-.157.905A.623.623,0,0,1,1070.484,850.541Zm.74-3.818a.614.614,0,0,1-.134-.015.623.623,0,0,1-.475-.743q.1-.456.206-.91a.623.623,0,1,1,1.214.283q-.1.447-.2.9A.623.623,0,0,1,1071.224,846.723Zm.931-3.774a.624.624,0,0,1-.6-.788q.123-.45.251-.9a.623.623,0,1,1,1.2.342q-.126.442-.247.884A.624.624,0,0,1,1072.155,842.948Zm1.114-3.722a.624.624,0,0,1-.593-.817q.144-.443.294-.884a.623.623,0,1,1,1.181.4q-.147.435-.289.871A.624.624,0,0,1,1073.269,839.226Zm1.29-3.663a.624.624,0,0,1-.583-.844q.165-.435.334-.868a.623.623,0,1,1,1.161.454q-.167.427-.329.855A.623.623,0,0,1,1074.559,835.564Zm1.458-3.6a.624.624,0,0,1-.572-.871q.185-.427.374-.851a.623.623,0,1,1,1.138.508q-.186.417-.368.838A.623.623,0,0,1,1076.018,831.968Zm1.622-3.522a.624.624,0,0,1-.559-.9q.2-.417.412-.831a.623.623,0,0,1,1.114.56q-.205.408-.406.819A.624.624,0,0,1,1077.64,828.446Zm1.782-3.439a.624.624,0,0,1-.546-.922q.223-.408.45-.811a.623.623,0,1,1,1.086.611q-.224.4-.443.8A.623.623,0,0,1,1079.422,825.007Zm1.944-3.358a.623.623,0,0,1-.531-.948q.243-.4.49-.792a.623.623,0,1,1,1.056.662q-.243.388-.482.78A.624.624,0,0,1,1081.366,821.65Zm2.1-3.264a.623.623,0,0,1-.515-.974q.262-.386.528-.767a.623.623,0,0,1,1.023.713q-.262.376-.52.755A.622.622,0,0,1,1083.47,818.385Zm2.262-3.157a.624.624,0,0,1-.5-1q.281-.372.566-.74a.623.623,0,0,1,.986.763q-.28.362-.557.728A.623.623,0,0,1,1085.731,815.229Zm2.42-3.036a.623.623,0,0,1-.476-1.024q.3-.357.6-.709a.623.623,0,1,1,.943.815q-.3.346-.594.7A.622.622,0,0,1,1088.152,812.193Zm2.58-2.9a.623.623,0,0,1-.454-1.05q.32-.34.644-.675a.623.623,0,1,1,.9.867q-.317.328-.632.662A.621.621,0,0,1,1090.732,809.291Zm2.743-2.749a.623.623,0,0,1-.428-1.076q.34-.32.683-.635a.623.623,0,1,1,.842.919q-.336.308-.67.623A.621.621,0,0,1,1093.475,806.542Zm2.907-2.573a.623.623,0,0,1-.4-1.1q.361-.3.724-.59a.623.623,0,0,1,.78.973q-.355.285-.708.577A.622.622,0,0,1,1096.382,803.969Zm3.073-2.372a.623.623,0,0,1-.364-1.13q.381-.273.765-.538a.623.623,0,1,1,.708,1.026q-.374.259-.746.525A.622.622,0,0,1,1099.455,801.6Zm3.239-2.138a.623.623,0,0,1-.323-1.157q.4-.243.8-.476a.623.623,0,0,1,.624,1.079q-.394.228-.785.464A.621.621,0,0,1,1102.694,799.459Zm3.4-1.865a.623.623,0,0,1-.276-1.183q.422-.207.845-.4a.623.623,0,0,1,.526,1.13q-.411.191-.821.393A.62.62,0,0,1,1106.1,797.594Zm3.557-1.547a.623.623,0,0,1-.221-1.206q.441-.167.883-.321a.623.623,0,0,1,.412,1.177q-.427.15-.853.31A.626.626,0,0,1,1109.653,796.047Zm3.694-1.177a.623.623,0,0,1-.157-1.226q.456-.119.914-.224a.623.623,0,0,1,.28,1.215q-.44.1-.88.216A.625.625,0,0,1,1113.348,794.87Zm3.8-.756a.623.623,0,0,1-.084-1.241q.467-.064.934-.115a.623.623,0,0,1,.133,1.239q-.45.049-.9.11A.644.644,0,0,1,1117.149,794.114Z" transform="translate(-867.629 -635.503)" fill="url(#linear-gradient)"/>
      <g id="Group_61" data-name="Group 61" transform="translate(90.76 12.775)">
        <path id="Path_86" data-name="Path 86" d="M1043,268.324a.781.781,0,0,1-.428-1.435q.389-.254.779-.506a.781.781,0,1,1,.848,1.312l-.771.5A.777.777,0,0,1,1043,268.324Zm3.273-2.093a.781.781,0,0,1-.415-1.444q.394-.246.788-.49a.781.781,0,1,1,.822,1.329l-.782.487A.779.779,0,0,1,1046.27,266.231Zm3.315-2.027a.781.781,0,0,1-.4-1.452q.4-.239.8-.475a.781.781,0,0,1,.794,1.346q-.4.234-.791.47A.776.776,0,0,1,1049.586,264.2Zm3.357-1.959a.781.781,0,0,1-.387-1.46l.808-.458a.781.781,0,0,1,.767,1.362l-.8.454A.779.779,0,0,1,1052.942,262.245Zm3.4-1.888a.782.782,0,0,1-.373-1.469l.818-.44a.781.781,0,0,1,.738,1.377l-.811.437A.778.778,0,0,1,1056.339,260.357Zm3.437-1.815a.781.781,0,0,1-.358-1.476q.413-.213.828-.423a.781.781,0,1,1,.707,1.393l-.821.419A.777.777,0,0,1,1059.777,258.542Zm115.838-1.712a.778.778,0,0,1-.406-.114q-.392-.239-.785-.474a.781.781,0,0,1,.8-1.341q.4.238.8.481a.781.781,0,0,1-.407,1.449Zm-112.361-.027a.781.781,0,0,1-.342-1.484q.418-.2.837-.4a.781.781,0,0,1,.676,1.409l-.83.4A.777.777,0,0,1,1063.253,256.8Zm3.515-1.66a.781.781,0,0,1-.326-1.492q.422-.194.846-.385a.781.781,0,0,1,.644,1.424l-.839.382A.78.78,0,0,1,1066.768,255.143Zm105.5-.273a.777.777,0,0,1-.381-.1q-.4-.224-.8-.444a.781.781,0,0,1,.752-1.37q.407.223.814.451a.782.782,0,0,1-.383,1.463Zm-101.943-1.306a.781.781,0,0,1-.309-1.5q.428-.184.856-.366a.781.781,0,1,1,.609,1.439q-.424.179-.847.362A.782.782,0,0,1,1070.321,253.564Zm98.522-.528a.778.778,0,0,1-.355-.086q-.409-.209-.818-.414a.781.781,0,0,1,.7-1.4q.415.208.83.42a.782.782,0,0,1-.357,1.477Zm-94.933-.967a.782.782,0,0,1-.292-1.507l.864-.344a.781.781,0,0,1,.575,1.453l-.856.342A.779.779,0,0,1,1073.91,252.07Zm91.444-.735a.779.779,0,0,1-.329-.073q-.416-.193-.832-.382a.781.781,0,0,1,.645-1.424q.424.192.846.388a.781.781,0,0,1-.33,1.49Zm-87.82-.671a.781.781,0,0,1-.274-1.513q.436-.163.873-.323a.781.781,0,0,1,.538,1.467q-.432.158-.863.32A.781.781,0,0,1,1077.535,250.664Zm84.271-.895a.776.776,0,0,1-.3-.061q-.422-.176-.844-.348a.781.781,0,1,1,.589-1.447q.429.175.857.354a.781.781,0,0,1-.3,1.5Zm-80.612-.42a.781.781,0,0,1-.255-1.52q.44-.152.881-.3a.781.781,0,1,1,.5,1.48q-.436.148-.871.3A.774.774,0,0,1,1081.194,249.35Zm77.008-1.005a.782.782,0,0,1-.273-.049q-.428-.16-.858-.315a.781.781,0,1,1,.532-1.469q.436.158.871.32a.781.781,0,0,1-.273,1.514Zm-73.317-.214a.781.781,0,0,1-.235-1.527l.888-.277a.781.781,0,1,1,.462,1.493q-.44.136-.879.275A.785.785,0,0,1,1084.885,248.131Zm69.658-1.068a.778.778,0,0,1-.244-.039q-.434-.143-.87-.281a.781.781,0,0,1,.474-1.489q.442.141.883.286a.781.781,0,0,1-.244,1.524Zm-65.935-.052a.781.781,0,0,1-.215-1.532q.448-.129.9-.253a.781.781,0,1,1,.42,1.505q-.443.124-.886.25A.77.77,0,0,1,1088.608,247.01Zm3.752-1.018a.781.781,0,0,1-.193-1.538q.451-.115.9-.228a.781.781,0,0,1,.378,1.517l-.893.225A.788.788,0,0,1,1092.36,245.993Zm58.477-.069a.784.784,0,0,1-.215-.03q-.44-.126-.88-.247a.781.781,0,0,1,.415-1.506q.448.123.895.251a.781.781,0,0,1-.215,1.533Zm-54.7-.842a.781.781,0,0,1-.172-1.544q.455-.1.91-.2a.781.781,0,0,1,.332,1.527q-.449.1-.9.2A.79.79,0,0,1,1096.139,245.082Zm50.949-.151a.768.768,0,0,1-.186-.023q-.445-.108-.89-.213a.781.781,0,0,1,.356-1.522q.452.106.9.216a.781.781,0,0,1-.184,1.541Zm-47.146-.649a.781.781,0,0,1-.149-1.548q.457-.089.915-.175a.781.781,0,0,1,.287,1.536q-.451.084-.9.173A.79.79,0,0,1,1099.943,244.282Zm43.36-.2a.8.8,0,0,1-.156-.016q-.449-.091-.9-.178a.781.781,0,0,1,.3-1.534q.456.088.911.181a.781.781,0,0,1-.154,1.547Zm-39.534-.488a.781.781,0,0,1-.125-1.552q.46-.075.92-.147a.781.781,0,0,1,.24,1.544q-.454.07-.908.144A.785.785,0,0,1,1103.768,243.6Zm35.718-.21a.788.788,0,0,1-.127-.01q-.452-.074-.9-.143a.781.781,0,0,1,.237-1.545q.459.071.918.146a.781.781,0,0,1-.125,1.553Zm-31.873-.356a.781.781,0,0,1-.1-1.556q.462-.06.923-.118a.781.781,0,0,1,.192,1.551q-.456.057-.912.116A.816.816,0,0,1,1107.613,243.031Zm28.032-.2a.822.822,0,0,1-.1-.006q-.454-.057-.909-.109a.781.781,0,0,1,.178-1.552q.462.053.924.11a.781.781,0,0,1-.1,1.557Zm-24.172-.247a.781.781,0,0,1-.075-1.559q.463-.046.927-.088a.781.781,0,0,1,.141,1.556q-.457.041-.915.086A.764.764,0,0,1,1111.474,242.588Zm20.313-.159c-.023,0-.046,0-.068,0q-.457-.039-.913-.075a.781.781,0,1,1,.121-1.558q.463.036.927.076a.781.781,0,0,1-.067,1.56Zm-16.44-.157a.781.781,0,0,1-.049-1.561q.464-.03.929-.056a.781.781,0,1,1,.089,1.56q-.458.026-.917.056Zm12.567-.106h-.039q-.458-.023-.915-.041a.781.781,0,0,1,.063-1.561q.465.019.93.042a.781.781,0,0,1-.038,1.562Zm-8.687-.079a.781.781,0,0,1-.024-1.562q.465-.014.93-.025a.781.781,0,1,1,.035,1.562q-.459.01-.917.024Zm4.807-.042h-.01q-.459-.006-.918-.008a.781.781,0,0,1,0-1.562h0q.465,0,.93.008a.781.781,0,0,1-.01,1.562Z" transform="translate(-937.506 -216.008)" fill="url(#linear-gradient)"/>
        <path id="Path_87" data-name="Path 87" d="M1310.488,443.939a.781.781,0,0,1-.016-1.562q.454-.009.912-.025a.781.781,0,1,1,.054,1.562q-.469.016-.934.026Zm3.877-.191a.781.781,0,0,1-.059-1.56q.454-.035.911-.076a.781.781,0,0,1,.139,1.557q-.467.041-.93.077Zm3.863-.4a.781.781,0,0,1-.1-1.556q.452-.058.908-.121a.781.781,0,1,1,.215,1.548q-.463.065-.924.123A.782.782,0,0,1,1318.228,443.352Zm3.841-.58a.781.781,0,0,1-.133-1.551q.45-.078.9-.161a.781.781,0,0,1,.283,1.537q-.46.085-.917.164A.8.8,0,0,1,1322.069,442.773Zm3.812-.746a.781.781,0,0,1-.165-1.545q.446-.1.894-.2a.781.781,0,0,1,.346,1.524q-.455.1-.909.2A.784.784,0,0,1,1325.881,442.027Zm3.779-.9a.782.782,0,0,1-.2-1.538q.443-.114.886-.233a.781.781,0,1,1,.405,1.509q-.451.121-.9.237A.775.775,0,0,1,1329.66,441.127Zm3.741-1.043a.781.781,0,0,1-.223-1.53q.438-.131.877-.266a.781.781,0,1,1,.46,1.493q-.446.138-.891.27A.783.783,0,0,1,1333.4,440.084Zm3.7-1.178a.781.781,0,0,1-.25-1.522q.434-.147.868-.3a.781.781,0,0,1,.512,1.476q-.44.153-.88.3A.782.782,0,0,1,1337.1,438.906Zm3.657-1.308a.781.781,0,0,1-.276-1.512q.429-.162.857-.327a.781.781,0,1,1,.563,1.457q-.434.167-.869.332A.782.782,0,0,1,1340.76,437.6Zm3.61-1.432a.781.781,0,0,1-.3-1.5q.423-.177.846-.357a.781.781,0,1,1,.612,1.437q-.428.183-.856.361A.776.776,0,0,1,1344.37,436.165Zm3.56-1.554a.781.781,0,0,1-.325-1.492q.417-.19.833-.385a.781.781,0,0,1,.661,1.416q-.422.2-.845.39A.778.778,0,0,1,1347.93,434.612Zm3.505-1.673a.781.781,0,0,1-.349-1.481q.411-.2.82-.412a.781.781,0,1,1,.708,1.393q-.415.211-.83.418A.778.778,0,0,1,1351.435,432.939Zm3.447-1.79a.781.781,0,0,1-.372-1.469q.4-.218.8-.44a.781.781,0,0,1,.755,1.368q-.407.225-.817.446A.776.776,0,0,1,1354.882,431.149Zm3.391-1.911a.781.781,0,0,1-.4-1.455q.4-.233.792-.469a.781.781,0,0,1,.8,1.341q-.4.24-.8.476A.78.78,0,0,1,1358.272,429.238Zm3.322-2.028a.781.781,0,0,1-.42-1.441q.388-.247.774-.5a.781.781,0,1,1,.849,1.312q-.391.253-.785.5A.777.777,0,0,1,1361.594,427.21Zm3.243-2.143a.781.781,0,0,1-.443-1.425q.378-.26.754-.523a.781.781,0,0,1,.9,1.28q-.381.267-.765.53A.776.776,0,0,1,1364.837,425.067Zm3.159-2.258a.781.781,0,0,1-.467-1.408q.368-.274.733-.55a.781.781,0,1,1,.943,1.246q-.371.281-.744.558A.777.777,0,0,1,1368,422.809Zm3.068-2.375a.781.781,0,0,1-.49-1.39q.356-.286.709-.577a.781.781,0,1,1,.992,1.207q-.359.3-.722.587A.777.777,0,0,1,1371.064,420.434Zm2.969-2.492a.781.781,0,0,1-.515-1.369q.344-.3.685-.6a.781.781,0,0,1,1.04,1.166q-.346.309-.7.615A.777.777,0,0,1,1374.033,417.942Zm2.86-2.611a.781.781,0,0,1-.539-1.347q.331-.315.657-.633a.781.781,0,0,1,1.09,1.12q-.332.324-.669.644A.779.779,0,0,1,1376.893,415.331Zm2.742-2.731a.781.781,0,0,1-.563-1.322q.316-.329.627-.661a.781.781,0,0,1,1.14,1.07q-.318.338-.64.673A.779.779,0,0,1,1379.635,412.6Zm2.62-2.859a.781.781,0,0,1-.588-1.3q.3-.345.6-.693a.781.781,0,1,1,1.189,1.014q-.3.355-.609.706A.779.779,0,0,1,1382.255,409.74Zm2.48-2.987a.781.781,0,0,1-.613-1.265q.283-.359.562-.721a.781.781,0,1,1,1.239.953q-.284.37-.573.736A.78.78,0,0,1,1384.734,406.754Zm2.323-3.109a.781.781,0,0,1-.638-1.232q.264-.373.522-.749a.781.781,0,0,1,1.288.885q-.264.385-.534.766A.781.781,0,0,1,1387.058,403.644Zm2.146-3.223a.781.781,0,0,1-.661-1.2q.241-.386.477-.774a.781.781,0,1,1,1.335.811q-.241.4-.488.791A.78.78,0,0,1,1389.2,400.422Zm1.958-3.338a.781.781,0,0,1-.685-1.157q.218-.4.431-.8a.781.781,0,0,1,1.381.731q-.218.412-.441.82A.781.781,0,0,1,1391.162,397.084Zm1.755-3.452a.782.782,0,0,1-.707-1.114q.194-.412.381-.826a.781.781,0,0,1,1.424.643q-.192.425-.39.848A.782.782,0,0,1,1392.916,393.633Zm1.536-3.559a.782.782,0,0,1-.727-1.068q.167-.423.327-.85a.781.781,0,1,1,1.463.549q-.164.438-.335.873A.782.782,0,0,1,1394.452,390.073Zm1.3-3.658a.782.782,0,0,1-.745-1.018q.138-.434.269-.871a.781.781,0,1,1,1.5.449q-.135.45-.277.9A.782.782,0,0,1,1395.752,386.415Zm1.05-3.744a.765.765,0,0,1-.185-.023.781.781,0,0,1-.575-.944q.107-.442.208-.886a.781.781,0,1,1,1.524.344q-.1.457-.214.911A.782.782,0,0,1,1396.8,382.671Zm.784-3.8a.782.782,0,0,1-.771-.912q.076-.448.145-.9a.781.781,0,1,1,1.545.236q-.071.463-.15.925A.781.781,0,0,1,1397.586,378.873Zm.514-3.843c-.026,0-.052,0-.077,0a.781.781,0,0,1-.7-.854q.044-.452.081-.906a.781.781,0,0,1,1.557.126q-.038.468-.084.933A.781.781,0,0,1,1398.1,375.03Zm.241-3.87h-.022a.782.782,0,0,1-.76-.8q.012-.454.017-.91a.781.781,0,0,1,.781-.773h.009a.781.781,0,0,1,.773.79q0,.469-.018.936A.781.781,0,0,1,1398.342,371.16Zm-.031-3.881a.781.781,0,0,1-.78-.748q-.019-.454-.046-.911a.781.781,0,1,1,1.56-.091q.027.469.047.936a.781.781,0,0,1-.748.814Zm-.3-3.872a.781.781,0,0,1-.776-.7q-.049-.452-.107-.907a.781.781,0,1,1,1.55-.195q.059.466.11.931a.782.782,0,0,1-.691.862A.83.83,0,0,1,1398.017,363.407Zm-.55-3.844a.781.781,0,0,1-.768-.646q-.079-.448-.165-.9a.781.781,0,0,1,1.535-.294q.089.461.169.92a.782.782,0,0,1-.771.917Zm-.792-3.8a.782.782,0,0,1-.759-.6q-.106-.442-.22-.885a.781.781,0,1,1,1.514-.387q.116.454.225.907a.781.781,0,0,1-.577.942A.772.772,0,0,1,1396.674,355.763Zm-1.019-3.745a.782.782,0,0,1-.747-.555q-.132-.435-.271-.872a.781.781,0,0,1,1.489-.474q.142.447.277.892a.781.781,0,0,1-.748,1.008Zm-1.23-3.681a.782.782,0,0,1-.734-.514q-.156-.427-.318-.856a.781.781,0,0,1,1.461-.554q.166.438.325.875a.782.782,0,0,1-.734,1.049Z" transform="translate(-1146.872 -298.531)" fill="url(#linear-gradient)"/>
        <path id="Path_88" data-name="Path 88" d="M1093.577,459.183a.783.783,0,0,1-.751-1q.126-.437.246-.878a.781.781,0,0,1,1.508.41q-.123.452-.253.9A.782.782,0,0,1,1093.577,459.183Zm.954-3.763a.77.77,0,0,1-.168-.018.781.781,0,0,1-.6-.93q.1-.445.188-.892a.781.781,0,0,1,1.532.31q-.093.46-.193.916A.782.782,0,0,1,1094.531,455.42Zm.707-3.817a.783.783,0,0,1-.773-.9q.068-.451.13-.9a.781.781,0,1,1,1.548.212q-.064.463-.134.926A.781.781,0,0,1,1095.238,451.6Zm.464-3.855q-.035,0-.07,0a.781.781,0,0,1-.709-.848q.041-.454.074-.909a.781.781,0,1,1,1.558.116q-.034.467-.076.932A.782.782,0,0,1,1095.7,447.748Zm.224-3.876h-.022a.781.781,0,0,1-.76-.8q.012-.456.019-.912a.781.781,0,1,1,1.562.02q-.006.468-.019.935A.781.781,0,0,1,1095.926,443.872Zm-.012-3.882a.781.781,0,0,1-.78-.756q-.015-.456-.036-.913a.781.781,0,1,1,1.561-.073q.022.468.037.935a.781.781,0,0,1-.755.806Zm-.244-3.88a.781.781,0,0,1-.777-.709q-.042-.455-.091-.911a.781.781,0,0,1,1.554-.166q.05.466.093.933a.782.782,0,0,1-.706.85Q1095.706,436.109,1095.67,436.109Zm-.474-3.861a.781.781,0,0,1-.771-.663q-.069-.452-.145-.9a.781.781,0,1,1,1.541-.258q.077.463.148.926a.781.781,0,0,1-.773.9Zm-.7-3.825a.782.782,0,0,1-.763-.618q-.1-.448-.2-.894a.781.781,0,0,1,1.523-.349q.1.458.2.915a.783.783,0,0,1-.765.945Zm-.925-3.778a.781.781,0,0,1-.753-.573q-.122-.441-.25-.88a.781.781,0,0,1,1.5-.438q.131.45.256.9a.782.782,0,0,1-.754.99Zm-1.147-3.716a.781.781,0,0,1-.739-.529q-.148-.433-.3-.864a.781.781,0,1,1,1.471-.526q.158.442.309.885a.782.782,0,0,1-.74,1.034Zm-1.365-3.642a.782.782,0,0,1-.723-.485q-.173-.423-.353-.844a.781.781,0,1,1,1.437-.613q.184.431.362.865a.782.782,0,0,1-.723,1.078Zm-1.582-3.553a.782.782,0,0,1-.7-.442q-.2-.412-.4-.821a.781.781,0,1,1,1.4-.7q.21.42.413.842a.782.782,0,0,1-.7,1.12Zm-1.794-3.452a.781.781,0,0,1-.682-.4q-.223-.4-.453-.8a.781.781,0,1,1,1.353-.782q.235.406.464.816a.782.782,0,0,1-.681,1.163Zm-2-3.337a.781.781,0,0,1-.658-.359q-.247-.385-.5-.767a.781.781,0,0,1,1.3-.864q.26.392.513.786a.781.781,0,0,1-.657,1.2Zm-2.2-3.2a.78.78,0,0,1-.631-.319q-.27-.367-.545-.731a.781.781,0,0,1,1.246-.943q.283.373.559.75a.781.781,0,0,1-.629,1.243Zm-2.392-3.056a.78.78,0,0,1-.6-.281q-.292-.35-.59-.7a.781.781,0,1,1,1.185-1.018q.305.355.6.713a.781.781,0,0,1-.6,1.282Zm-2.578-2.9a.779.779,0,0,1-.568-.244q-.313-.331-.632-.658a.781.781,0,1,1,1.119-1.09q.327.336.648.675a.781.781,0,0,1-.568,1.318Zm-2.754-2.734a.779.779,0,0,1-.533-.21q-.333-.31-.671-.617a.781.781,0,1,1,1.049-1.158q.347.314.689.633a.781.781,0,0,1-.533,1.352Zm-2.919-2.557a.778.778,0,0,1-.5-.178q-.352-.289-.709-.574a.781.781,0,0,1,.974-1.222q.366.292.727.589a.781.781,0,0,1-.5,1.385Zm-3.073-2.37a.776.776,0,0,1-.458-.149q-.368-.267-.742-.529a.781.781,0,0,1,.9-1.28q.384.269.762.543a.781.781,0,0,1-.459,1.414Zm-3.212-2.177a.778.778,0,0,1-.418-.121q-.384-.243-.774-.483a.781.781,0,1,1,.817-1.332q.4.245.793.495a.781.781,0,0,1-.419,1.441Zm-3.338-1.977a.775.775,0,0,1-.378-.1q-.4-.22-.8-.435a.781.781,0,0,1,.737-1.378q.413.221.821.447a.781.781,0,0,1-.379,1.465Zm-3.449-1.777a.777.777,0,0,1-.337-.077q-.411-.2-.826-.389a.781.781,0,0,1,.656-1.418q.425.2.845.4a.781.781,0,0,1-.338,1.486Zm-3.546-1.574a.778.778,0,0,1-.3-.059q-.421-.173-.846-.341a.781.781,0,1,1,.574-1.454q.436.172.866.349a.781.781,0,0,1-.3,1.5Zm-3.629-1.373a.775.775,0,0,1-.256-.044q-.43-.149-.864-.294a.781.781,0,0,1,.494-1.483q.444.148.884.3a.781.781,0,0,1-.256,1.519Zm-3.7-1.174a.776.776,0,0,1-.218-.031q-.437-.126-.878-.248a.781.781,0,1,1,.415-1.506q.451.124.9.254a.781.781,0,0,1-.217,1.532Zm-3.754-.981a.792.792,0,0,1-.179-.021q-.444-.1-.891-.2a.781.781,0,0,1,.339-1.525q.456.1.909.207a.781.781,0,0,1-.177,1.542Zm-3.8-.792a.789.789,0,0,1-.142-.013q-.448-.082-.9-.16a.781.781,0,0,1,.265-1.54q.461.079.918.163a.781.781,0,0,1-.14,1.55Zm-3.831-.611a.767.767,0,0,1-.106-.007q-.452-.062-.907-.119a.781.781,0,1,1,.194-1.55q.463.058.924.121a.781.781,0,0,1-.1,1.555Z" transform="translate(-932.493 -322.09)" fill="url(#linear-gradient)"/>
        <path id="Path_89" data-name="Path 89" d="M1751.36,462.441a.782.782,0,0,1-.689-1.149q.215-.4.426-.808a.781.781,0,0,1,1.386.721q-.214.411-.433.822A.781.781,0,0,1,1751.36,462.441Zm1.754-3.46a.782.782,0,0,1-.7-1.12q.2-.412.392-.825a.781.781,0,0,1,1.415.663q-.2.42-.4.839A.781.781,0,0,1,1753.114,458.982Zm1.608-3.53a.782.782,0,0,1-.717-1.09q.181-.42.357-.841a.781.781,0,0,1,1.442.6q-.179.429-.363.855A.781.781,0,0,1,1754.722,455.451Zm1.458-3.6a.782.782,0,0,1-.73-1.06q.163-.428.321-.856a.781.781,0,1,1,1.466.542q-.161.436-.327.871A.782.782,0,0,1,1756.18,451.856Zm1.3-3.655a.782.782,0,0,1-.742-1.028q.145-.435.284-.869a.781.781,0,0,1,1.487.478q-.142.442-.289.884A.782.782,0,0,1,1757.484,448.2Zm1.146-3.708a.782.782,0,0,1-.752-1q.125-.44.247-.881a.781.781,0,0,1,1.507.414q-.123.448-.251.9A.781.781,0,0,1,1758.63,444.494Zm.985-3.753a.767.767,0,0,1-.183-.022.781.781,0,0,1-.578-.942q.107-.445.209-.89a.781.781,0,1,1,1.523.348q-.1.453-.213.906A.781.781,0,0,1,1759.615,440.741Zm.823-3.793a.782.782,0,0,1-.768-.931q.087-.449.17-.9a.781.781,0,1,1,1.537.283q-.085.458-.173.915A.782.782,0,0,1,1760.439,436.948Zm.66-3.824a.8.8,0,0,1-.117-.009.781.781,0,0,1-.656-.889q.068-.452.131-.906a.781.781,0,0,1,1.547.217q-.065.461-.134.921A.782.782,0,0,1,1761.1,433.124Zm.5-3.85a.78.78,0,0,1-.778-.864q.049-.455.093-.911a.781.781,0,0,1,1.555.151q-.045.464-.095.927A.781.781,0,0,1,1761.594,429.274Zm.332-3.868-.051,0a.782.782,0,0,1-.73-.83q.029-.457.055-.914a.781.781,0,1,1,1.56.085q-.025.465-.055.929A.781.781,0,0,1,1761.926,425.406Zm.168-3.878h-.018a.781.781,0,0,1-.763-.8q.01-.458.016-.916a.773.773,0,0,1,.791-.771.781.781,0,0,1,.771.791q-.006.465-.017.931A.781.781,0,0,1,1762.094,421.528Zm.007-3.883a.781.781,0,0,1-.781-.767q-.008-.457-.022-.916a.781.781,0,0,1,1.562-.045q.013.466.022.932a.781.781,0,0,1-.766.8Zm-.153-3.881a.781.781,0,0,1-.779-.735q-.027-.458-.059-.916a.781.781,0,0,1,1.559-.108q.032.465.06.931a.781.781,0,0,1-.733.827Zm-.31-3.875a.781.781,0,0,1-.776-.7q-.046-.456-.1-.913a.781.781,0,1,1,1.553-.171q.051.464.1.928a.781.781,0,0,1-.7.855Q1761.677,409.889,1761.638,409.889Zm-.464-3.861a.782.782,0,0,1-.773-.673q-.063-.454-.132-.909a.781.781,0,0,1,1.545-.231q.069.462.134.924a.782.782,0,0,1-.775.89Zm-.616-3.842a.782.782,0,0,1-.768-.643q-.081-.452-.167-.9a.781.781,0,0,1,1.535-.291q.087.459.17.918a.782.782,0,0,1-.77.92Zm-.763-3.817a.781.781,0,0,1-.762-.613q-.1-.449-.2-.9a.781.781,0,0,1,1.523-.349q.1.456.2.911a.781.781,0,0,1-.595.931A.792.792,0,0,1,1759.794,398.37Zm-.907-3.786a.782.782,0,0,1-.756-.585q-.115-.446-.235-.89a.781.781,0,0,1,1.509-.405q.121.451.239.9a.782.782,0,0,1-.757.977Zm-1.045-3.743a.782.782,0,0,1-.748-.558q-.131-.439-.266-.877a.781.781,0,1,1,1.493-.46q.137.445.27.89a.781.781,0,0,1-.749,1.005Zm-1.178-3.7a.782.782,0,0,1-.74-.531q-.147-.434-.3-.867a.781.781,0,0,1,1.476-.514q.153.44.3.88a.782.782,0,0,1-.74,1.032Zm-1.308-3.654a.781.781,0,0,1-.731-.505q-.162-.429-.328-.857a.781.781,0,1,1,1.457-.564q.168.434.332.869a.782.782,0,0,1-.731,1.058Zm-1.434-3.607a.781.781,0,0,1-.721-.48q-.177-.423-.357-.845a.781.781,0,1,1,1.437-.614q.182.428.362.857a.782.782,0,0,1-.721,1.083Zm-1.556-3.556a.781.781,0,0,1-.711-.457q-.191-.416-.385-.832a.781.781,0,0,1,1.416-.661q.2.422.39.844a.782.782,0,0,1-.71,1.107Zm-1.673-3.5a.781.781,0,0,1-.7-.433q-.2-.41-.412-.82a.781.781,0,0,1,1.393-.708q.211.415.418.831a.782.782,0,0,1-.7,1.13Zm-1.787-3.446a.782.782,0,0,1-.688-.411q-.217-.4-.438-.806a.781.781,0,0,1,1.37-.752q.224.408.444.816a.782.782,0,0,1-.687,1.152Zm-1.9-3.388a.781.781,0,0,1-.677-.389q-.23-.4-.464-.792a.781.781,0,0,1,1.346-.794q.236.4.469.8a.782.782,0,0,1-.675,1.174Zm-2-3.327a.781.781,0,0,1-.664-.369q-.242-.39-.488-.778a.781.781,0,0,1,1.321-.835q.248.393.494.787a.781.781,0,0,1-.663,1.194Zm-2.1-3.265a.78.78,0,0,1-.651-.349q-.254-.382-.511-.763a.781.781,0,1,1,1.295-.874q.26.386.517.772a.781.781,0,0,1-.65,1.214Zm-2.2-3.2a.78.78,0,0,1-.638-.33q-.265-.374-.533-.747a.781.781,0,1,1,1.269-.912q.272.377.54.756a.781.781,0,0,1-.637,1.233Zm-2.29-3.135a.78.78,0,0,1-.625-.311q-.276-.366-.555-.731a.781.781,0,1,1,1.242-.949q.282.369.562.74a.781.781,0,0,1-.624,1.251ZM1736.042,350a.779.779,0,0,1-.611-.293q-.286-.358-.576-.716a.781.781,0,0,1,1.215-.983q.292.361.581.723a.781.781,0,0,1-.61,1.269Zm-2.465-3a.78.78,0,0,1-.6-.277q-.3-.35-.6-.7a.781.781,0,0,1,1.187-1.016q.3.353.6.707a.781.781,0,0,1-.6,1.286Zm-2.546-2.93a.78.78,0,0,1-.583-.261q-.305-.342-.614-.683a.781.781,0,0,1,1.158-1.048q.312.345.621.691a.781.781,0,0,1-.582,1.3Zm-2.626-2.86a.779.779,0,0,1-.569-.246q-.315-.334-.632-.666a.781.781,0,0,1,1.13-1.08q.321.336.639.674a.781.781,0,0,1-.569,1.317Zm-2.7-2.789a.779.779,0,0,1-.554-.23q-.323-.325-.649-.65a.781.781,0,1,1,1.1-1.109q.329.327.656.656a.781.781,0,0,1-.554,1.332Zm-2.772-2.717a.776.776,0,0,1-.539-.217q-.332-.317-.666-.632a.781.781,0,1,1,1.072-1.137q.338.319.673.639a.781.781,0,0,1-.54,1.346Zm-2.841-2.646a.778.778,0,0,1-.525-.2q-.34-.308-.682-.616a.781.781,0,0,1,1.043-1.163q.346.31.689.622a.781.781,0,0,1-.525,1.36Zm-2.907-2.573a.778.778,0,0,1-.51-.19q-.348-.3-.7-.6a.781.781,0,0,1,1.014-1.189q.354.3.7.6a.781.781,0,0,1-.511,1.373Zm-2.97-2.5a.779.779,0,0,1-.5-.178q-.355-.291-.712-.581a.781.781,0,0,1,.984-1.213q.361.293.719.587a.781.781,0,0,1-.5,1.385Zm-3.03-2.427a.778.778,0,0,1-.481-.166q-.361-.283-.726-.563a.781.781,0,0,1,.955-1.237q.368.284.733.569a.781.781,0,0,1-.482,1.4ZM1708.1,323.2a.778.778,0,0,1-.465-.154q-.369-.274-.739-.547a.781.781,0,0,1,.925-1.259q.374.275.746.552a.781.781,0,0,1-.467,1.408Z" transform="translate(-1457.499 -279.105)" fill="url(#linear-gradient)"/>
        <path id="Path_90" data-name="Path 90" d="M1103.007,1005.885a.782.782,0,0,1-.678-1.168q.2-.348.4-.694a.781.781,0,1,1,1.35.787q-.2.339-.392.68A.781.781,0,0,1,1103.007,1005.885Zm1.935-3.217a.781.781,0,0,1-.659-1.2q.25-.393.5-.784a.781.781,0,1,1,1.31.852q-.25.384-.494.77A.78.78,0,0,1,1104.942,1002.669Zm2.155-3.228a.781.781,0,0,1-.639-1.23q.268-.381.539-.76a.781.781,0,0,1,1.27.911q-.267.372-.53.747A.78.78,0,0,1,1107.1,999.441Zm2.3-3.128a.781.781,0,0,1-.619-1.258q.283-.369.571-.736a.781.781,0,0,1,1.229.965q-.283.36-.562.723A.78.78,0,0,1,1109.4,996.313Zm2.43-3.027a.781.781,0,0,1-.6-1.283q.3-.357.6-.711a.781.781,0,1,1,1.189,1.014q-.3.349-.591.7A.78.78,0,0,1,1111.826,993.286Zm2.551-2.927a.781.781,0,0,1-.579-1.306q.312-.345.628-.687a.781.781,0,1,1,1.148,1.06q-.311.337-.618.676A.779.779,0,0,1,1114.376,990.359Zm2.66-2.827a.781.781,0,0,1-.559-1.327q.325-.333.653-.663a.781.781,0,0,1,1.108,1.1q-.324.325-.643.653A.779.779,0,0,1,1117.036,987.532Zm2.761-2.729a.781.781,0,0,1-.539-1.347q.336-.32.675-.639a.781.781,0,1,1,1.07,1.139q-.335.315-.667.631A.778.778,0,0,1,1119.8,984.8Zm2.854-2.632a.781.781,0,0,1-.52-1.364q.346-.309.7-.616a.781.781,0,0,1,1.031,1.174q-.345.3-.687.608A.778.778,0,0,1,1122.652,982.171Zm2.939-2.537a.781.781,0,0,1-.5-1.381q.356-.3.715-.593a.781.781,0,0,1,.994,1.206q-.355.292-.707.586A.778.778,0,0,1,1125.591,979.634Zm3.017-2.444a.781.781,0,0,1-.483-1.4q.365-.286.733-.571a.781.781,0,1,1,.956,1.236q-.363.281-.724.564A.777.777,0,0,1,1128.607,977.19Zm3.089-2.352a.781.781,0,0,1-.465-1.41q.373-.276.749-.549a.781.781,0,0,1,.92,1.263q-.372.27-.741.543A.777.777,0,0,1,1131.7,974.838Zm3.156-2.262a.781.781,0,0,1-.447-1.423q.381-.265.764-.528a.781.781,0,1,1,.884,1.288q-.379.26-.756.522A.777.777,0,0,1,1134.852,972.576Zm3.217-2.174a.781.781,0,0,1-.429-1.435q.388-.255.778-.507a.781.781,0,0,1,.849,1.312q-.386.25-.77.5A.779.779,0,0,1,1138.07,970.4Zm3.274-2.087a.781.781,0,0,1-.412-1.445q.395-.244.791-.487a.781.781,0,0,1,.814,1.334q-.393.24-.783.481A.778.778,0,0,1,1141.344,968.315Zm3.328-2a.781.781,0,0,1-.395-1.456q.4-.234.8-.466a.781.781,0,0,1,.78,1.354q-.4.229-.795.461A.778.778,0,0,1,1144.672,966.315Zm3.377-1.916a.781.781,0,0,1-.377-1.466q.406-.224.814-.445a.781.781,0,1,1,.746,1.373l-.807.442A.779.779,0,0,1,1148.049,964.4Zm3.432-1.836a.781.781,0,0,1-.36-1.475q.413-.215.828-.427a.781.781,0,0,1,.712,1.391l-.821.423A.778.778,0,0,1,1151.481,962.563Zm3.477-1.753a.781.781,0,0,1-.344-1.483q.418-.2.837-.407a.781.781,0,1,1,.679,1.407l-.83.4A.78.78,0,0,1,1154.959,960.809Zm3.516-1.669a.782.782,0,0,1-.327-1.492l.846-.386a.781.781,0,1,1,.645,1.423l-.839.383A.781.781,0,0,1,1158.475,959.14Zm3.552-1.585a.781.781,0,0,1-.311-1.5q.427-.185.855-.367a.781.781,0,0,1,.612,1.438q-.423.18-.846.363A.773.773,0,0,1,1162.027,957.555Zm3.586-1.5a.781.781,0,0,1-.294-1.505q.431-.175.862-.347a.781.781,0,1,1,.579,1.451q-.427.17-.854.343A.777.777,0,0,1,1165.612,956.053Zm102-.18a.777.777,0,0,1-.434-.132q-.377-.252-.759-.5a.781.781,0,0,1,.847-1.314q.393.254.782.514a.781.781,0,0,1-.436,1.431Zm-98.379-1.238a.781.781,0,0,1-.277-1.512q.434-.165.87-.327a.781.781,0,0,1,.545,1.464l-.861.323A.778.778,0,0,1,1169.229,954.635Zm95.082-.8a.777.777,0,0,1-.388-.1q-.394-.226-.793-.446a.781.781,0,0,1,.757-1.367q.408.226.812.457a.781.781,0,0,1-.389,1.46Zm-91.436-.53a.781.781,0,0,1-.26-1.518l.876-.306a.781.781,0,0,1,.512,1.477q-.434.15-.867.3A.778.778,0,0,1,1172.875,953.3Zm3.673-1.249a.781.781,0,0,1-.243-1.524l.882-.286a.781.781,0,1,1,.478,1.488l-.873.283A.779.779,0,0,1,1176.549,952.052Zm84.336-.038a.778.778,0,0,1-.343-.08q-.409-.2-.822-.4a.781.781,0,1,1,.666-1.413q.424.2.843.405a.781.781,0,0,1-.344,1.483Zm-80.638-1.125a.782.782,0,0,1-.226-1.53l.887-.265a.781.781,0,0,1,.443,1.5l-.879.263A.781.781,0,0,1,1180.247,950.889Zm77.1-.473a.78.78,0,0,1-.3-.06q-.42-.175-.845-.345a.781.781,0,1,1,.58-1.451q.434.173.865.353a.781.781,0,0,1-.3,1.5Zm-73.38-.6a.781.781,0,0,1-.208-1.534q.446-.124.893-.245a.781.781,0,1,1,.408,1.508q-.442.12-.884.242A.785.785,0,0,1,1183.969,949.811Zm69.755-.784a.787.787,0,0,1-.259-.044q-.43-.151-.864-.3a.781.781,0,1,1,.5-1.481q.443.149.882.3a.781.781,0,0,1-.259,1.519Zm-66.012-.206a.781.781,0,0,1-.19-1.539q.449-.113.9-.223a.781.781,0,0,1,.373,1.517l-.889.221A.787.787,0,0,1,1187.712,948.821Zm3.763-.9a.781.781,0,0,1-.172-1.543q.453-.1.906-.2a.781.781,0,0,1,.337,1.526q-.448.1-.9.2A.785.785,0,0,1,1191.475,947.92Zm58.554-.082a.784.784,0,0,1-.22-.032q-.438-.128-.879-.252a.781.781,0,0,1,.422-1.5q.45.126.9.257a.781.781,0,0,1-.22,1.531Zm-54.757-.731a.782.782,0,0,1-.153-1.548l.911-.181a.781.781,0,0,1,.3,1.534q-.45.088-.9.178A.778.778,0,0,1,1195.272,947.107Zm51.007-.269a.786.786,0,0,1-.184-.022q-.443-.107-.891-.209a.781.781,0,0,1,.349-1.523q.455.1.908.213a.781.781,0,0,1-.182,1.541Zm-47.191-.45a.781.781,0,0,1-.134-1.551l.914-.158a.781.781,0,0,1,.261,1.541q-.453.076-.906.156A.789.789,0,0,1,1199.088,946.388Zm43.4-.372a.8.8,0,0,1-.149-.014q-.449-.086-.9-.169a.781.781,0,0,1,.281-1.537q.459.084.915.172a.781.781,0,0,1-.147,1.549Zm-39.564-.25a.781.781,0,0,1-.115-1.554l.919-.134a.781.781,0,0,1,.221,1.547q-.454.065-.909.133A.81.81,0,0,1,1202.921,945.766Zm35.738-.4a.782.782,0,0,1-.116-.009q-.452-.068-.907-.131a.781.781,0,0,1,.217-1.547q.462.065.921.133a.781.781,0,0,1-.114,1.554Zm-31.891-.119a.781.781,0,0,1-.094-1.557q.462-.057.923-.11a.781.781,0,1,1,.179,1.552q-.456.052-.912.108A.753.753,0,0,1,1206.768,945.243Zm28.041-.378a.836.836,0,0,1-.086,0q-.454-.05-.911-.1a.781.781,0,1,1,.155-1.555q.464.046.926.1a.781.781,0,0,1-.084,1.558Zm-24.18-.041a.781.781,0,0,1-.073-1.559q.463-.044.926-.084a.781.781,0,1,1,.136,1.557q-.457.04-.914.083C1210.679,944.823,1210.654,944.824,1210.629,944.824Zm20.313-.307-.056,0q-.457-.033-.915-.061a.781.781,0,0,1,.1-1.56q.465.029.928.062a.781.781,0,0,1-.054,1.561Zm-16.443,0a.781.781,0,0,1-.051-1.561q.464-.031.927-.058a.781.781,0,0,1,.092,1.56q-.458.027-.917.057Zm3.878-.2a.781.781,0,0,1-.028-1.562q.465-.017.929-.03a.781.781,0,0,1,.045,1.562l-.918.03Zm8.688-.006h-.029q-.458-.017-.917-.03a.781.781,0,0,1,.044-1.562q.466.014.929.03a.781.781,0,0,1-.028,1.562Zm-4.806-.074a.781.781,0,0,1,0-1.563h.929a.781.781,0,0,1,0,1.563h-.924Z" transform="translate(-984.476 -765.617)" fill="url(#linear-gradient)"/>
        <g id="Group_46" data-name="Group 46" transform="translate(89.311 7.171)">
          <g id="Group_43" data-name="Group 43">
            <g id="Group_40" data-name="Group 40" transform="translate(0.411 0.25)">
              <circle id="Ellipse_10" data-name="Ellipse 10" cx="14.157" cy="14.157" r="14.157" transform="translate(0.026)" fill="#f89f1b"/>
              <path id="Path_101" data-name="Path 101" d="M1001.557,223.689H973.269s-1.127,7.858,11.508,29.38a3.093,3.093,0,0,0,5.3.01C1002.707,231.555,1001.557,223.689,1001.557,223.689Z" transform="translate(-973.243 -210.291)" fill="#f89f1b"/>
            </g>
            <g id="Group_41" data-name="Group 41">
              <path id="Path_102" data-name="Path 102" d="M985.939,205.869v.08h0a3.512,3.512,0,0,1-3-1.733c-7.385-12.581-10.092-20.535-11.061-24.986a14.264,14.264,0,0,1-.485-3.057,7.091,7.091,0,0,1-.012-1.543l.037-.226a14.567,14.567,0,0,1,29.069.144,6.412,6.412,0,0,1,.023.78v.052a14.586,14.586,0,0,1-.584,4.094c-1,4.447-3.726,12.323-10.985,24.692A3.429,3.429,0,0,1,985.939,205.869Zm-13.764-30.7c0,.212,0,.515.04.972v0a13.351,13.351,0,0,0,.461,2.885l0,.016c.955,4.391,3.633,12.246,10.969,24.742a2.661,2.661,0,0,0,2.29,1.3l0,.41v-.411a2.79,2.79,0,0,0,2.3-1.315c7.213-12.289,9.906-20.1,10.894-24.487l.007-.025a13.7,13.7,0,0,0,.472-3.875l-.083-.058v0a5.455,5.455,0,0,1,.063-.69l.039-.024a13.728,13.728,0,0,0-27.415.143l-.012.418Z" transform="translate(-971.352 -160.881)" fill="#fff" opacity="0.8"/>
            </g>
            <circle id="Ellipse_11" data-name="Ellipse 11" cx="8.174" cy="8.174" r="8.174" transform="translate(3.079 14.362) rotate(-45)" fill="#f89f1b"/>
            <g id="Group_42" data-name="Group 42" transform="translate(6.008 5.73)">
              <path id="Path_103" data-name="Path 103" d="M1007.632,204.514a8.631,8.631,0,1,1,8.631-8.631A8.641,8.641,0,0,1,1007.632,204.514Zm0-16.349a7.718,7.718,0,1,0,7.718,7.718A7.727,7.727,0,0,0,1007.632,188.165Z" transform="translate(-999.001 -187.252)" fill="#fff"/>
            </g>
          </g>
          <g id="Group_44" data-name="Group 44" transform="translate(6.748 2.552)">
            <path id="Path_104" data-name="Path 104" d="M1002.542,175.922a.137.137,0,0,1-.089-.241,12.686,12.686,0,0,1,8.261-3.058.137.137,0,1,1,0,.274,12.412,12.412,0,0,0-8.083,2.992A.137.137,0,0,1,1002.542,175.922Z" transform="translate(-1002.405 -172.623)" fill="url(#linear-gradient-7)"/>
          </g>
          <g id="Group_45" data-name="Group 45" transform="translate(2.371 8.495)">
            <path id="Path_105" data-name="Path 105" d="M982.4,206.854a.137.137,0,0,1-.137-.137,12.657,12.657,0,0,1,1.9-6.678.137.137,0,1,1,.233.144,12.382,12.382,0,0,0-1.857,6.534A.137.137,0,0,1,982.4,206.854Z" transform="translate(-982.262 -199.975)" fill="url(#linear-gradient-8)"/>
          </g>
        </g>
        <g id="Group_611" data-name="Group 611" transform="translate(230.311 8.85)">
          <g id="Group_43-2" data-name="Group 43">
            <g id="Group_40-2" data-name="Group 40" transform="translate(0.411 0.25)">
              <circle id="Ellipse_10-2" data-name="Ellipse 10" cx="14.157" cy="14.157" r="14.157" transform="translate(0.026)" fill="#f89f1b"/>
              <path id="Path_101-2" data-name="Path 101" d="M1001.557,223.689H973.269s-1.127,7.858,11.508,29.38a3.093,3.093,0,0,0,5.3.01C1002.707,231.555,1001.557,223.689,1001.557,223.689Z" transform="translate(-973.243 -210.291)" fill="#f89f1b"/>
            </g>
            <g id="Group_41-2" data-name="Group 41">
              <path id="Path_102-2" data-name="Path 102" d="M985.939,205.869v.08h0a3.512,3.512,0,0,1-3-1.733c-7.385-12.581-10.092-20.535-11.061-24.986a14.264,14.264,0,0,1-.485-3.057,7.091,7.091,0,0,1-.012-1.543l.037-.226a14.567,14.567,0,0,1,29.069.144,6.412,6.412,0,0,1,.023.78v.052a14.586,14.586,0,0,1-.584,4.094c-1,4.447-3.726,12.323-10.985,24.692A3.429,3.429,0,0,1,985.939,205.869Zm-13.764-30.7c0,.212,0,.515.04.972v0a13.351,13.351,0,0,0,.461,2.885l0,.016c.955,4.391,3.633,12.246,10.969,24.742a2.661,2.661,0,0,0,2.29,1.3l0,.41v-.411a2.79,2.79,0,0,0,2.3-1.315c7.213-12.289,9.906-20.1,10.894-24.487l.007-.025a13.7,13.7,0,0,0,.472-3.875l-.083-.058v0a5.455,5.455,0,0,1,.063-.69l.039-.024a13.728,13.728,0,0,0-27.415.143l-.012.418Z" transform="translate(-971.352 -160.881)" fill="#fff" opacity="0.8"/>
            </g>
            <circle id="Ellipse_11-2" data-name="Ellipse 11" cx="8.174" cy="8.174" r="8.174" transform="translate(3.079 14.362) rotate(-45)" fill="#f89f1b"/>
            <g id="Group_42-2" data-name="Group 42" transform="translate(6.008 5.73)">
              <path id="Path_103-2" data-name="Path 103" d="M1007.632,204.514a8.631,8.631,0,1,1,8.631-8.631A8.641,8.641,0,0,1,1007.632,204.514Zm0-16.349a7.718,7.718,0,1,0,7.718,7.718A7.727,7.727,0,0,0,1007.632,188.165Z" transform="translate(-999.001 -187.252)" fill="#fff"/>
            </g>
          </g>
          <g id="Group_44-2" data-name="Group 44" transform="translate(6.748 2.552)">
            <path id="Path_104-2" data-name="Path 104" d="M1002.542,175.922a.137.137,0,0,1-.089-.241,12.686,12.686,0,0,1,8.261-3.058.137.137,0,1,1,0,.274,12.412,12.412,0,0,0-8.083,2.992A.137.137,0,0,1,1002.542,175.922Z" transform="translate(-1002.405 -172.623)" fill="url(#linear-gradient-7)"/>
          </g>
          <g id="Group_45-2" data-name="Group 45" transform="translate(2.371 8.495)">
            <path id="Path_105-2" data-name="Path 105" d="M982.4,206.854a.137.137,0,0,1-.137-.137,12.657,12.657,0,0,1,1.9-6.678.137.137,0,1,1,.233.144,12.382,12.382,0,0,0-1.857,6.534A.137.137,0,0,1,982.4,206.854Z" transform="translate(-982.262 -199.975)" fill="url(#linear-gradient-8)"/>
          </g>
        </g>
        <g id="Group_612" data-name="Group 612" transform="translate(277.234 154.521)">
          <g id="Group_43-3" data-name="Group 43">
            <g id="Group_40-3" data-name="Group 40" transform="translate(0.411 0.25)">
              <circle id="Ellipse_10-3" data-name="Ellipse 10" cx="14.157" cy="14.157" r="14.157" transform="translate(0.026)" fill="#f89f1b"/>
              <path id="Path_101-3" data-name="Path 101" d="M1001.557,223.689H973.269s-1.127,7.858,11.508,29.38a3.093,3.093,0,0,0,5.3.01C1002.707,231.555,1001.557,223.689,1001.557,223.689Z" transform="translate(-973.243 -210.291)" fill="#f89f1b"/>
            </g>
            <g id="Group_41-3" data-name="Group 41">
              <path id="Path_102-3" data-name="Path 102" d="M985.939,205.869v.08h0a3.512,3.512,0,0,1-3-1.733c-7.385-12.581-10.092-20.535-11.061-24.986a14.264,14.264,0,0,1-.485-3.057,7.091,7.091,0,0,1-.012-1.543l.037-.226a14.567,14.567,0,0,1,29.069.144,6.412,6.412,0,0,1,.023.78v.052a14.586,14.586,0,0,1-.584,4.094c-1,4.447-3.726,12.323-10.985,24.692A3.429,3.429,0,0,1,985.939,205.869Zm-13.764-30.7c0,.212,0,.515.04.972v0a13.351,13.351,0,0,0,.461,2.885l0,.016c.955,4.391,3.633,12.246,10.969,24.742a2.661,2.661,0,0,0,2.29,1.3l0,.41v-.411a2.79,2.79,0,0,0,2.3-1.315c7.213-12.289,9.906-20.1,10.894-24.487l.007-.025a13.7,13.7,0,0,0,.472-3.875l-.083-.058v0a5.455,5.455,0,0,1,.063-.69l.039-.024a13.728,13.728,0,0,0-27.415.143l-.012.418Z" transform="translate(-971.352 -160.881)" fill="#fff" opacity="0.8"/>
            </g>
            <circle id="Ellipse_11-3" data-name="Ellipse 11" cx="8.174" cy="8.174" r="8.174" transform="translate(3.079 14.362) rotate(-45)" fill="#f89f1b"/>
            <g id="Group_42-3" data-name="Group 42" transform="translate(6.008 5.73)">
              <path id="Path_103-3" data-name="Path 103" d="M1007.632,204.514a8.631,8.631,0,1,1,8.631-8.631A8.641,8.641,0,0,1,1007.632,204.514Zm0-16.349a7.718,7.718,0,1,0,7.718,7.718A7.727,7.727,0,0,0,1007.632,188.165Z" transform="translate(-999.001 -187.252)" fill="#fff"/>
            </g>
          </g>
          <g id="Group_44-3" data-name="Group 44" transform="translate(6.748 2.552)">
            <path id="Path_104-3" data-name="Path 104" d="M1002.542,175.922a.137.137,0,0,1-.089-.241,12.686,12.686,0,0,1,8.261-3.058.137.137,0,1,1,0,.274,12.412,12.412,0,0,0-8.083,2.992A.137.137,0,0,1,1002.542,175.922Z" transform="translate(-1002.405 -172.623)" fill="url(#linear-gradient-7)"/>
          </g>
          <g id="Group_45-3" data-name="Group 45" transform="translate(2.371 8.495)">
            <path id="Path_105-3" data-name="Path 105" d="M982.4,206.854a.137.137,0,0,1-.137-.137,12.657,12.657,0,0,1,1.9-6.678.137.137,0,1,1,.233.144,12.382,12.382,0,0,0-1.857,6.534A.137.137,0,0,1,982.4,206.854Z" transform="translate(-982.262 -199.975)" fill="url(#linear-gradient-8)"/>
          </g>
        </g>
        <g id="Group_613" data-name="Group 613" transform="translate(148.255 104.521)">
          <g id="Group_43-4" data-name="Group 43">
            <g id="Group_40-4" data-name="Group 40" transform="translate(0.411 0.25)">
              <circle id="Ellipse_10-4" data-name="Ellipse 10" cx="14.157" cy="14.157" r="14.157" transform="translate(0.026)" fill="#f89f1b"/>
              <path id="Path_101-4" data-name="Path 101" d="M1001.557,223.689H973.269s-1.127,7.858,11.508,29.38a3.093,3.093,0,0,0,5.3.01C1002.707,231.555,1001.557,223.689,1001.557,223.689Z" transform="translate(-973.243 -210.291)" fill="#f89f1b"/>
            </g>
            <g id="Group_41-4" data-name="Group 41">
              <path id="Path_102-4" data-name="Path 102" d="M985.939,205.869v.08h0a3.512,3.512,0,0,1-3-1.733c-7.385-12.581-10.092-20.535-11.061-24.986a14.264,14.264,0,0,1-.485-3.057,7.091,7.091,0,0,1-.012-1.543l.037-.226a14.567,14.567,0,0,1,29.069.144,6.412,6.412,0,0,1,.023.78v.052a14.586,14.586,0,0,1-.584,4.094c-1,4.447-3.726,12.323-10.985,24.692A3.429,3.429,0,0,1,985.939,205.869Zm-13.764-30.7c0,.212,0,.515.04.972v0a13.351,13.351,0,0,0,.461,2.885l0,.016c.955,4.391,3.633,12.246,10.969,24.742a2.661,2.661,0,0,0,2.29,1.3l0,.41v-.411a2.79,2.79,0,0,0,2.3-1.315c7.213-12.289,9.906-20.1,10.894-24.487l.007-.025a13.7,13.7,0,0,0,.472-3.875l-.083-.058v0a5.455,5.455,0,0,1,.063-.69l.039-.024a13.728,13.728,0,0,0-27.415.143l-.012.418Z" transform="translate(-971.352 -160.881)" fill="#fff" opacity="0.8"/>
            </g>
            <circle id="Ellipse_11-4" data-name="Ellipse 11" cx="8.174" cy="8.174" r="8.174" transform="translate(3.079 14.362) rotate(-45)" fill="#f89f1b"/>
            <g id="Group_42-4" data-name="Group 42" transform="translate(6.008 5.73)">
              <path id="Path_103-4" data-name="Path 103" d="M1007.632,204.514a8.631,8.631,0,1,1,8.631-8.631A8.641,8.641,0,0,1,1007.632,204.514Zm0-16.349a7.718,7.718,0,1,0,7.718,7.718A7.727,7.727,0,0,0,1007.632,188.165Z" transform="translate(-999.001 -187.252)" fill="#fff"/>
            </g>
          </g>
          <g id="Group_44-4" data-name="Group 44" transform="translate(6.748 2.552)">
            <path id="Path_104-4" data-name="Path 104" d="M1002.542,175.922a.137.137,0,0,1-.089-.241,12.686,12.686,0,0,1,8.261-3.058.137.137,0,1,1,0,.274,12.412,12.412,0,0,0-8.083,2.992A.137.137,0,0,1,1002.542,175.922Z" transform="translate(-1002.405 -172.623)" fill="url(#linear-gradient-7)"/>
          </g>
          <g id="Group_45-4" data-name="Group 45" transform="translate(2.371 8.495)">
            <path id="Path_105-4" data-name="Path 105" d="M982.4,206.854a.137.137,0,0,1-.137-.137,12.657,12.657,0,0,1,1.9-6.678.137.137,0,1,1,.233.144,12.382,12.382,0,0,0-1.857,6.534A.137.137,0,0,1,982.4,206.854Z" transform="translate(-982.262 -199.975)" fill="url(#linear-gradient-8)"/>
          </g>
        </g>
        <g id="Group_614" data-name="Group 614" transform="translate(103.168 208.662)">
          <g id="Group_43-5" data-name="Group 43">
            <g id="Group_40-5" data-name="Group 40" transform="translate(0.411 0.25)">
              <circle id="Ellipse_10-5" data-name="Ellipse 10" cx="14.157" cy="14.157" r="14.157" transform="translate(0.026)" fill="#f89f1b"/>
              <path id="Path_101-5" data-name="Path 101" d="M1001.557,223.689H973.269s-1.127,7.858,11.508,29.38a3.093,3.093,0,0,0,5.3.01C1002.707,231.555,1001.557,223.689,1001.557,223.689Z" transform="translate(-973.243 -210.291)" fill="#f89f1b"/>
            </g>
            <g id="Group_41-5" data-name="Group 41">
              <path id="Path_102-5" data-name="Path 102" d="M985.939,205.869v.08h0a3.512,3.512,0,0,1-3-1.733c-7.385-12.581-10.092-20.535-11.061-24.986a14.264,14.264,0,0,1-.485-3.057,7.091,7.091,0,0,1-.012-1.543l.037-.226a14.567,14.567,0,0,1,29.069.144,6.412,6.412,0,0,1,.023.78v.052a14.586,14.586,0,0,1-.584,4.094c-1,4.447-3.726,12.323-10.985,24.692A3.429,3.429,0,0,1,985.939,205.869Zm-13.764-30.7c0,.212,0,.515.04.972v0a13.351,13.351,0,0,0,.461,2.885l0,.016c.955,4.391,3.633,12.246,10.969,24.742a2.661,2.661,0,0,0,2.29,1.3l0,.41v-.411a2.79,2.79,0,0,0,2.3-1.315c7.213-12.289,9.906-20.1,10.894-24.487l.007-.025a13.7,13.7,0,0,0,.472-3.875l-.083-.058v0a5.455,5.455,0,0,1,.063-.69l.039-.024a13.728,13.728,0,0,0-27.415.143l-.012.418Z" transform="translate(-971.352 -160.881)" fill="#fff" opacity="0.8"/>
            </g>
            <circle id="Ellipse_11-5" data-name="Ellipse 11" cx="8.174" cy="8.174" r="8.174" transform="translate(3.079 14.362) rotate(-45)" fill="#f89f1b"/>
            <g id="Group_42-5" data-name="Group 42" transform="translate(6.008 5.73)">
              <path id="Path_103-5" data-name="Path 103" d="M1007.632,204.514a8.631,8.631,0,1,1,8.631-8.631A8.641,8.641,0,0,1,1007.632,204.514Zm0-16.349a7.718,7.718,0,1,0,7.718,7.718A7.727,7.727,0,0,0,1007.632,188.165Z" transform="translate(-999.001 -187.252)" fill="#fff"/>
            </g>
          </g>
          <g id="Group_44-5" data-name="Group 44" transform="translate(6.748 2.552)">
            <path id="Path_104-5" data-name="Path 104" d="M1002.542,175.922a.137.137,0,0,1-.089-.241,12.686,12.686,0,0,1,8.261-3.058.137.137,0,1,1,0,.274,12.412,12.412,0,0,0-8.083,2.992A.137.137,0,0,1,1002.542,175.922Z" transform="translate(-1002.405 -172.623)" fill="url(#linear-gradient-7)"/>
          </g>
          <g id="Group_45-5" data-name="Group 45" transform="translate(2.371 8.495)">
            <path id="Path_105-5" data-name="Path 105" d="M982.4,206.854a.137.137,0,0,1-.137-.137,12.657,12.657,0,0,1,1.9-6.678.137.137,0,1,1,.233.144,12.382,12.382,0,0,0-1.857,6.534A.137.137,0,0,1,982.4,206.854Z" transform="translate(-982.262 -199.975)" fill="url(#linear-gradient-8)"/>
          </g>
        </g>
        <g id="Group_615" data-name="Group 615" transform="translate(5.168 167.836)">
          <g id="Group_43-6" data-name="Group 43">
            <g id="Group_40-6" data-name="Group 40" transform="translate(0.411 0.25)">
              <circle id="Ellipse_10-6" data-name="Ellipse 10" cx="14.157" cy="14.157" r="14.157" transform="translate(0.026)" fill="#f89f1b"/>
              <path id="Path_101-6" data-name="Path 101" d="M1001.557,223.689H973.269s-1.127,7.858,11.508,29.38a3.093,3.093,0,0,0,5.3.01C1002.707,231.555,1001.557,223.689,1001.557,223.689Z" transform="translate(-973.243 -210.291)" fill="#f89f1b"/>
            </g>
            <g id="Group_41-6" data-name="Group 41">
              <path id="Path_102-6" data-name="Path 102" d="M985.939,205.869v.08h0a3.512,3.512,0,0,1-3-1.733c-7.385-12.581-10.092-20.535-11.061-24.986a14.264,14.264,0,0,1-.485-3.057,7.091,7.091,0,0,1-.012-1.543l.037-.226a14.567,14.567,0,0,1,29.069.144,6.412,6.412,0,0,1,.023.78v.052a14.586,14.586,0,0,1-.584,4.094c-1,4.447-3.726,12.323-10.985,24.692A3.429,3.429,0,0,1,985.939,205.869Zm-13.764-30.7c0,.212,0,.515.04.972v0a13.351,13.351,0,0,0,.461,2.885l0,.016c.955,4.391,3.633,12.246,10.969,24.742a2.661,2.661,0,0,0,2.29,1.3l0,.41v-.411a2.79,2.79,0,0,0,2.3-1.315c7.213-12.289,9.906-20.1,10.894-24.487l.007-.025a13.7,13.7,0,0,0,.472-3.875l-.083-.058v0a5.455,5.455,0,0,1,.063-.69l.039-.024a13.728,13.728,0,0,0-27.415.143l-.012.418Z" transform="translate(-971.352 -160.881)" fill="#fff" opacity="0.8"/>
            </g>
            <circle id="Ellipse_11-6" data-name="Ellipse 11" cx="8.174" cy="8.174" r="8.174" transform="translate(3.079 14.362) rotate(-45)" fill="#f89f1b"/>
            <g id="Group_42-6" data-name="Group 42" transform="translate(6.008 5.73)">
              <path id="Path_103-6" data-name="Path 103" d="M1007.632,204.514a8.631,8.631,0,1,1,8.631-8.631A8.641,8.641,0,0,1,1007.632,204.514Zm0-16.349a7.718,7.718,0,1,0,7.718,7.718A7.727,7.727,0,0,0,1007.632,188.165Z" transform="translate(-999.001 -187.252)" fill="#fff"/>
            </g>
          </g>
          <g id="Group_44-6" data-name="Group 44" transform="translate(6.748 2.552)">
            <path id="Path_104-6" data-name="Path 104" d="M1002.542,175.922a.137.137,0,0,1-.089-.241,12.686,12.686,0,0,1,8.261-3.058.137.137,0,1,1,0,.274,12.412,12.412,0,0,0-8.083,2.992A.137.137,0,0,1,1002.542,175.922Z" transform="translate(-1002.405 -172.623)" fill="url(#linear-gradient-7)"/>
          </g>
          <g id="Group_45-6" data-name="Group 45" transform="translate(2.371 8.495)">
            <path id="Path_105-6" data-name="Path 105" d="M982.4,206.854a.137.137,0,0,1-.137-.137,12.657,12.657,0,0,1,1.9-6.678.137.137,0,1,1,.233.144,12.382,12.382,0,0,0-1.857,6.534A.137.137,0,0,1,982.4,206.854Z" transform="translate(-982.262 -199.975)" fill="url(#linear-gradient-8)"/>
          </g>
        </g>
        <path id="Path_116" data-name="Path 116" d="M637.25,814.926a.623.623,0,0,1-.563-.891q.2-.42.406-.84a.623.623,0,1,1,1.118.552q-.2.411-.4.823A.623.623,0,0,1,637.25,814.926Zm1.772-3.453a.623.623,0,0,1-.545-.924q.224-.406.456-.813a.623.623,0,0,1,1.083.617q-.227.4-.448.8A.623.623,0,0,1,639.022,811.472Zm1.969-3.344a.623.623,0,0,1-.528-.954q.246-.394.5-.787a.623.623,0,0,1,1.048.674q-.249.386-.491.773A.623.623,0,0,1,640.991,808.128Zm2.143-3.237a.623.623,0,0,1-.51-.98q.266-.38.537-.76a.623.623,0,0,1,1.014.725q-.267.374-.529.749A.623.623,0,0,1,643.134,804.891Zm2.3-3.13a.623.623,0,0,1-.494-1q.283-.368.571-.734a.623.623,0,0,1,.981.77q-.284.362-.563.724A.622.622,0,0,1,645.43,801.761Zm2.432-3.027a.623.623,0,0,1-.477-1.023q.3-.356.6-.71a.623.623,0,1,1,.947.81q-.3.349-.593.7A.622.622,0,0,1,647.862,798.734Zm2.553-2.925a.623.623,0,0,1-.461-1.042q.311-.344.627-.686a.623.623,0,0,1,.916.846q-.312.338-.62.677A.622.622,0,0,1,650.414,795.809Zm2.661-2.827a.623.623,0,0,1-.446-1.059q.324-.331.651-.662a.623.623,0,1,1,.885.878q-.324.327-.644.655A.622.622,0,0,1,653.076,792.981Zm2.76-2.732a.623.623,0,0,1-.431-1.074q.335-.32.674-.639a.623.623,0,1,1,.855.907q-.335.316-.666.633A.621.621,0,0,1,655.836,790.25Zm2.849-2.638a.623.623,0,0,1-.416-1.087q.345-.309.693-.617a.623.623,0,1,1,.825.934q-.345.305-.687.611A.622.622,0,0,1,658.685,787.612Zm2.931-2.547a.623.623,0,0,1-.4-1.1q.354-.3.712-.6a.623.623,0,1,1,.8.959q-.354.294-.705.59A.621.621,0,0,1,661.616,785.064Zm3.006-2.458a.623.623,0,0,1-.388-1.111q.363-.288.729-.574a.623.623,0,0,1,.768.981q-.362.284-.722.569A.62.62,0,0,1,664.622,782.607Zm3.076-2.371a.623.623,0,0,1-.374-1.122q.371-.278.744-.553a.623.623,0,1,1,.74,1q-.37.273-.738.549A.619.619,0,0,1,667.7,780.236Zm3.14-2.284a.623.623,0,0,1-.36-1.132q.378-.267.759-.533a.623.623,0,1,1,.713,1.022q-.378.263-.753.529A.62.62,0,0,1,670.838,777.952Zm3.2-2.2a.623.623,0,0,1-.347-1.141q.385-.258.773-.513a.623.623,0,1,1,.686,1.041l-.766.509A.62.62,0,0,1,674.039,775.753Zm3.257-2.115a.623.623,0,0,1-.334-1.15q.392-.247.786-.493a.623.623,0,0,1,.659,1.058q-.391.243-.779.488A.621.621,0,0,1,677.3,773.638Zm3.31-2.031a.623.623,0,0,1-.319-1.159q.4-.237.8-.472a.623.623,0,1,1,.632,1.074l-.792.469A.62.62,0,0,1,680.605,771.607Zm3.36-1.947a.623.623,0,0,1-.306-1.166q.4-.228.81-.453a.623.623,0,1,1,.6,1.09q-.4.224-.8.449A.62.62,0,0,1,683.965,769.659Zm3.407-1.863a.623.623,0,0,1-.293-1.174q.409-.217.82-.432a.623.623,0,1,1,.578,1.1l-.814.429A.619.619,0,0,1,687.372,767.8Zm3.452-1.779a.623.623,0,0,1-.279-1.181q.415-.207.831-.412a.623.623,0,0,1,.551,1.118q-.413.2-.824.409A.62.62,0,0,1,690.824,766.018Zm3.5-1.7a.623.623,0,0,1-.266-1.187q.421-.2.844-.394a.623.623,0,1,1,.523,1.131q-.419.194-.837.39A.618.618,0,0,1,694.326,764.32Zm3.544-1.612a.623.623,0,0,1-.251-1.194q.426-.187.852-.372a.623.623,0,1,1,.5,1.143l-.846.369A.622.622,0,0,1,697.87,762.709Zm3.58-1.522a.623.623,0,0,1-.237-1.2l.86-.35a.623.623,0,1,1,.467,1.156l-.854.348A.621.621,0,0,1,701.45,761.187Zm3.614-1.432a.623.623,0,0,1-.223-1.206q.434-.166.869-.329a.623.623,0,0,1,.437,1.167q-.431.162-.861.326A.62.62,0,0,1,705.065,759.755Zm3.646-1.34a.623.623,0,0,1-.208-1.211q.438-.154.876-.306a.623.623,0,0,1,.408,1.178l-.868.3A.619.619,0,0,1,708.711,758.415Zm3.677-1.245a.623.623,0,0,1-.192-1.216q.441-.143.883-.283a.623.623,0,0,1,.377,1.188q-.438.139-.875.281A.621.621,0,0,1,712.388,757.17Zm3.705-1.149a.623.623,0,0,1-.176-1.221l.889-.26a.623.623,0,0,1,.346,1.2q-.441.127-.882.258A.624.624,0,0,1,716.093,756.021Zm3.732-1.049a.623.623,0,0,1-.16-1.226q.447-.12.9-.236a.623.623,0,0,1,.313,1.206q-.444.115-.887.234A.617.617,0,0,1,719.825,754.972Zm3.757-.948a.623.623,0,0,1-.143-1.23q.45-.107.9-.211a.623.623,0,1,1,.28,1.215q-.447.1-.893.209A.634.634,0,0,1,723.582,754.025Zm50.863-.655a.63.63,0,0,1-.157-.02q-.443-.115-.888-.224a.623.623,0,1,1,.3-1.21q.452.111.9.228a.623.623,0,0,1-.156,1.227Zm-47.084-.186a.623.623,0,0,1-.126-1.234q.453-.094.906-.185a.623.623,0,1,1,.246,1.222q-.449.09-.9.183A.615.615,0,0,1,727.361,753.183Zm43.3-.7a.621.621,0,0,1-.128-.014q-.448-.094-.9-.182a.623.623,0,1,1,.242-1.223q.457.09.912.185a.623.623,0,0,1-.127,1.234Zm-39.5-.035a.623.623,0,0,1-.108-1.237q.455-.08.91-.158a.623.623,0,1,1,.209,1.229q-.451.077-.9.157A.63.63,0,0,1,731.161,752.451Zm3.829-.62a.623.623,0,0,1-.089-1.24q.459-.067.919-.131a.623.623,0,0,1,.171,1.235q-.455.063-.91.13A.657.657,0,0,1,734.99,751.832Zm31.859-.052a.628.628,0,0,1-.1-.008q-.452-.073-.906-.141a.623.623,0,0,1,.186-1.233q.46.07.919.144a.623.623,0,0,1-.1,1.238Zm-28.009-.449a.623.623,0,0,1-.07-1.243q.461-.052.923-.1a.623.623,0,0,1,.131,1.24q-.456.049-.913.1A.67.67,0,0,1,738.84,751.331ZM763,751.243a.6.6,0,0,1-.074,0q-.455-.053-.911-.1a.623.623,0,0,1,.132-1.24q.463.049.924.1a.623.623,0,0,1-.072,1.242Zm-20.3-.29a.623.623,0,0,1-.05-1.244q.464-.037.926-.071a.623.623,0,1,1,.09,1.243q-.458.033-.916.07Zm16.436-.083-.047,0q-.457-.034-.915-.065a.623.623,0,0,1,.082-1.244q.464.031.927.066a.623.623,0,0,1-.046,1.245Zm-12.562-.164a.623.623,0,0,1-.028-1.246q.464-.021.928-.039a.623.623,0,0,1,.048,1.246q-.459.018-.918.039Zm8.686-.052h-.023q-.458-.017-.917-.029a.623.623,0,1,1,.034-1.246q.465.012.929.029a.623.623,0,0,1-.022,1.246Zm-4.805-.06a.623.623,0,0,1-.007-1.246q.464,0,.929-.006h0a.623.623,0,0,1,0,1.246q-.459,0-.918.006Z" transform="translate(-620.052 -614.299)" fill="url(#linear-gradient)"/>
      </g>
    </g>
  </g>
</svg>
