<svg xmlns="http://www.w3.org/2000/svg" width="622.72" height="400.445" viewBox="0 0 622.72 400.445">
  <g id="Group_63" data-name="Group 63" transform="translate(-204.669 -155.63)">
    <path id="Path_1" data-name="Path 1" d="M841.395,555.931c-36.681,0-571.028.131-571.337-.825l-.052-.121a.647.647,0,0,1-.052-.177c-.2-.478-82.331-134.816,45.345-228.335,49.956-36.591-3.126-60.747,36.6-101.482,45.654-46.811,95.477,4.974,146.243-16.254,8.97-3.747,17.97-9.778,26.981-19.033A100.188,100.188,0,0,1,541.7,176.019q1.368-.907,2.765-1.769a110.691,110.691,0,0,1,11.062-5.969q3.834-1.8,7.813-3.325h0a128.324,128.324,0,0,1,12.948-4.191A147.271,147.271,0,0,1,595.6,157q4.308-.557,8.685-.881c56.723-4.239,120.559,19.607,153.5,54.46,6.632,7.019,36.791,43.333,13.018,93.247-15.01,31.514,47.872,61.612,70.217,97.6C897.836,492.918,841.91,554.738,841.395,555.931Z" transform="translate(-39.098)" fill="#bcf1fb" opacity="0.305"/>
    <g id="Group_4" data-name="Group 4" transform="translate(356.008 319.85)">
      <path id="Path_8" data-name="Path 8" d="M1366.176,1144.282l-12.32,146.491s-1.291,8.88,5.314,8.9c10.86.026,54.055,0,54.055,0s-8.174-1.849-8.075-6.008c.117-4.9,14.4-150.765,14.4-150.765Z" transform="translate(-1232.394 -1064.567)" fill="#1d9eb5"/>
      <path id="Path_9" data-name="Path 9" d="M1428.193,1288.908c-2.136.006-43.954.077-54.531-.059-4.609-.057-5.417-4.1-5.455-6.713a13.118,13.118,0,0,1,.14-2.181l.32-3.808.817-9.7.721-8.574.927-11.018.781-9.3,8.754-104.092,53.375-1.385s-6.016,61.043-10.271,105.477c-.475,4.951-.927,9.7-1.345,14.129q-.2,2.122-.392,4.145c-.395,4.2-.755,8.065-1.069,11.473-.166,1.8-.318,3.466-.456,5-.543,5.993-.861,9.819-.865,10.547a6.149,6.149,0,0,0,.1,1.186C1420.623,1288.7,1427.391,1288.908,1428.193,1288.908Z" transform="translate(-1243.295 -1056.405)" fill="#2bbdd8"/>
      <path id="Path_10" data-name="Path 10" d="M876.7,824.069l30.01,120.544,4.109,16.509,13.977,56.146h259.674l-51.518-193.2Z" transform="translate(-872.544 -824.069)" fill="#57cfe5"/>
      <path id="Path_11" data-name="Path 11" d="M863.931,824.068l-4.159,1.386L906.5,1021.461l5.53-4.193Z" transform="translate(-859.772 -824.068)" fill="#1d9eb5"/>
      <path id="Path_12" data-name="Path 12" d="M1049.966,1614.655h258.075l7.127-4.193H1055.5Z" transform="translate(-1003.24 -1417.263)" fill="#1d9eb5"/>
      <rect id="Rectangle_2" data-name="Rectangle 2" width="55.877" height="2.655" transform="translate(193.232 235.157) rotate(180)" fill="#1d9eb5"/>
      <path id="Path_13" data-name="Path 13" d="M1426.248,1627.525l-.288,2.03-52.55,10.616.721-8.574.344-4.073Z" transform="translate(-1247.22 -1430.134)" fill="#1d9eb5"/>
      <path id="Path_14" data-name="Path 14" d="M1428.2,1719.433c-2.136.006-43.954.077-54.531-.059-4.609-.057-5.417-4.1-5.455-6.713l52.3-9.84c-.543,5.993-.861,9.819-.865,10.547a6.152,6.152,0,0,0,.1,1.186C1420.628,1719.222,1427.4,1719.433,1428.2,1719.433Z" transform="translate(-1243.3 -1486.931)" fill="#57cfe5" opacity="0.4"/>
      <path id="Path_15" data-name="Path 15" d="M876.7,824.068h256.252l41.577,155.271H915.356Z" transform="translate(-872.542 -824.068)" fill="#1db0cb"/>
      <path id="Path_16" data-name="Path 16" d="M1195.033,998.148H955.1l-8.574-34.155-3.317-13.216-1.353-5.389-8.812-35.1-.457-1.827-4.658-18.554-2.084-8.3-1.778-7.082-4.167-16.6h236.471l4.577,16.6,1.951,7.082,2.288,8.3,15.077,54.691v0l1.278,4.633.594,2.151,10.41,37.758Z" transform="translate(-905.131 -849.606)" fill="#a3e4f0"/>
      <path id="Path_17" data-name="Path 17" d="M1160.956,874.524H924.075l-4.167-16.6H1156.38Z" transform="translate(-905.134 -849.605)" fill="#27c7e3"/>
      <g id="Group_3" data-name="Group 3" transform="translate(24.492 13.745)">
        <path id="Path_18" data-name="Path 18" d="M959.53,882.089a1.568,1.568,0,0,1,1.558-2.075,2.835,2.835,0,0,1,2.593,2.075,1.568,1.568,0,0,1-1.558,2.075A2.835,2.835,0,0,1,959.53,882.089Z" transform="translate(-959.466 -880.014)" fill="#e9f3fe"/>
        <path id="Path_19" data-name="Path 19" d="M987.6,882.089a1.568,1.568,0,0,1,1.558-2.075,2.835,2.835,0,0,1,2.593,2.075,1.568,1.568,0,0,1-1.558,2.075A2.835,2.835,0,0,1,987.6,882.089Z" transform="translate(-980.639 -880.014)" fill="#e9f3fe"/>
        <path id="Path_20" data-name="Path 20" d="M1017.822,882.089a1.568,1.568,0,0,1,1.558-2.075,2.835,2.835,0,0,1,2.593,2.075,1.568,1.568,0,0,1-1.558,2.075A2.835,2.835,0,0,1,1017.822,882.089Z" transform="translate(-1003.437 -880.014)" fill="#e9f3fe"/>
      </g>
      <path id="Path_21" data-name="Path 21" d="M1131.4,1456.079l-87.827,38.381-9.53-38.381Z" transform="translate(-991.226 -1300.808)" fill="#00accb" opacity="0.5"/>
    </g>
    <g id="Group_10" data-name="Group 10" transform="translate(412.845 263.102)">
      <g id="Group_5" data-name="Group 5">
        <path id="Path_22" data-name="Path 22" d="M1098.085,609.611c-4.233,1.584-6.964,5.245-6.964,9.28v89.546A56.446,56.446,0,0,0,1114.4,754.36l52.6,33.711a11.12,11.12,0,0,0,11.76,0l52.6-33.711a56.445,56.445,0,0,0,23.275-45.923V619.129c0-4.154-2.9-7.893-7.31-9.4-63.9-21.876-89.516-22.461-149.242-.114Z" transform="translate(-1091.121 -593.083)" fill="#3ddffc"/>
        <path id="Path_23" data-name="Path 23" d="M1498.354,609.836c-31.105-10.649-53.138-16.237-74.448-16.606V789.864a10.952,10.952,0,0,0,5.88-1.682l52.6-33.711a56.445,56.445,0,0,0,23.275-45.923v-89.31c0-4.152-2.9-7.891-7.31-9.4Z" transform="translate(-1342.148 -593.194)" fill="#0ecbed"/>
      </g>
      <g id="Group_8" data-name="Group 8" transform="translate(41.267 55.12)">
        <g id="Group_6" data-name="Group 6" transform="translate(14.424)">
          <path id="Path_24" data-name="Path 24" d="M1349.226,858.688h-11.964a19.481,19.481,0,0,1-19.459-19.459V836.9a19.482,19.482,0,0,1,19.459-19.462h11.964a19.483,19.483,0,0,1,19.461,19.462v2.327A19.482,19.482,0,0,1,1349.226,858.688Zm-11.964-33.466a11.692,11.692,0,0,0-11.678,11.681v2.327a11.691,11.691,0,0,0,11.678,11.678h11.964a11.692,11.692,0,0,0,11.681-11.678V836.9a11.692,11.692,0,0,0-11.681-11.681Z" transform="translate(-1317.803 -817.441)" fill="#aff3ff"/>
        </g>
        <path id="Rectangle_3" data-name="Rectangle 3" d="M9.34,0H69.019A11.964,11.964,0,0,1,80.983,11.964V31.177A39.227,39.227,0,0,1,41.756,70.4h0A41.756,41.756,0,0,1,0,28.649V9.34A9.34,9.34,0,0,1,9.34,0Z" transform="translate(0 25.197)" fill="#aff3ff"/>
        <g id="Group_7" data-name="Group 7" transform="translate(27.032 32.864)">
          <circle id="Ellipse_1" data-name="Ellipse 1" cx="10.559" cy="10.559" r="10.559" transform="translate(0 6.99) rotate(-19.33)" fill="#0ecbed"/>
          <path id="Path_25" data-name="Path 25" d="M1416.882,1026.051h0a2.294,2.294,0,0,1,2.288,2.288v17.6a2.3,2.3,0,0,1-2.288,2.288h0a2.3,2.3,0,0,1-2.288-2.288v-17.6A2.3,2.3,0,0,1,1416.882,1026.051Z" transform="translate(-1403.423 -1007.664)" fill="#0ecbed"/>
        </g>
        <rect id="Rectangle_186" data-name="Rectangle 186" width="29" height="8" transform="translate(47.277 14.897)" fill="#0ecbed"/>
      </g>
    </g>
    <g id="Group_13" data-name="Group 13" transform="translate(578.682 190.33)">
      <g id="Group_11" data-name="Group 11" transform="translate(34.074 31.029)">
        <path id="Path_30" data-name="Path 30" d="M1906.739,427.7a2.775,2.775,0,0,0-1.906,2.54v24.509a15.449,15.449,0,0,0,6.37,12.569l14.4,9.227a3.043,3.043,0,0,0,3.219,0l14.4-9.227a15.449,15.449,0,0,0,6.37-12.569V430.3a2.8,2.8,0,0,0-2-2.574c-17.49-5.987-24.5-6.148-40.847-.031Z" transform="translate(-1904.833 -423.175)" fill="#3ddffc"/>
        <path id="Path_31" data-name="Path 31" d="M2016.291,427.761c-8.513-2.914-14.544-4.444-20.376-4.545v53.818a3,3,0,0,0,1.609-.46l14.4-9.227a15.449,15.449,0,0,0,6.37-12.569V430.334a2.8,2.8,0,0,0-2-2.573Z" transform="translate(-1973.538 -423.206)" fill="#0ecbed" opacity="0.4"/>
      </g>
      <g id="Group_12" data-name="Group 12" transform="translate(0 0)">
        <path id="Path_32" data-name="Path 32" d="M1973.359,301.952l5.653.743-4.028,4.035,1.04,5.606-5.082-2.584-5.01,2.721.887-5.632-4.136-3.924,5.63-.9,2.453-5.146Z" transform="translate(-1914.396 -296.875)" fill="#f89f1b"/>
        <path id="Path_33" data-name="Path 33" d="M1973.359,698.432l5.653.743-4.028,4.035,1.04,5.606-5.082-2.584-5.01,2.721.887-5.632-4.136-3.924,5.63-.9,2.453-5.146Z" transform="translate(-1914.396 -595.948)" fill="#f89f1b"/>
        <path id="Path_34" data-name="Path 34" d="M1803.923,399.313l5.653.743-4.028,4.035,1.04,5.606-5.082-2.584-5.01,2.721.887-5.632-4.136-3.924,5.63-.9,2.453-5.146Z" transform="translate(-1786.587 -370.316)" fill="#f89f1b"/>
        <path id="Path_35" data-name="Path 35" d="M2145.143,399.313l5.653.743-4.028,4.035,1.04,5.606-5.082-2.584-5.01,2.721.887-5.632-4.137-3.924,5.63-.9,2.453-5.146Z" transform="translate(-2043.977 -370.316)" fill="#f89f1b"/>
        <path id="Path_36" data-name="Path 36" d="M1803.923,602.245l5.653.743-4.028,4.035,1.04,5.606-5.082-2.584-5.01,2.721.887-5.632-4.136-3.924,5.63-.9,2.453-5.146Z" transform="translate(-1786.587 -523.392)" fill="#f89f1b"/>
        <path id="Path_37" data-name="Path 37" d="M2145.143,602.245l5.653.743-4.028,4.035,1.04,5.606-5.082-2.584-5.01,2.721.887-5.632-4.137-3.924,5.63-.9,2.453-5.146Z" transform="translate(-2043.977 -523.392)" fill="#f89f1b"/>
        <path id="Path_38" data-name="Path 38" d="M1877.377,328.15l5.653.743L1879,332.928l1.04,5.606-5.082-2.584-5.01,2.721.887-5.632-4.136-3.924,5.63-.9,2.454-5.146Z" transform="translate(-1841.995 -316.636)" fill="#f89f1b"/>
        <path id="Path_39" data-name="Path 39" d="M2074.346,328.15l5.653.743-4.028,4.035,1.04,5.606-5.082-2.584-5.01,2.721.887-5.632-4.136-3.924,5.63-.9,2.453-5.146Z" transform="translate(-1990.573 -316.636)" fill="#f89f1b"/>
        <path id="Path_40" data-name="Path 40" d="M1877.377,672.952l5.653.743L1879,677.73l1.04,5.605-5.082-2.584-5.01,2.721.887-5.632-4.136-3.924,5.63-.9,2.454-5.146Z" transform="translate(-1841.995 -576.728)" fill="#f89f1b"/>
        <path id="Path_41" data-name="Path 41" d="M2074.346,672.952l5.653.743-4.028,4.035,1.04,5.605-5.082-2.584-5.01,2.721.887-5.632-4.136-3.924,5.63-.9,2.453-5.146Z" transform="translate(-1990.573 -576.728)" fill="#f89f1b"/>
        <path id="Path_42" data-name="Path 42" d="M1776.814,506.057l5.653.743-4.028,4.035,1.04,5.606-5.082-2.584-5.01,2.721.887-5.632-4.136-3.924,5.63-.9,2.453-5.147Z" transform="translate(-1766.138 -450.835)" fill="#f89f1b"/>
        <path id="Path_43" data-name="Path 43" d="M2178.376,506.057l5.653.743L2180,510.835l1.04,5.606-5.082-2.584-5.01,2.721.887-5.632-4.136-3.924,5.63-.9,2.454-5.147Z" transform="translate(-2069.045 -450.835)" fill="#f89f1b"/>
      </g>
    </g>
    <g id="Group_27" data-name="Group 27" transform="translate(244.85 356.524)">
      <g id="Group_21" data-name="Group 21" transform="translate(20.695 25.038)">
        <g id="Group_20" data-name="Group 20">
          <g id="Group_16" data-name="Group 16" transform="translate(10.459)">
            <g id="Group_14" data-name="Group 14" transform="translate(5.265)">
              <path id="Path_44" data-name="Path 44" d="M570.724,1075.411a.534.534,0,1,1-.755,0A.534.534,0,0,1,570.724,1075.411Z" transform="translate(-566.312 -1075.257)" fill="#d5e5fb"/>
              <path id="Path_45" data-name="Path 45" d="M563.643,1082.559a.534.534,0,1,1-.755,0A.534.534,0,0,1,563.643,1082.559Z" transform="translate(-560.97 -1080.649)" fill="#d5e5fb"/>
              <path id="Path_46" data-name="Path 46" d="M555.713,1089.805a.534.534,0,1,1,0,.755A.534.534,0,0,1,555.713,1089.805Z" transform="translate(-555.558 -1086.112)" fill="#d5e5fb"/>
            </g>
            <g id="Group_15" data-name="Group 15" transform="translate(0 5.315)">
              <path id="Path_47" data-name="Path 47" d="M549.293,1097.044a.534.534,0,1,1-.755,0A.534.534,0,0,1,549.293,1097.044Z" transform="translate(-544.881 -1096.889)" fill="#d5e5fb"/>
              <path id="Path_48" data-name="Path 48" d="M542.212,1104.191a.534.534,0,1,1-.755,0A.534.534,0,0,1,542.212,1104.191Z" transform="translate(-539.54 -1102.281)" fill="#d5e5fb"/>
              <path id="Path_49" data-name="Path 49" d="M534.282,1111.437a.534.534,0,1,1,0,.755A.534.534,0,0,1,534.282,1111.437Z" transform="translate(-534.127 -1107.744)" fill="#d5e5fb"/>
            </g>
          </g>
          <g id="Group_19" data-name="Group 19" transform="translate(0 10.558)">
            <g id="Group_17" data-name="Group 17" transform="translate(5.265)">
              <path id="Path_50" data-name="Path 50" d="M528.15,1118.386a.534.534,0,1,1-.755,0A.534.534,0,0,1,528.15,1118.386Z" transform="translate(-523.738 -1118.231)" fill="#d5e5fb"/>
              <path id="Path_51" data-name="Path 51" d="M521.069,1125.533a.534.534,0,1,1-.755,0A.534.534,0,0,1,521.069,1125.533Z" transform="translate(-518.396 -1123.623)" fill="#d5e5fb"/>
              <path id="Path_52" data-name="Path 52" d="M513.139,1132.779a.534.534,0,1,1,0,.755A.534.534,0,0,1,513.139,1132.779Z" transform="translate(-512.984 -1129.085)" fill="#d5e5fb"/>
            </g>
            <g id="Group_18" data-name="Group 18" transform="translate(0 5.314)">
              <path id="Path_53" data-name="Path 53" d="M506.72,1140.017a.534.534,0,1,1-.755,0A.534.534,0,0,1,506.72,1140.017Z" transform="translate(-502.307 -1139.862)" fill="#d5e5fb"/>
              <path id="Path_54" data-name="Path 54" d="M499.639,1147.166a.534.534,0,1,1-.755,0A.534.534,0,0,1,499.639,1147.166Z" transform="translate(-496.966 -1145.255)" fill="#d5e5fb"/>
              <path id="Path_55" data-name="Path 55" d="M491.709,1154.411a.534.534,0,1,1,0,.756A.534.534,0,0,1,491.709,1154.411Z" transform="translate(-491.554 -1150.717)" fill="#d5e5fb"/>
            </g>
          </g>
        </g>
      </g>
      <g id="Group_24" data-name="Group 24" transform="translate(39.996 0)">
        <g id="Group_22" data-name="Group 22">
          <circle id="Ellipse_2" data-name="Ellipse 2" cx="11.649" cy="11.649" r="11.649" transform="translate(0 22.989) rotate(-80.643)" fill="#f89f1b"/>
        </g>
        <g id="Group_23" data-name="Group 23" transform="translate(6.845 4.976)">
          <path id="Path_56" data-name="Path 56" d="M609.392,997.336a3.739,3.739,0,1,1,3.739,3.739A3.739,3.739,0,0,1,609.392,997.336Z" transform="translate(-606.588 -993.597)" fill="#ebf3fa"/>
          <path id="Path_57" data-name="Path 57" d="M604.52,1024.035a6.543,6.543,0,0,0-6.543,6.543h13.086A6.543,6.543,0,0,0,604.52,1024.035Z" transform="translate(-597.977 -1016.557)" fill="#ebf3fa"/>
        </g>
      </g>
      <g id="Group_26" data-name="Group 26" transform="translate(0 46.374)">
        <path id="Path_58" data-name="Path 58" d="M418.524,1165.069l-.432-1.069a3.032,3.032,0,0,0-2.812-1.9h-7.964v26.627h32.944v-21.574H421.618A3.337,3.337,0,0,1,418.524,1165.069Z" transform="translate(-407.317 -1162.103)" fill="#f89f1b"/>
        <g id="Group_25" data-name="Group 25" transform="translate(9.786 8.082)">
          <path id="Path_59" data-name="Path 59" d="M458.763,1199.073h-1.1a3.134,3.134,0,0,0,.05-.551v-.376a3.151,3.151,0,0,0-3.147-3.148H452.63a3.15,3.15,0,0,0-3.147,3.148v.376a3.134,3.134,0,0,0,.049.551h-1.224a1.158,1.158,0,0,0-1.158,1.159v5.051a5.177,5.177,0,0,0,5.177,5.177h3.056a4.863,4.863,0,0,0,4.864-4.864v-5.039A1.483,1.483,0,0,0,458.763,1199.073Zm-4.695,5.084v2.347a.37.37,0,0,1-.74,0v-2.347a1.708,1.708,0,1,1,.74,0Zm2.385-5.634a1.873,1.873,0,0,1-.082.551h-5.548a1.873,1.873,0,0,1-.083-.551v-.376a1.891,1.891,0,0,1,1.889-1.889h1.935a1.891,1.891,0,0,1,1.889,1.889Z" transform="translate(-447.15 -1194.998)" fill="#ebf3fa"/>
        </g>
      </g>
    </g>
    <g id="Group_30" data-name="Group 30" transform="translate(262.675 397.013)">
      <g id="Group_28" data-name="Group 28" transform="translate(0)">
        <path id="Path_60" data-name="Path 60" d="M771.31,1144.929s.622-6.779-6.953-6.779a8.9,8.9,0,0,1,3.483,1.868s-4.831-2.836-10.089,1.522-1.991,15.288-3.59,17.363-7.825,2.49-7.064,9.2,19.759,15.115,18.539,20.666c0,0,7.445-10.944,2.121-15.939,0,0,2.6,2.444,2.859,5.35,0,0,.7-5.672-2.905-7.487-3.194-1.605-5.811-7.477-5.534-8.527S771.31,1144.929,771.31,1144.929Z" transform="translate(-681.399 -1138.15)" fill="#0d5d6c"/>
        <path id="Path_61" data-name="Path 61" d="M790.854,1298.232s5.659,23.411,11.214,28.091c3.339,2.813,13.266,9.268,13.266,9.268l-4.129,1.5s-13.77-4.651-16.853-8.275-11.523-21.787-11.523-21.787Z" transform="translate(-708.4 -1258.903)" fill="#f48f8f"/>
        <path id="Path_62" data-name="Path 62" d="M842.487,1457.074l-1.33-3.293a9.341,9.341,0,0,0-8.661-5.843H807.965v82.021H909.444V1463.5H852.019A10.279,10.279,0,0,1,842.487,1457.074Z" transform="translate(-727.36 -1371.83)" fill="#00accb"/>
        <path id="Path_63" data-name="Path 63" d="M588.185,1397.694c.05.089.1.182.155.275,1.238,2.152,4.079,7.426,7.208,13.2,1.48,2.738,3.029,5.589,4.5,8.271,2.533,4.629,4.837,8.751,6.181,10.929,1.367,2.215,2.374,3.771,2.781,4.394l0,0a1.031,1.031,0,0,1,.133.642,33.566,33.566,0,0,0,.089,5.8,44.524,44.524,0,0,0,14.548,28.838l3.765.556s-5.327-19.736-6.9-30.894a21.46,21.46,0,0,1-.288-4.423c.278-2.907-.238-7.175-1.215-12.075a270.516,270.516,0,0,0-7.7-27.95c-.175-.546-5.469-19.7-5.469-19.7-4.443,3.883-20.65,5.486-20.65,5.486S582.582,1387.731,588.185,1397.694Z" transform="translate(-558.914 -1317.237)" fill="#71716f"/>
        <path id="Path_64" data-name="Path 64" d="M742.894,1754.953H727.182a8.63,8.63,0,0,1,.444-4.211c.786-1.743,1.907-1.8.143-4.531,1,1.028,4.207,1.453,6.479,1.147.278.451,1.794,3.479,2.724,4.146C738,1752.243,742.578,1751.979,742.894,1754.953Z" transform="translate(-666.359 -1596.824)" fill="#45453c"/>
        <path id="Path_65" data-name="Path 65" d="M599.017,1437.2c.05.089.1.182.155.275,1.238,2.152,7.935,14.521,11.064,20.292-3.625-14.915-1.1-29.831-1.1-29.831Z" transform="translate(-569.746 -1356.739)" fill="#45453c"/>
        <path id="Path_66" data-name="Path 66" d="M799.505,1161.527c.1-.413-8.973,4.1-9.433,4.613-4.257,4.722-3.043,10.884-.608,10.943,1.562.038,1.26,2.635,1.26,2.635l17.4-7.362S806.031,1160.137,799.505,1161.527Z" transform="translate(-711.737 -1155.7)" fill="#0d5d6c"/>
        <path id="Path_67" data-name="Path 67" d="M785.2,1283.923s2.648,5.29,2.318,9.583c0,0-3.193,5.041-11.475,6.317C776.047,1299.823,783.167,1283.919,785.2,1283.923Z" transform="translate(-703.284 -1248.11)" fill="#45453c"/>
        <path id="Path_68" data-name="Path 68" d="M527.787,1372.152l.053-2.938c-5.855.738-20.187-7-20.187-7s-6.125,4.074-6.963,15.708c-.409,5.679-3,29.694-3.285,36.865-.1,2.6-.139,4.454-.151,5.2a.019.019,0,0,1,0,.007,1.023,1.023,0,0,1-.249.6,33.556,33.556,0,0,0-3.172,4.863c-8.934,16.621-4.262,39.207-4.262,39.207l2.075-.527s7.554-23.414,12.491-33.541a21.2,21.2,0,0,1,2.236-3.827c1.856-2.255,3.814-6.083,5.743-10.691C515.764,1407.367,527.787,1372.152,527.787,1372.152Z" transform="translate(-486.269 -1307.169)" fill="#71716f"/>
        <path id="Path_69" data-name="Path 69" d="M495.672,1754.6H479.96a8.626,8.626,0,0,1,.444-4.211c.786-1.743,2.018-2.535,1.723-4.645a5.658,5.658,0,0,0,4.9,1.874,17.227,17.227,0,0,0,2.726,3.534C490.777,1751.894,495.355,1751.631,495.672,1754.6Z" transform="translate(-479.874 -1596.476)" fill="#45453c"/>
        <path id="Path_70" data-name="Path 70" d="M615.32,1275.857c-2.11.36.344,2.038-2.558,2.353-4.131.451-8.4.76-10.631,1.651a2.4,2.4,0,0,0-1.53,1.24c-.969,2.912-7.1,7.917-7.1,7.917-27.358-1.245-29.12-13.438-29.12-13.438,17.756-17.245,32.861-26.644,45.345-27.807,3.038-.283,7.134.1,9.055.952,4.366,1.944,6.759,7.859,6.759,7.859S623.338,1274.489,615.32,1275.857Z" transform="translate(-543.617 -1220.77)" fill="#45453c"/>
        <path id="Path_71" data-name="Path 71" d="M728.4,1303.616c-4.131.451-8.4.76-10.631,1.651a43.566,43.566,0,0,1,5.526-23.908S727.5,1298.453,728.4,1303.616Z" transform="translate(-659.259 -1246.176)" fill="#71716f"/>
        <path id="Path_72" data-name="Path 72" d="M737.073,1271.92s-10.389-.568-12.235,5.955,3.463,32.558,4.607,35.245c2.083,4.892,12.587,19.463,12.587,19.463l3.367-1.744s-6.762-21.33-8.271-23.441C734.758,1304.084,740.183,1274.757,737.073,1271.92Z" transform="translate(-664.365 -1239.046)" fill="#f48f8f"/>
        <path id="Path_73" data-name="Path 73" d="M797.989,1510.387a15.322,15.322,0,0,1,1.568,1.609c.7.854.084,1.162,2.091,5.028,0,0-.1.537-.539.439s-1.95-1.6-2.727-1.49c0,0-.555.457-.616,1.973a36.554,36.554,0,0,1-.308,5.142c-.247.589-2.05-2.47-2.937-4.68-.778-1.938-.02-8.476-.02-8.476Z" transform="translate(-716.955 -1418.594)" fill="#f48f8f"/>
        <path id="Path_74" data-name="Path 74" d="M717.684,1280.682c.027.153,9.832,1.8,15.964-1.309,0,0,5.123-16.049-2.2-15.281s-11.656,3.074-11.84,6.579A67.449,67.449,0,0,1,717.684,1280.682Z" transform="translate(-659.259 -1233.131)" fill="#45453c"/>
        <path id="Path_75" data-name="Path 75" d="M784.821,1237.277a6.529,6.529,0,0,0,1.972,4.57c1.3,1.341,3.184,2.388,4.506,1.066a14.368,14.368,0,0,0,2.045-2.47c1.142-1.964,2.5-3.97,2.5-3.97l-5.88-5.151-.351-.308a14.983,14.983,0,0,1-4.38,4.97A1.366,1.366,0,0,0,784.821,1237.277Z" transform="translate(-709.894 -1208.199)" fill="#f48f8f"/>
        <path id="Path_76" data-name="Path 76" d="M811.348,1237.421s-1.359,2-2.5,3.968c-3.655-2.253-3.659-6.778-3.377-9.122Z" transform="translate(-725.396 -1209.145)" fill="#ed7a7a"/>
        <path id="Path_77" data-name="Path 77" d="M810.763,1207.74s-8.874-4.938-5.714-10.417,4.143-9.807,9.943-6.885,5.685,5.641,5.075,7.727S813.153,1208.883,810.763,1207.74Z" transform="translate(-724.648 -1176.882)" fill="#f48f8f"/>
        <path id="Path_78" data-name="Path 78" d="M818.7,1192.69c-.406-2.433-1.642-2.665-2.5-2.5a7.1,7.1,0,0,0-8.632-3.3,12.082,12.082,0,0,1-6.994,4.2s1.03,1.916,5.273,3.1a7.248,7.248,0,0,0,4.186-.334,23.689,23.689,0,0,1-6.022,2.27c5.591.512,10.911-4.6,11.463-5.147a7.954,7.954,0,0,1,.44,3.663c-.368,1.648-1.831,4.632-.938,5.018C814.973,1199.656,819.311,1196.338,818.7,1192.69Z" transform="translate(-721.784 -1174.604)" fill="#0d5d6c"/>
        <path id="Path_79" data-name="Path 79" d="M917.736,1449.826s-2.476,1.857-.61,3.072,5.2,1.542,5.212.746C922.384,1450.969,921.05,1449.068,917.736,1449.826Z" transform="translate(-809.178 -1373.127)" fill="#f48f8f"/>
      </g>
      <g id="Group_29" data-name="Group 29" transform="translate(112.223 101.613)">
        <path id="Path_80" data-name="Path 80" d="M970.4,1563.588h-3.2a9.167,9.167,0,0,0,.144-1.6V1560.9a9.152,9.152,0,0,0-9.142-9.142h-5.62a9.15,9.15,0,0,0-9.14,9.142v1.093a9.138,9.138,0,0,0,.142,1.6h-3.555a3.364,3.364,0,0,0-3.363,3.365v14.672a15.036,15.036,0,0,0,15.036,15.036h8.877a14.125,14.125,0,0,0,14.127-14.127V1567.9A4.309,4.309,0,0,0,970.4,1563.588Zm-13.637,14.766v6.816a1.075,1.075,0,0,1-2.15,0v-6.816a4.96,4.96,0,1,1,2.15,0Zm6.927-16.366a5.45,5.45,0,0,1-.239,1.6H947.333a5.449,5.449,0,0,1-.241-1.6V1560.9a5.492,5.492,0,0,1,5.487-5.487h5.62a5.492,5.492,0,0,1,5.487,5.487Z" transform="translate(-936.664 -1551.753)" fill="#aff3ff"/>
      </g>
      <path id="Path_9015" data-name="Path 9015" d="M159.141,134.009h12.9V130.3h-12.9Z" transform="translate(-26.157 -22.494)" fill="#00accb"/>
    </g>
    <g id="Group_37" data-name="Group 37" transform="translate(649.088 419.334)">
      <g id="Group_31" data-name="Group 31" transform="translate(0 32.014)">
        <path id="Path_81" data-name="Path 81" d="M2187.776,1463.257l-123.178,0c-17.174-19.736-16.462-43.763,6.969-65.582a44.329,44.329,0,0,1,17.479-9.546,157.783,157.783,0,0,1,23.416-3.259c.036-.013,13.776-1.927,17.694-6.694,12.174-14.806,15.3-16.924,15.3-16.924,12.409-2.426,22.993-3.138,30.84,1.25,0,0,0,0,0,0,7.27,4.071,12.191,12.523,14.032,28.056.35,2.937.589,6.128.713,9.59.449,12.606,2.923,23.819,4.392,33.313a0,0,0,0,1,0,0C2197.568,1447.22,2199.072,1457.679,2187.776,1463.257Z" transform="translate(-2052.719 -1359.316)" fill="#57cfe5"/>
      </g>
      <path id="Path_82" data-name="Path 82" d="M2277.864,1378.25c-7.529,4.1-8.362,17.612-20.147,21.1s-31.789,3.172-43.135,15.48c-10.947,11.875-23.021-18.337-17.822-26.835a158.427,158.427,0,0,1,23.416-3.244c.036-.014,16.807-.082,20.725-4.827,12.174-14.738,12.271-18.684,12.271-18.684,12.409-2.415,22.993-3.123,30.84,1.244,0,0,0,0,0,0C2292.658,1371.422,2285.393,1374.149,2277.864,1378.25Z" transform="translate(-2160.433 -1327.302)" fill="#2bbdd8"/>
      <path id="Path_83" data-name="Path 83" d="M2438.26,1528.617c-17.281-21.571-52.781,7.836-61.968,7.006-8.446-.763,16.47-30.246,47.37-34.633,12.491-1.773,9.5-14.681,9.493-15.08.349,2.924.589,6.1.712,9.546C2434.318,1508,2436.791,1519.166,2438.26,1528.617Z" transform="translate(-2295.543 -1422.794)" fill="#2bbdd8"/>
      <g id="Group_36" data-name="Group 36" transform="translate(17.834)">
        <g id="Group_35" data-name="Group 35">
          <path id="Path_84" data-name="Path 84" d="M2211.623,1675.052c-1.208,2.33-1.48,6.615-1.839,8.069s-6.692,6.392-7.236,6.145c-1.385-.625-.062-3.038.784-4.8.035-.071.067-.142.1-.211.834-1.778.117-5.746.549-7.8s-1.646-7.566-1.646-7.566l3.5-4.419s2.459,4.678,4.218,5.53a4.3,4.3,0,0,1,.857.546A3.42,3.42,0,0,1,2211.623,1675.052Z" transform="translate(-2183.117 -1557.487)" fill="#ffb27d"/>
          <path id="Path_85" data-name="Path 85" d="M2375.571,1229.044a14.8,14.8,0,0,0-8.964,4.141,19.106,19.106,0,0,0-4.319,5.923c-2.308,5.267-1.513,11.4-2.832,14.757s-2.112,3.948,0,5.471,2.465,2.972-.059,4.586-4.385,6.643,2.654,7.08,20.68-2.118,22.434-3.419,6.544-3.236,8.84-6.719c4.591-6.961.934-11.637-2.613-12.816C2385.311,1246.253,2387.3,1228.061,2375.571,1229.044Z" transform="translate(-2300.178 -1229.006)" fill="#0d5d6c"/>
          <path id="Path_86" data-name="Path 86" d="M2345.075,1347.847s-6.978,15.754-8.432,17.124-8.261,4.047-7.649,6.342,5.737,4.513,7.879,3.978,7.573-9.791,7.573-9.791Z" transform="translate(-2278.924 -1318.65)" fill="#739af0"/>
          <path id="Path_87" data-name="Path 87" d="M2331.425,1405.05s.377-2.709,6.99-3.584c3.67-.485,9.81-10.721,9.81-10.721l-6.14,16.14-5.95,2.573Z" transform="translate(-2280.787 -1351.009)" fill="#5a7de0"/>
          <path id="Path_88" data-name="Path 88" d="M2218.679,1468.069s-34.441-2.411-39.16,3.055c-3.744,4.337,3.074,51.718,3.074,51.718s9.373.273,10.111-2.209c0,0-1.749-23-.285-26.981s.539-9.484.539-9.484,18.338,2.746,24.155,1.353S2218.679,1468.069,2218.679,1468.069Z" transform="translate(-2165.354 -1408.937)" fill="#45453c"/>
          <path id="Path_89" data-name="Path 89" d="M2141.517,1726.8c-2.424,1-5.4,4.1-6.609,4.977s-9.237.566-9.494.027c-.681-1.425,2.125-2.44,3.909-3.26l.078-.037.006,0c1.764-.888,3.738-4.294,5.366-5.562,1.651-1.287,3.623-6.842,3.623-6.842l5.524-1.12s-1.137,5.161-.343,6.945a4.46,4.46,0,0,1,.19.51A3.426,3.426,0,0,1,2141.517,1726.8Z" transform="translate(-2125.309 -1595.587)" fill="#ffb27d"/>
          <path id="Path_90" data-name="Path 90" d="M2228.469,1476.544s-37.578,3.818-40.88,7.654-16.286,53.711-16.286,53.711,3.834,2.138,7.32.14c0,0,9.943-16.919,14.342-22.231s5.963-19.184,8.308-20.677c.629-.4,22.738,2.087,30.848-4.137S2228.469,1476.544,2228.469,1476.544Z" transform="translate(-2160.003 -1415.729)" fill="#71716f"/>
          <path id="Path_91" data-name="Path 91" d="M2365.635,1366.334a43.3,43.3,0,0,1-3.137,5.154c-2.813,3.922-6.07,6.742-9.6,7.474-5.126,1.065-22.312-8.911-21.442-14.413.473-2.995,10.024-8.378,11.563-10.552s2.466-13.065,3.288-17.511c.612-3.308,2.663-3.654,5.227-4.532,10.891-3.731,18.646.216,18.646.216C2375.163,1334.974,2372.394,1353.408,2365.635,1366.334Z" transform="translate(-2280.787 -1305.452)" fill="#739af0"/>
          <path id="Path_92" data-name="Path 92" d="M2428.432,1248.837a47.488,47.488,0,0,0,.819-5.522c.167-2.036-2.926-8.675-7.729-8.4a10.181,10.181,0,0,0-4.054,1.985c-1.517,1.247-3.632,3.829-.408,10.062l.885,2.125Z" transform="translate(-2344.109 -1233.457)" fill="#0d5d6c"/>
          <g id="Group_32" data-name="Group 32" transform="translate(67.151 4.315)">
            <path id="Path_93" data-name="Path 93" d="M2427.743,1305.972c.156,1.137,1.169,1.788,3.425,1.642,2.285-.147,5.526-1.532,5.257-2.587a31.291,31.291,0,0,1-1.667-8.6l-.415.116-6.98,1.961s.337,2.219.507,4.321A27.375,27.375,0,0,1,2427.743,1305.972Z" transform="translate(-2420.305 -1284.176)" fill="#f48f8f"/>
            <path id="Path_94" data-name="Path 94" d="M2427.362,1298.859s.337,2.219.507,4.321c3.959-.424,5.772-4.208,6.474-6.281Z" transform="translate(-2420.305 -1284.533)" fill="#e56e6e"/>
            <path id="Path_95" data-name="Path 95" d="M2408.2,1266.643s9.134-2.3,7.616-7.963-1.362-9.778-7.257-8.551-6.445,3.691-6.4,5.706S2405.787,1267.094,2408.2,1266.643Z" transform="translate(-2401.295 -1249.09)" fill="#f48f8f"/>
            <path id="Path_96" data-name="Path 96" d="M2411.2,1248.583s3.065,5.844,8.851,6.473c3.386.369,4.314,2.6,4.314,2.6a53.145,53.145,0,0,0-2.717-10.278S2412.231,1244.914,2411.2,1248.583Z" transform="translate(-2408.117 -1246.568)" fill="#0d5d6c"/>
            <path id="Path_97" data-name="Path 97" d="M2402.772,1254.984a15.907,15.907,0,0,0-2.617,3.48c-.914,2.131.867,6.621,1.6,7.588,0,0-4.25-7.211-2.829-10.334C2400.435,1252.408,2402.772,1254.984,2402.772,1254.984Z" transform="translate(-2398.639 -1252.196)" fill="#0d5d6c"/>
          </g>
          <path id="Path_98" data-name="Path 98" d="M2265,1467.636s-1.819,1.926-2.04,2.03c-1.2.563-2.722.234-3.456.419s-.607-.272-.066-.643,1.874-.226,1.329-.361a14.809,14.809,0,0,0-4.592-.388,4.125,4.125,0,0,1-3.245-.261c-.11-.179,4-2.188,5.176-2.121s4.552-.094,4.552-.094Z" transform="translate(-2221.575 -1407.94)" fill="#ffb27d"/>
          <path id="Path_99" data-name="Path 99" d="M2422.9,1352.217s1.093,26.789-2.057,30.544c-3.053,3.64-16.1,1.17-21.734-.054a1.581,1.581,0,0,0-1.258.363c-.44.4-.631-2.681-.631-2.681s17.014-2.49,18.156-2.813c1.642-.464.5-18.911.5-18.911Z" transform="translate(-2330.421 -1321.947)" fill="#f48f8f"/>
          <path id="Path_100" data-name="Path 100" d="M2381.647,1471s-1.525,1.545-2.105,2.334-4.634,2.219-4.725,1.8,1.814-1.709,1.987-2.188,2.25-2.89,3.516-3.165S2381.647,1471,2381.647,1471Z" transform="translate(-2313.515 -1410.599)" fill="#e56e6e"/>
          <path id="Path_101" data-name="Path 101" d="M2366.72,1466.887s-6.251,1.446-7.312,1.879-3.311,3.618-2.418,4.1c.564.3,3.031-1,4.283-1.272s4.8.345,6.423-2.862C2367.878,1468.366,2366.72,1466.887,2366.72,1466.887Z" transform="translate(-2299.916 -1408.445)" fill="#f48f8f"/>
          <path id="Path_102" data-name="Path 102" d="M2141.517,1749.69c-2.424,1-5.4,4.1-6.609,4.977s-9.237.566-9.494.027c-.681-1.425,2.125-2.44,3.909-3.26l.078-.037.006,0,.251-.082s3.462,1.235,6.339,0c2.246-.962,5.573-4.534,7.77-5.986A3.426,3.426,0,0,1,2141.517,1749.69Z" transform="translate(-2125.309 -1618.477)" fill="#45453c"/>
          <path id="Path_103" data-name="Path 103" d="M2211.623,1693.708c-1.208,2.33-1.48,6.615-1.839,8.069s-6.692,6.392-7.236,6.145c-1.385-.625-.062-3.038.784-4.8a3.931,3.931,0,0,0,1.933-.719c1.583-1.055,4.267-5.035,4.507-7.384.2-1.914.073-4.657,1.135-5.813A3.42,3.42,0,0,1,2211.623,1693.708Z" transform="translate(-2183.117 -1576.142)" fill="#36362c"/>
          <g id="Group_34" data-name="Group 34" transform="translate(23.324 44.857)">
            <g id="Group_33" data-name="Group 33">
              <path id="Path_104" data-name="Path 104" d="M2255.666,1431.957h-27.228l-8.191-20.368h27.186Z" transform="translate(-2220.247 -1411.589)" fill="#1db0cb"/>
              <path id="Path_105" data-name="Path 105" d="M2252.287,1491.265h35.955v.794h-35.636Z" transform="translate(-2244.416 -1471.69)" fill="#1d9eb5"/>
            </g>
            <path id="Path_106" data-name="Path 106" d="M2281.4,1449.061a.943.943,0,0,1,.925-1.3,1.858,1.858,0,0,1,1.668,1.3.943.943,0,0,1-.925,1.3A1.857,1.857,0,0,1,2281.4,1449.061Z" transform="translate(-2266.338 -1438.877)" fill="#fff"/>
          </g>
          <path id="Path_107" data-name="Path 107" d="M2427.786,1476.82a43.366,43.366,0,0,1-3.137,5.154c-8.727-.327-10.831-3.853-10.831-3.853Z" transform="translate(-2342.938 -1415.938)" fill="#5a7de0"/>
          <path id="Path_108" data-name="Path 108" d="M2415.477,1399.293s9.963-2.286,11.2-4.428,2.971-16.4,2.971-16.4l4.157,5.328-.841,12.539s-4.742,4.691-5.049,4.521S2415.477,1399.293,2415.477,1399.293Z" transform="translate(-2344.189 -1341.744)" fill="#5a7de0"/>
          <path id="Path_109" data-name="Path 109" d="M2430.963,1337.758a8.81,8.81,0,0,1,3.272,2.853c1.731,3.165,3.581,27.686-1.341,31.738s-19.206,3.244-20.887.375a8.468,8.468,0,0,1,.849-4.135s12.86-1.7,13.434-2.509-.416-18.183.191-19.761S2430.963,1337.758,2430.963,1337.758Z" transform="translate(-2341.57 -1311.04)" fill="#739af0"/>
        </g>
      </g>
      <path id="Path_110" data-name="Path 110" d="M2333.807,1477.463s-3.712,3.478-19.245,3.978c-12.146.391-24.939,5.287-30.916,13.7a23.985,23.985,0,0,0-3.26,8.811c-.811,4.781,29.481,12.212,29.968,11.519s19.952-17.416,19.952-17.416Z" transform="translate(-2224.441 -1416.423)" fill="#57cfe5"/>
    </g>
    <g id="Group_38" data-name="Group 38" transform="translate(583.33 353.065)">
      <path id="Path_111" data-name="Path 111" d="M1926.182,1087.079s15.105,15.662,15.819,21.557-7.236,15.1-7.236,15.1Z" transform="translate(-1891.511 -1055.678)" fill="#71716f"/>
      <path id="Path_112" data-name="Path 112" d="M1835.676,1739.521s-.533,8.307-2.141,8.423c-.214.015-8.153,0-8.153,0l-10.135-.081a3.288,3.288,0,0,1,3.035-2.952c2.964-.51,7.927-2.581,9.73-6.492C1829.91,1734.3,1835.676,1739.521,1835.676,1739.521Z" transform="translate(-1807.831 -1545.804)" fill="#45453c"/>
      <path id="Path_113" data-name="Path 113" d="M1927.557,1739.72s-.533,8.307-2.141,8.423c-.214.015-8.153,0-8.153,0l-10.135-.081a3.288,3.288,0,0,1,3.035-2.952c2.964-.51,7.927-2.581,9.73-6.492C1921.791,1734.5,1927.557,1739.72,1927.557,1739.72Z" transform="translate(-1877.139 -1545.955)" fill="#36362c"/>
      <path id="Path_114" data-name="Path 114" d="M1853.5,1345.386s2.614,16.958,12.436,47.073,11.142,43.15,11.142,43.15l10.608-.275s.162-32.888-4.362-48.031-.865-54.558-.865-54.558Z" transform="translate(-1836.688 -1240.99)" fill="#45453c"/>
      <path id="Path_115" data-name="Path 115" d="M1832.56,1336.224a411.475,411.475,0,0,0,3.921,56.922c4.352,31.376,2.825,44.688,2.825,44.688l10.585.375s6.394-31.365,4.615-47.068,8.78-53.854,8.78-53.854Z" transform="translate(-1820.881 -1243.614)" fill="#71716f"/>
      <path id="Path_116" data-name="Path 116" d="M1874.18,1054.282l-5.648,3.686-8.148-1.537c.114-.658.658-3.384,1.154-5.853.03-.146.06-.291.088-.434.425-2.1.791-3.906.791-3.906l7.621-3.343,2.841-1.246c-.007.044-.225,2.332-.255,2.666A19.406,19.406,0,0,0,1874.18,1054.282Z" transform="translate(-1841.877 -1021.41)" fill="#f48f8f"/>
      <path id="Path_117" data-name="Path 117" d="M1858.88,1077.461c.158-.066,9.823-2.9,10.871-2.547s1.665,2.38,1.665,2.38l-15.8,3.537A7.846,7.846,0,0,1,1858.88,1077.461Z" transform="translate(-1838.278 -1046.48)" fill="#71716f"/>
      <path id="Path_118" data-name="Path 118" d="M1861.8,1149.456c-1.653,7.465-28.9,8.291-35.909,1.5-.8-.774-.829-4.369-.517-9.216.61-9.469,2.533-23.71,2.623-30.988a57.6,57.6,0,0,1,1.185-10.371,84.218,84.218,0,0,1,3.482-12.409s13.317-4.274,15.805-3.536C1860.456,1087.982,1863.451,1141.991,1861.8,1149.456Z" transform="translate(-1815.329 -1053.617)" fill="#45453c"/>
      <path id="Path_119" data-name="Path 119" d="M1825.935,1186.674c.61-9.469,2.533-23.71,2.623-30.988a57.6,57.6,0,0,1,1.185-10.371l8.008-1.4S1845.508,1175.9,1825.935,1186.674Z" transform="translate(-1815.893 -1098.554)" fill="#71716f"/>
      <path id="Path_120" data-name="Path 120" d="M1836.664,1260.446a1.884,1.884,0,0,1-.6,2.179,3.652,3.652,0,0,0-1.634,3.328c.26,1.038,2.77,2.734,3.642,2.464s2.648-1.633,2.458-2.18,1.2-4.8-.917-6.438S1836.664,1260.446,1836.664,1260.446Z" transform="translate(-1822.258 -1185.517)" fill="#f48f8f"/>
      <path id="Path_121" data-name="Path 121" d="M1808.508,1091.343s-7.81,1.444-14.051,10.6-10.348,15.961-9.209,19.267,11.559,14.789,13.36,14.792,4.71-1.3,4.879-4.246c0,0-7.33-11.038-5.878-12.686.621-.7,9.565-7.933,10.832-4.656C1810.539,1119.834,1808.508,1091.343,1808.508,1091.343Z" transform="translate(-1785.058 -1058.895)" fill="#45453c"/>
      <path id="Path_122" data-name="Path 122" d="M1875.593,1048.244c-1.678,2.828-7.914,5.264-10.513,6.159.03-.146.06-.291.088-.434.424-2.1.791-3.906.791-3.906l7.621-3.342C1875.261,1046.7,1876.285,1047.08,1875.593,1048.244Z" transform="translate(-1845.42 -1025.235)" fill="#e56e6e"/>
      <path id="Path_123" data-name="Path 123" d="M1852.3,996.486s12.255,3.852,14.537-3.817,5.4-12.337-2.328-15.121-10.126-.312-11.51,2.063S1849.174,995.286,1852.3,996.486Z" transform="translate(-1834.634 -972.127)" fill="#f48f8f"/>
      <path id="Path_124" data-name="Path 124" d="M1858.267,966.013s.763,8.932,2.61,8.548,3.523-.668,3.247,2.024-2.844,5.794,2.846,6.283,13.9-14.172,12.347-16.954C1874.824,957.885,1851.768,956.217,1858.267,966.013Z" transform="translate(-1839.417 -959.266)" fill="#0d5d6c"/>
    </g>
    <g id="Group_61" data-name="Group 61" transform="translate(657.649 311.085)">
      <g id="Group_60" data-name="Group 60" transform="translate(12.987 0)">
        <g id="Group_46" data-name="Group 46" transform="translate(30.255 25.365)">
          <g id="Group_45" data-name="Group 45">
            <g id="Group_41" data-name="Group 41">
              <g id="Group_39" data-name="Group 39">
                <path id="Path_125" data-name="Path 125" d="M2263.749,891.807a.582.582,0,1,0,.823,0A.582.582,0,0,0,2263.749,891.807Z" transform="translate(-2263.577 -891.638)" fill="#3ddffc"/>
                <path id="Path_126" data-name="Path 126" d="M2271.458,899.588a.582.582,0,1,0,.823,0A.582.582,0,0,0,2271.458,899.588Z" transform="translate(-2269.392 -897.508)" fill="#3ddffc"/>
                <path id="Path_127" data-name="Path 127" d="M2280.092,907.477a.582.582,0,1,0,0,.823A.582.582,0,0,0,2280.092,907.477Z" transform="translate(-2275.284 -903.456)" fill="#3ddffc"/>
              </g>
              <g id="Group_40" data-name="Group 40" transform="translate(5.732 5.786)">
                <path id="Path_128" data-name="Path 128" d="M2287.079,915.357a.582.582,0,1,0,.823,0A.582.582,0,0,0,2287.079,915.357Z" transform="translate(-2286.907 -915.189)" fill="#3ddffc"/>
                <path id="Path_129" data-name="Path 129" d="M2294.789,923.139a.582.582,0,1,0,.823,0A.581.581,0,0,0,2294.789,923.139Z" transform="translate(-2292.723 -921.059)" fill="#3ddffc"/>
                <path id="Path_130" data-name="Path 130" d="M2303.422,931.027a.582.582,0,1,0,0,.822A.582.582,0,0,0,2303.422,931.027Z" transform="translate(-2298.615 -927.006)" fill="#3ddffc"/>
              </g>
            </g>
            <g id="Group_44" data-name="Group 44" transform="translate(11.387 11.494)">
              <g id="Group_42" data-name="Group 42">
                <path id="Path_131" data-name="Path 131" d="M2310.1,938.592a.582.582,0,1,0,.823,0A.582.582,0,0,0,2310.1,938.592Z" transform="translate(-2309.926 -938.423)" fill="#3ddffc"/>
                <path id="Path_132" data-name="Path 132" d="M2317.807,946.374a.582.582,0,1,0,.823,0A.582.582,0,0,0,2317.807,946.374Z" transform="translate(-2315.741 -944.294)" fill="#3ddffc"/>
                <path id="Path_133" data-name="Path 133" d="M2326.441,954.262a.582.582,0,1,0,0,.822A.582.582,0,0,0,2326.441,954.262Z" transform="translate(-2321.633 -950.241)" fill="#3ddffc"/>
              </g>
              <g id="Group_43" data-name="Group 43" transform="translate(5.732 5.786)">
                <path id="Path_134" data-name="Path 134" d="M2333.429,962.142a.582.582,0,1,0,.823,0A.582.582,0,0,0,2333.429,962.142Z" transform="translate(-2333.257 -961.974)" fill="#3ddffc"/>
                <path id="Path_135" data-name="Path 135" d="M2341.139,969.924a.582.582,0,1,0,.823,0A.581.581,0,0,0,2341.139,969.924Z" transform="translate(-2339.072 -967.844)" fill="#3ddffc"/>
                <path id="Path_136" data-name="Path 136" d="M2349.772,977.812a.582.582,0,1,0,0,.823A.581.581,0,0,0,2349.772,977.812Z" transform="translate(-2344.964 -973.791)" fill="#3ddffc"/>
              </g>
            </g>
          </g>
        </g>
        <g id="Group_54" data-name="Group 54" transform="translate(0 31.42)">
          <g id="Group_53" data-name="Group 53">
            <g id="Group_49" data-name="Group 49" transform="translate(3.63)">
              <g id="Group_47" data-name="Group 47" transform="translate(1.827)">
                <path id="Path_137" data-name="Path 137" d="M2168.3,916.3a.581.581,0,1,0,.436.7A.581.581,0,0,0,2168.3,916.3Z" transform="translate(-2166.369 -916.285)" fill="#3ddffc"/>
                <path id="Path_138" data-name="Path 138" d="M2165.839,926.975a.581.581,0,1,0,.437.7A.582.582,0,0,0,2165.839,926.975Z" transform="translate(-2164.515 -924.338)" fill="#3ddffc"/>
                <path id="Path_139" data-name="Path 139" d="M2163.786,938.487a.582.582,0,1,0-.7.436A.582.582,0,0,0,2163.786,938.487Z" transform="translate(-2162.637 -932.495)" fill="#3ddffc"/>
              </g>
              <g id="Group_48" data-name="Group 48" transform="translate(0 7.937)">
                <path id="Path_140" data-name="Path 140" d="M2160.86,948.605a.582.582,0,1,0,.436.7A.582.582,0,0,0,2160.86,948.605Z" transform="translate(-2158.933 -948.59)" fill="#3ddffc"/>
                <path id="Path_141" data-name="Path 141" d="M2158.4,959.281a.582.582,0,1,0,.436.7A.581.581,0,0,0,2158.4,959.281Z" transform="translate(-2157.079 -956.643)" fill="#3ddffc"/>
                <path id="Path_142" data-name="Path 142" d="M2156.349,970.793a.581.581,0,1,0-.7.436A.581.581,0,0,0,2156.349,970.793Z" transform="translate(-2155.201 -964.801)" fill="#3ddffc"/>
              </g>
            </g>
            <g id="Group_52" data-name="Group 52" transform="translate(0 15.767)">
              <g id="Group_50" data-name="Group 50" transform="translate(1.827)">
                <path id="Path_143" data-name="Path 143" d="M2153.523,980.478a.582.582,0,1,0,.436.7A.581.581,0,0,0,2153.523,980.478Z" transform="translate(-2151.595 -980.463)" fill="#3ddffc"/>
                <path id="Path_144" data-name="Path 144" d="M2151.065,991.153a.582.582,0,1,0,.436.7A.582.582,0,0,0,2151.065,991.153Z" transform="translate(-2149.742 -988.516)" fill="#3ddffc"/>
                <path id="Path_145" data-name="Path 145" d="M2149.013,1002.666a.582.582,0,1,0-.7.436A.582.582,0,0,0,2149.013,1002.666Z" transform="translate(-2147.864 -996.674)" fill="#3ddffc"/>
              </g>
              <g id="Group_51" data-name="Group 51" transform="translate(0 7.937)">
                <path id="Path_146" data-name="Path 146" d="M2146.087,1012.784a.581.581,0,1,0,.437.7A.582.582,0,0,0,2146.087,1012.784Z" transform="translate(-2144.159 -1012.769)" fill="#3ddffc"/>
                <path id="Path_147" data-name="Path 147" d="M2143.63,1023.459a.582.582,0,1,0,.437.7A.581.581,0,0,0,2143.63,1023.459Z" transform="translate(-2142.306 -1020.822)" fill="#3ddffc"/>
                <path id="Path_148" data-name="Path 148" d="M2141.576,1034.971a.581.581,0,1,0-.7.437A.582.582,0,0,0,2141.576,1034.971Z" transform="translate(-2140.427 -1028.98)" fill="#3ddffc"/>
              </g>
            </g>
          </g>
        </g>
        <g id="Group_57" data-name="Group 57" transform="translate(4.079)">
          <g id="Group_55" data-name="Group 55">
            <path id="Path_149" data-name="Path 149" d="M2182.4,801.076a12.682,12.682,0,1,0-12.682,12.682A12.683,12.683,0,0,0,2182.4,801.076Z" transform="translate(-2157.031 -788.393)" fill="#f89f1b"/>
          </g>
          <g id="Group_56" data-name="Group 56" transform="translate(5.559 3.524)">
            <path id="Path_150" data-name="Path 150" d="M2200.226,806.806a4.071,4.071,0,1,0-4.07,4.071A4.071,4.071,0,0,0,2200.226,806.806Z" transform="translate(-2189.032 -802.736)" fill="#edfcff"/>
            <path id="Path_151" data-name="Path 151" d="M2186.782,835.873a7.123,7.123,0,0,1,7.123,7.123h-14.247A7.124,7.124,0,0,1,2186.782,835.873Z" transform="translate(-2179.658 -827.732)" fill="#edfcff"/>
          </g>
        </g>
        <g id="Group_59" data-name="Group 59" transform="translate(35.47 48.593)">
          <path id="Path_152" data-name="Path 152" d="M2297,989.415l-.47-1.164a3.3,3.3,0,0,0-3.061-2.065h-8.67v28.989h35.866V991.687h-20.3A3.632,3.632,0,0,1,2297,989.415Z" transform="translate(-2284.803 -986.186)" fill="#f89f1b"/>
          <g id="Group_58" data-name="Group 58" transform="translate(10.654 8.799)">
            <path id="Path_153" data-name="Path 153" d="M2340.813,1026.436h-1.2a3.4,3.4,0,0,0,.054-.6v-.41a3.431,3.431,0,0,0-3.427-3.427h-2.106a3.43,3.43,0,0,0-3.426,3.427v.41a3.423,3.423,0,0,0,.053.6h-1.333a1.261,1.261,0,0,0-1.26,1.261v5.5a5.636,5.636,0,0,0,5.636,5.636h3.327a5.294,5.294,0,0,0,5.3-5.3v-5.486A1.615,1.615,0,0,0,2340.813,1026.436Zm-5.112,5.535v2.555a.4.4,0,0,1-.806,0v-2.555a1.859,1.859,0,1,1,.806,0Zm2.6-6.134a2.047,2.047,0,0,1-.089.6h-6.04a2.048,2.048,0,0,1-.09-.6v-.41a2.058,2.058,0,0,1,2.056-2.056h2.106a2.059,2.059,0,0,1,2.057,2.056Z" transform="translate(-2328.169 -1022)" fill="#ebf3fa"/>
          </g>
        </g>
      </g>
      <path id="Path_154" data-name="Path 154" d="M2087.566,1074.443c0,6.477,10.969,18.3,10.969,18.3s10.966-11.823,10.966-18.3-4.909-11.724-10.966-11.724S2087.566,1067.968,2087.566,1074.443Zm4.6-1.188a6.364,6.364,0,1,1,6.364,6.364A6.365,6.365,0,0,1,2092.171,1073.254Z" transform="translate(-2087.566 -995.323)" fill="#f89f1b"/>
    </g>
    <g id="Group_62" data-name="Group 62" transform="translate(388.303 355.691)">
      <path id="Path_155" data-name="Path 155" d="M1055.987,1085.535c-.271-1.119.219-2,1.255-2a2.439,2.439,0,0,1,2.21,1.992c.271,1.119-.214,2-1.255,2A2.428,2.428,0,0,1,1055.987,1085.535Zm2.585,0c-.169-.7-.643-1.229-1.156-1.228s-.723.514-.549,1.231.638,1.228,1.156,1.227S1058.744,1086.242,1058.572,1085.531Z" transform="translate(-1040.021 -1055.632)" fill="#f99746"/>
      <path id="Path_156" data-name="Path 156" d="M992.21,971.014l-.64.167-.346-.694,1.04-.333h.585l.941,3.885-.847,0Z" transform="translate(-991.224 -970.104)" fill="#2f539b"/>
      <path id="Path_157" data-name="Path 157" d="M1007.387,971.969c-.271-1.119.219-2,1.255-2a2.438,2.438,0,0,1,2.21,1.992c.271,1.119-.213,2-1.255,2A2.428,2.428,0,0,1,1007.387,971.969Zm2.586,0c-.17-.7-.643-1.229-1.156-1.228s-.723.514-.549,1.231.638,1.228,1.156,1.227S1010.145,972.676,1009.973,971.965Z" transform="translate(-1003.361 -969.967)" fill="#2f539b"/>
      <path id="Path_158" data-name="Path 158" d="M1081.735,1190.472c-.271-1.119.219-2,1.255-2a2.439,2.439,0,0,1,2.21,1.992c.271,1.119-.214,2-1.255,2A2.429,2.429,0,0,1,1081.735,1190.472Zm2.585,0c-.17-.7-.643-1.229-1.156-1.228s-.723.514-.549,1.231.638,1.228,1.156,1.227S1084.492,1191.178,1084.32,1190.468Z" transform="translate(-1059.443 -1134.788)" fill="#2f539b"/>
      <path id="Path_159" data-name="Path 159" d="M1010.1,1044.907l-.64.166-.346-.694,1.04-.332h.585l.941,3.885h-.847Z" transform="translate(-1004.72 -1025.843)" fill="#2f539b"/>
      <path id="Path_160" data-name="Path 160" d="M1025.279,1045.861c-.271-1.119.219-2,1.255-2a2.439,2.439,0,0,1,2.211,1.992c.271,1.119-.214,2-1.255,2A2.428,2.428,0,0,1,1025.279,1045.861Zm2.586,0c-.17-.7-.643-1.228-1.156-1.228s-.723.514-.549,1.231.637,1.228,1.156,1.227S1028.037,1046.568,1027.864,1045.857Z" transform="translate(-1016.857 -1025.705)" fill="#2f539b"/>
      <path id="Path_161" data-name="Path 161" d="M1020.407,1007.734l-.64.167-.347-.694,1.04-.333h.585l.941,3.886h-.847Z" transform="translate(-1012.494 -997.803)" fill="#f99746"/>
      <path id="Path_162" data-name="Path 162" d="M1035.585,1008.689c-.271-1.119.219-2,1.255-2a2.439,2.439,0,0,1,2.21,1.992c.271,1.119-.214,2-1.255,2A2.428,2.428,0,0,1,1035.585,1008.689Zm2.585,0c-.169-.7-.643-1.229-1.156-1.228s-.723.514-.549,1.23.637,1.228,1.156,1.228S1038.342,1009.4,1038.17,1008.685Z" transform="translate(-1024.631 -997.665)" fill="#f99746"/>
      <path id="Path_163" data-name="Path 163" d="M1019.716,1084.616l-.64.167-.347-.694,1.04-.332h.585l.941,3.885h-.847Z" transform="translate(-1011.972 -1055.796)" fill="#2f539b"/>
      <path id="Path_164" data-name="Path 164" d="M1034.894,1085.57c-.271-1.119.219-2,1.255-2a2.439,2.439,0,0,1,2.21,1.992c.271,1.119-.214,2-1.255,2A2.428,2.428,0,0,1,1034.894,1085.57Zm2.586,0c-.17-.7-.643-1.229-1.156-1.228s-.723.514-.55,1.231.638,1.229,1.156,1.227S1037.651,1086.277,1037.479,1085.566Z" transform="translate(-1024.11 -1055.658)" fill="#2f539b"/>
      <path id="Path_165" data-name="Path 165" d="M1067.224,971.951c-.271-1.119.219-2,1.255-2a2.438,2.438,0,0,1,2.21,1.992c.271,1.119-.213,2-1.255,2A2.428,2.428,0,0,1,1067.224,971.951Zm2.586,0c-.17-.7-.643-1.228-1.156-1.228s-.723.514-.55,1.231.638,1.228,1.156,1.227S1069.982,972.658,1069.81,971.947Z" transform="translate(-1048.497 -969.953)" fill="#f99746"/>
      <path id="Path_166" data-name="Path 166" d="M1030.954,971.032l-.64.167-.346-.694,1.04-.332h.585l.941,3.885h-.847Z" transform="translate(-1020.449 -970.117)" fill="#2f539b"/>
      <path id="Path_167" data-name="Path 167" d="M1046.131,971.987c-.271-1.119.219-2,1.255-2a2.438,2.438,0,0,1,2.21,1.992c.271,1.119-.214,2-1.255,2A2.429,2.429,0,0,1,1046.131,971.987Zm2.585,0c-.169-.7-.643-1.229-1.156-1.228s-.723.514-.55,1.231.638,1.228,1.156,1.228S1048.889,972.693,1048.716,971.983Z" transform="translate(-1032.586 -969.98)" fill="#2f539b"/>
      <path id="Path_168" data-name="Path 168" d="M1074.357,1162.24c-.271-1.119.219-2,1.255-2a2.439,2.439,0,0,1,2.211,1.992c.271,1.119-.214,2-1.255,2A2.428,2.428,0,0,1,1074.357,1162.24Zm2.585,0c-.169-.7-.643-1.228-1.156-1.228s-.723.514-.549,1.231.637,1.229,1.156,1.228S1077.114,1162.946,1076.942,1162.235Z" transform="translate(-1053.877 -1113.492)" fill="#f99746"/>
      <path id="Path_169" data-name="Path 169" d="M1028.471,1121.611l-.64.167-.347-.694,1.04-.333h.585l.941,3.885h-.847Z" transform="translate(-1018.576 -1083.703)" fill="#2f539b"/>
      <path id="Path_170" data-name="Path 170" d="M1043.649,1122.566c-.271-1.119.219-2,1.255-2a2.439,2.439,0,0,1,2.21,1.992c.271,1.119-.214,2-1.255,2A2.429,2.429,0,0,1,1043.649,1122.566Zm2.585,0c-.169-.7-.643-1.229-1.156-1.228s-.723.514-.549,1.231.638,1.228,1.156,1.227S1046.407,1123.273,1046.234,1122.562Z" transform="translate(-1030.714 -1083.565)" fill="#2f539b"/>
      <path id="Path_171" data-name="Path 171" d="M1064.742,1122.531c-.271-1.119.219-2,1.255-2a2.439,2.439,0,0,1,2.21,1.992c.271,1.119-.214,2-1.255,2A2.429,2.429,0,0,1,1064.742,1122.531Zm2.585,0c-.169-.7-.643-1.228-1.156-1.228s-.723.514-.549,1.231.638,1.229,1.156,1.228S1067.5,1123.237,1067.327,1122.526Z" transform="translate(-1046.625 -1083.539)" fill="#2f539b"/>
      <path id="Path_172" data-name="Path 172" d="M1084.651,1121.516l-.64.167-.346-.694,1.04-.333h.585l.941,3.886h-.847Z" transform="translate(-1060.954 -1083.631)" fill="#2f539b"/>
      <path id="Path_173" data-name="Path 173" d="M1038.086,1161.32l-.64.167-.346-.694,1.04-.333h.585l.941,3.885h-.847Z" transform="translate(-1025.829 -1113.656)" fill="#2f539b"/>
      <path id="Path_174" data-name="Path 174" d="M1053.264,1162.275c-.271-1.119.219-2,1.255-2a2.439,2.439,0,0,1,2.21,1.993c.271,1.118-.214,2-1.255,2A2.429,2.429,0,0,1,1053.264,1162.275Zm2.586,0c-.17-.7-.643-1.229-1.156-1.228s-.723.514-.549,1.23.637,1.228,1.156,1.227S1056.021,1162.982,1055.849,1162.271Z" transform="translate(-1037.966 -1113.519)" fill="#2f539b"/>
      <path id="Path_175" data-name="Path 175" d="M1093.008,1250.286c-.271-1.119.219-2,1.255-2a2.439,2.439,0,0,1,2.21,1.992c.271,1.119-.213,2-1.255,2A2.428,2.428,0,0,1,1093.008,1250.286Zm2.585,0c-.17-.7-.643-1.229-1.156-1.228s-.723.514-.549,1.231.638,1.229,1.156,1.227S1095.766,1250.993,1095.594,1250.282Z" transform="translate(-1067.947 -1179.907)" fill="#2f539b"/>
      <path id="Path_176" data-name="Path 176" d="M1112.917,1249.272l-.64.167-.346-.694,1.04-.333h.585l.941,3.886h-.847Z" transform="translate(-1082.276 -1180)" fill="#2f539b"/>
      <path id="Path_177" data-name="Path 177" d="M1056.738,1249.367l-.64.167-.346-.694,1.04-.332h.585l.941,3.885h-.847Z" transform="translate(-1039.899 -1180.072)" fill="#2f539b"/>
      <path id="Path_178" data-name="Path 178" d="M1071.916,1250.321c-.271-1.119.219-2,1.255-2a2.439,2.439,0,0,1,2.21,1.992c.271,1.119-.213,2-1.255,2A2.428,2.428,0,0,1,1071.916,1250.321Zm2.585,0c-.169-.7-.643-1.228-1.156-1.228s-.723.514-.549,1.231.637,1.228,1.156,1.228S1074.673,1251.028,1074.5,1250.317Z" transform="translate(-1052.036 -1179.934)" fill="#2f539b"/>
      <path id="Path_179" data-name="Path 179" d="M1128.1,1250.226c-.271-1.119.219-2,1.256-2a2.44,2.44,0,0,1,2.21,1.992c.271,1.119-.214,2-1.255,2A2.429,2.429,0,0,1,1128.1,1250.226Zm2.585,0c-.169-.7-.643-1.228-1.156-1.228s-.723.514-.549,1.23.637,1.228,1.156,1.228S1130.853,1250.933,1130.681,1250.222Z" transform="translate(-1094.414 -1179.862)" fill="#f99746"/>
      <path id="Path_180" data-name="Path 180" d="M1149.188,1250.191c-.271-1.119.219-2,1.255-2a2.439,2.439,0,0,1,2.211,1.993c.271,1.118-.214,2-1.255,2A2.428,2.428,0,0,1,1149.188,1250.191Zm2.586,0c-.17-.7-.643-1.228-1.156-1.228s-.723.514-.549,1.23.637,1.229,1.156,1.227S1151.945,1250.9,1151.773,1250.187Z" transform="translate(-1110.324 -1179.836)" fill="#f99746"/>
      <path id="Path_181" data-name="Path 181" d="M1066.946,1278.608c-.271-1.119.219-2,1.255-2a2.439,2.439,0,0,1,2.21,1.992c.271,1.119-.213,2-1.255,2A2.429,2.429,0,0,1,1066.946,1278.608Zm2.586,0c-.17-.7-.643-1.229-1.156-1.228s-.723.514-.549,1.23.638,1.229,1.156,1.228S1069.7,1279.315,1069.532,1278.6Z" transform="translate(-1048.287 -1201.271)" fill="#2f539b"/>
      <path id="Path_182" data-name="Path 182" d="M1086.855,1277.594l-.64.167-.346-.694,1.04-.333h.585l.941,3.886h-.847Z" transform="translate(-1062.617 -1201.364)" fill="#2f539b"/>
      <path id="Path_183" data-name="Path 183" d="M1102.034,1278.549c-.271-1.119.219-2,1.255-2a2.439,2.439,0,0,1,2.21,1.992c.271,1.119-.213,2-1.255,2A2.428,2.428,0,0,1,1102.034,1278.549Zm2.585,0c-.17-.7-.643-1.228-1.156-1.228s-.723.514-.549,1.231.637,1.228,1.156,1.227S1104.791,1279.256,1104.619,1278.545Z" transform="translate(-1074.755 -1201.227)" fill="#2f539b"/>
      <path id="Path_184" data-name="Path 184" d="M1123.126,1278.514c-.271-1.119.219-2,1.255-2a2.438,2.438,0,0,1,2.21,1.992c.271,1.119-.213,2-1.255,2A2.428,2.428,0,0,1,1123.126,1278.514Zm2.585,0c-.17-.7-.643-1.229-1.156-1.228s-.723.514-.549,1.23.637,1.229,1.156,1.228S1125.883,1279.22,1125.711,1278.51Z" transform="translate(-1090.665 -1201.2)" fill="#2f539b"/>
      <path id="Path_185" data-name="Path 185" d="M1731.124,1250.286c-.271-1.119.219-2,1.255-2a2.439,2.439,0,0,1,2.21,1.992c.271,1.119-.214,2-1.255,2A2.428,2.428,0,0,1,1731.124,1250.286Zm2.585,0c-.169-.7-.643-1.229-1.156-1.228s-.723.514-.549,1.231.637,1.229,1.156,1.227S1733.881,1250.993,1733.709,1250.282Z" transform="translate(-1549.292 -1179.907)" fill="#2f539b"/>
      <path id="Path_186" data-name="Path 186" d="M1751.033,1249.272l-.64.167-.346-.694,1.04-.333h.585l.941,3.886h-.847Z" transform="translate(-1563.621 -1180)" fill="#2f539b"/>
      <path id="Path_187" data-name="Path 187" d="M1694.853,1249.367l-.64.167-.346-.694,1.04-.332h.585l.941,3.885h-.847Z" transform="translate(-1521.243 -1180.072)" fill="#2f539b"/>
      <path id="Path_188" data-name="Path 188" d="M1710.031,1250.321c-.271-1.119.219-2,1.255-2a2.439,2.439,0,0,1,2.21,1.992c.271,1.119-.214,2-1.255,2A2.428,2.428,0,0,1,1710.031,1250.321Zm2.586,0c-.17-.7-.643-1.228-1.156-1.228s-.723.514-.549,1.231.637,1.228,1.156,1.228S1712.788,1251.028,1712.616,1250.317Z" transform="translate(-1533.381 -1179.934)" fill="#2f539b"/>
      <path id="Path_189" data-name="Path 189" d="M1766.212,1250.226c-.271-1.119.219-2,1.255-2a2.439,2.439,0,0,1,2.21,1.992c.271,1.119-.214,2-1.255,2A2.428,2.428,0,0,1,1766.212,1250.226Zm2.585,0c-.17-.7-.643-1.228-1.156-1.228s-.722.514-.549,1.23.637,1.228,1.156,1.228S1768.969,1250.933,1768.8,1250.222Z" transform="translate(-1575.759 -1179.862)" fill="#f99746"/>
      <path id="Path_190" data-name="Path 190" d="M1787.3,1250.191c-.271-1.119.219-2,1.255-2a2.439,2.439,0,0,1,2.21,1.993c.271,1.118-.213,2-1.255,2A2.428,2.428,0,0,1,1787.3,1250.191Zm2.585,0c-.169-.7-.643-1.228-1.156-1.228s-.723.514-.55,1.23.638,1.229,1.156,1.227S1790.061,1250.9,1789.889,1250.187Z" transform="translate(-1591.669 -1179.836)" fill="#f99746"/>
      <path id="Path_191" data-name="Path 191" d="M1646.769,1278.608c-.271-1.119.219-2,1.255-2a2.439,2.439,0,0,1,2.211,1.992c.271,1.119-.213,2-1.255,2A2.428,2.428,0,0,1,1646.769,1278.608Zm2.585,0c-.17-.7-.643-1.229-1.156-1.228s-.723.514-.55,1.23.637,1.229,1.156,1.228S1649.527,1279.315,1649.355,1278.6Z" transform="translate(-1485.661 -1201.271)" fill="#2f539b"/>
      <path id="Path_192" data-name="Path 192" d="M1666.677,1277.594l-.64.167-.347-.694,1.04-.333h.585l.941,3.886h-.847Z" transform="translate(-1499.99 -1201.364)" fill="#2f539b"/>
      <path id="Path_193" data-name="Path 193" d="M1681.856,1278.549c-.271-1.119.219-2,1.255-2a2.439,2.439,0,0,1,2.211,1.992c.271,1.119-.214,2-1.256,2A2.428,2.428,0,0,1,1681.856,1278.549Zm2.585,0c-.169-.7-.643-1.228-1.156-1.228s-.723.514-.549,1.231.638,1.228,1.156,1.227S1684.614,1279.256,1684.441,1278.545Z" transform="translate(-1512.128 -1201.227)" fill="#2f539b"/>
      <path id="Path_194" data-name="Path 194" d="M1702.948,1278.514c-.271-1.119.219-2,1.255-2a2.438,2.438,0,0,1,2.21,1.992c.271,1.119-.214,2-1.255,2A2.429,2.429,0,0,1,1702.948,1278.514Zm2.586,0c-.17-.7-.643-1.229-1.156-1.228s-.722.514-.549,1.23.638,1.229,1.156,1.228S1705.705,1279.22,1705.533,1278.51Z" transform="translate(-1528.038 -1201.2)" fill="#2f539b"/>
      <path id="Path_195" data-name="Path 195" d="M1119.8,1352.734c-.271-1.119.219-2,1.255-2a2.439,2.439,0,0,1,2.21,1.992c.271,1.119-.214,2-1.255,2A2.428,2.428,0,0,1,1119.8,1352.734Zm2.585,0c-.169-.7-.643-1.228-1.156-1.228s-.723.514-.549,1.231.638,1.229,1.156,1.228S1122.554,1353.441,1122.382,1352.73Z" transform="translate(-1088.154 -1257.186)" fill="#f99746"/>
      <path id="Path_196" data-name="Path 196" d="M1139.706,1351.72l-.64.167-.346-.694,1.04-.333h.585l.941,3.886h-.847Z" transform="translate(-1102.484 -1257.279)" fill="#f99746"/>
      <path id="Path_197" data-name="Path 197" d="M1073.912,1312.106l-.64.167-.346-.694,1.04-.333h.585l.941,3.885-.847,0Z" transform="translate(-1052.854 -1227.397)" fill="#2f539b"/>
      <path id="Path_198" data-name="Path 198" d="M1089.089,1313.062c-.271-1.119.219-2,1.255-2a2.439,2.439,0,0,1,2.21,1.992c.271,1.119-.214,2-1.255,2A2.429,2.429,0,0,1,1089.089,1313.062Zm2.585,0c-.17-.7-.643-1.229-1.156-1.228s-.723.514-.55,1.23.638,1.228,1.156,1.227S1091.847,1313.768,1091.674,1313.058Z" transform="translate(-1064.99 -1227.261)" fill="#2f539b"/>
      <path id="Path_199" data-name="Path 199" d="M1110.182,1313.025c-.271-1.119.219-2,1.255-2a2.44,2.44,0,0,1,2.21,1.993c.271,1.118-.214,2-1.255,2A2.429,2.429,0,0,1,1110.182,1313.025Zm2.586,0c-.169-.7-.643-1.228-1.156-1.228s-.723.514-.55,1.23.638,1.228,1.156,1.228S1112.94,1313.732,1112.768,1313.021Z" transform="translate(-1080.901 -1227.233)" fill="#2f539b"/>
      <path id="Path_200" data-name="Path 200" d="M1130.091,1312.011l-.64.167-.346-.694,1.04-.333h.585l.941,3.886h-.847Z" transform="translate(-1095.231 -1227.326)" fill="#2f539b"/>
      <path id="Path_201" data-name="Path 201" d="M1691.359,1312.106l-.64.167-.346-.694,1.04-.333H1692l.941,3.885-.847,0Z" transform="translate(-1518.608 -1227.397)" fill="#2f539b"/>
      <path id="Path_202" data-name="Path 202" d="M1706.536,1313.062c-.271-1.119.219-2,1.255-2a2.439,2.439,0,0,1,2.21,1.992c.271,1.119-.214,2-1.255,2A2.428,2.428,0,0,1,1706.536,1313.062Zm2.585,0c-.169-.7-.643-1.229-1.156-1.228s-.723.514-.549,1.23.637,1.228,1.156,1.227S1709.294,1313.768,1709.122,1313.058Z" transform="translate(-1530.745 -1227.261)" fill="#2f539b"/>
      <path id="Path_203" data-name="Path 203" d="M1727.629,1313.025c-.271-1.119.219-2,1.255-2a2.439,2.439,0,0,1,2.21,1.993c.271,1.118-.214,2-1.255,2A2.429,2.429,0,0,1,1727.629,1313.025Zm2.586,0c-.169-.7-.643-1.228-1.156-1.228s-.723.514-.549,1.23.637,1.228,1.156,1.228S1730.386,1313.732,1730.214,1313.021Z" transform="translate(-1546.655 -1227.233)" fill="#2f539b"/>
      <path id="Path_204" data-name="Path 204" d="M1747.538,1312.011l-.64.167-.346-.694,1.04-.333h.585l.941,3.886h-.847Z" transform="translate(-1560.985 -1227.326)" fill="#2f539b"/>
      <path id="Path_205" data-name="Path 205" d="M1083.527,1351.815l-.64.167-.346-.694,1.04-.333h.585l.941,3.886h-.847Z" transform="translate(-1060.106 -1257.351)" fill="#2f539b"/>
      <path id="Path_206" data-name="Path 206" d="M1098.7,1352.77c-.271-1.119.219-2,1.255-2a2.439,2.439,0,0,1,2.21,1.992c.271,1.119-.214,2-1.255,2A2.428,2.428,0,0,1,1098.7,1352.77Zm2.585,0c-.169-.7-.643-1.229-1.156-1.228s-.723.514-.549,1.23.637,1.229,1.156,1.228S1101.461,1353.477,1101.289,1352.766Z" transform="translate(-1072.243 -1257.213)" fill="#2f539b"/>
      <path id="Path_207" data-name="Path 207" d="M1154.884,1352.676c-.271-1.119.219-2,1.255-2a2.439,2.439,0,0,1,2.21,1.992c.271,1.119-.214,2-1.255,2A2.429,2.429,0,0,1,1154.884,1352.676Zm2.586,0c-.17-.7-.643-1.229-1.156-1.228s-.723.514-.549,1.231.637,1.228,1.156,1.227S1157.642,1353.382,1157.469,1352.672Z" transform="translate(-1114.621 -1257.142)" fill="#2f539b"/>
      <path id="Path_208" data-name="Path 208" d="M1175.976,1352.641c-.271-1.119.219-2,1.255-2a2.438,2.438,0,0,1,2.21,1.992c.271,1.119-.214,2-1.256,2A2.428,2.428,0,0,1,1175.976,1352.641Zm2.585,0c-.17-.7-.643-1.228-1.156-1.228s-.723.514-.549,1.231.637,1.228,1.156,1.228S1178.734,1353.347,1178.562,1352.636Z" transform="translate(-1130.531 -1257.116)" fill="#2f539b"/>
      <path id="Path_209" data-name="Path 209" d="M1127.93,1380.77c-.271-1.118.219-2,1.255-2a2.439,2.439,0,0,1,2.21,1.993c.271,1.119-.213,2-1.255,2A2.428,2.428,0,0,1,1127.93,1380.77Zm2.586,0c-.17-.7-.643-1.228-1.156-1.228s-.723.514-.55,1.23.638,1.228,1.156,1.228S1130.687,1381.477,1130.515,1380.766Z" transform="translate(-1094.289 -1278.334)" fill="#f99746"/>
      <path id="Path_210" data-name="Path 210" d="M1147.839,1379.757l-.64.167-.346-.694,1.04-.333h.585l.941,3.885h-.847Z" transform="translate(-1108.618 -1278.428)" fill="#f99746"/>
      <path id="Path_211" data-name="Path 211" d="M1106.838,1380.807c-.271-1.119.219-2,1.255-2a2.438,2.438,0,0,1,2.21,1.992c.271,1.119-.214,2-1.255,2A2.429,2.429,0,0,1,1106.838,1380.807Zm2.585,0c-.17-.7-.643-1.229-1.156-1.228s-.723.514-.55,1.23.638,1.229,1.156,1.228S1109.595,1381.513,1109.423,1380.8Z" transform="translate(-1078.378 -1278.362)" fill="#2f539b"/>
      <path id="Path_212" data-name="Path 212" d="M1163.017,1380.712c-.271-1.119.219-2,1.255-2a2.439,2.439,0,0,1,2.21,1.992c.271,1.119-.214,2-1.255,2A2.429,2.429,0,0,1,1163.017,1380.712Zm2.586,0c-.17-.7-.643-1.229-1.156-1.228s-.723.514-.55,1.23.637,1.229,1.156,1.228S1165.775,1381.419,1165.6,1380.708Z" transform="translate(-1120.756 -1278.291)" fill="#2f539b"/>
      <path id="Path_213" data-name="Path 213" d="M1184.109,1380.676c-.271-1.119.219-2,1.255-2a2.439,2.439,0,0,1,2.21,1.992c.271,1.119-.214,2-1.255,2A2.429,2.429,0,0,1,1184.109,1380.676Zm2.585,0c-.17-.7-.643-1.228-1.156-1.228s-.723.514-.549,1.231.638,1.228,1.156,1.228S1186.867,1381.382,1186.694,1380.672Z" transform="translate(-1136.666 -1278.263)" fill="#2f539b"/>
      <path id="Path_214" data-name="Path 214" d="M1256.685,1380.77c-.271-1.118.219-2,1.255-2a2.439,2.439,0,0,1,2.21,1.993c.271,1.119-.214,2-1.255,2A2.428,2.428,0,0,1,1256.685,1380.77Zm2.586,0c-.17-.7-.643-1.228-1.156-1.228s-.723.514-.549,1.23.637,1.228,1.156,1.228S1259.443,1381.477,1259.271,1380.766Z" transform="translate(-1191.412 -1278.334)" fill="#f99746"/>
      <path id="Path_215" data-name="Path 215" d="M1276.594,1379.757l-.64.167-.346-.694,1.04-.333h.585l.941,3.885h-.847Z" transform="translate(-1205.741 -1278.428)" fill="#f99746"/>
      <path id="Path_216" data-name="Path 216" d="M1235.592,1380.807c-.271-1.119.219-2,1.255-2a2.438,2.438,0,0,1,2.21,1.992c.271,1.119-.213,2-1.255,2A2.429,2.429,0,0,1,1235.592,1380.807Zm2.586,0c-.17-.7-.643-1.229-1.156-1.228s-.723.514-.549,1.23.638,1.229,1.156,1.228S1238.35,1381.513,1238.178,1380.8Z" transform="translate(-1175.501 -1278.362)" fill="#2f539b"/>
      <path id="Path_217" data-name="Path 217" d="M1291.772,1380.712c-.271-1.119.219-2,1.255-2a2.439,2.439,0,0,1,2.21,1.992c.271,1.119-.214,2-1.255,2A2.429,2.429,0,0,1,1291.772,1380.712Zm2.585,0c-.169-.7-.643-1.229-1.156-1.228s-.723.514-.549,1.23.638,1.229,1.156,1.228S1294.53,1381.419,1294.358,1380.708Z" transform="translate(-1217.879 -1278.291)" fill="#2f539b"/>
      <path id="Path_218" data-name="Path 218" d="M1312.865,1380.676c-.271-1.119.219-2,1.255-2a2.439,2.439,0,0,1,2.21,1.992c.271,1.119-.213,2-1.255,2A2.428,2.428,0,0,1,1312.865,1380.676Zm2.585,0c-.169-.7-.643-1.228-1.156-1.228s-.723.514-.549,1.231.637,1.228,1.156,1.228S1315.622,1381.382,1315.45,1380.672Z" transform="translate(-1233.789 -1278.263)" fill="#2f539b"/>
      <path id="Path_219" data-name="Path 219" d="M1549.818,1380.77c-.271-1.118.219-2,1.255-2a2.439,2.439,0,0,1,2.21,1.993c.271,1.119-.213,2-1.255,2A2.428,2.428,0,0,1,1549.818,1380.77Zm2.585,0c-.169-.7-.643-1.228-1.156-1.228s-.723.514-.549,1.23.638,1.228,1.156,1.228S1552.576,1381.477,1552.4,1380.766Z" transform="translate(-1412.528 -1278.334)" fill="#f99746"/>
      <path id="Path_220" data-name="Path 220" d="M1569.726,1379.757l-.64.167-.346-.694,1.04-.333h.585l.941,3.885h-.847Z" transform="translate(-1426.857 -1278.428)" fill="#f99746"/>
      <path id="Path_221" data-name="Path 221" d="M1528.725,1380.807c-.271-1.119.219-2,1.255-2a2.439,2.439,0,0,1,2.211,1.992c.271,1.119-.213,2-1.256,2A2.429,2.429,0,0,1,1528.725,1380.807Zm2.585,0c-.17-.7-.643-1.229-1.156-1.228s-.723.514-.55,1.23.637,1.229,1.156,1.228S1531.483,1381.513,1531.311,1380.8Z" transform="translate(-1396.618 -1278.362)" fill="#2f539b"/>
      <path id="Path_222" data-name="Path 222" d="M1584.9,1380.712c-.271-1.119.219-2,1.255-2a2.439,2.439,0,0,1,2.21,1.992c.271,1.119-.214,2-1.255,2A2.429,2.429,0,0,1,1584.9,1380.712Zm2.585,0c-.169-.7-.643-1.229-1.156-1.228s-.723.514-.549,1.23.638,1.229,1.156,1.228S1587.662,1381.419,1587.49,1380.708Z" transform="translate(-1438.995 -1278.291)" fill="#2f539b"/>
      <path id="Path_223" data-name="Path 223" d="M1606,1380.676c-.271-1.119.219-2,1.255-2a2.439,2.439,0,0,1,2.21,1.992c.271,1.119-.214,2-1.255,2A2.429,2.429,0,0,1,1606,1380.676Zm2.586,0c-.17-.7-.643-1.228-1.156-1.228s-.723.514-.549,1.231.637,1.228,1.156,1.228S1608.754,1381.382,1608.582,1380.672Z" transform="translate(-1454.905 -1278.263)" fill="#2f539b"/>
      <path id="Path_224" data-name="Path 224" d="M1678.573,1380.77c-.271-1.118.219-2,1.255-2a2.44,2.44,0,0,1,2.21,1.993c.271,1.119-.214,2-1.255,2A2.428,2.428,0,0,1,1678.573,1380.77Zm2.585,0c-.169-.7-.643-1.228-1.156-1.228s-.723.514-.549,1.23.638,1.228,1.156,1.228S1681.33,1381.477,1681.158,1380.766Z" transform="translate(-1509.651 -1278.334)" fill="#f99746"/>
      <path id="Path_225" data-name="Path 225" d="M1698.482,1379.757l-.64.167-.346-.694,1.04-.333h.585l.941,3.885h-.847Z" transform="translate(-1523.981 -1278.428)" fill="#f99746"/>
      <path id="Path_226" data-name="Path 226" d="M1657.48,1380.807c-.271-1.119.219-2,1.255-2a2.439,2.439,0,0,1,2.211,1.992c.271,1.119-.214,2-1.256,2A2.429,2.429,0,0,1,1657.48,1380.807Zm2.585,0c-.169-.7-.643-1.229-1.156-1.228s-.723.514-.55,1.23.638,1.229,1.156,1.228S1660.238,1381.513,1660.065,1380.8Z" transform="translate(-1493.741 -1278.362)" fill="#2f539b"/>
      <path id="Path_227" data-name="Path 227" d="M1713.66,1380.712c-.271-1.119.219-2,1.255-2a2.439,2.439,0,0,1,2.21,1.992c.271,1.119-.213,2-1.255,2A2.429,2.429,0,0,1,1713.66,1380.712Zm2.586,0c-.17-.7-.643-1.229-1.156-1.228s-.723.514-.549,1.23.638,1.229,1.156,1.228S1716.417,1381.419,1716.245,1380.708Z" transform="translate(-1536.118 -1278.291)" fill="#2f539b"/>
      <path id="Path_228" data-name="Path 228" d="M1734.753,1380.676c-.271-1.119.219-2,1.255-2a2.439,2.439,0,0,1,2.21,1.992c.271,1.119-.213,2-1.255,2A2.428,2.428,0,0,1,1734.753,1380.676Zm2.585,0c-.169-.7-.643-1.228-1.156-1.228s-.723.514-.549,1.231.638,1.228,1.156,1.228S1737.51,1381.382,1737.338,1380.672Z" transform="translate(-1552.029 -1278.263)" fill="#2f539b"/>
      <path id="Path_229" data-name="Path 229" d="M1197.069,1352.6c-.271-1.119.219-2,1.255-2a2.439,2.439,0,0,1,2.21,1.992c.271,1.119-.214,2-1.255,2A2.429,2.429,0,0,1,1197.069,1352.6Zm2.586,0c-.17-.7-.643-1.229-1.156-1.228s-.723.514-.549,1.23.638,1.228,1.156,1.227S1199.827,1353.311,1199.654,1352.6Z" transform="translate(-1146.442 -1257.088)" fill="#2f539b"/>
      <path id="Path_230" data-name="Path 230" d="M1218.162,1352.569c-.271-1.119.219-2,1.255-2a2.439,2.439,0,0,1,2.21,1.992c.271,1.119-.214,2-1.255,2A2.429,2.429,0,0,1,1218.162,1352.569Zm2.586,0c-.17-.7-.643-1.228-1.156-1.227s-.723.514-.55,1.23.638,1.228,1.156,1.228S1220.919,1353.276,1220.747,1352.564Z" transform="translate(-1162.353 -1257.062)" fill="#2f539b"/>
      <path id="Path_231" data-name="Path 231" d="M1603.745,1352.6c-.271-1.119.219-2,1.255-2a2.439,2.439,0,0,1,2.21,1.992c.271,1.119-.213,2-1.255,2A2.428,2.428,0,0,1,1603.745,1352.6Zm2.585,0c-.169-.7-.643-1.229-1.156-1.228s-.723.514-.549,1.23.637,1.228,1.156,1.227S1606.5,1353.311,1606.33,1352.6Z" transform="translate(-1453.206 -1257.088)" fill="#2f539b"/>
      <path id="Path_232" data-name="Path 232" d="M1624.838,1352.569c-.271-1.119.219-2,1.255-2a2.438,2.438,0,0,1,2.21,1.992c.271,1.119-.213,2-1.255,2A2.428,2.428,0,0,1,1624.838,1352.569Zm2.585,0c-.17-.7-.643-1.228-1.156-1.227s-.723.514-.549,1.23.637,1.228,1.156,1.228S1627.595,1353.276,1627.423,1352.564Z" transform="translate(-1469.118 -1257.062)" fill="#2f539b"/>
    </g>
  </g>
</svg>
