<svg xmlns="http://www.w3.org/2000/svg" xmlns:xlink="http://www.w3.org/1999/xlink" width="382.463" height="380.89" viewBox="0 0 382.463 380.89">
  <defs>
    <linearGradient id="linear-gradient" x1="0.892" y1="0.114" x2="-2.349" y2="2.456" gradientUnits="objectBoundingBox">
      <stop offset="0" stop-color="#dae3fe"/>
      <stop offset="1" stop-color="#e9effd"/>
    </linearGradient>
    <linearGradient id="linear-gradient-2" x1="0.174" y1="-0.919" x2="1.483" y2="4.845" xlink:href="#linear-gradient"/>
    <linearGradient id="linear-gradient-3" x1="1.1" y1="2.352" x2="-0.276" y2="-1.791" gradientUnits="objectBoundingBox">
      <stop offset="0" stop-color="#53d8ff"/>
      <stop offset="1" stop-color="#3840f7"/>
    </linearGradient>
    <linearGradient id="linear-gradient-4" x1="-9.607" y1="4.262" x2="-1.921" y2="1.099" gradientUnits="objectBoundingBox">
      <stop offset="0" stop-color="#febbba"/>
      <stop offset="1" stop-color="#ff928e"/>
    </linearGradient>
    <linearGradient id="linear-gradient-5" x1="-3.379" y1="2.269" x2="-0.514" y2="0.736" xlink:href="#linear-gradient-4"/>
    <linearGradient id="linear-gradient-6" x1="-26.277" y1="-5.213" x2="-26.806" y2="-7.74" xlink:href="#linear-gradient-4"/>
  </defs>
  <g id="Illustration" transform="translate(-449.218 -455)">
    <g id="Group_21" data-name="Group 21" transform="translate(449.218 454.999)">
      <path id="Path_1" data-name="Path 1" d="M812.951,713.248c-38.46,89.9-139.982,128.508-219.526,121.925-21.719-1.8-65.417-5.414-99.538-37.681C428.361,735.526,438.453,606,501.18,529.744c8.078-9.82,63.992-75.616,151.124-74.735,63.793.645,108.569,36.681,114.014,41.17a175.608,175.608,0,0,1,35.72,40.528C834.161,586.943,836.985,657.072,812.951,713.248Z" transform="translate(-449.218 -454.999)" fill="#bcf1fb"/>
      <g id="Group_5" data-name="Group 5" transform="translate(245.919 8.736)">
        <g id="Group_3" data-name="Group 3">
          <path id="Path_2" data-name="Path 2" d="M2282.863,759.436s-1.24-52.107,22.76-66.053,69.632-22.665,71.342-97.486c1-43.8,2.085-62.955,2.812-71.306a4.932,4.932,0,0,0-5.825-5.282c-22.73,4.282-96.569,21.907-112.05,72.305C2243.549,651.364,2282.863,759.436,2282.863,759.436Z" transform="translate(-2257.021 -519.223)" fill="#14a9c4"/>
          <path id="Path_3" data-name="Path 3" d="M2475.276,671.381c-24.951,22.252-53.8,61.634-69.179,101.017-1.974,6.49-7.748,20.293-10.255,44.816-2.239,20.453-1.126,42.066,1.589,56.372a1.667,1.667,0,0,0,1.948,1.327,1.69,1.69,0,0,0,1.334-1.915,228.585,228.585,0,0,1,5.292-82.317c9.079-33.706,29.328-66.386,50.272-94.1l2.155-2.729c16.227-20.839,19.643-20.992,18.126-22.445A.949.949,0,0,0,2475.276,671.381Z" transform="translate(-2375.924 -650.476)" fill="#dbe4fe"/>
        </g>
        <g id="Group_4" data-name="Group 4" transform="translate(21.878 138.639)">
          <path id="Path_4" data-name="Path 4" d="M2418.309,1663.568c-1.846-1.223,2.479-12.239,2.849-13.837q2.047-8.866,3.476-17.86c5.017-31.631,5.082-71.262,23.1-86.535,15-12.711,66.026-4.686,82.723-1.636a2.5,2.5,0,0,1,1.165,4.381c-8.007,6.725-25.136,22.586-29.6,38.572-5.883,21.07-25.915,34.472-43.848,38.1-11.327,2.291-21.167,5.6-27.909,15.571-3.608,5.333-4.907,18.024-8.926,21.728C2419.75,1663.516,2418.806,1663.9,2418.309,1663.568Z" transform="translate(-2417.852 -1538.387)" fill="#36c3dd"/>
          <path id="Path_5" data-name="Path 5" d="M2553.942,1642.887c-21.3.892-44.17,10.61-55.774,28.838l-1.1,1.739c-2.53,4.078-16.866,33.072-24.829,57.106a.572.572,0,0,0,.363.722.583.583,0,0,0,.715-.342c5.548-13.578,13.515-30.792,19.861-43.664,6.806-14.047,11.568-23.56,27.091-32.672a86.427,86.427,0,0,1,33.734-10.813.458.458,0,0,0-.066-.914Z" transform="translate(-2464.82 -1628.671)" fill="url(#linear-gradient)"/>
        </g>
      </g>
      <g id="Group_8" data-name="Group 8" transform="translate(15.812 10.691)">
        <g id="Group_6" data-name="Group 6">
          <path id="Path_6" data-name="Path 6" d="M709.2,721.476s-11.966-45.816-36.418-51.985-66.486-2.357-86.717-67.27c-11.844-38-17.586-54.457-20.312-61.568a4.481,4.481,0,0,1,3.764-6.071c20.923-1.953,89.821-5.052,115.962,35.086C716.473,617.25,709.2,721.476,709.2,721.476Z" transform="translate(-565.456 -533.591)" fill="#14a9c4"/>
          <path id="Path_7" data-name="Path 7" d="M738.437,641.623c27.362,13.185,62.42,40.353,85.712,70.9C827.5,717.693,836,728.3,844.328,749.09c7.078,17.3,11.518,36.455,12.729,49.629a1.514,1.514,0,0,1-1.369,1.647,1.536,1.536,0,0,1-1.645-1.338,207.668,207.668,0,0,0-25.236-70.564c-16.369-27.163-42.237-50.632-67.469-69.592l-2.566-1.844c-19.389-14.136-22.411-13.414-21.45-15.063A.862.862,0,0,1,738.437,641.623Z" transform="translate(-713.807 -626.854)" fill="#dbe4fe"/>
        </g>
        <g id="Group_7" data-name="Group 7" transform="translate(26.466 107.682)">
          <path id="Path_8" data-name="Path 8" d="M939.039,1480.772c3.234.577-37.15-28.236-63.257-84.192-12.3-26.368-22.284-60.962-41.844-69.787-16.279-7.345-58.835,12.442-72.653,19.286a2.275,2.275,0,0,0,.08,4.117c8.677,3.868,27.608,13.43,35.508,26.273,10.414,16.928,31.264,23.615,47.834,22.292s26.164-.748,40.976,22.111S929.849,1479.131,939.039,1480.772Z" transform="translate(-760.017 -1325.184)" fill="#36c3dd"/>
          <path id="Path_9" data-name="Path 9" d="M934.465,1479.722c18.828-4.555,41.231-1.8,55.93,11.218l1.392,1.245c3.231,2.928,23.011,24.659,35.984,43.654a.519.519,0,0,1-.136.722.529.529,0,0,1-.71-.12c-8.245-10.468-19.514-23.506-28.28-33.159-9.461-10.563-16-17.678-31.84-21.749a78.518,78.518,0,0,0-32.168-1,.417.417,0,0,1-.172-.815Z" transform="translate(-910.459 -1456.932)" fill="url(#linear-gradient-2)"/>
        </g>
      </g>
      <path id="Path_10" data-name="Path 10" d="M2124.507,1130.405s15.942,37.827,55.964,42.069l-1.061,6.974s-52.271,9.065-79.9-36.84Z" transform="translate(-1875.018 -1038.528)" fill="url(#linear-gradient-3)"/>
      <g id="Group_10" data-name="Group 10" transform="translate(134.371 17.807)">
        <path id="Path_11" data-name="Path 11" d="M1601.953,1036.021s-16.657-66.462,19.067-122.546a4.228,4.228,0,0,1,3.77-1.966c8.42.41,37.326,3.958,69.836,32.268,0,0-34.169,28.961-38.277,93.658C1656.349,1037.436,1624.684,1038.8,1601.953,1036.021Z" transform="translate(-1576.163 -867.212)" fill="#739af0"/>
        <path id="Path_12" data-name="Path 12" d="M2008.477,823.021l-16.909,18.694a4.418,4.418,0,0,0,.064,6.066c2.821,3,7.817,6.875,14.351,6.134a6.762,6.762,0,0,0,5.061-3.216l10.245-17.269Z" transform="translate(-1915.116 -790.766)" fill="#f48f8f"/>
        <path id="Path_9016" data-name="Path 9016" d="M124.388,50.034S125.924,66.31,135.7,65.315s-8.254-18.782-8.254-18.782" transform="translate(-35.138 -13.145)" fill="#cc6464"/>
        <g id="Group_9" data-name="Group 9" transform="translate(87.368)">
          <path id="Path_13" data-name="Path 13" d="M2142.463,673.427s-1.717,31.415-15.507,33.079-14.536-29.2-14.536-29.2S2125.66,649.63,2142.463,673.427Z" transform="translate(-2107.91 -653.178)" fill="#f48f8f"/>
          <path id="Path_14" data-name="Path 14" d="M2106.79,783.263s.481-9.717-5.059-7.832c-7.139,2.43,1.839,10.108,1.839,10.108Z" transform="translate(-2096.292 -749.44)" fill="#f48f8f"/>
          <path id="Path_15" data-name="Path 15" d="M2088.527,613.17s-2.142,6.454,0,4.99,3.859-17.328,13.425-12.47,27.439,7.8,23.514-10.645-15.017-2.539-30.788-6.816-13.687,10.692-12.055,13.365c-4.647,2.269-4.3,8.005,0,11.554C2083.888,612.23,2086.385,609.911,2088.527,613.17Z" transform="translate(-2079.265 -585.905)" fill="#0d5d6c"/>
          <path id="Path_16" data-name="Path 16" d="M2360.04,656.727a.2.2,0,0,1-.036-.4,8.358,8.358,0,0,0,5.092-3.618c1.547-2.513,1.7-5.931.465-10.161a.2.2,0,1,1,.385-.113c1.272,4.347,1.1,7.876-.512,10.49a8.608,8.608,0,0,1-5.357,3.8A.181.181,0,0,1,2360.04,656.727Z" transform="translate(-2321.672 -634.622)" fill="#91b3fa"/>
        </g>
        <path id="Path_17" data-name="Path 17" d="M1480.567,915.46s-55.041,53.666-41.384,69.394,59.141,35.011,59.141,35.011l-1.447-10.548s-38.9-29.491-33.9-34.148c2.607-2.428,10.777-10.317,18-17.312a33.935,33.935,0,0,0,8.607-35.512C1487.654,916.837,1484.788,913.152,1480.567,915.46Z" transform="translate(-1437.005 -870.025)" fill="#608bea"/>
      </g>
      <g id="Group_17" data-name="Group 17" transform="translate(2.361 182.746)">
        <g id="Group_11" data-name="Group 11">
          <path id="Path_18" data-name="Path 18" d="M825.045,1968.8c-110.616-60.242-226.6-55.941-347.534,4.562a7.563,7.563,0,0,1-10.935-6.775v-95.34a21.512,21.512,0,0,1,10.429-18.436c120.638-72.5,239.731-72.78,353.369.573a23.886,23.886,0,0,1,10.9,19.759l1.128,85.193A11.741,11.741,0,0,1,825.045,1968.8Z" transform="translate(-466.577 -1798.402)" fill="#aff3ff"/>
          <path id="Path_19" data-name="Path 19" d="M853,1996.045c-108.66-57.814-222.595-53.687-341.386,4.378a7.424,7.424,0,0,1-10.742-6.5v-91.5a20.551,20.551,0,0,1,10.245-17.693c118.5-69.582,235.49-69.847,347.119.55a22.8,22.8,0,0,1,10.708,18.963l1.108,81.76C870.164,1994.62,860.742,2000.167,853,1996.045Z" transform="translate(-496.203 -1827.874)" fill="#00accb"/>
        </g>
        <g id="Group_16" data-name="Group 16" transform="translate(8.067 24.749)">
          <g id="Group_12" data-name="Group 12" transform="translate(146.385)">
            <path id="Path_20" data-name="Path 20" d="M1670.979,2009.207l-12.169,12.344a4.1,4.1,0,0,0-1.105,3.648l3.27,17.023a4.1,4.1,0,0,1-5.855,4.435l-15.5-7.759a4.1,4.1,0,0,0-3.811.076l-15.179,8.37a4.1,4.1,0,0,1-6.027-4.2l2.589-17.14a4.1,4.1,0,0,0-1.25-3.6l-12.651-11.85a4.1,4.1,0,0,1,2.13-7.03l17.1-2.834a4.1,4.1,0,0,0,3.039-2.3l7.36-15.694a4.1,4.1,0,0,1,7.344-.146l7.98,15.388a4.1,4.1,0,0,0,3.128,2.178l17.2,2.151A4.1,4.1,0,0,1,1670.979,2009.207Z" transform="translate(-1601.99 -1980.34)" fill="#58ddf5"/>
            <path id="Path_21" data-name="Path 21" d="M1683.515,2194.441a8.035,8.035,0,0,0-2.543.888l-9.913,5.466a3.1,3.1,0,0,1-4.567-3.18l1.691-11.194a8.057,8.057,0,0,0-2.458-7.084l-8.263-7.739a3.1,3.1,0,0,1,1.614-5.325l5.706-.946.144.868-5.706.946a2.223,2.223,0,0,0-1.156,3.815l8.263,7.739a8.936,8.936,0,0,1,2.727,7.858l-1.69,11.194a2.222,2.222,0,0,0,3.27,2.278l9.913-5.466a8.928,8.928,0,0,1,2.821-.986Z" transform="translate(-1649.066 -2140.164)" fill="#fff" opacity="0.62"/>
            <path id="Path_22" data-name="Path 22" d="M1816.532,2087.66a3.11,3.11,0,0,1-4.284,1.65l-7.745-3.876.394-.788,7.745,3.876a2.222,2.222,0,0,0,3.177-2.407L1813.684,2075a9.023,9.023,0,0,1,2.412-7.96l7.947-8.062a2.222,2.222,0,0,0-1.307-3.766l-11.234-1.4a8.932,8.932,0,0,1-6.823-4.753l-5.213-10.05a2.222,2.222,0,0,0-3.984.079l-4.807,10.251a8.884,8.884,0,0,1-2.05,2.79l-.594-.649a8.006,8.006,0,0,0,1.847-2.515l4.807-10.25a3.1,3.1,0,0,1,5.563-.111l5.213,10.05a8.053,8.053,0,0,0,6.151,4.285l11.234,1.4a3.1,3.1,0,0,1,1.825,5.257l-7.948,8.062a8.129,8.129,0,0,0-2.173,7.176l2.135,11.117A3.1,3.1,0,0,1,1816.532,2087.66Z" transform="translate(-1762.723 -2029.227)" fill="#fff" opacity="0.62"/>
            <rect id="Rectangle_2" data-name="Rectangle 2" width="3.427" height="0.88" transform="translate(15.716 25.164) rotate(-9.403)" fill="#fff" opacity="0.62"/>
          </g>
          <g id="Group_13" data-name="Group 13" transform="translate(73.763 13.303)">
            <path id="Path_23" data-name="Path 23" d="M1135.041,2096.541l-8.283,15.227a4.1,4.1,0,0,0-.054,3.812l7.848,15.456a4.1,4.1,0,0,1-4.4,5.881l-17.041-3.172a4.1,4.1,0,0,0-3.642,1.126l-12.274,12.24a4.1,4.1,0,0,1-6.953-2.369l-2.249-17.187a4.1,4.1,0,0,0-2.2-3.115l-15.434-7.891a4.1,4.1,0,0,1,.1-7.344l15.651-7.451a4.1,4.1,0,0,0,2.284-3.052l2.735-17.116a4.1,4.1,0,0,1,7.017-2.171L1110.076,2092a4.1,4.1,0,0,0,3.608,1.229l17.124-2.687A4.1,4.1,0,0,1,1135.041,2096.541Z" transform="translate(-1068.13 -2078.13)" fill="#58ddf5"/>
            <path id="Path_24" data-name="Path 24" d="M1157.759,2318.362a8.028,8.028,0,0,0-2.2,1.557l-8.016,7.993a3.1,3.1,0,0,1-5.268-1.794l-1.469-11.225a8.057,8.057,0,0,0-4.321-6.128l-10.08-5.153a3.1,3.1,0,0,1,.079-5.564l5.223-2.486.378.794-5.223,2.486a2.223,2.223,0,0,0-.057,3.986l10.08,5.153a8.936,8.936,0,0,1,4.793,6.8l1.469,11.225a2.222,2.222,0,0,0,3.772,1.285l8.016-7.993a8.935,8.935,0,0,1,2.438-1.727Z" transform="translate(-1117.019 -2265.983)" fill="#fff" opacity="0.62"/>
            <path id="Path_25" data-name="Path 25" d="M1275.345,2176.158a3.11,3.11,0,0,1-3.661,2.77l-8.514-1.584.161-.866,8.514,1.584a2.222,2.222,0,0,0,2.387-3.191l-5.124-10.093a9.023,9.023,0,0,1,.118-8.317l5.409-9.944a2.222,2.222,0,0,0-2.3-3.258l-11.185,1.755a8.931,8.931,0,0,1-7.871-2.682l-7.788-8.217a2.222,2.222,0,0,0-3.808,1.177l-1.786,11.18a8.883,8.883,0,0,1-1.2,3.248l-.751-.459a8.007,8.007,0,0,0,1.08-2.928l1.786-11.179a3.1,3.1,0,0,1,5.316-1.645l7.787,8.218a8.054,8.054,0,0,0,7.1,2.418l11.185-1.756a3.1,3.1,0,0,1,3.207,4.548l-5.41,9.944a8.129,8.129,0,0,0-.105,7.5l5.124,10.093A3.1,3.1,0,0,1,1275.345,2176.158Z" transform="translate(-1214.85 -2125.137)" fill="#fff" opacity="0.62"/>
            <rect id="Rectangle_3" data-name="Rectangle 3" width="3.427" height="0.88" transform="translate(14.69 29.577) rotate(-25.449)" fill="#fff" opacity="0.62"/>
          </g>
          <g id="Group_14" data-name="Group 14" transform="translate(0 35.923)">
            <path id="Path_26" data-name="Path 26" d="M592.793,2262.826l-8.283,15.227a4.1,4.1,0,0,0-.054,3.812l7.848,15.456a4.1,4.1,0,0,1-4.4,5.881l-17.041-3.172a4.1,4.1,0,0,0-3.642,1.126l-12.274,12.24a4.1,4.1,0,0,1-6.953-2.369l-2.249-17.187a4.1,4.1,0,0,0-2.2-3.115l-15.434-7.891a4.1,4.1,0,0,1,.1-7.345l15.651-7.45a4.1,4.1,0,0,0,2.284-3.052l2.735-17.116a4.1,4.1,0,0,1,7.017-2.171l11.922,12.583a4.1,4.1,0,0,0,3.608,1.229l17.124-2.687A4.1,4.1,0,0,1,592.793,2262.826Z" transform="translate(-525.882 -2244.416)" fill="#58ddf5"/>
            <path id="Path_27" data-name="Path 27" d="M615.511,2484.648a8.029,8.029,0,0,0-2.2,1.557L605.3,2494.2a3.1,3.1,0,0,1-5.268-1.794l-1.469-11.225a8.056,8.056,0,0,0-4.321-6.128l-10.08-5.153a3.1,3.1,0,0,1,.079-5.564l5.223-2.486.378.794-5.223,2.486a2.223,2.223,0,0,0-.057,3.986l10.08,5.153a8.936,8.936,0,0,1,4.793,6.8l1.47,11.225a2.222,2.222,0,0,0,3.772,1.285l8.016-7.993a8.936,8.936,0,0,1,2.438-1.727Z" transform="translate(-574.771 -2432.269)" fill="#fff" opacity="0.62"/>
            <path id="Path_28" data-name="Path 28" d="M733.1,2342.444a3.109,3.109,0,0,1-3.661,2.77l-8.514-1.584.161-.866,8.514,1.584a2.222,2.222,0,0,0,2.387-3.191l-5.124-10.093a9.023,9.023,0,0,1,.118-8.317l5.409-9.944a2.222,2.222,0,0,0-2.3-3.258l-11.185,1.755a8.932,8.932,0,0,1-7.871-2.682l-7.788-8.217a2.222,2.222,0,0,0-3.808,1.177l-1.786,11.18a8.886,8.886,0,0,1-1.2,3.248l-.75-.459a8.007,8.007,0,0,0,1.08-2.928l1.786-11.179a3.1,3.1,0,0,1,5.315-1.645l7.788,8.218a8.054,8.054,0,0,0,7.1,2.418l11.185-1.755a3.1,3.1,0,0,1,3.207,4.548l-5.41,9.944a8.129,8.129,0,0,0-.105,7.5l5.124,10.093A3.1,3.1,0,0,1,733.1,2342.444Z" transform="translate(-672.602 -2291.423)" fill="#fff" opacity="0.62"/>
            <rect id="Rectangle_4" data-name="Rectangle 4" width="3.427" height="0.88" transform="translate(14.69 29.577) rotate(-25.449)" fill="#fff" opacity="0.62"/>
          </g>
          <path id="Path_29" data-name="Path 29" d="M2752.887,2301.562l-16.176,6.228a4.1,4.1,0,0,0-2.511,2.868l-4.04,16.856a4.1,4.1,0,0,1-7.163,1.626l-10.922-13.46a4.1,4.1,0,0,0-3.5-1.5l-17.28,1.366a4.1,4.1,0,0,1-3.76-6.31l9.426-14.547a4.1,4.1,0,0,0,.346-3.8l-6.639-16.012a4.1,4.1,0,0,1,4.84-5.526l16.748,4.47a4.1,4.1,0,0,0,3.717-.844l13.177-11.263a4.1,4.1,0,0,1,6.751,2.9l.925,17.309a4.1,4.1,0,0,0,1.951,3.274l14.783,9.052A4.1,4.1,0,0,1,2752.887,2301.562Z" transform="translate(-2392.901 -2222.585)" fill="#217d8e"/>
          <g id="Group_15" data-name="Group 15" transform="translate(223.32 10.645)">
            <path id="Path_30" data-name="Path 30" d="M2233.508,2096.068l-15.131,8.456a4.1,4.1,0,0,0-2.08,3.195l-1.612,17.259a4.1,4.1,0,0,1-6.861,2.624l-12.718-11.777a4.1,4.1,0,0,0-3.681-.991l-16.912,3.8a4.1,4.1,0,0,1-4.616-5.714l7.271-15.735a4.1,4.1,0,0,0-.2-3.807l-8.84-14.91a4.1,4.1,0,0,1,4.008-6.155l17.212,2.052a4.1,4.1,0,0,0,3.56-1.362l11.448-13.015a4.1,4.1,0,0,1,7.093,1.91l3.367,17a4.1,4.1,0,0,0,2.4,2.965l15.916,6.867A4.1,4.1,0,0,1,2233.508,2096.068Z" transform="translate(-2167.552 -2058.593)" fill="#58ddf5"/>
            <path id="Path_31" data-name="Path 31" d="M2235.279,2227.312a8.032,8.032,0,0,0-2.691.143l-11.045,2.481a3.1,3.1,0,0,1-3.5-4.329l4.749-10.277a8.057,8.057,0,0,0-.383-7.488l-5.774-9.738a3.1,3.1,0,0,1,3.037-4.663l5.743.685-.1.874-5.744-.685a2.222,2.222,0,0,0-2.175,3.341l5.774,9.738a8.937,8.937,0,0,1,.425,8.307l-4.748,10.277a2.222,2.222,0,0,0,2.5,3.1l11.045-2.481a8.915,8.915,0,0,1,2.984-.159Z" transform="translate(-2209.583 -2175.079)" fill="#fff" opacity="0.62"/>
            <path id="Path_32" data-name="Path 32" d="M2374.913,2167.661a3.11,3.11,0,0,1-4.574.388l-6.355-5.884.6-.646,6.354,5.884a2.222,2.222,0,0,0,3.722-1.424l1.053-11.27a9.023,9.023,0,0,1,4.538-6.971l9.882-5.522a2.223,2.223,0,0,0-.2-3.981l-10.4-4.485a8.932,8.932,0,0,1-5.225-6.469l-2.2-11.105a2.222,2.222,0,0,0-3.848-1.037l-7.477,8.5a8.883,8.883,0,0,1-2.748,2.107l-.39-.789a8,8,0,0,0,2.476-1.9l7.477-8.5a3.1,3.1,0,0,1,5.373,1.447l2.2,11.106a8.053,8.053,0,0,0,4.711,5.832l10.4,4.485a3.1,3.1,0,0,1,.285,5.558l-9.882,5.522a8.129,8.129,0,0,0-4.091,6.284l-1.053,11.27A3.1,3.1,0,0,1,2374.913,2167.661Z" transform="translate(-2331.786 -2106.032)" fill="#fff" opacity="0.62"/>
            <rect id="Rectangle_5" data-name="Rectangle 5" width="0.88" height="3.427" transform="translate(15.731 19.922) rotate(-83.193)" fill="#fff" opacity="0.62"/>
          </g>
        </g>
      </g>
      <g id="Group_20" data-name="Group 20" transform="translate(187.033 80.93)">
        <g id="Group_18" data-name="Group 18">
          <path id="Path_33" data-name="Path 33" d="M1948.168,1124.078l-29.726,14.641a7.83,7.83,0,0,0-4.288,5.892l-4.79,32.789a7.829,7.829,0,0,1-13.358,4.328l-23.111-23.746a7.829,7.829,0,0,0-6.929-2.257L1833.3,1161.3a7.83,7.83,0,0,1-8.245-11.367l15.443-29.318a7.83,7.83,0,0,0,.005-7.287l-15.4-29.342a7.83,7.83,0,0,1,8.262-11.354l32.655,5.627a7.83,7.83,0,0,0,6.932-2.246l23.148-23.711a7.829,7.829,0,0,1,13.351,4.349l4.74,32.8a7.83,7.83,0,0,0,4.279,5.9l29.7,14.689A7.83,7.83,0,0,1,1948.168,1124.078Z" transform="translate(-1824.138 -1049.935)" fill="#58ddf5"/>
          <path id="Path_34" data-name="Path 34" d="M1947.877,1351.653a15.349,15.349,0,0,0-5.151.007l-21.331,3.641a5.932,5.932,0,0,1-6.247-8.611l10.085-19.148a15.4,15.4,0,0,0,.012-14.334l-10.056-19.163a5.931,5.931,0,0,1,6.26-8.6l10.9,1.878-.285,1.658-10.9-1.877a4.249,4.249,0,0,0-4.484,6.162l10.056,19.163a17.082,17.082,0,0,1-.012,15.9l-10.084,19.148a4.247,4.247,0,0,0,4.473,6.167l21.331-3.641a17.059,17.059,0,0,1,5.712-.008Z" transform="translate(-1902.172 -1253.331)" fill="#fff" opacity="0.62"/>
          <path id="Path_35" data-name="Path 35" d="M2215.435,1257.413a5.945,5.945,0,0,1-8.771.287l-11.548-11.864,1.207-1.174,11.548,11.864a4.247,4.247,0,0,0,7.247-2.35l3.129-21.411a17.25,17.25,0,0,1,9.356-12.857l19.413-9.562a4.249,4.249,0,0,0,.006-7.62l-19.4-9.594a17.074,17.074,0,0,1-9.333-12.868l-3.1-21.419a4.248,4.248,0,0,0-7.244-2.361l-15.119,15.487a16.982,16.982,0,0,1-5.454,3.749l-.666-1.544a15.306,15.306,0,0,0,4.916-3.381l15.118-15.486a5.93,5.93,0,0,1,10.113,3.294l3.1,21.42a15.394,15.394,0,0,0,8.414,11.6l19.4,9.594a5.932,5.932,0,0,1-.008,10.639l-19.414,9.562a15.541,15.541,0,0,0-8.433,11.592l-3.13,21.411A5.929,5.929,0,0,1,2215.435,1257.413Z" transform="translate(-2137.387 -1139.425)" fill="#fff" opacity="0.62"/>
          <rect id="Rectangle_6" data-name="Rectangle 6" width="1.682" height="6.552" transform="translate(29.887 35.648) rotate(-80.217)" fill="#fff" opacity="0.62"/>
        </g>
        <g id="Group_19" data-name="Group 19" transform="translate(2.235 67.086)">
          <path id="Path_36" data-name="Path 36" d="M1842.258,1551.588s-.231-4.534-1.405-6.634,1.558-2.583,2.9-.612,2.309,7.437,2.309,7.437S1843.72,1553.17,1842.258,1551.588Z" transform="translate(-1840.566 -1543.094)" fill="url(#linear-gradient-4)"/>
          <path id="Path_37" data-name="Path 37" d="M1859.878,1578.246a2.688,2.688,0,0,1-4.584-.014c-1.558-2.551-3.917-6.658-4.35-8.8-.657-3.246-1.1-7.588,3.2-8.411a50.593,50.593,0,0,1,9.917-.553s1.417,3.99-2.115,4.008l2.686,1.155s1.057,3.228-2.183,2.639l2.825,1.844s0,3.02-2.562,2.171C1860.864,1571.675,1861.528,1575.574,1859.878,1578.246Z" transform="translate(-1849.17 -1558.071)" fill="url(#linear-gradient-5)"/>
        </g>
        <path id="Path_38" data-name="Path 38" d="M2588.582,1397.3c-8.49-4.135-11.733-4.059-15.307-.936l6.023,4.713c1.947,1.771,1.58,3.6.838,5.138-.918,1.9.751,4.6,3.518,5.488,2.021.647,3.966.16,5.773-2.376l1.591-3.122C2590.526,1403.909,2591.094,1399.138,2588.582,1397.3Z" transform="translate(-2471.368 -1347.281)" fill="url(#linear-gradient-6)"/>
      </g>
    </g>
  </g>
</svg>
