<svg xmlns="http://www.w3.org/2000/svg" xmlns:xlink="http://www.w3.org/1999/xlink" width="454.718" height="452.847" viewBox="0 0 454.718 452.847">
  <defs>
    <linearGradient id="linear-gradient" x1="0.892" y1="0.114" x2="-2.349" y2="2.456" gradientUnits="objectBoundingBox">
      <stop offset="0" stop-color="#dae3fe"/>
      <stop offset="1" stop-color="#e9effd"/>
    </linearGradient>
    <linearGradient id="linear-gradient-2" x1="0.174" y1="-0.919" x2="1.483" y2="4.845" xlink:href="#linear-gradient"/>
    <linearGradient id="linear-gradient-3" x1="1.1" y1="2.352" x2="-0.276" y2="-1.791" gradientUnits="objectBoundingBox">
      <stop offset="0" stop-color="#53d8ff"/>
      <stop offset="1" stop-color="#3840f7"/>
    </linearGradient>
    <linearGradient id="linear-gradient-4" x1="-9.607" y1="4.262" x2="-1.921" y2="1.099" gradientUnits="objectBoundingBox">
      <stop offset="0" stop-color="#febbba"/>
      <stop offset="1" stop-color="#ff928e"/>
    </linearGradient>
    <linearGradient id="linear-gradient-5" x1="-3.379" y1="2.269" x2="-0.514" y2="0.736" xlink:href="#linear-gradient-4"/>
    <linearGradient id="linear-gradient-6" x1="-26.277" y1="-5.213" x2="-26.806" y2="-7.74" xlink:href="#linear-gradient-4"/>
  </defs>
  <g id="Illustration" transform="translate(-449.219 -455)">
    <g id="Group_21" data-name="Group 21" transform="translate(449.218 454.999)">
      <path id="Path_1" data-name="Path 1" d="M881.667,762.036c-45.726,106.879-166.428,152.786-261,144.959-25.822-2.137-77.776-6.437-118.342-44.8-77.9-73.672-65.907-227.667,8.67-318.331,9.6-11.676,76.081-89.9,179.674-88.854,75.845.767,129.08,43.61,135.553,48.948a208.784,208.784,0,0,1,42.468,48.185C906.884,611.869,910.241,695.247,881.667,762.036Z" transform="translate(-449.218 -455)" fill="#bcf1fb"/>
      <g id="Group_5" data-name="Group 5" transform="translate(292.378 10.387)">
        <g id="Group_3" data-name="Group 3">
          <path id="Path_2" data-name="Path 2" d="M2287.744,804.817s-1.474-61.951,27.06-78.531,82.787-26.947,84.82-115.9c1.191-52.078,2.479-74.848,3.343-84.776a5.864,5.864,0,0,0-6.926-6.28c-27.024,5.091-114.813,26.045-133.218,85.965C2241,676.328,2287.744,804.817,2287.744,804.817Z" transform="translate(-2257.021 -519.223)" fill="#14a9c4"/>
          <path id="Path_3" data-name="Path 3" d="M2490.509,671.426c-29.664,26.456-63.965,73.278-82.248,120.1-2.347,7.716-9.212,24.127-12.193,53.283-2.662,24.317-1.339,50.013,1.89,67.022a1.982,1.982,0,0,0,2.317,1.577,2.009,2.009,0,0,0,1.586-2.277,271.767,271.767,0,0,1,6.292-97.869c10.794-40.074,34.869-78.928,59.77-111.881l2.563-3.245c19.293-24.776,23.354-24.958,21.55-26.685A1.128,1.128,0,0,0,2490.509,671.426Z" transform="translate(-2372.387 -646.572)" fill="#dbe4fe"/>
        </g>
        <g id="Group_4" data-name="Group 4" transform="translate(26.011 164.831)">
          <path id="Path_4" data-name="Path 4" d="M2418.395,1687.216c-2.2-1.454,2.948-14.551,3.387-16.451q2.433-10.541,4.133-21.234c5.965-37.607,6.042-84.725,27.465-102.882,17.829-15.112,78.5-5.571,98.351-1.946a2.977,2.977,0,0,1,1.385,5.208c-9.52,7.995-29.885,26.853-35.191,45.859-6.994,25.051-30.81,40.984-52.132,45.3-13.467,2.724-25.166,6.662-33.182,18.513-4.29,6.341-5.834,21.429-10.612,25.833C2420.109,1687.156,2418.986,1687.608,2418.395,1687.216Z" transform="translate(-2417.852 -1538.387)" fill="#36c3dd"/>
          <path id="Path_5" data-name="Path 5" d="M2569.382,1642.887c-25.328,1.061-52.515,12.614-66.311,34.286l-1.3,2.068c-3.007,4.849-20.052,39.32-29.519,67.895a.68.68,0,0,0,.431.859.693.693,0,0,0,.851-.407c6.6-16.142,16.069-36.609,23.613-51.913,8.091-16.7,13.753-28.011,32.208-38.844a102.755,102.755,0,0,1,40.107-12.856.545.545,0,0,0-.078-1.087Z" transform="translate(-2463.423 -1625.986)" fill="url(#linear-gradient)"/>
        </g>
      </g>
      <g id="Group_8" data-name="Group 8" transform="translate(18.799 12.711)">
        <g id="Group_6" data-name="Group 6">
          <path id="Path_6" data-name="Path 6" d="M736.361,756.971s-14.227-54.471-43.3-61.806-79.047-2.8-103.1-79.979c-14.081-45.183-20.908-64.745-24.149-73.2a5.327,5.327,0,0,1,4.475-7.218c24.875-2.322,106.79-6.006,137.869,41.714C745,633.055,736.361,756.971,736.361,756.971Z" transform="translate(-565.456 -533.591)" fill="#14a9c4"/>
          <path id="Path_7" data-name="Path 7" d="M738.677,641.639c32.531,15.676,74.212,47.977,101.9,84.289,3.982,6.151,14.086,18.763,23.991,43.48,8.415,20.57,13.694,43.342,15.134,59a1.8,1.8,0,0,1-1.628,1.958,1.826,1.826,0,0,1-1.956-1.591,246.9,246.9,0,0,0-30-83.895c-19.462-32.294-50.216-60.2-80.215-82.74l-3.051-2.192c-23.052-16.806-26.645-15.948-25.5-17.908A1.025,1.025,0,0,1,738.677,641.639Z" transform="translate(-709.394 -624.08)" fill="#dbe4fe"/>
        </g>
        <g id="Group_7" data-name="Group 7" transform="translate(31.467 128.025)">
          <path id="Path_8" data-name="Path 8" d="M972.86,1510.166c3.845.686-44.168-33.571-75.208-100.1-14.627-31.349-26.494-72.478-49.75-82.971-19.355-8.733-69.95,14.793-86.379,22.93a2.7,2.7,0,0,0,.095,4.9c10.316,4.6,32.823,15.968,42.217,31.237,12.381,20.126,37.171,28.077,56.871,26.5s31.107-.889,48.717,26.288S961.934,1508.215,972.86,1510.166Z" transform="translate(-760.017 -1325.184)" fill="#36c3dd"/>
          <path id="Path_9" data-name="Path 9" d="M934.525,1480.108c22.384-5.416,49.02-2.134,66.5,13.337l1.655,1.48c3.841,3.482,27.359,29.317,42.782,51.9a.618.618,0,0,1-.162.858.629.629,0,0,1-.844-.142c-9.8-12.446-23.2-27.947-33.622-39.424-11.248-12.559-19.025-21.018-37.855-25.858a93.348,93.348,0,0,0-38.245-1.184.5.5,0,0,1-.2-.969Z" transform="translate(-905.984 -1453.013)" fill="url(#linear-gradient-2)"/>
        </g>
      </g>
      <path id="Path_10" data-name="Path 10" d="M2129.229,1130.405s18.953,44.973,66.537,50.017l-1.262,8.292s-62.146,10.777-94.993-43.8Z" transform="translate(-1832.607 -1021.171)" fill="url(#linear-gradient-3)"/>
      <g id="Group_10" data-name="Group 10" transform="translate(159.756 21.172)">
        <path id="Path_11" data-name="Path 11" d="M1602.685,1059.545s-19.8-79.018,22.669-145.7a5.027,5.027,0,0,1,4.482-2.337c10.011.488,44.377,4.705,83.03,38.364,0,0-40.624,34.432-45.508,111.352C1667.358,1061.226,1629.711,1062.849,1602.685,1059.545Z" transform="translate(-1572.024 -858.845)" fill="#45453c"/>
        <path id="Path_12" data-name="Path 12" d="M2011.893,823.021l-20.1,22.225a5.252,5.252,0,0,0,.076,7.212c3.354,3.567,9.293,8.174,17.062,7.293a8.04,8.04,0,0,0,6.017-3.824l12.18-20.531Z" transform="translate(-1900.894 -784.672)" fill="#f48f8f"/>
        <path id="Path_9016" data-name="Path 9016" d="M124.388,50.7s1.827,19.351,13.455,18.168-9.814-22.331-9.814-22.331" transform="translate(-18.277 -6.837)" fill="#cc6464"/>
        <g id="Group_9" data-name="Group 9" transform="translate(103.873)">
          <path id="Path_13" data-name="Path 13" d="M2148.139,675.251s-2.041,37.35-18.437,39.328-17.282-34.718-17.282-34.718S2128.161,646.959,2148.139,675.251Z" transform="translate(-2107.058 -651.177)" fill="#f48f8f"/>
          <path id="Path_14" data-name="Path 14" d="M2108.266,784.789s.573-11.553-6.015-9.311c-8.488,2.889,2.186,12.017,2.186,12.017Z" transform="translate(-2095.785 -744.576)" fill="#f48f8f"/>
          <path id="Path_15" data-name="Path 15" d="M2090.277,618.321s-2.546,7.673,0,5.933,4.588-20.6,15.961-14.825,32.623,9.272,27.957-12.656-17.854-3.019-36.6-8.1-16.272,12.712-14.333,15.89c-5.525,2.7-5.117,9.518,0,13.737C2084.762,617.2,2087.73,614.446,2090.277,618.321Z" transform="translate(-2079.264 -585.905)" fill="#0d5d6c"/>
          <path id="Path_16" data-name="Path 16" d="M2360.078,659.453a.238.238,0,0,1-.043-.473,9.936,9.936,0,0,0,6.054-4.3c1.839-2.987,2.025-7.052.553-12.081a.238.238,0,1,1,.458-.134c1.513,5.168,1.308,9.364-.609,12.472a10.234,10.234,0,0,1-6.369,4.514A.215.215,0,0,1,2360.078,659.453Z" transform="translate(-2314.462 -633.173)" fill="#91b3fa"/>
        </g>
        <path id="Path_17" data-name="Path 17" d="M1488.8,915.592s-65.439,63.8-49.2,82.5,70.314,41.626,70.314,41.626l-1.72-12.541s-46.245-35.063-40.3-40.6c3.1-2.886,12.813-12.266,21.4-20.582a40.346,40.346,0,0,0,10.233-42.221C1497.222,917.23,1493.815,912.848,1488.8,915.592Z" transform="translate(-1437.005 -861.574)" fill="#71716f"/>
      </g>
      <g id="Group_17" data-name="Group 17" transform="translate(2.807 217.27)">
        <g id="Group_11" data-name="Group 11">
          <path id="Path_18" data-name="Path 18" d="M892.767,2000.991c-131.514-71.622-269.413-66.509-413.189,5.424a8.992,8.992,0,0,1-13-8.055V1885.009a25.575,25.575,0,0,1,12.4-21.918c143.429-86.2,285.021-86.529,420.128.682a28.4,28.4,0,0,1,12.96,23.492l1.341,101.287A13.959,13.959,0,0,1,892.767,2000.991Z" transform="translate(-466.577 -1798.402)" fill="#aff3ff"/>
          <path id="Path_19" data-name="Path 19" d="M919.519,2026.939c-129.187-68.736-264.647-63.829-405.88,5.205a8.826,8.826,0,0,1-12.771-7.73V1915.631a24.434,24.434,0,0,1,12.18-21.035c140.892-82.727,279.979-83.042,412.7.654a27.111,27.111,0,0,1,12.731,22.545L939.792,2015C939.931,2025.245,928.729,2031.84,919.519,2026.939Z" transform="translate(-495.322 -1826.997)" fill="#00accb"/>
        </g>
        <g id="Group_16" data-name="Group 16" transform="translate(9.591 29.425)">
          <g id="Group_12" data-name="Group 12" transform="translate(174.04)">
            <path id="Path_20" data-name="Path 20" d="M1684.013,2014.66l-14.468,14.676a4.87,4.87,0,0,0-1.314,4.337l3.888,20.239a4.869,4.869,0,0,1-6.962,5.273l-18.429-9.224a4.869,4.869,0,0,0-4.531.09L1624.15,2060a4.869,4.869,0,0,1-7.166-4.991l3.079-20.378a4.87,4.87,0,0,0-1.486-4.281l-15.041-14.088a4.869,4.869,0,0,1,2.532-8.358l20.331-3.37a4.87,4.87,0,0,0,3.613-2.736l8.75-18.658a4.869,4.869,0,0,1,8.731-.174l9.487,18.295a4.87,4.87,0,0,0,3.719,2.59l20.45,2.557A4.869,4.869,0,0,1,1684.013,2014.66Z" transform="translate(-1601.99 -1980.34)" fill="#58ddf5"/>
            <path id="Path_21" data-name="Path 21" d="M1688.623,2199.941A9.55,9.55,0,0,0,1685.6,2201l-11.786,6.5a3.689,3.689,0,0,1-5.429-3.781l2.01-13.308a9.578,9.578,0,0,0-2.923-8.422l-9.824-9.2a3.689,3.689,0,0,1,1.919-6.332l6.784-1.124.171,1.032-6.784,1.125a2.642,2.642,0,0,0-1.375,4.536l9.823,9.2a10.623,10.623,0,0,1,3.243,9.342l-2.01,13.308a2.641,2.641,0,0,0,3.888,2.708l11.786-6.5a10.611,10.611,0,0,1,3.354-1.172Z" transform="translate(-1647.666 -2135.41)" fill="#fff" opacity="0.62"/>
            <path id="Path_22" data-name="Path 22" d="M1821.917,2097.245a3.7,3.7,0,0,1-5.094,1.961l-9.208-4.608.469-.937,9.208,4.609a2.642,2.642,0,0,0,3.777-2.861l-2.538-13.216a10.728,10.728,0,0,1,2.867-9.464l9.448-9.584a2.642,2.642,0,0,0-1.554-4.477l-13.356-1.67a10.62,10.62,0,0,1-8.112-5.651l-6.2-11.948a2.641,2.641,0,0,0-4.737.094l-5.715,12.187a10.558,10.558,0,0,1-2.437,3.317l-.707-.771a9.517,9.517,0,0,0,2.2-2.99l5.715-12.187a3.688,3.688,0,0,1,6.614-.132l6.2,11.948a9.575,9.575,0,0,0,7.313,5.095l13.356,1.67a3.689,3.689,0,0,1,2.17,6.25l-9.449,9.584a9.665,9.665,0,0,0-2.584,8.532l2.538,13.217A3.69,3.69,0,0,1,1821.917,2097.245Z" transform="translate(-1757.941 -2027.773)" fill="#fff" opacity="0.62"/>
            <rect id="Rectangle_2" data-name="Rectangle 2" width="4.075" height="1.046" transform="translate(18.686 29.918) rotate(-9.403)" fill="#fff" opacity="0.62"/>
          </g>
          <g id="Group_13" data-name="Group 13" transform="translate(87.698 15.816)">
            <path id="Path_23" data-name="Path 23" d="M1147.682,2100.019l-9.848,18.1a4.868,4.868,0,0,0-.064,4.531l9.331,18.375a4.869,4.869,0,0,1-5.233,6.992l-20.26-3.771a4.868,4.868,0,0,0-4.33,1.339l-14.593,14.552a4.87,4.87,0,0,1-8.267-2.816l-2.674-20.434a4.869,4.869,0,0,0-2.612-3.7l-18.349-9.382a4.87,4.87,0,0,1,.124-8.732l18.608-8.858a4.87,4.87,0,0,0,2.716-3.628l3.252-20.35a4.869,4.869,0,0,1,8.343-2.581l14.174,14.96a4.868,4.868,0,0,0,4.29,1.46l20.359-3.195A4.869,4.869,0,0,1,1147.682,2100.019Z" transform="translate(-1068.13 -2078.13)" fill="#58ddf5"/>
            <path id="Path_24" data-name="Path 24" d="M1164,2322.669a9.546,9.546,0,0,0-2.614,1.851l-9.53,9.5a3.689,3.689,0,0,1-6.263-2.133l-1.747-13.345a9.578,9.578,0,0,0-5.137-7.286l-11.984-6.127a3.689,3.689,0,0,1,.094-6.616l6.209-2.956.45.945-6.209,2.956a2.642,2.642,0,0,0-.067,4.739l11.984,6.127a10.625,10.625,0,0,1,5.7,8.082l1.747,13.345a2.642,2.642,0,0,0,4.485,1.528l9.53-9.5a10.62,10.62,0,0,1,2.9-2.053Z" transform="translate(-1115.565 -2260.396)" fill="#fff" opacity="0.62"/>
            <path id="Path_25" data-name="Path 25" d="M1282.409,2184.4a3.7,3.7,0,0,1-4.353,3.293l-10.123-1.884.192-1.029,10.123,1.884a2.641,2.641,0,0,0,2.839-3.794l-6.092-12a10.728,10.728,0,0,1,.14-9.888l6.431-11.823a2.642,2.642,0,0,0-2.731-3.873l-13.3,2.086a10.618,10.618,0,0,1-9.358-3.189l-9.259-9.77a2.642,2.642,0,0,0-4.527,1.4l-2.124,13.292a10.561,10.561,0,0,1-1.425,3.862l-.893-.546a9.518,9.518,0,0,0,1.284-3.481l2.124-13.291a3.688,3.688,0,0,1,6.32-1.955l9.259,9.77a9.574,9.574,0,0,0,8.437,2.875l13.3-2.087a3.689,3.689,0,0,1,3.813,5.407l-6.432,11.823a9.666,9.666,0,0,0-.125,8.914l6.092,12A3.687,3.687,0,0,1,1282.409,2184.4Z" transform="translate(-1210.486 -2123.739)" fill="#fff" opacity="0.62"/>
            <rect id="Rectangle_3" data-name="Rectangle 3" width="4.075" height="1.046" transform="translate(17.465 35.165) rotate(-25.449)" fill="#fff" opacity="0.62"/>
          </g>
          <g id="Group_14" data-name="Group 14" transform="translate(0 42.709)">
            <path id="Path_26" data-name="Path 26" d="M605.433,2266.3l-9.848,18.1a4.869,4.869,0,0,0-.064,4.531l9.331,18.375a4.869,4.869,0,0,1-5.233,6.991l-20.26-3.771a4.87,4.87,0,0,0-4.33,1.339l-14.593,14.552a4.869,4.869,0,0,1-8.267-2.816l-2.674-20.435a4.87,4.87,0,0,0-2.612-3.7l-18.349-9.382a4.869,4.869,0,0,1,.124-8.732l18.608-8.858a4.871,4.871,0,0,0,2.716-3.628l3.252-20.35a4.869,4.869,0,0,1,8.343-2.581l14.175,14.959a4.869,4.869,0,0,0,4.29,1.461l20.359-3.2A4.869,4.869,0,0,1,605.433,2266.3Z" transform="translate(-525.882 -2244.416)" fill="#58ddf5"/>
            <path id="Path_27" data-name="Path 27" d="M621.753,2488.955a9.548,9.548,0,0,0-2.614,1.852l-9.53,9.5a3.689,3.689,0,0,1-6.263-2.133l-1.747-13.345a9.579,9.579,0,0,0-5.137-7.286l-11.984-6.126a3.689,3.689,0,0,1,.094-6.616l6.209-2.956.45.945-6.209,2.956a2.642,2.642,0,0,0-.067,4.739l11.984,6.127a10.625,10.625,0,0,1,5.7,8.082l1.747,13.345a2.642,2.642,0,0,0,4.485,1.528l9.53-9.5a10.618,10.618,0,0,1,2.9-2.053Z" transform="translate(-573.317 -2426.681)" fill="#fff" opacity="0.62"/>
            <path id="Path_28" data-name="Path 28" d="M740.161,2350.685a3.7,3.7,0,0,1-4.353,3.293l-10.123-1.884.192-1.029L736,2352.948a2.641,2.641,0,0,0,2.838-3.794l-6.092-12a10.728,10.728,0,0,1,.14-9.888l6.431-11.823a2.642,2.642,0,0,0-2.731-3.873l-13.3,2.086a10.62,10.62,0,0,1-9.358-3.189l-9.259-9.77a2.642,2.642,0,0,0-4.527,1.4l-2.124,13.292a10.564,10.564,0,0,1-1.426,3.861l-.892-.545a9.518,9.518,0,0,0,1.284-3.482l2.124-13.291a3.688,3.688,0,0,1,6.32-1.955l9.259,9.77a9.576,9.576,0,0,0,8.437,2.875l13.3-2.087a3.689,3.689,0,0,1,3.813,5.407l-6.432,11.823a9.665,9.665,0,0,0-.125,8.914l6.092,12A3.687,3.687,0,0,1,740.161,2350.685Z" transform="translate(-668.238 -2290.025)" fill="#fff" opacity="0.62"/>
            <rect id="Rectangle_4" data-name="Rectangle 4" width="4.075" height="1.046" transform="translate(17.465 35.165) rotate(-25.449)" fill="#fff" opacity="0.62"/>
          </g>
          <path id="Path_29" data-name="Path 29" d="M2765.36,2309.276l-19.232,7.4a4.869,4.869,0,0,0-2.986,3.409l-4.8,20.041a4.869,4.869,0,0,1-8.517,1.933l-12.985-16a4.87,4.87,0,0,0-4.165-1.786l-20.545,1.625a4.869,4.869,0,0,1-4.47-7.5l11.207-17.295a4.87,4.87,0,0,0,.411-4.513l-7.894-19.037a4.87,4.87,0,0,1,5.754-6.57l19.912,5.314a4.871,4.871,0,0,0,4.419-1l15.666-13.39a4.869,4.869,0,0,1,8.026,3.442l1.1,20.579a4.868,4.868,0,0,0,2.32,3.893l17.575,10.762A4.869,4.869,0,0,1,2765.36,2309.276Z" transform="translate(-2337.365 -2215.379)" fill="#f89f1b"/>
          <g id="Group_15" data-name="Group 15" transform="translate(265.509 12.656)">
            <path id="Path_30" data-name="Path 30" d="M2245.969,2103.148l-17.99,10.053a4.87,4.87,0,0,0-2.473,3.8l-1.916,20.519a4.87,4.87,0,0,1-8.157,3.12l-15.121-14a4.869,4.869,0,0,0-4.376-1.178l-20.107,4.518a4.87,4.87,0,0,1-5.488-6.793l8.646-18.708a4.87,4.87,0,0,0-.232-4.526l-10.51-17.727a4.869,4.869,0,0,1,4.765-7.318l20.464,2.44a4.872,4.872,0,0,0,4.233-1.619l13.611-15.474a4.869,4.869,0,0,1,8.433,2.27l4,20.216a4.87,4.87,0,0,0,2.848,3.525l18.922,8.164A4.869,4.869,0,0,1,2245.969,2103.148Z" transform="translate(-2167.552 -2058.593)" fill="#58ddf5"/>
            <path id="Path_31" data-name="Path 31" d="M2238.883,2233.715a9.546,9.546,0,0,0-3.2.17l-13.131,2.95a3.689,3.689,0,0,1-4.158-5.146l5.646-12.218a9.578,9.578,0,0,0-.456-8.9l-6.865-11.578a3.689,3.689,0,0,1,3.611-5.544l6.829.815-.124,1.039-6.829-.814a2.642,2.642,0,0,0-2.586,3.972l6.864,11.577a10.625,10.625,0,0,1,.506,9.876l-5.645,12.218a2.642,2.642,0,0,0,2.977,3.686l13.132-2.95a10.6,10.6,0,0,1,3.547-.189Z" transform="translate(-2208.332 -2171.614)" fill="#fff" opacity="0.62"/>
            <path id="Path_32" data-name="Path 32" d="M2378.175,2177.892a3.7,3.7,0,0,1-5.439.461l-7.555-7,.712-.768,7.555,7a2.641,2.641,0,0,0,4.425-1.693l1.252-13.4a10.728,10.728,0,0,1,5.4-8.288l11.749-6.565a2.643,2.643,0,0,0-.242-4.733l-12.359-5.333a10.619,10.619,0,0,1-6.212-7.691l-2.616-13.2a2.642,2.642,0,0,0-4.575-1.233l-8.89,10.107a10.562,10.562,0,0,1-3.267,2.5l-.463-.938a9.514,9.514,0,0,0,2.944-2.259l8.89-10.107a3.688,3.688,0,0,1,6.387,1.72l2.615,13.2a9.575,9.575,0,0,0,5.6,6.934l12.359,5.332a3.689,3.689,0,0,1,.339,6.607l-11.749,6.566a9.665,9.665,0,0,0-4.863,7.472l-1.252,13.4A3.691,3.691,0,0,1,2378.175,2177.892Z" transform="translate(-2326.901 -2104.621)" fill="#fff" opacity="0.62"/>
            <rect id="Rectangle_5" data-name="Rectangle 5" width="1.046" height="4.075" transform="translate(18.703 23.685) rotate(-83.193)" fill="#fff" opacity="0.62"/>
          </g>
        </g>
      </g>
      <g id="Group_20" data-name="Group 20" transform="translate(222.367 96.22)">
        <g id="Group_18" data-name="Group 18">
          <path id="Path_33" data-name="Path 33" d="M1971.6,1138.085l-35.342,17.407a9.309,9.309,0,0,0-5.1,7.005l-5.7,38.983a9.309,9.309,0,0,1-15.882,5.146l-27.477-28.232a9.308,9.308,0,0,0-8.238-2.684l-38.835,6.63a9.309,9.309,0,0,1-9.8-13.514l18.36-34.857a9.309,9.309,0,0,0,.006-8.664l-18.306-34.885a9.309,9.309,0,0,1,9.823-13.5l38.824,6.689a9.309,9.309,0,0,0,8.242-2.671l27.521-28.19a9.308,9.308,0,0,1,15.874,5.171l5.635,38.991a9.309,9.309,0,0,0,5.087,7.013l35.315,17.464A9.309,9.309,0,0,1,1971.6,1138.085Z" transform="translate(-1824.138 -1049.935)" fill="#58ddf5"/>
          <path id="Path_34" data-name="Path 34" d="M1954.19,1364.177a18.249,18.249,0,0,0-6.124.008l-25.361,4.328a7.053,7.053,0,0,1-7.427-10.238l11.99-22.765a18.311,18.311,0,0,0,.014-17.042l-11.956-22.784a7.052,7.052,0,0,1,7.443-10.226l12.956,2.232-.339,1.971-12.956-2.232a5.052,5.052,0,0,0-5.332,7.326l11.956,22.783a20.309,20.309,0,0,1-.015,18.9l-11.989,22.765a5.05,5.05,0,0,0,5.318,7.332l25.361-4.328a20.281,20.281,0,0,1,6.791-.009Z" transform="translate(-1899.851 -1247.281)" fill="#fff" opacity="0.62"/>
          <path id="Path_35" data-name="Path 35" d="M2220.862,1277.042a7.068,7.068,0,0,1-10.428.342l-13.729-14.105,1.435-1.4,13.729,14.105a5.049,5.049,0,0,0,8.616-2.794l3.72-25.456a20.509,20.509,0,0,1,11.123-15.286l23.081-11.369a5.051,5.051,0,0,0,.007-9.06l-23.065-11.407a20.3,20.3,0,0,1-11.1-15.3l-3.684-25.466a5.05,5.05,0,0,0-8.613-2.807l-17.975,18.413a20.19,20.19,0,0,1-6.485,4.457l-.791-1.836a18.2,18.2,0,0,0,5.844-4.02l17.974-18.412a7.05,7.05,0,0,1,12.024,3.917l3.683,25.467a18.3,18.3,0,0,0,10,13.793l23.065,11.406a7.052,7.052,0,0,1-.009,12.648l-23.081,11.368a18.477,18.477,0,0,0-10.026,13.781l-3.721,25.457A7.046,7.046,0,0,1,2220.862,1277.042Z" transform="translate(-2128.069 -1136.763)" fill="#fff" opacity="0.62"/>
          <rect id="Rectangle_6" data-name="Rectangle 6" width="2" height="7.79" transform="translate(35.534 42.382) rotate(-80.217)" fill="#fff" opacity="0.62"/>
        </g>
        <g id="Group_19" data-name="Group 19" transform="translate(2.657 79.759)">
          <path id="Path_36" data-name="Path 36" d="M1842.577,1553.192s-.275-5.391-1.671-7.887,1.853-3.07,3.452-.727,2.745,8.841,2.745,8.841S1844.316,1555.073,1842.577,1553.192Z" transform="translate(-1840.566 -1543.094)" fill="url(#linear-gradient-4)"/>
          <path id="Path_37" data-name="Path 37" d="M1861.644,1581.612a3.2,3.2,0,0,1-5.45-.016c-1.852-3.033-4.657-7.915-5.172-10.459-.781-3.859-1.313-9.021,3.809-10a60.155,60.155,0,0,1,11.79-.658s1.684,4.743-2.515,4.766l3.193,1.373s1.257,3.837-2.6,3.138l3.359,2.193s0,3.59-3.046,2.581C1862.817,1573.8,1863.607,1578.435,1861.644,1581.612Z" transform="translate(-1848.914 -1557.626)" fill="url(#linear-gradient-5)"/>
        </g>
        <path id="Path_38" data-name="Path 38" d="M2591.474,1397.9c-10.094-4.916-13.949-4.825-18.2-1.112l7.161,5.6c2.315,2.105,1.879,4.28,1,6.108-1.091,2.263.893,5.47,4.183,6.524,2.4.77,4.715.19,6.864-2.824l1.892-3.712C2593.785,1405.762,2594.46,1400.091,2591.474,1397.9Z" transform="translate(-2452.116 -1338.436)" fill="url(#linear-gradient-6)"/>
      </g>
    </g>
  </g>
</svg>
