<svg xmlns="http://www.w3.org/2000/svg" width="535.366" height="524.937" viewBox="0 0 535.366 524.937">
  <g id="europe" transform="translate(-600.685 -7555.173)">
    <g id="Group_562" data-name="Group 562" transform="translate(601.48 7556.137)">
      <path id="Path_8834" data-name="Path 8834" d="M711.47,7761.208a20.667,20.667,0,0,1-6.765,0c-3.409-.636-6.1-2.675-8.569-3.458s-17.294-6.184-19.041-6.425-3.5.568-5.354-2.312-2.535-5.269-4.545-6.771-4.325-1.179-13.249-2.686a46.111,46.111,0,0,1-14.626-4.63c-2.774-1.206-3.058-2.571-10.183-5.69s-15.081-5.312-17.907-6.3-.185.124-7.118-2.269-13.973-8.333-18.317-5.585-6.964,10.816-5.286,14.156,3.013,10.089,5.286,10.32-2.661-1.861,5.982,2.686,12.335,6.771,12.335,6.771,2.94,1.413,0,6.076-3.155,6.694-6.053,10.833-1.5,1.667-4.126,7.077-2.521,6.49-4.455,10-.847,1.229-3.683,9.147a182.989,182.989,0,0,0-5.286,19.678s1.764.417,5.286,2.979,2.351,1.158,3.683,5.1,2.055,7.241,4.455,9.865-.845,5.38,10.179,2.74,21.955-4.618,25.025-2.74,4.666.5,10.183,0,6.41-.8,10.524-3.735,10.022-.586,13.168-6.13a81.432,81.432,0,0,0,4.183-8.082s-.743-.464,0-5.929,1.716-8.169,4.545-11.626-2.346-.783,7.887-8.188S694.817,7774.2,699.3,7773s7.511-3.015,8.879-4.7,6.086-7.092,6.086-7.092Z" transform="translate(-563.041 -7330.825)" fill="none" stroke="#151515" stroke-linecap="round" stroke-linejoin="round" stroke-width="2"/>
      <path id="Path_8835" data-name="Path 8835" d="M595.066,7724.544a72.487,72.487,0,0,0-4.284,7.45c-.492,1.32,3.091-3.011,0,5.854s-2.789,10.1-4.711,13.046-4.341,4.06-6.625,6.661-1.636,1.316-3.833,5.39-3.508,4.9-1.891,7.648,5.835,1.051,5.724,4.9-2.751,5.034-3.833,9.5-1.856,5.858-1.891,8.4,1.617-3.4,5.724,5.87,11.336-3.219,11.336-3.219" transform="translate(-573.002 -7316.34)" fill="none" stroke="#151515" stroke-linecap="round" stroke-linejoin="round" stroke-width="2"/>
      <path id="Path_8836" data-name="Path 8836" d="M622.434,7789.175s4.275-8.794,4.72-11.405.66-9.862,1.936-11.64,1.07-1.792,3.094-5.07,3.361-4.013,3.449-6.642,1.543-7.119,0-10.014,1.124-2.916-3.449-6.237-10.6-2.415-7.549-5.561,2.8-3.612,4.455-4.362,9.113,2.175,1.562-2.178-10-10.146-12.186-11.71-5.949-4.723-5.949-4.723v-6.187s-4.883-3.621,5.949,0,13.717,4.373,13.717,4.373,1.456,2.05,3.449,0,3.847-3.83,4.353-6.612a12.251,12.251,0,0,0,0-4.771s-4.535-3.812,0-3.077,3.97.29,6.779,3.077,15.521,3.033,19.628,0,5.984-3.514,6.834-4.841,2.682-3.757,2.682-3.757l4.718-8.687s-.952.522,2.822,2.544,4.367,1.767,5.288,3.2,11.043,6.7,11.043,6.7a2.824,2.824,0,0,1,2.777,1.764c1.077,2.033,10.193,11.428,11.516,12.663s-.241-.914,3.615,1.8,11.305,5.222,12.465,6.536,1.936,3.024,0,7.57-4.559,8.979-4.924,10.68-.651,4.938-3.825,5.561-16.7,16.251-16.7,16.251h2.012s1.851-1.958,3.262,0,4.817,2.976,4.1,4.561-.921,5.224,0,9.484.353,4.018,0,7.007-2.078,7.438,0,11.87-2.44,9.451-4.1,11.478-7.421,3.622-7.421,3.622-3.331-3.813-5.809-3.622,1.018,3.6-6.207,0-8.865-5.746-11.49-4.228-5.93,2.893-7.466,6.307-1.124,2.537-3.354,5.423-2.987,2.817-7.419,2.666-7,0-7,0h-4.658" transform="translate(-518.297 -7380.97)" fill="none" stroke="#151515" stroke-linecap="round" stroke-linejoin="round" stroke-width="2"/>
      <path id="Path_8837" data-name="Path 8837" d="M662.542,7703.295l1.858,1.06h0a36.876,36.876,0,0,0,7.127,0c2.559-.408,2.53.51,4.142,0s2.637.77,7.1,3.36,1.342,1.863,2.007,2.528,2.893,2.128,6.919,5.9.41,3.271,0,5-4.848,1.372-7.856,1.355-2.445.543-8.169,0-2.817.836-4.142,1.73a28.782,28.782,0,0,1-4.677,2.77c-2.2,1.021-11.36,0-11.36,0h-1.913" transform="translate(-458.268 -7346.595)" fill="none" stroke="#151515" stroke-linecap="round" stroke-linejoin="round" stroke-width="2"/>
      <path id="Path_8838" data-name="Path 8838" d="M653.787,7748.979a27.852,27.852,0,0,1,4.19,0c2.784.157,4.329,1.253,6.879,0s2.774.282,4.966-2,7.795-5.276,9.48-5.18,4.064,1.143,4.834,2.927,1.042,1.586,2.194,4.251a23.833,23.833,0,0,0,3.009,4.954c.923,1.4.829.763,1.61,2.675s1.439,3.9,2.386,6.119a17.936,17.936,0,0,1,1.451,4.17c.277,1.367,10.42,9.219,10.42,9.219s-2.58-5.408,5.785,4.2,9.021,7.767,9.525,11.106,4.969,7.216,4.969,7.216c.213.212-.445.637,2.843,1.931s1.8.542,4.55,1.769a36.8,36.8,0,0,0,3.707,1.508c.213,0,11.554,8.093,11.554,8.093l.847.848c4.242,4.242,7.075,7.645,7.075,7.645v7.635l-3.241,11s1.008.576-3.835,1.978-3.515.7-7.172,1.78a45.886,45.886,0,0,1-7.66,1.743c-2.779.421-5.075-1.5-10.437,0s-7.809.257-9.343,1.559-7.954-1.377-2.251,2.182,9.6,3.678,11.594,5.142.774-.38,5.482,2.895a75.385,75.385,0,0,0,7.385,4.466,45.864,45.864,0,0,0,5.229,2.285s2.817-1.332,2.175-3.392-.185-2.38,0-6.254-2.926-4.408,2.2-6.136,7.828-2.746,7.828-2.746,1.969.942,3.349-1.743,1.508-3.748,3.042-6.667,1.771-4.6,1.771-5.242-.357,1.36,0-2.85.5-4.89,0-7.635-2.642-5.052-2.642-6.359-1.29-1.346.871-3.313,3.911-4.955,6.365-4.451-1.527,2.346,5.652,4.451,11.928,8.607,7.227,1.181-3.229-7.205-8.354-9.6-8.815-3.289-9.121-3.7a61.7,61.7,0,0,0-6.117-4.34c-2.121-1.341-5-1.511-5.1-2.876s.975-2.517.885-3.537-10.138-4.4-12.392-4.2-6.581-7.567-6.581-7.567-4.419-1.843-5.911-3.915-2.552-4.461-3.25-5.3-6.772-10.289-6.772-10.289a63.17,63.17,0,0,1-5.953-5.7c-1.4-1.819-3.224-3.4-3.4-7.3s-1-6.029,0-7.222-1.33-2.737,3.4-3.8,5.6-1.574,7.942-3.041a34.2,34.2,0,0,1,3.146-2.007c.7-.285,1.785.742,3.406-1.4s2.717-7.578,1.482-8.647-4.888-2.012-4.888-2.012l-9.956-7.434h-8.775s1.586-1.462-1.207,0-6.621,1.939-7.355,2.315-3.837,0-3.837,0" transform="translate(-457.969 -7340.75)" fill="none" stroke="#151515" stroke-linecap="round" stroke-linejoin="round" stroke-width="2"/>
      <path id="Path_8839" data-name="Path 8839" d="M667.512,7720.806s2.436-3.063,3.484-3.261,6.6-1.306,7.509-1.184,6.365.97,9.428,0,6.711-2.238,8.616-2.766,2.017.568,3.361-1.583,3.922-4.513,5.312-6.395.81-2.934,2.857-4.069,2.971-2.651,8.706-3.489,12.278.391,14.5,0,2.462-1.615,5.57,0,4.959.928,5.565,3.489,1.269,2.862,1.172,4.069,1.184,3.105-1.172,4.825-2.68,2.445-2.961,3.152.705,2.639,0,3.949.809-.256-1.056,2.307a13.9,13.9,0,0,1-3.846,3.765c-1.226,1-.1.636-5.461,3.008s-2.895,1.583-6.5,2.561-7.563,1.042-9.18,1.693-.31-1.014-3.231,0a9.575,9.575,0,0,1-4.329.75" transform="translate(-438.426 -7355.206)" fill="none" stroke="#151515" stroke-linecap="round" stroke-linejoin="round" stroke-width="2"/>
      <path id="Path_8840" data-name="Path 8840" d="M683.836,7723.837a9.068,9.068,0,0,1,1.721,1.818c.869,1.192.634.405,1.449,1.811s1.233,1.257,1.233,2.642a23.825,23.825,0,0,1,0,3.347c-.156,1.1-.615,1.063,0,2.154s3.368,2.5,5.4,2.234,3,.214,4.206-.717.585.339,3.359-2.843,3.9-3.774,5.5-6.159,2.94-2.722,3.42-4.287.111-2,1.226-3.254,3.946-2.657,4.23-3.688,1.167-.4,0-2.306a46.224,46.224,0,0,1-2.171-4.138,25.431,25.431,0,0,1-.81-2.7" transform="translate(-415.181 -7340.247)" fill="none" stroke="#151515" stroke-linecap="round" stroke-linejoin="round" stroke-width="2"/>
      <path id="Path_8841" data-name="Path 8841" d="M689.5,7731.567s3.97-.085,3.645,2.041.232,3.179,0,3.934-1.2.72,0,2.827,1.394,1.054,3.158,4.93a49.907,49.907,0,0,0,3.624,6.511c1,1.782,2.038,1.9,4.209,3.119a16.709,16.709,0,0,0,4.23,1.661,23.742,23.742,0,0,0,2.945,0c1.207-.109,3.437-1.07,3.482-1.661a4.336,4.336,0,0,0-.93-4.116c-1.619-1.79-6.678-6.9-7.909-7.812s-.906-1.4-1.818-2.631-4.966-2.139-1.7-5.6,8.131-3,8.879-3.2,1.1.663,4.516,0,3.314-1.184,5.665-1.184.27.085,3.747,0,7.416-.319,8.143-1a5.29,5.29,0,0,0,1.127-1.784l-1.127-3.733s-.182-.521-1.529-1.146-2.616-.733-5.508-.987a29.92,29.92,0,0,1-6.408-1.314,5.739,5.739,0,0,1-4.109-2.727,40.6,40.6,0,0,0-3.1-4.016l-3.243-2.089h-2.272" transform="translate(-407.122 -7334.788)" fill="none" stroke="#151515" stroke-linecap="round" stroke-linejoin="round" stroke-width="2"/>
      <path id="Path_8842" data-name="Path 8842" d="M716.264,7719.417a18.469,18.469,0,0,0,2.618,3.5,9.23,9.23,0,0,1,2.152,2.76c1.3,2.02,1.56,1.107,2.291,3.578a35.288,35.288,0,0,0,1.636,4.261,13.657,13.657,0,0,1,1.094,4.066c.052,1.166,1.432.438,0,3.7s-.443,3.557-2.729,4.957-.516,1.339-2.291,2.439-1.48,1.372-3.423,1.945-2.145-1.159-3.411,0-1.212.938-3.5,1.16-2.173,2.925-4.41,0-4.363-5.545-4.363-5.545l-2.305-2.145" transform="translate(-392.701 -7323.638)" fill="none" stroke="#151515" stroke-linecap="round" stroke-linejoin="round" stroke-width="2"/>
      <path id="Path_8843" data-name="Path 8843" d="M706.726,7761.479a1.747,1.747,0,0,0,0,2.29,13.264,13.264,0,0,1,1.5,3.441c.779,2.027.447,1.506,1.127,3.038a10.642,10.642,0,0,0,1.285,2.358c.594.909,1.338,1.214,2.2,2.01s1.274.646,1.962,1.3a3.1,3.1,0,0,0,1.43.794s2.561-1.334,2.8-2.1a29.07,29.07,0,0,1,.949-3.409c.357-.635.289-1.51,1.449-1.862s-.083-.9,2.3,0a12.613,12.613,0,0,1,3.505,1.862s-.071.3,1.219,1.4a11.438,11.438,0,0,1,1.908,2.01,6.166,6.166,0,0,1,3.69-2.01c2.448-.4,3.835-1.231,5.522-1.4s.161-1.171,3.174-.959,4.987.311,5.565,0a8.554,8.554,0,0,1,2.1-.9c1.9-.7,2.419-4.718,2.692-5.576a5.97,5.97,0,0,0,0-2.29s1.853-1.271,1.936-1.979.776-1.58,0-2.449-.731-1.492-1.936-2.7-2.663-1.737-2.692-2.616.8-.059,0-2.675.67-5.753,0-6.376.836-.558-.862-3.366-1.025-2.551-2.488-3.21a32.691,32.691,0,0,1-5.785-3.292c-.975-.9.319-.2-1.709-2.968s-6.715-6.166-7.317-6.728-.343-.021-1.9-3.243a44.925,44.925,0,0,0-3.127-5.5l-5.806-1.5s-2.339-1.175-3.29,0a14.938,14.938,0,0,1-3.342,2.987,47.108,47.108,0,0,0-4.159,2.708c-2.2,1.6-3.91,2.681-3.91,2.681" transform="translate(-383.163 -7333.689)" fill="none" stroke="#151515" stroke-linecap="round" stroke-linejoin="round" stroke-width="2"/>
      <path id="Path_8844" data-name="Path 8844" d="M698.3,7709.562s10.612,1.112,11.916,1.218,3.094-.768,4.607-1.218-.379-.39,4.187-2.239,5.487-1.923,7.1-2.954.275-2.232,4.258-2.677,5.378-.843,7.575-2.056.256-.866,4.58-1.451,4.8.017,7.724,0,5.1-.3,6.3,1.451,3.2,1.249,2.386,3.595-1.264,2.475-2.386,4.092-2.945,2.209-4.545,5.588-.909,3.171-1.754,4.839-.533,2.5-1.342,3.935-1.887,3.156-2.81,4.569-.419.726-1.6,2.438.6,1.109-1.976,2.778-3.421,2.116-3.421,2.116l-1.16,1.436" transform="translate(-394.579 -7354.236)" fill="none" stroke="#151515" stroke-linecap="round" stroke-linejoin="round" stroke-width="2"/>
      <path id="Path_8845" data-name="Path 8845" d="M711.209,7741.125a5.257,5.257,0,0,0,0,4.42c1.046,2.651-1.794,1.875,0,5.345s1.461,2.96,1.794,4.92-2.095.894,0,4.448,1.524,2.35,2.6,5.3a14.274,14.274,0,0,0,2.149,4.453c1.077,1.663.064,1.341,2.635,2.453s3.574,2.611,4.479,0,1.354-4.5,1.354-4.5a23.054,23.054,0,0,0,2.781-2.409c.791-.93,1.584-.75,1.7-2.212a23.928,23.928,0,0,0,0-3.085s4.9,1.244,1.049-2.069-4.424-4.276-4.424-4.276-.506-1.284-1.105-3.022-1.548-2.537-1.354-3.675-.118-2.047,0-2.962,1.354-6.9,1.354-6.9" transform="translate(-377.073 -7298.098)" fill="none" stroke="#151515" stroke-linecap="round" stroke-linejoin="round" stroke-width="2"/>
      <path id="Path_8846" data-name="Path 8846" d="M734.663,7737.936l-1.889-2.254a17.3,17.3,0,0,1,4.4,1.12c1.1.674,2.6,3.251,3.889,4.585s1.87,1.772,2.362,3.92,1.439,2.481,0,4.848-.862,3.607-2.362,4.785-.964,1.273-2.37,1.4a38.31,38.31,0,0,0-5.916,1.021c-1.65.49,1.714.1-4.273,1.247a73.025,73.025,0,0,1-10.389,1.273" transform="translate(-366.374 -7300.479)" fill="none" stroke="#151515" stroke-linecap="round" stroke-linejoin="round" stroke-width="2"/>
      <path id="Path_8847" data-name="Path 8847" d="M716.447,7770.078l1.046,4.287s-.275-.493,2.123,1.627,1.778,1.6,3.136,2.933a14.7,14.7,0,0,0,4.741,2.816c1.411.552,1.458-.142,1.792,3.118s.812,4.076,2.334,4.728,1.214,1.845,4.744,0,6.64-5.975,6.64-5.975-3.191-1.8,0-4.687,3.593-4.56,3.593-4.56.582,1.932-1.73-1.314-.675-3.926-1.863-5.046-1.633-3.525-1.633-4.487,1.037-3.954,1.633-4.01,2.332-.752,3.593,0a23.127,23.127,0,0,0,3.667,1.521s-.286,4.187,1.946,0,3.525-6.376,3.525-6.376a3.555,3.555,0,0,1,1.652-2.271,7.7,7.7,0,0,1,4.476-1.079c2.147.175,4.559-.014,8.529,0s3.413,1.261,6.588,0,4.427-1.162,5.423-1.935,2.625-8.234,2.625-8.234.028-1.822-1.181-1.938-6.171,1.2-6.867,1.938-4.348,1.586-4.348,1.586l-3.323,1.362s.161-.889-3.764,0a44.731,44.731,0,0,0-5.473,1.356c-1.068.391-.729-.39-2.684,0a21.173,21.173,0,0,1-5.177,0,6.4,6.4,0,0,1-3.021,0,18.291,18.291,0,0,1-2.592-1.356" transform="translate(-368.745 -7295.486)" fill="none" stroke="#151515" stroke-linecap="round" stroke-linejoin="round" stroke-width="2"/>
      <path id="Path_8848" data-name="Path 8848" d="M736.456,7765.83s.35-1,5.653-1.758,6.817,1,8.356,0,3.134-.679,4.9-1.21,3.8-1.067,5.373-1.637.916,1.183,3.423,0,3.136-.782,7.056-3.287,4.022-3.151,6.585-4.328,1.354-2.073,4.528-2.073h4.429s-.788-3.8-1.124-5.218.35-1.629,0-3.753-2.045-.6,2.379-8.878,4.7-9.589,2.012-10.044,12.141-3.469-4.391,0-19.2,5-19.2,5l-2.277,1.015s-4.355.9-7.563,1.371-7.62,1.151-9.473,1.354-2.511-.2-5.011,0a29.622,29.622,0,0,1-6.694,0,20.391,20.391,0,0,0-4.656,0l-6.394-1.354" transform="translate(-357.472 -7319.963)" fill="none" stroke="#151515" stroke-linecap="round" stroke-linejoin="round" stroke-width="2"/>
      <path id="Path_8849" data-name="Path 8849" d="M791.288,7757.331a7.446,7.446,0,0,1,0-3.224c.438-1.141,1.323-5.7,1.018-6.485s-1.018-2.572-1.018-2.572,1.638-1.2,2.429-1.694.218.265,2.907,0,9.492-3.448,9.492-3.448l-2.639-4.105s-3.534-1.442-4.337-1.284-5.063,1.975-5.423,2.655-4.6,2.456-5.951,0-1.756-.68-2.2-2.655-2.014-9.977-2.412-12.418,1.382-4.287,0-5.708-.362-2.625-3.577-6.274-8.559-8.609-8.559-8.609-2.073-2.419-3.828-2.934-1.96-2.037-6.131-1.079-7.267,3.645-9.068,4.013,4.588.569-4.3,1.358-13.663-.5-15.621,0-3.8-.639-4.763,0a37.189,37.189,0,0,1-4.3,1.908" transform="translate(-359.409 -7355.297)" fill="none" stroke="#151515" stroke-linecap="round" stroke-linejoin="round" stroke-width="2"/>
      <path id="Path_8850" data-name="Path 8850" d="M739.313,7700.091s1.037-3.055,3.354-3.982-2.074-2.076,6.1-1.677,10.853.487,12.629,1.677,3.151.992,5.371,3.982,3.891,5.688,4.9,6.988.052-.56,1.811,2.276,2.805,4.966,2.805,4.966.689.418,0,2.071a4.922,4.922,0,0,1-1.676,2.339c-.812.86-2.393.653-2.94,2.144s-1.1,1-1.55,2.369.625,1.319,0,2.953-1.761,4.938-1.761,4.938-3.3,2.2-4.5,2.8a4.644,4.644,0,0,1-2.457.43" transform="translate(-336.187 -7359.333)" fill="none" stroke="#151515" stroke-linecap="round" stroke-linejoin="round" stroke-width="2"/>
      <path id="Path_8851" data-name="Path 8851" d="M802.719,7777.444a23.427,23.427,0,0,1,2.805-3.854,6.245,6.245,0,0,0,2.58-3.849,20.6,20.6,0,0,1,2.114-6.576c1.174-2.022,1.463-6.9,3.323-8.081s1.484-2.776,5.205-3.424,1.364-.889,4.609,0,6.084.446,6.978,3.424,1.759,3.679,4.595,2.795-.1-4.325,4.718-2.795,5.719,2.795,5.719,2.795-1.773,5-3.378,5.286-1.877-1.089-2.341,1.744,1.314,3.138,2.341,4.832,3.565,2.471,5,3.849-.009-.448,2.4,2.3,3.454,2.565,4.888,1.555.722-2.361,4.192-3.854,3.877-1.8,5.821-2.74,6.988-5.94,6.988-5.94-9.378-3.935-11.076-4.327a7.869,7.869,0,0,0-3.278,0s-4.14-3.771-4.49-5.5,4.3-6.388,4.49-6.675-3.224,1.554,1.546-1.226,7.816-4.019,10.34-5.643,5.743-5.063,6.581-7.4.729-4.415,2.933-6.089.693,2.746,5.653-4.046,5.636-7.5,5.953-9.2,1.553-3.408,3.229-5.359,3.511-7.74,2.358-11.475a38.54,38.54,0,0,0-5.586-10.322c-1.581-2.025-3.25-2.7-5.953-2.819s-1.872.118-10.931,0-11.817.118-16.12,0-8.193.991-9.935,0-8.55-6.314-12.061-8.254-2.119-.873-4.595-2.58a26.92,26.92,0,0,1-5.12-5.444l-11.672-1.907s-1.943,2.117-3.323,1.907-2.7-.7-4.694,1.318-4.235,2.112-5.515,4.126.1-2.708-2.183,4.069-7.516,5.865-11.123,6.765-5.2-.9-11.587,0-9.743-1.142-11.251,0-8.209.564-10.664,1.2a68.252,68.252,0,0,1-9.014,1.62c-4.123.527-7.108-1.777-8.3,0s-4.171,2.086-4.4,3.923-.275.7,1.3,6.4,2.289,9.393,1.576,11.475-.611,1.841-2.878,5.359-2.187,1.07-4.557,5.764-3.25,6.373-3.25,6.373,2.874-3.418,0,3.979-2.8,7.462-2.672,8.638a8.22,8.22,0,0,1,0,1.979" transform="translate(-362.318 -7398.774)" fill="none" stroke="#151515" stroke-linecap="round" stroke-linejoin="round" stroke-width="2"/>
      <path id="Path_8852" data-name="Path 8852" d="M779.641,7700.932l-4.791-1.843s-2.329-4-2.445-5.468-3.652-3.132,0-5.823,5.215-3.924,5.215-3.924,2.455,1.9-1.212-5.051-3.234-6.739-4-7.643-1.16-4.127-4.524-5.6-4.221-2.187-6.438-1.573a25.116,25.116,0,0,1-9.651,1.573c-6.178.07-13.206-.407-15.048,0s-1.112.864-4.429,0-10-4.754-10-4.754,2.549-1.618-3.191,0-10.95,4.021-11.462,4.754a8.938,8.938,0,0,1-1.318,1.421s-.6,2.753-2.739,2.964-4.767-.252-7.369,1.217-4.3.2-5.324,2.211a46.086,46.086,0,0,0-2.159,5.432c-.4,1.089-2.033.426-1.2,5.051s.575,6.363,2.081,9.747a33.092,33.092,0,0,1,2.455,7.311c.71,2.9-.047-.953,0,4.337s0,7.121,0,7.121a6.225,6.225,0,0,1,4.149,2.574c1.288,2.184.379.924,4.706,3.724s-3.331-.727,6.72,3.973,6.294,3.664,11.462,5.712a64.432,64.432,0,0,1,6.592,2.855,26.173,26.173,0,0,1,2.784,2.106c.694.71-3.16.438,2.58,2.233s7.989,2.386,10.65,2.209,3.522-1.767,12.115-2.209,16.653,0,16.653,0h1.906" transform="translate(-410.218 -7408.092)" fill="none" stroke="#151515" stroke-linecap="round" stroke-linejoin="round" stroke-width="2"/>
      <path id="Path_8853" data-name="Path 8853" d="M715.822,7692.463l.523-.844-.523-.11s-12.418,13.537-12.747,13.737-.585.346-2.706,1.385a23.552,23.552,0,0,1-2.613,1.183" transform="translate(-395.36 -7363.377)" fill="none" stroke="#151515" stroke-linecap="round" stroke-linejoin="round" stroke-width="2"/>
      <path id="Path_8854" data-name="Path 8854" d="M694.56,7720.952l-1.3-3.311a21.758,21.758,0,0,1-4.027-3.283c-1.711-1.86-2.3-3.313-3.951-5.086s-3.435-3.577-4.571-4.946-.8-1.62-1.193-3.667-1.932-3.74,0-4.879,2.635-.882,5.764-2.629,3.385-1.5,5.3-3.727,2.092-3.154,3.979-4.15,1.423-2.257,4.7-3.128,4.912,0,6.55,0" transform="translate(-422.681 -7377.26)" fill="none" stroke="#151515" stroke-linecap="round" stroke-linejoin="round" stroke-width="2"/>
      <path id="Path_8855" data-name="Path 8855" d="M658.037,7738.063v-4.348s-.641-3.271-1.146-5.375-1.027-3.987-1.378-6.108.166-3.451,0-5.356a27,27,0,0,1,0-7.178c.455-3.555.8-4.816,2.523-6.942s1.416-.838,3.215-4.023,3.028-4.945,3.747-7.893-.845-2.622,1.224-5.633,2.786-3.333,4.4-7.907.426-6.067,2.519-5.366,3.674,2.332,5.293,2.918,4.064,1.2,4.064,1.2.708,1.555,2.765-2.975,2.126-8.221,2.514-9.343-4.315-8.175,2.185-3.115,7.026,5.824,8.275,7.5,3.345,4.912,4.862,4.963a25.491,25.491,0,0,0,3.2,0c2.514-.075,5.726-2.928,8.013-3.667s4.98-2.521,6.981-1.3,5.861,1.861,7.139,3.816,1.636,1.661,1.92,2.918.7,2.293,2.358,4.875" transform="translate(-455.858 -7409.933)" fill="none" stroke="#151515" stroke-linecap="round" stroke-linejoin="round" stroke-width="2"/>
      <path id="Path_8856" data-name="Path 8856" d="M722.462,7690.347l5.359-3.757a5.285,5.285,0,0,1,2.341-1.968c1.636-.724,5.721-1.244,7.833-2.863a18.122,18.122,0,0,0,4.694-6.266,57.294,57.294,0,0,1,2.54-5.795c1.719-3.516,3.087-5.356,5.023-10.056s.966-5.3,3.745-7.813,3.2-3.935,5.75-3.935,9.9-1.229,11.689,0,3.541,1.67,5.04,2.471,5.395,2.059,6.384,4.365.379-.1,2.921,4.912,1.053,4.772,4.692,7.162,3.34-.22,6.692,2.894a40.151,40.151,0,0,0,4.755,4s1,.75-2.441,3.743-4.311,1.734-4.311,4.313,1.818,3.36,2,4.831.419,1.381,1.136,2.554-.412.4,1.179,2.64a19.858,19.858,0,0,1,2.441,5.137v1.965" transform="translate(-360.18 -7426.258)" fill="none" stroke="#151515" stroke-linecap="round" stroke-linejoin="round" stroke-width="2"/>
      <path id="Path_8857" data-name="Path 8857" d="M771.818,7662.535v-4.867l-2.121-7.227s-2.576-6.421-2.483-8.71-1.134-1.385-4.841-3.572-8.451.49-13.649,0a31.579,31.579,0,0,0-7.475,0c-1.06,0-1.662,3.866-1.92,5s0,1.362-5.582,7.285-3.212-.188-5.331,0-2.431-1.6-6.181-5.247-3.858,0-3.858,0a55.756,55.756,0,0,0-3.229,5.247c-.608,1.408-2.637,4.683-2.637,4.683v7.411s1.174-.644,7.565-3.41,5.809.582,8.339,0,3.477,1.2,7.123,0,1.8,1.071,5.709,0,5.885-.558,7.475,0a58.4,58.4,0,0,1,7.478,3.41,13.066,13.066,0,0,0,3.491,1.405l6.185,4.614" transform="translate(-374.349 -7440.588)" fill="none" stroke="#151515" stroke-linecap="round" stroke-linejoin="round" stroke-width="2"/>
      <path id="Path_8858" data-name="Path 8858" d="M714.076,7648.25s-.883,1.8-1.34,2.807-1.011-.763,0,2.365.9,3.677,1.34,4.893-3.7-1.812.923,2.191,6.72,4.312,9.22,5.394,2.221-.03,3.844,1.633,2,1.18,3.155,3.623,1.5,2.181,1.061,3.525a7.705,7.705,0,0,1-1.061,2.656,4.684,4.684,0,0,0-.873,1.476c-.35.8.71.733,0,1.392" transform="translate(-374.839 -7424.975)" fill="none" stroke="#151515" stroke-linecap="round" stroke-linejoin="round" stroke-width="2"/>
      <path id="Path_8859" data-name="Path 8859" d="M740.091,7565.145s-.866-2.763-1.972-3.3a6.032,6.032,0,0,0-4.417-.875c-2.805.236-5.908-2.272-6.928.875s-.679,4.006-1.74,8.45-.779,7.51-2.611,9.515-2.263,2.038-4.5,2.717-2.2-1.58-5.5,0-3.735-.316-4.005,2.166a12.937,12.937,0,0,0,1.922,8.567c1.915,2.922,4.173,5.113,5.866,8.907s2.026,1.213,2.758,7.951-1.6,6.538,0,8.952,3.783,3.3,6.076,4.814.757-.363,5.073,4.943,5.672,10.953,3.6,14.549-2.855,3.5-4.474,6.074-2.919,6.21-4.195,8.118-3.028,5.8-4.829,8.365-7.788,8.847-7.788,8.847a38.91,38.91,0,0,1,0,6.818c-.324,3.936-2.968,4.819,0,10.476s6.914,13.1,7.788,13.955-4.614-.174,3.577,2.639,8.2,1.936,13.251,2.021,9.312.436,13.587-5.781-.518-3.069,7.34-8.415,7.925-.71,10.051-7.521,2.6-8.575,4.235-14.191,4.77-3.81,3.565-10.054-2.474-7.016-3.565-8.97-3.371-.931-6.2-8.336-3.113-10.058-3.65-10.892a43.072,43.072,0,0,1-3.522-4.288,14.779,14.779,0,0,1-2.2-6.415c-.336-1.807.667-2.751,0-4.307s-.589-1.726-1.991-5.34.461-2.407,0-2.961a11.363,11.363,0,0,1-1.91-3.1,21.266,21.266,0,0,1-1.214-3.307c-.223-1.011-.937-7.549-.937-7.549l-3.091-7.2s-3.688-6.631-4.675-7.374-2.308-4.118-2.763-6.344-.9-1.942,0-6.137A15.125,15.125,0,0,0,740.091,7565.145Z" transform="translate(-380.312 -7550.29)" fill="none" stroke="#151515" stroke-linecap="round" stroke-linejoin="round" stroke-width="2"/>
      <path id="Path_8860" data-name="Path 8860" d="M780.177,7587.241l-6.292-2.557s-.218-.716-2.374,0-4.28,3.03-5.641,5.356-2.19,3.1-2.559,3.868.225.679-1.266,1.436a41.44,41.44,0,0,1-4.469,1.568c-1.749.659-4.557,2.073-4.557,2.073a7.617,7.617,0,0,0-1.856,1.97c-.623,1.081-8.2,11.189-8.99,13.092s-.58.907-2.921,8.471-1.037,9.587-4.756,13.863-3.539,4.156-5.177,8.292-2.528,14.373-2.478,15.044a9.05,9.05,0,0,1-3.361,4.856c-1.754,1.019-3.179,1.246-5.049,2.928s-2.651,2.224-2.44,4.069a13.718,13.718,0,0,1,0,5.391c-.5,2.06-3.191,20.162-3.144,21.573s3.387,6.33,3.144,8.209a67.616,67.616,0,0,1-2.209,8.307c-.585,1.74,2.618-5.3-.935,3.693a126.855,126.855,0,0,0-4.995,14.278c-.8,2.726.466,2.461-1.288,3.736s-2.107,1.18-2.833,0-2.187-5.194-3.013-6.664-6.848-4.432-7.423-2.938.684,1.764-1.56,7.22-4.005,7.786-5.189,8.492-3.2,1.438-4.654,2.2-3.3,2.143-5.208,2.425-5.8,1.98-7.994,0-5.766-4.951-6.235-6.061-3.328-3.048-1.257-7.052,3.331-9.394,3.989-10.185-2.729,4.846,2.374-3.581,6.671-11.182,5.461-11.231-7.835,1.82-7.835,1.82v-8.329s-1.385-2,2.374,0,2.426,2,5.461,2,2.841.679,5.406-2,3.193-2.72,1.979-3.415-6.159-2.385-7.385-2.213-.651-.28-3.047,0-6.846,3.216-4.789-1.259-9.08,3.544,3.5-5.483,13.2-10.054,13.2-10.054-.433-1.13,2.7-3.484,2.931-3.056,5.333-3.821,4.029-.753,5.79-1.569,5-4.069,5-4.069,2.909-4.2,3.013-5.238,2.833-3.8,2.833-3.8l15.107-18.817a42.516,42.516,0,0,1,1.809-4.709c.715-1.336-.613-.748,1.449-5.722s1.913-7.73,1.913-7.73,2.391-1.1,2.478-2.213,3.222-6.393,3.222-6.393l9.632-15.965s3.712-.4,4.919-3,.017-2.742,4.072-5.544,3.844-3.624,6.412-5.908,1.8-2.4,4.469-3.874,7.2-4.464,9.466-6.97,8.747-6.809,9.809-8.325a42.173,42.173,0,0,1,2.7-3.651c1.86-2.333,16.915-3.264,16.915-3.264a3.382,3.382,0,0,0,2.616,0c1.15-.626,6.708.223,7.717,0s2.2,2.7,3.151,3.264.869,2.849,1.709,4.6,1.567.336,1.917,3.822a23.732,23.732,0,0,1,0,5.575c-.033.854,0,2.324,0,2.324s-1.612,2.55-3.627,2.629-4.012,0-4.012,0h-1.638" transform="translate(-448.476 -7556.138)" fill="none" stroke="#151515" stroke-linecap="round" stroke-linejoin="round" stroke-width="2"/>
      <path id="Path_8861" data-name="Path 8861" d="M678.958,7696.9l1.709,11.2s-1.932-5.944,0,1.782.2,5.613,3.032,10.034,3.323,4.763,3.8,7.809-.66,2.3,0,4.161-1.392-4.465,0,3.447.869,7.966,1.61,10.2a14.081,14.081,0,0,0,1.775,3.7c.81,1.458,1.11,1.541,3.2,1.777s2.379-.111,3.7-1.777,2.9-4.957,3.977-5.962-3.231-.344,2.713-2.026,8.067-3.051,8.067-3.051.833-5.162,2.268-6.311,2.829-2.39,3.065-7.639a82.34,82.34,0,0,0,0-8.6l-1.688-7.551a4.038,4.038,0,0,1,1.688-4.506c2.6-1.806,5.283-1.738,5.776-2.7s-3.252-7.073-4.6-7.465-3.87,1.238-2.866-1.224.213-2.427,2.866-2.972-.346-3.37,4.6-1.72a29.085,29.085,0,0,0,7.4,1.72s4.223,3.289,3.16-1.72a40.625,40.625,0,0,0-3.16-9.083s-1.049-2.454-4.983,0a6.142,6.142,0,0,1-7.016,0,20.171,20.171,0,0,0,0-6.057,67.259,67.259,0,0,1,0-12.967c.365-1.67-1.669,1.521,0-4.37s1.489-7.959,2.938-10.345,5.388-9.3,9.061-12.573.559-2.217,5.638-5.359,6.3-2.053,7.438-4.92a40.72,40.72,0,0,0,2.5-7.705c.911-3.915-1.9-3.961,0-7.24s2.4-4.661,3.989-7.821,3.144-4.834,4.41-6.928,5.16-7.585,5.16-7.585" transform="translate(-422.127 -7515.66)" fill="none" stroke="#151515" stroke-linecap="round" stroke-linejoin="round" stroke-width="2"/>
      <path id="Path_8862" data-name="Path 8862" d="M729.766,7653.126v-6.549s1.226-1.922-3.553-1.991-6.739,4.2-7.028,0-.4-6.047,0-6.983,5.08-7.621,7.028-8.685,3.054-2.422,8.254-2.14,6.322-1.52,8.713,0,4.443.82,5.74,3.984,2.824.954,2.137,6.84.476,11.787,0,12.725a5.244,5.244,0,0,0,0,2.8" transform="translate(-365.219 -7456.427)" fill="none" stroke="#151515" stroke-linecap="round" stroke-linejoin="round" stroke-width="2"/>
      <path id="Path_8863" data-name="Path 8863" d="M668.869,7670.9l-1.309-2.046a4.489,4.489,0,0,0,0-3.53,13.836,13.836,0,0,1-1.091-5.7c.192-1.443-2.27-.73,1.091-4.457s5.084-4.8,6.226-6.035.246-1.844,3.425-3.454,5.93-3.368,5.93-3.368,1.257,6.554,1.02,6.822-.526.735-1.02,3.841-.774,4.645,0,5.605,3.482-.887,1.02,2.185-3.88,1.648-5.475,4.565-.073,1.049-1.475,5.576-1.049,4.788-1.806,5.725,2.237-.381-1.619,0-5,2.007-4.917,0S668.869,7670.9,668.869,7670.9Z" transform="translate(-440.896 -7433.438)" fill="none" stroke="#151515" stroke-linecap="round" stroke-linejoin="round" stroke-width="2"/>
      <path id="Path_8864" data-name="Path 8864" d="M609.7,7747.183s7.068.6,11.038,0a30.1,30.1,0,0,0,7.215-2.084l5.579-3.8s-.39-.841,5.189,1.552,7.485.7,9.637,2.246,1.993,2.255,5.262,2.084-1.148,1.925,7.875-2.084,8.027-6.271,8.027-6.271-2.691.423,1.934-2.987,6.7-5.331,6.7-5.331-.078-3.372,0-4.768,2.64-.682-4.256-2.331-9.054.639-9-3.13-1.6-5.191,0-6.4,1.771-1.29,1.771-3.96.727-6.74,0-8.537-1.692-4.3-3.631-9.283-3.747-6.205-3.3-10.3,3.529-6.25,0-8.2-3.865-3.315-6.119-4.684-3.8-2.53-3.8-2.53-3.148-1.35,0-4.32,1.105-4.164,3.8-5.307,2.478,3.155,6.119-4.1,5.89-8.477,3.3-9.024-7.374-2.254-9.419-2.254h-3.8s-3.366,2.3-1.458-3.243,1.42-6.3,2.888-7.291a9.114,9.114,0,0,0,2.374-2.46l-11.507,5.924s1.846.829,0,2.348-2.09.573-3.392,4.723a32.6,32.6,0,0,1-2.436,6.086,9.928,9.928,0,0,0-2.753,2.248c-.869,1.213,1.4,6.525,2.753,7.047s-1.671-3.867,0,3.74,2.05,5.649,0,8.417-4.313,1.163-4.545,4.684,7.132,5.388,10.373,5.986,4.424,6.657,4.424,6.657-5.646-4.741-2.62,0,2.935,4.349,2.62,7.242-4.486,9.58-4.424,12.432-3.392,2.092-3.392,2.092,2.365-.968-2.436,0-6.1-.6-6.1,1.907.63-.722,0,3.96,1.487,6.334-2.232,6.4-6.088-1.942-7.215,0-6.308-.063-5.094,3.13,12.309,7.1,12.309,7.1-1.61.622,2.232,0,11.2-3.5,8.536,0-3.406,5.5-5.189,5.331-6.183-2.891-10.143,0-6.143,3.166-7.745,5.46a13.794,13.794,0,0,1-3.686,3.8A21.168,21.168,0,0,0,609.7,7747.183Z" transform="translate(-520.748 -7453.257)" fill="none" stroke="#151515" stroke-linecap="round" stroke-linejoin="round" stroke-width="2"/>
      <path id="Path_8865" data-name="Path 8865" d="M603.245,7690.564s8.193-3.441,12.122-3.893-.542,2.123,5.605,0,8.744-1.19,9.75-3.516a38.792,38.792,0,0,0,2.616-9.605c.748-4.55,1.813-10.846,1.887-12.132s0-2.911,0-2.911a6.456,6.456,0,0,1-4.5,0c-2.72-.865-3.906,1.063-5.958-1.737s-7.421-6-7.421-6a4.982,4.982,0,0,0-1.977,0c-1,.228,2.3-12.225-3.671,0s-4.938,20.888-4.938,20.888,1.965,1.687,0,1.89-1.5.6-3.513,2.043-4.507-.191-5.331,2.687-1.52,1.485-1.52,4.876-1.733,2.575,0,5.061S603.245,7690.564,603.245,7690.564Z" transform="translate(-540.788 -7429.048)" fill="none" stroke="#151515" stroke-linecap="round" stroke-linejoin="round" stroke-width="2"/>
      <path id="Path_8866" data-name="Path 8866" d="M609.719,7653.7s-1.356-1.945,0-5.161-8.4-4.857,0-4.3,15.285,1.521,16.191,2.69-1.058-.783,0,1.611-.665,1.661,0,5.161.72,4.477,0,5.765-.443.034-2.7,1.44" transform="translate(-525.631 -7430.845)" fill="none" stroke="#151515" stroke-linecap="round" stroke-linejoin="round" stroke-width="2"/>
      <path id="Path_8867" data-name="Path 8867" d="M617.979,7631.835s.618.8,2.49,0,2.928-5.359,2.928-5.359-.249-1.142-2.928,0-3.842.545-3.92,2.735S617.979,7631.835,617.979,7631.835Z" transform="translate(-510.997 -7456.703)" fill="none" stroke="#151515" stroke-linecap="round" stroke-linejoin="round" stroke-width="2"/>
      <path id="Path_8868" data-name="Path 8868" d="M632.581,7624.729l-3.97-7.617h-2.2s-.54-6.112,2.2-7.752,2.092-1.673,3.97-2.762,4.642-5.125,6.285-5.223,1.193-.479,3.593,0,.315-3.056,3.671,0,4.057,6.286,2.474,7.984-1.1,1.977-2.474,3.343-1.529,2.892-2.175,4.409.09,5.951-1.5,7.617a7.386,7.386,0,0,0-1.9,2.952l-3.409,1.427-2.424-4.379Z" transform="translate(-497.013 -7493.514)" fill="none" stroke="#151515" stroke-linecap="round" stroke-linejoin="round" stroke-width="2"/>
      <path id="Path_8869" data-name="Path 8869" d="M639.854,7615.9a15.289,15.289,0,0,0,0,3.091c.206.479-.412.793,1.463,1.275s1.986,1.46,2.19,0,.22-1.61,0-2.29a5.853,5.853,0,0,0-1.013-2.076C642.019,7615.4,639.854,7615.9,639.854,7615.9Z" transform="translate(-477.94 -7471.361)" fill="none" stroke="#151515" stroke-linecap="round" stroke-linejoin="round" stroke-width="2"/>
      <path id="Path_8870" data-name="Path 8870" d="M612.874,7610.99s-7.587,1.681,3.979,0,13.306-1.247,17.521-2.413,9.109-2.6,9.109-2.6,1.64-.78,1.64-6.236,1.252-9.36,0-11.1,1.612.206-3.309-5.24-4.223-8.244-7.44-6.779a89.135,89.135,0,0,0-8.126,4.562s1.9.682-4.313-2.807-9.061-1.755-9.061-1.755-2.336,11.244-4.142,1.755-1.416-9.291,0-11.4,7.182-4.42,4.142-5.359-5.175-3.54-6.7-3.54-3.106-2.5-3.723,1.885-.72,6.044,0,7.015.9-3.046,0,4.617.831,10.245-2.488,9.588-3.214-10.256-5.208-2.807-.206,9.6,0,10.265a33.641,33.641,0,0,0,2.668,7.771c2.388,5.416.791,4.237,5.028,9.567A13.4,13.4,0,0,0,612.874,7610.99Z" transform="translate(-543.354 -7554.386)" fill="none" stroke="#151515" stroke-linecap="round" stroke-linejoin="round" stroke-width="2"/>
      <path id="Path_8871" data-name="Path 8871" d="M630.988,7752.293s3.181,2.887,4.327,3.092,1.61,2.4,1.669,0-1.669-6.412-1.669-6.412l-1.991,1.246Z" transform="translate(-490.433 -7281.552)" fill="none" stroke="#151515" stroke-linecap="round" stroke-linejoin="round" stroke-width="2"/>
      <path id="Path_8872" data-name="Path 8872" d="M669.642,7745.092a15.962,15.962,0,0,1,1.965,4.02c.911,2.617,1.117-.961,1.117,6.594s4.438,5.652,0,10.267-3.891,5.34-5.691,6.5-2.59,3.077-4.5,3.905-5.047-6.017-5.047-8.171-.173-5.352,2.154-8.742,3.541-5.138,4.022-6.336.9-5.163,1.763-6.46,4.007-4,4.211-3.181A3.631,3.631,0,0,1,669.642,7745.092Z" transform="translate(-452.698 -7289.572)" fill="none" stroke="#151515" stroke-linecap="round" stroke-linejoin="round" stroke-width="2"/>
      <path id="Path_8873" data-name="Path 8873" d="M664.68,7751.277a22.363,22.363,0,0,0,2.254-1.773c.135-.26.44.071.693-2.086s.41-3.211.762-5.37.447-2.54.689-4.117,1.046-3.206,0-3.639-6.626,3.1-7.274,3.639-2.1-1.475-.743,1.785,2.559,4.015,2.762,6.354A46.035,46.035,0,0,0,664.68,7751.277Z" transform="translate(-448.41 -7302.51)" fill="none" stroke="#151515" stroke-linecap="round" stroke-linejoin="round" stroke-width="2"/>
      <path id="Path_8874" data-name="Path 8874" d="M722.589,7764.609a29.348,29.348,0,0,0,6.273,1.58c3.134.36,6.711-.11,9.658,0s3.74-.337,4.945.8-2.225-.77,2.156,1.846,5.639,4.052,6.6,2.689,1.494-3.666,0-4.535,4.27.58-3.645-2.377-7.774-3.067-8.458-3.152-.855.657-2.374-.923a22.8,22.8,0,0,1-2.5-3.112" transform="translate(-360 -7269.523)" fill="none" stroke="#151515" stroke-linecap="round" stroke-linejoin="round" stroke-width="2"/>
      <path id="Path_8875" data-name="Path 8875" d="M727.139,7762.52s.459.97-2.052,2.395-4.154-.786-3.319,2.409,1.02,2.838,2.419,4.508-.582-1.07,3.593,3.044,5.144,4.485,7.558,5.975,2.45.729,4.2,1.889a47.081,47.081,0,0,0,5.058,2.449c.871.492.693-1.891,0-4.338s-1.853-5.915-1.853-6.674,1.877-.407,1.853-1.606a8.35,8.35,0,0,0-1.853-5.246c-1.6-1.961-2-3.162-3.205-3.231s-2.609.533-3.7,0-4.789-1.728-5.684-1.572A18.448,18.448,0,0,1,727.139,7762.52Z" transform="translate(-361.482 -7262.282)" fill="none" stroke="#151515" stroke-linecap="round" stroke-linejoin="round" stroke-width="2"/>
    </g>
  </g>
</svg>
